G04 #@! TF.FileFunction,Legend,Bot*
%FSLAX46Y46*%
G04 Gerber Fmt 4.6, Leading zero omitted, Abs format (unit mm)*
G04 Created by KiCad (PCBNEW 4.0.4-stable) date 12/10/16 19:05:05*
%MOMM*%
%LPD*%
G01*
G04 APERTURE LIST*
%ADD10C,0.100000*%
%ADD11C,0.250000*%
%ADD12C,0.200000*%
%ADD13C,0.300000*%
%ADD14C,0.150000*%
%ADD15C,0.002540*%
G04 APERTURE END LIST*
D10*
D11*
X267727381Y-141291667D02*
X267727381Y-141101190D01*
X267775000Y-141005952D01*
X267822619Y-140958333D01*
X267965476Y-140863095D01*
X268155952Y-140815476D01*
X268536905Y-140815476D01*
X268632143Y-140863095D01*
X268679762Y-140910714D01*
X268727381Y-141005952D01*
X268727381Y-141196429D01*
X268679762Y-141291667D01*
X268632143Y-141339286D01*
X268536905Y-141386905D01*
X268298810Y-141386905D01*
X268203571Y-141339286D01*
X268155952Y-141291667D01*
X268108333Y-141196429D01*
X268108333Y-141005952D01*
X268155952Y-140910714D01*
X268203571Y-140863095D01*
X268298810Y-140815476D01*
X268727381Y-141815476D02*
X268060714Y-141815476D01*
X268155952Y-141815476D02*
X268108333Y-141863095D01*
X268060714Y-141958333D01*
X268060714Y-142101191D01*
X268108333Y-142196429D01*
X268203571Y-142244048D01*
X268727381Y-142244048D01*
X268203571Y-142244048D02*
X268108333Y-142291667D01*
X268060714Y-142386905D01*
X268060714Y-142529762D01*
X268108333Y-142625000D01*
X268203571Y-142672619D01*
X268727381Y-142672619D01*
X268727381Y-143148809D02*
X268060714Y-143148809D01*
X268155952Y-143148809D02*
X268108333Y-143196428D01*
X268060714Y-143291666D01*
X268060714Y-143434524D01*
X268108333Y-143529762D01*
X268203571Y-143577381D01*
X268727381Y-143577381D01*
X268203571Y-143577381D02*
X268108333Y-143625000D01*
X268060714Y-143720238D01*
X268060714Y-143863095D01*
X268108333Y-143958333D01*
X268203571Y-144005952D01*
X268727381Y-144005952D01*
D12*
X270175000Y-140500000D02*
X267700000Y-140500000D01*
X260675000Y-140500000D02*
X259400000Y-140500000D01*
D11*
X259647619Y-140865476D02*
X259600000Y-140913095D01*
X259552381Y-141008333D01*
X259552381Y-141246429D01*
X259600000Y-141341667D01*
X259647619Y-141389286D01*
X259742857Y-141436905D01*
X259838095Y-141436905D01*
X259980952Y-141389286D01*
X260552381Y-140817857D01*
X260552381Y-141436905D01*
X260552381Y-142389286D02*
X260552381Y-141817857D01*
X260552381Y-142103571D02*
X259552381Y-142103571D01*
X259695238Y-142008333D01*
X259790476Y-141913095D01*
X259838095Y-141817857D01*
X260504762Y-142865476D02*
X260552381Y-142865476D01*
X260647619Y-142817857D01*
X260695238Y-142770238D01*
X259552381Y-143770238D02*
X259552381Y-143294047D01*
X260028571Y-143246428D01*
X259980952Y-143294047D01*
X259933333Y-143389285D01*
X259933333Y-143627381D01*
X259980952Y-143722619D01*
X260028571Y-143770238D01*
X260123810Y-143817857D01*
X260361905Y-143817857D01*
X260457143Y-143770238D01*
X260504762Y-143722619D01*
X260552381Y-143627381D01*
X260552381Y-143389285D01*
X260504762Y-143294047D01*
X260457143Y-143246428D01*
X260552381Y-144246428D02*
X259885714Y-144246428D01*
X259980952Y-144246428D02*
X259933333Y-144294047D01*
X259885714Y-144389285D01*
X259885714Y-144532143D01*
X259933333Y-144627381D01*
X260028571Y-144675000D01*
X260552381Y-144675000D01*
X260028571Y-144675000D02*
X259933333Y-144722619D01*
X259885714Y-144817857D01*
X259885714Y-144960714D01*
X259933333Y-145055952D01*
X260028571Y-145103571D01*
X260552381Y-145103571D01*
X260552381Y-145579761D02*
X259885714Y-145579761D01*
X259980952Y-145579761D02*
X259933333Y-145627380D01*
X259885714Y-145722618D01*
X259885714Y-145865476D01*
X259933333Y-145960714D01*
X260028571Y-146008333D01*
X260552381Y-146008333D01*
X260028571Y-146008333D02*
X259933333Y-146055952D01*
X259885714Y-146151190D01*
X259885714Y-146294047D01*
X259933333Y-146389285D01*
X260028571Y-146436904D01*
X260552381Y-146436904D01*
X248077381Y-136686905D02*
X248077381Y-136115476D01*
X248077381Y-136401190D02*
X247077381Y-136401190D01*
X247220238Y-136305952D01*
X247315476Y-136210714D01*
X247363095Y-136115476D01*
X248077381Y-137639286D02*
X248077381Y-137067857D01*
X248077381Y-137353571D02*
X247077381Y-137353571D01*
X247220238Y-137258333D01*
X247315476Y-137163095D01*
X247363095Y-137067857D01*
X248077381Y-138067857D02*
X247410714Y-138067857D01*
X247505952Y-138067857D02*
X247458333Y-138115476D01*
X247410714Y-138210714D01*
X247410714Y-138353572D01*
X247458333Y-138448810D01*
X247553571Y-138496429D01*
X248077381Y-138496429D01*
X247553571Y-138496429D02*
X247458333Y-138544048D01*
X247410714Y-138639286D01*
X247410714Y-138782143D01*
X247458333Y-138877381D01*
X247553571Y-138925000D01*
X248077381Y-138925000D01*
X248077381Y-139401190D02*
X247410714Y-139401190D01*
X247505952Y-139401190D02*
X247458333Y-139448809D01*
X247410714Y-139544047D01*
X247410714Y-139686905D01*
X247458333Y-139782143D01*
X247553571Y-139829762D01*
X248077381Y-139829762D01*
X247553571Y-139829762D02*
X247458333Y-139877381D01*
X247410714Y-139972619D01*
X247410714Y-140115476D01*
X247458333Y-140210714D01*
X247553571Y-140258333D01*
X248077381Y-140258333D01*
D12*
X246875000Y-140500000D02*
X247675000Y-140500000D01*
X245747619Y-146115476D02*
X245700000Y-146163095D01*
X245652381Y-146258333D01*
X245652381Y-146496429D01*
X245700000Y-146591667D01*
X245747619Y-146639286D01*
X245842857Y-146686905D01*
X245938095Y-146686905D01*
X246080952Y-146639286D01*
X246652381Y-146067857D01*
X246652381Y-146686905D01*
X245747619Y-147067857D02*
X245700000Y-147115476D01*
X245652381Y-147210714D01*
X245652381Y-147448810D01*
X245700000Y-147544048D01*
X245747619Y-147591667D01*
X245842857Y-147639286D01*
X245938095Y-147639286D01*
X246080952Y-147591667D01*
X246652381Y-147020238D01*
X246652381Y-147639286D01*
X246652381Y-148067857D02*
X245985714Y-148067857D01*
X246080952Y-148067857D02*
X246033333Y-148115476D01*
X245985714Y-148210714D01*
X245985714Y-148353572D01*
X246033333Y-148448810D01*
X246128571Y-148496429D01*
X246652381Y-148496429D01*
X246128571Y-148496429D02*
X246033333Y-148544048D01*
X245985714Y-148639286D01*
X245985714Y-148782143D01*
X246033333Y-148877381D01*
X246128571Y-148925000D01*
X246652381Y-148925000D01*
X246652381Y-149401190D02*
X245985714Y-149401190D01*
X246080952Y-149401190D02*
X246033333Y-149448809D01*
X245985714Y-149544047D01*
X245985714Y-149686905D01*
X246033333Y-149782143D01*
X246128571Y-149829762D01*
X246652381Y-149829762D01*
X246128571Y-149829762D02*
X246033333Y-149877381D01*
X245985714Y-149972619D01*
X245985714Y-150115476D01*
X246033333Y-150210714D01*
X246128571Y-150258333D01*
X246652381Y-150258333D01*
X248175000Y-151500000D02*
X246225000Y-151500000D01*
X246875000Y-129500000D02*
X246875000Y-151500000D01*
X246325000Y-129500000D02*
X248175000Y-129500000D01*
D11*
X257685714Y-145752381D02*
X258161905Y-145752381D01*
X258209524Y-146228571D01*
X258161905Y-146180952D01*
X258066667Y-146133333D01*
X257828571Y-146133333D01*
X257733333Y-146180952D01*
X257685714Y-146228571D01*
X257638095Y-146323810D01*
X257638095Y-146561905D01*
X257685714Y-146657143D01*
X257733333Y-146704762D01*
X257828571Y-146752381D01*
X258066667Y-146752381D01*
X258161905Y-146704762D01*
X258209524Y-146657143D01*
X257352381Y-145752381D02*
X257019048Y-146752381D01*
X256685714Y-145752381D01*
X254876190Y-145704762D02*
X255733333Y-146990476D01*
X253257142Y-146752381D02*
X253828571Y-146752381D01*
X253542857Y-146752381D02*
X253542857Y-145752381D01*
X253638095Y-145895238D01*
X253733333Y-145990476D01*
X253828571Y-146038095D01*
X252638095Y-145752381D02*
X252542856Y-145752381D01*
X252447618Y-145800000D01*
X252399999Y-145847619D01*
X252352380Y-145942857D01*
X252304761Y-146133333D01*
X252304761Y-146371429D01*
X252352380Y-146561905D01*
X252399999Y-146657143D01*
X252447618Y-146704762D01*
X252542856Y-146752381D01*
X252638095Y-146752381D01*
X252733333Y-146704762D01*
X252780952Y-146657143D01*
X252828571Y-146561905D01*
X252876190Y-146371429D01*
X252876190Y-146133333D01*
X252828571Y-145942857D01*
X252780952Y-145847619D01*
X252733333Y-145800000D01*
X252638095Y-145752381D01*
X251685714Y-145752381D02*
X251590475Y-145752381D01*
X251495237Y-145800000D01*
X251447618Y-145847619D01*
X251399999Y-145942857D01*
X251352380Y-146133333D01*
X251352380Y-146371429D01*
X251399999Y-146561905D01*
X251447618Y-146657143D01*
X251495237Y-146704762D01*
X251590475Y-146752381D01*
X251685714Y-146752381D01*
X251780952Y-146704762D01*
X251828571Y-146657143D01*
X251876190Y-146561905D01*
X251923809Y-146371429D01*
X251923809Y-146133333D01*
X251876190Y-145942857D01*
X251828571Y-145847619D01*
X251780952Y-145800000D01*
X251685714Y-145752381D01*
X250923809Y-146752381D02*
X250923809Y-146085714D01*
X250923809Y-146180952D02*
X250876190Y-146133333D01*
X250780952Y-146085714D01*
X250638094Y-146085714D01*
X250542856Y-146133333D01*
X250495237Y-146228571D01*
X250495237Y-146752381D01*
X250495237Y-146228571D02*
X250447618Y-146133333D01*
X250352380Y-146085714D01*
X250209523Y-146085714D01*
X250114285Y-146133333D01*
X250066666Y-146228571D01*
X250066666Y-146752381D01*
X249638095Y-146466667D02*
X249161904Y-146466667D01*
X249733333Y-146752381D02*
X249400000Y-145752381D01*
X249066666Y-146752381D01*
X257585714Y-134052381D02*
X258061905Y-134052381D01*
X258109524Y-134528571D01*
X258061905Y-134480952D01*
X257966667Y-134433333D01*
X257728571Y-134433333D01*
X257633333Y-134480952D01*
X257585714Y-134528571D01*
X257538095Y-134623810D01*
X257538095Y-134861905D01*
X257585714Y-134957143D01*
X257633333Y-135004762D01*
X257728571Y-135052381D01*
X257966667Y-135052381D01*
X258061905Y-135004762D01*
X258109524Y-134957143D01*
X257252381Y-134052381D02*
X256919048Y-135052381D01*
X256585714Y-134052381D01*
X254776190Y-134004762D02*
X255633333Y-135290476D01*
X253157142Y-135052381D02*
X253728571Y-135052381D01*
X253442857Y-135052381D02*
X253442857Y-134052381D01*
X253538095Y-134195238D01*
X253633333Y-134290476D01*
X253728571Y-134338095D01*
X252538095Y-134052381D02*
X252442856Y-134052381D01*
X252347618Y-134100000D01*
X252299999Y-134147619D01*
X252252380Y-134242857D01*
X252204761Y-134433333D01*
X252204761Y-134671429D01*
X252252380Y-134861905D01*
X252299999Y-134957143D01*
X252347618Y-135004762D01*
X252442856Y-135052381D01*
X252538095Y-135052381D01*
X252633333Y-135004762D01*
X252680952Y-134957143D01*
X252728571Y-134861905D01*
X252776190Y-134671429D01*
X252776190Y-134433333D01*
X252728571Y-134242857D01*
X252680952Y-134147619D01*
X252633333Y-134100000D01*
X252538095Y-134052381D01*
X251585714Y-134052381D02*
X251490475Y-134052381D01*
X251395237Y-134100000D01*
X251347618Y-134147619D01*
X251299999Y-134242857D01*
X251252380Y-134433333D01*
X251252380Y-134671429D01*
X251299999Y-134861905D01*
X251347618Y-134957143D01*
X251395237Y-135004762D01*
X251490475Y-135052381D01*
X251585714Y-135052381D01*
X251680952Y-135004762D01*
X251728571Y-134957143D01*
X251776190Y-134861905D01*
X251823809Y-134671429D01*
X251823809Y-134433333D01*
X251776190Y-134242857D01*
X251728571Y-134147619D01*
X251680952Y-134100000D01*
X251585714Y-134052381D01*
X250823809Y-135052381D02*
X250823809Y-134385714D01*
X250823809Y-134480952D02*
X250776190Y-134433333D01*
X250680952Y-134385714D01*
X250538094Y-134385714D01*
X250442856Y-134433333D01*
X250395237Y-134528571D01*
X250395237Y-135052381D01*
X250395237Y-134528571D02*
X250347618Y-134433333D01*
X250252380Y-134385714D01*
X250109523Y-134385714D01*
X250014285Y-134433333D01*
X249966666Y-134528571D01*
X249966666Y-135052381D01*
X249538095Y-134766667D02*
X249061904Y-134766667D01*
X249633333Y-135052381D02*
X249300000Y-134052381D01*
X248966666Y-135052381D01*
D13*
X254628572Y-129007143D02*
X255771429Y-129007143D01*
X255200000Y-129578571D02*
X255200000Y-128435714D01*
X255207143Y-132071428D02*
X255207143Y-130928571D01*
X255207143Y-154971428D02*
X255207143Y-153828571D01*
X254628572Y-152107143D02*
X255771429Y-152107143D01*
X255200000Y-152678571D02*
X255200000Y-151535714D01*
X255307143Y-143571428D02*
X255307143Y-142428571D01*
X254728572Y-140307143D02*
X255871429Y-140307143D01*
X255300000Y-140878571D02*
X255300000Y-139735714D01*
X257775000Y-126703572D02*
X257775000Y-127417858D01*
X258203571Y-126560715D02*
X256703571Y-127060715D01*
X258203571Y-127560715D01*
X256703571Y-128060715D02*
X257917857Y-128060715D01*
X258060714Y-128132143D01*
X258132143Y-128203572D01*
X258203571Y-128346429D01*
X258203571Y-128632143D01*
X258132143Y-128775001D01*
X258060714Y-128846429D01*
X257917857Y-128917858D01*
X256703571Y-128917858D01*
X256703571Y-129489287D02*
X258203571Y-130489287D01*
X256703571Y-130489287D02*
X258203571Y-129489287D01*
X258203571Y-131846429D02*
X258203571Y-130989286D01*
X258203571Y-131417858D02*
X256703571Y-131417858D01*
X256917857Y-131275001D01*
X257060714Y-131132143D01*
X257132143Y-130989286D01*
X257750000Y-137928572D02*
X257750000Y-138642858D01*
X258178571Y-137785715D02*
X256678571Y-138285715D01*
X258178571Y-138785715D01*
X256678571Y-139285715D02*
X257892857Y-139285715D01*
X258035714Y-139357143D01*
X258107143Y-139428572D01*
X258178571Y-139571429D01*
X258178571Y-139857143D01*
X258107143Y-140000001D01*
X258035714Y-140071429D01*
X257892857Y-140142858D01*
X256678571Y-140142858D01*
X256678571Y-140714287D02*
X258178571Y-141714287D01*
X256678571Y-141714287D02*
X258178571Y-140714287D01*
X256821429Y-142214286D02*
X256750000Y-142285715D01*
X256678571Y-142428572D01*
X256678571Y-142785715D01*
X256750000Y-142928572D01*
X256821429Y-143000001D01*
X256964286Y-143071429D01*
X257107143Y-143071429D01*
X257321429Y-143000001D01*
X258178571Y-142142858D01*
X258178571Y-143071429D01*
X257850000Y-149628572D02*
X257850000Y-150342858D01*
X258278571Y-149485715D02*
X256778571Y-149985715D01*
X258278571Y-150485715D01*
X256778571Y-150985715D02*
X257992857Y-150985715D01*
X258135714Y-151057143D01*
X258207143Y-151128572D01*
X258278571Y-151271429D01*
X258278571Y-151557143D01*
X258207143Y-151700001D01*
X258135714Y-151771429D01*
X257992857Y-151842858D01*
X256778571Y-151842858D01*
X256778571Y-152414287D02*
X258278571Y-153414287D01*
X256778571Y-153414287D02*
X258278571Y-152414287D01*
X256778571Y-153842858D02*
X256778571Y-154771429D01*
X257350000Y-154271429D01*
X257350000Y-154485715D01*
X257421429Y-154628572D01*
X257492857Y-154700001D01*
X257635714Y-154771429D01*
X257992857Y-154771429D01*
X258135714Y-154700001D01*
X258207143Y-154628572D01*
X258278571Y-154485715D01*
X258278571Y-154057143D01*
X258207143Y-153914286D01*
X258135714Y-153842858D01*
X251650000Y-131500000D02*
X251650000Y-126250000D01*
D14*
X253250000Y-124750000D02*
X250000000Y-124750000D01*
X250000000Y-124750000D02*
X250000000Y-133250000D01*
X250000000Y-133250000D02*
X256500000Y-133250000D01*
X256500000Y-133250000D02*
X256500000Y-124750000D01*
X256500000Y-124750000D02*
X253250000Y-124750000D01*
D13*
X251650000Y-143000000D02*
X251650000Y-137750000D01*
D14*
X253250000Y-136250000D02*
X250000000Y-136250000D01*
X250000000Y-136250000D02*
X250000000Y-144750000D01*
X250000000Y-144750000D02*
X256500000Y-144750000D01*
X256500000Y-144750000D02*
X256500000Y-136250000D01*
X256500000Y-136250000D02*
X253250000Y-136250000D01*
D13*
X251650000Y-154500000D02*
X251650000Y-149250000D01*
D14*
X253250000Y-147750000D02*
X250000000Y-147750000D01*
X250000000Y-147750000D02*
X250000000Y-156250000D01*
X250000000Y-156250000D02*
X256500000Y-156250000D01*
X256500000Y-156250000D02*
X256500000Y-147750000D01*
X256500000Y-147750000D02*
X253250000Y-147750000D01*
D15*
G36*
X238009320Y-131846200D02*
X237991540Y-131838580D01*
X237958520Y-131815720D01*
X237907720Y-131782700D01*
X237849300Y-131744600D01*
X237788340Y-131703960D01*
X237740080Y-131670940D01*
X237704520Y-131648080D01*
X237691820Y-131640460D01*
X237684200Y-131643000D01*
X237656260Y-131658240D01*
X237615620Y-131678560D01*
X237590220Y-131691260D01*
X237552120Y-131706500D01*
X237534340Y-131711580D01*
X237531800Y-131706500D01*
X237516560Y-131676020D01*
X237496240Y-131627760D01*
X237468300Y-131561720D01*
X237435280Y-131485520D01*
X237399720Y-131404240D01*
X237366700Y-131320420D01*
X237333680Y-131241680D01*
X237303200Y-131168020D01*
X237280340Y-131109600D01*
X237265100Y-131068960D01*
X237257480Y-131051180D01*
X237260020Y-131048640D01*
X237277800Y-131030860D01*
X237310820Y-131005460D01*
X237381940Y-130947040D01*
X237453060Y-130860680D01*
X237496240Y-130761620D01*
X237508940Y-130649860D01*
X237498780Y-130548260D01*
X237458140Y-130451740D01*
X237389560Y-130362840D01*
X237305740Y-130296800D01*
X237209220Y-130256160D01*
X237100000Y-130243460D01*
X236995860Y-130253620D01*
X236896800Y-130294260D01*
X236807900Y-130360300D01*
X236769800Y-130403480D01*
X236719000Y-130494920D01*
X236688520Y-130588900D01*
X236685980Y-130611760D01*
X236691060Y-130718440D01*
X236721540Y-130820040D01*
X236777420Y-130908940D01*
X236853620Y-130982600D01*
X236863780Y-130990220D01*
X236899340Y-131018160D01*
X236924740Y-131035940D01*
X236942520Y-131051180D01*
X236807900Y-131373760D01*
X236787580Y-131424560D01*
X236749480Y-131513460D01*
X236719000Y-131589660D01*
X236691060Y-131650620D01*
X236673280Y-131691260D01*
X236665660Y-131706500D01*
X236665660Y-131706500D01*
X236652960Y-131709040D01*
X236630100Y-131701420D01*
X236584380Y-131678560D01*
X236553900Y-131663320D01*
X236520880Y-131648080D01*
X236505640Y-131640460D01*
X236490400Y-131648080D01*
X236457380Y-131668400D01*
X236411660Y-131701420D01*
X236353240Y-131739520D01*
X236297360Y-131777620D01*
X236246560Y-131810640D01*
X236211000Y-131836040D01*
X236193220Y-131843660D01*
X236190680Y-131843660D01*
X236172900Y-131836040D01*
X236144960Y-131810640D01*
X236101780Y-131770000D01*
X236038280Y-131709040D01*
X236028120Y-131698880D01*
X235977320Y-131648080D01*
X235936680Y-131602360D01*
X235908740Y-131571880D01*
X235898580Y-131559180D01*
X235898580Y-131559180D01*
X235908740Y-131541400D01*
X235931600Y-131503300D01*
X235964620Y-131452500D01*
X236005260Y-131391540D01*
X236111940Y-131236600D01*
X236053520Y-131091820D01*
X236035740Y-131046100D01*
X236012880Y-130990220D01*
X235995100Y-130952120D01*
X235987480Y-130934340D01*
X235969700Y-130929260D01*
X235931600Y-130919100D01*
X235873180Y-130908940D01*
X235802060Y-130896240D01*
X235736020Y-130883540D01*
X235677600Y-130870840D01*
X235634420Y-130863220D01*
X235614100Y-130860680D01*
X235609020Y-130855600D01*
X235606480Y-130847980D01*
X235603940Y-130827660D01*
X235601400Y-130789560D01*
X235601400Y-130733680D01*
X235601400Y-130649860D01*
X235601400Y-130642240D01*
X235601400Y-130563500D01*
X235603940Y-130500000D01*
X235606480Y-130461900D01*
X235609020Y-130444120D01*
X235609020Y-130444120D01*
X235626800Y-130439040D01*
X235669980Y-130431420D01*
X235728400Y-130418720D01*
X235799520Y-130406020D01*
X235804600Y-130406020D01*
X235875720Y-130390780D01*
X235934140Y-130378080D01*
X235977320Y-130370460D01*
X235995100Y-130362840D01*
X235997640Y-130357760D01*
X236012880Y-130329820D01*
X236033200Y-130286640D01*
X236056060Y-130233300D01*
X236078920Y-130177420D01*
X236099240Y-130126620D01*
X236111940Y-130091060D01*
X236117020Y-130073280D01*
X236117020Y-130073280D01*
X236106860Y-130055500D01*
X236081460Y-130019940D01*
X236045900Y-129969140D01*
X236005260Y-129908180D01*
X236002720Y-129903100D01*
X235962080Y-129842140D01*
X235929060Y-129791340D01*
X235906200Y-129755780D01*
X235898580Y-129740540D01*
X235898580Y-129738000D01*
X235911280Y-129720220D01*
X235941760Y-129687200D01*
X235987480Y-129641480D01*
X236038280Y-129588140D01*
X236056060Y-129572900D01*
X236114480Y-129514480D01*
X236155120Y-129478920D01*
X236180520Y-129458600D01*
X236190680Y-129453520D01*
X236193220Y-129453520D01*
X236211000Y-129463680D01*
X236249100Y-129489080D01*
X236299900Y-129524640D01*
X236360860Y-129565280D01*
X236363400Y-129567820D01*
X236424360Y-129608460D01*
X236475160Y-129644020D01*
X236510720Y-129666880D01*
X236525960Y-129674500D01*
X236528500Y-129674500D01*
X236551360Y-129669420D01*
X236594540Y-129654180D01*
X236647880Y-129633860D01*
X236703760Y-129611000D01*
X236754560Y-129590680D01*
X236790120Y-129572900D01*
X236807900Y-129562740D01*
X236810440Y-129562740D01*
X236815520Y-129539880D01*
X236825680Y-129494160D01*
X236838380Y-129433200D01*
X236853620Y-129359540D01*
X236856160Y-129349380D01*
X236868860Y-129275720D01*
X236879020Y-129217300D01*
X236889180Y-129176660D01*
X236891720Y-129158880D01*
X236901880Y-129158880D01*
X236937440Y-129156340D01*
X236990780Y-129153800D01*
X237056820Y-129153800D01*
X237122860Y-129153800D01*
X237188900Y-129153800D01*
X237244780Y-129156340D01*
X237285420Y-129158880D01*
X237303200Y-129163960D01*
X237303200Y-129163960D01*
X237308280Y-129186820D01*
X237318440Y-129230000D01*
X237331140Y-129293500D01*
X237346380Y-129367160D01*
X237348920Y-129379860D01*
X237361620Y-129450980D01*
X237374320Y-129509400D01*
X237381940Y-129550040D01*
X237387020Y-129565280D01*
X237392100Y-129567820D01*
X237422580Y-129583060D01*
X237470840Y-129600840D01*
X237529260Y-129626240D01*
X237666420Y-129682120D01*
X237834060Y-129565280D01*
X237849300Y-129555120D01*
X237910260Y-129514480D01*
X237961060Y-129481460D01*
X237996620Y-129458600D01*
X238009320Y-129450980D01*
X238011860Y-129450980D01*
X238027100Y-129466220D01*
X238060120Y-129496700D01*
X238105840Y-129542420D01*
X238159180Y-129593220D01*
X238199820Y-129633860D01*
X238245540Y-129679580D01*
X238273480Y-129712600D01*
X238291260Y-129732920D01*
X238296340Y-129745620D01*
X238293800Y-129753240D01*
X238283640Y-129771020D01*
X238258240Y-129806580D01*
X238225220Y-129859920D01*
X238184580Y-129918340D01*
X238149020Y-129969140D01*
X238113460Y-130025020D01*
X238090600Y-130065660D01*
X238080440Y-130083440D01*
X238082980Y-130093600D01*
X238095680Y-130126620D01*
X238116000Y-130174880D01*
X238141400Y-130235840D01*
X238199820Y-130367920D01*
X238286180Y-130385700D01*
X238339520Y-130395860D01*
X238413180Y-130408560D01*
X238484300Y-130423800D01*
X238596060Y-130444120D01*
X238598600Y-130847980D01*
X238580820Y-130855600D01*
X238565580Y-130860680D01*
X238524940Y-130870840D01*
X238466520Y-130881000D01*
X238397940Y-130893700D01*
X238336980Y-130906400D01*
X238278560Y-130916560D01*
X238235380Y-130924180D01*
X238217600Y-130929260D01*
X238212520Y-130934340D01*
X238197280Y-130964820D01*
X238176960Y-131010540D01*
X238154100Y-131063880D01*
X238128700Y-131122300D01*
X238108380Y-131173100D01*
X238093140Y-131213740D01*
X238088060Y-131234060D01*
X238095680Y-131249300D01*
X238118540Y-131284860D01*
X238151560Y-131335660D01*
X238192200Y-131394080D01*
X238232840Y-131452500D01*
X238265860Y-131503300D01*
X238291260Y-131538860D01*
X238298880Y-131556640D01*
X238293800Y-131566800D01*
X238270940Y-131594740D01*
X238227760Y-131640460D01*
X238161720Y-131706500D01*
X238149020Y-131716660D01*
X238098220Y-131767460D01*
X238052500Y-131808100D01*
X238022020Y-131836040D01*
X238009320Y-131846200D01*
X238009320Y-131846200D01*
G37*
X238009320Y-131846200D02*
X237991540Y-131838580D01*
X237958520Y-131815720D01*
X237907720Y-131782700D01*
X237849300Y-131744600D01*
X237788340Y-131703960D01*
X237740080Y-131670940D01*
X237704520Y-131648080D01*
X237691820Y-131640460D01*
X237684200Y-131643000D01*
X237656260Y-131658240D01*
X237615620Y-131678560D01*
X237590220Y-131691260D01*
X237552120Y-131706500D01*
X237534340Y-131711580D01*
X237531800Y-131706500D01*
X237516560Y-131676020D01*
X237496240Y-131627760D01*
X237468300Y-131561720D01*
X237435280Y-131485520D01*
X237399720Y-131404240D01*
X237366700Y-131320420D01*
X237333680Y-131241680D01*
X237303200Y-131168020D01*
X237280340Y-131109600D01*
X237265100Y-131068960D01*
X237257480Y-131051180D01*
X237260020Y-131048640D01*
X237277800Y-131030860D01*
X237310820Y-131005460D01*
X237381940Y-130947040D01*
X237453060Y-130860680D01*
X237496240Y-130761620D01*
X237508940Y-130649860D01*
X237498780Y-130548260D01*
X237458140Y-130451740D01*
X237389560Y-130362840D01*
X237305740Y-130296800D01*
X237209220Y-130256160D01*
X237100000Y-130243460D01*
X236995860Y-130253620D01*
X236896800Y-130294260D01*
X236807900Y-130360300D01*
X236769800Y-130403480D01*
X236719000Y-130494920D01*
X236688520Y-130588900D01*
X236685980Y-130611760D01*
X236691060Y-130718440D01*
X236721540Y-130820040D01*
X236777420Y-130908940D01*
X236853620Y-130982600D01*
X236863780Y-130990220D01*
X236899340Y-131018160D01*
X236924740Y-131035940D01*
X236942520Y-131051180D01*
X236807900Y-131373760D01*
X236787580Y-131424560D01*
X236749480Y-131513460D01*
X236719000Y-131589660D01*
X236691060Y-131650620D01*
X236673280Y-131691260D01*
X236665660Y-131706500D01*
X236665660Y-131706500D01*
X236652960Y-131709040D01*
X236630100Y-131701420D01*
X236584380Y-131678560D01*
X236553900Y-131663320D01*
X236520880Y-131648080D01*
X236505640Y-131640460D01*
X236490400Y-131648080D01*
X236457380Y-131668400D01*
X236411660Y-131701420D01*
X236353240Y-131739520D01*
X236297360Y-131777620D01*
X236246560Y-131810640D01*
X236211000Y-131836040D01*
X236193220Y-131843660D01*
X236190680Y-131843660D01*
X236172900Y-131836040D01*
X236144960Y-131810640D01*
X236101780Y-131770000D01*
X236038280Y-131709040D01*
X236028120Y-131698880D01*
X235977320Y-131648080D01*
X235936680Y-131602360D01*
X235908740Y-131571880D01*
X235898580Y-131559180D01*
X235898580Y-131559180D01*
X235908740Y-131541400D01*
X235931600Y-131503300D01*
X235964620Y-131452500D01*
X236005260Y-131391540D01*
X236111940Y-131236600D01*
X236053520Y-131091820D01*
X236035740Y-131046100D01*
X236012880Y-130990220D01*
X235995100Y-130952120D01*
X235987480Y-130934340D01*
X235969700Y-130929260D01*
X235931600Y-130919100D01*
X235873180Y-130908940D01*
X235802060Y-130896240D01*
X235736020Y-130883540D01*
X235677600Y-130870840D01*
X235634420Y-130863220D01*
X235614100Y-130860680D01*
X235609020Y-130855600D01*
X235606480Y-130847980D01*
X235603940Y-130827660D01*
X235601400Y-130789560D01*
X235601400Y-130733680D01*
X235601400Y-130649860D01*
X235601400Y-130642240D01*
X235601400Y-130563500D01*
X235603940Y-130500000D01*
X235606480Y-130461900D01*
X235609020Y-130444120D01*
X235609020Y-130444120D01*
X235626800Y-130439040D01*
X235669980Y-130431420D01*
X235728400Y-130418720D01*
X235799520Y-130406020D01*
X235804600Y-130406020D01*
X235875720Y-130390780D01*
X235934140Y-130378080D01*
X235977320Y-130370460D01*
X235995100Y-130362840D01*
X235997640Y-130357760D01*
X236012880Y-130329820D01*
X236033200Y-130286640D01*
X236056060Y-130233300D01*
X236078920Y-130177420D01*
X236099240Y-130126620D01*
X236111940Y-130091060D01*
X236117020Y-130073280D01*
X236117020Y-130073280D01*
X236106860Y-130055500D01*
X236081460Y-130019940D01*
X236045900Y-129969140D01*
X236005260Y-129908180D01*
X236002720Y-129903100D01*
X235962080Y-129842140D01*
X235929060Y-129791340D01*
X235906200Y-129755780D01*
X235898580Y-129740540D01*
X235898580Y-129738000D01*
X235911280Y-129720220D01*
X235941760Y-129687200D01*
X235987480Y-129641480D01*
X236038280Y-129588140D01*
X236056060Y-129572900D01*
X236114480Y-129514480D01*
X236155120Y-129478920D01*
X236180520Y-129458600D01*
X236190680Y-129453520D01*
X236193220Y-129453520D01*
X236211000Y-129463680D01*
X236249100Y-129489080D01*
X236299900Y-129524640D01*
X236360860Y-129565280D01*
X236363400Y-129567820D01*
X236424360Y-129608460D01*
X236475160Y-129644020D01*
X236510720Y-129666880D01*
X236525960Y-129674500D01*
X236528500Y-129674500D01*
X236551360Y-129669420D01*
X236594540Y-129654180D01*
X236647880Y-129633860D01*
X236703760Y-129611000D01*
X236754560Y-129590680D01*
X236790120Y-129572900D01*
X236807900Y-129562740D01*
X236810440Y-129562740D01*
X236815520Y-129539880D01*
X236825680Y-129494160D01*
X236838380Y-129433200D01*
X236853620Y-129359540D01*
X236856160Y-129349380D01*
X236868860Y-129275720D01*
X236879020Y-129217300D01*
X236889180Y-129176660D01*
X236891720Y-129158880D01*
X236901880Y-129158880D01*
X236937440Y-129156340D01*
X236990780Y-129153800D01*
X237056820Y-129153800D01*
X237122860Y-129153800D01*
X237188900Y-129153800D01*
X237244780Y-129156340D01*
X237285420Y-129158880D01*
X237303200Y-129163960D01*
X237303200Y-129163960D01*
X237308280Y-129186820D01*
X237318440Y-129230000D01*
X237331140Y-129293500D01*
X237346380Y-129367160D01*
X237348920Y-129379860D01*
X237361620Y-129450980D01*
X237374320Y-129509400D01*
X237381940Y-129550040D01*
X237387020Y-129565280D01*
X237392100Y-129567820D01*
X237422580Y-129583060D01*
X237470840Y-129600840D01*
X237529260Y-129626240D01*
X237666420Y-129682120D01*
X237834060Y-129565280D01*
X237849300Y-129555120D01*
X237910260Y-129514480D01*
X237961060Y-129481460D01*
X237996620Y-129458600D01*
X238009320Y-129450980D01*
X238011860Y-129450980D01*
X238027100Y-129466220D01*
X238060120Y-129496700D01*
X238105840Y-129542420D01*
X238159180Y-129593220D01*
X238199820Y-129633860D01*
X238245540Y-129679580D01*
X238273480Y-129712600D01*
X238291260Y-129732920D01*
X238296340Y-129745620D01*
X238293800Y-129753240D01*
X238283640Y-129771020D01*
X238258240Y-129806580D01*
X238225220Y-129859920D01*
X238184580Y-129918340D01*
X238149020Y-129969140D01*
X238113460Y-130025020D01*
X238090600Y-130065660D01*
X238080440Y-130083440D01*
X238082980Y-130093600D01*
X238095680Y-130126620D01*
X238116000Y-130174880D01*
X238141400Y-130235840D01*
X238199820Y-130367920D01*
X238286180Y-130385700D01*
X238339520Y-130395860D01*
X238413180Y-130408560D01*
X238484300Y-130423800D01*
X238596060Y-130444120D01*
X238598600Y-130847980D01*
X238580820Y-130855600D01*
X238565580Y-130860680D01*
X238524940Y-130870840D01*
X238466520Y-130881000D01*
X238397940Y-130893700D01*
X238336980Y-130906400D01*
X238278560Y-130916560D01*
X238235380Y-130924180D01*
X238217600Y-130929260D01*
X238212520Y-130934340D01*
X238197280Y-130964820D01*
X238176960Y-131010540D01*
X238154100Y-131063880D01*
X238128700Y-131122300D01*
X238108380Y-131173100D01*
X238093140Y-131213740D01*
X238088060Y-131234060D01*
X238095680Y-131249300D01*
X238118540Y-131284860D01*
X238151560Y-131335660D01*
X238192200Y-131394080D01*
X238232840Y-131452500D01*
X238265860Y-131503300D01*
X238291260Y-131538860D01*
X238298880Y-131556640D01*
X238293800Y-131566800D01*
X238270940Y-131594740D01*
X238227760Y-131640460D01*
X238161720Y-131706500D01*
X238149020Y-131716660D01*
X238098220Y-131767460D01*
X238052500Y-131808100D01*
X238022020Y-131836040D01*
X238009320Y-131846200D01*
M02*
