M48
;DRILL file {KiCad 4.0.4-stable} date 01/15/17 13:01:01
;FORMAT={-:-/ absolute / metric / decimal}
FMAT,2
METRIC,TZ
T1C0.400
T2C0.600
T3C0.762
T4C0.800
T5C1.000
T6C1.001
T7C1.016
T8C3.200
%
G90
G05
M71
T1
X176.53Y-96.926
X176.55Y-137.69
X176.64Y-143.58
X178.32Y-118.64
X178.689Y-130.378
X178.96Y-140.5
X179.273Y-134.544
X179.812Y-96.852
X181.127Y-128.473
X181.305Y-132.004
X181.356Y-136.957
X181.432Y-143.637
X182.32Y-111.32
X183.134Y-133.655
X183.15Y-129.53
X183.185Y-138.608
X183.769Y-118.618
X184.812Y-96.852
X184.88Y-135.46
X185.394Y-143.476
X185.59Y-111.5
X185.9Y-113.4
X189.29Y-111.11
X189.812Y-96.852
X190.25Y-112.75
X192.9Y-124.6
X193.12Y-111.36
X194.5Y-123.7
X194.812Y-96.852
X195.58Y-113.68
X195.8Y-111.375
X195.92Y-123.06
X196.528Y-120.472
X196.845Y-118.313
X197.1Y-123.2
X197.25Y-113.75
X197.3Y-133.6
X197.8Y-131.4
X198.15Y-112.075
X198.96Y-122.16
X199.2Y-123.1
X199.5Y-114.5
X199.8Y-129.4
X199.812Y-96.852
X200.425Y-110.575
X200.6Y-130.1
X200.975Y-111.25
X202.3Y-114.45
X203.75Y-134.43
X204.52Y-112.56
X204.812Y-96.852
X206.075Y-110.55
X206.625Y-111.225
X206.725Y-114.75
X206.73Y-112.77
X208.212Y-126.06
X208.45Y-136.45
X208.67Y-134.65
X208.94Y-131.33
X209.5Y-121.8
X209.6Y-126.6
X209.812Y-96.852
X209.82Y-112.66
X210.4Y-127.4
X210.825Y-114.15
X211.8Y-124.1
X211.8Y-126.
X212.Y-132.4
X212.09Y-112.38
X212.5Y-126.8
X212.53Y-130.95
X213.4Y-111.425
X213.75Y-110.6
X213.975Y-114.025
X214.812Y-96.852
X214.9Y-122.2
X214.9Y-129.
X215.Y-126.8
X215.4Y-125.9
X216.4Y-112.875
X216.61Y-123.52
X216.7Y-129.65
X216.7Y-130.7
X216.925Y-128.2
X217.043Y-133.477
X217.043Y-136.271
X217.075Y-117.95
X217.1Y-110.925
X217.125Y-114.725
X217.57Y-140.57
X217.7Y-129.7
X218.2Y-136.92
X218.325Y-111.675
X218.94Y-122.64
X219.Y-113.
X219.Y-126.575
X219.2Y-129.6
X219.3Y-143.1
X219.6Y-114.575
X219.6Y-117.9
X219.7Y-123.4
X219.7Y-132.4
X219.812Y-96.852
X221.175Y-112.5
X221.56Y-127.34
X221.72Y-114.05
X222.62Y-143.24
X222.91Y-129.98
X223.54Y-122.2
X223.65Y-110.875
X224.1Y-111.775
X224.2Y-123.6
X224.79Y-128.27
X224.812Y-96.852
X225.075Y-112.625
X225.85Y-143.22
X226.4Y-130.84
X226.48Y-140.04
X226.568Y-124.968
X226.57Y-136.96
X226.74Y-127.07
X226.79Y-122.22
X227.01Y-142.02
X227.956Y-138.109
X228.225Y-110.575
X228.97Y-143.37
X229.29Y-127.39
X229.3Y-111.35
X229.33Y-113.08
X229.37Y-122.06
X229.48Y-137.03
X229.72Y-133.01
X229.75Y-118.075
X229.812Y-96.852
X230.53Y-124.98
X231.08Y-122.2
X231.68Y-143.38
X231.71Y-128.77
X232.38Y-112.6
X233.2Y-123.1
X233.53Y-127.58
X233.88Y-125.08
X234.2Y-114.075
X234.475Y-111.425
X234.81Y-133.05
X234.812Y-96.852
X235.15Y-143.39
X235.25Y-114.5
X235.4Y-110.575
X235.84Y-112.46
X236.42Y-125.08
X236.65Y-114.475
X237.275Y-113.25
X237.38Y-128.67
X237.77Y-123.96
X238.01Y-127.06
X238.775Y-111.825
X239.07Y-124.04
X239.08Y-143.4
X239.15Y-127.1
X239.5Y-111.
X239.69Y-130.54
X239.812Y-96.852
X240.03Y-132.75
X240.1Y-123.85
X240.29Y-127.09
X241.1Y-111.725
X241.44Y-123.87
X241.44Y-127.12
X241.86Y-131.44
X242.03Y-143.39
X242.62Y-123.9
X242.62Y-127.14
X243.5Y-123.5
X243.625Y-112.475
X243.79Y-132.33
X244.812Y-96.852
X244.825Y-140.625
X244.856Y-124.714
X244.92Y-122.18
X245.15Y-111.075
X245.15Y-113.55
X245.15Y-114.5
X246.05Y-126.3
X246.875Y-137.4
X246.9Y-100.525
X247.85Y-143.58
X248.Y-138.05
X248.7Y-104.75
X248.929Y-134.892
X249.325Y-126.3
X249.6Y-104.5
X249.625Y-118.175
X249.812Y-96.852
X249.875Y-103.7
X249.92Y-112.5
X250.225Y-142.5
X250.34Y-109.23
X250.51Y-114.41
X250.57Y-116.08
X250.7Y-103.275
X251.34Y-143.55
X251.48Y-133.72
X251.59Y-125.22
X251.6Y-103.475
X251.63Y-128.07
X251.659Y-138.13
X252.32Y-130.87
X252.525Y-104.775
X252.6Y-103.75
X252.825Y-105.575
X253.12Y-136.86
X253.3Y-121.825
X253.5Y-106.075
X253.525Y-115.65
X254.812Y-96.852
X255.04Y-143.54
X256.794Y-103.251
X257.55Y-143.46
X259.328Y-130.506
X259.48Y-136.34
X259.58Y-139.34
X259.58Y-142.31
X259.812Y-96.852
T2
X192.6Y-134.2
X192.6Y-138.
X193.71Y-127.
X193.71Y-131.75
X193.71Y-136.5
X193.71Y-141.25
X194.8Y-138.3
X194.98Y-127.
X194.98Y-131.75
X194.98Y-136.5
X194.98Y-141.25
X195.7Y-143.4
X196.25Y-127.
X196.25Y-131.75
X196.25Y-136.5
X196.25Y-141.25
X197.3Y-139.6
X197.7Y-130.4
X198.6Y-139.2
X198.6Y-141.9
X199.575Y-112.975
X200.8Y-115.9
X200.875Y-108.725
X202.9Y-112.4
X204.25Y-128.5
X204.5Y-130.75
X206.7Y-122.7
X206.7Y-136.6
X208.75Y-127.75
X214.122Y-129.794
X215.475Y-127.85
X216.154Y-131.572
X219.85Y-124.45
X223.4Y-124.475
X224.7Y-121.3
X250.25Y-127.65
X251.2Y-107.
X251.25Y-112.41
T3
X201.5Y-131.6
X201.5Y-134.75
X206.5Y-131.6
X206.5Y-134.75
T4
X180.3Y-108.68
X180.3Y-116.3
X182.84Y-108.68
X182.84Y-116.3
X185.38Y-108.68
X185.38Y-116.3
X187.92Y-108.68
X187.92Y-116.3
X190.46Y-108.68
X190.46Y-116.3
X193.Y-108.68
X193.Y-116.3
X195.54Y-108.68
X195.54Y-116.3
X198.08Y-108.68
X198.08Y-116.3
X203.1Y-108.68
X203.1Y-116.3
X203.164Y-127.
X205.64Y-108.68
X205.64Y-116.3
X205.664Y-127.
X208.18Y-108.68
X208.18Y-116.3
X210.7Y-119.66
X210.7Y-134.9
X210.72Y-108.68
X210.72Y-116.3
X213.24Y-119.66
X213.24Y-134.9
X213.26Y-108.68
X213.26Y-116.3
X215.78Y-119.66
X215.78Y-134.9
X215.8Y-108.68
X215.8Y-116.3
X218.32Y-119.66
X218.32Y-134.9
X218.34Y-108.68
X218.34Y-116.3
X220.86Y-119.66
X220.86Y-134.9
X220.88Y-108.68
X220.88Y-116.3
X223.4Y-119.66
X223.4Y-134.9
X225.8Y-108.68
X225.8Y-116.3
X225.94Y-119.66
X225.94Y-134.9
X228.34Y-108.68
X228.34Y-116.3
X228.48Y-119.66
X228.48Y-134.9
X230.88Y-108.68
X230.88Y-116.3
X231.02Y-119.66
X231.02Y-134.9
X233.42Y-108.68
X233.42Y-116.3
X233.56Y-119.66
X233.56Y-134.9
X235.96Y-108.68
X235.96Y-116.3
X236.1Y-119.66
X236.1Y-134.9
X238.5Y-108.68
X238.5Y-116.3
X238.64Y-119.66
X238.64Y-134.9
X241.04Y-108.68
X241.04Y-116.3
X241.18Y-119.66
X241.18Y-134.9
X243.58Y-108.68
X243.58Y-116.3
X243.72Y-119.66
X243.72Y-134.9
X247.6Y-109.8
X247.6Y-112.34
X247.6Y-114.88
X247.6Y-117.42
X247.6Y-119.96
X247.6Y-122.5
X247.6Y-125.04
X247.6Y-127.58
X248.95Y-131.325
X248.95Y-133.325
X255.22Y-109.8
X255.22Y-112.34
X255.22Y-114.88
X255.22Y-117.42
X255.22Y-119.96
X255.22Y-122.5
X255.22Y-125.04
X255.22Y-127.58
T5
X186.75Y-119.25
X186.75Y-121.79
X186.75Y-124.33
X186.75Y-126.87
X186.75Y-129.41
X186.75Y-131.95
X186.75Y-134.49
X186.75Y-137.03
X186.75Y-139.57
X186.75Y-142.11
X190.5Y-119.25
X190.5Y-121.79
X190.5Y-124.33
X190.5Y-126.87
X190.5Y-129.41
X190.5Y-131.95
X190.5Y-134.49
X190.5Y-137.03
X190.5Y-139.57
X190.5Y-142.11
T6
X193.38Y-119.
X193.38Y-122.1
X201.Y-119.
X201.Y-122.1
T7
X179.6Y-99.06
X179.6Y-101.6
X179.64Y-105.1
X182.14Y-99.06
X182.14Y-101.6
X182.18Y-105.1
X184.68Y-99.06
X184.68Y-101.6
X184.72Y-105.1
X187.22Y-99.06
X187.22Y-101.6
X187.26Y-105.1
X189.76Y-99.06
X189.76Y-101.6
X189.8Y-105.1
X192.3Y-99.06
X192.3Y-101.6
X192.34Y-105.1
X194.84Y-99.06
X194.84Y-101.6
X194.88Y-105.1
X197.38Y-99.06
X197.38Y-101.6
X197.42Y-105.1
X199.85Y-126.95
X199.92Y-99.06
X199.92Y-101.6
X199.96Y-105.1
X201.676Y-140.716
X202.46Y-99.06
X202.46Y-101.6
X202.5Y-105.1
X204.Y-119.75
X204.216Y-140.716
X205.Y-99.06
X205.Y-101.6
X206.39Y-105.08
X206.54Y-119.75
X207.54Y-99.06
X207.54Y-101.6
X208.93Y-105.08
X209.32Y-138.2
X209.32Y-140.74
X210.08Y-99.06
X210.08Y-101.6
X211.47Y-105.08
X211.86Y-138.2
X211.86Y-140.74
X212.62Y-99.06
X212.62Y-101.6
X214.01Y-105.08
X214.4Y-138.2
X214.4Y-140.74
X215.16Y-99.06
X215.16Y-101.6
X216.55Y-105.08
X217.7Y-99.06
X217.7Y-101.6
X219.09Y-105.08
X219.456Y-138.176
X219.456Y-140.716
X220.24Y-99.06
X220.24Y-101.6
X221.63Y-105.08
X221.996Y-138.176
X221.996Y-140.716
X222.78Y-99.06
X222.78Y-101.6
X224.17Y-105.08
X224.536Y-138.176
X224.536Y-140.716
X225.32Y-99.06
X225.32Y-101.6
X226.71Y-105.08
X227.86Y-99.06
X227.86Y-101.6
X229.25Y-105.08
X229.616Y-140.716
X230.4Y-99.06
X230.4Y-101.6
X232.156Y-140.716
X232.94Y-99.06
X232.94Y-101.6
X233.Y-105.08
X234.696Y-140.716
X235.48Y-99.06
X235.48Y-101.6
X235.54Y-105.08
X237.236Y-140.716
X238.02Y-99.06
X238.02Y-101.6
X238.08Y-105.08
X239.776Y-140.716
X240.56Y-99.06
X240.56Y-101.6
X240.62Y-105.08
X242.316Y-140.716
X243.1Y-99.06
X243.1Y-101.6
X243.16Y-105.08
X245.64Y-99.06
X245.64Y-101.6
X245.7Y-105.08
X247.396Y-140.716
X248.18Y-99.06
X248.18Y-101.6
X249.936Y-140.716
X250.72Y-99.06
X250.72Y-101.6
X252.476Y-140.716
X253.26Y-99.06
X253.26Y-101.6
X255.016Y-140.716
X255.8Y-99.06
X255.8Y-101.6
X257.556Y-140.716
X258.34Y-99.06
X258.34Y-101.6
X258.4Y-105.14
X258.4Y-107.68
X258.4Y-110.22
X258.4Y-112.76
X258.4Y-115.3
X258.4Y-117.84
X258.4Y-120.38
X258.4Y-122.92
X258.4Y-125.46
X258.4Y-128.
T8
X181.38Y-122.72
X255.87Y-133.72
T0
M30
