G04 #@! TF.FileFunction,Legend,Top*
%FSLAX46Y46*%
G04 Gerber Fmt 4.6, Leading zero omitted, Abs format (unit mm)*
G04 Created by KiCad (PCBNEW 4.0.4-stable) date 01/15/17 13:01:21*
%MOMM*%
%LPD*%
G01*
G04 APERTURE LIST*
%ADD10C,0.100000*%
%ADD11C,0.250000*%
%ADD12C,0.200000*%
%ADD13C,0.300000*%
%ADD14C,0.150000*%
%ADD15C,0.220000*%
%ADD16C,0.275000*%
%ADD17C,0.002540*%
%ADD18C,0.120000*%
G04 APERTURE END LIST*
D10*
D11*
X203843000Y-104767095D02*
X203795381Y-104862333D01*
X203795381Y-105005190D01*
X203843000Y-105148048D01*
X203938238Y-105243286D01*
X204033476Y-105290905D01*
X204223952Y-105338524D01*
X204366810Y-105338524D01*
X204557286Y-105290905D01*
X204652524Y-105243286D01*
X204747762Y-105148048D01*
X204795381Y-105005190D01*
X204795381Y-104909952D01*
X204747762Y-104767095D01*
X204700143Y-104719476D01*
X204366810Y-104719476D01*
X204366810Y-104909952D01*
X230575000Y-104788095D02*
X230527381Y-104883333D01*
X230527381Y-105026190D01*
X230575000Y-105169048D01*
X230670238Y-105264286D01*
X230765476Y-105311905D01*
X230955952Y-105359524D01*
X231098810Y-105359524D01*
X231289286Y-105311905D01*
X231384524Y-105264286D01*
X231479762Y-105169048D01*
X231527381Y-105026190D01*
X231527381Y-104930952D01*
X231479762Y-104788095D01*
X231432143Y-104740476D01*
X231098810Y-104740476D01*
X231098810Y-104930952D01*
D12*
X204525643Y-123324881D02*
X204049452Y-123324881D01*
X204049452Y-122324881D01*
X204858976Y-122801071D02*
X205192310Y-122801071D01*
X205335167Y-123324881D02*
X204858976Y-123324881D01*
X204858976Y-122324881D01*
X205335167Y-122324881D01*
X205763738Y-123324881D02*
X205763738Y-122324881D01*
X206001833Y-122324881D01*
X206144691Y-122372500D01*
X206239929Y-122467738D01*
X206287548Y-122562976D01*
X206335167Y-122753452D01*
X206335167Y-122896310D01*
X206287548Y-123086786D01*
X206239929Y-123182024D01*
X206144691Y-123277262D01*
X206001833Y-123324881D01*
X205763738Y-123324881D01*
D13*
X204254028Y-121849343D02*
X203111171Y-121849343D01*
X207378228Y-121849343D02*
X206235371Y-121849343D01*
X206806800Y-122420771D02*
X206806800Y-121277914D01*
D11*
X257365524Y-138882381D02*
X256794095Y-138882381D01*
X257079809Y-138882381D02*
X257079809Y-137882381D01*
X256984571Y-138025238D01*
X256889333Y-138120476D01*
X256794095Y-138168095D01*
X258222667Y-138215714D02*
X258222667Y-138882381D01*
X257984571Y-137834762D02*
X257746476Y-138549048D01*
X258365524Y-138549048D01*
X254825524Y-138882381D02*
X254254095Y-138882381D01*
X254539809Y-138882381D02*
X254539809Y-137882381D01*
X254444571Y-138025238D01*
X254349333Y-138120476D01*
X254254095Y-138168095D01*
X255730286Y-137882381D02*
X255254095Y-137882381D01*
X255206476Y-138358571D01*
X255254095Y-138310952D01*
X255349333Y-138263333D01*
X255587429Y-138263333D01*
X255682667Y-138310952D01*
X255730286Y-138358571D01*
X255777905Y-138453810D01*
X255777905Y-138691905D01*
X255730286Y-138787143D01*
X255682667Y-138834762D01*
X255587429Y-138882381D01*
X255349333Y-138882381D01*
X255254095Y-138834762D01*
X255206476Y-138787143D01*
X252412524Y-138882381D02*
X251841095Y-138882381D01*
X252126809Y-138882381D02*
X252126809Y-137882381D01*
X252031571Y-138025238D01*
X251936333Y-138120476D01*
X251841095Y-138168095D01*
X253269667Y-137882381D02*
X253079190Y-137882381D01*
X252983952Y-137930000D01*
X252936333Y-137977619D01*
X252841095Y-138120476D01*
X252793476Y-138310952D01*
X252793476Y-138691905D01*
X252841095Y-138787143D01*
X252888714Y-138834762D01*
X252983952Y-138882381D01*
X253174429Y-138882381D01*
X253269667Y-138834762D01*
X253317286Y-138787143D01*
X253364905Y-138691905D01*
X253364905Y-138453810D01*
X253317286Y-138358571D01*
X253269667Y-138310952D01*
X253174429Y-138263333D01*
X252983952Y-138263333D01*
X252888714Y-138310952D01*
X252841095Y-138358571D01*
X252793476Y-138453810D01*
X249999524Y-138882381D02*
X249428095Y-138882381D01*
X249713809Y-138882381D02*
X249713809Y-137882381D01*
X249618571Y-138025238D01*
X249523333Y-138120476D01*
X249428095Y-138168095D01*
X250332857Y-137882381D02*
X250999524Y-137882381D01*
X250570952Y-138882381D01*
X247078524Y-138882381D02*
X246507095Y-138882381D01*
X246792809Y-138882381D02*
X246792809Y-137882381D01*
X246697571Y-138025238D01*
X246602333Y-138120476D01*
X246507095Y-138168095D01*
X247649952Y-138310952D02*
X247554714Y-138263333D01*
X247507095Y-138215714D01*
X247459476Y-138120476D01*
X247459476Y-138072857D01*
X247507095Y-137977619D01*
X247554714Y-137930000D01*
X247649952Y-137882381D01*
X247840429Y-137882381D01*
X247935667Y-137930000D01*
X247983286Y-137977619D01*
X248030905Y-138072857D01*
X248030905Y-138120476D01*
X247983286Y-138215714D01*
X247935667Y-138263333D01*
X247840429Y-138310952D01*
X247649952Y-138310952D01*
X247554714Y-138358571D01*
X247507095Y-138406190D01*
X247459476Y-138501429D01*
X247459476Y-138691905D01*
X247507095Y-138787143D01*
X247554714Y-138834762D01*
X247649952Y-138882381D01*
X247840429Y-138882381D01*
X247935667Y-138834762D01*
X247983286Y-138787143D01*
X248030905Y-138691905D01*
X248030905Y-138501429D01*
X247983286Y-138406190D01*
X247935667Y-138358571D01*
X247840429Y-138310952D01*
X244928571Y-144242858D02*
X244928571Y-143909524D01*
X245452381Y-143766667D02*
X245452381Y-144242858D01*
X244452381Y-144242858D01*
X244452381Y-143766667D01*
X245452381Y-143433334D02*
X244785714Y-142909524D01*
X244785714Y-143433334D02*
X245452381Y-142909524D01*
X244785714Y-142671429D02*
X244785714Y-142290477D01*
X244452381Y-142528572D02*
X245309524Y-142528572D01*
X245404762Y-142480953D01*
X245452381Y-142385715D01*
X245452381Y-142290477D01*
X245452381Y-141957143D02*
X244785714Y-141957143D01*
X244976190Y-141957143D02*
X244880952Y-141909524D01*
X244833333Y-141861905D01*
X244785714Y-141766667D01*
X244785714Y-141671428D01*
X245452381Y-140909523D02*
X244928571Y-140909523D01*
X244833333Y-140957142D01*
X244785714Y-141052380D01*
X244785714Y-141242857D01*
X244833333Y-141338095D01*
X245404762Y-140909523D02*
X245452381Y-141004761D01*
X245452381Y-141242857D01*
X245404762Y-141338095D01*
X245309524Y-141385714D01*
X245214286Y-141385714D01*
X245119048Y-141338095D01*
X245071429Y-141242857D01*
X245071429Y-141004761D01*
X245023810Y-140909523D01*
X245452381Y-139671428D02*
X244452381Y-139671428D01*
X244452381Y-139290475D01*
X244500000Y-139195237D01*
X244547619Y-139147618D01*
X244642857Y-139099999D01*
X244785714Y-139099999D01*
X244880952Y-139147618D01*
X244928571Y-139195237D01*
X244976190Y-139290475D01*
X244976190Y-139671428D01*
X245452381Y-138671428D02*
X244785714Y-138671428D01*
X244452381Y-138671428D02*
X244500000Y-138719047D01*
X244547619Y-138671428D01*
X244500000Y-138623809D01*
X244452381Y-138671428D01*
X244547619Y-138671428D01*
X244785714Y-138195238D02*
X245452381Y-138195238D01*
X244880952Y-138195238D02*
X244833333Y-138147619D01*
X244785714Y-138052381D01*
X244785714Y-137909523D01*
X244833333Y-137814285D01*
X244928571Y-137766666D01*
X245452381Y-137766666D01*
X245404762Y-137338095D02*
X245452381Y-137242857D01*
X245452381Y-137052381D01*
X245404762Y-136957142D01*
X245309524Y-136909523D01*
X245261905Y-136909523D01*
X245166667Y-136957142D01*
X245119048Y-137052381D01*
X245119048Y-137195238D01*
X245071429Y-137290476D01*
X244976190Y-137338095D01*
X244928571Y-137338095D01*
X244833333Y-137290476D01*
X244785714Y-137195238D01*
X244785714Y-137052381D01*
X244833333Y-136957142D01*
X227258571Y-144112858D02*
X227258571Y-143779524D01*
X227782381Y-143636667D02*
X227782381Y-144112858D01*
X226782381Y-144112858D01*
X226782381Y-143636667D01*
X227115714Y-143208096D02*
X227782381Y-143208096D01*
X227210952Y-143208096D02*
X227163333Y-143160477D01*
X227115714Y-143065239D01*
X227115714Y-142922381D01*
X227163333Y-142827143D01*
X227258571Y-142779524D01*
X227782381Y-142779524D01*
X227734762Y-141874762D02*
X227782381Y-141970000D01*
X227782381Y-142160477D01*
X227734762Y-142255715D01*
X227687143Y-142303334D01*
X227591905Y-142350953D01*
X227306190Y-142350953D01*
X227210952Y-142303334D01*
X227163333Y-142255715D01*
X227115714Y-142160477D01*
X227115714Y-141970000D01*
X227163333Y-141874762D01*
X227782381Y-141303334D02*
X227734762Y-141398572D01*
X227687143Y-141446191D01*
X227591905Y-141493810D01*
X227306190Y-141493810D01*
X227210952Y-141446191D01*
X227163333Y-141398572D01*
X227115714Y-141303334D01*
X227115714Y-141160476D01*
X227163333Y-141065238D01*
X227210952Y-141017619D01*
X227306190Y-140970000D01*
X227591905Y-140970000D01*
X227687143Y-141017619D01*
X227734762Y-141065238D01*
X227782381Y-141160476D01*
X227782381Y-141303334D01*
X227782381Y-140112857D02*
X226782381Y-140112857D01*
X227734762Y-140112857D02*
X227782381Y-140208095D01*
X227782381Y-140398572D01*
X227734762Y-140493810D01*
X227687143Y-140541429D01*
X227591905Y-140589048D01*
X227306190Y-140589048D01*
X227210952Y-140541429D01*
X227163333Y-140493810D01*
X227115714Y-140398572D01*
X227115714Y-140208095D01*
X227163333Y-140112857D01*
X227734762Y-139255714D02*
X227782381Y-139350952D01*
X227782381Y-139541429D01*
X227734762Y-139636667D01*
X227639524Y-139684286D01*
X227258571Y-139684286D01*
X227163333Y-139636667D01*
X227115714Y-139541429D01*
X227115714Y-139350952D01*
X227163333Y-139255714D01*
X227258571Y-139208095D01*
X227353810Y-139208095D01*
X227449048Y-139684286D01*
X227782381Y-138779524D02*
X227115714Y-138779524D01*
X227306190Y-138779524D02*
X227210952Y-138731905D01*
X227163333Y-138684286D01*
X227115714Y-138589048D01*
X227115714Y-138493809D01*
X227734762Y-138208095D02*
X227782381Y-138112857D01*
X227782381Y-137922381D01*
X227734762Y-137827142D01*
X227639524Y-137779523D01*
X227591905Y-137779523D01*
X227496667Y-137827142D01*
X227449048Y-137922381D01*
X227449048Y-138065238D01*
X227401429Y-138160476D01*
X227306190Y-138208095D01*
X227258571Y-138208095D01*
X227163333Y-138160476D01*
X227115714Y-138065238D01*
X227115714Y-137922381D01*
X227163333Y-137827142D01*
X217241429Y-143986000D02*
X217241429Y-143224095D01*
X217622381Y-143605047D02*
X216860476Y-143605047D01*
X216622381Y-142843143D02*
X216622381Y-142224095D01*
X217003333Y-142557429D01*
X217003333Y-142414571D01*
X217050952Y-142319333D01*
X217098571Y-142271714D01*
X217193810Y-142224095D01*
X217431905Y-142224095D01*
X217527143Y-142271714D01*
X217574762Y-142319333D01*
X217622381Y-142414571D01*
X217622381Y-142700286D01*
X217574762Y-142795524D01*
X217527143Y-142843143D01*
X217527143Y-141795524D02*
X217574762Y-141747905D01*
X217622381Y-141795524D01*
X217574762Y-141843143D01*
X217527143Y-141795524D01*
X217622381Y-141795524D01*
X216622381Y-141414572D02*
X216622381Y-140795524D01*
X217003333Y-141128858D01*
X217003333Y-140986000D01*
X217050952Y-140890762D01*
X217098571Y-140843143D01*
X217193810Y-140795524D01*
X217431905Y-140795524D01*
X217527143Y-140843143D01*
X217574762Y-140890762D01*
X217622381Y-140986000D01*
X217622381Y-141271715D01*
X217574762Y-141366953D01*
X217527143Y-141414572D01*
X216622381Y-140509810D02*
X217622381Y-140176477D01*
X216622381Y-139843143D01*
X207176667Y-144017619D02*
X207176667Y-143541428D01*
X207462381Y-144112857D02*
X206462381Y-143779524D01*
X207462381Y-143446190D01*
X206795714Y-142684285D02*
X207462381Y-142684285D01*
X206795714Y-143112857D02*
X207319524Y-143112857D01*
X207414762Y-143065238D01*
X207462381Y-142970000D01*
X207462381Y-142827142D01*
X207414762Y-142731904D01*
X207367143Y-142684285D01*
X207462381Y-142303333D02*
X206795714Y-141779523D01*
X206795714Y-142303333D02*
X207462381Y-141779523D01*
X207462381Y-140112856D02*
X207462381Y-140684285D01*
X207462381Y-140398571D02*
X206462381Y-140398571D01*
X206605238Y-140493809D01*
X206700476Y-140589047D01*
X206748095Y-140684285D01*
X207081429Y-139684285D02*
X207081429Y-138922380D01*
X206462381Y-138541428D02*
X206462381Y-137922380D01*
X206843333Y-138255714D01*
X206843333Y-138112856D01*
X206890952Y-138017618D01*
X206938571Y-137969999D01*
X207033810Y-137922380D01*
X207271905Y-137922380D01*
X207367143Y-137969999D01*
X207414762Y-138017618D01*
X207462381Y-138112856D01*
X207462381Y-138398571D01*
X207414762Y-138493809D01*
X207367143Y-138541428D01*
X199715381Y-144168714D02*
X198715381Y-144168714D01*
X198715381Y-143787761D01*
X198763000Y-143692523D01*
X198810619Y-143644904D01*
X198905857Y-143597285D01*
X199048714Y-143597285D01*
X199143952Y-143644904D01*
X199191571Y-143692523D01*
X199239190Y-143787761D01*
X199239190Y-144168714D01*
X199715381Y-143168714D02*
X199048714Y-143168714D01*
X198715381Y-143168714D02*
X198763000Y-143216333D01*
X198810619Y-143168714D01*
X198763000Y-143121095D01*
X198715381Y-143168714D01*
X198810619Y-143168714D01*
X199048714Y-142835381D02*
X199048714Y-142454429D01*
X198715381Y-142692524D02*
X199572524Y-142692524D01*
X199667762Y-142644905D01*
X199715381Y-142549667D01*
X199715381Y-142454429D01*
X259814286Y-101979762D02*
X259957143Y-102027381D01*
X260195239Y-102027381D01*
X260290477Y-101979762D01*
X260338096Y-101932143D01*
X260385715Y-101836905D01*
X260385715Y-101741667D01*
X260338096Y-101646429D01*
X260290477Y-101598810D01*
X260195239Y-101551190D01*
X260004762Y-101503571D01*
X259909524Y-101455952D01*
X259861905Y-101408333D01*
X259814286Y-101313095D01*
X259814286Y-101217857D01*
X259861905Y-101122619D01*
X259909524Y-101075000D01*
X260004762Y-101027381D01*
X260242858Y-101027381D01*
X260385715Y-101075000D01*
X177089286Y-102054762D02*
X177232143Y-102102381D01*
X177470239Y-102102381D01*
X177565477Y-102054762D01*
X177613096Y-102007143D01*
X177660715Y-101911905D01*
X177660715Y-101816667D01*
X177613096Y-101721429D01*
X177565477Y-101673810D01*
X177470239Y-101626190D01*
X177279762Y-101578571D01*
X177184524Y-101530952D01*
X177136905Y-101483333D01*
X177089286Y-101388095D01*
X177089286Y-101292857D01*
X177136905Y-101197619D01*
X177184524Y-101150000D01*
X177279762Y-101102381D01*
X177517858Y-101102381D01*
X177660715Y-101150000D01*
X254940476Y-102777381D02*
X255559524Y-102777381D01*
X255226190Y-103158333D01*
X255369048Y-103158333D01*
X255464286Y-103205952D01*
X255511905Y-103253571D01*
X255559524Y-103348810D01*
X255559524Y-103586905D01*
X255511905Y-103682143D01*
X255464286Y-103729762D01*
X255369048Y-103777381D01*
X255083333Y-103777381D01*
X254988095Y-103729762D01*
X254940476Y-103682143D01*
X256511905Y-103777381D02*
X255940476Y-103777381D01*
X256226190Y-103777381D02*
X256226190Y-102777381D01*
X256130952Y-102920238D01*
X256035714Y-103015476D01*
X255940476Y-103063095D01*
X252440476Y-102777381D02*
X253059524Y-102777381D01*
X252726190Y-103158333D01*
X252869048Y-103158333D01*
X252964286Y-103205952D01*
X253011905Y-103253571D01*
X253059524Y-103348810D01*
X253059524Y-103586905D01*
X253011905Y-103682143D01*
X252964286Y-103729762D01*
X252869048Y-103777381D01*
X252583333Y-103777381D01*
X252488095Y-103729762D01*
X252440476Y-103682143D01*
X253678571Y-102777381D02*
X253773810Y-102777381D01*
X253869048Y-102825000D01*
X253916667Y-102872619D01*
X253964286Y-102967857D01*
X254011905Y-103158333D01*
X254011905Y-103396429D01*
X253964286Y-103586905D01*
X253916667Y-103682143D01*
X253869048Y-103729762D01*
X253773810Y-103777381D01*
X253678571Y-103777381D01*
X253583333Y-103729762D01*
X253535714Y-103682143D01*
X253488095Y-103586905D01*
X253440476Y-103396429D01*
X253440476Y-103158333D01*
X253488095Y-102967857D01*
X253535714Y-102872619D01*
X253583333Y-102825000D01*
X253678571Y-102777381D01*
X249938095Y-102847619D02*
X249985714Y-102800000D01*
X250080952Y-102752381D01*
X250319048Y-102752381D01*
X250414286Y-102800000D01*
X250461905Y-102847619D01*
X250509524Y-102942857D01*
X250509524Y-103038095D01*
X250461905Y-103180952D01*
X249890476Y-103752381D01*
X250509524Y-103752381D01*
X250985714Y-103752381D02*
X251176190Y-103752381D01*
X251271429Y-103704762D01*
X251319048Y-103657143D01*
X251414286Y-103514286D01*
X251461905Y-103323810D01*
X251461905Y-102942857D01*
X251414286Y-102847619D01*
X251366667Y-102800000D01*
X251271429Y-102752381D01*
X251080952Y-102752381D01*
X250985714Y-102800000D01*
X250938095Y-102847619D01*
X250890476Y-102942857D01*
X250890476Y-103180952D01*
X250938095Y-103276190D01*
X250985714Y-103323810D01*
X251080952Y-103371429D01*
X251271429Y-103371429D01*
X251366667Y-103323810D01*
X251414286Y-103276190D01*
X251461905Y-103180952D01*
X247388095Y-102772619D02*
X247435714Y-102725000D01*
X247530952Y-102677381D01*
X247769048Y-102677381D01*
X247864286Y-102725000D01*
X247911905Y-102772619D01*
X247959524Y-102867857D01*
X247959524Y-102963095D01*
X247911905Y-103105952D01*
X247340476Y-103677381D01*
X247959524Y-103677381D01*
X248530952Y-103105952D02*
X248435714Y-103058333D01*
X248388095Y-103010714D01*
X248340476Y-102915476D01*
X248340476Y-102867857D01*
X248388095Y-102772619D01*
X248435714Y-102725000D01*
X248530952Y-102677381D01*
X248721429Y-102677381D01*
X248816667Y-102725000D01*
X248864286Y-102772619D01*
X248911905Y-102867857D01*
X248911905Y-102915476D01*
X248864286Y-103010714D01*
X248816667Y-103058333D01*
X248721429Y-103105952D01*
X248530952Y-103105952D01*
X248435714Y-103153571D01*
X248388095Y-103201190D01*
X248340476Y-103296429D01*
X248340476Y-103486905D01*
X248388095Y-103582143D01*
X248435714Y-103629762D01*
X248530952Y-103677381D01*
X248721429Y-103677381D01*
X248816667Y-103629762D01*
X248864286Y-103582143D01*
X248911905Y-103486905D01*
X248911905Y-103296429D01*
X248864286Y-103201190D01*
X248816667Y-103153571D01*
X248721429Y-103105952D01*
X244913095Y-102797619D02*
X244960714Y-102750000D01*
X245055952Y-102702381D01*
X245294048Y-102702381D01*
X245389286Y-102750000D01*
X245436905Y-102797619D01*
X245484524Y-102892857D01*
X245484524Y-102988095D01*
X245436905Y-103130952D01*
X244865476Y-103702381D01*
X245484524Y-103702381D01*
X245817857Y-102702381D02*
X246484524Y-102702381D01*
X246055952Y-103702381D01*
X242263095Y-102772619D02*
X242310714Y-102725000D01*
X242405952Y-102677381D01*
X242644048Y-102677381D01*
X242739286Y-102725000D01*
X242786905Y-102772619D01*
X242834524Y-102867857D01*
X242834524Y-102963095D01*
X242786905Y-103105952D01*
X242215476Y-103677381D01*
X242834524Y-103677381D01*
X243691667Y-102677381D02*
X243501190Y-102677381D01*
X243405952Y-102725000D01*
X243358333Y-102772619D01*
X243263095Y-102915476D01*
X243215476Y-103105952D01*
X243215476Y-103486905D01*
X243263095Y-103582143D01*
X243310714Y-103629762D01*
X243405952Y-103677381D01*
X243596429Y-103677381D01*
X243691667Y-103629762D01*
X243739286Y-103582143D01*
X243786905Y-103486905D01*
X243786905Y-103248810D01*
X243739286Y-103153571D01*
X243691667Y-103105952D01*
X243596429Y-103058333D01*
X243405952Y-103058333D01*
X243310714Y-103105952D01*
X243263095Y-103153571D01*
X243215476Y-103248810D01*
X239788095Y-102797619D02*
X239835714Y-102750000D01*
X239930952Y-102702381D01*
X240169048Y-102702381D01*
X240264286Y-102750000D01*
X240311905Y-102797619D01*
X240359524Y-102892857D01*
X240359524Y-102988095D01*
X240311905Y-103130952D01*
X239740476Y-103702381D01*
X240359524Y-103702381D01*
X241264286Y-102702381D02*
X240788095Y-102702381D01*
X240740476Y-103178571D01*
X240788095Y-103130952D01*
X240883333Y-103083333D01*
X241121429Y-103083333D01*
X241216667Y-103130952D01*
X241264286Y-103178571D01*
X241311905Y-103273810D01*
X241311905Y-103511905D01*
X241264286Y-103607143D01*
X241216667Y-103654762D01*
X241121429Y-103702381D01*
X240883333Y-103702381D01*
X240788095Y-103654762D01*
X240740476Y-103607143D01*
X237288095Y-102797619D02*
X237335714Y-102750000D01*
X237430952Y-102702381D01*
X237669048Y-102702381D01*
X237764286Y-102750000D01*
X237811905Y-102797619D01*
X237859524Y-102892857D01*
X237859524Y-102988095D01*
X237811905Y-103130952D01*
X237240476Y-103702381D01*
X237859524Y-103702381D01*
X238716667Y-103035714D02*
X238716667Y-103702381D01*
X238478571Y-102654762D02*
X238240476Y-103369048D01*
X238859524Y-103369048D01*
X234763095Y-102847619D02*
X234810714Y-102800000D01*
X234905952Y-102752381D01*
X235144048Y-102752381D01*
X235239286Y-102800000D01*
X235286905Y-102847619D01*
X235334524Y-102942857D01*
X235334524Y-103038095D01*
X235286905Y-103180952D01*
X234715476Y-103752381D01*
X235334524Y-103752381D01*
X235667857Y-102752381D02*
X236286905Y-102752381D01*
X235953571Y-103133333D01*
X236096429Y-103133333D01*
X236191667Y-103180952D01*
X236239286Y-103228571D01*
X236286905Y-103323810D01*
X236286905Y-103561905D01*
X236239286Y-103657143D01*
X236191667Y-103704762D01*
X236096429Y-103752381D01*
X235810714Y-103752381D01*
X235715476Y-103704762D01*
X235667857Y-103657143D01*
X232188095Y-102797619D02*
X232235714Y-102750000D01*
X232330952Y-102702381D01*
X232569048Y-102702381D01*
X232664286Y-102750000D01*
X232711905Y-102797619D01*
X232759524Y-102892857D01*
X232759524Y-102988095D01*
X232711905Y-103130952D01*
X232140476Y-103702381D01*
X232759524Y-103702381D01*
X233140476Y-102797619D02*
X233188095Y-102750000D01*
X233283333Y-102702381D01*
X233521429Y-102702381D01*
X233616667Y-102750000D01*
X233664286Y-102797619D01*
X233711905Y-102892857D01*
X233711905Y-102988095D01*
X233664286Y-103130952D01*
X233092857Y-103702381D01*
X233711905Y-103702381D01*
X229613095Y-102722619D02*
X229660714Y-102675000D01*
X229755952Y-102627381D01*
X229994048Y-102627381D01*
X230089286Y-102675000D01*
X230136905Y-102722619D01*
X230184524Y-102817857D01*
X230184524Y-102913095D01*
X230136905Y-103055952D01*
X229565476Y-103627381D01*
X230184524Y-103627381D01*
X231136905Y-103627381D02*
X230565476Y-103627381D01*
X230851190Y-103627381D02*
X230851190Y-102627381D01*
X230755952Y-102770238D01*
X230660714Y-102865476D01*
X230565476Y-102913095D01*
X227013095Y-102797619D02*
X227060714Y-102750000D01*
X227155952Y-102702381D01*
X227394048Y-102702381D01*
X227489286Y-102750000D01*
X227536905Y-102797619D01*
X227584524Y-102892857D01*
X227584524Y-102988095D01*
X227536905Y-103130952D01*
X226965476Y-103702381D01*
X227584524Y-103702381D01*
X228203571Y-102702381D02*
X228298810Y-102702381D01*
X228394048Y-102750000D01*
X228441667Y-102797619D01*
X228489286Y-102892857D01*
X228536905Y-103083333D01*
X228536905Y-103321429D01*
X228489286Y-103511905D01*
X228441667Y-103607143D01*
X228394048Y-103654762D01*
X228298810Y-103702381D01*
X228203571Y-103702381D01*
X228108333Y-103654762D01*
X228060714Y-103607143D01*
X228013095Y-103511905D01*
X227965476Y-103321429D01*
X227965476Y-103083333D01*
X228013095Y-102892857D01*
X228060714Y-102797619D01*
X228108333Y-102750000D01*
X228203571Y-102702381D01*
X225109524Y-103702381D02*
X224538095Y-103702381D01*
X224823809Y-103702381D02*
X224823809Y-102702381D01*
X224728571Y-102845238D01*
X224633333Y-102940476D01*
X224538095Y-102988095D01*
X225585714Y-103702381D02*
X225776190Y-103702381D01*
X225871429Y-103654762D01*
X225919048Y-103607143D01*
X226014286Y-103464286D01*
X226061905Y-103273810D01*
X226061905Y-102892857D01*
X226014286Y-102797619D01*
X225966667Y-102750000D01*
X225871429Y-102702381D01*
X225680952Y-102702381D01*
X225585714Y-102750000D01*
X225538095Y-102797619D01*
X225490476Y-102892857D01*
X225490476Y-103130952D01*
X225538095Y-103226190D01*
X225585714Y-103273810D01*
X225680952Y-103321429D01*
X225871429Y-103321429D01*
X225966667Y-103273810D01*
X226014286Y-103226190D01*
X226061905Y-103130952D01*
X222484524Y-103677381D02*
X221913095Y-103677381D01*
X222198809Y-103677381D02*
X222198809Y-102677381D01*
X222103571Y-102820238D01*
X222008333Y-102915476D01*
X221913095Y-102963095D01*
X223055952Y-103105952D02*
X222960714Y-103058333D01*
X222913095Y-103010714D01*
X222865476Y-102915476D01*
X222865476Y-102867857D01*
X222913095Y-102772619D01*
X222960714Y-102725000D01*
X223055952Y-102677381D01*
X223246429Y-102677381D01*
X223341667Y-102725000D01*
X223389286Y-102772619D01*
X223436905Y-102867857D01*
X223436905Y-102915476D01*
X223389286Y-103010714D01*
X223341667Y-103058333D01*
X223246429Y-103105952D01*
X223055952Y-103105952D01*
X222960714Y-103153571D01*
X222913095Y-103201190D01*
X222865476Y-103296429D01*
X222865476Y-103486905D01*
X222913095Y-103582143D01*
X222960714Y-103629762D01*
X223055952Y-103677381D01*
X223246429Y-103677381D01*
X223341667Y-103629762D01*
X223389286Y-103582143D01*
X223436905Y-103486905D01*
X223436905Y-103296429D01*
X223389286Y-103201190D01*
X223341667Y-103153571D01*
X223246429Y-103105952D01*
X220109524Y-103702381D02*
X219538095Y-103702381D01*
X219823809Y-103702381D02*
X219823809Y-102702381D01*
X219728571Y-102845238D01*
X219633333Y-102940476D01*
X219538095Y-102988095D01*
X220442857Y-102702381D02*
X221109524Y-102702381D01*
X220680952Y-103702381D01*
X217459524Y-103652381D02*
X216888095Y-103652381D01*
X217173809Y-103652381D02*
X217173809Y-102652381D01*
X217078571Y-102795238D01*
X216983333Y-102890476D01*
X216888095Y-102938095D01*
X218316667Y-102652381D02*
X218126190Y-102652381D01*
X218030952Y-102700000D01*
X217983333Y-102747619D01*
X217888095Y-102890476D01*
X217840476Y-103080952D01*
X217840476Y-103461905D01*
X217888095Y-103557143D01*
X217935714Y-103604762D01*
X218030952Y-103652381D01*
X218221429Y-103652381D01*
X218316667Y-103604762D01*
X218364286Y-103557143D01*
X218411905Y-103461905D01*
X218411905Y-103223810D01*
X218364286Y-103128571D01*
X218316667Y-103080952D01*
X218221429Y-103033333D01*
X218030952Y-103033333D01*
X217935714Y-103080952D01*
X217888095Y-103128571D01*
X217840476Y-103223810D01*
X214984524Y-103677381D02*
X214413095Y-103677381D01*
X214698809Y-103677381D02*
X214698809Y-102677381D01*
X214603571Y-102820238D01*
X214508333Y-102915476D01*
X214413095Y-102963095D01*
X215889286Y-102677381D02*
X215413095Y-102677381D01*
X215365476Y-103153571D01*
X215413095Y-103105952D01*
X215508333Y-103058333D01*
X215746429Y-103058333D01*
X215841667Y-103105952D01*
X215889286Y-103153571D01*
X215936905Y-103248810D01*
X215936905Y-103486905D01*
X215889286Y-103582143D01*
X215841667Y-103629762D01*
X215746429Y-103677381D01*
X215508333Y-103677381D01*
X215413095Y-103629762D01*
X215365476Y-103582143D01*
X212434524Y-103652381D02*
X211863095Y-103652381D01*
X212148809Y-103652381D02*
X212148809Y-102652381D01*
X212053571Y-102795238D01*
X211958333Y-102890476D01*
X211863095Y-102938095D01*
X213291667Y-102985714D02*
X213291667Y-103652381D01*
X213053571Y-102604762D02*
X212815476Y-103319048D01*
X213434524Y-103319048D01*
X209909524Y-103677381D02*
X209338095Y-103677381D01*
X209623809Y-103677381D02*
X209623809Y-102677381D01*
X209528571Y-102820238D01*
X209433333Y-102915476D01*
X209338095Y-102963095D01*
X210242857Y-102677381D02*
X210861905Y-102677381D01*
X210528571Y-103058333D01*
X210671429Y-103058333D01*
X210766667Y-103105952D01*
X210814286Y-103153571D01*
X210861905Y-103248810D01*
X210861905Y-103486905D01*
X210814286Y-103582143D01*
X210766667Y-103629762D01*
X210671429Y-103677381D01*
X210385714Y-103677381D01*
X210290476Y-103629762D01*
X210242857Y-103582143D01*
X207259524Y-103652381D02*
X206688095Y-103652381D01*
X206973809Y-103652381D02*
X206973809Y-102652381D01*
X206878571Y-102795238D01*
X206783333Y-102890476D01*
X206688095Y-102938095D01*
X207640476Y-102747619D02*
X207688095Y-102700000D01*
X207783333Y-102652381D01*
X208021429Y-102652381D01*
X208116667Y-102700000D01*
X208164286Y-102747619D01*
X208211905Y-102842857D01*
X208211905Y-102938095D01*
X208164286Y-103080952D01*
X207592857Y-103652381D01*
X208211905Y-103652381D01*
X204859524Y-103627381D02*
X204288095Y-103627381D01*
X204573809Y-103627381D02*
X204573809Y-102627381D01*
X204478571Y-102770238D01*
X204383333Y-102865476D01*
X204288095Y-102913095D01*
X205811905Y-103627381D02*
X205240476Y-103627381D01*
X205526190Y-103627381D02*
X205526190Y-102627381D01*
X205430952Y-102770238D01*
X205335714Y-102865476D01*
X205240476Y-102913095D01*
X202359524Y-103627381D02*
X201788095Y-103627381D01*
X202073809Y-103627381D02*
X202073809Y-102627381D01*
X201978571Y-102770238D01*
X201883333Y-102865476D01*
X201788095Y-102913095D01*
X202978571Y-102627381D02*
X203073810Y-102627381D01*
X203169048Y-102675000D01*
X203216667Y-102722619D01*
X203264286Y-102817857D01*
X203311905Y-103008333D01*
X203311905Y-103246429D01*
X203264286Y-103436905D01*
X203216667Y-103532143D01*
X203169048Y-103579762D01*
X203073810Y-103627381D01*
X202978571Y-103627381D01*
X202883333Y-103579762D01*
X202835714Y-103532143D01*
X202788095Y-103436905D01*
X202740476Y-103246429D01*
X202740476Y-103008333D01*
X202788095Y-102817857D01*
X202835714Y-102722619D01*
X202883333Y-102675000D01*
X202978571Y-102627381D01*
X199684524Y-103727381D02*
X199875000Y-103727381D01*
X199970239Y-103679762D01*
X200017858Y-103632143D01*
X200113096Y-103489286D01*
X200160715Y-103298810D01*
X200160715Y-102917857D01*
X200113096Y-102822619D01*
X200065477Y-102775000D01*
X199970239Y-102727381D01*
X199779762Y-102727381D01*
X199684524Y-102775000D01*
X199636905Y-102822619D01*
X199589286Y-102917857D01*
X199589286Y-103155952D01*
X199636905Y-103251190D01*
X199684524Y-103298810D01*
X199779762Y-103346429D01*
X199970239Y-103346429D01*
X200065477Y-103298810D01*
X200113096Y-103251190D01*
X200160715Y-103155952D01*
X197254762Y-103155952D02*
X197159524Y-103108333D01*
X197111905Y-103060714D01*
X197064286Y-102965476D01*
X197064286Y-102917857D01*
X197111905Y-102822619D01*
X197159524Y-102775000D01*
X197254762Y-102727381D01*
X197445239Y-102727381D01*
X197540477Y-102775000D01*
X197588096Y-102822619D01*
X197635715Y-102917857D01*
X197635715Y-102965476D01*
X197588096Y-103060714D01*
X197540477Y-103108333D01*
X197445239Y-103155952D01*
X197254762Y-103155952D01*
X197159524Y-103203571D01*
X197111905Y-103251190D01*
X197064286Y-103346429D01*
X197064286Y-103536905D01*
X197111905Y-103632143D01*
X197159524Y-103679762D01*
X197254762Y-103727381D01*
X197445239Y-103727381D01*
X197540477Y-103679762D01*
X197588096Y-103632143D01*
X197635715Y-103536905D01*
X197635715Y-103346429D01*
X197588096Y-103251190D01*
X197540477Y-103203571D01*
X197445239Y-103155952D01*
X194516667Y-102752381D02*
X195183334Y-102752381D01*
X194754762Y-103752381D01*
X192440477Y-102727381D02*
X192250000Y-102727381D01*
X192154762Y-102775000D01*
X192107143Y-102822619D01*
X192011905Y-102965476D01*
X191964286Y-103155952D01*
X191964286Y-103536905D01*
X192011905Y-103632143D01*
X192059524Y-103679762D01*
X192154762Y-103727381D01*
X192345239Y-103727381D01*
X192440477Y-103679762D01*
X192488096Y-103632143D01*
X192535715Y-103536905D01*
X192535715Y-103298810D01*
X192488096Y-103203571D01*
X192440477Y-103155952D01*
X192345239Y-103108333D01*
X192154762Y-103108333D01*
X192059524Y-103155952D01*
X192011905Y-103203571D01*
X191964286Y-103298810D01*
X189988096Y-102752381D02*
X189511905Y-102752381D01*
X189464286Y-103228571D01*
X189511905Y-103180952D01*
X189607143Y-103133333D01*
X189845239Y-103133333D01*
X189940477Y-103180952D01*
X189988096Y-103228571D01*
X190035715Y-103323810D01*
X190035715Y-103561905D01*
X189988096Y-103657143D01*
X189940477Y-103704762D01*
X189845239Y-103752381D01*
X189607143Y-103752381D01*
X189511905Y-103704762D01*
X189464286Y-103657143D01*
X187215477Y-103085714D02*
X187215477Y-103752381D01*
X186977381Y-102704762D02*
X186739286Y-103419048D01*
X187358334Y-103419048D01*
X184341667Y-102727381D02*
X184960715Y-102727381D01*
X184627381Y-103108333D01*
X184770239Y-103108333D01*
X184865477Y-103155952D01*
X184913096Y-103203571D01*
X184960715Y-103298810D01*
X184960715Y-103536905D01*
X184913096Y-103632143D01*
X184865477Y-103679762D01*
X184770239Y-103727381D01*
X184484524Y-103727381D01*
X184389286Y-103679762D01*
X184341667Y-103632143D01*
X181789286Y-102797619D02*
X181836905Y-102750000D01*
X181932143Y-102702381D01*
X182170239Y-102702381D01*
X182265477Y-102750000D01*
X182313096Y-102797619D01*
X182360715Y-102892857D01*
X182360715Y-102988095D01*
X182313096Y-103130952D01*
X181741667Y-103702381D01*
X182360715Y-103702381D01*
D14*
X180963000Y-143559113D02*
X180920143Y-143601971D01*
X180791571Y-143687685D01*
X180705857Y-143730542D01*
X180577286Y-143773399D01*
X180363000Y-143816256D01*
X180191571Y-143816256D01*
X179977286Y-143773399D01*
X179848714Y-143730542D01*
X179763000Y-143687685D01*
X179634429Y-143601971D01*
X179591571Y-143559113D01*
X180577286Y-142830542D02*
X180620143Y-142916256D01*
X180620143Y-143087685D01*
X180577286Y-143173399D01*
X180534429Y-143216256D01*
X180448714Y-143259113D01*
X180191571Y-143259113D01*
X180105857Y-143216256D01*
X180063000Y-143173399D01*
X180020143Y-143087685D01*
X180020143Y-142916256D01*
X180063000Y-142830542D01*
X180963000Y-142530542D02*
X180920143Y-142487684D01*
X180791571Y-142401970D01*
X180705857Y-142359113D01*
X180577286Y-142316256D01*
X180363000Y-142273399D01*
X180191571Y-142273399D01*
X179977286Y-142316256D01*
X179848714Y-142359113D01*
X179763000Y-142401970D01*
X179634429Y-142487684D01*
X179591571Y-142530542D01*
X179805857Y-141201970D02*
X179763000Y-141159113D01*
X179720143Y-141073399D01*
X179720143Y-140859113D01*
X179763000Y-140773399D01*
X179805857Y-140730542D01*
X179891571Y-140687685D01*
X179977286Y-140687685D01*
X180105857Y-140730542D01*
X180620143Y-141244828D01*
X180620143Y-140687685D01*
X179720143Y-140130542D02*
X179720143Y-140044827D01*
X179763000Y-139959113D01*
X179805857Y-139916256D01*
X179891571Y-139873399D01*
X180063000Y-139830542D01*
X180277286Y-139830542D01*
X180448714Y-139873399D01*
X180534429Y-139916256D01*
X180577286Y-139959113D01*
X180620143Y-140044827D01*
X180620143Y-140130542D01*
X180577286Y-140216256D01*
X180534429Y-140259113D01*
X180448714Y-140301970D01*
X180277286Y-140344827D01*
X180063000Y-140344827D01*
X179891571Y-140301970D01*
X179805857Y-140259113D01*
X179763000Y-140216256D01*
X179720143Y-140130542D01*
X180620143Y-138973399D02*
X180620143Y-139487684D01*
X180620143Y-139230542D02*
X179720143Y-139230542D01*
X179848714Y-139316256D01*
X179934429Y-139401970D01*
X179977286Y-139487684D01*
X179720143Y-138201970D02*
X179720143Y-138373399D01*
X179763000Y-138459113D01*
X179805857Y-138501970D01*
X179934429Y-138587684D01*
X180105857Y-138630541D01*
X180448714Y-138630541D01*
X180534429Y-138587684D01*
X180577286Y-138544827D01*
X180620143Y-138459113D01*
X180620143Y-138287684D01*
X180577286Y-138201970D01*
X180534429Y-138159113D01*
X180448714Y-138116256D01*
X180234429Y-138116256D01*
X180148714Y-138159113D01*
X180105857Y-138201970D01*
X180063000Y-138287684D01*
X180063000Y-138459113D01*
X180105857Y-138544827D01*
X180148714Y-138587684D01*
X180234429Y-138630541D01*
X180620143Y-137044827D02*
X179720143Y-137044827D01*
X180363000Y-136744827D01*
X179720143Y-136444827D01*
X180620143Y-136444827D01*
X180620143Y-136016256D02*
X180020143Y-136016256D01*
X179720143Y-136016256D02*
X179763000Y-136059113D01*
X179805857Y-136016256D01*
X179763000Y-135973399D01*
X179720143Y-136016256D01*
X179805857Y-136016256D01*
X180620143Y-135587685D02*
X180020143Y-135587685D01*
X180191571Y-135587685D02*
X180105857Y-135544828D01*
X180063000Y-135501971D01*
X180020143Y-135416257D01*
X180020143Y-135330542D01*
X180620143Y-135030542D02*
X179720143Y-135030542D01*
X180277286Y-134944828D02*
X180620143Y-134687685D01*
X180020143Y-134687685D02*
X180363000Y-135030542D01*
X180620143Y-134173400D02*
X180577286Y-134259114D01*
X180534429Y-134301971D01*
X180448714Y-134344828D01*
X180191571Y-134344828D01*
X180105857Y-134301971D01*
X180063000Y-134259114D01*
X180020143Y-134173400D01*
X180020143Y-134044828D01*
X180063000Y-133959114D01*
X180105857Y-133916257D01*
X180191571Y-133873400D01*
X180448714Y-133873400D01*
X180534429Y-133916257D01*
X180577286Y-133959114D01*
X180620143Y-134044828D01*
X180620143Y-134173400D01*
X180620143Y-132801971D02*
X179720143Y-132801971D01*
X180620143Y-132287686D02*
X180105857Y-132673400D01*
X179720143Y-132287686D02*
X180234429Y-132801971D01*
X180620143Y-131516257D02*
X180148714Y-131516257D01*
X180063000Y-131559114D01*
X180020143Y-131644828D01*
X180020143Y-131816257D01*
X180063000Y-131901971D01*
X180577286Y-131516257D02*
X180620143Y-131601971D01*
X180620143Y-131816257D01*
X180577286Y-131901971D01*
X180491571Y-131944828D01*
X180405857Y-131944828D01*
X180320143Y-131901971D01*
X180277286Y-131816257D01*
X180277286Y-131601971D01*
X180234429Y-131516257D01*
X180620143Y-131087685D02*
X180020143Y-131087685D01*
X179720143Y-131087685D02*
X179763000Y-131130542D01*
X179805857Y-131087685D01*
X179763000Y-131044828D01*
X179720143Y-131087685D01*
X179805857Y-131087685D01*
X180577286Y-130701971D02*
X180620143Y-130616257D01*
X180620143Y-130444829D01*
X180577286Y-130359114D01*
X180491571Y-130316257D01*
X180448714Y-130316257D01*
X180363000Y-130359114D01*
X180320143Y-130444829D01*
X180320143Y-130573400D01*
X180277286Y-130659114D01*
X180191571Y-130701971D01*
X180148714Y-130701971D01*
X180063000Y-130659114D01*
X180020143Y-130573400D01*
X180020143Y-130444829D01*
X180063000Y-130359114D01*
X180577286Y-129587686D02*
X180620143Y-129673400D01*
X180620143Y-129844829D01*
X180577286Y-129930543D01*
X180491571Y-129973400D01*
X180148714Y-129973400D01*
X180063000Y-129930543D01*
X180020143Y-129844829D01*
X180020143Y-129673400D01*
X180063000Y-129587686D01*
X180148714Y-129544829D01*
X180234429Y-129544829D01*
X180320143Y-129973400D01*
X180620143Y-129159114D02*
X180020143Y-129159114D01*
X180191571Y-129159114D02*
X180105857Y-129116257D01*
X180063000Y-129073400D01*
X180020143Y-128987686D01*
X180020143Y-128901971D01*
D13*
X222628572Y-136707143D02*
X223771429Y-136707143D01*
X220128572Y-136707143D02*
X221271429Y-136707143D01*
D11*
X259719048Y-99096429D02*
X260480953Y-99096429D01*
X260100001Y-99477381D02*
X260100001Y-98715476D01*
X257540476Y-102827381D02*
X258159524Y-102827381D01*
X257826190Y-103208333D01*
X257969048Y-103208333D01*
X258064286Y-103255952D01*
X258111905Y-103303571D01*
X258159524Y-103398810D01*
X258159524Y-103636905D01*
X258111905Y-103732143D01*
X258064286Y-103779762D01*
X257969048Y-103827381D01*
X257683333Y-103827381D01*
X257588095Y-103779762D01*
X257540476Y-103732143D01*
X258540476Y-102922619D02*
X258588095Y-102875000D01*
X258683333Y-102827381D01*
X258921429Y-102827381D01*
X259016667Y-102875000D01*
X259064286Y-102922619D01*
X259111905Y-103017857D01*
X259111905Y-103113095D01*
X259064286Y-103255952D01*
X258492857Y-103827381D01*
X259111905Y-103827381D01*
X177321429Y-99380952D02*
X177321429Y-98619047D01*
X177702381Y-98999999D02*
X176940476Y-98999999D01*
X179860715Y-103677381D02*
X179289286Y-103677381D01*
X179575000Y-103677381D02*
X179575000Y-102677381D01*
X179479762Y-102820238D01*
X179384524Y-102915476D01*
X179289286Y-102963095D01*
X258643405Y-129357500D02*
X258548167Y-129309881D01*
X258405310Y-129309881D01*
X258262452Y-129357500D01*
X258167214Y-129452738D01*
X258119595Y-129547976D01*
X258071976Y-129738452D01*
X258071976Y-129881310D01*
X258119595Y-130071786D01*
X258167214Y-130167024D01*
X258262452Y-130262262D01*
X258405310Y-130309881D01*
X258500548Y-130309881D01*
X258643405Y-130262262D01*
X258691024Y-130214643D01*
X258691024Y-129881310D01*
X258500548Y-129881310D01*
X247023000Y-104830595D02*
X246975381Y-104925833D01*
X246975381Y-105068690D01*
X247023000Y-105211548D01*
X247118238Y-105306786D01*
X247213476Y-105354405D01*
X247403952Y-105402024D01*
X247546810Y-105402024D01*
X247737286Y-105354405D01*
X247832524Y-105306786D01*
X247927762Y-105211548D01*
X247975381Y-105068690D01*
X247975381Y-104973452D01*
X247927762Y-104830595D01*
X247880143Y-104782976D01*
X247546810Y-104782976D01*
X247546810Y-104973452D01*
X253059524Y-128202381D02*
X253250000Y-128202381D01*
X253345239Y-128154762D01*
X253392858Y-128107143D01*
X253488096Y-127964286D01*
X253535715Y-127773810D01*
X253535715Y-127392857D01*
X253488096Y-127297619D01*
X253440477Y-127250000D01*
X253345239Y-127202381D01*
X253154762Y-127202381D01*
X253059524Y-127250000D01*
X253011905Y-127297619D01*
X252964286Y-127392857D01*
X252964286Y-127630952D01*
X253011905Y-127726190D01*
X253059524Y-127773810D01*
X253154762Y-127821429D01*
X253345239Y-127821429D01*
X253440477Y-127773810D01*
X253488096Y-127726190D01*
X253535715Y-127630952D01*
X249785715Y-110202381D02*
X249214286Y-110202381D01*
X249500000Y-110202381D02*
X249500000Y-109202381D01*
X249404762Y-109345238D01*
X249309524Y-109440476D01*
X249214286Y-109488095D01*
X243952381Y-110690476D02*
X243952381Y-110500000D01*
X243904762Y-110404761D01*
X243857143Y-110357142D01*
X243714286Y-110261904D01*
X243523810Y-110214285D01*
X243142857Y-110214285D01*
X243047619Y-110261904D01*
X243000000Y-110309523D01*
X242952381Y-110404761D01*
X242952381Y-110595238D01*
X243000000Y-110690476D01*
X243047619Y-110738095D01*
X243142857Y-110785714D01*
X243380952Y-110785714D01*
X243476190Y-110738095D01*
X243523810Y-110690476D01*
X243571429Y-110595238D01*
X243571429Y-110404761D01*
X243523810Y-110309523D01*
X243476190Y-110261904D01*
X243380952Y-110214285D01*
X226202381Y-114214285D02*
X226202381Y-114785714D01*
X226202381Y-114500000D02*
X225202381Y-114500000D01*
X225345238Y-114595238D01*
X225440476Y-114690476D01*
X225488095Y-114785714D01*
X221452381Y-110690476D02*
X221452381Y-110500000D01*
X221404762Y-110404761D01*
X221357143Y-110357142D01*
X221214286Y-110261904D01*
X221023810Y-110214285D01*
X220642857Y-110214285D01*
X220547619Y-110261904D01*
X220500000Y-110309523D01*
X220452381Y-110404761D01*
X220452381Y-110595238D01*
X220500000Y-110690476D01*
X220547619Y-110738095D01*
X220642857Y-110785714D01*
X220880952Y-110785714D01*
X220976190Y-110738095D01*
X221023810Y-110690476D01*
X221071429Y-110595238D01*
X221071429Y-110404761D01*
X221023810Y-110309523D01*
X220976190Y-110261904D01*
X220880952Y-110214285D01*
X203452381Y-114214285D02*
X203452381Y-114785714D01*
X203452381Y-114500000D02*
X202452381Y-114500000D01*
X202595238Y-114595238D01*
X202690476Y-114690476D01*
X202738095Y-114785714D01*
X198702381Y-110940476D02*
X198702381Y-110750000D01*
X198654762Y-110654761D01*
X198607143Y-110607142D01*
X198464286Y-110511904D01*
X198273810Y-110464285D01*
X197892857Y-110464285D01*
X197797619Y-110511904D01*
X197750000Y-110559523D01*
X197702381Y-110654761D01*
X197702381Y-110845238D01*
X197750000Y-110940476D01*
X197797619Y-110988095D01*
X197892857Y-111035714D01*
X198130952Y-111035714D01*
X198226190Y-110988095D01*
X198273810Y-110940476D01*
X198321429Y-110845238D01*
X198321429Y-110654761D01*
X198273810Y-110559523D01*
X198226190Y-110511904D01*
X198130952Y-110464285D01*
X180702381Y-114214285D02*
X180702381Y-114785714D01*
X180702381Y-114500000D02*
X179702381Y-114500000D01*
X179845238Y-114595238D01*
X179940476Y-114690476D01*
X179988095Y-114785714D01*
D12*
X197916667Y-124202381D02*
X198250000Y-125202381D01*
X198583334Y-124202381D01*
X198916667Y-124202381D02*
X198916667Y-125011905D01*
X198964286Y-125107143D01*
X199011905Y-125154762D01*
X199107143Y-125202381D01*
X199297620Y-125202381D01*
X199392858Y-125154762D01*
X199440477Y-125107143D01*
X199488096Y-125011905D01*
X199488096Y-124202381D01*
X199916667Y-125154762D02*
X200059524Y-125202381D01*
X200297620Y-125202381D01*
X200392858Y-125154762D01*
X200440477Y-125107143D01*
X200488096Y-125011905D01*
X200488096Y-124916667D01*
X200440477Y-124821429D01*
X200392858Y-124773810D01*
X200297620Y-124726190D01*
X200107143Y-124678571D01*
X200011905Y-124630952D01*
X199964286Y-124583333D01*
X199916667Y-124488095D01*
X199916667Y-124392857D01*
X199964286Y-124297619D01*
X200011905Y-124250000D01*
X200107143Y-124202381D01*
X200345239Y-124202381D01*
X200488096Y-124250000D01*
X201250001Y-124678571D02*
X201392858Y-124726190D01*
X201440477Y-124773810D01*
X201488096Y-124869048D01*
X201488096Y-125011905D01*
X201440477Y-125107143D01*
X201392858Y-125154762D01*
X201297620Y-125202381D01*
X200916667Y-125202381D01*
X200916667Y-124202381D01*
X201250001Y-124202381D01*
X201345239Y-124250000D01*
X201392858Y-124297619D01*
X201440477Y-124392857D01*
X201440477Y-124488095D01*
X201392858Y-124583333D01*
X201345239Y-124630952D01*
X201250001Y-124678571D01*
X200916667Y-124678571D01*
D15*
X229716667Y-125467976D02*
X229716667Y-124217976D01*
X230133334Y-125110833D01*
X230550000Y-124217976D01*
X230550000Y-125467976D01*
X231383333Y-124217976D02*
X231621429Y-124217976D01*
X231740476Y-124277500D01*
X231859524Y-124396548D01*
X231919048Y-124634643D01*
X231919048Y-125051310D01*
X231859524Y-125289405D01*
X231740476Y-125408452D01*
X231621429Y-125467976D01*
X231383333Y-125467976D01*
X231264286Y-125408452D01*
X231145238Y-125289405D01*
X231085714Y-125051310D01*
X231085714Y-124634643D01*
X231145238Y-124396548D01*
X231264286Y-124277500D01*
X231383333Y-124217976D01*
X232871429Y-124813214D02*
X233050000Y-124872738D01*
X233109524Y-124932262D01*
X233169048Y-125051310D01*
X233169048Y-125229881D01*
X233109524Y-125348929D01*
X233050000Y-125408452D01*
X232930953Y-125467976D01*
X232454762Y-125467976D01*
X232454762Y-124217976D01*
X232871429Y-124217976D01*
X232990476Y-124277500D01*
X233050000Y-124337024D01*
X233109524Y-124456071D01*
X233109524Y-124575119D01*
X233050000Y-124694167D01*
X232990476Y-124753690D01*
X232871429Y-124813214D01*
X232454762Y-124813214D01*
X234121429Y-124813214D02*
X234300000Y-124872738D01*
X234359524Y-124932262D01*
X234419048Y-125051310D01*
X234419048Y-125229881D01*
X234359524Y-125348929D01*
X234300000Y-125408452D01*
X234180953Y-125467976D01*
X233704762Y-125467976D01*
X233704762Y-124217976D01*
X234121429Y-124217976D01*
X234240476Y-124277500D01*
X234300000Y-124337024D01*
X234359524Y-124456071D01*
X234359524Y-124575119D01*
X234300000Y-124694167D01*
X234240476Y-124753690D01*
X234121429Y-124813214D01*
X233704762Y-124813214D01*
X235728572Y-124634643D02*
X236204762Y-124634643D01*
X235907143Y-125467976D02*
X235907143Y-124396548D01*
X235966667Y-124277500D01*
X236085714Y-124217976D01*
X236204762Y-124217976D01*
X236800000Y-125467976D02*
X236680953Y-125408452D01*
X236621429Y-125348929D01*
X236561905Y-125229881D01*
X236561905Y-124872738D01*
X236621429Y-124753690D01*
X236680953Y-124694167D01*
X236800000Y-124634643D01*
X236978572Y-124634643D01*
X237097620Y-124694167D01*
X237157143Y-124753690D01*
X237216667Y-124872738D01*
X237216667Y-125229881D01*
X237157143Y-125348929D01*
X237097620Y-125408452D01*
X236978572Y-125467976D01*
X236800000Y-125467976D01*
X237752381Y-125467976D02*
X237752381Y-124634643D01*
X237752381Y-124872738D02*
X237811905Y-124753690D01*
X237871429Y-124694167D01*
X237990476Y-124634643D01*
X238109524Y-124634643D01*
X229359524Y-126312976D02*
X230073809Y-126312976D01*
X229716666Y-127562976D02*
X229716666Y-126312976D01*
X230966667Y-127503452D02*
X230847619Y-127562976D01*
X230609524Y-127562976D01*
X230490476Y-127503452D01*
X230430952Y-127384405D01*
X230430952Y-126908214D01*
X230490476Y-126789167D01*
X230609524Y-126729643D01*
X230847619Y-126729643D01*
X230966667Y-126789167D01*
X231026190Y-126908214D01*
X231026190Y-127027262D01*
X230430952Y-127146310D01*
X232038096Y-127503452D02*
X231919048Y-127562976D01*
X231680953Y-127562976D01*
X231561905Y-127503452D01*
X231502381Y-127384405D01*
X231502381Y-126908214D01*
X231561905Y-126789167D01*
X231680953Y-126729643D01*
X231919048Y-126729643D01*
X232038096Y-126789167D01*
X232097619Y-126908214D01*
X232097619Y-127027262D01*
X231502381Y-127146310D01*
X232633334Y-126729643D02*
X232633334Y-127562976D01*
X232633334Y-126848690D02*
X232692858Y-126789167D01*
X232811905Y-126729643D01*
X232990477Y-126729643D01*
X233109525Y-126789167D01*
X233169048Y-126908214D01*
X233169048Y-127562976D01*
X233704762Y-127503452D02*
X233823810Y-127562976D01*
X234061905Y-127562976D01*
X234180953Y-127503452D01*
X234240477Y-127384405D01*
X234240477Y-127324881D01*
X234180953Y-127205833D01*
X234061905Y-127146310D01*
X233883334Y-127146310D01*
X233764286Y-127086786D01*
X233704762Y-126967738D01*
X233704762Y-126908214D01*
X233764286Y-126789167D01*
X233883334Y-126729643D01*
X234061905Y-126729643D01*
X234180953Y-126789167D01*
X234657143Y-126729643D02*
X234954762Y-127562976D01*
X235252382Y-126729643D02*
X234954762Y-127562976D01*
X234835715Y-127860595D01*
X234776191Y-127920119D01*
X234657143Y-127979643D01*
X236561905Y-126312976D02*
X237335715Y-126312976D01*
X236919048Y-126789167D01*
X237097620Y-126789167D01*
X237216667Y-126848690D01*
X237276191Y-126908214D01*
X237335715Y-127027262D01*
X237335715Y-127324881D01*
X237276191Y-127443929D01*
X237216667Y-127503452D01*
X237097620Y-127562976D01*
X236740477Y-127562976D01*
X236621429Y-127503452D01*
X236561905Y-127443929D01*
X237871429Y-127443929D02*
X237930953Y-127503452D01*
X237871429Y-127562976D01*
X237811905Y-127503452D01*
X237871429Y-127443929D01*
X237871429Y-127562976D01*
X238407143Y-126432024D02*
X238466667Y-126372500D01*
X238585715Y-126312976D01*
X238883334Y-126312976D01*
X239002381Y-126372500D01*
X239061905Y-126432024D01*
X239121429Y-126551071D01*
X239121429Y-126670119D01*
X239061905Y-126848690D01*
X238347619Y-127562976D01*
X239121429Y-127562976D01*
D12*
X241653334Y-137827619D02*
X242334286Y-137827619D01*
X241967620Y-138246667D01*
X242124762Y-138246667D01*
X242229524Y-138299048D01*
X242281905Y-138351429D01*
X242334286Y-138456190D01*
X242334286Y-138718095D01*
X242281905Y-138822857D01*
X242229524Y-138875238D01*
X242124762Y-138927619D01*
X241810477Y-138927619D01*
X241705715Y-138875238D01*
X241653334Y-138822857D01*
X243172381Y-138351429D02*
X243329524Y-138403810D01*
X243381905Y-138456190D01*
X243434286Y-138560952D01*
X243434286Y-138718095D01*
X243381905Y-138822857D01*
X243329524Y-138875238D01*
X243224762Y-138927619D01*
X242805715Y-138927619D01*
X242805715Y-137827619D01*
X243172381Y-137827619D01*
X243277143Y-137880000D01*
X243329524Y-137932381D01*
X243381905Y-138037143D01*
X243381905Y-138141905D01*
X243329524Y-138246667D01*
X243277143Y-138299048D01*
X243172381Y-138351429D01*
X242805715Y-138351429D01*
X239191905Y-137827619D02*
X239872857Y-137827619D01*
X239506191Y-138246667D01*
X239663333Y-138246667D01*
X239768095Y-138299048D01*
X239820476Y-138351429D01*
X239872857Y-138456190D01*
X239872857Y-138718095D01*
X239820476Y-138822857D01*
X239768095Y-138875238D01*
X239663333Y-138927619D01*
X239349048Y-138927619D01*
X239244286Y-138875238D01*
X239191905Y-138822857D01*
X240291905Y-138613333D02*
X240815714Y-138613333D01*
X240187143Y-138927619D02*
X240553810Y-137827619D01*
X240920476Y-138927619D01*
X236371715Y-137932381D02*
X236424096Y-137880000D01*
X236528858Y-137827619D01*
X236790762Y-137827619D01*
X236895524Y-137880000D01*
X236947905Y-137932381D01*
X237000286Y-138037143D01*
X237000286Y-138141905D01*
X236947905Y-138299048D01*
X236319334Y-138927619D01*
X237000286Y-138927619D01*
X237838381Y-138351429D02*
X237995524Y-138403810D01*
X238047905Y-138456190D01*
X238100286Y-138560952D01*
X238100286Y-138718095D01*
X238047905Y-138822857D01*
X237995524Y-138875238D01*
X237890762Y-138927619D01*
X237471715Y-138927619D01*
X237471715Y-137827619D01*
X237838381Y-137827619D01*
X237943143Y-137880000D01*
X237995524Y-137932381D01*
X238047905Y-138037143D01*
X238047905Y-138141905D01*
X237995524Y-138246667D01*
X237943143Y-138299048D01*
X237838381Y-138351429D01*
X237471715Y-138351429D01*
X233910286Y-137932381D02*
X233962667Y-137880000D01*
X234067429Y-137827619D01*
X234329333Y-137827619D01*
X234434095Y-137880000D01*
X234486476Y-137932381D01*
X234538857Y-138037143D01*
X234538857Y-138141905D01*
X234486476Y-138299048D01*
X233857905Y-138927619D01*
X234538857Y-138927619D01*
X234957905Y-138613333D02*
X235481714Y-138613333D01*
X234853143Y-138927619D02*
X235219810Y-137827619D01*
X235586476Y-138927619D01*
X231920286Y-138927619D02*
X231291715Y-138927619D01*
X231606001Y-138927619D02*
X231606001Y-137827619D01*
X231501239Y-137984762D01*
X231396477Y-138089524D01*
X231291715Y-138141905D01*
X232758381Y-138351429D02*
X232915524Y-138403810D01*
X232967905Y-138456190D01*
X233020286Y-138560952D01*
X233020286Y-138718095D01*
X232967905Y-138822857D01*
X232915524Y-138875238D01*
X232810762Y-138927619D01*
X232391715Y-138927619D01*
X232391715Y-137827619D01*
X232758381Y-137827619D01*
X232863143Y-137880000D01*
X232915524Y-137932381D01*
X232967905Y-138037143D01*
X232967905Y-138141905D01*
X232915524Y-138246667D01*
X232863143Y-138299048D01*
X232758381Y-138351429D01*
X232391715Y-138351429D01*
X229204857Y-138927619D02*
X228576286Y-138927619D01*
X228890572Y-138927619D02*
X228890572Y-137827619D01*
X228785810Y-137984762D01*
X228681048Y-138089524D01*
X228576286Y-138141905D01*
X229623905Y-138613333D02*
X230147714Y-138613333D01*
X229519143Y-138927619D02*
X229885810Y-137827619D01*
X230252476Y-138927619D01*
D16*
X214133334Y-135847619D02*
X214814286Y-135847619D01*
X214447620Y-136266667D01*
X214604762Y-136266667D01*
X214709524Y-136319048D01*
X214761905Y-136371429D01*
X214814286Y-136476190D01*
X214814286Y-136738095D01*
X214761905Y-136842857D01*
X214709524Y-136895238D01*
X214604762Y-136947619D01*
X214290477Y-136947619D01*
X214185715Y-136895238D01*
X214133334Y-136842857D01*
X211710715Y-135927381D02*
X211763096Y-135875000D01*
X211867858Y-135822619D01*
X212129762Y-135822619D01*
X212234524Y-135875000D01*
X212286905Y-135927381D01*
X212339286Y-136032143D01*
X212339286Y-136136905D01*
X212286905Y-136294048D01*
X211658334Y-136922619D01*
X212339286Y-136922619D01*
X209664286Y-136897619D02*
X209035715Y-136897619D01*
X209350001Y-136897619D02*
X209350001Y-135797619D01*
X209245239Y-135954762D01*
X209140477Y-136059524D01*
X209035715Y-136111905D01*
D13*
X201128572Y-138407143D02*
X202271429Y-138407143D01*
D12*
X204190476Y-137797619D02*
X203666667Y-137797619D01*
X203614286Y-138321429D01*
X203666667Y-138269048D01*
X203771429Y-138216667D01*
X204033333Y-138216667D01*
X204138095Y-138269048D01*
X204190476Y-138321429D01*
X204242857Y-138426190D01*
X204242857Y-138688095D01*
X204190476Y-138792857D01*
X204138095Y-138845238D01*
X204033333Y-138897619D01*
X203771429Y-138897619D01*
X203666667Y-138845238D01*
X203614286Y-138792857D01*
X204557143Y-137797619D02*
X204923810Y-138897619D01*
X205290476Y-137797619D01*
X244272619Y-123157143D02*
X244272619Y-123680952D01*
X243172619Y-123680952D01*
X243696429Y-122790476D02*
X243696429Y-122423810D01*
X244272619Y-122266667D02*
X244272619Y-122790476D01*
X243172619Y-122790476D01*
X243172619Y-122266667D01*
X244272619Y-121795238D02*
X243172619Y-121795238D01*
X243172619Y-121533333D01*
X243225000Y-121376191D01*
X243329762Y-121271429D01*
X243434524Y-121219048D01*
X243644048Y-121166667D01*
X243801190Y-121166667D01*
X244010714Y-121219048D01*
X244115476Y-121271429D01*
X244220238Y-121376191D01*
X244272619Y-121533333D01*
X244272619Y-121795238D01*
X215347619Y-122838095D02*
X215347619Y-122157143D01*
X215766667Y-122523809D01*
X215766667Y-122366667D01*
X215819048Y-122261905D01*
X215871429Y-122209524D01*
X215976190Y-122157143D01*
X216238095Y-122157143D01*
X216342857Y-122209524D01*
X216395238Y-122261905D01*
X216447619Y-122366667D01*
X216447619Y-122680952D01*
X216395238Y-122785714D01*
X216342857Y-122838095D01*
X215347619Y-121842857D02*
X216447619Y-121476190D01*
X215347619Y-121109524D01*
X208270000Y-133808095D02*
X208217619Y-133912857D01*
X208217619Y-134070000D01*
X208270000Y-134227142D01*
X208374762Y-134331904D01*
X208479524Y-134384285D01*
X208689048Y-134436666D01*
X208846190Y-134436666D01*
X209055714Y-134384285D01*
X209160476Y-134331904D01*
X209265238Y-134227142D01*
X209317619Y-134070000D01*
X209317619Y-133965238D01*
X209265238Y-133808095D01*
X209212857Y-133755714D01*
X208846190Y-133755714D01*
X208846190Y-133965238D01*
X209317619Y-133284285D02*
X208217619Y-133284285D01*
X209317619Y-132655714D01*
X208217619Y-132655714D01*
X209317619Y-132131904D02*
X208217619Y-132131904D01*
X208217619Y-131869999D01*
X208270000Y-131712857D01*
X208374762Y-131608095D01*
X208479524Y-131555714D01*
X208689048Y-131503333D01*
X208846190Y-131503333D01*
X209055714Y-131555714D01*
X209160476Y-131608095D01*
X209265238Y-131712857D01*
X209317619Y-131869999D01*
X209317619Y-132131904D01*
D13*
X213928571Y-124128571D02*
X212785714Y-124557143D01*
X213928571Y-124985714D01*
X215785714Y-124128571D02*
X214642857Y-124557143D01*
X215785714Y-124985714D01*
X217642857Y-124128571D02*
X216500000Y-124557143D01*
X217642857Y-124985714D01*
X219500000Y-124128571D02*
X218357143Y-124557143D01*
X219500000Y-124985714D01*
X221357143Y-124128571D02*
X220214286Y-124557143D01*
X221357143Y-124985714D01*
X223214286Y-124128571D02*
X222071429Y-124557143D01*
X223214286Y-124985714D01*
X213035715Y-126178571D02*
X213035715Y-127392857D01*
X213107143Y-127535714D01*
X213178572Y-127607143D01*
X213321429Y-127678571D01*
X213607143Y-127678571D01*
X213750001Y-127607143D01*
X213821429Y-127535714D01*
X213892858Y-127392857D01*
X213892858Y-126178571D01*
X214535715Y-127607143D02*
X214750001Y-127678571D01*
X215107144Y-127678571D01*
X215250001Y-127607143D01*
X215321430Y-127535714D01*
X215392858Y-127392857D01*
X215392858Y-127250000D01*
X215321430Y-127107143D01*
X215250001Y-127035714D01*
X215107144Y-126964286D01*
X214821430Y-126892857D01*
X214678572Y-126821429D01*
X214607144Y-126750000D01*
X214535715Y-126607143D01*
X214535715Y-126464286D01*
X214607144Y-126321429D01*
X214678572Y-126250000D01*
X214821430Y-126178571D01*
X215178572Y-126178571D01*
X215392858Y-126250000D01*
X216535715Y-126892857D02*
X216750001Y-126964286D01*
X216821429Y-127035714D01*
X216892858Y-127178571D01*
X216892858Y-127392857D01*
X216821429Y-127535714D01*
X216750001Y-127607143D01*
X216607143Y-127678571D01*
X216035715Y-127678571D01*
X216035715Y-126178571D01*
X216535715Y-126178571D01*
X216678572Y-126250000D01*
X216750001Y-126321429D01*
X216821429Y-126464286D01*
X216821429Y-126607143D01*
X216750001Y-126750000D01*
X216678572Y-126821429D01*
X216535715Y-126892857D01*
X216035715Y-126892857D01*
X218678572Y-127678571D02*
X218678572Y-126178571D01*
X219250000Y-126178571D01*
X219392858Y-126250000D01*
X219464286Y-126321429D01*
X219535715Y-126464286D01*
X219535715Y-126678571D01*
X219464286Y-126821429D01*
X219392858Y-126892857D01*
X219250000Y-126964286D01*
X218678572Y-126964286D01*
X220392858Y-127678571D02*
X220250000Y-127607143D01*
X220178572Y-127464286D01*
X220178572Y-126178571D01*
X221607143Y-126678571D02*
X221607143Y-127678571D01*
X220964286Y-126678571D02*
X220964286Y-127464286D01*
X221035714Y-127607143D01*
X221178572Y-127678571D01*
X221392857Y-127678571D01*
X221535714Y-127607143D01*
X221607143Y-127535714D01*
X222964286Y-126678571D02*
X222964286Y-127892857D01*
X222892857Y-128035714D01*
X222821429Y-128107143D01*
X222678572Y-128178571D01*
X222464286Y-128178571D01*
X222321429Y-128107143D01*
X222964286Y-127607143D02*
X222821429Y-127678571D01*
X222535715Y-127678571D01*
X222392857Y-127607143D01*
X222321429Y-127535714D01*
X222250000Y-127392857D01*
X222250000Y-126964286D01*
X222321429Y-126821429D01*
X222392857Y-126750000D01*
X222535715Y-126678571D01*
X222821429Y-126678571D01*
X222964286Y-126750000D01*
X213928571Y-129228571D02*
X212785714Y-129657143D01*
X213928571Y-130085714D01*
X215785714Y-129228571D02*
X214642857Y-129657143D01*
X215785714Y-130085714D01*
X217642857Y-129228571D02*
X216500000Y-129657143D01*
X217642857Y-130085714D01*
X219500000Y-129228571D02*
X218357143Y-129657143D01*
X219500000Y-130085714D01*
X221357143Y-129228571D02*
X220214286Y-129657143D01*
X221357143Y-130085714D01*
X223214286Y-129228571D02*
X222071429Y-129657143D01*
X223214286Y-130085714D01*
D14*
X181960714Y-143333333D02*
X182770238Y-143333333D01*
X182865476Y-143380952D01*
X182913095Y-143428571D01*
X182960714Y-143523810D01*
X182960714Y-143666667D01*
X182913095Y-143761905D01*
X182579762Y-143333333D02*
X182627381Y-143428571D01*
X182627381Y-143619048D01*
X182579762Y-143714286D01*
X182532143Y-143761905D01*
X182436905Y-143809524D01*
X182151190Y-143809524D01*
X182055952Y-143761905D01*
X182008333Y-143714286D01*
X181960714Y-143619048D01*
X181960714Y-143428571D01*
X182008333Y-143333333D01*
X182627381Y-142857143D02*
X181960714Y-142857143D01*
X181627381Y-142857143D02*
X181675000Y-142904762D01*
X181722619Y-142857143D01*
X181675000Y-142809524D01*
X181627381Y-142857143D01*
X181722619Y-142857143D01*
X181960714Y-142523810D02*
X181960714Y-142142858D01*
X181627381Y-142380953D02*
X182484524Y-142380953D01*
X182579762Y-142333334D01*
X182627381Y-142238096D01*
X182627381Y-142142858D01*
X182627381Y-141809524D02*
X181627381Y-141809524D01*
X182627381Y-141380952D02*
X182103571Y-141380952D01*
X182008333Y-141428571D01*
X181960714Y-141523809D01*
X181960714Y-141666667D01*
X182008333Y-141761905D01*
X182055952Y-141809524D01*
X181960714Y-140476190D02*
X182627381Y-140476190D01*
X181960714Y-140904762D02*
X182484524Y-140904762D01*
X182579762Y-140857143D01*
X182627381Y-140761905D01*
X182627381Y-140619047D01*
X182579762Y-140523809D01*
X182532143Y-140476190D01*
X182627381Y-140000000D02*
X181627381Y-140000000D01*
X182008333Y-140000000D02*
X181960714Y-139904762D01*
X181960714Y-139714285D01*
X182008333Y-139619047D01*
X182055952Y-139571428D01*
X182151190Y-139523809D01*
X182436905Y-139523809D01*
X182532143Y-139571428D01*
X182579762Y-139619047D01*
X182627381Y-139714285D01*
X182627381Y-139904762D01*
X182579762Y-140000000D01*
X182532143Y-139095238D02*
X182579762Y-139047619D01*
X182627381Y-139095238D01*
X182579762Y-139142857D01*
X182532143Y-139095238D01*
X182627381Y-139095238D01*
X182579762Y-138190476D02*
X182627381Y-138285714D01*
X182627381Y-138476191D01*
X182579762Y-138571429D01*
X182532143Y-138619048D01*
X182436905Y-138666667D01*
X182151190Y-138666667D01*
X182055952Y-138619048D01*
X182008333Y-138571429D01*
X181960714Y-138476191D01*
X181960714Y-138285714D01*
X182008333Y-138190476D01*
X182627381Y-137619048D02*
X182579762Y-137714286D01*
X182532143Y-137761905D01*
X182436905Y-137809524D01*
X182151190Y-137809524D01*
X182055952Y-137761905D01*
X182008333Y-137714286D01*
X181960714Y-137619048D01*
X181960714Y-137476190D01*
X182008333Y-137380952D01*
X182055952Y-137333333D01*
X182151190Y-137285714D01*
X182436905Y-137285714D01*
X182532143Y-137333333D01*
X182579762Y-137380952D01*
X182627381Y-137476190D01*
X182627381Y-137619048D01*
X182627381Y-136857143D02*
X181960714Y-136857143D01*
X182055952Y-136857143D02*
X182008333Y-136809524D01*
X181960714Y-136714286D01*
X181960714Y-136571428D01*
X182008333Y-136476190D01*
X182103571Y-136428571D01*
X182627381Y-136428571D01*
X182103571Y-136428571D02*
X182008333Y-136380952D01*
X181960714Y-136285714D01*
X181960714Y-136142857D01*
X182008333Y-136047619D01*
X182103571Y-136000000D01*
X182627381Y-136000000D01*
X181579762Y-134809524D02*
X182865476Y-135666667D01*
X182627381Y-134476191D02*
X181627381Y-134476191D01*
X182627381Y-133904762D02*
X182055952Y-134333334D01*
X181627381Y-133904762D02*
X182198810Y-134476191D01*
X182627381Y-133047619D02*
X182103571Y-133047619D01*
X182008333Y-133095238D01*
X181960714Y-133190476D01*
X181960714Y-133380953D01*
X182008333Y-133476191D01*
X182579762Y-133047619D02*
X182627381Y-133142857D01*
X182627381Y-133380953D01*
X182579762Y-133476191D01*
X182484524Y-133523810D01*
X182389286Y-133523810D01*
X182294048Y-133476191D01*
X182246429Y-133380953D01*
X182246429Y-133142857D01*
X182198810Y-133047619D01*
X182627381Y-132571429D02*
X181960714Y-132571429D01*
X181627381Y-132571429D02*
X181675000Y-132619048D01*
X181722619Y-132571429D01*
X181675000Y-132523810D01*
X181627381Y-132571429D01*
X181722619Y-132571429D01*
X182579762Y-132142858D02*
X182627381Y-132047620D01*
X182627381Y-131857144D01*
X182579762Y-131761905D01*
X182484524Y-131714286D01*
X182436905Y-131714286D01*
X182341667Y-131761905D01*
X182294048Y-131857144D01*
X182294048Y-132000001D01*
X182246429Y-132095239D01*
X182151190Y-132142858D01*
X182103571Y-132142858D01*
X182008333Y-132095239D01*
X181960714Y-132000001D01*
X181960714Y-131857144D01*
X182008333Y-131761905D01*
X182579762Y-130904762D02*
X182627381Y-131000000D01*
X182627381Y-131190477D01*
X182579762Y-131285715D01*
X182484524Y-131333334D01*
X182103571Y-131333334D01*
X182008333Y-131285715D01*
X181960714Y-131190477D01*
X181960714Y-131000000D01*
X182008333Y-130904762D01*
X182103571Y-130857143D01*
X182198810Y-130857143D01*
X182294048Y-131333334D01*
X182627381Y-130428572D02*
X181960714Y-130428572D01*
X182151190Y-130428572D02*
X182055952Y-130380953D01*
X182008333Y-130333334D01*
X181960714Y-130238096D01*
X181960714Y-130142857D01*
X182579762Y-129857143D02*
X182627381Y-129714286D01*
X182627381Y-129476190D01*
X182579762Y-129380952D01*
X182532143Y-129333333D01*
X182436905Y-129285714D01*
X182341667Y-129285714D01*
X182246429Y-129333333D01*
X182198810Y-129380952D01*
X182151190Y-129476190D01*
X182103571Y-129666667D01*
X182055952Y-129761905D01*
X182008333Y-129809524D01*
X181913095Y-129857143D01*
X181817857Y-129857143D01*
X181722619Y-129809524D01*
X181675000Y-129761905D01*
X181627381Y-129666667D01*
X181627381Y-129428571D01*
X181675000Y-129285714D01*
X182627381Y-128714286D02*
X182579762Y-128809524D01*
X182532143Y-128857143D01*
X182436905Y-128904762D01*
X182151190Y-128904762D01*
X182055952Y-128857143D01*
X182008333Y-128809524D01*
X181960714Y-128714286D01*
X181960714Y-128571428D01*
X182008333Y-128476190D01*
X182055952Y-128428571D01*
X182151190Y-128380952D01*
X182436905Y-128380952D01*
X182532143Y-128428571D01*
X182579762Y-128476190D01*
X182627381Y-128571428D01*
X182627381Y-128714286D01*
X181960714Y-128095238D02*
X181960714Y-127714286D01*
X182627381Y-127952381D02*
X181770238Y-127952381D01*
X181675000Y-127904762D01*
X181627381Y-127809524D01*
X181627381Y-127714286D01*
X181960714Y-127523809D02*
X181960714Y-127142857D01*
X181627381Y-127380952D02*
X182484524Y-127380952D01*
X182579762Y-127333333D01*
X182627381Y-127238095D01*
X182627381Y-127142857D01*
X181579762Y-126095237D02*
X182865476Y-126952380D01*
X183277381Y-139452381D02*
X183277381Y-139261904D01*
X183325000Y-139166666D01*
X183420238Y-139071428D01*
X183610714Y-139023809D01*
X183944048Y-139023809D01*
X184134524Y-139071428D01*
X184229762Y-139166666D01*
X184277381Y-139261904D01*
X184277381Y-139452381D01*
X184229762Y-139547619D01*
X184134524Y-139642857D01*
X183944048Y-139690476D01*
X183610714Y-139690476D01*
X183420238Y-139642857D01*
X183325000Y-139547619D01*
X183277381Y-139452381D01*
X183610714Y-138595238D02*
X184610714Y-138595238D01*
X183658333Y-138595238D02*
X183610714Y-138500000D01*
X183610714Y-138309523D01*
X183658333Y-138214285D01*
X183705952Y-138166666D01*
X183801190Y-138119047D01*
X184086905Y-138119047D01*
X184182143Y-138166666D01*
X184229762Y-138214285D01*
X184277381Y-138309523D01*
X184277381Y-138500000D01*
X184229762Y-138595238D01*
X184229762Y-137309523D02*
X184277381Y-137404761D01*
X184277381Y-137595238D01*
X184229762Y-137690476D01*
X184134524Y-137738095D01*
X183753571Y-137738095D01*
X183658333Y-137690476D01*
X183610714Y-137595238D01*
X183610714Y-137404761D01*
X183658333Y-137309523D01*
X183753571Y-137261904D01*
X183848810Y-137261904D01*
X183944048Y-137738095D01*
X183610714Y-136833333D02*
X184277381Y-136833333D01*
X183705952Y-136833333D02*
X183658333Y-136785714D01*
X183610714Y-136690476D01*
X183610714Y-136547618D01*
X183658333Y-136452380D01*
X183753571Y-136404761D01*
X184277381Y-136404761D01*
X184229762Y-135976190D02*
X184277381Y-135833333D01*
X184277381Y-135595237D01*
X184229762Y-135499999D01*
X184182143Y-135452380D01*
X184086905Y-135404761D01*
X183991667Y-135404761D01*
X183896429Y-135452380D01*
X183848810Y-135499999D01*
X183801190Y-135595237D01*
X183753571Y-135785714D01*
X183705952Y-135880952D01*
X183658333Y-135928571D01*
X183563095Y-135976190D01*
X183467857Y-135976190D01*
X183372619Y-135928571D01*
X183325000Y-135880952D01*
X183277381Y-135785714D01*
X183277381Y-135547618D01*
X183325000Y-135404761D01*
X184277381Y-134976190D02*
X183610714Y-134976190D01*
X183277381Y-134976190D02*
X183325000Y-135023809D01*
X183372619Y-134976190D01*
X183325000Y-134928571D01*
X183277381Y-134976190D01*
X183372619Y-134976190D01*
X184277381Y-134500000D02*
X183610714Y-134500000D01*
X183705952Y-134500000D02*
X183658333Y-134452381D01*
X183610714Y-134357143D01*
X183610714Y-134214285D01*
X183658333Y-134119047D01*
X183753571Y-134071428D01*
X184277381Y-134071428D01*
X183753571Y-134071428D02*
X183658333Y-134023809D01*
X183610714Y-133928571D01*
X183610714Y-133785714D01*
X183658333Y-133690476D01*
X183753571Y-133642857D01*
X184277381Y-133642857D01*
X183753571Y-132833333D02*
X183801190Y-132690476D01*
X183848810Y-132642857D01*
X183944048Y-132595238D01*
X184086905Y-132595238D01*
X184182143Y-132642857D01*
X184229762Y-132690476D01*
X184277381Y-132785714D01*
X184277381Y-133166667D01*
X183277381Y-133166667D01*
X183277381Y-132833333D01*
X183325000Y-132738095D01*
X183372619Y-132690476D01*
X183467857Y-132642857D01*
X183563095Y-132642857D01*
X183658333Y-132690476D01*
X183705952Y-132738095D01*
X183753571Y-132833333D01*
X183753571Y-133166667D01*
X183610714Y-131738095D02*
X184277381Y-131738095D01*
X183610714Y-132166667D02*
X184134524Y-132166667D01*
X184229762Y-132119048D01*
X184277381Y-132023810D01*
X184277381Y-131880952D01*
X184229762Y-131785714D01*
X184182143Y-131738095D01*
X183610714Y-131404762D02*
X183610714Y-131023810D01*
X183277381Y-131261905D02*
X184134524Y-131261905D01*
X184229762Y-131214286D01*
X184277381Y-131119048D01*
X184277381Y-131023810D01*
X183610714Y-130833333D02*
X183610714Y-130452381D01*
X183277381Y-130690476D02*
X184134524Y-130690476D01*
X184229762Y-130642857D01*
X184277381Y-130547619D01*
X184277381Y-130452381D01*
X184277381Y-129976190D02*
X184229762Y-130071428D01*
X184182143Y-130119047D01*
X184086905Y-130166666D01*
X183801190Y-130166666D01*
X183705952Y-130119047D01*
X183658333Y-130071428D01*
X183610714Y-129976190D01*
X183610714Y-129833332D01*
X183658333Y-129738094D01*
X183705952Y-129690475D01*
X183801190Y-129642856D01*
X184086905Y-129642856D01*
X184182143Y-129690475D01*
X184229762Y-129738094D01*
X184277381Y-129833332D01*
X184277381Y-129976190D01*
X183610714Y-129214285D02*
X184277381Y-129214285D01*
X183705952Y-129214285D02*
X183658333Y-129166666D01*
X183610714Y-129071428D01*
X183610714Y-128928570D01*
X183658333Y-128833332D01*
X183753571Y-128785713D01*
X184277381Y-128785713D01*
X183753571Y-127976189D02*
X183801190Y-127833332D01*
X183848810Y-127785713D01*
X183944048Y-127738094D01*
X184086905Y-127738094D01*
X184182143Y-127785713D01*
X184229762Y-127833332D01*
X184277381Y-127928570D01*
X184277381Y-128309523D01*
X183277381Y-128309523D01*
X183277381Y-127976189D01*
X183325000Y-127880951D01*
X183372619Y-127833332D01*
X183467857Y-127785713D01*
X183563095Y-127785713D01*
X183658333Y-127833332D01*
X183705952Y-127880951D01*
X183753571Y-127976189D01*
X183753571Y-128309523D01*
X184277381Y-127166666D02*
X184229762Y-127261904D01*
X184182143Y-127309523D01*
X184086905Y-127357142D01*
X183801190Y-127357142D01*
X183705952Y-127309523D01*
X183658333Y-127261904D01*
X183610714Y-127166666D01*
X183610714Y-127023808D01*
X183658333Y-126928570D01*
X183705952Y-126880951D01*
X183801190Y-126833332D01*
X184086905Y-126833332D01*
X184182143Y-126880951D01*
X184229762Y-126928570D01*
X184277381Y-127023808D01*
X184277381Y-127166666D01*
X184277381Y-126499999D02*
X183610714Y-125976189D01*
X183610714Y-126499999D02*
X184277381Y-125976189D01*
X183229762Y-124880951D02*
X184515476Y-125738094D01*
X177478181Y-143627505D02*
X176478181Y-143627505D01*
X177192467Y-143294171D01*
X176478181Y-142960838D01*
X177478181Y-142960838D01*
X177478181Y-142341791D02*
X177430562Y-142437029D01*
X177382943Y-142484648D01*
X177287705Y-142532267D01*
X177001990Y-142532267D01*
X176906752Y-142484648D01*
X176859133Y-142437029D01*
X176811514Y-142341791D01*
X176811514Y-142198933D01*
X176859133Y-142103695D01*
X176906752Y-142056076D01*
X177001990Y-142008457D01*
X177287705Y-142008457D01*
X177382943Y-142056076D01*
X177430562Y-142103695D01*
X177478181Y-142198933D01*
X177478181Y-142341791D01*
X177478181Y-141151314D02*
X176478181Y-141151314D01*
X177430562Y-141151314D02*
X177478181Y-141246552D01*
X177478181Y-141437029D01*
X177430562Y-141532267D01*
X177382943Y-141579886D01*
X177287705Y-141627505D01*
X177001990Y-141627505D01*
X176906752Y-141579886D01*
X176859133Y-141532267D01*
X176811514Y-141437029D01*
X176811514Y-141246552D01*
X176859133Y-141151314D01*
X176811514Y-140246552D02*
X177478181Y-140246552D01*
X176811514Y-140675124D02*
X177335324Y-140675124D01*
X177430562Y-140627505D01*
X177478181Y-140532267D01*
X177478181Y-140389409D01*
X177430562Y-140294171D01*
X177382943Y-140246552D01*
X177478181Y-139627505D02*
X177430562Y-139722743D01*
X177335324Y-139770362D01*
X176478181Y-139770362D01*
X177478181Y-138817980D02*
X176954371Y-138817980D01*
X176859133Y-138865599D01*
X176811514Y-138960837D01*
X176811514Y-139151314D01*
X176859133Y-139246552D01*
X177430562Y-138817980D02*
X177478181Y-138913218D01*
X177478181Y-139151314D01*
X177430562Y-139246552D01*
X177335324Y-139294171D01*
X177240086Y-139294171D01*
X177144848Y-139246552D01*
X177097229Y-139151314D01*
X177097229Y-138913218D01*
X177049610Y-138817980D01*
X177478181Y-138341790D02*
X176811514Y-138341790D01*
X177001990Y-138341790D02*
X176906752Y-138294171D01*
X176859133Y-138246552D01*
X176811514Y-138151314D01*
X176811514Y-138056075D01*
X176478181Y-136770361D02*
X176478181Y-136579884D01*
X176525800Y-136484646D01*
X176621038Y-136389408D01*
X176811514Y-136341789D01*
X177144848Y-136341789D01*
X177335324Y-136389408D01*
X177430562Y-136484646D01*
X177478181Y-136579884D01*
X177478181Y-136770361D01*
X177430562Y-136865599D01*
X177335324Y-136960837D01*
X177144848Y-137008456D01*
X176811514Y-137008456D01*
X176621038Y-136960837D01*
X176525800Y-136865599D01*
X176478181Y-136770361D01*
X176811514Y-135913218D02*
X177811514Y-135913218D01*
X176859133Y-135913218D02*
X176811514Y-135817980D01*
X176811514Y-135627503D01*
X176859133Y-135532265D01*
X176906752Y-135484646D01*
X177001990Y-135437027D01*
X177287705Y-135437027D01*
X177382943Y-135484646D01*
X177430562Y-135532265D01*
X177478181Y-135627503D01*
X177478181Y-135817980D01*
X177430562Y-135913218D01*
X177430562Y-134627503D02*
X177478181Y-134722741D01*
X177478181Y-134913218D01*
X177430562Y-135008456D01*
X177335324Y-135056075D01*
X176954371Y-135056075D01*
X176859133Y-135008456D01*
X176811514Y-134913218D01*
X176811514Y-134722741D01*
X176859133Y-134627503D01*
X176954371Y-134579884D01*
X177049610Y-134579884D01*
X177144848Y-135056075D01*
X176811514Y-134151313D02*
X177478181Y-134151313D01*
X176906752Y-134151313D02*
X176859133Y-134103694D01*
X176811514Y-134008456D01*
X176811514Y-133865598D01*
X176859133Y-133770360D01*
X176954371Y-133722741D01*
X177478181Y-133722741D01*
X176954371Y-132151312D02*
X177001990Y-132008455D01*
X177049610Y-131960836D01*
X177144848Y-131913217D01*
X177287705Y-131913217D01*
X177382943Y-131960836D01*
X177430562Y-132008455D01*
X177478181Y-132103693D01*
X177478181Y-132484646D01*
X176478181Y-132484646D01*
X176478181Y-132151312D01*
X176525800Y-132056074D01*
X176573419Y-132008455D01*
X176668657Y-131960836D01*
X176763895Y-131960836D01*
X176859133Y-132008455D01*
X176906752Y-132056074D01*
X176954371Y-132151312D01*
X176954371Y-132484646D01*
X176811514Y-131056074D02*
X177478181Y-131056074D01*
X176811514Y-131484646D02*
X177335324Y-131484646D01*
X177430562Y-131437027D01*
X177478181Y-131341789D01*
X177478181Y-131198931D01*
X177430562Y-131103693D01*
X177382943Y-131056074D01*
X176811514Y-130722741D02*
X176811514Y-130341789D01*
X176478181Y-130579884D02*
X177335324Y-130579884D01*
X177430562Y-130532265D01*
X177478181Y-130437027D01*
X177478181Y-130341789D01*
X176811514Y-130151312D02*
X176811514Y-129770360D01*
X176478181Y-130008455D02*
X177335324Y-130008455D01*
X177430562Y-129960836D01*
X177478181Y-129865598D01*
X177478181Y-129770360D01*
X177478181Y-129294169D02*
X177430562Y-129389407D01*
X177382943Y-129437026D01*
X177287705Y-129484645D01*
X177001990Y-129484645D01*
X176906752Y-129437026D01*
X176859133Y-129389407D01*
X176811514Y-129294169D01*
X176811514Y-129151311D01*
X176859133Y-129056073D01*
X176906752Y-129008454D01*
X177001990Y-128960835D01*
X177287705Y-128960835D01*
X177382943Y-129008454D01*
X177430562Y-129056073D01*
X177478181Y-129151311D01*
X177478181Y-129294169D01*
X176811514Y-128532264D02*
X177478181Y-128532264D01*
X176906752Y-128532264D02*
X176859133Y-128484645D01*
X176811514Y-128389407D01*
X176811514Y-128246549D01*
X176859133Y-128151311D01*
X176954371Y-128103692D01*
X177478181Y-128103692D01*
X176954371Y-126532263D02*
X177001990Y-126389406D01*
X177049610Y-126341787D01*
X177144848Y-126294168D01*
X177287705Y-126294168D01*
X177382943Y-126341787D01*
X177430562Y-126389406D01*
X177478181Y-126484644D01*
X177478181Y-126865597D01*
X176478181Y-126865597D01*
X176478181Y-126532263D01*
X176525800Y-126437025D01*
X176573419Y-126389406D01*
X176668657Y-126341787D01*
X176763895Y-126341787D01*
X176859133Y-126389406D01*
X176906752Y-126437025D01*
X176954371Y-126532263D01*
X176954371Y-126865597D01*
X177478181Y-125722740D02*
X177430562Y-125817978D01*
X177382943Y-125865597D01*
X177287705Y-125913216D01*
X177001990Y-125913216D01*
X176906752Y-125865597D01*
X176859133Y-125817978D01*
X176811514Y-125722740D01*
X176811514Y-125579882D01*
X176859133Y-125484644D01*
X176906752Y-125437025D01*
X177001990Y-125389406D01*
X177287705Y-125389406D01*
X177382943Y-125437025D01*
X177430562Y-125484644D01*
X177478181Y-125579882D01*
X177478181Y-125722740D01*
X177478181Y-125056073D02*
X176811514Y-124532263D01*
X176811514Y-125056073D02*
X177478181Y-124532263D01*
X177859133Y-123103691D02*
X177811514Y-123151311D01*
X177668657Y-123246549D01*
X177573419Y-123294168D01*
X177430562Y-123341787D01*
X177192467Y-123389406D01*
X177001990Y-123389406D01*
X176763895Y-123341787D01*
X176621038Y-123294168D01*
X176525800Y-123246549D01*
X176382943Y-123151311D01*
X176335324Y-123103691D01*
X177478181Y-122722739D02*
X176478181Y-122722739D01*
X177192467Y-122389405D01*
X176478181Y-122056072D01*
X177478181Y-122056072D01*
X176478181Y-121389406D02*
X176478181Y-121198929D01*
X176525800Y-121103691D01*
X176621038Y-121008453D01*
X176811514Y-120960834D01*
X177144848Y-120960834D01*
X177335324Y-121008453D01*
X177430562Y-121103691D01*
X177478181Y-121198929D01*
X177478181Y-121389406D01*
X177430562Y-121484644D01*
X177335324Y-121579882D01*
X177144848Y-121627501D01*
X176811514Y-121627501D01*
X176621038Y-121579882D01*
X176525800Y-121484644D01*
X176478181Y-121389406D01*
X176954371Y-120198929D02*
X177001990Y-120056072D01*
X177049610Y-120008453D01*
X177144848Y-119960834D01*
X177287705Y-119960834D01*
X177382943Y-120008453D01*
X177430562Y-120056072D01*
X177478181Y-120151310D01*
X177478181Y-120532263D01*
X176478181Y-120532263D01*
X176478181Y-120198929D01*
X176525800Y-120103691D01*
X176573419Y-120056072D01*
X176668657Y-120008453D01*
X176763895Y-120008453D01*
X176859133Y-120056072D01*
X176906752Y-120103691D01*
X176954371Y-120198929D01*
X176954371Y-120532263D01*
X176954371Y-119198929D02*
X177001990Y-119056072D01*
X177049610Y-119008453D01*
X177144848Y-118960834D01*
X177287705Y-118960834D01*
X177382943Y-119008453D01*
X177430562Y-119056072D01*
X177478181Y-119151310D01*
X177478181Y-119532263D01*
X176478181Y-119532263D01*
X176478181Y-119198929D01*
X176525800Y-119103691D01*
X176573419Y-119056072D01*
X176668657Y-119008453D01*
X176763895Y-119008453D01*
X176859133Y-119056072D01*
X176906752Y-119103691D01*
X176954371Y-119198929D01*
X176954371Y-119532263D01*
X177859133Y-118627501D02*
X177811514Y-118579882D01*
X177668657Y-118484644D01*
X177573419Y-118437025D01*
X177430562Y-118389406D01*
X177192467Y-118341787D01*
X177001990Y-118341787D01*
X176763895Y-118389406D01*
X176621038Y-118437025D01*
X176525800Y-118484644D01*
X176382943Y-118579882D01*
X176335324Y-118627501D01*
X179128181Y-143627505D02*
X178128181Y-143627505D01*
X178128181Y-143246552D01*
X178175800Y-143151314D01*
X178223419Y-143103695D01*
X178318657Y-143056076D01*
X178461514Y-143056076D01*
X178556752Y-143103695D01*
X178604371Y-143151314D01*
X178651990Y-143246552D01*
X178651990Y-143627505D01*
X179032943Y-142056076D02*
X179080562Y-142103695D01*
X179128181Y-142246552D01*
X179128181Y-142341790D01*
X179080562Y-142484648D01*
X178985324Y-142579886D01*
X178890086Y-142627505D01*
X178699610Y-142675124D01*
X178556752Y-142675124D01*
X178366276Y-142627505D01*
X178271038Y-142579886D01*
X178175800Y-142484648D01*
X178128181Y-142341790D01*
X178128181Y-142246552D01*
X178175800Y-142103695D01*
X178223419Y-142056076D01*
X178604371Y-141294171D02*
X178651990Y-141151314D01*
X178699610Y-141103695D01*
X178794848Y-141056076D01*
X178937705Y-141056076D01*
X179032943Y-141103695D01*
X179080562Y-141151314D01*
X179128181Y-141246552D01*
X179128181Y-141627505D01*
X178128181Y-141627505D01*
X178128181Y-141294171D01*
X178175800Y-141198933D01*
X178223419Y-141151314D01*
X178318657Y-141103695D01*
X178413895Y-141103695D01*
X178509133Y-141151314D01*
X178556752Y-141198933D01*
X178604371Y-141294171D01*
X178604371Y-141627505D01*
X179128181Y-139865600D02*
X178461514Y-139865600D01*
X178651990Y-139865600D02*
X178556752Y-139817981D01*
X178509133Y-139770362D01*
X178461514Y-139675124D01*
X178461514Y-139579885D01*
X179080562Y-138865599D02*
X179128181Y-138960837D01*
X179128181Y-139151314D01*
X179080562Y-139246552D01*
X178985324Y-139294171D01*
X178604371Y-139294171D01*
X178509133Y-139246552D01*
X178461514Y-139151314D01*
X178461514Y-138960837D01*
X178509133Y-138865599D01*
X178604371Y-138817980D01*
X178699610Y-138817980D01*
X178794848Y-139294171D01*
X178461514Y-138484647D02*
X179128181Y-138246552D01*
X178461514Y-138008456D01*
X179128181Y-136341789D02*
X179128181Y-136913218D01*
X179128181Y-136627504D02*
X178128181Y-136627504D01*
X178271038Y-136722742D01*
X178366276Y-136817980D01*
X178413895Y-136913218D01*
X179032943Y-135913218D02*
X179080562Y-135865599D01*
X179128181Y-135913218D01*
X179080562Y-135960837D01*
X179032943Y-135913218D01*
X179128181Y-135913218D01*
X178128181Y-135246552D02*
X178128181Y-135151313D01*
X178175800Y-135056075D01*
X178223419Y-135008456D01*
X178318657Y-134960837D01*
X178509133Y-134913218D01*
X178747229Y-134913218D01*
X178937705Y-134960837D01*
X179032943Y-135008456D01*
X179080562Y-135056075D01*
X179128181Y-135151313D01*
X179128181Y-135246552D01*
X179080562Y-135341790D01*
X179032943Y-135389409D01*
X178937705Y-135437028D01*
X178747229Y-135484647D01*
X178509133Y-135484647D01*
X178318657Y-135437028D01*
X178223419Y-135389409D01*
X178175800Y-135341790D01*
X178128181Y-135246552D01*
X208405000Y-134765000D02*
X209675000Y-134765000D01*
X208405000Y-119795000D02*
X209675000Y-119795000D01*
X246015000Y-119795000D02*
X244745000Y-119795000D01*
X246015000Y-134765000D02*
X244745000Y-134765000D01*
X208405000Y-134765000D02*
X208405000Y-119795000D01*
X246015000Y-134765000D02*
X246015000Y-119795000D01*
X209675000Y-134765000D02*
X209675000Y-136050000D01*
X179346000Y-100076000D02*
X179346000Y-100584000D01*
X179854000Y-100076000D02*
X179854000Y-100584000D01*
X181886000Y-100076000D02*
X181886000Y-100584000D01*
X182394000Y-100076000D02*
X182394000Y-100584000D01*
X187474000Y-100076000D02*
X187474000Y-100584000D01*
X186966000Y-100076000D02*
X186966000Y-100584000D01*
X184934000Y-100076000D02*
X184934000Y-100584000D01*
X184426000Y-100076000D02*
X184426000Y-100584000D01*
X204746000Y-100076000D02*
X204746000Y-100584000D01*
X205254000Y-100076000D02*
X205254000Y-100584000D01*
X207286000Y-100076000D02*
X207286000Y-100584000D01*
X207794000Y-100076000D02*
X207794000Y-100584000D01*
X202714000Y-100076000D02*
X202714000Y-100584000D01*
X202206000Y-100076000D02*
X202206000Y-100584000D01*
X200174000Y-100076000D02*
X200174000Y-100584000D01*
X199666000Y-100076000D02*
X199666000Y-100584000D01*
X189506000Y-100076000D02*
X189506000Y-100584000D01*
X190014000Y-100076000D02*
X190014000Y-100584000D01*
X192046000Y-100076000D02*
X192046000Y-100584000D01*
X192554000Y-100076000D02*
X192554000Y-100584000D01*
X197634000Y-100076000D02*
X197634000Y-100584000D01*
X197126000Y-100076000D02*
X197126000Y-100584000D01*
X195094000Y-100076000D02*
X195094000Y-100584000D01*
X194586000Y-100076000D02*
X194586000Y-100584000D01*
X235226000Y-100076000D02*
X235226000Y-100584000D01*
X235734000Y-100076000D02*
X235734000Y-100584000D01*
X237766000Y-100076000D02*
X237766000Y-100584000D01*
X238274000Y-100076000D02*
X238274000Y-100584000D01*
X233194000Y-100076000D02*
X233194000Y-100584000D01*
X232686000Y-100076000D02*
X232686000Y-100584000D01*
X230654000Y-100076000D02*
X230654000Y-100584000D01*
X230146000Y-100076000D02*
X230146000Y-100584000D01*
X240306000Y-100076000D02*
X240306000Y-100584000D01*
X240814000Y-100076000D02*
X240814000Y-100584000D01*
X242846000Y-100076000D02*
X242846000Y-100584000D01*
X243354000Y-100076000D02*
X243354000Y-100584000D01*
X248434000Y-100076000D02*
X248434000Y-100584000D01*
X247926000Y-100076000D02*
X247926000Y-100584000D01*
X245894000Y-100076000D02*
X245894000Y-100584000D01*
X245386000Y-100076000D02*
X245386000Y-100584000D01*
X225066000Y-100076000D02*
X225066000Y-100584000D01*
X225574000Y-100076000D02*
X225574000Y-100584000D01*
X227606000Y-100076000D02*
X227606000Y-100584000D01*
X228114000Y-100076000D02*
X228114000Y-100584000D01*
X223034000Y-100076000D02*
X223034000Y-100584000D01*
X222526000Y-100076000D02*
X222526000Y-100584000D01*
X220494000Y-100076000D02*
X220494000Y-100584000D01*
X219986000Y-100076000D02*
X219986000Y-100584000D01*
X209826000Y-100076000D02*
X209826000Y-100584000D01*
X210334000Y-100076000D02*
X210334000Y-100584000D01*
X212366000Y-100076000D02*
X212366000Y-100584000D01*
X212874000Y-100076000D02*
X212874000Y-100584000D01*
X217954000Y-100076000D02*
X217954000Y-100584000D01*
X217446000Y-100076000D02*
X217446000Y-100584000D01*
X215414000Y-100076000D02*
X215414000Y-100584000D01*
X214906000Y-100076000D02*
X214906000Y-100584000D01*
X250466000Y-100076000D02*
X250466000Y-100584000D01*
X250974000Y-100076000D02*
X250974000Y-100584000D01*
X253006000Y-100076000D02*
X253006000Y-100584000D01*
X253514000Y-100076000D02*
X253514000Y-100584000D01*
X258594000Y-100076000D02*
X258594000Y-100584000D01*
X258086000Y-100076000D02*
X258086000Y-100584000D01*
X256054000Y-100076000D02*
X256054000Y-100584000D01*
X255546000Y-100076000D02*
X255546000Y-100584000D01*
X225066000Y-97536000D02*
X225066000Y-98044000D01*
X225574000Y-97536000D02*
X225574000Y-98044000D01*
X227606000Y-97536000D02*
X227606000Y-98044000D01*
X228114000Y-97536000D02*
X228114000Y-98044000D01*
X223034000Y-97536000D02*
X223034000Y-98044000D01*
X222526000Y-97536000D02*
X222526000Y-98044000D01*
X220494000Y-97536000D02*
X220494000Y-98044000D01*
X219986000Y-97536000D02*
X219986000Y-98044000D01*
X230146000Y-97536000D02*
X230146000Y-98044000D01*
X230654000Y-97536000D02*
X230654000Y-98044000D01*
X232686000Y-97536000D02*
X232686000Y-98044000D01*
X233194000Y-97536000D02*
X233194000Y-98044000D01*
X238274000Y-97536000D02*
X238274000Y-98044000D01*
X237766000Y-97536000D02*
X237766000Y-98044000D01*
X235734000Y-97536000D02*
X235734000Y-98044000D01*
X235226000Y-97536000D02*
X235226000Y-98044000D01*
X255546000Y-97536000D02*
X255546000Y-98044000D01*
X256054000Y-97536000D02*
X256054000Y-98044000D01*
X258086000Y-97536000D02*
X258086000Y-98044000D01*
X258594000Y-97536000D02*
X258594000Y-98044000D01*
X253514000Y-97536000D02*
X253514000Y-98044000D01*
X253006000Y-97536000D02*
X253006000Y-98044000D01*
X250974000Y-97536000D02*
X250974000Y-98044000D01*
X250466000Y-97536000D02*
X250466000Y-98044000D01*
X240306000Y-97536000D02*
X240306000Y-98044000D01*
X240814000Y-97536000D02*
X240814000Y-98044000D01*
X242846000Y-97536000D02*
X242846000Y-98044000D01*
X243354000Y-97536000D02*
X243354000Y-98044000D01*
X248434000Y-97536000D02*
X248434000Y-98044000D01*
X247926000Y-97536000D02*
X247926000Y-98044000D01*
X245894000Y-97536000D02*
X245894000Y-98044000D01*
X245386000Y-97536000D02*
X245386000Y-98044000D01*
X204746000Y-97536000D02*
X204746000Y-98044000D01*
X205254000Y-97536000D02*
X205254000Y-98044000D01*
X207286000Y-97536000D02*
X207286000Y-98044000D01*
X207794000Y-97536000D02*
X207794000Y-98044000D01*
X202714000Y-97536000D02*
X202714000Y-98044000D01*
X202206000Y-97536000D02*
X202206000Y-98044000D01*
X200174000Y-97536000D02*
X200174000Y-98044000D01*
X199666000Y-97536000D02*
X199666000Y-98044000D01*
X209826000Y-97536000D02*
X209826000Y-98044000D01*
X210334000Y-97536000D02*
X210334000Y-98044000D01*
X212366000Y-97536000D02*
X212366000Y-98044000D01*
X212874000Y-97536000D02*
X212874000Y-98044000D01*
X217954000Y-97536000D02*
X217954000Y-98044000D01*
X217446000Y-97536000D02*
X217446000Y-98044000D01*
X215414000Y-97536000D02*
X215414000Y-98044000D01*
X214906000Y-97536000D02*
X214906000Y-98044000D01*
X194586000Y-97536000D02*
X194586000Y-98044000D01*
X195094000Y-97536000D02*
X195094000Y-98044000D01*
X197126000Y-97536000D02*
X197126000Y-98044000D01*
X197634000Y-97536000D02*
X197634000Y-98044000D01*
X192554000Y-97536000D02*
X192554000Y-98044000D01*
X192046000Y-97536000D02*
X192046000Y-98044000D01*
X190014000Y-97536000D02*
X190014000Y-98044000D01*
X189506000Y-97536000D02*
X189506000Y-98044000D01*
X179346000Y-97536000D02*
X179346000Y-98044000D01*
X179854000Y-97536000D02*
X179854000Y-98044000D01*
X181886000Y-97536000D02*
X181886000Y-98044000D01*
X182394000Y-97536000D02*
X182394000Y-98044000D01*
X187474000Y-97536000D02*
X187474000Y-98044000D01*
X186966000Y-97536000D02*
X186966000Y-98044000D01*
X184934000Y-97536000D02*
X184934000Y-98044000D01*
X184426000Y-97536000D02*
X184426000Y-98044000D01*
X178050000Y-101600000D02*
X178050000Y-102750000D01*
X178050000Y-102750000D02*
X179600000Y-102750000D01*
X179473000Y-94996000D02*
X179473000Y-89027000D01*
X179473000Y-89027000D02*
X179727000Y-89027000D01*
X179727000Y-89027000D02*
X179727000Y-94869000D01*
X179727000Y-94869000D02*
X179600000Y-94869000D01*
X179600000Y-94869000D02*
X179600000Y-89027000D01*
X218970000Y-97536000D02*
X218970000Y-94996000D01*
X218970000Y-97536000D02*
X221510000Y-97536000D01*
X221510000Y-97536000D02*
X221510000Y-94996000D01*
X219986000Y-94996000D02*
X219986000Y-88900000D01*
X219986000Y-88900000D02*
X220494000Y-88900000D01*
X220494000Y-88900000D02*
X220494000Y-94996000D01*
X221510000Y-94996000D02*
X218970000Y-94996000D01*
X224050000Y-94996000D02*
X221510000Y-94996000D01*
X223034000Y-88900000D02*
X223034000Y-94996000D01*
X222526000Y-88900000D02*
X223034000Y-88900000D01*
X222526000Y-94996000D02*
X222526000Y-88900000D01*
X224050000Y-97536000D02*
X224050000Y-94996000D01*
X221510000Y-97536000D02*
X224050000Y-97536000D01*
X221510000Y-97536000D02*
X221510000Y-94996000D01*
X226590000Y-97536000D02*
X226590000Y-94996000D01*
X226590000Y-97536000D02*
X229130000Y-97536000D01*
X229130000Y-97536000D02*
X229130000Y-94996000D01*
X227606000Y-94996000D02*
X227606000Y-88900000D01*
X227606000Y-88900000D02*
X228114000Y-88900000D01*
X228114000Y-88900000D02*
X228114000Y-94996000D01*
X229130000Y-94996000D02*
X226590000Y-94996000D01*
X226590000Y-94996000D02*
X224050000Y-94996000D01*
X225574000Y-88900000D02*
X225574000Y-94996000D01*
X225066000Y-88900000D02*
X225574000Y-88900000D01*
X225066000Y-94996000D02*
X225066000Y-88900000D01*
X226590000Y-97536000D02*
X226590000Y-94996000D01*
X224050000Y-97536000D02*
X226590000Y-97536000D01*
X224050000Y-97536000D02*
X224050000Y-94996000D01*
X234210000Y-97536000D02*
X234210000Y-94996000D01*
X234210000Y-97536000D02*
X236750000Y-97536000D01*
X236750000Y-97536000D02*
X236750000Y-94996000D01*
X235226000Y-94996000D02*
X235226000Y-88900000D01*
X235226000Y-88900000D02*
X235734000Y-88900000D01*
X235734000Y-88900000D02*
X235734000Y-94996000D01*
X236750000Y-94996000D02*
X234210000Y-94996000D01*
X239290000Y-94996000D02*
X236750000Y-94996000D01*
X238274000Y-88900000D02*
X238274000Y-94996000D01*
X237766000Y-88900000D02*
X238274000Y-88900000D01*
X237766000Y-94996000D02*
X237766000Y-88900000D01*
X239290000Y-97536000D02*
X239290000Y-94996000D01*
X236750000Y-97536000D02*
X239290000Y-97536000D01*
X236750000Y-97536000D02*
X236750000Y-94996000D01*
X231670000Y-97536000D02*
X231670000Y-94996000D01*
X231670000Y-97536000D02*
X234210000Y-97536000D01*
X234210000Y-97536000D02*
X234210000Y-94996000D01*
X232686000Y-94996000D02*
X232686000Y-88900000D01*
X232686000Y-88900000D02*
X233194000Y-88900000D01*
X233194000Y-88900000D02*
X233194000Y-94996000D01*
X234210000Y-94996000D02*
X231670000Y-94996000D01*
X231670000Y-94996000D02*
X229130000Y-94996000D01*
X230654000Y-88900000D02*
X230654000Y-94996000D01*
X230146000Y-88900000D02*
X230654000Y-88900000D01*
X230146000Y-94996000D02*
X230146000Y-88900000D01*
X231670000Y-97536000D02*
X231670000Y-94996000D01*
X229130000Y-97536000D02*
X231670000Y-97536000D01*
X229130000Y-97536000D02*
X229130000Y-94996000D01*
X249450000Y-97536000D02*
X249450000Y-94996000D01*
X249450000Y-97536000D02*
X251990000Y-97536000D01*
X251990000Y-97536000D02*
X251990000Y-94996000D01*
X250466000Y-94996000D02*
X250466000Y-88900000D01*
X250466000Y-88900000D02*
X250974000Y-88900000D01*
X250974000Y-88900000D02*
X250974000Y-94996000D01*
X251990000Y-94996000D02*
X249450000Y-94996000D01*
X254530000Y-94996000D02*
X251990000Y-94996000D01*
X253514000Y-88900000D02*
X253514000Y-94996000D01*
X253006000Y-88900000D02*
X253514000Y-88900000D01*
X253006000Y-94996000D02*
X253006000Y-88900000D01*
X254530000Y-97536000D02*
X254530000Y-94996000D01*
X251990000Y-97536000D02*
X254530000Y-97536000D01*
X251990000Y-97536000D02*
X251990000Y-94996000D01*
X257070000Y-97536000D02*
X257070000Y-94996000D01*
X257070000Y-97536000D02*
X259610000Y-97536000D01*
X259610000Y-97536000D02*
X259610000Y-94996000D01*
X258086000Y-94996000D02*
X258086000Y-88900000D01*
X258086000Y-88900000D02*
X258594000Y-88900000D01*
X258594000Y-88900000D02*
X258594000Y-94996000D01*
X259610000Y-94996000D02*
X257070000Y-94996000D01*
X257070000Y-94996000D02*
X254530000Y-94996000D01*
X256054000Y-88900000D02*
X256054000Y-94996000D01*
X255546000Y-88900000D02*
X256054000Y-88900000D01*
X255546000Y-94996000D02*
X255546000Y-88900000D01*
X257070000Y-97536000D02*
X257070000Y-94996000D01*
X254530000Y-97536000D02*
X257070000Y-97536000D01*
X254530000Y-97536000D02*
X254530000Y-94996000D01*
X244370000Y-97536000D02*
X244370000Y-94996000D01*
X244370000Y-97536000D02*
X246910000Y-97536000D01*
X246910000Y-97536000D02*
X246910000Y-94996000D01*
X245386000Y-94996000D02*
X245386000Y-88900000D01*
X245386000Y-88900000D02*
X245894000Y-88900000D01*
X245894000Y-88900000D02*
X245894000Y-94996000D01*
X246910000Y-94996000D02*
X244370000Y-94996000D01*
X249450000Y-94996000D02*
X246910000Y-94996000D01*
X248434000Y-88900000D02*
X248434000Y-94996000D01*
X247926000Y-88900000D02*
X248434000Y-88900000D01*
X247926000Y-94996000D02*
X247926000Y-88900000D01*
X249450000Y-97536000D02*
X249450000Y-94996000D01*
X246910000Y-97536000D02*
X249450000Y-97536000D01*
X246910000Y-97536000D02*
X246910000Y-94996000D01*
X241830000Y-97536000D02*
X241830000Y-94996000D01*
X241830000Y-97536000D02*
X244370000Y-97536000D01*
X244370000Y-97536000D02*
X244370000Y-94996000D01*
X242846000Y-94996000D02*
X242846000Y-88900000D01*
X242846000Y-88900000D02*
X243354000Y-88900000D01*
X243354000Y-88900000D02*
X243354000Y-94996000D01*
X244370000Y-94996000D02*
X241830000Y-94996000D01*
X241830000Y-94996000D02*
X239290000Y-94996000D01*
X240814000Y-88900000D02*
X240814000Y-94996000D01*
X240306000Y-88900000D02*
X240814000Y-88900000D01*
X240306000Y-94996000D02*
X240306000Y-88900000D01*
X241830000Y-97536000D02*
X241830000Y-94996000D01*
X239290000Y-97536000D02*
X241830000Y-97536000D01*
X239290000Y-97536000D02*
X239290000Y-94996000D01*
X198650000Y-97536000D02*
X198650000Y-94996000D01*
X198650000Y-97536000D02*
X201190000Y-97536000D01*
X201190000Y-97536000D02*
X201190000Y-94996000D01*
X199666000Y-94996000D02*
X199666000Y-88900000D01*
X199666000Y-88900000D02*
X200174000Y-88900000D01*
X200174000Y-88900000D02*
X200174000Y-94996000D01*
X201190000Y-94996000D02*
X198650000Y-94996000D01*
X203730000Y-94996000D02*
X201190000Y-94996000D01*
X202714000Y-88900000D02*
X202714000Y-94996000D01*
X202206000Y-88900000D02*
X202714000Y-88900000D01*
X202206000Y-94996000D02*
X202206000Y-88900000D01*
X203730000Y-97536000D02*
X203730000Y-94996000D01*
X201190000Y-97536000D02*
X203730000Y-97536000D01*
X201190000Y-97536000D02*
X201190000Y-94996000D01*
X206270000Y-97536000D02*
X206270000Y-94996000D01*
X206270000Y-97536000D02*
X208810000Y-97536000D01*
X208810000Y-97536000D02*
X208810000Y-94996000D01*
X207286000Y-94996000D02*
X207286000Y-88900000D01*
X207286000Y-88900000D02*
X207794000Y-88900000D01*
X207794000Y-88900000D02*
X207794000Y-94996000D01*
X208810000Y-94996000D02*
X206270000Y-94996000D01*
X206270000Y-94996000D02*
X203730000Y-94996000D01*
X205254000Y-88900000D02*
X205254000Y-94996000D01*
X204746000Y-88900000D02*
X205254000Y-88900000D01*
X204746000Y-94996000D02*
X204746000Y-88900000D01*
X206270000Y-97536000D02*
X206270000Y-94996000D01*
X203730000Y-97536000D02*
X206270000Y-97536000D01*
X203730000Y-97536000D02*
X203730000Y-94996000D01*
X213890000Y-97536000D02*
X213890000Y-94996000D01*
X213890000Y-97536000D02*
X216430000Y-97536000D01*
X216430000Y-97536000D02*
X216430000Y-94996000D01*
X214906000Y-94996000D02*
X214906000Y-88900000D01*
X214906000Y-88900000D02*
X215414000Y-88900000D01*
X215414000Y-88900000D02*
X215414000Y-94996000D01*
X216430000Y-94996000D02*
X213890000Y-94996000D01*
X218970000Y-94996000D02*
X216430000Y-94996000D01*
X217954000Y-88900000D02*
X217954000Y-94996000D01*
X217446000Y-88900000D02*
X217954000Y-88900000D01*
X217446000Y-94996000D02*
X217446000Y-88900000D01*
X218970000Y-97536000D02*
X218970000Y-94996000D01*
X216430000Y-97536000D02*
X218970000Y-97536000D01*
X216430000Y-97536000D02*
X216430000Y-94996000D01*
X211350000Y-97536000D02*
X211350000Y-94996000D01*
X211350000Y-97536000D02*
X213890000Y-97536000D01*
X213890000Y-97536000D02*
X213890000Y-94996000D01*
X212366000Y-94996000D02*
X212366000Y-88900000D01*
X212366000Y-88900000D02*
X212874000Y-88900000D01*
X212874000Y-88900000D02*
X212874000Y-94996000D01*
X213890000Y-94996000D02*
X211350000Y-94996000D01*
X211350000Y-94996000D02*
X208810000Y-94996000D01*
X210334000Y-88900000D02*
X210334000Y-94996000D01*
X209826000Y-88900000D02*
X210334000Y-88900000D01*
X209826000Y-94996000D02*
X209826000Y-88900000D01*
X211350000Y-97536000D02*
X211350000Y-94996000D01*
X208810000Y-97536000D02*
X211350000Y-97536000D01*
X208810000Y-97536000D02*
X208810000Y-94996000D01*
X188490000Y-97536000D02*
X188490000Y-94996000D01*
X188490000Y-97536000D02*
X191030000Y-97536000D01*
X191030000Y-97536000D02*
X191030000Y-94996000D01*
X189506000Y-94996000D02*
X189506000Y-88900000D01*
X189506000Y-88900000D02*
X190014000Y-88900000D01*
X190014000Y-88900000D02*
X190014000Y-94996000D01*
X191030000Y-94996000D02*
X188490000Y-94996000D01*
X193570000Y-94996000D02*
X191030000Y-94996000D01*
X192554000Y-88900000D02*
X192554000Y-94996000D01*
X192046000Y-88900000D02*
X192554000Y-88900000D01*
X192046000Y-94996000D02*
X192046000Y-88900000D01*
X193570000Y-97536000D02*
X193570000Y-94996000D01*
X191030000Y-97536000D02*
X193570000Y-97536000D01*
X191030000Y-97536000D02*
X191030000Y-94996000D01*
X196110000Y-97536000D02*
X196110000Y-94996000D01*
X196110000Y-97536000D02*
X198650000Y-97536000D01*
X198650000Y-97536000D02*
X198650000Y-94996000D01*
X197126000Y-94996000D02*
X197126000Y-88900000D01*
X197126000Y-88900000D02*
X197634000Y-88900000D01*
X197634000Y-88900000D02*
X197634000Y-94996000D01*
X198650000Y-94996000D02*
X196110000Y-94996000D01*
X196110000Y-94996000D02*
X193570000Y-94996000D01*
X195094000Y-88900000D02*
X195094000Y-94996000D01*
X194586000Y-88900000D02*
X195094000Y-88900000D01*
X194586000Y-94996000D02*
X194586000Y-88900000D01*
X196110000Y-97536000D02*
X196110000Y-94996000D01*
X193570000Y-97536000D02*
X196110000Y-97536000D01*
X193570000Y-97536000D02*
X193570000Y-94996000D01*
X183410000Y-97536000D02*
X183410000Y-94996000D01*
X183410000Y-97536000D02*
X185950000Y-97536000D01*
X185950000Y-97536000D02*
X185950000Y-94996000D01*
X184426000Y-94996000D02*
X184426000Y-88900000D01*
X184426000Y-88900000D02*
X184934000Y-88900000D01*
X184934000Y-88900000D02*
X184934000Y-94996000D01*
X185950000Y-94996000D02*
X183410000Y-94996000D01*
X188490000Y-94996000D02*
X185950000Y-94996000D01*
X187474000Y-88900000D02*
X187474000Y-94996000D01*
X186966000Y-88900000D02*
X187474000Y-88900000D01*
X186966000Y-94996000D02*
X186966000Y-88900000D01*
X188490000Y-97536000D02*
X188490000Y-94996000D01*
X185950000Y-97536000D02*
X188490000Y-97536000D01*
X185950000Y-97536000D02*
X185950000Y-94996000D01*
X180870000Y-97536000D02*
X180870000Y-94996000D01*
X180870000Y-97536000D02*
X183410000Y-97536000D01*
X183410000Y-97536000D02*
X183410000Y-94996000D01*
X181886000Y-94996000D02*
X181886000Y-88900000D01*
X181886000Y-88900000D02*
X182394000Y-88900000D01*
X182394000Y-88900000D02*
X182394000Y-94996000D01*
X183410000Y-94996000D02*
X180870000Y-94996000D01*
X180870000Y-94996000D02*
X178330000Y-94996000D01*
X179854000Y-88900000D02*
X179854000Y-94996000D01*
X179346000Y-88900000D02*
X179854000Y-88900000D01*
X179346000Y-94996000D02*
X179346000Y-88900000D01*
X180870000Y-97536000D02*
X180870000Y-94996000D01*
X178330000Y-97536000D02*
X180870000Y-97536000D01*
X178330000Y-97536000D02*
X178330000Y-94996000D01*
X205766000Y-139416000D02*
X204216000Y-139416000D01*
X205766000Y-140716000D02*
X205766000Y-139416000D01*
X204343000Y-144907000D02*
X204343000Y-150749000D01*
X204343000Y-150749000D02*
X204089000Y-150749000D01*
X204089000Y-150749000D02*
X204089000Y-144907000D01*
X204089000Y-144907000D02*
X204216000Y-144907000D01*
X204216000Y-144907000D02*
X204216000Y-150749000D01*
X204470000Y-142240000D02*
X204470000Y-141859000D01*
X203962000Y-142240000D02*
X203962000Y-141859000D01*
X201930000Y-142240000D02*
X201930000Y-141859000D01*
X201422000Y-142240000D02*
X201422000Y-141859000D01*
X205486000Y-142240000D02*
X205486000Y-144780000D01*
X202946000Y-142240000D02*
X202946000Y-144780000D01*
X202946000Y-142240000D02*
X200406000Y-142240000D01*
X200406000Y-142240000D02*
X200406000Y-144780000D01*
X201930000Y-144780000D02*
X201930000Y-150876000D01*
X201930000Y-150876000D02*
X201422000Y-150876000D01*
X201422000Y-150876000D02*
X201422000Y-144780000D01*
X200406000Y-144780000D02*
X202946000Y-144780000D01*
X202946000Y-144780000D02*
X205486000Y-144780000D01*
X203962000Y-150876000D02*
X203962000Y-144780000D01*
X204470000Y-150876000D02*
X203962000Y-150876000D01*
X204470000Y-144780000D02*
X204470000Y-150876000D01*
X202946000Y-142240000D02*
X202946000Y-144780000D01*
X205486000Y-142240000D02*
X202946000Y-142240000D01*
X243866000Y-139416000D02*
X242316000Y-139416000D01*
X243866000Y-140716000D02*
X243866000Y-139416000D01*
X242443000Y-144907000D02*
X242443000Y-150749000D01*
X242443000Y-150749000D02*
X242189000Y-150749000D01*
X242189000Y-150749000D02*
X242189000Y-144907000D01*
X242189000Y-144907000D02*
X242316000Y-144907000D01*
X242316000Y-144907000D02*
X242316000Y-150749000D01*
X242570000Y-142240000D02*
X242570000Y-141859000D01*
X242062000Y-142240000D02*
X242062000Y-141859000D01*
X240030000Y-142240000D02*
X240030000Y-141859000D01*
X239522000Y-142240000D02*
X239522000Y-141859000D01*
X237490000Y-142240000D02*
X237490000Y-141859000D01*
X236982000Y-142240000D02*
X236982000Y-141859000D01*
X229362000Y-142240000D02*
X229362000Y-141859000D01*
X229870000Y-142240000D02*
X229870000Y-141859000D01*
X231902000Y-142240000D02*
X231902000Y-141859000D01*
X232410000Y-142240000D02*
X232410000Y-141859000D01*
X234442000Y-142240000D02*
X234442000Y-141859000D01*
X234950000Y-142240000D02*
X234950000Y-141859000D01*
X243586000Y-142240000D02*
X243586000Y-144780000D01*
X241046000Y-142240000D02*
X241046000Y-144780000D01*
X241046000Y-142240000D02*
X238506000Y-142240000D01*
X238506000Y-142240000D02*
X238506000Y-144780000D01*
X240030000Y-144780000D02*
X240030000Y-150876000D01*
X240030000Y-150876000D02*
X239522000Y-150876000D01*
X239522000Y-150876000D02*
X239522000Y-144780000D01*
X238506000Y-144780000D02*
X241046000Y-144780000D01*
X241046000Y-144780000D02*
X243586000Y-144780000D01*
X242062000Y-150876000D02*
X242062000Y-144780000D01*
X242570000Y-150876000D02*
X242062000Y-150876000D01*
X242570000Y-144780000D02*
X242570000Y-150876000D01*
X241046000Y-142240000D02*
X241046000Y-144780000D01*
X243586000Y-142240000D02*
X241046000Y-142240000D01*
X233426000Y-142240000D02*
X233426000Y-144780000D01*
X233426000Y-142240000D02*
X230886000Y-142240000D01*
X230886000Y-142240000D02*
X230886000Y-144780000D01*
X232410000Y-144780000D02*
X232410000Y-150876000D01*
X232410000Y-150876000D02*
X231902000Y-150876000D01*
X231902000Y-150876000D02*
X231902000Y-144780000D01*
X230886000Y-144780000D02*
X233426000Y-144780000D01*
X228346000Y-144780000D02*
X230886000Y-144780000D01*
X229362000Y-150876000D02*
X229362000Y-144780000D01*
X229870000Y-150876000D02*
X229362000Y-150876000D01*
X229870000Y-144780000D02*
X229870000Y-150876000D01*
X228346000Y-142240000D02*
X228346000Y-144780000D01*
X230886000Y-142240000D02*
X228346000Y-142240000D01*
X230886000Y-142240000D02*
X230886000Y-144780000D01*
X235966000Y-142240000D02*
X235966000Y-144780000D01*
X235966000Y-142240000D02*
X233426000Y-142240000D01*
X233426000Y-142240000D02*
X233426000Y-144780000D01*
X234950000Y-144780000D02*
X234950000Y-150876000D01*
X234950000Y-150876000D02*
X234442000Y-150876000D01*
X234442000Y-150876000D02*
X234442000Y-144780000D01*
X233426000Y-144780000D02*
X235966000Y-144780000D01*
X235966000Y-144780000D02*
X238506000Y-144780000D01*
X236982000Y-150876000D02*
X236982000Y-144780000D01*
X237490000Y-150876000D02*
X236982000Y-150876000D01*
X237490000Y-144780000D02*
X237490000Y-150876000D01*
X235966000Y-142240000D02*
X235966000Y-144780000D01*
X238506000Y-142240000D02*
X235966000Y-142240000D01*
X238506000Y-142240000D02*
X238506000Y-144780000D01*
X209066000Y-139724000D02*
X209066000Y-139216000D01*
X209574000Y-139724000D02*
X209574000Y-139216000D01*
X211606000Y-139724000D02*
X211606000Y-139216000D01*
X212114000Y-139724000D02*
X212114000Y-139216000D01*
X214146000Y-139724000D02*
X214146000Y-139216000D01*
X214654000Y-139724000D02*
X214654000Y-139216000D01*
X212114000Y-142264000D02*
X212114000Y-141756000D01*
X211606000Y-142264000D02*
X211606000Y-141756000D01*
X209574000Y-142264000D02*
X209574000Y-141756000D01*
X209066000Y-142264000D02*
X209066000Y-141756000D01*
X214654000Y-142264000D02*
X214654000Y-141756000D01*
X214146000Y-142264000D02*
X214146000Y-141756000D01*
X215950000Y-138200000D02*
X215950000Y-137050000D01*
X215950000Y-137050000D02*
X214400000Y-137050000D01*
X214527000Y-144804000D02*
X214527000Y-150773000D01*
X214527000Y-150773000D02*
X214273000Y-150773000D01*
X214273000Y-150773000D02*
X214273000Y-144931000D01*
X214273000Y-144931000D02*
X214400000Y-144931000D01*
X214400000Y-144931000D02*
X214400000Y-150773000D01*
X213130000Y-142264000D02*
X210590000Y-142264000D01*
X210590000Y-142264000D02*
X210590000Y-144804000D01*
X212114000Y-144804000D02*
X212114000Y-150900000D01*
X212114000Y-150900000D02*
X211606000Y-150900000D01*
X211606000Y-150900000D02*
X211606000Y-144804000D01*
X210590000Y-144804000D02*
X213130000Y-144804000D01*
X208050000Y-142264000D02*
X208050000Y-144804000D01*
X208050000Y-144804000D02*
X210590000Y-144804000D01*
X209066000Y-150900000D02*
X209066000Y-144804000D01*
X209574000Y-150900000D02*
X209066000Y-150900000D01*
X209574000Y-144804000D02*
X209574000Y-150900000D01*
X208050000Y-142264000D02*
X208050000Y-144804000D01*
X210590000Y-142264000D02*
X208050000Y-142264000D01*
X210590000Y-142264000D02*
X210590000Y-144804000D01*
X213130000Y-142264000D02*
X213130000Y-144804000D01*
X213130000Y-144804000D02*
X215670000Y-144804000D01*
X214146000Y-150900000D02*
X214146000Y-144804000D01*
X214654000Y-150900000D02*
X214146000Y-150900000D01*
X214654000Y-144804000D02*
X214654000Y-150900000D01*
X213130000Y-142264000D02*
X213130000Y-144804000D01*
X215670000Y-142264000D02*
X213130000Y-142264000D01*
X215670000Y-142264000D02*
X215670000Y-144804000D01*
X201400000Y-125400000D02*
X201400000Y-126950000D01*
X198300000Y-126950000D02*
X198300000Y-125400000D01*
X198300000Y-125400000D02*
X201400000Y-125400000D01*
X198580000Y-128220000D02*
X201120000Y-128220000D01*
X219202000Y-139700000D02*
X219202000Y-139192000D01*
X219710000Y-139700000D02*
X219710000Y-139192000D01*
X221742000Y-139700000D02*
X221742000Y-139192000D01*
X222250000Y-139700000D02*
X222250000Y-139192000D01*
X224282000Y-139700000D02*
X224282000Y-139192000D01*
X224790000Y-139700000D02*
X224790000Y-139192000D01*
X222250000Y-142240000D02*
X222250000Y-141732000D01*
X221742000Y-142240000D02*
X221742000Y-141732000D01*
X219710000Y-142240000D02*
X219710000Y-141732000D01*
X219202000Y-142240000D02*
X219202000Y-141732000D01*
X224790000Y-142240000D02*
X224790000Y-141732000D01*
X224282000Y-142240000D02*
X224282000Y-141732000D01*
X226086000Y-138176000D02*
X226086000Y-137026000D01*
X226086000Y-137026000D02*
X224536000Y-137026000D01*
X224663000Y-144780000D02*
X224663000Y-150749000D01*
X224663000Y-150749000D02*
X224409000Y-150749000D01*
X224409000Y-150749000D02*
X224409000Y-144907000D01*
X224409000Y-144907000D02*
X224536000Y-144907000D01*
X224536000Y-144907000D02*
X224536000Y-150749000D01*
X223266000Y-142240000D02*
X220726000Y-142240000D01*
X220726000Y-142240000D02*
X220726000Y-144780000D01*
X222250000Y-144780000D02*
X222250000Y-150876000D01*
X222250000Y-150876000D02*
X221742000Y-150876000D01*
X221742000Y-150876000D02*
X221742000Y-144780000D01*
X220726000Y-144780000D02*
X223266000Y-144780000D01*
X218186000Y-142240000D02*
X218186000Y-144780000D01*
X218186000Y-144780000D02*
X220726000Y-144780000D01*
X219202000Y-150876000D02*
X219202000Y-144780000D01*
X219710000Y-150876000D02*
X219202000Y-150876000D01*
X219710000Y-144780000D02*
X219710000Y-150876000D01*
X218186000Y-142240000D02*
X218186000Y-144780000D01*
X220726000Y-142240000D02*
X218186000Y-142240000D01*
X220726000Y-142240000D02*
X220726000Y-144780000D01*
X223266000Y-142240000D02*
X223266000Y-144780000D01*
X223266000Y-144780000D02*
X225806000Y-144780000D01*
X224282000Y-150876000D02*
X224282000Y-144780000D01*
X224790000Y-150876000D02*
X224282000Y-150876000D01*
X224790000Y-144780000D02*
X224790000Y-150876000D01*
X223266000Y-142240000D02*
X223266000Y-144780000D01*
X225806000Y-142240000D02*
X223266000Y-142240000D01*
X225806000Y-142240000D02*
X225806000Y-144780000D01*
X259106000Y-139416000D02*
X257556000Y-139416000D01*
X259106000Y-140716000D02*
X259106000Y-139416000D01*
X257683000Y-144907000D02*
X257683000Y-150749000D01*
X257683000Y-150749000D02*
X257429000Y-150749000D01*
X257429000Y-150749000D02*
X257429000Y-144907000D01*
X257429000Y-144907000D02*
X257556000Y-144907000D01*
X257556000Y-144907000D02*
X257556000Y-150749000D01*
X257810000Y-142240000D02*
X257810000Y-141859000D01*
X257302000Y-142240000D02*
X257302000Y-141859000D01*
X255270000Y-142240000D02*
X255270000Y-141859000D01*
X254762000Y-142240000D02*
X254762000Y-141859000D01*
X252730000Y-142240000D02*
X252730000Y-141859000D01*
X252222000Y-142240000D02*
X252222000Y-141859000D01*
X250190000Y-142240000D02*
X250190000Y-141859000D01*
X249682000Y-142240000D02*
X249682000Y-141859000D01*
X247142000Y-142240000D02*
X247142000Y-141859000D01*
X247650000Y-142240000D02*
X247650000Y-141859000D01*
X256286000Y-144780000D02*
X258826000Y-144780000D01*
X257302000Y-150876000D02*
X257302000Y-144780000D01*
X257810000Y-150876000D02*
X257302000Y-150876000D01*
X257810000Y-144780000D02*
X257810000Y-150876000D01*
X256286000Y-142240000D02*
X256286000Y-144780000D01*
X258826000Y-142240000D02*
X256286000Y-142240000D01*
X258826000Y-142240000D02*
X258826000Y-144780000D01*
X253746000Y-142240000D02*
X253746000Y-144780000D01*
X253746000Y-142240000D02*
X251206000Y-142240000D01*
X251206000Y-142240000D02*
X251206000Y-144780000D01*
X252730000Y-144780000D02*
X252730000Y-150876000D01*
X252730000Y-150876000D02*
X252222000Y-150876000D01*
X252222000Y-150876000D02*
X252222000Y-144780000D01*
X251206000Y-144780000D02*
X253746000Y-144780000D01*
X253746000Y-144780000D02*
X256286000Y-144780000D01*
X254762000Y-150876000D02*
X254762000Y-144780000D01*
X255270000Y-150876000D02*
X254762000Y-150876000D01*
X255270000Y-144780000D02*
X255270000Y-150876000D01*
X253746000Y-142240000D02*
X253746000Y-144780000D01*
X256286000Y-142240000D02*
X253746000Y-142240000D01*
X256286000Y-142240000D02*
X256286000Y-144780000D01*
X248666000Y-142240000D02*
X248666000Y-144780000D01*
X248666000Y-142240000D02*
X246126000Y-142240000D01*
X246126000Y-142240000D02*
X246126000Y-144780000D01*
X247650000Y-144780000D02*
X247650000Y-150876000D01*
X247650000Y-150876000D02*
X247142000Y-150876000D01*
X247142000Y-150876000D02*
X247142000Y-144780000D01*
X246126000Y-144780000D02*
X248666000Y-144780000D01*
X248666000Y-144780000D02*
X251206000Y-144780000D01*
X249682000Y-150876000D02*
X249682000Y-144780000D01*
X250190000Y-150876000D02*
X249682000Y-150876000D01*
X250190000Y-144780000D02*
X250190000Y-150876000D01*
X248666000Y-142240000D02*
X248666000Y-144780000D01*
X251206000Y-142240000D02*
X248666000Y-142240000D01*
X251206000Y-142240000D02*
X251206000Y-144780000D01*
X196680000Y-125300000D02*
X193280000Y-125300000D01*
X196677056Y-125302944D02*
G75*
G02X194980000Y-129400000I-1697056J-1697056D01*
G01*
X193282944Y-125302944D02*
G75*
G03X194980000Y-129400000I1697056J-1697056D01*
G01*
X196680000Y-130050000D02*
X193280000Y-130050000D01*
X196677056Y-130052944D02*
G75*
G02X194980000Y-134150000I-1697056J-1697056D01*
G01*
X193282944Y-130052944D02*
G75*
G03X194980000Y-134150000I1697056J-1697056D01*
G01*
X196680000Y-134800000D02*
X193280000Y-134800000D01*
X196677056Y-134802944D02*
G75*
G02X194980000Y-138900000I-1697056J-1697056D01*
G01*
X193282944Y-134802944D02*
G75*
G03X194980000Y-138900000I1697056J-1697056D01*
G01*
X196680000Y-139550000D02*
X193280000Y-139550000D01*
X196677056Y-139552944D02*
G75*
G02X194980000Y-143650000I-1697056J-1697056D01*
G01*
X193282944Y-139552944D02*
G75*
G03X194980000Y-143650000I1697056J-1697056D01*
G01*
X227980000Y-106350000D02*
X205120000Y-106350000D01*
X205120000Y-106350000D02*
X205120000Y-103810000D01*
X205120000Y-103810000D02*
X227980000Y-103810000D01*
X230800000Y-106630000D02*
X229250000Y-106630000D01*
X227980000Y-106350000D02*
X227980000Y-103810000D01*
X229250000Y-103530000D02*
X230800000Y-103530000D01*
X230800000Y-103530000D02*
X230800000Y-106630000D01*
X201230000Y-106370000D02*
X178370000Y-106370000D01*
X178370000Y-106370000D02*
X178370000Y-103830000D01*
X178370000Y-103830000D02*
X201230000Y-103830000D01*
X204050000Y-106650000D02*
X202500000Y-106650000D01*
X201230000Y-106370000D02*
X201230000Y-103830000D01*
X202500000Y-103550000D02*
X204050000Y-103550000D01*
X204050000Y-103550000D02*
X204050000Y-106650000D01*
X257130000Y-126730000D02*
X257130000Y-103870000D01*
X257130000Y-103870000D02*
X259670000Y-103870000D01*
X259670000Y-103870000D02*
X259670000Y-126730000D01*
X256850000Y-129550000D02*
X256850000Y-128000000D01*
X257130000Y-126730000D02*
X259670000Y-126730000D01*
X259950000Y-128000000D02*
X259950000Y-129550000D01*
X259950000Y-129550000D02*
X256850000Y-129550000D01*
X244430000Y-106350000D02*
X231730000Y-106350000D01*
X231730000Y-106350000D02*
X231730000Y-103810000D01*
X231730000Y-103810000D02*
X244430000Y-103810000D01*
X247250000Y-106630000D02*
X245700000Y-106630000D01*
X244430000Y-106350000D02*
X244430000Y-103810000D01*
X245700000Y-103530000D02*
X247250000Y-103530000D01*
X247250000Y-103530000D02*
X247250000Y-106630000D01*
X200805000Y-116165000D02*
X202075000Y-116165000D01*
X200805000Y-108815000D02*
X202075000Y-108815000D01*
X223175000Y-108815000D02*
X221905000Y-108815000D01*
X223175000Y-116165000D02*
X221905000Y-116165000D01*
X200805000Y-116165000D02*
X200805000Y-108815000D01*
X223175000Y-116165000D02*
X223175000Y-108815000D01*
X202075000Y-116165000D02*
X202075000Y-117450000D01*
X178005000Y-116165000D02*
X179275000Y-116165000D01*
X178005000Y-108815000D02*
X179275000Y-108815000D01*
X200375000Y-108815000D02*
X199105000Y-108815000D01*
X200375000Y-116165000D02*
X199105000Y-116165000D01*
X178005000Y-116165000D02*
X178005000Y-108815000D01*
X200375000Y-116165000D02*
X200375000Y-108815000D01*
X179275000Y-116165000D02*
X179275000Y-117450000D01*
X223505000Y-116165000D02*
X224775000Y-116165000D01*
X223505000Y-108815000D02*
X224775000Y-108815000D01*
X245875000Y-108815000D02*
X244605000Y-108815000D01*
X245875000Y-116165000D02*
X244605000Y-116165000D01*
X223505000Y-116165000D02*
X223505000Y-108815000D01*
X245875000Y-116165000D02*
X245875000Y-108815000D01*
X224775000Y-116165000D02*
X224775000Y-117450000D01*
X247735000Y-107505000D02*
X247735000Y-108775000D01*
X255085000Y-107505000D02*
X255085000Y-108775000D01*
X255085000Y-129875000D02*
X255085000Y-128605000D01*
X247735000Y-129875000D02*
X247735000Y-128605000D01*
X247735000Y-107505000D02*
X255085000Y-107505000D01*
X247735000Y-129875000D02*
X255085000Y-129875000D01*
X247735000Y-108775000D02*
X246450000Y-108775000D01*
X251449000Y-132400000D02*
X246451000Y-132400000D01*
X251441000Y-132540000D02*
X249104000Y-132540000D01*
X248796000Y-132540000D02*
X246459000Y-132540000D01*
X251425000Y-132680000D02*
X249423000Y-132680000D01*
X248477000Y-132680000D02*
X246475000Y-132680000D01*
X251401000Y-132820000D02*
X249570000Y-132820000D01*
X248330000Y-132820000D02*
X246499000Y-132820000D01*
X251368000Y-132960000D02*
X249662000Y-132960000D01*
X248238000Y-132960000D02*
X246532000Y-132960000D01*
X251327000Y-133100000D02*
X249718000Y-133100000D01*
X248182000Y-133100000D02*
X246573000Y-133100000D01*
X251277000Y-133240000D02*
X249745000Y-133240000D01*
X248155000Y-133240000D02*
X246623000Y-133240000D01*
X251216000Y-133380000D02*
X249748000Y-133380000D01*
X248152000Y-133380000D02*
X246684000Y-133380000D01*
X251146000Y-133520000D02*
X249726000Y-133520000D01*
X248174000Y-133520000D02*
X246754000Y-133520000D01*
X251064000Y-133660000D02*
X249676000Y-133660000D01*
X248224000Y-133660000D02*
X246836000Y-133660000D01*
X250969000Y-133800000D02*
X249594000Y-133800000D01*
X248306000Y-133800000D02*
X246931000Y-133800000D01*
X250858000Y-133940000D02*
X249462000Y-133940000D01*
X248438000Y-133940000D02*
X247042000Y-133940000D01*
X250730000Y-134080000D02*
X249215000Y-134080000D01*
X248685000Y-134080000D02*
X247170000Y-134080000D01*
X250581000Y-134220000D02*
X247319000Y-134220000D01*
X250402000Y-134360000D02*
X247498000Y-134360000D01*
X250183000Y-134500000D02*
X247717000Y-134500000D01*
X249894000Y-134640000D02*
X248006000Y-134640000D01*
X249422000Y-134780000D02*
X248478000Y-134780000D01*
X249750000Y-133325000D02*
G75*
G03X249750000Y-133325000I-800000J0D01*
G01*
X251487500Y-132325000D02*
G75*
G03X251487500Y-132325000I-2537500J0D01*
G01*
X207700000Y-134750000D02*
X207700000Y-136350000D01*
X207700000Y-134750000D02*
X207700000Y-133150000D01*
X207700000Y-133150000D02*
X200300000Y-133150000D01*
X200300000Y-133150000D02*
X200300000Y-134750000D01*
X200300000Y-134750000D02*
X200300000Y-136350000D01*
X200300000Y-136350000D02*
X207700000Y-136350000D01*
X200300000Y-131600000D02*
X200300000Y-130000000D01*
X200300000Y-131600000D02*
X200300000Y-133200000D01*
X200300000Y-133200000D02*
X207700000Y-133200000D01*
X207700000Y-133200000D02*
X207700000Y-131600000D01*
X207700000Y-131600000D02*
X207700000Y-130000000D01*
X207700000Y-130000000D02*
X200300000Y-130000000D01*
X199730000Y-120270000D02*
X194650000Y-120270000D01*
X194650000Y-120270000D02*
X194650000Y-117730000D01*
X194650000Y-117730000D02*
X199730000Y-117730000D01*
X199730000Y-117730000D02*
X199730000Y-120270000D01*
X205270000Y-118480000D02*
X207810000Y-118480000D01*
X202450000Y-118200000D02*
X204000000Y-118200000D01*
X205270000Y-118480000D02*
X205270000Y-121020000D01*
X204000000Y-121300000D02*
X202450000Y-121300000D01*
X202450000Y-121300000D02*
X202450000Y-118200000D01*
X205270000Y-121020000D02*
X207810000Y-121020000D01*
X207810000Y-121020000D02*
X207810000Y-118480000D01*
X250625000Y-135600000D02*
X249625000Y-135600000D01*
X249625000Y-137300000D02*
X250625000Y-137300000D01*
X199730000Y-123370000D02*
X194650000Y-123370000D01*
X194650000Y-123370000D02*
X194650000Y-120830000D01*
X194650000Y-120830000D02*
X199730000Y-120830000D01*
X199730000Y-120830000D02*
X199730000Y-123370000D01*
D17*
G36*
X180416200Y-128163320D02*
X180408580Y-128145540D01*
X180385720Y-128112520D01*
X180352700Y-128061720D01*
X180314600Y-128003300D01*
X180273960Y-127942340D01*
X180240940Y-127894080D01*
X180218080Y-127858520D01*
X180210460Y-127845820D01*
X180213000Y-127838200D01*
X180228240Y-127810260D01*
X180248560Y-127769620D01*
X180261260Y-127744220D01*
X180276500Y-127706120D01*
X180281580Y-127688340D01*
X180276500Y-127685800D01*
X180246020Y-127670560D01*
X180197760Y-127650240D01*
X180131720Y-127622300D01*
X180055520Y-127589280D01*
X179974240Y-127553720D01*
X179890420Y-127520700D01*
X179811680Y-127487680D01*
X179738020Y-127457200D01*
X179679600Y-127434340D01*
X179638960Y-127419100D01*
X179621180Y-127411480D01*
X179618640Y-127414020D01*
X179600860Y-127431800D01*
X179575460Y-127464820D01*
X179517040Y-127535940D01*
X179430680Y-127607060D01*
X179331620Y-127650240D01*
X179219860Y-127662940D01*
X179118260Y-127652780D01*
X179021740Y-127612140D01*
X178932840Y-127543560D01*
X178866800Y-127459740D01*
X178826160Y-127363220D01*
X178813460Y-127254000D01*
X178823620Y-127149860D01*
X178864260Y-127050800D01*
X178930300Y-126961900D01*
X178973480Y-126923800D01*
X179064920Y-126873000D01*
X179158900Y-126842520D01*
X179181760Y-126839980D01*
X179288440Y-126845060D01*
X179390040Y-126875540D01*
X179478940Y-126931420D01*
X179552600Y-127007620D01*
X179560220Y-127017780D01*
X179588160Y-127053340D01*
X179605940Y-127078740D01*
X179621180Y-127096520D01*
X179943760Y-126961900D01*
X179994560Y-126941580D01*
X180083460Y-126903480D01*
X180159660Y-126873000D01*
X180220620Y-126845060D01*
X180261260Y-126827280D01*
X180276500Y-126819660D01*
X180276500Y-126819660D01*
X180279040Y-126806960D01*
X180271420Y-126784100D01*
X180248560Y-126738380D01*
X180233320Y-126707900D01*
X180218080Y-126674880D01*
X180210460Y-126659640D01*
X180218080Y-126644400D01*
X180238400Y-126611380D01*
X180271420Y-126565660D01*
X180309520Y-126507240D01*
X180347620Y-126451360D01*
X180380640Y-126400560D01*
X180406040Y-126365000D01*
X180413660Y-126347220D01*
X180413660Y-126344680D01*
X180406040Y-126326900D01*
X180380640Y-126298960D01*
X180340000Y-126255780D01*
X180279040Y-126192280D01*
X180268880Y-126182120D01*
X180218080Y-126131320D01*
X180172360Y-126090680D01*
X180141880Y-126062740D01*
X180129180Y-126052580D01*
X180129180Y-126052580D01*
X180111400Y-126062740D01*
X180073300Y-126085600D01*
X180022500Y-126118620D01*
X179961540Y-126159260D01*
X179806600Y-126265940D01*
X179661820Y-126207520D01*
X179616100Y-126189740D01*
X179560220Y-126166880D01*
X179522120Y-126149100D01*
X179504340Y-126141480D01*
X179499260Y-126123700D01*
X179489100Y-126085600D01*
X179478940Y-126027180D01*
X179466240Y-125956060D01*
X179453540Y-125890020D01*
X179440840Y-125831600D01*
X179433220Y-125788420D01*
X179430680Y-125768100D01*
X179425600Y-125763020D01*
X179417980Y-125760480D01*
X179397660Y-125757940D01*
X179359560Y-125755400D01*
X179303680Y-125755400D01*
X179219860Y-125755400D01*
X179212240Y-125755400D01*
X179133500Y-125755400D01*
X179070000Y-125757940D01*
X179031900Y-125760480D01*
X179014120Y-125763020D01*
X179014120Y-125763020D01*
X179009040Y-125780800D01*
X179001420Y-125823980D01*
X178988720Y-125882400D01*
X178976020Y-125953520D01*
X178976020Y-125958600D01*
X178960780Y-126029720D01*
X178948080Y-126088140D01*
X178940460Y-126131320D01*
X178932840Y-126149100D01*
X178927760Y-126151640D01*
X178899820Y-126166880D01*
X178856640Y-126187200D01*
X178803300Y-126210060D01*
X178747420Y-126232920D01*
X178696620Y-126253240D01*
X178661060Y-126265940D01*
X178643280Y-126271020D01*
X178643280Y-126271020D01*
X178625500Y-126260860D01*
X178589940Y-126235460D01*
X178539140Y-126199900D01*
X178478180Y-126159260D01*
X178473100Y-126156720D01*
X178412140Y-126116080D01*
X178361340Y-126083060D01*
X178325780Y-126060200D01*
X178310540Y-126052580D01*
X178308000Y-126052580D01*
X178290220Y-126065280D01*
X178257200Y-126095760D01*
X178211480Y-126141480D01*
X178158140Y-126192280D01*
X178142900Y-126210060D01*
X178084480Y-126268480D01*
X178048920Y-126309120D01*
X178028600Y-126334520D01*
X178023520Y-126344680D01*
X178023520Y-126347220D01*
X178033680Y-126365000D01*
X178059080Y-126403100D01*
X178094640Y-126453900D01*
X178135280Y-126514860D01*
X178137820Y-126517400D01*
X178178460Y-126578360D01*
X178214020Y-126629160D01*
X178236880Y-126664720D01*
X178244500Y-126679960D01*
X178244500Y-126682500D01*
X178239420Y-126705360D01*
X178224180Y-126748540D01*
X178203860Y-126801880D01*
X178181000Y-126857760D01*
X178160680Y-126908560D01*
X178142900Y-126944120D01*
X178132740Y-126961900D01*
X178132740Y-126964440D01*
X178109880Y-126969520D01*
X178064160Y-126979680D01*
X178003200Y-126992380D01*
X177929540Y-127007620D01*
X177919380Y-127010160D01*
X177845720Y-127022860D01*
X177787300Y-127033020D01*
X177746660Y-127043180D01*
X177728880Y-127045720D01*
X177728880Y-127055880D01*
X177726340Y-127091440D01*
X177723800Y-127144780D01*
X177723800Y-127210820D01*
X177723800Y-127276860D01*
X177723800Y-127342900D01*
X177726340Y-127398780D01*
X177728880Y-127439420D01*
X177733960Y-127457200D01*
X177733960Y-127457200D01*
X177756820Y-127462280D01*
X177800000Y-127472440D01*
X177863500Y-127485140D01*
X177937160Y-127500380D01*
X177949860Y-127502920D01*
X178020980Y-127515620D01*
X178079400Y-127528320D01*
X178120040Y-127535940D01*
X178135280Y-127541020D01*
X178137820Y-127546100D01*
X178153060Y-127576580D01*
X178170840Y-127624840D01*
X178196240Y-127683260D01*
X178252120Y-127820420D01*
X178135280Y-127988060D01*
X178125120Y-128003300D01*
X178084480Y-128064260D01*
X178051460Y-128115060D01*
X178028600Y-128150620D01*
X178020980Y-128163320D01*
X178020980Y-128165860D01*
X178036220Y-128181100D01*
X178066700Y-128214120D01*
X178112420Y-128259840D01*
X178163220Y-128313180D01*
X178203860Y-128353820D01*
X178249580Y-128399540D01*
X178282600Y-128427480D01*
X178302920Y-128445260D01*
X178315620Y-128450340D01*
X178323240Y-128447800D01*
X178341020Y-128437640D01*
X178376580Y-128412240D01*
X178429920Y-128379220D01*
X178488340Y-128338580D01*
X178539140Y-128303020D01*
X178595020Y-128267460D01*
X178635660Y-128244600D01*
X178653440Y-128234440D01*
X178663600Y-128236980D01*
X178696620Y-128249680D01*
X178744880Y-128270000D01*
X178805840Y-128295400D01*
X178937920Y-128353820D01*
X178955700Y-128440180D01*
X178965860Y-128493520D01*
X178978560Y-128567180D01*
X178993800Y-128638300D01*
X179014120Y-128750060D01*
X179417980Y-128752600D01*
X179425600Y-128734820D01*
X179430680Y-128719580D01*
X179440840Y-128678940D01*
X179451000Y-128620520D01*
X179463700Y-128551940D01*
X179476400Y-128490980D01*
X179486560Y-128432560D01*
X179494180Y-128389380D01*
X179499260Y-128371600D01*
X179504340Y-128366520D01*
X179534820Y-128351280D01*
X179580540Y-128330960D01*
X179633880Y-128308100D01*
X179692300Y-128282700D01*
X179743100Y-128262380D01*
X179783740Y-128247140D01*
X179804060Y-128242060D01*
X179819300Y-128249680D01*
X179854860Y-128272540D01*
X179905660Y-128305560D01*
X179964080Y-128346200D01*
X180022500Y-128386840D01*
X180073300Y-128419860D01*
X180108860Y-128445260D01*
X180126640Y-128452880D01*
X180136800Y-128447800D01*
X180164740Y-128424940D01*
X180210460Y-128381760D01*
X180276500Y-128315720D01*
X180286660Y-128303020D01*
X180337460Y-128252220D01*
X180378100Y-128206500D01*
X180406040Y-128176020D01*
X180416200Y-128163320D01*
X180416200Y-128163320D01*
G37*
X180416200Y-128163320D02*
X180408580Y-128145540D01*
X180385720Y-128112520D01*
X180352700Y-128061720D01*
X180314600Y-128003300D01*
X180273960Y-127942340D01*
X180240940Y-127894080D01*
X180218080Y-127858520D01*
X180210460Y-127845820D01*
X180213000Y-127838200D01*
X180228240Y-127810260D01*
X180248560Y-127769620D01*
X180261260Y-127744220D01*
X180276500Y-127706120D01*
X180281580Y-127688340D01*
X180276500Y-127685800D01*
X180246020Y-127670560D01*
X180197760Y-127650240D01*
X180131720Y-127622300D01*
X180055520Y-127589280D01*
X179974240Y-127553720D01*
X179890420Y-127520700D01*
X179811680Y-127487680D01*
X179738020Y-127457200D01*
X179679600Y-127434340D01*
X179638960Y-127419100D01*
X179621180Y-127411480D01*
X179618640Y-127414020D01*
X179600860Y-127431800D01*
X179575460Y-127464820D01*
X179517040Y-127535940D01*
X179430680Y-127607060D01*
X179331620Y-127650240D01*
X179219860Y-127662940D01*
X179118260Y-127652780D01*
X179021740Y-127612140D01*
X178932840Y-127543560D01*
X178866800Y-127459740D01*
X178826160Y-127363220D01*
X178813460Y-127254000D01*
X178823620Y-127149860D01*
X178864260Y-127050800D01*
X178930300Y-126961900D01*
X178973480Y-126923800D01*
X179064920Y-126873000D01*
X179158900Y-126842520D01*
X179181760Y-126839980D01*
X179288440Y-126845060D01*
X179390040Y-126875540D01*
X179478940Y-126931420D01*
X179552600Y-127007620D01*
X179560220Y-127017780D01*
X179588160Y-127053340D01*
X179605940Y-127078740D01*
X179621180Y-127096520D01*
X179943760Y-126961900D01*
X179994560Y-126941580D01*
X180083460Y-126903480D01*
X180159660Y-126873000D01*
X180220620Y-126845060D01*
X180261260Y-126827280D01*
X180276500Y-126819660D01*
X180276500Y-126819660D01*
X180279040Y-126806960D01*
X180271420Y-126784100D01*
X180248560Y-126738380D01*
X180233320Y-126707900D01*
X180218080Y-126674880D01*
X180210460Y-126659640D01*
X180218080Y-126644400D01*
X180238400Y-126611380D01*
X180271420Y-126565660D01*
X180309520Y-126507240D01*
X180347620Y-126451360D01*
X180380640Y-126400560D01*
X180406040Y-126365000D01*
X180413660Y-126347220D01*
X180413660Y-126344680D01*
X180406040Y-126326900D01*
X180380640Y-126298960D01*
X180340000Y-126255780D01*
X180279040Y-126192280D01*
X180268880Y-126182120D01*
X180218080Y-126131320D01*
X180172360Y-126090680D01*
X180141880Y-126062740D01*
X180129180Y-126052580D01*
X180129180Y-126052580D01*
X180111400Y-126062740D01*
X180073300Y-126085600D01*
X180022500Y-126118620D01*
X179961540Y-126159260D01*
X179806600Y-126265940D01*
X179661820Y-126207520D01*
X179616100Y-126189740D01*
X179560220Y-126166880D01*
X179522120Y-126149100D01*
X179504340Y-126141480D01*
X179499260Y-126123700D01*
X179489100Y-126085600D01*
X179478940Y-126027180D01*
X179466240Y-125956060D01*
X179453540Y-125890020D01*
X179440840Y-125831600D01*
X179433220Y-125788420D01*
X179430680Y-125768100D01*
X179425600Y-125763020D01*
X179417980Y-125760480D01*
X179397660Y-125757940D01*
X179359560Y-125755400D01*
X179303680Y-125755400D01*
X179219860Y-125755400D01*
X179212240Y-125755400D01*
X179133500Y-125755400D01*
X179070000Y-125757940D01*
X179031900Y-125760480D01*
X179014120Y-125763020D01*
X179014120Y-125763020D01*
X179009040Y-125780800D01*
X179001420Y-125823980D01*
X178988720Y-125882400D01*
X178976020Y-125953520D01*
X178976020Y-125958600D01*
X178960780Y-126029720D01*
X178948080Y-126088140D01*
X178940460Y-126131320D01*
X178932840Y-126149100D01*
X178927760Y-126151640D01*
X178899820Y-126166880D01*
X178856640Y-126187200D01*
X178803300Y-126210060D01*
X178747420Y-126232920D01*
X178696620Y-126253240D01*
X178661060Y-126265940D01*
X178643280Y-126271020D01*
X178643280Y-126271020D01*
X178625500Y-126260860D01*
X178589940Y-126235460D01*
X178539140Y-126199900D01*
X178478180Y-126159260D01*
X178473100Y-126156720D01*
X178412140Y-126116080D01*
X178361340Y-126083060D01*
X178325780Y-126060200D01*
X178310540Y-126052580D01*
X178308000Y-126052580D01*
X178290220Y-126065280D01*
X178257200Y-126095760D01*
X178211480Y-126141480D01*
X178158140Y-126192280D01*
X178142900Y-126210060D01*
X178084480Y-126268480D01*
X178048920Y-126309120D01*
X178028600Y-126334520D01*
X178023520Y-126344680D01*
X178023520Y-126347220D01*
X178033680Y-126365000D01*
X178059080Y-126403100D01*
X178094640Y-126453900D01*
X178135280Y-126514860D01*
X178137820Y-126517400D01*
X178178460Y-126578360D01*
X178214020Y-126629160D01*
X178236880Y-126664720D01*
X178244500Y-126679960D01*
X178244500Y-126682500D01*
X178239420Y-126705360D01*
X178224180Y-126748540D01*
X178203860Y-126801880D01*
X178181000Y-126857760D01*
X178160680Y-126908560D01*
X178142900Y-126944120D01*
X178132740Y-126961900D01*
X178132740Y-126964440D01*
X178109880Y-126969520D01*
X178064160Y-126979680D01*
X178003200Y-126992380D01*
X177929540Y-127007620D01*
X177919380Y-127010160D01*
X177845720Y-127022860D01*
X177787300Y-127033020D01*
X177746660Y-127043180D01*
X177728880Y-127045720D01*
X177728880Y-127055880D01*
X177726340Y-127091440D01*
X177723800Y-127144780D01*
X177723800Y-127210820D01*
X177723800Y-127276860D01*
X177723800Y-127342900D01*
X177726340Y-127398780D01*
X177728880Y-127439420D01*
X177733960Y-127457200D01*
X177733960Y-127457200D01*
X177756820Y-127462280D01*
X177800000Y-127472440D01*
X177863500Y-127485140D01*
X177937160Y-127500380D01*
X177949860Y-127502920D01*
X178020980Y-127515620D01*
X178079400Y-127528320D01*
X178120040Y-127535940D01*
X178135280Y-127541020D01*
X178137820Y-127546100D01*
X178153060Y-127576580D01*
X178170840Y-127624840D01*
X178196240Y-127683260D01*
X178252120Y-127820420D01*
X178135280Y-127988060D01*
X178125120Y-128003300D01*
X178084480Y-128064260D01*
X178051460Y-128115060D01*
X178028600Y-128150620D01*
X178020980Y-128163320D01*
X178020980Y-128165860D01*
X178036220Y-128181100D01*
X178066700Y-128214120D01*
X178112420Y-128259840D01*
X178163220Y-128313180D01*
X178203860Y-128353820D01*
X178249580Y-128399540D01*
X178282600Y-128427480D01*
X178302920Y-128445260D01*
X178315620Y-128450340D01*
X178323240Y-128447800D01*
X178341020Y-128437640D01*
X178376580Y-128412240D01*
X178429920Y-128379220D01*
X178488340Y-128338580D01*
X178539140Y-128303020D01*
X178595020Y-128267460D01*
X178635660Y-128244600D01*
X178653440Y-128234440D01*
X178663600Y-128236980D01*
X178696620Y-128249680D01*
X178744880Y-128270000D01*
X178805840Y-128295400D01*
X178937920Y-128353820D01*
X178955700Y-128440180D01*
X178965860Y-128493520D01*
X178978560Y-128567180D01*
X178993800Y-128638300D01*
X179014120Y-128750060D01*
X179417980Y-128752600D01*
X179425600Y-128734820D01*
X179430680Y-128719580D01*
X179440840Y-128678940D01*
X179451000Y-128620520D01*
X179463700Y-128551940D01*
X179476400Y-128490980D01*
X179486560Y-128432560D01*
X179494180Y-128389380D01*
X179499260Y-128371600D01*
X179504340Y-128366520D01*
X179534820Y-128351280D01*
X179580540Y-128330960D01*
X179633880Y-128308100D01*
X179692300Y-128282700D01*
X179743100Y-128262380D01*
X179783740Y-128247140D01*
X179804060Y-128242060D01*
X179819300Y-128249680D01*
X179854860Y-128272540D01*
X179905660Y-128305560D01*
X179964080Y-128346200D01*
X180022500Y-128386840D01*
X180073300Y-128419860D01*
X180108860Y-128445260D01*
X180126640Y-128452880D01*
X180136800Y-128447800D01*
X180164740Y-128424940D01*
X180210460Y-128381760D01*
X180276500Y-128315720D01*
X180286660Y-128303020D01*
X180337460Y-128252220D01*
X180378100Y-128206500D01*
X180406040Y-128176020D01*
X180416200Y-128163320D01*
D18*
X188140000Y-120520000D02*
X188140000Y-117860000D01*
X188140000Y-117860000D02*
X186740000Y-117860000D01*
X185360000Y-120520000D02*
X185360000Y-119250000D01*
X185360000Y-120520000D02*
X185360000Y-143500000D01*
X185360000Y-143500000D02*
X188140000Y-143500000D01*
X188140000Y-143500000D02*
X188140000Y-120520000D01*
X185360000Y-119250000D02*
X185360000Y-117860000D01*
X185360000Y-117860000D02*
X186750000Y-117860000D01*
X191890000Y-120520000D02*
X191890000Y-117860000D01*
X191890000Y-117860000D02*
X190490000Y-117860000D01*
X189110000Y-120520000D02*
X189110000Y-119250000D01*
X189110000Y-120520000D02*
X189110000Y-143500000D01*
X189110000Y-143500000D02*
X191890000Y-143500000D01*
X191890000Y-143500000D02*
X191890000Y-120520000D01*
X189110000Y-119250000D02*
X189110000Y-117860000D01*
X189110000Y-117860000D02*
X190500000Y-117860000D01*
X205973800Y-128060000D02*
X202853800Y-128060000D01*
X205973800Y-125940000D02*
X202853800Y-125940000D01*
X205973800Y-128060000D02*
X205973800Y-127996000D01*
X205973800Y-126004000D02*
X205973800Y-125940000D01*
X202853800Y-128060000D02*
X202853800Y-127996000D01*
X202853800Y-126004000D02*
X202853800Y-125940000D01*
D14*
X181261905Y-96962381D02*
X181261905Y-95962381D01*
X181642858Y-95962381D01*
X181738096Y-96010000D01*
X181785715Y-96057619D01*
X181833334Y-96152857D01*
X181833334Y-96295714D01*
X181785715Y-96390952D01*
X181738096Y-96438571D01*
X181642858Y-96486190D01*
X181261905Y-96486190D01*
X182690477Y-95962381D02*
X182500000Y-95962381D01*
X182404762Y-96010000D01*
X182357143Y-96057619D01*
X182261905Y-96200476D01*
X182214286Y-96390952D01*
X182214286Y-96771905D01*
X182261905Y-96867143D01*
X182309524Y-96914762D01*
X182404762Y-96962381D01*
X182595239Y-96962381D01*
X182690477Y-96914762D01*
X182738096Y-96867143D01*
X182785715Y-96771905D01*
X182785715Y-96533810D01*
X182738096Y-96438571D01*
X182690477Y-96390952D01*
X182595239Y-96343333D01*
X182404762Y-96343333D01*
X182309524Y-96390952D01*
X182261905Y-96438571D01*
X182214286Y-96533810D01*
X203477905Y-144018381D02*
X203477905Y-143018381D01*
X203858858Y-143018381D01*
X203954096Y-143066000D01*
X204001715Y-143113619D01*
X204049334Y-143208857D01*
X204049334Y-143351714D01*
X204001715Y-143446952D01*
X203954096Y-143494571D01*
X203858858Y-143542190D01*
X203477905Y-143542190D01*
X204906477Y-143351714D02*
X204906477Y-144018381D01*
X204668381Y-142970762D02*
X204430286Y-143685048D01*
X205049334Y-143685048D01*
X236732905Y-143853381D02*
X236732905Y-142853381D01*
X237113858Y-142853381D01*
X237209096Y-142901000D01*
X237256715Y-142948619D01*
X237304334Y-143043857D01*
X237304334Y-143186714D01*
X237256715Y-143281952D01*
X237209096Y-143329571D01*
X237113858Y-143377190D01*
X236732905Y-143377190D01*
X238209096Y-142853381D02*
X237732905Y-142853381D01*
X237685286Y-143329571D01*
X237732905Y-143281952D01*
X237828143Y-143234333D01*
X238066239Y-143234333D01*
X238161477Y-143281952D01*
X238209096Y-143329571D01*
X238256715Y-143424810D01*
X238256715Y-143662905D01*
X238209096Y-143758143D01*
X238161477Y-143805762D01*
X238066239Y-143853381D01*
X237828143Y-143853381D01*
X237732905Y-143805762D01*
X237685286Y-143758143D01*
X211261905Y-143952381D02*
X211261905Y-142952381D01*
X211642858Y-142952381D01*
X211738096Y-143000000D01*
X211785715Y-143047619D01*
X211833334Y-143142857D01*
X211833334Y-143285714D01*
X211785715Y-143380952D01*
X211738096Y-143428571D01*
X211642858Y-143476190D01*
X211261905Y-143476190D01*
X212785715Y-143952381D02*
X212214286Y-143952381D01*
X212500000Y-143952381D02*
X212500000Y-142952381D01*
X212404762Y-143095238D01*
X212309524Y-143190476D01*
X212214286Y-143238095D01*
X224057905Y-143818381D02*
X224057905Y-142818381D01*
X224438858Y-142818381D01*
X224534096Y-142866000D01*
X224581715Y-142913619D01*
X224629334Y-143008857D01*
X224629334Y-143151714D01*
X224581715Y-143246952D01*
X224534096Y-143294571D01*
X224438858Y-143342190D01*
X224057905Y-143342190D01*
X224962667Y-142818381D02*
X225581715Y-142818381D01*
X225248381Y-143199333D01*
X225391239Y-143199333D01*
X225486477Y-143246952D01*
X225534096Y-143294571D01*
X225581715Y-143389810D01*
X225581715Y-143627905D01*
X225534096Y-143723143D01*
X225486477Y-143770762D01*
X225391239Y-143818381D01*
X225105524Y-143818381D01*
X225010286Y-143770762D01*
X224962667Y-143723143D01*
X255836714Y-143773381D02*
X255836714Y-142773381D01*
X256217667Y-142773381D01*
X256312905Y-142821000D01*
X256360524Y-142868619D01*
X256408143Y-142963857D01*
X256408143Y-143106714D01*
X256360524Y-143201952D01*
X256312905Y-143249571D01*
X256217667Y-143297190D01*
X255836714Y-143297190D01*
X257360524Y-143773381D02*
X256789095Y-143773381D01*
X257074809Y-143773381D02*
X257074809Y-142773381D01*
X256979571Y-142916238D01*
X256884333Y-143011476D01*
X256789095Y-143059095D01*
X258217667Y-143106714D02*
X258217667Y-143773381D01*
X257979571Y-142725762D02*
X257741476Y-143440048D01*
X258360524Y-143440048D01*
X203952381Y-115011905D02*
X204761905Y-115011905D01*
X204857143Y-114964286D01*
X204904762Y-114916667D01*
X204952381Y-114821429D01*
X204952381Y-114630952D01*
X204904762Y-114535714D01*
X204857143Y-114488095D01*
X204761905Y-114440476D01*
X203952381Y-114440476D01*
X204952381Y-113440476D02*
X204952381Y-114011905D01*
X204952381Y-113726191D02*
X203952381Y-113726191D01*
X204095238Y-113821429D01*
X204190476Y-113916667D01*
X204238095Y-114011905D01*
X181202381Y-115011905D02*
X182011905Y-115011905D01*
X182107143Y-114964286D01*
X182154762Y-114916667D01*
X182202381Y-114821429D01*
X182202381Y-114630952D01*
X182154762Y-114535714D01*
X182107143Y-114488095D01*
X182011905Y-114440476D01*
X181202381Y-114440476D01*
X181297619Y-114011905D02*
X181250000Y-113964286D01*
X181202381Y-113869048D01*
X181202381Y-113630952D01*
X181250000Y-113535714D01*
X181297619Y-113488095D01*
X181392857Y-113440476D01*
X181488095Y-113440476D01*
X181630952Y-113488095D01*
X182202381Y-114059524D01*
X182202381Y-113440476D01*
X226702381Y-115011905D02*
X227511905Y-115011905D01*
X227607143Y-114964286D01*
X227654762Y-114916667D01*
X227702381Y-114821429D01*
X227702381Y-114630952D01*
X227654762Y-114535714D01*
X227607143Y-114488095D01*
X227511905Y-114440476D01*
X226702381Y-114440476D01*
X226702381Y-114059524D02*
X226702381Y-113440476D01*
X227083333Y-113773810D01*
X227083333Y-113630952D01*
X227130952Y-113535714D01*
X227178571Y-113488095D01*
X227273810Y-113440476D01*
X227511905Y-113440476D01*
X227607143Y-113488095D01*
X227654762Y-113535714D01*
X227702381Y-113630952D01*
X227702381Y-113916667D01*
X227654762Y-114011905D01*
X227607143Y-114059524D01*
X252238095Y-109452381D02*
X252238095Y-110261905D01*
X252285714Y-110357143D01*
X252333333Y-110404762D01*
X252428571Y-110452381D01*
X252619048Y-110452381D01*
X252714286Y-110404762D01*
X252761905Y-110357143D01*
X252809524Y-110261905D01*
X252809524Y-109452381D01*
X253714286Y-109785714D02*
X253714286Y-110452381D01*
X253476190Y-109404762D02*
X253238095Y-110119048D01*
X253857143Y-110119048D01*
X247832143Y-131641666D02*
X247879762Y-131689285D01*
X247927381Y-131832142D01*
X247927381Y-131927380D01*
X247879762Y-132070238D01*
X247784524Y-132165476D01*
X247689286Y-132213095D01*
X247498810Y-132260714D01*
X247355952Y-132260714D01*
X247165476Y-132213095D01*
X247070238Y-132165476D01*
X246975000Y-132070238D01*
X246927381Y-131927380D01*
X246927381Y-131832142D01*
X246975000Y-131689285D01*
X247022619Y-131641666D01*
X246927381Y-131308333D02*
X246927381Y-130641666D01*
X247927381Y-131070238D01*
X202279452Y-134183381D02*
X202279452Y-133183381D01*
X202660405Y-133183381D01*
X202755643Y-133231000D01*
X202803262Y-133278619D01*
X202850881Y-133373857D01*
X202850881Y-133516714D01*
X202803262Y-133611952D01*
X202755643Y-133659571D01*
X202660405Y-133707190D01*
X202279452Y-133707190D01*
X203136595Y-133183381D02*
X203708024Y-133183381D01*
X203422309Y-134183381D02*
X203422309Y-133183381D01*
X204612786Y-134088143D02*
X204565167Y-134135762D01*
X204422310Y-134183381D01*
X204327072Y-134183381D01*
X204184214Y-134135762D01*
X204088976Y-134040524D01*
X204041357Y-133945286D01*
X203993738Y-133754810D01*
X203993738Y-133611952D01*
X204041357Y-133421476D01*
X204088976Y-133326238D01*
X204184214Y-133231000D01*
X204327072Y-133183381D01*
X204422310Y-133183381D01*
X204565167Y-133231000D01*
X204612786Y-133278619D01*
X205565167Y-134183381D02*
X204993738Y-134183381D01*
X205279452Y-134183381D02*
X205279452Y-133183381D01*
X205184214Y-133326238D01*
X205088976Y-133421476D01*
X204993738Y-133469095D01*
X202406452Y-130944881D02*
X202406452Y-129944881D01*
X202787405Y-129944881D01*
X202882643Y-129992500D01*
X202930262Y-130040119D01*
X202977881Y-130135357D01*
X202977881Y-130278214D01*
X202930262Y-130373452D01*
X202882643Y-130421071D01*
X202787405Y-130468690D01*
X202406452Y-130468690D01*
X203263595Y-129944881D02*
X203835024Y-129944881D01*
X203549309Y-130944881D02*
X203549309Y-129944881D01*
X204739786Y-130849643D02*
X204692167Y-130897262D01*
X204549310Y-130944881D01*
X204454072Y-130944881D01*
X204311214Y-130897262D01*
X204215976Y-130802024D01*
X204168357Y-130706786D01*
X204120738Y-130516310D01*
X204120738Y-130373452D01*
X204168357Y-130182976D01*
X204215976Y-130087738D01*
X204311214Y-129992500D01*
X204454072Y-129944881D01*
X204549310Y-129944881D01*
X204692167Y-129992500D01*
X204739786Y-130040119D01*
X205120738Y-130040119D02*
X205168357Y-129992500D01*
X205263595Y-129944881D01*
X205501691Y-129944881D01*
X205596929Y-129992500D01*
X205644548Y-130040119D01*
X205692167Y-130135357D01*
X205692167Y-130230595D01*
X205644548Y-130373452D01*
X205073119Y-130944881D01*
X205692167Y-130944881D01*
X195465143Y-120102381D02*
X195131809Y-119626190D01*
X194893714Y-120102381D02*
X194893714Y-119102381D01*
X195274667Y-119102381D01*
X195369905Y-119150000D01*
X195417524Y-119197619D01*
X195465143Y-119292857D01*
X195465143Y-119435714D01*
X195417524Y-119530952D01*
X195369905Y-119578571D01*
X195274667Y-119626190D01*
X194893714Y-119626190D01*
X196417524Y-120102381D02*
X195846095Y-120102381D01*
X196131809Y-120102381D02*
X196131809Y-119102381D01*
X196036571Y-119245238D01*
X195941333Y-119340476D01*
X195846095Y-119388095D01*
X197036571Y-119102381D02*
X197131810Y-119102381D01*
X197227048Y-119150000D01*
X197274667Y-119197619D01*
X197322286Y-119292857D01*
X197369905Y-119483333D01*
X197369905Y-119721429D01*
X197322286Y-119911905D01*
X197274667Y-120007143D01*
X197227048Y-120054762D01*
X197131810Y-120102381D01*
X197036571Y-120102381D01*
X196941333Y-120054762D01*
X196893714Y-120007143D01*
X196846095Y-119911905D01*
X196798476Y-119721429D01*
X196798476Y-119483333D01*
X196846095Y-119292857D01*
X196893714Y-119197619D01*
X196941333Y-119150000D01*
X197036571Y-119102381D01*
X195413334Y-123197881D02*
X195080000Y-122721690D01*
X194841905Y-123197881D02*
X194841905Y-122197881D01*
X195222858Y-122197881D01*
X195318096Y-122245500D01*
X195365715Y-122293119D01*
X195413334Y-122388357D01*
X195413334Y-122531214D01*
X195365715Y-122626452D01*
X195318096Y-122674071D01*
X195222858Y-122721690D01*
X194841905Y-122721690D01*
X196365715Y-123197881D02*
X195794286Y-123197881D01*
X196080000Y-123197881D02*
X196080000Y-122197881D01*
X195984762Y-122340738D01*
X195889524Y-122435976D01*
X195794286Y-122483595D01*
X188920381Y-125075866D02*
X188444190Y-125409200D01*
X188920381Y-125647295D02*
X187920381Y-125647295D01*
X187920381Y-125266342D01*
X187968000Y-125171104D01*
X188015619Y-125123485D01*
X188110857Y-125075866D01*
X188253714Y-125075866D01*
X188348952Y-125123485D01*
X188396571Y-125171104D01*
X188444190Y-125266342D01*
X188444190Y-125647295D01*
X188920381Y-124075866D02*
X188444190Y-124409200D01*
X188920381Y-124647295D02*
X187920381Y-124647295D01*
X187920381Y-124266342D01*
X187968000Y-124171104D01*
X188015619Y-124123485D01*
X188110857Y-124075866D01*
X188253714Y-124075866D01*
X188348952Y-124123485D01*
X188396571Y-124171104D01*
X188444190Y-124266342D01*
X188444190Y-124647295D01*
X187920381Y-123171104D02*
X187920381Y-123647295D01*
X188396571Y-123694914D01*
X188348952Y-123647295D01*
X188301333Y-123552057D01*
X188301333Y-123313961D01*
X188348952Y-123218723D01*
X188396571Y-123171104D01*
X188491810Y-123123485D01*
X188729905Y-123123485D01*
X188825143Y-123171104D01*
X188872762Y-123218723D01*
X188920381Y-123313961D01*
X188920381Y-123552057D01*
X188872762Y-123647295D01*
X188825143Y-123694914D01*
X192603381Y-125075866D02*
X192127190Y-125409200D01*
X192603381Y-125647295D02*
X191603381Y-125647295D01*
X191603381Y-125266342D01*
X191651000Y-125171104D01*
X191698619Y-125123485D01*
X191793857Y-125075866D01*
X191936714Y-125075866D01*
X192031952Y-125123485D01*
X192079571Y-125171104D01*
X192127190Y-125266342D01*
X192127190Y-125647295D01*
X192603381Y-124075866D02*
X192127190Y-124409200D01*
X192603381Y-124647295D02*
X191603381Y-124647295D01*
X191603381Y-124266342D01*
X191651000Y-124171104D01*
X191698619Y-124123485D01*
X191793857Y-124075866D01*
X191936714Y-124075866D01*
X192031952Y-124123485D01*
X192079571Y-124171104D01*
X192127190Y-124266342D01*
X192127190Y-124647295D01*
X191603381Y-123218723D02*
X191603381Y-123409200D01*
X191651000Y-123504438D01*
X191698619Y-123552057D01*
X191841476Y-123647295D01*
X192031952Y-123694914D01*
X192412905Y-123694914D01*
X192508143Y-123647295D01*
X192555762Y-123599676D01*
X192603381Y-123504438D01*
X192603381Y-123313961D01*
X192555762Y-123218723D01*
X192508143Y-123171104D01*
X192412905Y-123123485D01*
X192174810Y-123123485D01*
X192079571Y-123171104D01*
X192031952Y-123218723D01*
X191984333Y-123313961D01*
X191984333Y-123504438D01*
X192031952Y-123599676D01*
X192079571Y-123647295D01*
X192174810Y-123694914D01*
X204277934Y-128449343D02*
X204230315Y-128496962D01*
X204087458Y-128544581D01*
X203992220Y-128544581D01*
X203849362Y-128496962D01*
X203754124Y-128401724D01*
X203706505Y-128306486D01*
X203658886Y-128116010D01*
X203658886Y-127973152D01*
X203706505Y-127782676D01*
X203754124Y-127687438D01*
X203849362Y-127592200D01*
X203992220Y-127544581D01*
X204087458Y-127544581D01*
X204230315Y-127592200D01*
X204277934Y-127639819D01*
X205135077Y-127877914D02*
X205135077Y-128544581D01*
X204896981Y-127496962D02*
X204658886Y-128211248D01*
X205277934Y-128211248D01*
M02*
