G04 #@! TF.FileFunction,Soldermask,Bot*
%FSLAX46Y46*%
G04 Gerber Fmt 4.6, Leading zero omitted, Abs format (unit mm)*
G04 Created by KiCad (PCBNEW 4.0.4-stable) date 01/15/17 13:01:21*
%MOMM*%
%LPD*%
G01*
G04 APERTURE LIST*
%ADD10C,0.100000*%
%ADD11O,1.600000X2.300000*%
%ADD12R,1.727200X1.727200*%
%ADD13O,1.727200X1.727200*%
%ADD14R,2.032000X2.032000*%
%ADD15O,2.032000X2.032000*%
%ADD16R,1.727200X2.032000*%
%ADD17O,1.727200X2.032000*%
%ADD18R,2.235200X2.235200*%
%ADD19O,0.899160X1.501140*%
%ADD20R,2.032000X1.727200*%
%ADD21O,2.032000X1.727200*%
%ADD22O,2.300000X1.600000*%
%ADD23R,1.300000X1.300000*%
%ADD24C,1.300000*%
%ADD25C,1.524000*%
%ADD26C,1.998980*%
%ADD27C,6.400000*%
%ADD28C,1.700000*%
%ADD29O,1.700000X1.700000*%
%ADD30C,1.600000*%
G04 APERTURE END LIST*
D10*
D11*
X210700000Y-134900000D03*
X213240000Y-134900000D03*
X215780000Y-134900000D03*
X218320000Y-134900000D03*
X220860000Y-134900000D03*
X223400000Y-134900000D03*
X225940000Y-134900000D03*
X228480000Y-134900000D03*
X231020000Y-134900000D03*
X233560000Y-134900000D03*
X236100000Y-134900000D03*
X238640000Y-134900000D03*
X241180000Y-134900000D03*
X243720000Y-134900000D03*
X243720000Y-119660000D03*
X241180000Y-119660000D03*
X238640000Y-119660000D03*
X236100000Y-119660000D03*
X233560000Y-119660000D03*
X231020000Y-119660000D03*
X228480000Y-119660000D03*
X225940000Y-119660000D03*
X223400000Y-119660000D03*
X220860000Y-119660000D03*
X218320000Y-119660000D03*
X215780000Y-119660000D03*
X213240000Y-119660000D03*
X210700000Y-119660000D03*
D12*
X179600000Y-101600000D03*
D13*
X179600000Y-99060000D03*
X182140000Y-101600000D03*
X182140000Y-99060000D03*
X184680000Y-101600000D03*
X184680000Y-99060000D03*
X187220000Y-101600000D03*
X187220000Y-99060000D03*
X189760000Y-101600000D03*
X189760000Y-99060000D03*
X192300000Y-101600000D03*
X192300000Y-99060000D03*
X194840000Y-101600000D03*
X194840000Y-99060000D03*
X197380000Y-101600000D03*
X197380000Y-99060000D03*
X199920000Y-101600000D03*
X199920000Y-99060000D03*
X202460000Y-101600000D03*
X202460000Y-99060000D03*
X205000000Y-101600000D03*
X205000000Y-99060000D03*
X207540000Y-101600000D03*
X207540000Y-99060000D03*
X210080000Y-101600000D03*
X210080000Y-99060000D03*
X212620000Y-101600000D03*
X212620000Y-99060000D03*
X215160000Y-101600000D03*
X215160000Y-99060000D03*
X217700000Y-101600000D03*
X217700000Y-99060000D03*
X220240000Y-101600000D03*
X220240000Y-99060000D03*
X222780000Y-101600000D03*
X222780000Y-99060000D03*
X225320000Y-101600000D03*
X225320000Y-99060000D03*
X227860000Y-101600000D03*
X227860000Y-99060000D03*
X230400000Y-101600000D03*
X230400000Y-99060000D03*
X232940000Y-101600000D03*
X232940000Y-99060000D03*
X235480000Y-101600000D03*
X235480000Y-99060000D03*
X238020000Y-101600000D03*
X238020000Y-99060000D03*
X240560000Y-101600000D03*
X240560000Y-99060000D03*
X243100000Y-101600000D03*
X243100000Y-99060000D03*
X245640000Y-101600000D03*
X245640000Y-99060000D03*
X248180000Y-101600000D03*
X248180000Y-99060000D03*
X250720000Y-101600000D03*
X250720000Y-99060000D03*
X253260000Y-101600000D03*
X253260000Y-99060000D03*
X255800000Y-101600000D03*
X255800000Y-99060000D03*
X258340000Y-101600000D03*
X258340000Y-99060000D03*
D14*
X204216000Y-140716000D03*
D15*
X201676000Y-140716000D03*
D16*
X242316000Y-140716000D03*
D17*
X239776000Y-140716000D03*
X237236000Y-140716000D03*
X234696000Y-140716000D03*
X232156000Y-140716000D03*
X229616000Y-140716000D03*
D12*
X214400000Y-138200000D03*
D13*
X214400000Y-140740000D03*
X211860000Y-138200000D03*
X211860000Y-140740000D03*
X209320000Y-138200000D03*
X209320000Y-140740000D03*
D18*
X199850000Y-126950000D03*
D12*
X224536000Y-138176000D03*
D13*
X224536000Y-140716000D03*
X221996000Y-138176000D03*
X221996000Y-140716000D03*
X219456000Y-138176000D03*
X219456000Y-140716000D03*
D16*
X257556000Y-140716000D03*
D17*
X255016000Y-140716000D03*
X252476000Y-140716000D03*
X249936000Y-140716000D03*
X247396000Y-140716000D03*
D19*
X194980000Y-127000000D03*
X193710000Y-127000000D03*
X196250000Y-127000000D03*
X194980000Y-131750000D03*
X193710000Y-131750000D03*
X196250000Y-131750000D03*
X194980000Y-136500000D03*
X193710000Y-136500000D03*
X196250000Y-136500000D03*
X194980000Y-141250000D03*
X193710000Y-141250000D03*
X196250000Y-141250000D03*
D16*
X229250000Y-105080000D03*
D17*
X226710000Y-105080000D03*
X224170000Y-105080000D03*
X221630000Y-105080000D03*
X219090000Y-105080000D03*
X216550000Y-105080000D03*
X214010000Y-105080000D03*
X211470000Y-105080000D03*
X208930000Y-105080000D03*
X206390000Y-105080000D03*
D16*
X202500000Y-105100000D03*
D17*
X199960000Y-105100000D03*
X197420000Y-105100000D03*
X194880000Y-105100000D03*
X192340000Y-105100000D03*
X189800000Y-105100000D03*
X187260000Y-105100000D03*
X184720000Y-105100000D03*
X182180000Y-105100000D03*
X179640000Y-105100000D03*
D20*
X258400000Y-128000000D03*
D21*
X258400000Y-125460000D03*
X258400000Y-122920000D03*
X258400000Y-120380000D03*
X258400000Y-117840000D03*
X258400000Y-115300000D03*
X258400000Y-112760000D03*
X258400000Y-110220000D03*
X258400000Y-107680000D03*
X258400000Y-105140000D03*
D16*
X245700000Y-105080000D03*
D17*
X243160000Y-105080000D03*
X240620000Y-105080000D03*
X238080000Y-105080000D03*
X235540000Y-105080000D03*
X233000000Y-105080000D03*
D11*
X203100000Y-116300000D03*
X205640000Y-116300000D03*
X208180000Y-116300000D03*
X210720000Y-116300000D03*
X213260000Y-116300000D03*
X215800000Y-116300000D03*
X218340000Y-116300000D03*
X220880000Y-116300000D03*
X220880000Y-108680000D03*
X218340000Y-108680000D03*
X215800000Y-108680000D03*
X213260000Y-108680000D03*
X210720000Y-108680000D03*
X208180000Y-108680000D03*
X205640000Y-108680000D03*
X203100000Y-108680000D03*
X180300000Y-116300000D03*
X182840000Y-116300000D03*
X185380000Y-116300000D03*
X187920000Y-116300000D03*
X190460000Y-116300000D03*
X193000000Y-116300000D03*
X195540000Y-116300000D03*
X198080000Y-116300000D03*
X198080000Y-108680000D03*
X195540000Y-108680000D03*
X193000000Y-108680000D03*
X190460000Y-108680000D03*
X187920000Y-108680000D03*
X185380000Y-108680000D03*
X182840000Y-108680000D03*
X180300000Y-108680000D03*
X225800000Y-116300000D03*
X228340000Y-116300000D03*
X230880000Y-116300000D03*
X233420000Y-116300000D03*
X235960000Y-116300000D03*
X238500000Y-116300000D03*
X241040000Y-116300000D03*
X243580000Y-116300000D03*
X243580000Y-108680000D03*
X241040000Y-108680000D03*
X238500000Y-108680000D03*
X235960000Y-108680000D03*
X233420000Y-108680000D03*
X230880000Y-108680000D03*
X228340000Y-108680000D03*
X225800000Y-108680000D03*
D22*
X247600000Y-109800000D03*
X247600000Y-112340000D03*
X247600000Y-114880000D03*
X247600000Y-117420000D03*
X247600000Y-119960000D03*
X247600000Y-122500000D03*
X247600000Y-125040000D03*
X247600000Y-127580000D03*
X255220000Y-127580000D03*
X255220000Y-125040000D03*
X255220000Y-122500000D03*
X255220000Y-119960000D03*
X255220000Y-117420000D03*
X255220000Y-114880000D03*
X255220000Y-112340000D03*
X255220000Y-109800000D03*
D23*
X248950000Y-131325000D03*
D24*
X248950000Y-133325000D03*
D25*
X206500000Y-134750000D03*
X201500000Y-134750000D03*
X201500000Y-131600000D03*
X206500000Y-131600000D03*
D26*
X201000000Y-119000000D03*
X193380000Y-119000000D03*
D27*
X181380000Y-122720000D03*
X255870000Y-133720000D03*
D14*
X204000000Y-119750000D03*
D15*
X206540000Y-119750000D03*
D26*
X201000000Y-122100000D03*
X193380000Y-122100000D03*
D28*
X186750000Y-119250000D03*
D29*
X186750000Y-121790000D03*
X186750000Y-124330000D03*
X186750000Y-126870000D03*
X186750000Y-129410000D03*
X186750000Y-131950000D03*
X186750000Y-134490000D03*
X186750000Y-137030000D03*
X186750000Y-139570000D03*
X186750000Y-142110000D03*
D28*
X190500000Y-119250000D03*
D29*
X190500000Y-121790000D03*
X190500000Y-124330000D03*
X190500000Y-126870000D03*
X190500000Y-129410000D03*
X190500000Y-131950000D03*
X190500000Y-134490000D03*
X190500000Y-137030000D03*
X190500000Y-139570000D03*
X190500000Y-142110000D03*
D30*
X205663800Y-127000000D03*
X203163800Y-127000000D03*
M02*
