G04 #@! TF.FileFunction,Legend,Bot*
%FSLAX46Y46*%
G04 Gerber Fmt 4.6, Leading zero omitted, Abs format (unit mm)*
G04 Created by KiCad (PCBNEW 4.0.4-stable) date 01/15/17 13:01:21*
%MOMM*%
%LPD*%
G01*
G04 APERTURE LIST*
%ADD10C,0.100000*%
%ADD11C,0.200000*%
%ADD12C,0.150000*%
%ADD13C,0.250000*%
%ADD14C,0.300000*%
%ADD15C,0.002540*%
G04 APERTURE END LIST*
D10*
D11*
X260300000Y-131020000D02*
X259990000Y-131330000D01*
X260000000Y-130720000D02*
X260300000Y-131020000D01*
X260320000Y-131040000D02*
X260000000Y-130720000D01*
X258920000Y-131040000D02*
X260320000Y-131040000D01*
X258525000Y-138417500D02*
X258885000Y-138057500D01*
X258155000Y-138047500D02*
X258525000Y-138417500D01*
X258525000Y-138417500D02*
X258155000Y-138047500D01*
X258525000Y-137077500D02*
X258525000Y-138417500D01*
X178170000Y-129032000D02*
X178180000Y-129032000D01*
X177780000Y-128642000D02*
X178170000Y-129032000D01*
X178190000Y-128232000D02*
X177780000Y-128642000D01*
X177790000Y-128632000D02*
X178190000Y-128232000D01*
X179170000Y-128632000D02*
X177790000Y-128632000D01*
D12*
X177347381Y-118396186D02*
X176347381Y-118396186D01*
X177061667Y-118729520D01*
X176347381Y-119062853D01*
X177347381Y-119062853D01*
X177347381Y-119681900D02*
X177299762Y-119586662D01*
X177252143Y-119539043D01*
X177156905Y-119491424D01*
X176871190Y-119491424D01*
X176775952Y-119539043D01*
X176728333Y-119586662D01*
X176680714Y-119681900D01*
X176680714Y-119824758D01*
X176728333Y-119919996D01*
X176775952Y-119967615D01*
X176871190Y-120015234D01*
X177156905Y-120015234D01*
X177252143Y-119967615D01*
X177299762Y-119919996D01*
X177347381Y-119824758D01*
X177347381Y-119681900D01*
X177347381Y-120872377D02*
X176347381Y-120872377D01*
X177299762Y-120872377D02*
X177347381Y-120777139D01*
X177347381Y-120586662D01*
X177299762Y-120491424D01*
X177252143Y-120443805D01*
X177156905Y-120396186D01*
X176871190Y-120396186D01*
X176775952Y-120443805D01*
X176728333Y-120491424D01*
X176680714Y-120586662D01*
X176680714Y-120777139D01*
X176728333Y-120872377D01*
X176680714Y-121777139D02*
X177347381Y-121777139D01*
X176680714Y-121348567D02*
X177204524Y-121348567D01*
X177299762Y-121396186D01*
X177347381Y-121491424D01*
X177347381Y-121634282D01*
X177299762Y-121729520D01*
X177252143Y-121777139D01*
X177347381Y-122396186D02*
X177299762Y-122300948D01*
X177204524Y-122253329D01*
X176347381Y-122253329D01*
X177347381Y-123205711D02*
X176823571Y-123205711D01*
X176728333Y-123158092D01*
X176680714Y-123062854D01*
X176680714Y-122872377D01*
X176728333Y-122777139D01*
X177299762Y-123205711D02*
X177347381Y-123110473D01*
X177347381Y-122872377D01*
X177299762Y-122777139D01*
X177204524Y-122729520D01*
X177109286Y-122729520D01*
X177014048Y-122777139D01*
X176966429Y-122872377D01*
X176966429Y-123110473D01*
X176918810Y-123205711D01*
X177347381Y-123681901D02*
X176680714Y-123681901D01*
X176871190Y-123681901D02*
X176775952Y-123729520D01*
X176728333Y-123777139D01*
X176680714Y-123872377D01*
X176680714Y-123967616D01*
X176347381Y-125253330D02*
X176347381Y-125443807D01*
X176395000Y-125539045D01*
X176490238Y-125634283D01*
X176680714Y-125681902D01*
X177014048Y-125681902D01*
X177204524Y-125634283D01*
X177299762Y-125539045D01*
X177347381Y-125443807D01*
X177347381Y-125253330D01*
X177299762Y-125158092D01*
X177204524Y-125062854D01*
X177014048Y-125015235D01*
X176680714Y-125015235D01*
X176490238Y-125062854D01*
X176395000Y-125158092D01*
X176347381Y-125253330D01*
X176680714Y-126110473D02*
X177680714Y-126110473D01*
X176728333Y-126110473D02*
X176680714Y-126205711D01*
X176680714Y-126396188D01*
X176728333Y-126491426D01*
X176775952Y-126539045D01*
X176871190Y-126586664D01*
X177156905Y-126586664D01*
X177252143Y-126539045D01*
X177299762Y-126491426D01*
X177347381Y-126396188D01*
X177347381Y-126205711D01*
X177299762Y-126110473D01*
X177299762Y-127396188D02*
X177347381Y-127300950D01*
X177347381Y-127110473D01*
X177299762Y-127015235D01*
X177204524Y-126967616D01*
X176823571Y-126967616D01*
X176728333Y-127015235D01*
X176680714Y-127110473D01*
X176680714Y-127300950D01*
X176728333Y-127396188D01*
X176823571Y-127443807D01*
X176918810Y-127443807D01*
X177014048Y-126967616D01*
X176680714Y-127872378D02*
X177347381Y-127872378D01*
X176775952Y-127872378D02*
X176728333Y-127919997D01*
X176680714Y-128015235D01*
X176680714Y-128158093D01*
X176728333Y-128253331D01*
X176823571Y-128300950D01*
X177347381Y-128300950D01*
X176823571Y-129872379D02*
X176871190Y-130015236D01*
X176918810Y-130062855D01*
X177014048Y-130110474D01*
X177156905Y-130110474D01*
X177252143Y-130062855D01*
X177299762Y-130015236D01*
X177347381Y-129919998D01*
X177347381Y-129539045D01*
X176347381Y-129539045D01*
X176347381Y-129872379D01*
X176395000Y-129967617D01*
X176442619Y-130015236D01*
X176537857Y-130062855D01*
X176633095Y-130062855D01*
X176728333Y-130015236D01*
X176775952Y-129967617D01*
X176823571Y-129872379D01*
X176823571Y-129539045D01*
X176680714Y-130967617D02*
X177347381Y-130967617D01*
X176680714Y-130539045D02*
X177204524Y-130539045D01*
X177299762Y-130586664D01*
X177347381Y-130681902D01*
X177347381Y-130824760D01*
X177299762Y-130919998D01*
X177252143Y-130967617D01*
X176680714Y-131300950D02*
X176680714Y-131681902D01*
X176347381Y-131443807D02*
X177204524Y-131443807D01*
X177299762Y-131491426D01*
X177347381Y-131586664D01*
X177347381Y-131681902D01*
X176680714Y-131872379D02*
X176680714Y-132253331D01*
X176347381Y-132015236D02*
X177204524Y-132015236D01*
X177299762Y-132062855D01*
X177347381Y-132158093D01*
X177347381Y-132253331D01*
X177347381Y-132729522D02*
X177299762Y-132634284D01*
X177252143Y-132586665D01*
X177156905Y-132539046D01*
X176871190Y-132539046D01*
X176775952Y-132586665D01*
X176728333Y-132634284D01*
X176680714Y-132729522D01*
X176680714Y-132872380D01*
X176728333Y-132967618D01*
X176775952Y-133015237D01*
X176871190Y-133062856D01*
X177156905Y-133062856D01*
X177252143Y-133015237D01*
X177299762Y-132967618D01*
X177347381Y-132872380D01*
X177347381Y-132729522D01*
X176680714Y-133491427D02*
X177347381Y-133491427D01*
X176775952Y-133491427D02*
X176728333Y-133539046D01*
X176680714Y-133634284D01*
X176680714Y-133777142D01*
X176728333Y-133872380D01*
X176823571Y-133919999D01*
X177347381Y-133919999D01*
X176823571Y-135491428D02*
X176871190Y-135634285D01*
X176918810Y-135681904D01*
X177014048Y-135729523D01*
X177156905Y-135729523D01*
X177252143Y-135681904D01*
X177299762Y-135634285D01*
X177347381Y-135539047D01*
X177347381Y-135158094D01*
X176347381Y-135158094D01*
X176347381Y-135491428D01*
X176395000Y-135586666D01*
X176442619Y-135634285D01*
X176537857Y-135681904D01*
X176633095Y-135681904D01*
X176728333Y-135634285D01*
X176775952Y-135586666D01*
X176823571Y-135491428D01*
X176823571Y-135158094D01*
X177347381Y-136300951D02*
X177299762Y-136205713D01*
X177252143Y-136158094D01*
X177156905Y-136110475D01*
X176871190Y-136110475D01*
X176775952Y-136158094D01*
X176728333Y-136205713D01*
X176680714Y-136300951D01*
X176680714Y-136443809D01*
X176728333Y-136539047D01*
X176775952Y-136586666D01*
X176871190Y-136634285D01*
X177156905Y-136634285D01*
X177252143Y-136586666D01*
X177299762Y-136539047D01*
X177347381Y-136443809D01*
X177347381Y-136300951D01*
X177347381Y-136967618D02*
X176680714Y-137491428D01*
X176680714Y-136967618D02*
X177347381Y-137491428D01*
X177728333Y-138920000D02*
X177680714Y-138872380D01*
X177537857Y-138777142D01*
X177442619Y-138729523D01*
X177299762Y-138681904D01*
X177061667Y-138634285D01*
X176871190Y-138634285D01*
X176633095Y-138681904D01*
X176490238Y-138729523D01*
X176395000Y-138777142D01*
X176252143Y-138872380D01*
X176204524Y-138920000D01*
X177347381Y-139300952D02*
X176347381Y-139300952D01*
X177061667Y-139634286D01*
X176347381Y-139967619D01*
X177347381Y-139967619D01*
X176347381Y-140634285D02*
X176347381Y-140824762D01*
X176395000Y-140920000D01*
X176490238Y-141015238D01*
X176680714Y-141062857D01*
X177014048Y-141062857D01*
X177204524Y-141015238D01*
X177299762Y-140920000D01*
X177347381Y-140824762D01*
X177347381Y-140634285D01*
X177299762Y-140539047D01*
X177204524Y-140443809D01*
X177014048Y-140396190D01*
X176680714Y-140396190D01*
X176490238Y-140443809D01*
X176395000Y-140539047D01*
X176347381Y-140634285D01*
X176823571Y-141824762D02*
X176871190Y-141967619D01*
X176918810Y-142015238D01*
X177014048Y-142062857D01*
X177156905Y-142062857D01*
X177252143Y-142015238D01*
X177299762Y-141967619D01*
X177347381Y-141872381D01*
X177347381Y-141491428D01*
X176347381Y-141491428D01*
X176347381Y-141824762D01*
X176395000Y-141920000D01*
X176442619Y-141967619D01*
X176537857Y-142015238D01*
X176633095Y-142015238D01*
X176728333Y-141967619D01*
X176775952Y-141920000D01*
X176823571Y-141824762D01*
X176823571Y-141491428D01*
X176823571Y-142824762D02*
X176871190Y-142967619D01*
X176918810Y-143015238D01*
X177014048Y-143062857D01*
X177156905Y-143062857D01*
X177252143Y-143015238D01*
X177299762Y-142967619D01*
X177347381Y-142872381D01*
X177347381Y-142491428D01*
X176347381Y-142491428D01*
X176347381Y-142824762D01*
X176395000Y-142920000D01*
X176442619Y-142967619D01*
X176537857Y-143015238D01*
X176633095Y-143015238D01*
X176728333Y-142967619D01*
X176775952Y-142920000D01*
X176823571Y-142824762D01*
X176823571Y-142491428D01*
X177728333Y-143396190D02*
X177680714Y-143443809D01*
X177537857Y-143539047D01*
X177442619Y-143586666D01*
X177299762Y-143634285D01*
X177061667Y-143681904D01*
X176871190Y-143681904D01*
X176633095Y-143634285D01*
X176490238Y-143586666D01*
X176395000Y-143539047D01*
X176252143Y-143443809D01*
X176204524Y-143396190D01*
X178997381Y-135015237D02*
X177997381Y-135015237D01*
X177997381Y-135396190D01*
X178045000Y-135491428D01*
X178092619Y-135539047D01*
X178187857Y-135586666D01*
X178330714Y-135586666D01*
X178425952Y-135539047D01*
X178473571Y-135491428D01*
X178521190Y-135396190D01*
X178521190Y-135015237D01*
X178902143Y-136586666D02*
X178949762Y-136539047D01*
X178997381Y-136396190D01*
X178997381Y-136300952D01*
X178949762Y-136158094D01*
X178854524Y-136062856D01*
X178759286Y-136015237D01*
X178568810Y-135967618D01*
X178425952Y-135967618D01*
X178235476Y-136015237D01*
X178140238Y-136062856D01*
X178045000Y-136158094D01*
X177997381Y-136300952D01*
X177997381Y-136396190D01*
X178045000Y-136539047D01*
X178092619Y-136586666D01*
X178473571Y-137348571D02*
X178521190Y-137491428D01*
X178568810Y-137539047D01*
X178664048Y-137586666D01*
X178806905Y-137586666D01*
X178902143Y-137539047D01*
X178949762Y-137491428D01*
X178997381Y-137396190D01*
X178997381Y-137015237D01*
X177997381Y-137015237D01*
X177997381Y-137348571D01*
X178045000Y-137443809D01*
X178092619Y-137491428D01*
X178187857Y-137539047D01*
X178283095Y-137539047D01*
X178378333Y-137491428D01*
X178425952Y-137443809D01*
X178473571Y-137348571D01*
X178473571Y-137015237D01*
X178997381Y-138777142D02*
X178330714Y-138777142D01*
X178521190Y-138777142D02*
X178425952Y-138824761D01*
X178378333Y-138872380D01*
X178330714Y-138967618D01*
X178330714Y-139062857D01*
X178949762Y-139777143D02*
X178997381Y-139681905D01*
X178997381Y-139491428D01*
X178949762Y-139396190D01*
X178854524Y-139348571D01*
X178473571Y-139348571D01*
X178378333Y-139396190D01*
X178330714Y-139491428D01*
X178330714Y-139681905D01*
X178378333Y-139777143D01*
X178473571Y-139824762D01*
X178568810Y-139824762D01*
X178664048Y-139348571D01*
X178330714Y-140158095D02*
X178997381Y-140396190D01*
X178330714Y-140634286D01*
X178997381Y-142300953D02*
X178997381Y-141729524D01*
X178997381Y-142015238D02*
X177997381Y-142015238D01*
X178140238Y-141920000D01*
X178235476Y-141824762D01*
X178283095Y-141729524D01*
X178902143Y-142729524D02*
X178949762Y-142777143D01*
X178997381Y-142729524D01*
X178949762Y-142681905D01*
X178902143Y-142729524D01*
X178997381Y-142729524D01*
X177997381Y-143396190D02*
X177997381Y-143491429D01*
X178045000Y-143586667D01*
X178092619Y-143634286D01*
X178187857Y-143681905D01*
X178378333Y-143729524D01*
X178616429Y-143729524D01*
X178806905Y-143681905D01*
X178902143Y-143634286D01*
X178949762Y-143586667D01*
X178997381Y-143491429D01*
X178997381Y-143396190D01*
X178949762Y-143300952D01*
X178902143Y-143253333D01*
X178806905Y-143205714D01*
X178616429Y-143158095D01*
X178378333Y-143158095D01*
X178187857Y-143205714D01*
X178092619Y-143253333D01*
X178045000Y-143300952D01*
X177997381Y-143396190D01*
D11*
X184294500Y-128468500D02*
X184284500Y-128478500D01*
X183934500Y-128828500D02*
X184294500Y-128468500D01*
X183534500Y-128428500D02*
X183934500Y-128828500D01*
X183924500Y-128818500D02*
X183534500Y-128428500D01*
X183924500Y-127368500D02*
X183924500Y-128818500D01*
D12*
X184721238Y-126103119D02*
X184673619Y-126055500D01*
X184578381Y-126007881D01*
X184340285Y-126007881D01*
X184245047Y-126055500D01*
X184197428Y-126103119D01*
X184149809Y-126198357D01*
X184149809Y-126293595D01*
X184197428Y-126436452D01*
X184768857Y-127007881D01*
X184149809Y-127007881D01*
X183768857Y-126103119D02*
X183721238Y-126055500D01*
X183626000Y-126007881D01*
X183387904Y-126007881D01*
X183292666Y-126055500D01*
X183245047Y-126103119D01*
X183197428Y-126198357D01*
X183197428Y-126293595D01*
X183245047Y-126436452D01*
X183816476Y-127007881D01*
X183197428Y-127007881D01*
X182768857Y-127007881D02*
X182768857Y-126341214D01*
X182768857Y-126436452D02*
X182721238Y-126388833D01*
X182626000Y-126341214D01*
X182483142Y-126341214D01*
X182387904Y-126388833D01*
X182340285Y-126484071D01*
X182340285Y-127007881D01*
X182340285Y-126484071D02*
X182292666Y-126388833D01*
X182197428Y-126341214D01*
X182054571Y-126341214D01*
X181959333Y-126388833D01*
X181911714Y-126484071D01*
X181911714Y-127007881D01*
X181435524Y-127007881D02*
X181435524Y-126341214D01*
X181435524Y-126436452D02*
X181387905Y-126388833D01*
X181292667Y-126341214D01*
X181149809Y-126341214D01*
X181054571Y-126388833D01*
X181006952Y-126484071D01*
X181006952Y-127007881D01*
X181006952Y-126484071D02*
X180959333Y-126388833D01*
X180864095Y-126341214D01*
X180721238Y-126341214D01*
X180626000Y-126388833D01*
X180578381Y-126484071D01*
X180578381Y-127007881D01*
X179157381Y-126619144D02*
X179157381Y-126428667D01*
X179205000Y-126333429D01*
X179252619Y-126285810D01*
X179395476Y-126190572D01*
X179585952Y-126142953D01*
X179966905Y-126142953D01*
X180062143Y-126190572D01*
X180109762Y-126238191D01*
X180157381Y-126333429D01*
X180157381Y-126523906D01*
X180109762Y-126619144D01*
X180062143Y-126666763D01*
X179966905Y-126714382D01*
X179728810Y-126714382D01*
X179633571Y-126666763D01*
X179585952Y-126619144D01*
X179538333Y-126523906D01*
X179538333Y-126333429D01*
X179585952Y-126238191D01*
X179633571Y-126190572D01*
X179728810Y-126142953D01*
X180157381Y-127142953D02*
X179490714Y-127142953D01*
X179585952Y-127142953D02*
X179538333Y-127190572D01*
X179490714Y-127285810D01*
X179490714Y-127428668D01*
X179538333Y-127523906D01*
X179633571Y-127571525D01*
X180157381Y-127571525D01*
X179633571Y-127571525D02*
X179538333Y-127619144D01*
X179490714Y-127714382D01*
X179490714Y-127857239D01*
X179538333Y-127952477D01*
X179633571Y-128000096D01*
X180157381Y-128000096D01*
X180157381Y-128476286D02*
X179490714Y-128476286D01*
X179585952Y-128476286D02*
X179538333Y-128523905D01*
X179490714Y-128619143D01*
X179490714Y-128762001D01*
X179538333Y-128857239D01*
X179633571Y-128904858D01*
X180157381Y-128904858D01*
X179633571Y-128904858D02*
X179538333Y-128952477D01*
X179490714Y-129047715D01*
X179490714Y-129190572D01*
X179538333Y-129285810D01*
X179633571Y-129333429D01*
X180157381Y-129333429D01*
X257273809Y-138452381D02*
X257845238Y-138452381D01*
X257559524Y-138452381D02*
X257559524Y-137452381D01*
X257654762Y-137595238D01*
X257750000Y-137690476D01*
X257845238Y-137738095D01*
X256321428Y-138452381D02*
X256892857Y-138452381D01*
X256607143Y-138452381D02*
X256607143Y-137452381D01*
X256702381Y-137595238D01*
X256797619Y-137690476D01*
X256892857Y-137738095D01*
X255892857Y-138452381D02*
X255892857Y-137785714D01*
X255892857Y-137880952D02*
X255845238Y-137833333D01*
X255750000Y-137785714D01*
X255607142Y-137785714D01*
X255511904Y-137833333D01*
X255464285Y-137928571D01*
X255464285Y-138452381D01*
X255464285Y-137928571D02*
X255416666Y-137833333D01*
X255321428Y-137785714D01*
X255178571Y-137785714D01*
X255083333Y-137833333D01*
X255035714Y-137928571D01*
X255035714Y-138452381D01*
X254559524Y-138452381D02*
X254559524Y-137785714D01*
X254559524Y-137880952D02*
X254511905Y-137833333D01*
X254416667Y-137785714D01*
X254273809Y-137785714D01*
X254178571Y-137833333D01*
X254130952Y-137928571D01*
X254130952Y-138452381D01*
X254130952Y-137928571D02*
X254083333Y-137833333D01*
X253988095Y-137785714D01*
X253845238Y-137785714D01*
X253750000Y-137833333D01*
X253702381Y-137928571D01*
X253702381Y-138452381D01*
X259202381Y-132404763D02*
X259202381Y-131928572D01*
X259678571Y-131880953D01*
X259630952Y-131928572D01*
X259583333Y-132023810D01*
X259583333Y-132261906D01*
X259630952Y-132357144D01*
X259678571Y-132404763D01*
X259773810Y-132452382D01*
X260011905Y-132452382D01*
X260107143Y-132404763D01*
X260154762Y-132357144D01*
X260202381Y-132261906D01*
X260202381Y-132023810D01*
X260154762Y-131928572D01*
X260107143Y-131880953D01*
X260202381Y-132880953D02*
X259535714Y-132880953D01*
X259630952Y-132880953D02*
X259583333Y-132928572D01*
X259535714Y-133023810D01*
X259535714Y-133166668D01*
X259583333Y-133261906D01*
X259678571Y-133309525D01*
X260202381Y-133309525D01*
X259678571Y-133309525D02*
X259583333Y-133357144D01*
X259535714Y-133452382D01*
X259535714Y-133595239D01*
X259583333Y-133690477D01*
X259678571Y-133738096D01*
X260202381Y-133738096D01*
X260202381Y-134214286D02*
X259535714Y-134214286D01*
X259630952Y-134214286D02*
X259583333Y-134261905D01*
X259535714Y-134357143D01*
X259535714Y-134500001D01*
X259583333Y-134595239D01*
X259678571Y-134642858D01*
X260202381Y-134642858D01*
X259678571Y-134642858D02*
X259583333Y-134690477D01*
X259535714Y-134785715D01*
X259535714Y-134928572D01*
X259583333Y-135023810D01*
X259678571Y-135071429D01*
X260202381Y-135071429D01*
D13*
X244870686Y-129193800D02*
X244927828Y-129136657D01*
X245042114Y-128965229D01*
X245099257Y-128850943D01*
X245156400Y-128679514D01*
X245213543Y-128393800D01*
X245213543Y-128165229D01*
X245156400Y-127879514D01*
X245099257Y-127708086D01*
X245042114Y-127593800D01*
X244927828Y-127422371D01*
X244870686Y-127365229D01*
X243899257Y-128679514D02*
X244013543Y-128736657D01*
X244242114Y-128736657D01*
X244356400Y-128679514D01*
X244413543Y-128622371D01*
X244470686Y-128508086D01*
X244470686Y-128165229D01*
X244413543Y-128050943D01*
X244356400Y-127993800D01*
X244242114Y-127936657D01*
X244013543Y-127936657D01*
X243899257Y-127993800D01*
X243499257Y-129193800D02*
X243442115Y-129136657D01*
X243327829Y-128965229D01*
X243270686Y-128850943D01*
X243213543Y-128679514D01*
X243156400Y-128393800D01*
X243156400Y-128165229D01*
X243213543Y-127879514D01*
X243270686Y-127708086D01*
X243327829Y-127593800D01*
X243442115Y-127422371D01*
X243499257Y-127365229D01*
X241727829Y-127650943D02*
X241670686Y-127593800D01*
X241556400Y-127536657D01*
X241270686Y-127536657D01*
X241156400Y-127593800D01*
X241099257Y-127650943D01*
X241042114Y-127765229D01*
X241042114Y-127879514D01*
X241099257Y-128050943D01*
X241784971Y-128736657D01*
X241042114Y-128736657D01*
X240299257Y-127536657D02*
X240184972Y-127536657D01*
X240070686Y-127593800D01*
X240013543Y-127650943D01*
X239956400Y-127765229D01*
X239899257Y-127993800D01*
X239899257Y-128279514D01*
X239956400Y-128508086D01*
X240013543Y-128622371D01*
X240070686Y-128679514D01*
X240184972Y-128736657D01*
X240299257Y-128736657D01*
X240413543Y-128679514D01*
X240470686Y-128622371D01*
X240527829Y-128508086D01*
X240584972Y-128279514D01*
X240584972Y-127993800D01*
X240527829Y-127765229D01*
X240470686Y-127650943D01*
X240413543Y-127593800D01*
X240299257Y-127536657D01*
X238756400Y-128736657D02*
X239442115Y-128736657D01*
X239099257Y-128736657D02*
X239099257Y-127536657D01*
X239213543Y-127708086D01*
X239327829Y-127822371D01*
X239442115Y-127879514D01*
X237727829Y-127536657D02*
X237956400Y-127536657D01*
X238070686Y-127593800D01*
X238127829Y-127650943D01*
X238242115Y-127822371D01*
X238299258Y-128050943D01*
X238299258Y-128508086D01*
X238242115Y-128622371D01*
X238184972Y-128679514D01*
X238070686Y-128736657D01*
X237842115Y-128736657D01*
X237727829Y-128679514D01*
X237670686Y-128622371D01*
X237613543Y-128508086D01*
X237613543Y-128222371D01*
X237670686Y-128108086D01*
X237727829Y-128050943D01*
X237842115Y-127993800D01*
X238070686Y-127993800D01*
X238184972Y-128050943D01*
X238242115Y-128108086D01*
X238299258Y-128222371D01*
X236184972Y-128736657D02*
X236184972Y-127536657D01*
X235784972Y-128393800D01*
X235384972Y-127536657D01*
X235384972Y-128736657D01*
X234813543Y-128736657D02*
X234813543Y-127936657D01*
X234813543Y-127536657D02*
X234870686Y-127593800D01*
X234813543Y-127650943D01*
X234756400Y-127593800D01*
X234813543Y-127536657D01*
X234813543Y-127650943D01*
X234242114Y-128736657D02*
X234242114Y-127936657D01*
X234242114Y-128165229D02*
X234184971Y-128050943D01*
X234127828Y-127993800D01*
X234013542Y-127936657D01*
X233899257Y-127936657D01*
X233499257Y-128736657D02*
X233499257Y-127536657D01*
X233384971Y-128279514D02*
X233042114Y-128736657D01*
X233042114Y-127936657D02*
X233499257Y-128393800D01*
X232356399Y-128736657D02*
X232470685Y-128679514D01*
X232527828Y-128622371D01*
X232584971Y-128508086D01*
X232584971Y-128165229D01*
X232527828Y-128050943D01*
X232470685Y-127993800D01*
X232356399Y-127936657D01*
X232184971Y-127936657D01*
X232070685Y-127993800D01*
X232013542Y-128050943D01*
X231956399Y-128165229D01*
X231956399Y-128508086D01*
X232013542Y-128622371D01*
X232070685Y-128679514D01*
X232184971Y-128736657D01*
X232356399Y-128736657D01*
X230527828Y-128736657D02*
X230527828Y-127536657D01*
X229842113Y-128736657D02*
X230356399Y-128050943D01*
X229842113Y-127536657D02*
X230527828Y-128222371D01*
X228813542Y-128736657D02*
X228813542Y-128108086D01*
X228870685Y-127993800D01*
X228984971Y-127936657D01*
X229213542Y-127936657D01*
X229327828Y-127993800D01*
X228813542Y-128679514D02*
X228927828Y-128736657D01*
X229213542Y-128736657D01*
X229327828Y-128679514D01*
X229384971Y-128565229D01*
X229384971Y-128450943D01*
X229327828Y-128336657D01*
X229213542Y-128279514D01*
X228927828Y-128279514D01*
X228813542Y-128222371D01*
X228242114Y-128736657D02*
X228242114Y-127936657D01*
X228242114Y-127536657D02*
X228299257Y-127593800D01*
X228242114Y-127650943D01*
X228184971Y-127593800D01*
X228242114Y-127536657D01*
X228242114Y-127650943D01*
X227727828Y-128679514D02*
X227613542Y-128736657D01*
X227384970Y-128736657D01*
X227270685Y-128679514D01*
X227213542Y-128565229D01*
X227213542Y-128508086D01*
X227270685Y-128393800D01*
X227384970Y-128336657D01*
X227556399Y-128336657D01*
X227670685Y-128279514D01*
X227727828Y-128165229D01*
X227727828Y-128108086D01*
X227670685Y-127993800D01*
X227556399Y-127936657D01*
X227384970Y-127936657D01*
X227270685Y-127993800D01*
X226242113Y-128679514D02*
X226356399Y-128736657D01*
X226584970Y-128736657D01*
X226699256Y-128679514D01*
X226756399Y-128565229D01*
X226756399Y-128108086D01*
X226699256Y-127993800D01*
X226584970Y-127936657D01*
X226356399Y-127936657D01*
X226242113Y-127993800D01*
X226184970Y-128108086D01*
X226184970Y-128222371D01*
X226756399Y-128336657D01*
X225670685Y-128736657D02*
X225670685Y-127936657D01*
X225670685Y-128165229D02*
X225613542Y-128050943D01*
X225556399Y-127993800D01*
X225442113Y-127936657D01*
X225327828Y-127936657D01*
X253440476Y-128202381D02*
X253250000Y-128202381D01*
X253154761Y-128154762D01*
X253107142Y-128107143D01*
X253011904Y-127964286D01*
X252964285Y-127773810D01*
X252964285Y-127392857D01*
X253011904Y-127297619D01*
X253059523Y-127250000D01*
X253154761Y-127202381D01*
X253345238Y-127202381D01*
X253440476Y-127250000D01*
X253488095Y-127297619D01*
X253535714Y-127392857D01*
X253535714Y-127630952D01*
X253488095Y-127726190D01*
X253440476Y-127773810D01*
X253345238Y-127821429D01*
X253154761Y-127821429D01*
X253059523Y-127773810D01*
X253011904Y-127726190D01*
X252964285Y-127630952D01*
X249214285Y-110202381D02*
X249785714Y-110202381D01*
X249500000Y-110202381D02*
X249500000Y-109202381D01*
X249595238Y-109345238D01*
X249690476Y-109440476D01*
X249785714Y-109488095D01*
X243952381Y-110690476D02*
X243952381Y-110500000D01*
X243904762Y-110404761D01*
X243857143Y-110357142D01*
X243714286Y-110261904D01*
X243523810Y-110214285D01*
X243142857Y-110214285D01*
X243047619Y-110261904D01*
X243000000Y-110309523D01*
X242952381Y-110404761D01*
X242952381Y-110595238D01*
X243000000Y-110690476D01*
X243047619Y-110738095D01*
X243142857Y-110785714D01*
X243380952Y-110785714D01*
X243476190Y-110738095D01*
X243523810Y-110690476D01*
X243571429Y-110595238D01*
X243571429Y-110404761D01*
X243523810Y-110309523D01*
X243476190Y-110261904D01*
X243380952Y-110214285D01*
X226202381Y-114785715D02*
X226202381Y-114214286D01*
X226202381Y-114500000D02*
X225202381Y-114500000D01*
X225345238Y-114404762D01*
X225440476Y-114309524D01*
X225488095Y-114214286D01*
X221452381Y-110309524D02*
X221452381Y-110500000D01*
X221404762Y-110595239D01*
X221357143Y-110642858D01*
X221214286Y-110738096D01*
X221023810Y-110785715D01*
X220642857Y-110785715D01*
X220547619Y-110738096D01*
X220500000Y-110690477D01*
X220452381Y-110595239D01*
X220452381Y-110404762D01*
X220500000Y-110309524D01*
X220547619Y-110261905D01*
X220642857Y-110214286D01*
X220880952Y-110214286D01*
X220976190Y-110261905D01*
X221023810Y-110309524D01*
X221071429Y-110404762D01*
X221071429Y-110595239D01*
X221023810Y-110690477D01*
X220976190Y-110738096D01*
X220880952Y-110785715D01*
X203452381Y-114785715D02*
X203452381Y-114214286D01*
X203452381Y-114500000D02*
X202452381Y-114500000D01*
X202595238Y-114404762D01*
X202690476Y-114309524D01*
X202738095Y-114214286D01*
X198702381Y-110559524D02*
X198702381Y-110750000D01*
X198654762Y-110845239D01*
X198607143Y-110892858D01*
X198464286Y-110988096D01*
X198273810Y-111035715D01*
X197892857Y-111035715D01*
X197797619Y-110988096D01*
X197750000Y-110940477D01*
X197702381Y-110845239D01*
X197702381Y-110654762D01*
X197750000Y-110559524D01*
X197797619Y-110511905D01*
X197892857Y-110464286D01*
X198130952Y-110464286D01*
X198226190Y-110511905D01*
X198273810Y-110559524D01*
X198321429Y-110654762D01*
X198321429Y-110845239D01*
X198273810Y-110940477D01*
X198226190Y-110988096D01*
X198130952Y-111035715D01*
X180702381Y-114785715D02*
X180702381Y-114214286D01*
X180702381Y-114500000D02*
X179702381Y-114500000D01*
X179845238Y-114404762D01*
X179940476Y-114309524D01*
X179988095Y-114214286D01*
X244725000Y-125708200D02*
X244725000Y-126558200D01*
X244775000Y-126658200D01*
X244825000Y-126708200D01*
X244925000Y-126758200D01*
X245075000Y-126758200D01*
X245175000Y-126708200D01*
X244725000Y-126358200D02*
X244825000Y-126408200D01*
X245025000Y-126408200D01*
X245125000Y-126358200D01*
X245175000Y-126308200D01*
X245225000Y-126208200D01*
X245225000Y-125908200D01*
X245175000Y-125808200D01*
X245125000Y-125758200D01*
X245025000Y-125708200D01*
X244825000Y-125708200D01*
X244725000Y-125758200D01*
X244225000Y-126408200D02*
X244225000Y-125708200D01*
X244225000Y-125358200D02*
X244275000Y-125408200D01*
X244225000Y-125458200D01*
X244175000Y-125408200D01*
X244225000Y-125358200D01*
X244225000Y-125458200D01*
X243875000Y-125708200D02*
X243475000Y-125708200D01*
X243725000Y-125358200D02*
X243725000Y-126258200D01*
X243675000Y-126358200D01*
X243575000Y-126408200D01*
X243475000Y-126408200D01*
X243125000Y-126408200D02*
X243125000Y-125358200D01*
X242675000Y-126408200D02*
X242675000Y-125858200D01*
X242725000Y-125758200D01*
X242825000Y-125708200D01*
X242975000Y-125708200D01*
X243075000Y-125758200D01*
X243125000Y-125808200D01*
X241725000Y-125708200D02*
X241725000Y-126408200D01*
X242175000Y-125708200D02*
X242175000Y-126258200D01*
X242125000Y-126358200D01*
X242025000Y-126408200D01*
X241875000Y-126408200D01*
X241775000Y-126358200D01*
X241725000Y-126308200D01*
X241225000Y-126408200D02*
X241225000Y-125358200D01*
X241225000Y-125758200D02*
X241125000Y-125708200D01*
X240925000Y-125708200D01*
X240825000Y-125758200D01*
X240775000Y-125808200D01*
X240725000Y-125908200D01*
X240725000Y-126208200D01*
X240775000Y-126308200D01*
X240825000Y-126358200D01*
X240925000Y-126408200D01*
X241125000Y-126408200D01*
X241225000Y-126358200D01*
X240275000Y-126308200D02*
X240225000Y-126358200D01*
X240275000Y-126408200D01*
X240325000Y-126358200D01*
X240275000Y-126308200D01*
X240275000Y-126408200D01*
X239325000Y-126358200D02*
X239425000Y-126408200D01*
X239625000Y-126408200D01*
X239725000Y-126358200D01*
X239775000Y-126308200D01*
X239825000Y-126208200D01*
X239825000Y-125908200D01*
X239775000Y-125808200D01*
X239725000Y-125758200D01*
X239625000Y-125708200D01*
X239425000Y-125708200D01*
X239325000Y-125758200D01*
X238725000Y-126408200D02*
X238825000Y-126358200D01*
X238875000Y-126308200D01*
X238925000Y-126208200D01*
X238925000Y-125908200D01*
X238875000Y-125808200D01*
X238825000Y-125758200D01*
X238725000Y-125708200D01*
X238575000Y-125708200D01*
X238475000Y-125758200D01*
X238425000Y-125808200D01*
X238375000Y-125908200D01*
X238375000Y-126208200D01*
X238425000Y-126308200D01*
X238475000Y-126358200D01*
X238575000Y-126408200D01*
X238725000Y-126408200D01*
X237925000Y-126408200D02*
X237925000Y-125708200D01*
X237925000Y-125808200D02*
X237875000Y-125758200D01*
X237775000Y-125708200D01*
X237625000Y-125708200D01*
X237525000Y-125758200D01*
X237475000Y-125858200D01*
X237475000Y-126408200D01*
X237475000Y-125858200D02*
X237425000Y-125758200D01*
X237325000Y-125708200D01*
X237175000Y-125708200D01*
X237075000Y-125758200D01*
X237025000Y-125858200D01*
X237025000Y-126408200D01*
X235775000Y-125308200D02*
X236675000Y-126658200D01*
X235425000Y-126408200D02*
X235425000Y-125358200D01*
X234825000Y-126408200D02*
X235275000Y-125808200D01*
X234825000Y-125358200D02*
X235425000Y-125958200D01*
X233925000Y-126408200D02*
X233925000Y-125858200D01*
X233975000Y-125758200D01*
X234075000Y-125708200D01*
X234275000Y-125708200D01*
X234375000Y-125758200D01*
X233925000Y-126358200D02*
X234025000Y-126408200D01*
X234275000Y-126408200D01*
X234375000Y-126358200D01*
X234425000Y-126258200D01*
X234425000Y-126158200D01*
X234375000Y-126058200D01*
X234275000Y-126008200D01*
X234025000Y-126008200D01*
X233925000Y-125958200D01*
X233425000Y-126408200D02*
X233425000Y-125708200D01*
X233425000Y-125358200D02*
X233475000Y-125408200D01*
X233425000Y-125458200D01*
X233375000Y-125408200D01*
X233425000Y-125358200D01*
X233425000Y-125458200D01*
X232975000Y-126358200D02*
X232875000Y-126408200D01*
X232675000Y-126408200D01*
X232575000Y-126358200D01*
X232525000Y-126258200D01*
X232525000Y-126208200D01*
X232575000Y-126108200D01*
X232675000Y-126058200D01*
X232825000Y-126058200D01*
X232925000Y-126008200D01*
X232975000Y-125908200D01*
X232975000Y-125858200D01*
X232925000Y-125758200D01*
X232825000Y-125708200D01*
X232675000Y-125708200D01*
X232575000Y-125758200D01*
X231675000Y-126358200D02*
X231775000Y-126408200D01*
X231975000Y-126408200D01*
X232075000Y-126358200D01*
X232125000Y-126258200D01*
X232125000Y-125858200D01*
X232075000Y-125758200D01*
X231975000Y-125708200D01*
X231775000Y-125708200D01*
X231675000Y-125758200D01*
X231625000Y-125858200D01*
X231625000Y-125958200D01*
X232125000Y-126058200D01*
X231175000Y-126408200D02*
X231175000Y-125708200D01*
X231175000Y-125908200D02*
X231125000Y-125808200D01*
X231075000Y-125758200D01*
X230975000Y-125708200D01*
X230875000Y-125708200D01*
X230575000Y-126358200D02*
X230425000Y-126408200D01*
X230175000Y-126408200D01*
X230075000Y-126358200D01*
X230025000Y-126308200D01*
X229975000Y-126208200D01*
X229975000Y-126108200D01*
X230025000Y-126008200D01*
X230075000Y-125958200D01*
X230175000Y-125908200D01*
X230375000Y-125858200D01*
X230475000Y-125808200D01*
X230525000Y-125758200D01*
X230575000Y-125658200D01*
X230575000Y-125558200D01*
X230525000Y-125458200D01*
X230475000Y-125408200D01*
X230375000Y-125358200D01*
X230125000Y-125358200D01*
X229975000Y-125408200D01*
X229375000Y-126408200D02*
X229475000Y-126358200D01*
X229525000Y-126308200D01*
X229575000Y-126208200D01*
X229575000Y-125908200D01*
X229525000Y-125808200D01*
X229475000Y-125758200D01*
X229375000Y-125708200D01*
X229225000Y-125708200D01*
X229125000Y-125758200D01*
X229075000Y-125808200D01*
X229025000Y-125908200D01*
X229025000Y-126208200D01*
X229075000Y-126308200D01*
X229125000Y-126358200D01*
X229225000Y-126408200D01*
X229375000Y-126408200D01*
X228725000Y-125708200D02*
X228325000Y-125708200D01*
X228575000Y-126408200D02*
X228575000Y-125508200D01*
X228525000Y-125408200D01*
X228425000Y-125358200D01*
X228325000Y-125358200D01*
X228125000Y-125708200D02*
X227725000Y-125708200D01*
X227975000Y-125358200D02*
X227975000Y-126258200D01*
X227925000Y-126358200D01*
X227825000Y-126408200D01*
X227725000Y-126408200D01*
X226625000Y-125308200D02*
X227525000Y-126658200D01*
X226075000Y-125358200D02*
X225875000Y-125358200D01*
X225775000Y-125408200D01*
X225675000Y-125508200D01*
X225625000Y-125708200D01*
X225625000Y-126058200D01*
X225675000Y-126258200D01*
X225775000Y-126358200D01*
X225875000Y-126408200D01*
X226075000Y-126408200D01*
X226175000Y-126358200D01*
X226275000Y-126258200D01*
X226325000Y-126058200D01*
X226325000Y-125708200D01*
X226275000Y-125508200D01*
X226175000Y-125408200D01*
X226075000Y-125358200D01*
X225175000Y-125708200D02*
X225175000Y-126758200D01*
X225175000Y-125758200D02*
X225075000Y-125708200D01*
X224875000Y-125708200D01*
X224775000Y-125758200D01*
X224725000Y-125808200D01*
X224675000Y-125908200D01*
X224675000Y-126208200D01*
X224725000Y-126308200D01*
X224775000Y-126358200D01*
X224875000Y-126408200D01*
X225075000Y-126408200D01*
X225175000Y-126358200D01*
X223825000Y-126358200D02*
X223925000Y-126408200D01*
X224125000Y-126408200D01*
X224225000Y-126358200D01*
X224275000Y-126258200D01*
X224275000Y-125858200D01*
X224225000Y-125758200D01*
X224125000Y-125708200D01*
X223925000Y-125708200D01*
X223825000Y-125758200D01*
X223775000Y-125858200D01*
X223775000Y-125958200D01*
X224275000Y-126058200D01*
X223325000Y-125708200D02*
X223325000Y-126408200D01*
X223325000Y-125808200D02*
X223275000Y-125758200D01*
X223175000Y-125708200D01*
X223025000Y-125708200D01*
X222925000Y-125758200D01*
X222875000Y-125858200D01*
X222875000Y-126408200D01*
X222425000Y-126358200D02*
X222275000Y-126408200D01*
X222025000Y-126408200D01*
X221925000Y-126358200D01*
X221875000Y-126308200D01*
X221825000Y-126208200D01*
X221825000Y-126108200D01*
X221875000Y-126008200D01*
X221925000Y-125958200D01*
X222025000Y-125908200D01*
X222225000Y-125858200D01*
X222325000Y-125808200D01*
X222375000Y-125758200D01*
X222425000Y-125658200D01*
X222425000Y-125558200D01*
X222375000Y-125458200D01*
X222325000Y-125408200D01*
X222225000Y-125358200D01*
X221975000Y-125358200D01*
X221825000Y-125408200D01*
X221375000Y-126408200D02*
X221375000Y-125708200D01*
X221375000Y-125358200D02*
X221425000Y-125408200D01*
X221375000Y-125458200D01*
X221325000Y-125408200D01*
X221375000Y-125358200D01*
X221375000Y-125458200D01*
X220875000Y-126408200D02*
X220875000Y-125708200D01*
X220875000Y-125808200D02*
X220825000Y-125758200D01*
X220725000Y-125708200D01*
X220575000Y-125708200D01*
X220475000Y-125758200D01*
X220425000Y-125858200D01*
X220425000Y-126408200D01*
X220425000Y-125858200D02*
X220375000Y-125758200D01*
X220275000Y-125708200D01*
X220125000Y-125708200D01*
X220025000Y-125758200D01*
X219975000Y-125858200D01*
X219975000Y-126408200D01*
X219125000Y-125858200D02*
X218975000Y-125908200D01*
X218925000Y-125958200D01*
X218875000Y-126058200D01*
X218875000Y-126208200D01*
X218925000Y-126308200D01*
X218975000Y-126358200D01*
X219075000Y-126408200D01*
X219475000Y-126408200D01*
X219475000Y-125358200D01*
X219125000Y-125358200D01*
X219025000Y-125408200D01*
X218975000Y-125458200D01*
X218925000Y-125558200D01*
X218925000Y-125658200D01*
X218975000Y-125758200D01*
X219025000Y-125808200D01*
X219125000Y-125858200D01*
X219475000Y-125858200D01*
X217975000Y-125708200D02*
X217975000Y-126408200D01*
X218425000Y-125708200D02*
X218425000Y-126258200D01*
X218375000Y-126358200D01*
X218275000Y-126408200D01*
X218125000Y-126408200D01*
X218025000Y-126358200D01*
X217975000Y-126308200D01*
X217625000Y-125708200D02*
X217225000Y-125708200D01*
X217475000Y-125358200D02*
X217475000Y-126258200D01*
X217425000Y-126358200D01*
X217325000Y-126408200D01*
X217225000Y-126408200D01*
X217025000Y-125708200D02*
X216625000Y-125708200D01*
X216875000Y-125358200D02*
X216875000Y-126258200D01*
X216825000Y-126358200D01*
X216725000Y-126408200D01*
X216625000Y-126408200D01*
X216125000Y-126408200D02*
X216225000Y-126358200D01*
X216275000Y-126308200D01*
X216325000Y-126208200D01*
X216325000Y-125908200D01*
X216275000Y-125808200D01*
X216225000Y-125758200D01*
X216125000Y-125708200D01*
X215975000Y-125708200D01*
X215875000Y-125758200D01*
X215825000Y-125808200D01*
X215775000Y-125908200D01*
X215775000Y-126208200D01*
X215825000Y-126308200D01*
X215875000Y-126358200D01*
X215975000Y-126408200D01*
X216125000Y-126408200D01*
X215325000Y-125708200D02*
X215325000Y-126408200D01*
X215325000Y-125808200D02*
X215275000Y-125758200D01*
X215175000Y-125708200D01*
X215025000Y-125708200D01*
X214925000Y-125758200D01*
X214875000Y-125858200D01*
X214875000Y-126408200D01*
X214025000Y-125858200D02*
X213875000Y-125908200D01*
X213825000Y-125958200D01*
X213775000Y-126058200D01*
X213775000Y-126208200D01*
X213825000Y-126308200D01*
X213875000Y-126358200D01*
X213975000Y-126408200D01*
X214375000Y-126408200D01*
X214375000Y-125358200D01*
X214025000Y-125358200D01*
X213925000Y-125408200D01*
X213875000Y-125458200D01*
X213825000Y-125558200D01*
X213825000Y-125658200D01*
X213875000Y-125758200D01*
X213925000Y-125808200D01*
X214025000Y-125858200D01*
X214375000Y-125858200D01*
X213175000Y-126408200D02*
X213275000Y-126358200D01*
X213325000Y-126308200D01*
X213375000Y-126208200D01*
X213375000Y-125908200D01*
X213325000Y-125808200D01*
X213275000Y-125758200D01*
X213175000Y-125708200D01*
X213025000Y-125708200D01*
X212925000Y-125758200D01*
X212875000Y-125808200D01*
X212825000Y-125908200D01*
X212825000Y-126208200D01*
X212875000Y-126308200D01*
X212925000Y-126358200D01*
X213025000Y-126408200D01*
X213175000Y-126408200D01*
X212475000Y-126408200D02*
X211925000Y-125708200D01*
X212475000Y-125708200D02*
X211925000Y-126408200D01*
D14*
X245184657Y-124452771D02*
X245184657Y-122952771D01*
X244684657Y-124024200D01*
X244184657Y-122952771D01*
X244184657Y-124452771D01*
X243256085Y-124452771D02*
X243398943Y-124381343D01*
X243470371Y-124309914D01*
X243541800Y-124167057D01*
X243541800Y-123738486D01*
X243470371Y-123595629D01*
X243398943Y-123524200D01*
X243256085Y-123452771D01*
X243041800Y-123452771D01*
X242898943Y-123524200D01*
X242827514Y-123595629D01*
X242756085Y-123738486D01*
X242756085Y-124167057D01*
X242827514Y-124309914D01*
X242898943Y-124381343D01*
X243041800Y-124452771D01*
X243256085Y-124452771D01*
X241470371Y-124452771D02*
X241470371Y-122952771D01*
X241470371Y-124381343D02*
X241613228Y-124452771D01*
X241898942Y-124452771D01*
X242041800Y-124381343D01*
X242113228Y-124309914D01*
X242184657Y-124167057D01*
X242184657Y-123738486D01*
X242113228Y-123595629D01*
X242041800Y-123524200D01*
X241898942Y-123452771D01*
X241613228Y-123452771D01*
X241470371Y-123524200D01*
X240113228Y-123452771D02*
X240113228Y-124452771D01*
X240756085Y-123452771D02*
X240756085Y-124238486D01*
X240684657Y-124381343D01*
X240541799Y-124452771D01*
X240327514Y-124452771D01*
X240184657Y-124381343D01*
X240113228Y-124309914D01*
X239184656Y-124452771D02*
X239327514Y-124381343D01*
X239398942Y-124238486D01*
X239398942Y-122952771D01*
X237970371Y-124452771D02*
X237970371Y-123667057D01*
X238041800Y-123524200D01*
X238184657Y-123452771D01*
X238470371Y-123452771D01*
X238613228Y-123524200D01*
X237970371Y-124381343D02*
X238113228Y-124452771D01*
X238470371Y-124452771D01*
X238613228Y-124381343D01*
X238684657Y-124238486D01*
X238684657Y-124095629D01*
X238613228Y-123952771D01*
X238470371Y-123881343D01*
X238113228Y-123881343D01*
X237970371Y-123809914D01*
X237256085Y-124452771D02*
X237256085Y-123452771D01*
X237256085Y-123738486D02*
X237184657Y-123595629D01*
X237113228Y-123524200D01*
X236970371Y-123452771D01*
X236827514Y-123452771D01*
X234898943Y-122952771D02*
X234613229Y-122952771D01*
X234470371Y-123024200D01*
X234327514Y-123167057D01*
X234256086Y-123452771D01*
X234256086Y-123952771D01*
X234327514Y-124238486D01*
X234470371Y-124381343D01*
X234613229Y-124452771D01*
X234898943Y-124452771D01*
X235041800Y-124381343D01*
X235184657Y-124238486D01*
X235256086Y-123952771D01*
X235256086Y-123452771D01*
X235184657Y-123167057D01*
X235041800Y-123024200D01*
X234898943Y-122952771D01*
X233613228Y-123452771D02*
X233613228Y-124952771D01*
X233613228Y-123524200D02*
X233470371Y-123452771D01*
X233184657Y-123452771D01*
X233041800Y-123524200D01*
X232970371Y-123595629D01*
X232898942Y-123738486D01*
X232898942Y-124167057D01*
X232970371Y-124309914D01*
X233041800Y-124381343D01*
X233184657Y-124452771D01*
X233470371Y-124452771D01*
X233613228Y-124381343D01*
X231684657Y-124381343D02*
X231827514Y-124452771D01*
X232113228Y-124452771D01*
X232256085Y-124381343D01*
X232327514Y-124238486D01*
X232327514Y-123667057D01*
X232256085Y-123524200D01*
X232113228Y-123452771D01*
X231827514Y-123452771D01*
X231684657Y-123524200D01*
X231613228Y-123667057D01*
X231613228Y-123809914D01*
X232327514Y-123952771D01*
X230970371Y-123452771D02*
X230970371Y-124452771D01*
X230970371Y-123595629D02*
X230898943Y-123524200D01*
X230756085Y-123452771D01*
X230541800Y-123452771D01*
X230398943Y-123524200D01*
X230327514Y-123667057D01*
X230327514Y-124452771D01*
X227970371Y-123667057D02*
X227756085Y-123738486D01*
X227684657Y-123809914D01*
X227613228Y-123952771D01*
X227613228Y-124167057D01*
X227684657Y-124309914D01*
X227756085Y-124381343D01*
X227898943Y-124452771D01*
X228470371Y-124452771D01*
X228470371Y-122952771D01*
X227970371Y-122952771D01*
X227827514Y-123024200D01*
X227756085Y-123095629D01*
X227684657Y-123238486D01*
X227684657Y-123381343D01*
X227756085Y-123524200D01*
X227827514Y-123595629D01*
X227970371Y-123667057D01*
X228470371Y-123667057D01*
X226327514Y-123452771D02*
X226327514Y-124452771D01*
X226970371Y-123452771D02*
X226970371Y-124238486D01*
X226898943Y-124381343D01*
X226756085Y-124452771D01*
X226541800Y-124452771D01*
X226398943Y-124381343D01*
X226327514Y-124309914D01*
X225827514Y-123452771D02*
X225256085Y-123452771D01*
X225613228Y-122952771D02*
X225613228Y-124238486D01*
X225541800Y-124381343D01*
X225398942Y-124452771D01*
X225256085Y-124452771D01*
X224970371Y-123452771D02*
X224398942Y-123452771D01*
X224756085Y-122952771D02*
X224756085Y-124238486D01*
X224684657Y-124381343D01*
X224541799Y-124452771D01*
X224398942Y-124452771D01*
X223684656Y-124452771D02*
X223827514Y-124381343D01*
X223898942Y-124309914D01*
X223970371Y-124167057D01*
X223970371Y-123738486D01*
X223898942Y-123595629D01*
X223827514Y-123524200D01*
X223684656Y-123452771D01*
X223470371Y-123452771D01*
X223327514Y-123524200D01*
X223256085Y-123595629D01*
X223184656Y-123738486D01*
X223184656Y-124167057D01*
X223256085Y-124309914D01*
X223327514Y-124381343D01*
X223470371Y-124452771D01*
X223684656Y-124452771D01*
X222541799Y-123452771D02*
X222541799Y-124452771D01*
X222541799Y-123595629D02*
X222470371Y-123524200D01*
X222327513Y-123452771D01*
X222113228Y-123452771D01*
X221970371Y-123524200D01*
X221898942Y-123667057D01*
X221898942Y-124452771D01*
X219541799Y-123667057D02*
X219327513Y-123738486D01*
X219256085Y-123809914D01*
X219184656Y-123952771D01*
X219184656Y-124167057D01*
X219256085Y-124309914D01*
X219327513Y-124381343D01*
X219470371Y-124452771D01*
X220041799Y-124452771D01*
X220041799Y-122952771D01*
X219541799Y-122952771D01*
X219398942Y-123024200D01*
X219327513Y-123095629D01*
X219256085Y-123238486D01*
X219256085Y-123381343D01*
X219327513Y-123524200D01*
X219398942Y-123595629D01*
X219541799Y-123667057D01*
X220041799Y-123667057D01*
X218327513Y-124452771D02*
X218470371Y-124381343D01*
X218541799Y-124309914D01*
X218613228Y-124167057D01*
X218613228Y-123738486D01*
X218541799Y-123595629D01*
X218470371Y-123524200D01*
X218327513Y-123452771D01*
X218113228Y-123452771D01*
X217970371Y-123524200D01*
X217898942Y-123595629D01*
X217827513Y-123738486D01*
X217827513Y-124167057D01*
X217898942Y-124309914D01*
X217970371Y-124381343D01*
X218113228Y-124452771D01*
X218327513Y-124452771D01*
X217327513Y-124452771D02*
X216541799Y-123452771D01*
X217327513Y-123452771D02*
X216541799Y-124452771D01*
X214398942Y-125024200D02*
X214470370Y-124952771D01*
X214613227Y-124738486D01*
X214684656Y-124595629D01*
X214756085Y-124381343D01*
X214827513Y-124024200D01*
X214827513Y-123738486D01*
X214756085Y-123381343D01*
X214684656Y-123167057D01*
X214613227Y-123024200D01*
X214470370Y-122809914D01*
X214398942Y-122738486D01*
X213827513Y-124452771D02*
X213827513Y-122952771D01*
X213327513Y-124024200D01*
X212827513Y-122952771D01*
X212827513Y-124452771D01*
X211827513Y-122952771D02*
X211541799Y-122952771D01*
X211398941Y-123024200D01*
X211256084Y-123167057D01*
X211184656Y-123452771D01*
X211184656Y-123952771D01*
X211256084Y-124238486D01*
X211398941Y-124381343D01*
X211541799Y-124452771D01*
X211827513Y-124452771D01*
X211970370Y-124381343D01*
X212113227Y-124238486D01*
X212184656Y-123952771D01*
X212184656Y-123452771D01*
X212113227Y-123167057D01*
X211970370Y-123024200D01*
X211827513Y-122952771D01*
X210041798Y-123667057D02*
X209827512Y-123738486D01*
X209756084Y-123809914D01*
X209684655Y-123952771D01*
X209684655Y-124167057D01*
X209756084Y-124309914D01*
X209827512Y-124381343D01*
X209970370Y-124452771D01*
X210541798Y-124452771D01*
X210541798Y-122952771D01*
X210041798Y-122952771D01*
X209898941Y-123024200D01*
X209827512Y-123095629D01*
X209756084Y-123238486D01*
X209756084Y-123381343D01*
X209827512Y-123524200D01*
X209898941Y-123595629D01*
X210041798Y-123667057D01*
X210541798Y-123667057D01*
X208541798Y-123667057D02*
X208327512Y-123738486D01*
X208256084Y-123809914D01*
X208184655Y-123952771D01*
X208184655Y-124167057D01*
X208256084Y-124309914D01*
X208327512Y-124381343D01*
X208470370Y-124452771D01*
X209041798Y-124452771D01*
X209041798Y-122952771D01*
X208541798Y-122952771D01*
X208398941Y-123024200D01*
X208327512Y-123095629D01*
X208256084Y-123238486D01*
X208256084Y-123381343D01*
X208327512Y-123524200D01*
X208398941Y-123595629D01*
X208541798Y-123667057D01*
X209041798Y-123667057D01*
X207684655Y-125024200D02*
X207613227Y-124952771D01*
X207470370Y-124738486D01*
X207398941Y-124595629D01*
X207327512Y-124381343D01*
X207256084Y-124024200D01*
X207256084Y-123738486D01*
X207327512Y-123381343D01*
X207398941Y-123167057D01*
X207470370Y-123024200D01*
X207613227Y-122809914D01*
X207684655Y-122738486D01*
D15*
G36*
X182854600Y-139349480D02*
X182846980Y-139367260D01*
X182824120Y-139400280D01*
X182791100Y-139451080D01*
X182753000Y-139509500D01*
X182712360Y-139570460D01*
X182679340Y-139618720D01*
X182656480Y-139654280D01*
X182648860Y-139666980D01*
X182651400Y-139674600D01*
X182666640Y-139702540D01*
X182686960Y-139743180D01*
X182699660Y-139768580D01*
X182714900Y-139806680D01*
X182719980Y-139824460D01*
X182714900Y-139827000D01*
X182684420Y-139842240D01*
X182636160Y-139862560D01*
X182570120Y-139890500D01*
X182493920Y-139923520D01*
X182412640Y-139959080D01*
X182328820Y-139992100D01*
X182250080Y-140025120D01*
X182176420Y-140055600D01*
X182118000Y-140078460D01*
X182077360Y-140093700D01*
X182059580Y-140101320D01*
X182057040Y-140098780D01*
X182039260Y-140081000D01*
X182013860Y-140047980D01*
X181955440Y-139976860D01*
X181869080Y-139905740D01*
X181770020Y-139862560D01*
X181658260Y-139849860D01*
X181556660Y-139860020D01*
X181460140Y-139900660D01*
X181371240Y-139969240D01*
X181305200Y-140053060D01*
X181264560Y-140149580D01*
X181251860Y-140258800D01*
X181262020Y-140362940D01*
X181302660Y-140462000D01*
X181368700Y-140550900D01*
X181411880Y-140589000D01*
X181503320Y-140639800D01*
X181597300Y-140670280D01*
X181620160Y-140672820D01*
X181726840Y-140667740D01*
X181828440Y-140637260D01*
X181917340Y-140581380D01*
X181991000Y-140505180D01*
X181998620Y-140495020D01*
X182026560Y-140459460D01*
X182044340Y-140434060D01*
X182059580Y-140416280D01*
X182382160Y-140550900D01*
X182432960Y-140571220D01*
X182521860Y-140609320D01*
X182598060Y-140639800D01*
X182659020Y-140667740D01*
X182699660Y-140685520D01*
X182714900Y-140693140D01*
X182714900Y-140693140D01*
X182717440Y-140705840D01*
X182709820Y-140728700D01*
X182686960Y-140774420D01*
X182671720Y-140804900D01*
X182656480Y-140837920D01*
X182648860Y-140853160D01*
X182656480Y-140868400D01*
X182676800Y-140901420D01*
X182709820Y-140947140D01*
X182747920Y-141005560D01*
X182786020Y-141061440D01*
X182819040Y-141112240D01*
X182844440Y-141147800D01*
X182852060Y-141165580D01*
X182852060Y-141168120D01*
X182844440Y-141185900D01*
X182819040Y-141213840D01*
X182778400Y-141257020D01*
X182717440Y-141320520D01*
X182707280Y-141330680D01*
X182656480Y-141381480D01*
X182610760Y-141422120D01*
X182580280Y-141450060D01*
X182567580Y-141460220D01*
X182567580Y-141460220D01*
X182549800Y-141450060D01*
X182511700Y-141427200D01*
X182460900Y-141394180D01*
X182399940Y-141353540D01*
X182245000Y-141246860D01*
X182100220Y-141305280D01*
X182054500Y-141323060D01*
X181998620Y-141345920D01*
X181960520Y-141363700D01*
X181942740Y-141371320D01*
X181937660Y-141389100D01*
X181927500Y-141427200D01*
X181917340Y-141485620D01*
X181904640Y-141556740D01*
X181891940Y-141622780D01*
X181879240Y-141681200D01*
X181871620Y-141724380D01*
X181869080Y-141744700D01*
X181864000Y-141749780D01*
X181856380Y-141752320D01*
X181836060Y-141754860D01*
X181797960Y-141757400D01*
X181742080Y-141757400D01*
X181658260Y-141757400D01*
X181650640Y-141757400D01*
X181571900Y-141757400D01*
X181508400Y-141754860D01*
X181470300Y-141752320D01*
X181452520Y-141749780D01*
X181452520Y-141749780D01*
X181447440Y-141732000D01*
X181439820Y-141688820D01*
X181427120Y-141630400D01*
X181414420Y-141559280D01*
X181414420Y-141554200D01*
X181399180Y-141483080D01*
X181386480Y-141424660D01*
X181378860Y-141381480D01*
X181371240Y-141363700D01*
X181366160Y-141361160D01*
X181338220Y-141345920D01*
X181295040Y-141325600D01*
X181241700Y-141302740D01*
X181185820Y-141279880D01*
X181135020Y-141259560D01*
X181099460Y-141246860D01*
X181081680Y-141241780D01*
X181081680Y-141241780D01*
X181063900Y-141251940D01*
X181028340Y-141277340D01*
X180977540Y-141312900D01*
X180916580Y-141353540D01*
X180911500Y-141356080D01*
X180850540Y-141396720D01*
X180799740Y-141429740D01*
X180764180Y-141452600D01*
X180748940Y-141460220D01*
X180746400Y-141460220D01*
X180728620Y-141447520D01*
X180695600Y-141417040D01*
X180649880Y-141371320D01*
X180596540Y-141320520D01*
X180581300Y-141302740D01*
X180522880Y-141244320D01*
X180487320Y-141203680D01*
X180467000Y-141178280D01*
X180461920Y-141168120D01*
X180461920Y-141165580D01*
X180472080Y-141147800D01*
X180497480Y-141109700D01*
X180533040Y-141058900D01*
X180573680Y-140997940D01*
X180576220Y-140995400D01*
X180616860Y-140934440D01*
X180652420Y-140883640D01*
X180675280Y-140848080D01*
X180682900Y-140832840D01*
X180682900Y-140830300D01*
X180677820Y-140807440D01*
X180662580Y-140764260D01*
X180642260Y-140710920D01*
X180619400Y-140655040D01*
X180599080Y-140604240D01*
X180581300Y-140568680D01*
X180571140Y-140550900D01*
X180571140Y-140548360D01*
X180548280Y-140543280D01*
X180502560Y-140533120D01*
X180441600Y-140520420D01*
X180367940Y-140505180D01*
X180357780Y-140502640D01*
X180284120Y-140489940D01*
X180225700Y-140479780D01*
X180185060Y-140469620D01*
X180167280Y-140467080D01*
X180167280Y-140456920D01*
X180164740Y-140421360D01*
X180162200Y-140368020D01*
X180162200Y-140301980D01*
X180162200Y-140235940D01*
X180162200Y-140169900D01*
X180164740Y-140114020D01*
X180167280Y-140073380D01*
X180172360Y-140055600D01*
X180172360Y-140055600D01*
X180195220Y-140050520D01*
X180238400Y-140040360D01*
X180301900Y-140027660D01*
X180375560Y-140012420D01*
X180388260Y-140009880D01*
X180459380Y-139997180D01*
X180517800Y-139984480D01*
X180558440Y-139976860D01*
X180573680Y-139971780D01*
X180576220Y-139966700D01*
X180591460Y-139936220D01*
X180609240Y-139887960D01*
X180634640Y-139829540D01*
X180690520Y-139692380D01*
X180573680Y-139524740D01*
X180563520Y-139509500D01*
X180522880Y-139448540D01*
X180489860Y-139397740D01*
X180467000Y-139362180D01*
X180459380Y-139349480D01*
X180459380Y-139346940D01*
X180474620Y-139331700D01*
X180505100Y-139298680D01*
X180550820Y-139252960D01*
X180601620Y-139199620D01*
X180642260Y-139158980D01*
X180687980Y-139113260D01*
X180721000Y-139085320D01*
X180741320Y-139067540D01*
X180754020Y-139062460D01*
X180761640Y-139065000D01*
X180779420Y-139075160D01*
X180814980Y-139100560D01*
X180868320Y-139133580D01*
X180926740Y-139174220D01*
X180977540Y-139209780D01*
X181033420Y-139245340D01*
X181074060Y-139268200D01*
X181091840Y-139278360D01*
X181102000Y-139275820D01*
X181135020Y-139263120D01*
X181183280Y-139242800D01*
X181244240Y-139217400D01*
X181376320Y-139158980D01*
X181394100Y-139072620D01*
X181404260Y-139019280D01*
X181416960Y-138945620D01*
X181432200Y-138874500D01*
X181452520Y-138762740D01*
X181856380Y-138760200D01*
X181864000Y-138777980D01*
X181869080Y-138793220D01*
X181879240Y-138833860D01*
X181889400Y-138892280D01*
X181902100Y-138960860D01*
X181914800Y-139021820D01*
X181924960Y-139080240D01*
X181932580Y-139123420D01*
X181937660Y-139141200D01*
X181942740Y-139146280D01*
X181973220Y-139161520D01*
X182018940Y-139181840D01*
X182072280Y-139204700D01*
X182130700Y-139230100D01*
X182181500Y-139250420D01*
X182222140Y-139265660D01*
X182242460Y-139270740D01*
X182257700Y-139263120D01*
X182293260Y-139240260D01*
X182344060Y-139207240D01*
X182402480Y-139166600D01*
X182460900Y-139125960D01*
X182511700Y-139092940D01*
X182547260Y-139067540D01*
X182565040Y-139059920D01*
X182575200Y-139065000D01*
X182603140Y-139087860D01*
X182648860Y-139131040D01*
X182714900Y-139197080D01*
X182725060Y-139209780D01*
X182775860Y-139260580D01*
X182816500Y-139306300D01*
X182844440Y-139336780D01*
X182854600Y-139349480D01*
X182854600Y-139349480D01*
G37*
X182854600Y-139349480D02*
X182846980Y-139367260D01*
X182824120Y-139400280D01*
X182791100Y-139451080D01*
X182753000Y-139509500D01*
X182712360Y-139570460D01*
X182679340Y-139618720D01*
X182656480Y-139654280D01*
X182648860Y-139666980D01*
X182651400Y-139674600D01*
X182666640Y-139702540D01*
X182686960Y-139743180D01*
X182699660Y-139768580D01*
X182714900Y-139806680D01*
X182719980Y-139824460D01*
X182714900Y-139827000D01*
X182684420Y-139842240D01*
X182636160Y-139862560D01*
X182570120Y-139890500D01*
X182493920Y-139923520D01*
X182412640Y-139959080D01*
X182328820Y-139992100D01*
X182250080Y-140025120D01*
X182176420Y-140055600D01*
X182118000Y-140078460D01*
X182077360Y-140093700D01*
X182059580Y-140101320D01*
X182057040Y-140098780D01*
X182039260Y-140081000D01*
X182013860Y-140047980D01*
X181955440Y-139976860D01*
X181869080Y-139905740D01*
X181770020Y-139862560D01*
X181658260Y-139849860D01*
X181556660Y-139860020D01*
X181460140Y-139900660D01*
X181371240Y-139969240D01*
X181305200Y-140053060D01*
X181264560Y-140149580D01*
X181251860Y-140258800D01*
X181262020Y-140362940D01*
X181302660Y-140462000D01*
X181368700Y-140550900D01*
X181411880Y-140589000D01*
X181503320Y-140639800D01*
X181597300Y-140670280D01*
X181620160Y-140672820D01*
X181726840Y-140667740D01*
X181828440Y-140637260D01*
X181917340Y-140581380D01*
X181991000Y-140505180D01*
X181998620Y-140495020D01*
X182026560Y-140459460D01*
X182044340Y-140434060D01*
X182059580Y-140416280D01*
X182382160Y-140550900D01*
X182432960Y-140571220D01*
X182521860Y-140609320D01*
X182598060Y-140639800D01*
X182659020Y-140667740D01*
X182699660Y-140685520D01*
X182714900Y-140693140D01*
X182714900Y-140693140D01*
X182717440Y-140705840D01*
X182709820Y-140728700D01*
X182686960Y-140774420D01*
X182671720Y-140804900D01*
X182656480Y-140837920D01*
X182648860Y-140853160D01*
X182656480Y-140868400D01*
X182676800Y-140901420D01*
X182709820Y-140947140D01*
X182747920Y-141005560D01*
X182786020Y-141061440D01*
X182819040Y-141112240D01*
X182844440Y-141147800D01*
X182852060Y-141165580D01*
X182852060Y-141168120D01*
X182844440Y-141185900D01*
X182819040Y-141213840D01*
X182778400Y-141257020D01*
X182717440Y-141320520D01*
X182707280Y-141330680D01*
X182656480Y-141381480D01*
X182610760Y-141422120D01*
X182580280Y-141450060D01*
X182567580Y-141460220D01*
X182567580Y-141460220D01*
X182549800Y-141450060D01*
X182511700Y-141427200D01*
X182460900Y-141394180D01*
X182399940Y-141353540D01*
X182245000Y-141246860D01*
X182100220Y-141305280D01*
X182054500Y-141323060D01*
X181998620Y-141345920D01*
X181960520Y-141363700D01*
X181942740Y-141371320D01*
X181937660Y-141389100D01*
X181927500Y-141427200D01*
X181917340Y-141485620D01*
X181904640Y-141556740D01*
X181891940Y-141622780D01*
X181879240Y-141681200D01*
X181871620Y-141724380D01*
X181869080Y-141744700D01*
X181864000Y-141749780D01*
X181856380Y-141752320D01*
X181836060Y-141754860D01*
X181797960Y-141757400D01*
X181742080Y-141757400D01*
X181658260Y-141757400D01*
X181650640Y-141757400D01*
X181571900Y-141757400D01*
X181508400Y-141754860D01*
X181470300Y-141752320D01*
X181452520Y-141749780D01*
X181452520Y-141749780D01*
X181447440Y-141732000D01*
X181439820Y-141688820D01*
X181427120Y-141630400D01*
X181414420Y-141559280D01*
X181414420Y-141554200D01*
X181399180Y-141483080D01*
X181386480Y-141424660D01*
X181378860Y-141381480D01*
X181371240Y-141363700D01*
X181366160Y-141361160D01*
X181338220Y-141345920D01*
X181295040Y-141325600D01*
X181241700Y-141302740D01*
X181185820Y-141279880D01*
X181135020Y-141259560D01*
X181099460Y-141246860D01*
X181081680Y-141241780D01*
X181081680Y-141241780D01*
X181063900Y-141251940D01*
X181028340Y-141277340D01*
X180977540Y-141312900D01*
X180916580Y-141353540D01*
X180911500Y-141356080D01*
X180850540Y-141396720D01*
X180799740Y-141429740D01*
X180764180Y-141452600D01*
X180748940Y-141460220D01*
X180746400Y-141460220D01*
X180728620Y-141447520D01*
X180695600Y-141417040D01*
X180649880Y-141371320D01*
X180596540Y-141320520D01*
X180581300Y-141302740D01*
X180522880Y-141244320D01*
X180487320Y-141203680D01*
X180467000Y-141178280D01*
X180461920Y-141168120D01*
X180461920Y-141165580D01*
X180472080Y-141147800D01*
X180497480Y-141109700D01*
X180533040Y-141058900D01*
X180573680Y-140997940D01*
X180576220Y-140995400D01*
X180616860Y-140934440D01*
X180652420Y-140883640D01*
X180675280Y-140848080D01*
X180682900Y-140832840D01*
X180682900Y-140830300D01*
X180677820Y-140807440D01*
X180662580Y-140764260D01*
X180642260Y-140710920D01*
X180619400Y-140655040D01*
X180599080Y-140604240D01*
X180581300Y-140568680D01*
X180571140Y-140550900D01*
X180571140Y-140548360D01*
X180548280Y-140543280D01*
X180502560Y-140533120D01*
X180441600Y-140520420D01*
X180367940Y-140505180D01*
X180357780Y-140502640D01*
X180284120Y-140489940D01*
X180225700Y-140479780D01*
X180185060Y-140469620D01*
X180167280Y-140467080D01*
X180167280Y-140456920D01*
X180164740Y-140421360D01*
X180162200Y-140368020D01*
X180162200Y-140301980D01*
X180162200Y-140235940D01*
X180162200Y-140169900D01*
X180164740Y-140114020D01*
X180167280Y-140073380D01*
X180172360Y-140055600D01*
X180172360Y-140055600D01*
X180195220Y-140050520D01*
X180238400Y-140040360D01*
X180301900Y-140027660D01*
X180375560Y-140012420D01*
X180388260Y-140009880D01*
X180459380Y-139997180D01*
X180517800Y-139984480D01*
X180558440Y-139976860D01*
X180573680Y-139971780D01*
X180576220Y-139966700D01*
X180591460Y-139936220D01*
X180609240Y-139887960D01*
X180634640Y-139829540D01*
X180690520Y-139692380D01*
X180573680Y-139524740D01*
X180563520Y-139509500D01*
X180522880Y-139448540D01*
X180489860Y-139397740D01*
X180467000Y-139362180D01*
X180459380Y-139349480D01*
X180459380Y-139346940D01*
X180474620Y-139331700D01*
X180505100Y-139298680D01*
X180550820Y-139252960D01*
X180601620Y-139199620D01*
X180642260Y-139158980D01*
X180687980Y-139113260D01*
X180721000Y-139085320D01*
X180741320Y-139067540D01*
X180754020Y-139062460D01*
X180761640Y-139065000D01*
X180779420Y-139075160D01*
X180814980Y-139100560D01*
X180868320Y-139133580D01*
X180926740Y-139174220D01*
X180977540Y-139209780D01*
X181033420Y-139245340D01*
X181074060Y-139268200D01*
X181091840Y-139278360D01*
X181102000Y-139275820D01*
X181135020Y-139263120D01*
X181183280Y-139242800D01*
X181244240Y-139217400D01*
X181376320Y-139158980D01*
X181394100Y-139072620D01*
X181404260Y-139019280D01*
X181416960Y-138945620D01*
X181432200Y-138874500D01*
X181452520Y-138762740D01*
X181856380Y-138760200D01*
X181864000Y-138777980D01*
X181869080Y-138793220D01*
X181879240Y-138833860D01*
X181889400Y-138892280D01*
X181902100Y-138960860D01*
X181914800Y-139021820D01*
X181924960Y-139080240D01*
X181932580Y-139123420D01*
X181937660Y-139141200D01*
X181942740Y-139146280D01*
X181973220Y-139161520D01*
X182018940Y-139181840D01*
X182072280Y-139204700D01*
X182130700Y-139230100D01*
X182181500Y-139250420D01*
X182222140Y-139265660D01*
X182242460Y-139270740D01*
X182257700Y-139263120D01*
X182293260Y-139240260D01*
X182344060Y-139207240D01*
X182402480Y-139166600D01*
X182460900Y-139125960D01*
X182511700Y-139092940D01*
X182547260Y-139067540D01*
X182565040Y-139059920D01*
X182575200Y-139065000D01*
X182603140Y-139087860D01*
X182648860Y-139131040D01*
X182714900Y-139197080D01*
X182725060Y-139209780D01*
X182775860Y-139260580D01*
X182816500Y-139306300D01*
X182844440Y-139336780D01*
X182854600Y-139349480D01*
G36*
X218155520Y-130784600D02*
X218137740Y-130776980D01*
X218104720Y-130754120D01*
X218053920Y-130721100D01*
X217995500Y-130683000D01*
X217934540Y-130642360D01*
X217886280Y-130609340D01*
X217850720Y-130586480D01*
X217838020Y-130578860D01*
X217830400Y-130581400D01*
X217802460Y-130596640D01*
X217761820Y-130616960D01*
X217736420Y-130629660D01*
X217698320Y-130644900D01*
X217680540Y-130649980D01*
X217678000Y-130644900D01*
X217662760Y-130614420D01*
X217642440Y-130566160D01*
X217614500Y-130500120D01*
X217581480Y-130423920D01*
X217545920Y-130342640D01*
X217512900Y-130258820D01*
X217479880Y-130180080D01*
X217449400Y-130106420D01*
X217426540Y-130048000D01*
X217411300Y-130007360D01*
X217403680Y-129989580D01*
X217406220Y-129987040D01*
X217424000Y-129969260D01*
X217457020Y-129943860D01*
X217528140Y-129885440D01*
X217599260Y-129799080D01*
X217642440Y-129700020D01*
X217655140Y-129588260D01*
X217644980Y-129486660D01*
X217604340Y-129390140D01*
X217535760Y-129301240D01*
X217451940Y-129235200D01*
X217355420Y-129194560D01*
X217246200Y-129181860D01*
X217142060Y-129192020D01*
X217043000Y-129232660D01*
X216954100Y-129298700D01*
X216916000Y-129341880D01*
X216865200Y-129433320D01*
X216834720Y-129527300D01*
X216832180Y-129550160D01*
X216837260Y-129656840D01*
X216867740Y-129758440D01*
X216923620Y-129847340D01*
X216999820Y-129921000D01*
X217009980Y-129928620D01*
X217045540Y-129956560D01*
X217070940Y-129974340D01*
X217088720Y-129989580D01*
X216954100Y-130312160D01*
X216933780Y-130362960D01*
X216895680Y-130451860D01*
X216865200Y-130528060D01*
X216837260Y-130589020D01*
X216819480Y-130629660D01*
X216811860Y-130644900D01*
X216811860Y-130644900D01*
X216799160Y-130647440D01*
X216776300Y-130639820D01*
X216730580Y-130616960D01*
X216700100Y-130601720D01*
X216667080Y-130586480D01*
X216651840Y-130578860D01*
X216636600Y-130586480D01*
X216603580Y-130606800D01*
X216557860Y-130639820D01*
X216499440Y-130677920D01*
X216443560Y-130716020D01*
X216392760Y-130749040D01*
X216357200Y-130774440D01*
X216339420Y-130782060D01*
X216336880Y-130782060D01*
X216319100Y-130774440D01*
X216291160Y-130749040D01*
X216247980Y-130708400D01*
X216184480Y-130647440D01*
X216174320Y-130637280D01*
X216123520Y-130586480D01*
X216082880Y-130540760D01*
X216054940Y-130510280D01*
X216044780Y-130497580D01*
X216044780Y-130497580D01*
X216054940Y-130479800D01*
X216077800Y-130441700D01*
X216110820Y-130390900D01*
X216151460Y-130329940D01*
X216258140Y-130175000D01*
X216199720Y-130030220D01*
X216181940Y-129984500D01*
X216159080Y-129928620D01*
X216141300Y-129890520D01*
X216133680Y-129872740D01*
X216115900Y-129867660D01*
X216077800Y-129857500D01*
X216019380Y-129847340D01*
X215948260Y-129834640D01*
X215882220Y-129821940D01*
X215823800Y-129809240D01*
X215780620Y-129801620D01*
X215760300Y-129799080D01*
X215755220Y-129794000D01*
X215752680Y-129786380D01*
X215750140Y-129766060D01*
X215747600Y-129727960D01*
X215747600Y-129672080D01*
X215747600Y-129588260D01*
X215747600Y-129580640D01*
X215747600Y-129501900D01*
X215750140Y-129438400D01*
X215752680Y-129400300D01*
X215755220Y-129382520D01*
X215755220Y-129382520D01*
X215773000Y-129377440D01*
X215816180Y-129369820D01*
X215874600Y-129357120D01*
X215945720Y-129344420D01*
X215950800Y-129344420D01*
X216021920Y-129329180D01*
X216080340Y-129316480D01*
X216123520Y-129308860D01*
X216141300Y-129301240D01*
X216143840Y-129296160D01*
X216159080Y-129268220D01*
X216179400Y-129225040D01*
X216202260Y-129171700D01*
X216225120Y-129115820D01*
X216245440Y-129065020D01*
X216258140Y-129029460D01*
X216263220Y-129011680D01*
X216263220Y-129011680D01*
X216253060Y-128993900D01*
X216227660Y-128958340D01*
X216192100Y-128907540D01*
X216151460Y-128846580D01*
X216148920Y-128841500D01*
X216108280Y-128780540D01*
X216075260Y-128729740D01*
X216052400Y-128694180D01*
X216044780Y-128678940D01*
X216044780Y-128676400D01*
X216057480Y-128658620D01*
X216087960Y-128625600D01*
X216133680Y-128579880D01*
X216184480Y-128526540D01*
X216202260Y-128511300D01*
X216260680Y-128452880D01*
X216301320Y-128417320D01*
X216326720Y-128397000D01*
X216336880Y-128391920D01*
X216339420Y-128391920D01*
X216357200Y-128402080D01*
X216395300Y-128427480D01*
X216446100Y-128463040D01*
X216507060Y-128503680D01*
X216509600Y-128506220D01*
X216570560Y-128546860D01*
X216621360Y-128582420D01*
X216656920Y-128605280D01*
X216672160Y-128612900D01*
X216674700Y-128612900D01*
X216697560Y-128607820D01*
X216740740Y-128592580D01*
X216794080Y-128572260D01*
X216849960Y-128549400D01*
X216900760Y-128529080D01*
X216936320Y-128511300D01*
X216954100Y-128501140D01*
X216956640Y-128501140D01*
X216961720Y-128478280D01*
X216971880Y-128432560D01*
X216984580Y-128371600D01*
X216999820Y-128297940D01*
X217002360Y-128287780D01*
X217015060Y-128214120D01*
X217025220Y-128155700D01*
X217035380Y-128115060D01*
X217037920Y-128097280D01*
X217048080Y-128097280D01*
X217083640Y-128094740D01*
X217136980Y-128092200D01*
X217203020Y-128092200D01*
X217269060Y-128092200D01*
X217335100Y-128092200D01*
X217390980Y-128094740D01*
X217431620Y-128097280D01*
X217449400Y-128102360D01*
X217449400Y-128102360D01*
X217454480Y-128125220D01*
X217464640Y-128168400D01*
X217477340Y-128231900D01*
X217492580Y-128305560D01*
X217495120Y-128318260D01*
X217507820Y-128389380D01*
X217520520Y-128447800D01*
X217528140Y-128488440D01*
X217533220Y-128503680D01*
X217538300Y-128506220D01*
X217568780Y-128521460D01*
X217617040Y-128539240D01*
X217675460Y-128564640D01*
X217812620Y-128620520D01*
X217980260Y-128503680D01*
X217995500Y-128493520D01*
X218056460Y-128452880D01*
X218107260Y-128419860D01*
X218142820Y-128397000D01*
X218155520Y-128389380D01*
X218158060Y-128389380D01*
X218173300Y-128404620D01*
X218206320Y-128435100D01*
X218252040Y-128480820D01*
X218305380Y-128531620D01*
X218346020Y-128572260D01*
X218391740Y-128617980D01*
X218419680Y-128651000D01*
X218437460Y-128671320D01*
X218442540Y-128684020D01*
X218440000Y-128691640D01*
X218429840Y-128709420D01*
X218404440Y-128744980D01*
X218371420Y-128798320D01*
X218330780Y-128856740D01*
X218295220Y-128907540D01*
X218259660Y-128963420D01*
X218236800Y-129004060D01*
X218226640Y-129021840D01*
X218229180Y-129032000D01*
X218241880Y-129065020D01*
X218262200Y-129113280D01*
X218287600Y-129174240D01*
X218346020Y-129306320D01*
X218432380Y-129324100D01*
X218485720Y-129334260D01*
X218559380Y-129346960D01*
X218630500Y-129362200D01*
X218742260Y-129382520D01*
X218744800Y-129786380D01*
X218727020Y-129794000D01*
X218711780Y-129799080D01*
X218671140Y-129809240D01*
X218612720Y-129819400D01*
X218544140Y-129832100D01*
X218483180Y-129844800D01*
X218424760Y-129854960D01*
X218381580Y-129862580D01*
X218363800Y-129867660D01*
X218358720Y-129872740D01*
X218343480Y-129903220D01*
X218323160Y-129948940D01*
X218300300Y-130002280D01*
X218274900Y-130060700D01*
X218254580Y-130111500D01*
X218239340Y-130152140D01*
X218234260Y-130172460D01*
X218241880Y-130187700D01*
X218264740Y-130223260D01*
X218297760Y-130274060D01*
X218338400Y-130332480D01*
X218379040Y-130390900D01*
X218412060Y-130441700D01*
X218437460Y-130477260D01*
X218445080Y-130495040D01*
X218440000Y-130505200D01*
X218417140Y-130533140D01*
X218373960Y-130578860D01*
X218307920Y-130644900D01*
X218295220Y-130655060D01*
X218244420Y-130705860D01*
X218198700Y-130746500D01*
X218168220Y-130774440D01*
X218155520Y-130784600D01*
X218155520Y-130784600D01*
G37*
X218155520Y-130784600D02*
X218137740Y-130776980D01*
X218104720Y-130754120D01*
X218053920Y-130721100D01*
X217995500Y-130683000D01*
X217934540Y-130642360D01*
X217886280Y-130609340D01*
X217850720Y-130586480D01*
X217838020Y-130578860D01*
X217830400Y-130581400D01*
X217802460Y-130596640D01*
X217761820Y-130616960D01*
X217736420Y-130629660D01*
X217698320Y-130644900D01*
X217680540Y-130649980D01*
X217678000Y-130644900D01*
X217662760Y-130614420D01*
X217642440Y-130566160D01*
X217614500Y-130500120D01*
X217581480Y-130423920D01*
X217545920Y-130342640D01*
X217512900Y-130258820D01*
X217479880Y-130180080D01*
X217449400Y-130106420D01*
X217426540Y-130048000D01*
X217411300Y-130007360D01*
X217403680Y-129989580D01*
X217406220Y-129987040D01*
X217424000Y-129969260D01*
X217457020Y-129943860D01*
X217528140Y-129885440D01*
X217599260Y-129799080D01*
X217642440Y-129700020D01*
X217655140Y-129588260D01*
X217644980Y-129486660D01*
X217604340Y-129390140D01*
X217535760Y-129301240D01*
X217451940Y-129235200D01*
X217355420Y-129194560D01*
X217246200Y-129181860D01*
X217142060Y-129192020D01*
X217043000Y-129232660D01*
X216954100Y-129298700D01*
X216916000Y-129341880D01*
X216865200Y-129433320D01*
X216834720Y-129527300D01*
X216832180Y-129550160D01*
X216837260Y-129656840D01*
X216867740Y-129758440D01*
X216923620Y-129847340D01*
X216999820Y-129921000D01*
X217009980Y-129928620D01*
X217045540Y-129956560D01*
X217070940Y-129974340D01*
X217088720Y-129989580D01*
X216954100Y-130312160D01*
X216933780Y-130362960D01*
X216895680Y-130451860D01*
X216865200Y-130528060D01*
X216837260Y-130589020D01*
X216819480Y-130629660D01*
X216811860Y-130644900D01*
X216811860Y-130644900D01*
X216799160Y-130647440D01*
X216776300Y-130639820D01*
X216730580Y-130616960D01*
X216700100Y-130601720D01*
X216667080Y-130586480D01*
X216651840Y-130578860D01*
X216636600Y-130586480D01*
X216603580Y-130606800D01*
X216557860Y-130639820D01*
X216499440Y-130677920D01*
X216443560Y-130716020D01*
X216392760Y-130749040D01*
X216357200Y-130774440D01*
X216339420Y-130782060D01*
X216336880Y-130782060D01*
X216319100Y-130774440D01*
X216291160Y-130749040D01*
X216247980Y-130708400D01*
X216184480Y-130647440D01*
X216174320Y-130637280D01*
X216123520Y-130586480D01*
X216082880Y-130540760D01*
X216054940Y-130510280D01*
X216044780Y-130497580D01*
X216044780Y-130497580D01*
X216054940Y-130479800D01*
X216077800Y-130441700D01*
X216110820Y-130390900D01*
X216151460Y-130329940D01*
X216258140Y-130175000D01*
X216199720Y-130030220D01*
X216181940Y-129984500D01*
X216159080Y-129928620D01*
X216141300Y-129890520D01*
X216133680Y-129872740D01*
X216115900Y-129867660D01*
X216077800Y-129857500D01*
X216019380Y-129847340D01*
X215948260Y-129834640D01*
X215882220Y-129821940D01*
X215823800Y-129809240D01*
X215780620Y-129801620D01*
X215760300Y-129799080D01*
X215755220Y-129794000D01*
X215752680Y-129786380D01*
X215750140Y-129766060D01*
X215747600Y-129727960D01*
X215747600Y-129672080D01*
X215747600Y-129588260D01*
X215747600Y-129580640D01*
X215747600Y-129501900D01*
X215750140Y-129438400D01*
X215752680Y-129400300D01*
X215755220Y-129382520D01*
X215755220Y-129382520D01*
X215773000Y-129377440D01*
X215816180Y-129369820D01*
X215874600Y-129357120D01*
X215945720Y-129344420D01*
X215950800Y-129344420D01*
X216021920Y-129329180D01*
X216080340Y-129316480D01*
X216123520Y-129308860D01*
X216141300Y-129301240D01*
X216143840Y-129296160D01*
X216159080Y-129268220D01*
X216179400Y-129225040D01*
X216202260Y-129171700D01*
X216225120Y-129115820D01*
X216245440Y-129065020D01*
X216258140Y-129029460D01*
X216263220Y-129011680D01*
X216263220Y-129011680D01*
X216253060Y-128993900D01*
X216227660Y-128958340D01*
X216192100Y-128907540D01*
X216151460Y-128846580D01*
X216148920Y-128841500D01*
X216108280Y-128780540D01*
X216075260Y-128729740D01*
X216052400Y-128694180D01*
X216044780Y-128678940D01*
X216044780Y-128676400D01*
X216057480Y-128658620D01*
X216087960Y-128625600D01*
X216133680Y-128579880D01*
X216184480Y-128526540D01*
X216202260Y-128511300D01*
X216260680Y-128452880D01*
X216301320Y-128417320D01*
X216326720Y-128397000D01*
X216336880Y-128391920D01*
X216339420Y-128391920D01*
X216357200Y-128402080D01*
X216395300Y-128427480D01*
X216446100Y-128463040D01*
X216507060Y-128503680D01*
X216509600Y-128506220D01*
X216570560Y-128546860D01*
X216621360Y-128582420D01*
X216656920Y-128605280D01*
X216672160Y-128612900D01*
X216674700Y-128612900D01*
X216697560Y-128607820D01*
X216740740Y-128592580D01*
X216794080Y-128572260D01*
X216849960Y-128549400D01*
X216900760Y-128529080D01*
X216936320Y-128511300D01*
X216954100Y-128501140D01*
X216956640Y-128501140D01*
X216961720Y-128478280D01*
X216971880Y-128432560D01*
X216984580Y-128371600D01*
X216999820Y-128297940D01*
X217002360Y-128287780D01*
X217015060Y-128214120D01*
X217025220Y-128155700D01*
X217035380Y-128115060D01*
X217037920Y-128097280D01*
X217048080Y-128097280D01*
X217083640Y-128094740D01*
X217136980Y-128092200D01*
X217203020Y-128092200D01*
X217269060Y-128092200D01*
X217335100Y-128092200D01*
X217390980Y-128094740D01*
X217431620Y-128097280D01*
X217449400Y-128102360D01*
X217449400Y-128102360D01*
X217454480Y-128125220D01*
X217464640Y-128168400D01*
X217477340Y-128231900D01*
X217492580Y-128305560D01*
X217495120Y-128318260D01*
X217507820Y-128389380D01*
X217520520Y-128447800D01*
X217528140Y-128488440D01*
X217533220Y-128503680D01*
X217538300Y-128506220D01*
X217568780Y-128521460D01*
X217617040Y-128539240D01*
X217675460Y-128564640D01*
X217812620Y-128620520D01*
X217980260Y-128503680D01*
X217995500Y-128493520D01*
X218056460Y-128452880D01*
X218107260Y-128419860D01*
X218142820Y-128397000D01*
X218155520Y-128389380D01*
X218158060Y-128389380D01*
X218173300Y-128404620D01*
X218206320Y-128435100D01*
X218252040Y-128480820D01*
X218305380Y-128531620D01*
X218346020Y-128572260D01*
X218391740Y-128617980D01*
X218419680Y-128651000D01*
X218437460Y-128671320D01*
X218442540Y-128684020D01*
X218440000Y-128691640D01*
X218429840Y-128709420D01*
X218404440Y-128744980D01*
X218371420Y-128798320D01*
X218330780Y-128856740D01*
X218295220Y-128907540D01*
X218259660Y-128963420D01*
X218236800Y-129004060D01*
X218226640Y-129021840D01*
X218229180Y-129032000D01*
X218241880Y-129065020D01*
X218262200Y-129113280D01*
X218287600Y-129174240D01*
X218346020Y-129306320D01*
X218432380Y-129324100D01*
X218485720Y-129334260D01*
X218559380Y-129346960D01*
X218630500Y-129362200D01*
X218742260Y-129382520D01*
X218744800Y-129786380D01*
X218727020Y-129794000D01*
X218711780Y-129799080D01*
X218671140Y-129809240D01*
X218612720Y-129819400D01*
X218544140Y-129832100D01*
X218483180Y-129844800D01*
X218424760Y-129854960D01*
X218381580Y-129862580D01*
X218363800Y-129867660D01*
X218358720Y-129872740D01*
X218343480Y-129903220D01*
X218323160Y-129948940D01*
X218300300Y-130002280D01*
X218274900Y-130060700D01*
X218254580Y-130111500D01*
X218239340Y-130152140D01*
X218234260Y-130172460D01*
X218241880Y-130187700D01*
X218264740Y-130223260D01*
X218297760Y-130274060D01*
X218338400Y-130332480D01*
X218379040Y-130390900D01*
X218412060Y-130441700D01*
X218437460Y-130477260D01*
X218445080Y-130495040D01*
X218440000Y-130505200D01*
X218417140Y-130533140D01*
X218373960Y-130578860D01*
X218307920Y-130644900D01*
X218295220Y-130655060D01*
X218244420Y-130705860D01*
X218198700Y-130746500D01*
X218168220Y-130774440D01*
X218155520Y-130784600D01*
M02*
