G04 #@! TF.FileFunction,Legend,Bot*
%FSLAX46Y46*%
G04 Gerber Fmt 4.6, Leading zero omitted, Abs format (unit mm)*
G04 Created by KiCad (PCBNEW 4.0.4-stable) date 03/11/17 00:41:46*
%MOMM*%
%LPD*%
G01*
G04 APERTURE LIST*
%ADD10C,0.100000*%
%ADD11C,0.300000*%
%ADD12C,0.400000*%
%ADD13C,0.200000*%
%ADD14C,0.250000*%
%ADD15C,0.002540*%
G04 APERTURE END LIST*
D10*
D11*
X190642857Y-137917856D02*
X190642857Y-136774999D01*
X190071429Y-137346428D02*
X191214286Y-137346428D01*
X190071429Y-135274999D02*
X190071429Y-136132142D01*
X190071429Y-135703570D02*
X191571429Y-135703570D01*
X191357143Y-135846427D01*
X191214286Y-135989285D01*
X191142857Y-136132142D01*
X191428571Y-134703571D02*
X191500000Y-134632142D01*
X191571429Y-134489285D01*
X191571429Y-134132142D01*
X191500000Y-133989285D01*
X191428571Y-133917856D01*
X191285714Y-133846428D01*
X191142857Y-133846428D01*
X190928571Y-133917856D01*
X190071429Y-134774999D01*
X190071429Y-133846428D01*
X191571429Y-133417857D02*
X190071429Y-132917857D01*
X191571429Y-132417857D01*
D12*
X190667857Y-139513095D02*
X190667857Y-141036905D01*
X217942857Y-122588095D02*
X217942857Y-124111905D01*
D11*
X217957143Y-125946429D02*
X217957143Y-127089286D01*
X218528571Y-126517857D02*
X217385714Y-126517857D01*
X217028571Y-128517858D02*
X217028571Y-127803572D01*
X217742857Y-127732143D01*
X217671429Y-127803572D01*
X217600000Y-127946429D01*
X217600000Y-128303572D01*
X217671429Y-128446429D01*
X217742857Y-128517858D01*
X217885714Y-128589286D01*
X218242857Y-128589286D01*
X218385714Y-128517858D01*
X218457143Y-128446429D01*
X218528571Y-128303572D01*
X218528571Y-127946429D01*
X218457143Y-127803572D01*
X218385714Y-127732143D01*
X217028571Y-129017857D02*
X218528571Y-129517857D01*
X217028571Y-130017857D01*
D13*
X210700000Y-127725000D02*
X205900000Y-127725000D01*
X205900000Y-126300000D02*
X205900000Y-127725000D01*
X210700000Y-126300000D02*
X205900000Y-126300000D01*
X210700000Y-127725000D02*
X210700000Y-126300000D01*
X207850000Y-126650000D02*
X207850000Y-126450000D01*
X207850000Y-127125000D02*
X207850000Y-126925000D01*
X207850000Y-127575000D02*
X207850000Y-127375000D01*
X209885715Y-127346429D02*
X209928572Y-127389286D01*
X210057143Y-127432143D01*
X210142857Y-127432143D01*
X210271429Y-127389286D01*
X210357143Y-127303571D01*
X210400000Y-127217857D01*
X210442857Y-127046429D01*
X210442857Y-126917857D01*
X210400000Y-126746429D01*
X210357143Y-126660714D01*
X210271429Y-126575000D01*
X210142857Y-126532143D01*
X210057143Y-126532143D01*
X209928572Y-126575000D01*
X209885715Y-126617857D01*
X209114286Y-126832143D02*
X209114286Y-127432143D01*
X209500000Y-126832143D02*
X209500000Y-127303571D01*
X209457143Y-127389286D01*
X209371429Y-127432143D01*
X209242857Y-127432143D01*
X209157143Y-127389286D01*
X209114286Y-127346429D01*
X208814286Y-126832143D02*
X208471429Y-126832143D01*
X208685714Y-126532143D02*
X208685714Y-127303571D01*
X208642857Y-127389286D01*
X208557143Y-127432143D01*
X208471429Y-127432143D01*
D14*
X216257143Y-130885714D02*
X216257143Y-131695238D01*
X216304762Y-131790476D01*
X216352381Y-131838095D01*
X216447620Y-131885714D01*
X216590477Y-131885714D01*
X216685715Y-131838095D01*
X216257143Y-131504762D02*
X216352381Y-131552381D01*
X216542858Y-131552381D01*
X216638096Y-131504762D01*
X216685715Y-131457143D01*
X216733334Y-131361905D01*
X216733334Y-131076190D01*
X216685715Y-130980952D01*
X216638096Y-130933333D01*
X216542858Y-130885714D01*
X216352381Y-130885714D01*
X216257143Y-130933333D01*
X215780953Y-131552381D02*
X215780953Y-130885714D01*
X215780953Y-130552381D02*
X215828572Y-130600000D01*
X215780953Y-130647619D01*
X215733334Y-130600000D01*
X215780953Y-130552381D01*
X215780953Y-130647619D01*
X215447620Y-130885714D02*
X215066668Y-130885714D01*
X215304763Y-130552381D02*
X215304763Y-131409524D01*
X215257144Y-131504762D01*
X215161906Y-131552381D01*
X215066668Y-131552381D01*
X214733334Y-131552381D02*
X214733334Y-130552381D01*
X214304762Y-131552381D02*
X214304762Y-131028571D01*
X214352381Y-130933333D01*
X214447619Y-130885714D01*
X214590477Y-130885714D01*
X214685715Y-130933333D01*
X214733334Y-130980952D01*
X213400000Y-130885714D02*
X213400000Y-131552381D01*
X213828572Y-130885714D02*
X213828572Y-131409524D01*
X213780953Y-131504762D01*
X213685715Y-131552381D01*
X213542857Y-131552381D01*
X213447619Y-131504762D01*
X213400000Y-131457143D01*
X212923810Y-131552381D02*
X212923810Y-130552381D01*
X212923810Y-130933333D02*
X212828572Y-130885714D01*
X212638095Y-130885714D01*
X212542857Y-130933333D01*
X212495238Y-130980952D01*
X212447619Y-131076190D01*
X212447619Y-131361905D01*
X212495238Y-131457143D01*
X212542857Y-131504762D01*
X212638095Y-131552381D01*
X212828572Y-131552381D01*
X212923810Y-131504762D01*
X212019048Y-131457143D02*
X211971429Y-131504762D01*
X212019048Y-131552381D01*
X212066667Y-131504762D01*
X212019048Y-131457143D01*
X212019048Y-131552381D01*
X211114286Y-131504762D02*
X211209524Y-131552381D01*
X211400001Y-131552381D01*
X211495239Y-131504762D01*
X211542858Y-131457143D01*
X211590477Y-131361905D01*
X211590477Y-131076190D01*
X211542858Y-130980952D01*
X211495239Y-130933333D01*
X211400001Y-130885714D01*
X211209524Y-130885714D01*
X211114286Y-130933333D01*
X210542858Y-131552381D02*
X210638096Y-131504762D01*
X210685715Y-131457143D01*
X210733334Y-131361905D01*
X210733334Y-131076190D01*
X210685715Y-130980952D01*
X210638096Y-130933333D01*
X210542858Y-130885714D01*
X210400000Y-130885714D01*
X210304762Y-130933333D01*
X210257143Y-130980952D01*
X210209524Y-131076190D01*
X210209524Y-131361905D01*
X210257143Y-131457143D01*
X210304762Y-131504762D01*
X210400000Y-131552381D01*
X210542858Y-131552381D01*
X209780953Y-131552381D02*
X209780953Y-130885714D01*
X209780953Y-130980952D02*
X209733334Y-130933333D01*
X209638096Y-130885714D01*
X209495238Y-130885714D01*
X209400000Y-130933333D01*
X209352381Y-131028571D01*
X209352381Y-131552381D01*
X209352381Y-131028571D02*
X209304762Y-130933333D01*
X209209524Y-130885714D01*
X209066667Y-130885714D01*
X208971429Y-130933333D01*
X208923810Y-131028571D01*
X208923810Y-131552381D01*
X207733334Y-130504762D02*
X208590477Y-131790476D01*
X207400001Y-131552381D02*
X207400001Y-130552381D01*
X206828572Y-131552381D02*
X207257144Y-130980952D01*
X206828572Y-130552381D02*
X207400001Y-131123810D01*
X205971429Y-131552381D02*
X205971429Y-131028571D01*
X206019048Y-130933333D01*
X206114286Y-130885714D01*
X206304763Y-130885714D01*
X206400001Y-130933333D01*
X205971429Y-131504762D02*
X206066667Y-131552381D01*
X206304763Y-131552381D01*
X206400001Y-131504762D01*
X206447620Y-131409524D01*
X206447620Y-131314286D01*
X206400001Y-131219048D01*
X206304763Y-131171429D01*
X206066667Y-131171429D01*
X205971429Y-131123810D01*
X205495239Y-131552381D02*
X205495239Y-130885714D01*
X205495239Y-130552381D02*
X205542858Y-130600000D01*
X205495239Y-130647619D01*
X205447620Y-130600000D01*
X205495239Y-130552381D01*
X205495239Y-130647619D01*
X205066668Y-131504762D02*
X204971430Y-131552381D01*
X204780954Y-131552381D01*
X204685715Y-131504762D01*
X204638096Y-131409524D01*
X204638096Y-131361905D01*
X204685715Y-131266667D01*
X204780954Y-131219048D01*
X204923811Y-131219048D01*
X205019049Y-131171429D01*
X205066668Y-131076190D01*
X205066668Y-131028571D01*
X205019049Y-130933333D01*
X204923811Y-130885714D01*
X204780954Y-130885714D01*
X204685715Y-130933333D01*
X203828572Y-131504762D02*
X203923810Y-131552381D01*
X204114287Y-131552381D01*
X204209525Y-131504762D01*
X204257144Y-131409524D01*
X204257144Y-131028571D01*
X204209525Y-130933333D01*
X204114287Y-130885714D01*
X203923810Y-130885714D01*
X203828572Y-130933333D01*
X203780953Y-131028571D01*
X203780953Y-131123810D01*
X204257144Y-131219048D01*
X203352382Y-131552381D02*
X203352382Y-130885714D01*
X203352382Y-131076190D02*
X203304763Y-130980952D01*
X203257144Y-130933333D01*
X203161906Y-130885714D01*
X203066667Y-130885714D01*
X202780953Y-131504762D02*
X202638096Y-131552381D01*
X202400000Y-131552381D01*
X202304762Y-131504762D01*
X202257143Y-131457143D01*
X202209524Y-131361905D01*
X202209524Y-131266667D01*
X202257143Y-131171429D01*
X202304762Y-131123810D01*
X202400000Y-131076190D01*
X202590477Y-131028571D01*
X202685715Y-130980952D01*
X202733334Y-130933333D01*
X202780953Y-130838095D01*
X202780953Y-130742857D01*
X202733334Y-130647619D01*
X202685715Y-130600000D01*
X202590477Y-130552381D01*
X202352381Y-130552381D01*
X202209524Y-130600000D01*
X201638096Y-131552381D02*
X201733334Y-131504762D01*
X201780953Y-131457143D01*
X201828572Y-131361905D01*
X201828572Y-131076190D01*
X201780953Y-130980952D01*
X201733334Y-130933333D01*
X201638096Y-130885714D01*
X201495238Y-130885714D01*
X201400000Y-130933333D01*
X201352381Y-130980952D01*
X201304762Y-131076190D01*
X201304762Y-131361905D01*
X201352381Y-131457143D01*
X201400000Y-131504762D01*
X201495238Y-131552381D01*
X201638096Y-131552381D01*
X201019048Y-130885714D02*
X200638096Y-130885714D01*
X200876191Y-131552381D02*
X200876191Y-130695238D01*
X200828572Y-130600000D01*
X200733334Y-130552381D01*
X200638096Y-130552381D01*
X200447619Y-130885714D02*
X200066667Y-130885714D01*
X200304762Y-130552381D02*
X200304762Y-131409524D01*
X200257143Y-131504762D01*
X200161905Y-131552381D01*
X200066667Y-131552381D01*
X199019047Y-130504762D02*
X199876190Y-131790476D01*
X198495238Y-130552381D02*
X198304761Y-130552381D01*
X198209523Y-130600000D01*
X198114285Y-130695238D01*
X198066666Y-130885714D01*
X198066666Y-131219048D01*
X198114285Y-131409524D01*
X198209523Y-131504762D01*
X198304761Y-131552381D01*
X198495238Y-131552381D01*
X198590476Y-131504762D01*
X198685714Y-131409524D01*
X198733333Y-131219048D01*
X198733333Y-130885714D01*
X198685714Y-130695238D01*
X198590476Y-130600000D01*
X198495238Y-130552381D01*
X197638095Y-130885714D02*
X197638095Y-131885714D01*
X197638095Y-130933333D02*
X197542857Y-130885714D01*
X197352380Y-130885714D01*
X197257142Y-130933333D01*
X197209523Y-130980952D01*
X197161904Y-131076190D01*
X197161904Y-131361905D01*
X197209523Y-131457143D01*
X197257142Y-131504762D01*
X197352380Y-131552381D01*
X197542857Y-131552381D01*
X197638095Y-131504762D01*
X196352380Y-131504762D02*
X196447618Y-131552381D01*
X196638095Y-131552381D01*
X196733333Y-131504762D01*
X196780952Y-131409524D01*
X196780952Y-131028571D01*
X196733333Y-130933333D01*
X196638095Y-130885714D01*
X196447618Y-130885714D01*
X196352380Y-130933333D01*
X196304761Y-131028571D01*
X196304761Y-131123810D01*
X196780952Y-131219048D01*
X195876190Y-130885714D02*
X195876190Y-131552381D01*
X195876190Y-130980952D02*
X195828571Y-130933333D01*
X195733333Y-130885714D01*
X195590475Y-130885714D01*
X195495237Y-130933333D01*
X195447618Y-131028571D01*
X195447618Y-131552381D01*
X195019047Y-131504762D02*
X194876190Y-131552381D01*
X194638094Y-131552381D01*
X194542856Y-131504762D01*
X194495237Y-131457143D01*
X194447618Y-131361905D01*
X194447618Y-131266667D01*
X194495237Y-131171429D01*
X194542856Y-131123810D01*
X194638094Y-131076190D01*
X194828571Y-131028571D01*
X194923809Y-130980952D01*
X194971428Y-130933333D01*
X195019047Y-130838095D01*
X195019047Y-130742857D01*
X194971428Y-130647619D01*
X194923809Y-130600000D01*
X194828571Y-130552381D01*
X194590475Y-130552381D01*
X194447618Y-130600000D01*
X194019047Y-131552381D02*
X194019047Y-130885714D01*
X194019047Y-130552381D02*
X194066666Y-130600000D01*
X194019047Y-130647619D01*
X193971428Y-130600000D01*
X194019047Y-130552381D01*
X194019047Y-130647619D01*
X193542857Y-131552381D02*
X193542857Y-130885714D01*
X193542857Y-130980952D02*
X193495238Y-130933333D01*
X193400000Y-130885714D01*
X193257142Y-130885714D01*
X193161904Y-130933333D01*
X193114285Y-131028571D01*
X193114285Y-131552381D01*
X193114285Y-131028571D02*
X193066666Y-130933333D01*
X192971428Y-130885714D01*
X192828571Y-130885714D01*
X192733333Y-130933333D01*
X192685714Y-131028571D01*
X192685714Y-131552381D01*
X191876190Y-131028571D02*
X191733333Y-131076190D01*
X191685714Y-131123810D01*
X191638095Y-131219048D01*
X191638095Y-131361905D01*
X191685714Y-131457143D01*
X191733333Y-131504762D01*
X191828571Y-131552381D01*
X192209524Y-131552381D01*
X192209524Y-130552381D01*
X191876190Y-130552381D01*
X191780952Y-130600000D01*
X191733333Y-130647619D01*
X191685714Y-130742857D01*
X191685714Y-130838095D01*
X191733333Y-130933333D01*
X191780952Y-130980952D01*
X191876190Y-131028571D01*
X192209524Y-131028571D01*
X190780952Y-130885714D02*
X190780952Y-131552381D01*
X191209524Y-130885714D02*
X191209524Y-131409524D01*
X191161905Y-131504762D01*
X191066667Y-131552381D01*
X190923809Y-131552381D01*
X190828571Y-131504762D01*
X190780952Y-131457143D01*
X190447619Y-130885714D02*
X190066667Y-130885714D01*
X190304762Y-130552381D02*
X190304762Y-131409524D01*
X190257143Y-131504762D01*
X190161905Y-131552381D01*
X190066667Y-131552381D01*
X189876190Y-130885714D02*
X189495238Y-130885714D01*
X189733333Y-130552381D02*
X189733333Y-131409524D01*
X189685714Y-131504762D01*
X189590476Y-131552381D01*
X189495238Y-131552381D01*
X189019047Y-131552381D02*
X189114285Y-131504762D01*
X189161904Y-131457143D01*
X189209523Y-131361905D01*
X189209523Y-131076190D01*
X189161904Y-130980952D01*
X189114285Y-130933333D01*
X189019047Y-130885714D01*
X188876189Y-130885714D01*
X188780951Y-130933333D01*
X188733332Y-130980952D01*
X188685713Y-131076190D01*
X188685713Y-131361905D01*
X188733332Y-131457143D01*
X188780951Y-131504762D01*
X188876189Y-131552381D01*
X189019047Y-131552381D01*
X188257142Y-130885714D02*
X188257142Y-131552381D01*
X188257142Y-130980952D02*
X188209523Y-130933333D01*
X188114285Y-130885714D01*
X187971427Y-130885714D01*
X187876189Y-130933333D01*
X187828570Y-131028571D01*
X187828570Y-131552381D01*
X187019046Y-131028571D02*
X186876189Y-131076190D01*
X186828570Y-131123810D01*
X186780951Y-131219048D01*
X186780951Y-131361905D01*
X186828570Y-131457143D01*
X186876189Y-131504762D01*
X186971427Y-131552381D01*
X187352380Y-131552381D01*
X187352380Y-130552381D01*
X187019046Y-130552381D01*
X186923808Y-130600000D01*
X186876189Y-130647619D01*
X186828570Y-130742857D01*
X186828570Y-130838095D01*
X186876189Y-130933333D01*
X186923808Y-130980952D01*
X187019046Y-131028571D01*
X187352380Y-131028571D01*
X186209523Y-131552381D02*
X186304761Y-131504762D01*
X186352380Y-131457143D01*
X186399999Y-131361905D01*
X186399999Y-131076190D01*
X186352380Y-130980952D01*
X186304761Y-130933333D01*
X186209523Y-130885714D01*
X186066665Y-130885714D01*
X185971427Y-130933333D01*
X185923808Y-130980952D01*
X185876189Y-131076190D01*
X185876189Y-131361905D01*
X185923808Y-131457143D01*
X185971427Y-131504762D01*
X186066665Y-131552381D01*
X186209523Y-131552381D01*
X185542856Y-131552381D02*
X185019046Y-130885714D01*
X185542856Y-130885714D02*
X185019046Y-131552381D01*
D13*
X201215714Y-122922143D02*
X201215714Y-122022143D01*
X200915714Y-122665000D01*
X200615714Y-122022143D01*
X200615714Y-122922143D01*
X200015715Y-122022143D02*
X199844286Y-122022143D01*
X199758572Y-122065000D01*
X199672858Y-122150714D01*
X199630000Y-122322143D01*
X199630000Y-122622143D01*
X199672858Y-122793571D01*
X199758572Y-122879286D01*
X199844286Y-122922143D01*
X200015715Y-122922143D01*
X200101429Y-122879286D01*
X200187143Y-122793571D01*
X200230000Y-122622143D01*
X200230000Y-122322143D01*
X200187143Y-122150714D01*
X200101429Y-122065000D01*
X200015715Y-122022143D01*
X198944286Y-122450714D02*
X198815715Y-122493571D01*
X198772858Y-122536429D01*
X198730001Y-122622143D01*
X198730001Y-122750714D01*
X198772858Y-122836429D01*
X198815715Y-122879286D01*
X198901429Y-122922143D01*
X199244286Y-122922143D01*
X199244286Y-122022143D01*
X198944286Y-122022143D01*
X198858572Y-122065000D01*
X198815715Y-122107857D01*
X198772858Y-122193571D01*
X198772858Y-122279286D01*
X198815715Y-122365000D01*
X198858572Y-122407857D01*
X198944286Y-122450714D01*
X199244286Y-122450714D01*
X198044286Y-122450714D02*
X197915715Y-122493571D01*
X197872858Y-122536429D01*
X197830001Y-122622143D01*
X197830001Y-122750714D01*
X197872858Y-122836429D01*
X197915715Y-122879286D01*
X198001429Y-122922143D01*
X198344286Y-122922143D01*
X198344286Y-122022143D01*
X198044286Y-122022143D01*
X197958572Y-122065000D01*
X197915715Y-122107857D01*
X197872858Y-122193571D01*
X197872858Y-122279286D01*
X197915715Y-122365000D01*
X197958572Y-122407857D01*
X198044286Y-122450714D01*
X198344286Y-122450714D01*
X196458572Y-122450714D02*
X196758572Y-122450714D01*
X196758572Y-122922143D02*
X196758572Y-122022143D01*
X196330001Y-122022143D01*
X195601429Y-122922143D02*
X195601429Y-122450714D01*
X195644286Y-122365000D01*
X195730000Y-122322143D01*
X195901429Y-122322143D01*
X195987143Y-122365000D01*
X195601429Y-122879286D02*
X195687143Y-122922143D01*
X195901429Y-122922143D01*
X195987143Y-122879286D01*
X196030000Y-122793571D01*
X196030000Y-122707857D01*
X195987143Y-122622143D01*
X195901429Y-122579286D01*
X195687143Y-122579286D01*
X195601429Y-122536429D01*
X195172857Y-122322143D02*
X195172857Y-122922143D01*
X195172857Y-122407857D02*
X195130000Y-122365000D01*
X195044286Y-122322143D01*
X194915714Y-122322143D01*
X194830000Y-122365000D01*
X194787143Y-122450714D01*
X194787143Y-122922143D01*
X193372857Y-122450714D02*
X193244286Y-122493571D01*
X193201429Y-122536429D01*
X193158572Y-122622143D01*
X193158572Y-122750714D01*
X193201429Y-122836429D01*
X193244286Y-122879286D01*
X193330000Y-122922143D01*
X193672857Y-122922143D01*
X193672857Y-122022143D01*
X193372857Y-122022143D01*
X193287143Y-122065000D01*
X193244286Y-122107857D01*
X193201429Y-122193571D01*
X193201429Y-122279286D01*
X193244286Y-122365000D01*
X193287143Y-122407857D01*
X193372857Y-122450714D01*
X193672857Y-122450714D01*
X192644286Y-122922143D02*
X192730000Y-122879286D01*
X192772857Y-122836429D01*
X192815714Y-122750714D01*
X192815714Y-122493571D01*
X192772857Y-122407857D01*
X192730000Y-122365000D01*
X192644286Y-122322143D01*
X192515714Y-122322143D01*
X192430000Y-122365000D01*
X192387143Y-122407857D01*
X192344286Y-122493571D01*
X192344286Y-122750714D01*
X192387143Y-122836429D01*
X192430000Y-122879286D01*
X192515714Y-122922143D01*
X192644286Y-122922143D01*
X191572857Y-122922143D02*
X191572857Y-122450714D01*
X191615714Y-122365000D01*
X191701428Y-122322143D01*
X191872857Y-122322143D01*
X191958571Y-122365000D01*
X191572857Y-122879286D02*
X191658571Y-122922143D01*
X191872857Y-122922143D01*
X191958571Y-122879286D01*
X192001428Y-122793571D01*
X192001428Y-122707857D01*
X191958571Y-122622143D01*
X191872857Y-122579286D01*
X191658571Y-122579286D01*
X191572857Y-122536429D01*
X191144285Y-122922143D02*
X191144285Y-122322143D01*
X191144285Y-122493571D02*
X191101428Y-122407857D01*
X191058571Y-122365000D01*
X190972857Y-122322143D01*
X190887142Y-122322143D01*
X190201428Y-122922143D02*
X190201428Y-122022143D01*
X190201428Y-122879286D02*
X190287142Y-122922143D01*
X190458571Y-122922143D01*
X190544285Y-122879286D01*
X190587142Y-122836429D01*
X190629999Y-122750714D01*
X190629999Y-122493571D01*
X190587142Y-122407857D01*
X190544285Y-122365000D01*
X190458571Y-122322143D01*
X190287142Y-122322143D01*
X190201428Y-122365000D01*
X200958571Y-124815000D02*
X201001429Y-124772143D01*
X201087143Y-124643571D01*
X201130000Y-124557857D01*
X201172857Y-124429286D01*
X201215714Y-124215000D01*
X201215714Y-124043571D01*
X201172857Y-123829286D01*
X201130000Y-123700714D01*
X201087143Y-123615000D01*
X201001429Y-123486429D01*
X200958571Y-123443571D01*
X200230000Y-124429286D02*
X200315714Y-124472143D01*
X200487143Y-124472143D01*
X200572857Y-124429286D01*
X200615714Y-124386429D01*
X200658571Y-124300714D01*
X200658571Y-124043571D01*
X200615714Y-123957857D01*
X200572857Y-123915000D01*
X200487143Y-123872143D01*
X200315714Y-123872143D01*
X200230000Y-123915000D01*
X199930000Y-124815000D02*
X199887142Y-124772143D01*
X199801428Y-124643571D01*
X199758571Y-124557857D01*
X199715714Y-124429286D01*
X199672857Y-124215000D01*
X199672857Y-124043571D01*
X199715714Y-123829286D01*
X199758571Y-123700714D01*
X199801428Y-123615000D01*
X199887142Y-123486429D01*
X199930000Y-123443571D01*
X198601428Y-123657857D02*
X198558571Y-123615000D01*
X198472857Y-123572143D01*
X198258571Y-123572143D01*
X198172857Y-123615000D01*
X198130000Y-123657857D01*
X198087143Y-123743571D01*
X198087143Y-123829286D01*
X198130000Y-123957857D01*
X198644286Y-124472143D01*
X198087143Y-124472143D01*
X197530000Y-123572143D02*
X197444285Y-123572143D01*
X197358571Y-123615000D01*
X197315714Y-123657857D01*
X197272857Y-123743571D01*
X197230000Y-123915000D01*
X197230000Y-124129286D01*
X197272857Y-124300714D01*
X197315714Y-124386429D01*
X197358571Y-124429286D01*
X197444285Y-124472143D01*
X197530000Y-124472143D01*
X197615714Y-124429286D01*
X197658571Y-124386429D01*
X197701428Y-124300714D01*
X197744285Y-124129286D01*
X197744285Y-123915000D01*
X197701428Y-123743571D01*
X197658571Y-123657857D01*
X197615714Y-123615000D01*
X197530000Y-123572143D01*
X196372857Y-124472143D02*
X196887142Y-124472143D01*
X196630000Y-124472143D02*
X196630000Y-123572143D01*
X196715714Y-123700714D01*
X196801428Y-123786429D01*
X196887142Y-123829286D01*
X195601428Y-123572143D02*
X195772857Y-123572143D01*
X195858571Y-123615000D01*
X195901428Y-123657857D01*
X195987142Y-123786429D01*
X196029999Y-123957857D01*
X196029999Y-124300714D01*
X195987142Y-124386429D01*
X195944285Y-124429286D01*
X195858571Y-124472143D01*
X195687142Y-124472143D01*
X195601428Y-124429286D01*
X195558571Y-124386429D01*
X195515714Y-124300714D01*
X195515714Y-124086429D01*
X195558571Y-124000714D01*
X195601428Y-123957857D01*
X195687142Y-123915000D01*
X195858571Y-123915000D01*
X195944285Y-123957857D01*
X195987142Y-124000714D01*
X196029999Y-124086429D01*
X194444285Y-124472143D02*
X194444285Y-123572143D01*
X194144285Y-124215000D01*
X193844285Y-123572143D01*
X193844285Y-124472143D01*
X193415714Y-124472143D02*
X193415714Y-123872143D01*
X193415714Y-123572143D02*
X193458571Y-123615000D01*
X193415714Y-123657857D01*
X193372857Y-123615000D01*
X193415714Y-123572143D01*
X193415714Y-123657857D01*
X192987143Y-124472143D02*
X192987143Y-123872143D01*
X192987143Y-124043571D02*
X192944286Y-123957857D01*
X192901429Y-123915000D01*
X192815715Y-123872143D01*
X192730000Y-123872143D01*
X192430000Y-124472143D02*
X192430000Y-123572143D01*
X192344286Y-124129286D02*
X192087143Y-124472143D01*
X192087143Y-123872143D02*
X192430000Y-124215000D01*
X191572858Y-124472143D02*
X191658572Y-124429286D01*
X191701429Y-124386429D01*
X191744286Y-124300714D01*
X191744286Y-124043571D01*
X191701429Y-123957857D01*
X191658572Y-123915000D01*
X191572858Y-123872143D01*
X191444286Y-123872143D01*
X191358572Y-123915000D01*
X191315715Y-123957857D01*
X191272858Y-124043571D01*
X191272858Y-124300714D01*
X191315715Y-124386429D01*
X191358572Y-124429286D01*
X191444286Y-124472143D01*
X191572858Y-124472143D01*
X190201429Y-124472143D02*
X190201429Y-123572143D01*
X189687144Y-124472143D02*
X190072858Y-123957857D01*
X189687144Y-123572143D02*
X190201429Y-124086429D01*
X188915715Y-124472143D02*
X188915715Y-124000714D01*
X188958572Y-123915000D01*
X189044286Y-123872143D01*
X189215715Y-123872143D01*
X189301429Y-123915000D01*
X188915715Y-124429286D02*
X189001429Y-124472143D01*
X189215715Y-124472143D01*
X189301429Y-124429286D01*
X189344286Y-124343571D01*
X189344286Y-124257857D01*
X189301429Y-124172143D01*
X189215715Y-124129286D01*
X189001429Y-124129286D01*
X188915715Y-124086429D01*
X188487143Y-124472143D02*
X188487143Y-123872143D01*
X188487143Y-123572143D02*
X188530000Y-123615000D01*
X188487143Y-123657857D01*
X188444286Y-123615000D01*
X188487143Y-123572143D01*
X188487143Y-123657857D01*
X188101429Y-124429286D02*
X188015715Y-124472143D01*
X187844287Y-124472143D01*
X187758572Y-124429286D01*
X187715715Y-124343571D01*
X187715715Y-124300714D01*
X187758572Y-124215000D01*
X187844287Y-124172143D01*
X187972858Y-124172143D01*
X188058572Y-124129286D01*
X188101429Y-124043571D01*
X188101429Y-124000714D01*
X188058572Y-123915000D01*
X187972858Y-123872143D01*
X187844287Y-123872143D01*
X187758572Y-123915000D01*
X186987144Y-124429286D02*
X187072858Y-124472143D01*
X187244287Y-124472143D01*
X187330001Y-124429286D01*
X187372858Y-124343571D01*
X187372858Y-124000714D01*
X187330001Y-123915000D01*
X187244287Y-123872143D01*
X187072858Y-123872143D01*
X186987144Y-123915000D01*
X186944287Y-124000714D01*
X186944287Y-124086429D01*
X187372858Y-124172143D01*
X186558572Y-124472143D02*
X186558572Y-123872143D01*
X186558572Y-124043571D02*
X186515715Y-123957857D01*
X186472858Y-123915000D01*
X186387144Y-123872143D01*
X186301429Y-123872143D01*
D15*
G36*
X213984320Y-135446200D02*
X213966540Y-135438580D01*
X213933520Y-135415720D01*
X213882720Y-135382700D01*
X213824300Y-135344600D01*
X213763340Y-135303960D01*
X213715080Y-135270940D01*
X213679520Y-135248080D01*
X213666820Y-135240460D01*
X213659200Y-135243000D01*
X213631260Y-135258240D01*
X213590620Y-135278560D01*
X213565220Y-135291260D01*
X213527120Y-135306500D01*
X213509340Y-135311580D01*
X213506800Y-135306500D01*
X213491560Y-135276020D01*
X213471240Y-135227760D01*
X213443300Y-135161720D01*
X213410280Y-135085520D01*
X213374720Y-135004240D01*
X213341700Y-134920420D01*
X213308680Y-134841680D01*
X213278200Y-134768020D01*
X213255340Y-134709600D01*
X213240100Y-134668960D01*
X213232480Y-134651180D01*
X213235020Y-134648640D01*
X213252800Y-134630860D01*
X213285820Y-134605460D01*
X213356940Y-134547040D01*
X213428060Y-134460680D01*
X213471240Y-134361620D01*
X213483940Y-134249860D01*
X213473780Y-134148260D01*
X213433140Y-134051740D01*
X213364560Y-133962840D01*
X213280740Y-133896800D01*
X213184220Y-133856160D01*
X213075000Y-133843460D01*
X212970860Y-133853620D01*
X212871800Y-133894260D01*
X212782900Y-133960300D01*
X212744800Y-134003480D01*
X212694000Y-134094920D01*
X212663520Y-134188900D01*
X212660980Y-134211760D01*
X212666060Y-134318440D01*
X212696540Y-134420040D01*
X212752420Y-134508940D01*
X212828620Y-134582600D01*
X212838780Y-134590220D01*
X212874340Y-134618160D01*
X212899740Y-134635940D01*
X212917520Y-134651180D01*
X212782900Y-134973760D01*
X212762580Y-135024560D01*
X212724480Y-135113460D01*
X212694000Y-135189660D01*
X212666060Y-135250620D01*
X212648280Y-135291260D01*
X212640660Y-135306500D01*
X212640660Y-135306500D01*
X212627960Y-135309040D01*
X212605100Y-135301420D01*
X212559380Y-135278560D01*
X212528900Y-135263320D01*
X212495880Y-135248080D01*
X212480640Y-135240460D01*
X212465400Y-135248080D01*
X212432380Y-135268400D01*
X212386660Y-135301420D01*
X212328240Y-135339520D01*
X212272360Y-135377620D01*
X212221560Y-135410640D01*
X212186000Y-135436040D01*
X212168220Y-135443660D01*
X212165680Y-135443660D01*
X212147900Y-135436040D01*
X212119960Y-135410640D01*
X212076780Y-135370000D01*
X212013280Y-135309040D01*
X212003120Y-135298880D01*
X211952320Y-135248080D01*
X211911680Y-135202360D01*
X211883740Y-135171880D01*
X211873580Y-135159180D01*
X211873580Y-135159180D01*
X211883740Y-135141400D01*
X211906600Y-135103300D01*
X211939620Y-135052500D01*
X211980260Y-134991540D01*
X212086940Y-134836600D01*
X212028520Y-134691820D01*
X212010740Y-134646100D01*
X211987880Y-134590220D01*
X211970100Y-134552120D01*
X211962480Y-134534340D01*
X211944700Y-134529260D01*
X211906600Y-134519100D01*
X211848180Y-134508940D01*
X211777060Y-134496240D01*
X211711020Y-134483540D01*
X211652600Y-134470840D01*
X211609420Y-134463220D01*
X211589100Y-134460680D01*
X211584020Y-134455600D01*
X211581480Y-134447980D01*
X211578940Y-134427660D01*
X211576400Y-134389560D01*
X211576400Y-134333680D01*
X211576400Y-134249860D01*
X211576400Y-134242240D01*
X211576400Y-134163500D01*
X211578940Y-134100000D01*
X211581480Y-134061900D01*
X211584020Y-134044120D01*
X211584020Y-134044120D01*
X211601800Y-134039040D01*
X211644980Y-134031420D01*
X211703400Y-134018720D01*
X211774520Y-134006020D01*
X211779600Y-134006020D01*
X211850720Y-133990780D01*
X211909140Y-133978080D01*
X211952320Y-133970460D01*
X211970100Y-133962840D01*
X211972640Y-133957760D01*
X211987880Y-133929820D01*
X212008200Y-133886640D01*
X212031060Y-133833300D01*
X212053920Y-133777420D01*
X212074240Y-133726620D01*
X212086940Y-133691060D01*
X212092020Y-133673280D01*
X212092020Y-133673280D01*
X212081860Y-133655500D01*
X212056460Y-133619940D01*
X212020900Y-133569140D01*
X211980260Y-133508180D01*
X211977720Y-133503100D01*
X211937080Y-133442140D01*
X211904060Y-133391340D01*
X211881200Y-133355780D01*
X211873580Y-133340540D01*
X211873580Y-133338000D01*
X211886280Y-133320220D01*
X211916760Y-133287200D01*
X211962480Y-133241480D01*
X212013280Y-133188140D01*
X212031060Y-133172900D01*
X212089480Y-133114480D01*
X212130120Y-133078920D01*
X212155520Y-133058600D01*
X212165680Y-133053520D01*
X212168220Y-133053520D01*
X212186000Y-133063680D01*
X212224100Y-133089080D01*
X212274900Y-133124640D01*
X212335860Y-133165280D01*
X212338400Y-133167820D01*
X212399360Y-133208460D01*
X212450160Y-133244020D01*
X212485720Y-133266880D01*
X212500960Y-133274500D01*
X212503500Y-133274500D01*
X212526360Y-133269420D01*
X212569540Y-133254180D01*
X212622880Y-133233860D01*
X212678760Y-133211000D01*
X212729560Y-133190680D01*
X212765120Y-133172900D01*
X212782900Y-133162740D01*
X212785440Y-133162740D01*
X212790520Y-133139880D01*
X212800680Y-133094160D01*
X212813380Y-133033200D01*
X212828620Y-132959540D01*
X212831160Y-132949380D01*
X212843860Y-132875720D01*
X212854020Y-132817300D01*
X212864180Y-132776660D01*
X212866720Y-132758880D01*
X212876880Y-132758880D01*
X212912440Y-132756340D01*
X212965780Y-132753800D01*
X213031820Y-132753800D01*
X213097860Y-132753800D01*
X213163900Y-132753800D01*
X213219780Y-132756340D01*
X213260420Y-132758880D01*
X213278200Y-132763960D01*
X213278200Y-132763960D01*
X213283280Y-132786820D01*
X213293440Y-132830000D01*
X213306140Y-132893500D01*
X213321380Y-132967160D01*
X213323920Y-132979860D01*
X213336620Y-133050980D01*
X213349320Y-133109400D01*
X213356940Y-133150040D01*
X213362020Y-133165280D01*
X213367100Y-133167820D01*
X213397580Y-133183060D01*
X213445840Y-133200840D01*
X213504260Y-133226240D01*
X213641420Y-133282120D01*
X213809060Y-133165280D01*
X213824300Y-133155120D01*
X213885260Y-133114480D01*
X213936060Y-133081460D01*
X213971620Y-133058600D01*
X213984320Y-133050980D01*
X213986860Y-133050980D01*
X214002100Y-133066220D01*
X214035120Y-133096700D01*
X214080840Y-133142420D01*
X214134180Y-133193220D01*
X214174820Y-133233860D01*
X214220540Y-133279580D01*
X214248480Y-133312600D01*
X214266260Y-133332920D01*
X214271340Y-133345620D01*
X214268800Y-133353240D01*
X214258640Y-133371020D01*
X214233240Y-133406580D01*
X214200220Y-133459920D01*
X214159580Y-133518340D01*
X214124020Y-133569140D01*
X214088460Y-133625020D01*
X214065600Y-133665660D01*
X214055440Y-133683440D01*
X214057980Y-133693600D01*
X214070680Y-133726620D01*
X214091000Y-133774880D01*
X214116400Y-133835840D01*
X214174820Y-133967920D01*
X214261180Y-133985700D01*
X214314520Y-133995860D01*
X214388180Y-134008560D01*
X214459300Y-134023800D01*
X214571060Y-134044120D01*
X214573600Y-134447980D01*
X214555820Y-134455600D01*
X214540580Y-134460680D01*
X214499940Y-134470840D01*
X214441520Y-134481000D01*
X214372940Y-134493700D01*
X214311980Y-134506400D01*
X214253560Y-134516560D01*
X214210380Y-134524180D01*
X214192600Y-134529260D01*
X214187520Y-134534340D01*
X214172280Y-134564820D01*
X214151960Y-134610540D01*
X214129100Y-134663880D01*
X214103700Y-134722300D01*
X214083380Y-134773100D01*
X214068140Y-134813740D01*
X214063060Y-134834060D01*
X214070680Y-134849300D01*
X214093540Y-134884860D01*
X214126560Y-134935660D01*
X214167200Y-134994080D01*
X214207840Y-135052500D01*
X214240860Y-135103300D01*
X214266260Y-135138860D01*
X214273880Y-135156640D01*
X214268800Y-135166800D01*
X214245940Y-135194740D01*
X214202760Y-135240460D01*
X214136720Y-135306500D01*
X214124020Y-135316660D01*
X214073220Y-135367460D01*
X214027500Y-135408100D01*
X213997020Y-135436040D01*
X213984320Y-135446200D01*
X213984320Y-135446200D01*
G37*
X213984320Y-135446200D02*
X213966540Y-135438580D01*
X213933520Y-135415720D01*
X213882720Y-135382700D01*
X213824300Y-135344600D01*
X213763340Y-135303960D01*
X213715080Y-135270940D01*
X213679520Y-135248080D01*
X213666820Y-135240460D01*
X213659200Y-135243000D01*
X213631260Y-135258240D01*
X213590620Y-135278560D01*
X213565220Y-135291260D01*
X213527120Y-135306500D01*
X213509340Y-135311580D01*
X213506800Y-135306500D01*
X213491560Y-135276020D01*
X213471240Y-135227760D01*
X213443300Y-135161720D01*
X213410280Y-135085520D01*
X213374720Y-135004240D01*
X213341700Y-134920420D01*
X213308680Y-134841680D01*
X213278200Y-134768020D01*
X213255340Y-134709600D01*
X213240100Y-134668960D01*
X213232480Y-134651180D01*
X213235020Y-134648640D01*
X213252800Y-134630860D01*
X213285820Y-134605460D01*
X213356940Y-134547040D01*
X213428060Y-134460680D01*
X213471240Y-134361620D01*
X213483940Y-134249860D01*
X213473780Y-134148260D01*
X213433140Y-134051740D01*
X213364560Y-133962840D01*
X213280740Y-133896800D01*
X213184220Y-133856160D01*
X213075000Y-133843460D01*
X212970860Y-133853620D01*
X212871800Y-133894260D01*
X212782900Y-133960300D01*
X212744800Y-134003480D01*
X212694000Y-134094920D01*
X212663520Y-134188900D01*
X212660980Y-134211760D01*
X212666060Y-134318440D01*
X212696540Y-134420040D01*
X212752420Y-134508940D01*
X212828620Y-134582600D01*
X212838780Y-134590220D01*
X212874340Y-134618160D01*
X212899740Y-134635940D01*
X212917520Y-134651180D01*
X212782900Y-134973760D01*
X212762580Y-135024560D01*
X212724480Y-135113460D01*
X212694000Y-135189660D01*
X212666060Y-135250620D01*
X212648280Y-135291260D01*
X212640660Y-135306500D01*
X212640660Y-135306500D01*
X212627960Y-135309040D01*
X212605100Y-135301420D01*
X212559380Y-135278560D01*
X212528900Y-135263320D01*
X212495880Y-135248080D01*
X212480640Y-135240460D01*
X212465400Y-135248080D01*
X212432380Y-135268400D01*
X212386660Y-135301420D01*
X212328240Y-135339520D01*
X212272360Y-135377620D01*
X212221560Y-135410640D01*
X212186000Y-135436040D01*
X212168220Y-135443660D01*
X212165680Y-135443660D01*
X212147900Y-135436040D01*
X212119960Y-135410640D01*
X212076780Y-135370000D01*
X212013280Y-135309040D01*
X212003120Y-135298880D01*
X211952320Y-135248080D01*
X211911680Y-135202360D01*
X211883740Y-135171880D01*
X211873580Y-135159180D01*
X211873580Y-135159180D01*
X211883740Y-135141400D01*
X211906600Y-135103300D01*
X211939620Y-135052500D01*
X211980260Y-134991540D01*
X212086940Y-134836600D01*
X212028520Y-134691820D01*
X212010740Y-134646100D01*
X211987880Y-134590220D01*
X211970100Y-134552120D01*
X211962480Y-134534340D01*
X211944700Y-134529260D01*
X211906600Y-134519100D01*
X211848180Y-134508940D01*
X211777060Y-134496240D01*
X211711020Y-134483540D01*
X211652600Y-134470840D01*
X211609420Y-134463220D01*
X211589100Y-134460680D01*
X211584020Y-134455600D01*
X211581480Y-134447980D01*
X211578940Y-134427660D01*
X211576400Y-134389560D01*
X211576400Y-134333680D01*
X211576400Y-134249860D01*
X211576400Y-134242240D01*
X211576400Y-134163500D01*
X211578940Y-134100000D01*
X211581480Y-134061900D01*
X211584020Y-134044120D01*
X211584020Y-134044120D01*
X211601800Y-134039040D01*
X211644980Y-134031420D01*
X211703400Y-134018720D01*
X211774520Y-134006020D01*
X211779600Y-134006020D01*
X211850720Y-133990780D01*
X211909140Y-133978080D01*
X211952320Y-133970460D01*
X211970100Y-133962840D01*
X211972640Y-133957760D01*
X211987880Y-133929820D01*
X212008200Y-133886640D01*
X212031060Y-133833300D01*
X212053920Y-133777420D01*
X212074240Y-133726620D01*
X212086940Y-133691060D01*
X212092020Y-133673280D01*
X212092020Y-133673280D01*
X212081860Y-133655500D01*
X212056460Y-133619940D01*
X212020900Y-133569140D01*
X211980260Y-133508180D01*
X211977720Y-133503100D01*
X211937080Y-133442140D01*
X211904060Y-133391340D01*
X211881200Y-133355780D01*
X211873580Y-133340540D01*
X211873580Y-133338000D01*
X211886280Y-133320220D01*
X211916760Y-133287200D01*
X211962480Y-133241480D01*
X212013280Y-133188140D01*
X212031060Y-133172900D01*
X212089480Y-133114480D01*
X212130120Y-133078920D01*
X212155520Y-133058600D01*
X212165680Y-133053520D01*
X212168220Y-133053520D01*
X212186000Y-133063680D01*
X212224100Y-133089080D01*
X212274900Y-133124640D01*
X212335860Y-133165280D01*
X212338400Y-133167820D01*
X212399360Y-133208460D01*
X212450160Y-133244020D01*
X212485720Y-133266880D01*
X212500960Y-133274500D01*
X212503500Y-133274500D01*
X212526360Y-133269420D01*
X212569540Y-133254180D01*
X212622880Y-133233860D01*
X212678760Y-133211000D01*
X212729560Y-133190680D01*
X212765120Y-133172900D01*
X212782900Y-133162740D01*
X212785440Y-133162740D01*
X212790520Y-133139880D01*
X212800680Y-133094160D01*
X212813380Y-133033200D01*
X212828620Y-132959540D01*
X212831160Y-132949380D01*
X212843860Y-132875720D01*
X212854020Y-132817300D01*
X212864180Y-132776660D01*
X212866720Y-132758880D01*
X212876880Y-132758880D01*
X212912440Y-132756340D01*
X212965780Y-132753800D01*
X213031820Y-132753800D01*
X213097860Y-132753800D01*
X213163900Y-132753800D01*
X213219780Y-132756340D01*
X213260420Y-132758880D01*
X213278200Y-132763960D01*
X213278200Y-132763960D01*
X213283280Y-132786820D01*
X213293440Y-132830000D01*
X213306140Y-132893500D01*
X213321380Y-132967160D01*
X213323920Y-132979860D01*
X213336620Y-133050980D01*
X213349320Y-133109400D01*
X213356940Y-133150040D01*
X213362020Y-133165280D01*
X213367100Y-133167820D01*
X213397580Y-133183060D01*
X213445840Y-133200840D01*
X213504260Y-133226240D01*
X213641420Y-133282120D01*
X213809060Y-133165280D01*
X213824300Y-133155120D01*
X213885260Y-133114480D01*
X213936060Y-133081460D01*
X213971620Y-133058600D01*
X213984320Y-133050980D01*
X213986860Y-133050980D01*
X214002100Y-133066220D01*
X214035120Y-133096700D01*
X214080840Y-133142420D01*
X214134180Y-133193220D01*
X214174820Y-133233860D01*
X214220540Y-133279580D01*
X214248480Y-133312600D01*
X214266260Y-133332920D01*
X214271340Y-133345620D01*
X214268800Y-133353240D01*
X214258640Y-133371020D01*
X214233240Y-133406580D01*
X214200220Y-133459920D01*
X214159580Y-133518340D01*
X214124020Y-133569140D01*
X214088460Y-133625020D01*
X214065600Y-133665660D01*
X214055440Y-133683440D01*
X214057980Y-133693600D01*
X214070680Y-133726620D01*
X214091000Y-133774880D01*
X214116400Y-133835840D01*
X214174820Y-133967920D01*
X214261180Y-133985700D01*
X214314520Y-133995860D01*
X214388180Y-134008560D01*
X214459300Y-134023800D01*
X214571060Y-134044120D01*
X214573600Y-134447980D01*
X214555820Y-134455600D01*
X214540580Y-134460680D01*
X214499940Y-134470840D01*
X214441520Y-134481000D01*
X214372940Y-134493700D01*
X214311980Y-134506400D01*
X214253560Y-134516560D01*
X214210380Y-134524180D01*
X214192600Y-134529260D01*
X214187520Y-134534340D01*
X214172280Y-134564820D01*
X214151960Y-134610540D01*
X214129100Y-134663880D01*
X214103700Y-134722300D01*
X214083380Y-134773100D01*
X214068140Y-134813740D01*
X214063060Y-134834060D01*
X214070680Y-134849300D01*
X214093540Y-134884860D01*
X214126560Y-134935660D01*
X214167200Y-134994080D01*
X214207840Y-135052500D01*
X214240860Y-135103300D01*
X214266260Y-135138860D01*
X214273880Y-135156640D01*
X214268800Y-135166800D01*
X214245940Y-135194740D01*
X214202760Y-135240460D01*
X214136720Y-135306500D01*
X214124020Y-135316660D01*
X214073220Y-135367460D01*
X214027500Y-135408100D01*
X213997020Y-135436040D01*
X213984320Y-135446200D01*
M02*
