M48
;DRILL file {KiCad 4.0.4-stable} date 03/11/17 00:41:40
;FORMAT={-:-/ absolute / metric / decimal}
FMAT,2
METRIC,TZ
T1C0.300
T2C0.400
T3C0.600
T4C0.800
T5C1.001
T6C1.016
T7C1.100
T8C1.200
%
G90
G05
M71
T1
X185.45Y-128.1
X185.6Y-141.45
X185.775Y-133.825
X186.25Y-137.75
X186.4Y-129.95
X190.475Y-137.55
X191.Y-134.8
X191.45Y-129.
X191.65Y-140.925
X193.125Y-133.2
X193.55Y-138.4
X193.75Y-125.35
X193.875Y-130.65
X194.437Y-135.407
X195.7Y-128.45
X197.5Y-135.2
X200.4Y-127.85
X201.55Y-136.15
X201.8Y-130.45
X203.6Y-127.075
X205.55Y-123.925
X206.324Y-140.792
X206.451Y-135.712
X206.875Y-138.475
X207.391Y-141.757
X210.075Y-141.65
X216.65Y-122.675
X216.89Y-133.465
X217.6Y-125.925
X218.665Y-130.265
X220.125Y-136.6
X222.29Y-132.34
X222.8Y-136.075
X222.8Y-140.275
X222.875Y-127.175
X223.175Y-122.825
X223.19Y-129.946
T2
X196.088Y-138.227
X202.6Y-135.7
X203.5Y-135.1
X204.1Y-137.2
X204.8Y-136.4
T3
X207.3Y-122.7
X207.3Y-123.97
X207.3Y-125.24
T4
X209.13Y-137.26
X209.13Y-139.8
X216.75Y-137.26
X216.75Y-139.8
T5
X196.164Y-132.918
X196.164Y-140.538
X198.882Y-132.918
X198.882Y-140.538
X201.6Y-132.944
X201.6Y-140.564
X204.318Y-132.918
X204.318Y-140.538
X207.16Y-133.3
X209.7Y-133.3
X219.558Y-133.172
X219.558Y-140.792
T6
X206.6Y-129.3
X209.14Y-129.3
T7
X185.96Y-126.
X188.5Y-126.
X191.04Y-126.
X196.66Y-126.
X199.2Y-126.
X201.74Y-126.
T8
X188.25Y-135.3
X188.25Y-140.3
X220.7Y-123.6
X220.7Y-128.6
T0
M30
