G04 #@! TF.FileFunction,Copper,L1,Top,Signal*
%FSLAX46Y46*%
G04 Gerber Fmt 4.6, Leading zero omitted, Abs format (unit mm)*
G04 Created by KiCad (PCBNEW 4.0.4-stable) date 12/10/16 19:05:05*
%MOMM*%
%LPD*%
G01*
G04 APERTURE LIST*
%ADD10C,0.100000*%
%ADD11C,1.524000*%
%ADD12R,1.524000X1.524000*%
%ADD13R,1.727200X1.727200*%
%ADD14O,1.727200X1.727200*%
%ADD15C,1.500000*%
%ADD16C,1.000000*%
G04 APERTURE END LIST*
D10*
D11*
X253250000Y-129000000D03*
X253250000Y-126460000D03*
D12*
X253250000Y-131540000D03*
D13*
X243750000Y-143000000D03*
D14*
X241210000Y-143000000D03*
X243750000Y-140460000D03*
X241210000Y-140460000D03*
X243750000Y-137920000D03*
X241210000Y-137920000D03*
D11*
X253250000Y-140500000D03*
X253250000Y-137960000D03*
D12*
X253250000Y-143040000D03*
D11*
X253250000Y-152000000D03*
X253250000Y-149460000D03*
D12*
X253250000Y-154540000D03*
D15*
X241210000Y-137920000D02*
X241210000Y-136390000D01*
X241210000Y-136390000D02*
X242525000Y-135075000D01*
X242525000Y-135075000D02*
X248500000Y-135075000D01*
X248500000Y-135075000D02*
X250475000Y-133100000D01*
X250475000Y-133100000D02*
X250475000Y-129175000D01*
X250475000Y-129175000D02*
X250650000Y-129000000D01*
X250650000Y-129000000D02*
X253250000Y-129000000D01*
X254775000Y-134625000D02*
X256150000Y-134625000D01*
X256150000Y-134625000D02*
X257000000Y-133775000D01*
X257000000Y-133775000D02*
X257000000Y-132575000D01*
X257000000Y-132575000D02*
X255965000Y-131540000D01*
X255965000Y-131540000D02*
X253250000Y-131540000D01*
X243750000Y-137920000D02*
X249380000Y-137920000D01*
X249380000Y-137920000D02*
X252675000Y-134625000D01*
X252675000Y-134625000D02*
X254775000Y-134625000D01*
D16*
X243750000Y-137920000D02*
X243830000Y-137920000D01*
D15*
X243750000Y-143000000D02*
X245175000Y-143000000D01*
X249935000Y-154540000D02*
X253250000Y-154540000D01*
X249900000Y-154575000D02*
X249935000Y-154540000D01*
X249900000Y-147725000D02*
X249900000Y-154575000D01*
X245175000Y-143000000D02*
X249900000Y-147725000D01*
X243750000Y-140460000D02*
X246985000Y-140460000D01*
X246985000Y-140460000D02*
X249565000Y-143040000D01*
X249565000Y-143040000D02*
X253250000Y-143040000D01*
M02*
