M48
;DRILL file {KiCad 4.0.4-stable} date 11/02/16 00:17:07
;FORMAT={-:-/ absolute / metric / decimal}
FMAT,2
METRIC,TZ
T1C0.300
T2C0.400
T3C0.600
T4C0.800
T5C1.001
T6C1.016
%
G90
G05
M71
T1
X119.05Y-46.8
X119.062Y-90.912
X121.475Y-77.425
X122.05Y-74.225
X122.05Y-80.225
X122.05Y-83.225
X122.05Y-86.225
X124.025Y-89.025
X125.162Y-66.312
X126.8Y-58.4
X129.8Y-58.4
X130.75Y-85.775
X130.95Y-74.55
X132.1Y-67.725
X132.838Y-84.837
X133.575Y-60.5
X134.512Y-86.287
X142.75Y-78.675
X142.925Y-74.175
X143.1Y-60.7
X149.088Y-86.412
X149.088Y-86.412
X151.85Y-79.
X155.1Y-79.
X157.963Y-89.888
X158.737Y-84.312
X158.737Y-84.312
X161.688Y-73.763
X161.95Y-46.925
X162.825Y-60.65
X164.688Y-73.763
X165.825Y-60.65
X166.562Y-91.037
X167.688Y-73.763
X168.325Y-85.85
X168.325Y-88.85
X169.562Y-91.037
X170.688Y-73.763
X171.15Y-80.05
X171.362Y-69.638
X172.562Y-91.037
X173.688Y-73.763
X174.15Y-77.05
X174.15Y-80.05
X175.562Y-91.037
X176.65Y-77.425
X178.325Y-60.65
X178.562Y-91.037
X179.65Y-77.425
X186.125Y-90.625
X187.925Y-68.925
X187.925Y-71.925
X196.75Y-78.45
X199.75Y-78.45
X200.725Y-46.925
X200.9Y-90.875
T2
X149.2Y-59.3
X153.4Y-69.6
X155.95Y-72.45
X156.65Y-71.4
X157.8Y-70.7
X158.2Y-59.8
X158.3Y-65.2
X159.5Y-69.5
X159.54Y-58.8
X162.Y-58.
X178.6Y-58.9
X181.Y-59.9
X182.5Y-59.5
X183.9Y-59.4
X184.7Y-61.5
X185.8Y-59.4
X188.3Y-64.7
X189.7Y-63.6
X194.5Y-69.5
T3
X128.56Y-83.6
X129.83Y-83.6
X131.1Y-83.6
X133.625Y-82.125
X134.61Y-83.7
X134.61Y-89.05
X135.88Y-83.7
X135.88Y-89.05
X137.15Y-83.7
X137.15Y-89.05
X140.1Y-57.
X141.4Y-62.1
X144.9Y-82.1
X149.4Y-75.1
X149.5Y-65.6
X155.3Y-86.71
X155.3Y-87.98
X155.3Y-89.25
X187.3Y-85.2
X194.65Y-77.85
T4
X120.6Y-55.68
X120.6Y-63.3
X123.14Y-55.68
X123.14Y-63.3
X125.68Y-55.68
X125.68Y-63.3
X128.22Y-55.68
X128.22Y-63.3
X130.76Y-55.68
X130.76Y-63.3
X133.3Y-55.68
X133.3Y-63.3
X135.84Y-55.68
X135.84Y-63.3
X138.38Y-55.68
X138.38Y-63.3
X144.3Y-55.68
X144.3Y-63.3
X146.84Y-55.68
X146.84Y-63.3
X149.38Y-55.68
X149.38Y-63.3
X151.92Y-55.68
X151.92Y-63.3
X152.3Y-67.06
X152.3Y-82.3
X154.46Y-55.68
X154.46Y-63.3
X154.84Y-67.06
X154.84Y-82.3
X157.Y-55.68
X157.Y-63.3
X157.38Y-67.06
X157.38Y-82.3
X159.54Y-55.68
X159.54Y-63.3
X159.92Y-67.06
X159.92Y-82.3
X162.08Y-55.68
X162.08Y-63.3
X162.46Y-67.06
X162.46Y-82.3
X165.Y-67.06
X165.Y-82.3
X167.54Y-67.06
X167.54Y-82.3
X168.Y-55.68
X168.Y-63.3
X170.08Y-67.06
X170.08Y-82.3
X170.54Y-55.68
X170.54Y-63.3
X172.62Y-67.06
X172.62Y-82.3
X173.08Y-55.68
X173.08Y-63.3
X175.16Y-67.06
X175.16Y-82.3
X175.62Y-55.68
X175.62Y-63.3
X177.7Y-67.06
X177.7Y-82.3
X178.16Y-55.68
X178.16Y-63.3
X180.24Y-67.06
X180.24Y-82.3
X180.7Y-55.68
X180.7Y-63.3
X182.78Y-67.06
X182.78Y-82.3
X183.24Y-55.68
X183.24Y-63.3
X185.32Y-67.06
X185.32Y-82.3
X185.78Y-55.68
X185.78Y-63.3
X191.4Y-56.8
X191.4Y-59.34
X191.4Y-61.88
X191.4Y-64.42
X191.4Y-66.96
X191.4Y-69.5
X191.4Y-72.04
X191.4Y-74.58
X199.02Y-56.8
X199.02Y-59.34
X199.02Y-61.88
X199.02Y-64.42
X199.02Y-66.96
X199.02Y-69.5
X199.02Y-72.04
X199.02Y-74.58
T5
X128.38Y-67.7
X128.38Y-70.7
X128.38Y-73.7
X128.38Y-79.7
X128.4Y-76.7
X136.Y-67.7
X136.Y-70.7
X136.Y-73.7
X136.Y-79.7
X136.02Y-76.7
X139.98Y-67.7
X139.98Y-70.7
X139.98Y-73.7
X139.98Y-76.7
X139.98Y-79.7
X147.6Y-67.7
X147.6Y-70.7
X147.6Y-73.7
X147.6Y-76.7
X147.6Y-79.7
T6
X119.9Y-49.46
X119.9Y-52.
X122.44Y-49.46
X122.44Y-52.
X124.98Y-49.46
X124.98Y-52.
X127.52Y-49.46
X127.52Y-52.
X128.91Y-88.6
X130.06Y-49.46
X130.06Y-52.
X131.45Y-88.6
X132.6Y-49.46
X132.6Y-52.
X135.14Y-49.46
X135.14Y-52.
X137.68Y-49.46
X137.68Y-52.
X140.22Y-49.46
X140.22Y-52.
X141.82Y-86.1
X141.82Y-88.64
X142.76Y-49.46
X142.76Y-52.
X144.36Y-86.1
X144.36Y-88.64
X145.3Y-49.46
X145.3Y-52.
X146.9Y-86.1
X146.9Y-88.64
X147.84Y-49.46
X147.84Y-52.
X150.38Y-49.46
X150.38Y-52.
X150.4Y-88.9
X152.92Y-49.46
X152.92Y-52.
X155.46Y-49.46
X155.46Y-52.
X158.Y-49.46
X158.Y-52.
X160.54Y-49.46
X160.54Y-52.
X160.62Y-86.1
X160.62Y-88.64
X163.08Y-49.46
X163.08Y-52.
X163.16Y-86.1
X163.16Y-88.64
X165.62Y-49.46
X165.62Y-52.
X165.7Y-86.1
X165.7Y-88.64
X168.16Y-49.46
X168.16Y-52.
X170.7Y-49.46
X170.7Y-52.
X170.7Y-88.6
X173.24Y-49.46
X173.24Y-52.
X173.24Y-88.6
X175.78Y-49.46
X175.78Y-52.
X175.78Y-88.6
X178.32Y-49.46
X178.32Y-52.
X178.32Y-88.6
X180.86Y-49.46
X180.86Y-52.
X180.86Y-88.6
X183.4Y-49.46
X183.4Y-52.
X183.4Y-88.6
X185.94Y-49.46
X185.94Y-52.
X188.44Y-88.6
X188.48Y-49.46
X188.48Y-52.
X190.98Y-88.6
X191.02Y-49.46
X191.02Y-52.
X193.52Y-88.6
X193.56Y-49.46
X193.56Y-52.
X196.06Y-88.6
X196.1Y-49.46
X196.1Y-52.
X198.6Y-88.6
X198.64Y-49.46
X198.64Y-52.
T0
M30
