G04 #@! TF.FileFunction,Soldermask,Top*
%FSLAX46Y46*%
G04 Gerber Fmt 4.6, Leading zero omitted, Abs format (unit mm)*
G04 Created by KiCad (PCBNEW 4.0.4-stable) date 11/02/16 00:16:49*
%MOMM*%
%LPD*%
G01*
G04 APERTURE LIST*
%ADD10C,0.100000*%
%ADD11R,2.032000X2.032000*%
%ADD12O,2.032000X2.032000*%
%ADD13O,1.600000X2.300000*%
%ADD14R,1.727200X1.727200*%
%ADD15O,1.727200X1.727200*%
%ADD16R,2.235200X2.235200*%
%ADD17R,1.727200X2.032000*%
%ADD18O,1.727200X2.032000*%
%ADD19O,0.899160X1.501140*%
%ADD20O,1.501140X0.899160*%
%ADD21C,1.998980*%
%ADD22O,2.300000X1.600000*%
%ADD23C,2.200000*%
G04 APERTURE END LIST*
D10*
D11*
X131450000Y-88600000D03*
D12*
X128910000Y-88600000D03*
D13*
X144300000Y-63300000D03*
X146840000Y-63300000D03*
X149380000Y-63300000D03*
X151920000Y-63300000D03*
X154460000Y-63300000D03*
X157000000Y-63300000D03*
X159540000Y-63300000D03*
X162080000Y-63300000D03*
X162080000Y-55680000D03*
X159540000Y-55680000D03*
X157000000Y-55680000D03*
X154460000Y-55680000D03*
X151920000Y-55680000D03*
X149380000Y-55680000D03*
X146840000Y-55680000D03*
X144300000Y-55680000D03*
D14*
X146900000Y-86100000D03*
D15*
X146900000Y-88640000D03*
X144360000Y-86100000D03*
X144360000Y-88640000D03*
X141820000Y-86100000D03*
X141820000Y-88640000D03*
D16*
X150400000Y-88900000D03*
D14*
X165700000Y-86100000D03*
D15*
X165700000Y-88640000D03*
X163160000Y-86100000D03*
X163160000Y-88640000D03*
X160620000Y-86100000D03*
X160620000Y-88640000D03*
D17*
X183400000Y-88600000D03*
D18*
X180860000Y-88600000D03*
X178320000Y-88600000D03*
X175780000Y-88600000D03*
X173240000Y-88600000D03*
X170700000Y-88600000D03*
D14*
X119900000Y-52000000D03*
D15*
X119900000Y-49460000D03*
X122440000Y-52000000D03*
X122440000Y-49460000D03*
X124980000Y-52000000D03*
X124980000Y-49460000D03*
X127520000Y-52000000D03*
X127520000Y-49460000D03*
X130060000Y-52000000D03*
X130060000Y-49460000D03*
X132600000Y-52000000D03*
X132600000Y-49460000D03*
X135140000Y-52000000D03*
X135140000Y-49460000D03*
X137680000Y-52000000D03*
X137680000Y-49460000D03*
X140220000Y-52000000D03*
X140220000Y-49460000D03*
X142760000Y-52000000D03*
X142760000Y-49460000D03*
X145300000Y-52000000D03*
X145300000Y-49460000D03*
X147840000Y-52000000D03*
X147840000Y-49460000D03*
X150380000Y-52000000D03*
X150380000Y-49460000D03*
X152920000Y-52000000D03*
X152920000Y-49460000D03*
X155460000Y-52000000D03*
X155460000Y-49460000D03*
X158000000Y-52000000D03*
X158000000Y-49460000D03*
X160540000Y-52000000D03*
X160540000Y-49460000D03*
X163080000Y-52000000D03*
X163080000Y-49460000D03*
X165620000Y-52000000D03*
X165620000Y-49460000D03*
X168160000Y-52000000D03*
X168160000Y-49460000D03*
X170700000Y-52000000D03*
X170700000Y-49460000D03*
X173240000Y-52000000D03*
X173240000Y-49460000D03*
X175780000Y-52000000D03*
X175780000Y-49460000D03*
X178320000Y-52000000D03*
X178320000Y-49460000D03*
X180860000Y-52000000D03*
X180860000Y-49460000D03*
X183400000Y-52000000D03*
X183400000Y-49460000D03*
X185940000Y-52000000D03*
X185940000Y-49460000D03*
X188480000Y-52000000D03*
X188480000Y-49460000D03*
X191020000Y-52000000D03*
X191020000Y-49460000D03*
X193560000Y-52000000D03*
X193560000Y-49460000D03*
X196100000Y-52000000D03*
X196100000Y-49460000D03*
X198640000Y-52000000D03*
X198640000Y-49460000D03*
D17*
X198600000Y-88600000D03*
D18*
X196060000Y-88600000D03*
X193520000Y-88600000D03*
X190980000Y-88600000D03*
X188440000Y-88600000D03*
D19*
X135880000Y-89050000D03*
X134610000Y-89050000D03*
X137150000Y-89050000D03*
D20*
X155300000Y-87980000D03*
X155300000Y-86710000D03*
X155300000Y-89250000D03*
D19*
X135880000Y-83700000D03*
X134610000Y-83700000D03*
X137150000Y-83700000D03*
D21*
X136000000Y-73700000D03*
X128380000Y-73700000D03*
X147600000Y-73700000D03*
X139980000Y-73700000D03*
X136000000Y-70700000D03*
X128380000Y-70700000D03*
X147600000Y-70700000D03*
X139980000Y-70700000D03*
X136000000Y-67700000D03*
X128380000Y-67700000D03*
X147600000Y-67700000D03*
X139980000Y-67700000D03*
D13*
X120600000Y-63300000D03*
X123140000Y-63300000D03*
X125680000Y-63300000D03*
X128220000Y-63300000D03*
X130760000Y-63300000D03*
X133300000Y-63300000D03*
X135840000Y-63300000D03*
X138380000Y-63300000D03*
X138380000Y-55680000D03*
X135840000Y-55680000D03*
X133300000Y-55680000D03*
X130760000Y-55680000D03*
X128220000Y-55680000D03*
X125680000Y-55680000D03*
X123140000Y-55680000D03*
X120600000Y-55680000D03*
X168000000Y-63300000D03*
X170540000Y-63300000D03*
X173080000Y-63300000D03*
X175620000Y-63300000D03*
X178160000Y-63300000D03*
X180700000Y-63300000D03*
X183240000Y-63300000D03*
X185780000Y-63300000D03*
X185780000Y-55680000D03*
X183240000Y-55680000D03*
X180700000Y-55680000D03*
X178160000Y-55680000D03*
X175620000Y-55680000D03*
X173080000Y-55680000D03*
X170540000Y-55680000D03*
X168000000Y-55680000D03*
D22*
X191400000Y-56800000D03*
X191400000Y-59340000D03*
X191400000Y-61880000D03*
X191400000Y-64420000D03*
X191400000Y-66960000D03*
X191400000Y-69500000D03*
X191400000Y-72040000D03*
X191400000Y-74580000D03*
X199020000Y-74580000D03*
X199020000Y-72040000D03*
X199020000Y-69500000D03*
X199020000Y-66960000D03*
X199020000Y-64420000D03*
X199020000Y-61880000D03*
X199020000Y-59340000D03*
X199020000Y-56800000D03*
D13*
X152300000Y-82300000D03*
X154840000Y-82300000D03*
X157380000Y-82300000D03*
X159920000Y-82300000D03*
X162460000Y-82300000D03*
X165000000Y-82300000D03*
X167540000Y-82300000D03*
X170080000Y-82300000D03*
X172620000Y-82300000D03*
X175160000Y-82300000D03*
X177700000Y-82300000D03*
X180240000Y-82300000D03*
X182780000Y-82300000D03*
X185320000Y-82300000D03*
X185320000Y-67060000D03*
X182780000Y-67060000D03*
X180240000Y-67060000D03*
X177700000Y-67060000D03*
X175160000Y-67060000D03*
X172620000Y-67060000D03*
X170080000Y-67060000D03*
X167540000Y-67060000D03*
X165000000Y-67060000D03*
X162460000Y-67060000D03*
X159920000Y-67060000D03*
X157380000Y-67060000D03*
X154840000Y-67060000D03*
X152300000Y-67060000D03*
D23*
X121900000Y-69600000D03*
X197950000Y-82650000D03*
D19*
X129830000Y-83600000D03*
X128560000Y-83600000D03*
X131100000Y-83600000D03*
D21*
X147600000Y-76700000D03*
X139980000Y-76700000D03*
X136000000Y-79700000D03*
X128380000Y-79700000D03*
X128400000Y-76700000D03*
X136020000Y-76700000D03*
X147600000Y-79700000D03*
X139980000Y-79700000D03*
M02*
