G04 #@! TF.FileFunction,Legend,Top*
%FSLAX46Y46*%
G04 Gerber Fmt 4.6, Leading zero omitted, Abs format (unit mm)*
G04 Created by KiCad (PCBNEW 4.0.4-stable) date 11/02/16 00:16:49*
%MOMM*%
%LPD*%
G01*
G04 APERTURE LIST*
%ADD10C,0.100000*%
%ADD11C,0.200000*%
%ADD12C,0.150000*%
%ADD13C,0.275000*%
%ADD14C,0.250000*%
%ADD15C,0.300000*%
%ADD16C,0.002540*%
G04 APERTURE END LIST*
D10*
D11*
X165792857Y-75492857D02*
X165792857Y-74292857D01*
X166192857Y-75150000D01*
X166592857Y-74292857D01*
X166592857Y-75492857D01*
X167392858Y-74292857D02*
X167621429Y-74292857D01*
X167735715Y-74350000D01*
X167850001Y-74464286D01*
X167907143Y-74692857D01*
X167907143Y-75092857D01*
X167850001Y-75321429D01*
X167735715Y-75435714D01*
X167621429Y-75492857D01*
X167392858Y-75492857D01*
X167278572Y-75435714D01*
X167164286Y-75321429D01*
X167107143Y-75092857D01*
X167107143Y-74692857D01*
X167164286Y-74464286D01*
X167278572Y-74350000D01*
X167392858Y-74292857D01*
X168821429Y-74864286D02*
X168992858Y-74921429D01*
X169050001Y-74978571D01*
X169107144Y-75092857D01*
X169107144Y-75264286D01*
X169050001Y-75378571D01*
X168992858Y-75435714D01*
X168878572Y-75492857D01*
X168421429Y-75492857D01*
X168421429Y-74292857D01*
X168821429Y-74292857D01*
X168935715Y-74350000D01*
X168992858Y-74407143D01*
X169050001Y-74521429D01*
X169050001Y-74635714D01*
X168992858Y-74750000D01*
X168935715Y-74807143D01*
X168821429Y-74864286D01*
X168421429Y-74864286D01*
X170021429Y-74864286D02*
X170192858Y-74921429D01*
X170250001Y-74978571D01*
X170307144Y-75092857D01*
X170307144Y-75264286D01*
X170250001Y-75378571D01*
X170192858Y-75435714D01*
X170078572Y-75492857D01*
X169621429Y-75492857D01*
X169621429Y-74292857D01*
X170021429Y-74292857D01*
X170135715Y-74350000D01*
X170192858Y-74407143D01*
X170250001Y-74521429D01*
X170250001Y-74635714D01*
X170192858Y-74750000D01*
X170135715Y-74807143D01*
X170021429Y-74864286D01*
X169621429Y-74864286D01*
X171564287Y-74692857D02*
X172021430Y-74692857D01*
X171735715Y-75492857D02*
X171735715Y-74464286D01*
X171792858Y-74350000D01*
X171907144Y-74292857D01*
X172021430Y-74292857D01*
X172592858Y-75492857D02*
X172478572Y-75435714D01*
X172421429Y-75378571D01*
X172364286Y-75264286D01*
X172364286Y-74921429D01*
X172421429Y-74807143D01*
X172478572Y-74750000D01*
X172592858Y-74692857D01*
X172764286Y-74692857D01*
X172878572Y-74750000D01*
X172935715Y-74807143D01*
X172992858Y-74921429D01*
X172992858Y-75264286D01*
X172935715Y-75378571D01*
X172878572Y-75435714D01*
X172764286Y-75492857D01*
X172592858Y-75492857D01*
X173507143Y-75492857D02*
X173507143Y-74692857D01*
X173507143Y-74921429D02*
X173564286Y-74807143D01*
X173621429Y-74750000D01*
X173735715Y-74692857D01*
X173850000Y-74692857D01*
X174992858Y-74292857D02*
X175678572Y-74292857D01*
X175335715Y-75492857D02*
X175335715Y-74292857D01*
X176535715Y-75435714D02*
X176421429Y-75492857D01*
X176192858Y-75492857D01*
X176078572Y-75435714D01*
X176021429Y-75321429D01*
X176021429Y-74864286D01*
X176078572Y-74750000D01*
X176192858Y-74692857D01*
X176421429Y-74692857D01*
X176535715Y-74750000D01*
X176592858Y-74864286D01*
X176592858Y-74978571D01*
X176021429Y-75092857D01*
X177564286Y-75435714D02*
X177450000Y-75492857D01*
X177221429Y-75492857D01*
X177107143Y-75435714D01*
X177050000Y-75321429D01*
X177050000Y-74864286D01*
X177107143Y-74750000D01*
X177221429Y-74692857D01*
X177450000Y-74692857D01*
X177564286Y-74750000D01*
X177621429Y-74864286D01*
X177621429Y-74978571D01*
X177050000Y-75092857D01*
X178135714Y-74692857D02*
X178135714Y-75492857D01*
X178135714Y-74807143D02*
X178192857Y-74750000D01*
X178307143Y-74692857D01*
X178478571Y-74692857D01*
X178592857Y-74750000D01*
X178650000Y-74864286D01*
X178650000Y-75492857D01*
X179164285Y-75435714D02*
X179278571Y-75492857D01*
X179507143Y-75492857D01*
X179621428Y-75435714D01*
X179678571Y-75321429D01*
X179678571Y-75264286D01*
X179621428Y-75150000D01*
X179507143Y-75092857D01*
X179335714Y-75092857D01*
X179221428Y-75035714D01*
X179164285Y-74921429D01*
X179164285Y-74864286D01*
X179221428Y-74750000D01*
X179335714Y-74692857D01*
X179507143Y-74692857D01*
X179621428Y-74750000D01*
X180078572Y-74692857D02*
X180364286Y-75492857D01*
X180650000Y-74692857D02*
X180364286Y-75492857D01*
X180250000Y-75778571D01*
X180192857Y-75835714D01*
X180078572Y-75892857D01*
X181907144Y-74292857D02*
X182650001Y-74292857D01*
X182250001Y-74750000D01*
X182421429Y-74750000D01*
X182535715Y-74807143D01*
X182592858Y-74864286D01*
X182650001Y-74978571D01*
X182650001Y-75264286D01*
X182592858Y-75378571D01*
X182535715Y-75435714D01*
X182421429Y-75492857D01*
X182078572Y-75492857D01*
X181964286Y-75435714D01*
X181907144Y-75378571D01*
X183164286Y-75378571D02*
X183221429Y-75435714D01*
X183164286Y-75492857D01*
X183107143Y-75435714D01*
X183164286Y-75378571D01*
X183164286Y-75492857D01*
X183678572Y-74407143D02*
X183735715Y-74350000D01*
X183850001Y-74292857D01*
X184135715Y-74292857D01*
X184250001Y-74350000D01*
X184307144Y-74407143D01*
X184364287Y-74521429D01*
X184364287Y-74635714D01*
X184307144Y-74807143D01*
X183621430Y-75492857D01*
X184364287Y-75492857D01*
X169833334Y-85847619D02*
X170514286Y-85847619D01*
X170147620Y-86266667D01*
X170304762Y-86266667D01*
X170409524Y-86319048D01*
X170461905Y-86371429D01*
X170514286Y-86476190D01*
X170514286Y-86738095D01*
X170461905Y-86842857D01*
X170409524Y-86895238D01*
X170304762Y-86947619D01*
X169990477Y-86947619D01*
X169885715Y-86895238D01*
X169833334Y-86842857D01*
X171352381Y-86371429D02*
X171509524Y-86423810D01*
X171561905Y-86476190D01*
X171614286Y-86580952D01*
X171614286Y-86738095D01*
X171561905Y-86842857D01*
X171509524Y-86895238D01*
X171404762Y-86947619D01*
X170985715Y-86947619D01*
X170985715Y-85847619D01*
X171352381Y-85847619D01*
X171457143Y-85900000D01*
X171509524Y-85952381D01*
X171561905Y-86057143D01*
X171561905Y-86161905D01*
X171509524Y-86266667D01*
X171457143Y-86319048D01*
X171352381Y-86371429D01*
X170985715Y-86371429D01*
X172361905Y-85847619D02*
X173042857Y-85847619D01*
X172676191Y-86266667D01*
X172833333Y-86266667D01*
X172938095Y-86319048D01*
X172990476Y-86371429D01*
X173042857Y-86476190D01*
X173042857Y-86738095D01*
X172990476Y-86842857D01*
X172938095Y-86895238D01*
X172833333Y-86947619D01*
X172519048Y-86947619D01*
X172414286Y-86895238D01*
X172361905Y-86842857D01*
X173461905Y-86633333D02*
X173985714Y-86633333D01*
X173357143Y-86947619D02*
X173723810Y-85847619D01*
X174090476Y-86947619D01*
X175035715Y-85952381D02*
X175088096Y-85900000D01*
X175192858Y-85847619D01*
X175454762Y-85847619D01*
X175559524Y-85900000D01*
X175611905Y-85952381D01*
X175664286Y-86057143D01*
X175664286Y-86161905D01*
X175611905Y-86319048D01*
X174983334Y-86947619D01*
X175664286Y-86947619D01*
X176502381Y-86371429D02*
X176659524Y-86423810D01*
X176711905Y-86476190D01*
X176764286Y-86580952D01*
X176764286Y-86738095D01*
X176711905Y-86842857D01*
X176659524Y-86895238D01*
X176554762Y-86947619D01*
X176135715Y-86947619D01*
X176135715Y-85847619D01*
X176502381Y-85847619D01*
X176607143Y-85900000D01*
X176659524Y-85952381D01*
X176711905Y-86057143D01*
X176711905Y-86161905D01*
X176659524Y-86266667D01*
X176607143Y-86319048D01*
X176502381Y-86371429D01*
X176135715Y-86371429D01*
X177614286Y-85952381D02*
X177666667Y-85900000D01*
X177771429Y-85847619D01*
X178033333Y-85847619D01*
X178138095Y-85900000D01*
X178190476Y-85952381D01*
X178242857Y-86057143D01*
X178242857Y-86161905D01*
X178190476Y-86319048D01*
X177561905Y-86947619D01*
X178242857Y-86947619D01*
X178661905Y-86633333D02*
X179185714Y-86633333D01*
X178557143Y-86947619D02*
X178923810Y-85847619D01*
X179290476Y-86947619D01*
X180664286Y-86947619D02*
X180035715Y-86947619D01*
X180350001Y-86947619D02*
X180350001Y-85847619D01*
X180245239Y-86004762D01*
X180140477Y-86109524D01*
X180035715Y-86161905D01*
X181502381Y-86371429D02*
X181659524Y-86423810D01*
X181711905Y-86476190D01*
X181764286Y-86580952D01*
X181764286Y-86738095D01*
X181711905Y-86842857D01*
X181659524Y-86895238D01*
X181554762Y-86947619D01*
X181135715Y-86947619D01*
X181135715Y-85847619D01*
X181502381Y-85847619D01*
X181607143Y-85900000D01*
X181659524Y-85952381D01*
X181711905Y-86057143D01*
X181711905Y-86161905D01*
X181659524Y-86266667D01*
X181607143Y-86319048D01*
X181502381Y-86371429D01*
X181135715Y-86371429D01*
X183192857Y-86947619D02*
X182564286Y-86947619D01*
X182878572Y-86947619D02*
X182878572Y-85847619D01*
X182773810Y-86004762D01*
X182669048Y-86109524D01*
X182564286Y-86161905D01*
X183611905Y-86633333D02*
X184135714Y-86633333D01*
X183507143Y-86947619D02*
X183873810Y-85847619D01*
X184240476Y-86947619D01*
D12*
X157388096Y-84900000D02*
X157292858Y-84852381D01*
X157150001Y-84852381D01*
X157007143Y-84900000D01*
X156911905Y-84995238D01*
X156864286Y-85090476D01*
X156816667Y-85280952D01*
X156816667Y-85423810D01*
X156864286Y-85614286D01*
X156911905Y-85709524D01*
X157007143Y-85804762D01*
X157150001Y-85852381D01*
X157245239Y-85852381D01*
X157388096Y-85804762D01*
X157435715Y-85757143D01*
X157435715Y-85423810D01*
X157245239Y-85423810D01*
X157864286Y-85852381D02*
X157864286Y-84852381D01*
X158435715Y-85852381D01*
X158435715Y-84852381D01*
X158911905Y-85852381D02*
X158911905Y-84852381D01*
X159150000Y-84852381D01*
X159292858Y-84900000D01*
X159388096Y-84995238D01*
X159435715Y-85090476D01*
X159483334Y-85280952D01*
X159483334Y-85423810D01*
X159435715Y-85614286D01*
X159388096Y-85709524D01*
X159292858Y-85804762D01*
X159150000Y-85852381D01*
X158911905Y-85852381D01*
D13*
X141583334Y-83497619D02*
X142264286Y-83497619D01*
X141897620Y-83916667D01*
X142054762Y-83916667D01*
X142159524Y-83969048D01*
X142211905Y-84021429D01*
X142264286Y-84126190D01*
X142264286Y-84388095D01*
X142211905Y-84492857D01*
X142159524Y-84545238D01*
X142054762Y-84597619D01*
X141740477Y-84597619D01*
X141635715Y-84545238D01*
X141583334Y-84492857D01*
X144135715Y-83602381D02*
X144188096Y-83550000D01*
X144292858Y-83497619D01*
X144554762Y-83497619D01*
X144659524Y-83550000D01*
X144711905Y-83602381D01*
X144764286Y-83707143D01*
X144764286Y-83811905D01*
X144711905Y-83969048D01*
X144083334Y-84597619D01*
X144764286Y-84597619D01*
X147314286Y-84597619D02*
X146685715Y-84597619D01*
X147000001Y-84597619D02*
X147000001Y-83497619D01*
X146895239Y-83654762D01*
X146790477Y-83759524D01*
X146685715Y-83811905D01*
D11*
X127861905Y-85850000D02*
X127757143Y-85797619D01*
X127600000Y-85797619D01*
X127442858Y-85850000D01*
X127338096Y-85954762D01*
X127285715Y-86059524D01*
X127233334Y-86269048D01*
X127233334Y-86426190D01*
X127285715Y-86635714D01*
X127338096Y-86740476D01*
X127442858Y-86845238D01*
X127600000Y-86897619D01*
X127704762Y-86897619D01*
X127861905Y-86845238D01*
X127914286Y-86792857D01*
X127914286Y-86426190D01*
X127704762Y-86426190D01*
X128385715Y-86897619D02*
X128385715Y-85797619D01*
X129014286Y-86897619D01*
X129014286Y-85797619D01*
X129538096Y-86897619D02*
X129538096Y-85797619D01*
X129800001Y-85797619D01*
X129957143Y-85850000D01*
X130061905Y-85954762D01*
X130114286Y-86059524D01*
X130166667Y-86269048D01*
X130166667Y-86426190D01*
X130114286Y-86635714D01*
X130061905Y-86740476D01*
X129957143Y-86845238D01*
X129800001Y-86897619D01*
X129538096Y-86897619D01*
X131790476Y-85797619D02*
X131266667Y-85797619D01*
X131214286Y-86321429D01*
X131266667Y-86269048D01*
X131371429Y-86216667D01*
X131633333Y-86216667D01*
X131738095Y-86269048D01*
X131790476Y-86321429D01*
X131842857Y-86426190D01*
X131842857Y-86688095D01*
X131790476Y-86792857D01*
X131738095Y-86845238D01*
X131633333Y-86897619D01*
X131371429Y-86897619D01*
X131266667Y-86845238D01*
X131214286Y-86792857D01*
X132157143Y-85797619D02*
X132523810Y-86897619D01*
X132890476Y-85797619D01*
D14*
X197890476Y-53152381D02*
X198509524Y-53152381D01*
X198176190Y-53533333D01*
X198319048Y-53533333D01*
X198414286Y-53580952D01*
X198461905Y-53628571D01*
X198509524Y-53723810D01*
X198509524Y-53961905D01*
X198461905Y-54057143D01*
X198414286Y-54104762D01*
X198319048Y-54152381D01*
X198033333Y-54152381D01*
X197938095Y-54104762D01*
X197890476Y-54057143D01*
X198890476Y-53247619D02*
X198938095Y-53200000D01*
X199033333Y-53152381D01*
X199271429Y-53152381D01*
X199366667Y-53200000D01*
X199414286Y-53247619D01*
X199461905Y-53342857D01*
X199461905Y-53438095D01*
X199414286Y-53580952D01*
X198842857Y-54152381D01*
X199461905Y-54152381D01*
X195190476Y-53152381D02*
X195809524Y-53152381D01*
X195476190Y-53533333D01*
X195619048Y-53533333D01*
X195714286Y-53580952D01*
X195761905Y-53628571D01*
X195809524Y-53723810D01*
X195809524Y-53961905D01*
X195761905Y-54057143D01*
X195714286Y-54104762D01*
X195619048Y-54152381D01*
X195333333Y-54152381D01*
X195238095Y-54104762D01*
X195190476Y-54057143D01*
X196761905Y-54152381D02*
X196190476Y-54152381D01*
X196476190Y-54152381D02*
X196476190Y-53152381D01*
X196380952Y-53295238D01*
X196285714Y-53390476D01*
X196190476Y-53438095D01*
X192690476Y-53152381D02*
X193309524Y-53152381D01*
X192976190Y-53533333D01*
X193119048Y-53533333D01*
X193214286Y-53580952D01*
X193261905Y-53628571D01*
X193309524Y-53723810D01*
X193309524Y-53961905D01*
X193261905Y-54057143D01*
X193214286Y-54104762D01*
X193119048Y-54152381D01*
X192833333Y-54152381D01*
X192738095Y-54104762D01*
X192690476Y-54057143D01*
X193928571Y-53152381D02*
X194023810Y-53152381D01*
X194119048Y-53200000D01*
X194166667Y-53247619D01*
X194214286Y-53342857D01*
X194261905Y-53533333D01*
X194261905Y-53771429D01*
X194214286Y-53961905D01*
X194166667Y-54057143D01*
X194119048Y-54104762D01*
X194023810Y-54152381D01*
X193928571Y-54152381D01*
X193833333Y-54104762D01*
X193785714Y-54057143D01*
X193738095Y-53961905D01*
X193690476Y-53771429D01*
X193690476Y-53533333D01*
X193738095Y-53342857D01*
X193785714Y-53247619D01*
X193833333Y-53200000D01*
X193928571Y-53152381D01*
X190238095Y-53247619D02*
X190285714Y-53200000D01*
X190380952Y-53152381D01*
X190619048Y-53152381D01*
X190714286Y-53200000D01*
X190761905Y-53247619D01*
X190809524Y-53342857D01*
X190809524Y-53438095D01*
X190761905Y-53580952D01*
X190190476Y-54152381D01*
X190809524Y-54152381D01*
X191285714Y-54152381D02*
X191476190Y-54152381D01*
X191571429Y-54104762D01*
X191619048Y-54057143D01*
X191714286Y-53914286D01*
X191761905Y-53723810D01*
X191761905Y-53342857D01*
X191714286Y-53247619D01*
X191666667Y-53200000D01*
X191571429Y-53152381D01*
X191380952Y-53152381D01*
X191285714Y-53200000D01*
X191238095Y-53247619D01*
X191190476Y-53342857D01*
X191190476Y-53580952D01*
X191238095Y-53676190D01*
X191285714Y-53723810D01*
X191380952Y-53771429D01*
X191571429Y-53771429D01*
X191666667Y-53723810D01*
X191714286Y-53676190D01*
X191761905Y-53580952D01*
X187738095Y-53247619D02*
X187785714Y-53200000D01*
X187880952Y-53152381D01*
X188119048Y-53152381D01*
X188214286Y-53200000D01*
X188261905Y-53247619D01*
X188309524Y-53342857D01*
X188309524Y-53438095D01*
X188261905Y-53580952D01*
X187690476Y-54152381D01*
X188309524Y-54152381D01*
X188880952Y-53580952D02*
X188785714Y-53533333D01*
X188738095Y-53485714D01*
X188690476Y-53390476D01*
X188690476Y-53342857D01*
X188738095Y-53247619D01*
X188785714Y-53200000D01*
X188880952Y-53152381D01*
X189071429Y-53152381D01*
X189166667Y-53200000D01*
X189214286Y-53247619D01*
X189261905Y-53342857D01*
X189261905Y-53390476D01*
X189214286Y-53485714D01*
X189166667Y-53533333D01*
X189071429Y-53580952D01*
X188880952Y-53580952D01*
X188785714Y-53628571D01*
X188738095Y-53676190D01*
X188690476Y-53771429D01*
X188690476Y-53961905D01*
X188738095Y-54057143D01*
X188785714Y-54104762D01*
X188880952Y-54152381D01*
X189071429Y-54152381D01*
X189166667Y-54104762D01*
X189214286Y-54057143D01*
X189261905Y-53961905D01*
X189261905Y-53771429D01*
X189214286Y-53676190D01*
X189166667Y-53628571D01*
X189071429Y-53580952D01*
X185338095Y-53247619D02*
X185385714Y-53200000D01*
X185480952Y-53152381D01*
X185719048Y-53152381D01*
X185814286Y-53200000D01*
X185861905Y-53247619D01*
X185909524Y-53342857D01*
X185909524Y-53438095D01*
X185861905Y-53580952D01*
X185290476Y-54152381D01*
X185909524Y-54152381D01*
X186242857Y-53152381D02*
X186909524Y-53152381D01*
X186480952Y-54152381D01*
X182538095Y-53247619D02*
X182585714Y-53200000D01*
X182680952Y-53152381D01*
X182919048Y-53152381D01*
X183014286Y-53200000D01*
X183061905Y-53247619D01*
X183109524Y-53342857D01*
X183109524Y-53438095D01*
X183061905Y-53580952D01*
X182490476Y-54152381D01*
X183109524Y-54152381D01*
X183966667Y-53152381D02*
X183776190Y-53152381D01*
X183680952Y-53200000D01*
X183633333Y-53247619D01*
X183538095Y-53390476D01*
X183490476Y-53580952D01*
X183490476Y-53961905D01*
X183538095Y-54057143D01*
X183585714Y-54104762D01*
X183680952Y-54152381D01*
X183871429Y-54152381D01*
X183966667Y-54104762D01*
X184014286Y-54057143D01*
X184061905Y-53961905D01*
X184061905Y-53723810D01*
X184014286Y-53628571D01*
X183966667Y-53580952D01*
X183871429Y-53533333D01*
X183680952Y-53533333D01*
X183585714Y-53580952D01*
X183538095Y-53628571D01*
X183490476Y-53723810D01*
X180038095Y-53347619D02*
X180085714Y-53300000D01*
X180180952Y-53252381D01*
X180419048Y-53252381D01*
X180514286Y-53300000D01*
X180561905Y-53347619D01*
X180609524Y-53442857D01*
X180609524Y-53538095D01*
X180561905Y-53680952D01*
X179990476Y-54252381D01*
X180609524Y-54252381D01*
X181514286Y-53252381D02*
X181038095Y-53252381D01*
X180990476Y-53728571D01*
X181038095Y-53680952D01*
X181133333Y-53633333D01*
X181371429Y-53633333D01*
X181466667Y-53680952D01*
X181514286Y-53728571D01*
X181561905Y-53823810D01*
X181561905Y-54061905D01*
X181514286Y-54157143D01*
X181466667Y-54204762D01*
X181371429Y-54252381D01*
X181133333Y-54252381D01*
X181038095Y-54204762D01*
X180990476Y-54157143D01*
X177438095Y-53247619D02*
X177485714Y-53200000D01*
X177580952Y-53152381D01*
X177819048Y-53152381D01*
X177914286Y-53200000D01*
X177961905Y-53247619D01*
X178009524Y-53342857D01*
X178009524Y-53438095D01*
X177961905Y-53580952D01*
X177390476Y-54152381D01*
X178009524Y-54152381D01*
X178866667Y-53485714D02*
X178866667Y-54152381D01*
X178628571Y-53104762D02*
X178390476Y-53819048D01*
X179009524Y-53819048D01*
X175138095Y-53247619D02*
X175185714Y-53200000D01*
X175280952Y-53152381D01*
X175519048Y-53152381D01*
X175614286Y-53200000D01*
X175661905Y-53247619D01*
X175709524Y-53342857D01*
X175709524Y-53438095D01*
X175661905Y-53580952D01*
X175090476Y-54152381D01*
X175709524Y-54152381D01*
X176042857Y-53152381D02*
X176661905Y-53152381D01*
X176328571Y-53533333D01*
X176471429Y-53533333D01*
X176566667Y-53580952D01*
X176614286Y-53628571D01*
X176661905Y-53723810D01*
X176661905Y-53961905D01*
X176614286Y-54057143D01*
X176566667Y-54104762D01*
X176471429Y-54152381D01*
X176185714Y-54152381D01*
X176090476Y-54104762D01*
X176042857Y-54057143D01*
X172538095Y-53247619D02*
X172585714Y-53200000D01*
X172680952Y-53152381D01*
X172919048Y-53152381D01*
X173014286Y-53200000D01*
X173061905Y-53247619D01*
X173109524Y-53342857D01*
X173109524Y-53438095D01*
X173061905Y-53580952D01*
X172490476Y-54152381D01*
X173109524Y-54152381D01*
X173490476Y-53247619D02*
X173538095Y-53200000D01*
X173633333Y-53152381D01*
X173871429Y-53152381D01*
X173966667Y-53200000D01*
X174014286Y-53247619D01*
X174061905Y-53342857D01*
X174061905Y-53438095D01*
X174014286Y-53580952D01*
X173442857Y-54152381D01*
X174061905Y-54152381D01*
X169938095Y-53247619D02*
X169985714Y-53200000D01*
X170080952Y-53152381D01*
X170319048Y-53152381D01*
X170414286Y-53200000D01*
X170461905Y-53247619D01*
X170509524Y-53342857D01*
X170509524Y-53438095D01*
X170461905Y-53580952D01*
X169890476Y-54152381D01*
X170509524Y-54152381D01*
X171461905Y-54152381D02*
X170890476Y-54152381D01*
X171176190Y-54152381D02*
X171176190Y-53152381D01*
X171080952Y-53295238D01*
X170985714Y-53390476D01*
X170890476Y-53438095D01*
X167338095Y-53247619D02*
X167385714Y-53200000D01*
X167480952Y-53152381D01*
X167719048Y-53152381D01*
X167814286Y-53200000D01*
X167861905Y-53247619D01*
X167909524Y-53342857D01*
X167909524Y-53438095D01*
X167861905Y-53580952D01*
X167290476Y-54152381D01*
X167909524Y-54152381D01*
X168528571Y-53152381D02*
X168623810Y-53152381D01*
X168719048Y-53200000D01*
X168766667Y-53247619D01*
X168814286Y-53342857D01*
X168861905Y-53533333D01*
X168861905Y-53771429D01*
X168814286Y-53961905D01*
X168766667Y-54057143D01*
X168719048Y-54104762D01*
X168623810Y-54152381D01*
X168528571Y-54152381D01*
X168433333Y-54104762D01*
X168385714Y-54057143D01*
X168338095Y-53961905D01*
X168290476Y-53771429D01*
X168290476Y-53533333D01*
X168338095Y-53342857D01*
X168385714Y-53247619D01*
X168433333Y-53200000D01*
X168528571Y-53152381D01*
X165409524Y-54152381D02*
X164838095Y-54152381D01*
X165123809Y-54152381D02*
X165123809Y-53152381D01*
X165028571Y-53295238D01*
X164933333Y-53390476D01*
X164838095Y-53438095D01*
X165885714Y-54152381D02*
X166076190Y-54152381D01*
X166171429Y-54104762D01*
X166219048Y-54057143D01*
X166314286Y-53914286D01*
X166361905Y-53723810D01*
X166361905Y-53342857D01*
X166314286Y-53247619D01*
X166266667Y-53200000D01*
X166171429Y-53152381D01*
X165980952Y-53152381D01*
X165885714Y-53200000D01*
X165838095Y-53247619D01*
X165790476Y-53342857D01*
X165790476Y-53580952D01*
X165838095Y-53676190D01*
X165885714Y-53723810D01*
X165980952Y-53771429D01*
X166171429Y-53771429D01*
X166266667Y-53723810D01*
X166314286Y-53676190D01*
X166361905Y-53580952D01*
X162909524Y-54152381D02*
X162338095Y-54152381D01*
X162623809Y-54152381D02*
X162623809Y-53152381D01*
X162528571Y-53295238D01*
X162433333Y-53390476D01*
X162338095Y-53438095D01*
X163480952Y-53580952D02*
X163385714Y-53533333D01*
X163338095Y-53485714D01*
X163290476Y-53390476D01*
X163290476Y-53342857D01*
X163338095Y-53247619D01*
X163385714Y-53200000D01*
X163480952Y-53152381D01*
X163671429Y-53152381D01*
X163766667Y-53200000D01*
X163814286Y-53247619D01*
X163861905Y-53342857D01*
X163861905Y-53390476D01*
X163814286Y-53485714D01*
X163766667Y-53533333D01*
X163671429Y-53580952D01*
X163480952Y-53580952D01*
X163385714Y-53628571D01*
X163338095Y-53676190D01*
X163290476Y-53771429D01*
X163290476Y-53961905D01*
X163338095Y-54057143D01*
X163385714Y-54104762D01*
X163480952Y-54152381D01*
X163671429Y-54152381D01*
X163766667Y-54104762D01*
X163814286Y-54057143D01*
X163861905Y-53961905D01*
X163861905Y-53771429D01*
X163814286Y-53676190D01*
X163766667Y-53628571D01*
X163671429Y-53580952D01*
X160509524Y-54152381D02*
X159938095Y-54152381D01*
X160223809Y-54152381D02*
X160223809Y-53152381D01*
X160128571Y-53295238D01*
X160033333Y-53390476D01*
X159938095Y-53438095D01*
X160842857Y-53152381D02*
X161509524Y-53152381D01*
X161080952Y-54152381D01*
X157809524Y-54152381D02*
X157238095Y-54152381D01*
X157523809Y-54152381D02*
X157523809Y-53152381D01*
X157428571Y-53295238D01*
X157333333Y-53390476D01*
X157238095Y-53438095D01*
X158666667Y-53152381D02*
X158476190Y-53152381D01*
X158380952Y-53200000D01*
X158333333Y-53247619D01*
X158238095Y-53390476D01*
X158190476Y-53580952D01*
X158190476Y-53961905D01*
X158238095Y-54057143D01*
X158285714Y-54104762D01*
X158380952Y-54152381D01*
X158571429Y-54152381D01*
X158666667Y-54104762D01*
X158714286Y-54057143D01*
X158761905Y-53961905D01*
X158761905Y-53723810D01*
X158714286Y-53628571D01*
X158666667Y-53580952D01*
X158571429Y-53533333D01*
X158380952Y-53533333D01*
X158285714Y-53580952D01*
X158238095Y-53628571D01*
X158190476Y-53723810D01*
X155409524Y-54152381D02*
X154838095Y-54152381D01*
X155123809Y-54152381D02*
X155123809Y-53152381D01*
X155028571Y-53295238D01*
X154933333Y-53390476D01*
X154838095Y-53438095D01*
X156314286Y-53152381D02*
X155838095Y-53152381D01*
X155790476Y-53628571D01*
X155838095Y-53580952D01*
X155933333Y-53533333D01*
X156171429Y-53533333D01*
X156266667Y-53580952D01*
X156314286Y-53628571D01*
X156361905Y-53723810D01*
X156361905Y-53961905D01*
X156314286Y-54057143D01*
X156266667Y-54104762D01*
X156171429Y-54152381D01*
X155933333Y-54152381D01*
X155838095Y-54104762D01*
X155790476Y-54057143D01*
X152809524Y-54152381D02*
X152238095Y-54152381D01*
X152523809Y-54152381D02*
X152523809Y-53152381D01*
X152428571Y-53295238D01*
X152333333Y-53390476D01*
X152238095Y-53438095D01*
X153666667Y-53485714D02*
X153666667Y-54152381D01*
X153428571Y-53104762D02*
X153190476Y-53819048D01*
X153809524Y-53819048D01*
X150309524Y-54152381D02*
X149738095Y-54152381D01*
X150023809Y-54152381D02*
X150023809Y-53152381D01*
X149928571Y-53295238D01*
X149833333Y-53390476D01*
X149738095Y-53438095D01*
X150642857Y-53152381D02*
X151261905Y-53152381D01*
X150928571Y-53533333D01*
X151071429Y-53533333D01*
X151166667Y-53580952D01*
X151214286Y-53628571D01*
X151261905Y-53723810D01*
X151261905Y-53961905D01*
X151214286Y-54057143D01*
X151166667Y-54104762D01*
X151071429Y-54152381D01*
X150785714Y-54152381D01*
X150690476Y-54104762D01*
X150642857Y-54057143D01*
X147609524Y-54152381D02*
X147038095Y-54152381D01*
X147323809Y-54152381D02*
X147323809Y-53152381D01*
X147228571Y-53295238D01*
X147133333Y-53390476D01*
X147038095Y-53438095D01*
X147990476Y-53247619D02*
X148038095Y-53200000D01*
X148133333Y-53152381D01*
X148371429Y-53152381D01*
X148466667Y-53200000D01*
X148514286Y-53247619D01*
X148561905Y-53342857D01*
X148561905Y-53438095D01*
X148514286Y-53580952D01*
X147942857Y-54152381D01*
X148561905Y-54152381D01*
X145109524Y-54152381D02*
X144538095Y-54152381D01*
X144823809Y-54152381D02*
X144823809Y-53152381D01*
X144728571Y-53295238D01*
X144633333Y-53390476D01*
X144538095Y-53438095D01*
X146061905Y-54152381D02*
X145490476Y-54152381D01*
X145776190Y-54152381D02*
X145776190Y-53152381D01*
X145680952Y-53295238D01*
X145585714Y-53390476D01*
X145490476Y-53438095D01*
X142409524Y-54252381D02*
X141838095Y-54252381D01*
X142123809Y-54252381D02*
X142123809Y-53252381D01*
X142028571Y-53395238D01*
X141933333Y-53490476D01*
X141838095Y-53538095D01*
X143028571Y-53252381D02*
X143123810Y-53252381D01*
X143219048Y-53300000D01*
X143266667Y-53347619D01*
X143314286Y-53442857D01*
X143361905Y-53633333D01*
X143361905Y-53871429D01*
X143314286Y-54061905D01*
X143266667Y-54157143D01*
X143219048Y-54204762D01*
X143123810Y-54252381D01*
X143028571Y-54252381D01*
X142933333Y-54204762D01*
X142885714Y-54157143D01*
X142838095Y-54061905D01*
X142790476Y-53871429D01*
X142790476Y-53633333D01*
X142838095Y-53442857D01*
X142885714Y-53347619D01*
X142933333Y-53300000D01*
X143028571Y-53252381D01*
X140009524Y-54252381D02*
X140200000Y-54252381D01*
X140295239Y-54204762D01*
X140342858Y-54157143D01*
X140438096Y-54014286D01*
X140485715Y-53823810D01*
X140485715Y-53442857D01*
X140438096Y-53347619D01*
X140390477Y-53300000D01*
X140295239Y-53252381D01*
X140104762Y-53252381D01*
X140009524Y-53300000D01*
X139961905Y-53347619D01*
X139914286Y-53442857D01*
X139914286Y-53680952D01*
X139961905Y-53776190D01*
X140009524Y-53823810D01*
X140104762Y-53871429D01*
X140295239Y-53871429D01*
X140390477Y-53823810D01*
X140438096Y-53776190D01*
X140485715Y-53680952D01*
X137604762Y-53680952D02*
X137509524Y-53633333D01*
X137461905Y-53585714D01*
X137414286Y-53490476D01*
X137414286Y-53442857D01*
X137461905Y-53347619D01*
X137509524Y-53300000D01*
X137604762Y-53252381D01*
X137795239Y-53252381D01*
X137890477Y-53300000D01*
X137938096Y-53347619D01*
X137985715Y-53442857D01*
X137985715Y-53490476D01*
X137938096Y-53585714D01*
X137890477Y-53633333D01*
X137795239Y-53680952D01*
X137604762Y-53680952D01*
X137509524Y-53728571D01*
X137461905Y-53776190D01*
X137414286Y-53871429D01*
X137414286Y-54061905D01*
X137461905Y-54157143D01*
X137509524Y-54204762D01*
X137604762Y-54252381D01*
X137795239Y-54252381D01*
X137890477Y-54204762D01*
X137938096Y-54157143D01*
X137985715Y-54061905D01*
X137985715Y-53871429D01*
X137938096Y-53776190D01*
X137890477Y-53728571D01*
X137795239Y-53680952D01*
X134766667Y-53252381D02*
X135433334Y-53252381D01*
X135004762Y-54252381D01*
X132690477Y-53252381D02*
X132500000Y-53252381D01*
X132404762Y-53300000D01*
X132357143Y-53347619D01*
X132261905Y-53490476D01*
X132214286Y-53680952D01*
X132214286Y-54061905D01*
X132261905Y-54157143D01*
X132309524Y-54204762D01*
X132404762Y-54252381D01*
X132595239Y-54252381D01*
X132690477Y-54204762D01*
X132738096Y-54157143D01*
X132785715Y-54061905D01*
X132785715Y-53823810D01*
X132738096Y-53728571D01*
X132690477Y-53680952D01*
X132595239Y-53633333D01*
X132404762Y-53633333D01*
X132309524Y-53680952D01*
X132261905Y-53728571D01*
X132214286Y-53823810D01*
X130238096Y-53252381D02*
X129761905Y-53252381D01*
X129714286Y-53728571D01*
X129761905Y-53680952D01*
X129857143Y-53633333D01*
X130095239Y-53633333D01*
X130190477Y-53680952D01*
X130238096Y-53728571D01*
X130285715Y-53823810D01*
X130285715Y-54061905D01*
X130238096Y-54157143D01*
X130190477Y-54204762D01*
X130095239Y-54252381D01*
X129857143Y-54252381D01*
X129761905Y-54204762D01*
X129714286Y-54157143D01*
X127690477Y-53585714D02*
X127690477Y-54252381D01*
X127452381Y-53204762D02*
X127214286Y-53919048D01*
X127833334Y-53919048D01*
X124666667Y-53252381D02*
X125285715Y-53252381D01*
X124952381Y-53633333D01*
X125095239Y-53633333D01*
X125190477Y-53680952D01*
X125238096Y-53728571D01*
X125285715Y-53823810D01*
X125285715Y-54061905D01*
X125238096Y-54157143D01*
X125190477Y-54204762D01*
X125095239Y-54252381D01*
X124809524Y-54252381D01*
X124714286Y-54204762D01*
X124666667Y-54157143D01*
X122014286Y-53347619D02*
X122061905Y-53300000D01*
X122157143Y-53252381D01*
X122395239Y-53252381D01*
X122490477Y-53300000D01*
X122538096Y-53347619D01*
X122585715Y-53442857D01*
X122585715Y-53538095D01*
X122538096Y-53680952D01*
X121966667Y-54252381D01*
X122585715Y-54252381D01*
X119685715Y-54252381D02*
X119114286Y-54252381D01*
X119400000Y-54252381D02*
X119400000Y-53252381D01*
X119304762Y-53395238D01*
X119209524Y-53490476D01*
X119114286Y-53538095D01*
D15*
X196714286Y-75178571D02*
X197000001Y-75178571D01*
X197142858Y-75107143D01*
X197214286Y-75035714D01*
X197357144Y-74821429D01*
X197428572Y-74535714D01*
X197428572Y-73964286D01*
X197357144Y-73821429D01*
X197285715Y-73750000D01*
X197142858Y-73678571D01*
X196857144Y-73678571D01*
X196714286Y-73750000D01*
X196642858Y-73821429D01*
X196571429Y-73964286D01*
X196571429Y-74321429D01*
X196642858Y-74464286D01*
X196714286Y-74535714D01*
X196857144Y-74607143D01*
X197142858Y-74607143D01*
X197285715Y-74535714D01*
X197357144Y-74464286D01*
X197428572Y-74321429D01*
X193828572Y-57378571D02*
X192971429Y-57378571D01*
X193400001Y-57378571D02*
X193400001Y-55878571D01*
X193257144Y-56092857D01*
X193114286Y-56235714D01*
X192971429Y-56307143D01*
X186478571Y-57985714D02*
X186478571Y-57699999D01*
X186407143Y-57557142D01*
X186335714Y-57485714D01*
X186121429Y-57342856D01*
X185835714Y-57271428D01*
X185264286Y-57271428D01*
X185121429Y-57342856D01*
X185050000Y-57414285D01*
X184978571Y-57557142D01*
X184978571Y-57842856D01*
X185050000Y-57985714D01*
X185121429Y-58057142D01*
X185264286Y-58128571D01*
X185621429Y-58128571D01*
X185764286Y-58057142D01*
X185835714Y-57985714D01*
X185907143Y-57842856D01*
X185907143Y-57557142D01*
X185835714Y-57414285D01*
X185764286Y-57342856D01*
X185621429Y-57271428D01*
X168478571Y-60871428D02*
X168478571Y-61728571D01*
X168478571Y-61299999D02*
X166978571Y-61299999D01*
X167192857Y-61442856D01*
X167335714Y-61585714D01*
X167407143Y-61728571D01*
X144978571Y-60571428D02*
X144978571Y-61428571D01*
X144978571Y-60999999D02*
X143478571Y-60999999D01*
X143692857Y-61142856D01*
X143835714Y-61285714D01*
X143907143Y-61428571D01*
X139078571Y-57985714D02*
X139078571Y-57699999D01*
X139007143Y-57557142D01*
X138935714Y-57485714D01*
X138721429Y-57342856D01*
X138435714Y-57271428D01*
X137864286Y-57271428D01*
X137721429Y-57342856D01*
X137650000Y-57414285D01*
X137578571Y-57557142D01*
X137578571Y-57842856D01*
X137650000Y-57985714D01*
X137721429Y-58057142D01*
X137864286Y-58128571D01*
X138221429Y-58128571D01*
X138364286Y-58057142D01*
X138435714Y-57985714D01*
X138507143Y-57842856D01*
X138507143Y-57557142D01*
X138435714Y-57414285D01*
X138364286Y-57342856D01*
X138221429Y-57271428D01*
X121278571Y-60671428D02*
X121278571Y-61528571D01*
X121278571Y-61099999D02*
X119778571Y-61099999D01*
X119992857Y-61242856D01*
X120135714Y-61385714D01*
X120207143Y-61528571D01*
D11*
X187897619Y-69707143D02*
X187897619Y-70230952D01*
X186797619Y-70230952D01*
X187321429Y-69340476D02*
X187321429Y-68973810D01*
X187897619Y-68816667D02*
X187897619Y-69340476D01*
X186797619Y-69340476D01*
X186797619Y-68816667D01*
X187897619Y-68345238D02*
X186797619Y-68345238D01*
X186797619Y-68083333D01*
X186850000Y-67926191D01*
X186954762Y-67821429D01*
X187059524Y-67769048D01*
X187269048Y-67716667D01*
X187426190Y-67716667D01*
X187635714Y-67769048D01*
X187740476Y-67821429D01*
X187845238Y-67926191D01*
X187897619Y-68083333D01*
X187897619Y-68345238D01*
X156997619Y-70638095D02*
X156997619Y-69957143D01*
X157416667Y-70323809D01*
X157416667Y-70166667D01*
X157469048Y-70061905D01*
X157521429Y-70009524D01*
X157626190Y-69957143D01*
X157888095Y-69957143D01*
X157992857Y-70009524D01*
X158045238Y-70061905D01*
X158097619Y-70166667D01*
X158097619Y-70480952D01*
X158045238Y-70585714D01*
X157992857Y-70638095D01*
X156997619Y-69642857D02*
X158097619Y-69276190D01*
X156997619Y-68909524D01*
X149850000Y-81738095D02*
X149797619Y-81842857D01*
X149797619Y-82000000D01*
X149850000Y-82157142D01*
X149954762Y-82261904D01*
X150059524Y-82314285D01*
X150269048Y-82366666D01*
X150426190Y-82366666D01*
X150635714Y-82314285D01*
X150740476Y-82261904D01*
X150845238Y-82157142D01*
X150897619Y-82000000D01*
X150897619Y-81895238D01*
X150845238Y-81738095D01*
X150792857Y-81685714D01*
X150426190Y-81685714D01*
X150426190Y-81895238D01*
X150897619Y-81214285D02*
X149797619Y-81214285D01*
X150897619Y-80585714D01*
X149797619Y-80585714D01*
X150897619Y-80061904D02*
X149797619Y-80061904D01*
X149797619Y-79799999D01*
X149850000Y-79642857D01*
X149954762Y-79538095D01*
X150059524Y-79485714D01*
X150269048Y-79433333D01*
X150426190Y-79433333D01*
X150635714Y-79485714D01*
X150740476Y-79538095D01*
X150845238Y-79642857D01*
X150897619Y-79799999D01*
X150897619Y-80061904D01*
D15*
X151128571Y-71628571D02*
X149985714Y-72057143D01*
X151128571Y-72485714D01*
X152985714Y-71628571D02*
X151842857Y-72057143D01*
X152985714Y-72485714D01*
X154842857Y-71628571D02*
X153700000Y-72057143D01*
X154842857Y-72485714D01*
X156700000Y-71628571D02*
X155557143Y-72057143D01*
X156700000Y-72485714D01*
X158557143Y-71628571D02*
X157414286Y-72057143D01*
X158557143Y-72485714D01*
X160414286Y-71628571D02*
X159271429Y-72057143D01*
X160414286Y-72485714D01*
X150235715Y-73678571D02*
X150235715Y-74892857D01*
X150307143Y-75035714D01*
X150378572Y-75107143D01*
X150521429Y-75178571D01*
X150807143Y-75178571D01*
X150950001Y-75107143D01*
X151021429Y-75035714D01*
X151092858Y-74892857D01*
X151092858Y-73678571D01*
X151735715Y-75107143D02*
X151950001Y-75178571D01*
X152307144Y-75178571D01*
X152450001Y-75107143D01*
X152521430Y-75035714D01*
X152592858Y-74892857D01*
X152592858Y-74750000D01*
X152521430Y-74607143D01*
X152450001Y-74535714D01*
X152307144Y-74464286D01*
X152021430Y-74392857D01*
X151878572Y-74321429D01*
X151807144Y-74250000D01*
X151735715Y-74107143D01*
X151735715Y-73964286D01*
X151807144Y-73821429D01*
X151878572Y-73750000D01*
X152021430Y-73678571D01*
X152378572Y-73678571D01*
X152592858Y-73750000D01*
X153735715Y-74392857D02*
X153950001Y-74464286D01*
X154021429Y-74535714D01*
X154092858Y-74678571D01*
X154092858Y-74892857D01*
X154021429Y-75035714D01*
X153950001Y-75107143D01*
X153807143Y-75178571D01*
X153235715Y-75178571D01*
X153235715Y-73678571D01*
X153735715Y-73678571D01*
X153878572Y-73750000D01*
X153950001Y-73821429D01*
X154021429Y-73964286D01*
X154021429Y-74107143D01*
X153950001Y-74250000D01*
X153878572Y-74321429D01*
X153735715Y-74392857D01*
X153235715Y-74392857D01*
X155878572Y-75178571D02*
X155878572Y-73678571D01*
X156450000Y-73678571D01*
X156592858Y-73750000D01*
X156664286Y-73821429D01*
X156735715Y-73964286D01*
X156735715Y-74178571D01*
X156664286Y-74321429D01*
X156592858Y-74392857D01*
X156450000Y-74464286D01*
X155878572Y-74464286D01*
X157592858Y-75178571D02*
X157450000Y-75107143D01*
X157378572Y-74964286D01*
X157378572Y-73678571D01*
X158807143Y-74178571D02*
X158807143Y-75178571D01*
X158164286Y-74178571D02*
X158164286Y-74964286D01*
X158235714Y-75107143D01*
X158378572Y-75178571D01*
X158592857Y-75178571D01*
X158735714Y-75107143D01*
X158807143Y-75035714D01*
X160164286Y-74178571D02*
X160164286Y-75392857D01*
X160092857Y-75535714D01*
X160021429Y-75607143D01*
X159878572Y-75678571D01*
X159664286Y-75678571D01*
X159521429Y-75607143D01*
X160164286Y-75107143D02*
X160021429Y-75178571D01*
X159735715Y-75178571D01*
X159592857Y-75107143D01*
X159521429Y-75035714D01*
X159450000Y-74892857D01*
X159450000Y-74464286D01*
X159521429Y-74321429D01*
X159592857Y-74250000D01*
X159735715Y-74178571D01*
X160021429Y-74178571D01*
X160164286Y-74250000D01*
X151128571Y-76728571D02*
X149985714Y-77157143D01*
X151128571Y-77585714D01*
X152985714Y-76728571D02*
X151842857Y-77157143D01*
X152985714Y-77585714D01*
X154842857Y-76728571D02*
X153700000Y-77157143D01*
X154842857Y-77585714D01*
X156700000Y-76728571D02*
X155557143Y-77157143D01*
X156700000Y-77585714D01*
X158557143Y-76728571D02*
X157414286Y-77157143D01*
X158557143Y-77585714D01*
X160414286Y-76728571D02*
X159271429Y-77157143D01*
X160414286Y-77585714D01*
D12*
X123460714Y-91133333D02*
X124270238Y-91133333D01*
X124365476Y-91180952D01*
X124413095Y-91228571D01*
X124460714Y-91323810D01*
X124460714Y-91466667D01*
X124413095Y-91561905D01*
X124079762Y-91133333D02*
X124127381Y-91228571D01*
X124127381Y-91419048D01*
X124079762Y-91514286D01*
X124032143Y-91561905D01*
X123936905Y-91609524D01*
X123651190Y-91609524D01*
X123555952Y-91561905D01*
X123508333Y-91514286D01*
X123460714Y-91419048D01*
X123460714Y-91228571D01*
X123508333Y-91133333D01*
X124127381Y-90657143D02*
X123460714Y-90657143D01*
X123127381Y-90657143D02*
X123175000Y-90704762D01*
X123222619Y-90657143D01*
X123175000Y-90609524D01*
X123127381Y-90657143D01*
X123222619Y-90657143D01*
X123460714Y-90323810D02*
X123460714Y-89942858D01*
X123127381Y-90180953D02*
X123984524Y-90180953D01*
X124079762Y-90133334D01*
X124127381Y-90038096D01*
X124127381Y-89942858D01*
X124127381Y-89609524D02*
X123127381Y-89609524D01*
X124127381Y-89180952D02*
X123603571Y-89180952D01*
X123508333Y-89228571D01*
X123460714Y-89323809D01*
X123460714Y-89466667D01*
X123508333Y-89561905D01*
X123555952Y-89609524D01*
X123460714Y-88276190D02*
X124127381Y-88276190D01*
X123460714Y-88704762D02*
X123984524Y-88704762D01*
X124079762Y-88657143D01*
X124127381Y-88561905D01*
X124127381Y-88419047D01*
X124079762Y-88323809D01*
X124032143Y-88276190D01*
X124127381Y-87800000D02*
X123127381Y-87800000D01*
X123508333Y-87800000D02*
X123460714Y-87704762D01*
X123460714Y-87514285D01*
X123508333Y-87419047D01*
X123555952Y-87371428D01*
X123651190Y-87323809D01*
X123936905Y-87323809D01*
X124032143Y-87371428D01*
X124079762Y-87419047D01*
X124127381Y-87514285D01*
X124127381Y-87704762D01*
X124079762Y-87800000D01*
X124032143Y-86895238D02*
X124079762Y-86847619D01*
X124127381Y-86895238D01*
X124079762Y-86942857D01*
X124032143Y-86895238D01*
X124127381Y-86895238D01*
X124079762Y-85990476D02*
X124127381Y-86085714D01*
X124127381Y-86276191D01*
X124079762Y-86371429D01*
X124032143Y-86419048D01*
X123936905Y-86466667D01*
X123651190Y-86466667D01*
X123555952Y-86419048D01*
X123508333Y-86371429D01*
X123460714Y-86276191D01*
X123460714Y-86085714D01*
X123508333Y-85990476D01*
X124127381Y-85419048D02*
X124079762Y-85514286D01*
X124032143Y-85561905D01*
X123936905Y-85609524D01*
X123651190Y-85609524D01*
X123555952Y-85561905D01*
X123508333Y-85514286D01*
X123460714Y-85419048D01*
X123460714Y-85276190D01*
X123508333Y-85180952D01*
X123555952Y-85133333D01*
X123651190Y-85085714D01*
X123936905Y-85085714D01*
X124032143Y-85133333D01*
X124079762Y-85180952D01*
X124127381Y-85276190D01*
X124127381Y-85419048D01*
X124127381Y-84657143D02*
X123460714Y-84657143D01*
X123555952Y-84657143D02*
X123508333Y-84609524D01*
X123460714Y-84514286D01*
X123460714Y-84371428D01*
X123508333Y-84276190D01*
X123603571Y-84228571D01*
X124127381Y-84228571D01*
X123603571Y-84228571D02*
X123508333Y-84180952D01*
X123460714Y-84085714D01*
X123460714Y-83942857D01*
X123508333Y-83847619D01*
X123603571Y-83800000D01*
X124127381Y-83800000D01*
X123079762Y-82609524D02*
X124365476Y-83466667D01*
X124127381Y-82276191D02*
X123127381Y-82276191D01*
X124127381Y-81704762D02*
X123555952Y-82133334D01*
X123127381Y-81704762D02*
X123698810Y-82276191D01*
X124127381Y-80847619D02*
X123603571Y-80847619D01*
X123508333Y-80895238D01*
X123460714Y-80990476D01*
X123460714Y-81180953D01*
X123508333Y-81276191D01*
X124079762Y-80847619D02*
X124127381Y-80942857D01*
X124127381Y-81180953D01*
X124079762Y-81276191D01*
X123984524Y-81323810D01*
X123889286Y-81323810D01*
X123794048Y-81276191D01*
X123746429Y-81180953D01*
X123746429Y-80942857D01*
X123698810Y-80847619D01*
X124127381Y-80371429D02*
X123460714Y-80371429D01*
X123127381Y-80371429D02*
X123175000Y-80419048D01*
X123222619Y-80371429D01*
X123175000Y-80323810D01*
X123127381Y-80371429D01*
X123222619Y-80371429D01*
X124079762Y-79942858D02*
X124127381Y-79847620D01*
X124127381Y-79657144D01*
X124079762Y-79561905D01*
X123984524Y-79514286D01*
X123936905Y-79514286D01*
X123841667Y-79561905D01*
X123794048Y-79657144D01*
X123794048Y-79800001D01*
X123746429Y-79895239D01*
X123651190Y-79942858D01*
X123603571Y-79942858D01*
X123508333Y-79895239D01*
X123460714Y-79800001D01*
X123460714Y-79657144D01*
X123508333Y-79561905D01*
X124079762Y-78704762D02*
X124127381Y-78800000D01*
X124127381Y-78990477D01*
X124079762Y-79085715D01*
X123984524Y-79133334D01*
X123603571Y-79133334D01*
X123508333Y-79085715D01*
X123460714Y-78990477D01*
X123460714Y-78800000D01*
X123508333Y-78704762D01*
X123603571Y-78657143D01*
X123698810Y-78657143D01*
X123794048Y-79133334D01*
X124127381Y-78228572D02*
X123460714Y-78228572D01*
X123651190Y-78228572D02*
X123555952Y-78180953D01*
X123508333Y-78133334D01*
X123460714Y-78038096D01*
X123460714Y-77942857D01*
X124079762Y-77657143D02*
X124127381Y-77514286D01*
X124127381Y-77276190D01*
X124079762Y-77180952D01*
X124032143Y-77133333D01*
X123936905Y-77085714D01*
X123841667Y-77085714D01*
X123746429Y-77133333D01*
X123698810Y-77180952D01*
X123651190Y-77276190D01*
X123603571Y-77466667D01*
X123555952Y-77561905D01*
X123508333Y-77609524D01*
X123413095Y-77657143D01*
X123317857Y-77657143D01*
X123222619Y-77609524D01*
X123175000Y-77561905D01*
X123127381Y-77466667D01*
X123127381Y-77228571D01*
X123175000Y-77085714D01*
X124127381Y-76514286D02*
X124079762Y-76609524D01*
X124032143Y-76657143D01*
X123936905Y-76704762D01*
X123651190Y-76704762D01*
X123555952Y-76657143D01*
X123508333Y-76609524D01*
X123460714Y-76514286D01*
X123460714Y-76371428D01*
X123508333Y-76276190D01*
X123555952Y-76228571D01*
X123651190Y-76180952D01*
X123936905Y-76180952D01*
X124032143Y-76228571D01*
X124079762Y-76276190D01*
X124127381Y-76371428D01*
X124127381Y-76514286D01*
X123460714Y-75895238D02*
X123460714Y-75514286D01*
X124127381Y-75752381D02*
X123270238Y-75752381D01*
X123175000Y-75704762D01*
X123127381Y-75609524D01*
X123127381Y-75514286D01*
X123460714Y-75323809D02*
X123460714Y-74942857D01*
X123127381Y-75180952D02*
X123984524Y-75180952D01*
X124079762Y-75133333D01*
X124127381Y-75038095D01*
X124127381Y-74942857D01*
X123079762Y-73895237D02*
X124365476Y-74752380D01*
X124777381Y-79490474D02*
X124777381Y-79299997D01*
X124825000Y-79204759D01*
X124920238Y-79109521D01*
X125110714Y-79061902D01*
X125444048Y-79061902D01*
X125634524Y-79109521D01*
X125729762Y-79204759D01*
X125777381Y-79299997D01*
X125777381Y-79490474D01*
X125729762Y-79585712D01*
X125634524Y-79680950D01*
X125444048Y-79728569D01*
X125110714Y-79728569D01*
X124920238Y-79680950D01*
X124825000Y-79585712D01*
X124777381Y-79490474D01*
X125110714Y-78633331D02*
X126110714Y-78633331D01*
X125158333Y-78633331D02*
X125110714Y-78538093D01*
X125110714Y-78347616D01*
X125158333Y-78252378D01*
X125205952Y-78204759D01*
X125301190Y-78157140D01*
X125586905Y-78157140D01*
X125682143Y-78204759D01*
X125729762Y-78252378D01*
X125777381Y-78347616D01*
X125777381Y-78538093D01*
X125729762Y-78633331D01*
X125729762Y-77347616D02*
X125777381Y-77442854D01*
X125777381Y-77633331D01*
X125729762Y-77728569D01*
X125634524Y-77776188D01*
X125253571Y-77776188D01*
X125158333Y-77728569D01*
X125110714Y-77633331D01*
X125110714Y-77442854D01*
X125158333Y-77347616D01*
X125253571Y-77299997D01*
X125348810Y-77299997D01*
X125444048Y-77776188D01*
X125110714Y-76871426D02*
X125777381Y-76871426D01*
X125205952Y-76871426D02*
X125158333Y-76823807D01*
X125110714Y-76728569D01*
X125110714Y-76585711D01*
X125158333Y-76490473D01*
X125253571Y-76442854D01*
X125777381Y-76442854D01*
X125729762Y-76014283D02*
X125777381Y-75871426D01*
X125777381Y-75633330D01*
X125729762Y-75538092D01*
X125682143Y-75490473D01*
X125586905Y-75442854D01*
X125491667Y-75442854D01*
X125396429Y-75490473D01*
X125348810Y-75538092D01*
X125301190Y-75633330D01*
X125253571Y-75823807D01*
X125205952Y-75919045D01*
X125158333Y-75966664D01*
X125063095Y-76014283D01*
X124967857Y-76014283D01*
X124872619Y-75966664D01*
X124825000Y-75919045D01*
X124777381Y-75823807D01*
X124777381Y-75585711D01*
X124825000Y-75442854D01*
X125777381Y-75014283D02*
X125110714Y-75014283D01*
X124777381Y-75014283D02*
X124825000Y-75061902D01*
X124872619Y-75014283D01*
X124825000Y-74966664D01*
X124777381Y-75014283D01*
X124872619Y-75014283D01*
X125777381Y-74538093D02*
X125110714Y-74538093D01*
X125205952Y-74538093D02*
X125158333Y-74490474D01*
X125110714Y-74395236D01*
X125110714Y-74252378D01*
X125158333Y-74157140D01*
X125253571Y-74109521D01*
X125777381Y-74109521D01*
X125253571Y-74109521D02*
X125158333Y-74061902D01*
X125110714Y-73966664D01*
X125110714Y-73823807D01*
X125158333Y-73728569D01*
X125253571Y-73680950D01*
X125777381Y-73680950D01*
X125253571Y-72871426D02*
X125301190Y-72728569D01*
X125348810Y-72680950D01*
X125444048Y-72633331D01*
X125586905Y-72633331D01*
X125682143Y-72680950D01*
X125729762Y-72728569D01*
X125777381Y-72823807D01*
X125777381Y-73204760D01*
X124777381Y-73204760D01*
X124777381Y-72871426D01*
X124825000Y-72776188D01*
X124872619Y-72728569D01*
X124967857Y-72680950D01*
X125063095Y-72680950D01*
X125158333Y-72728569D01*
X125205952Y-72776188D01*
X125253571Y-72871426D01*
X125253571Y-73204760D01*
X125110714Y-71776188D02*
X125777381Y-71776188D01*
X125110714Y-72204760D02*
X125634524Y-72204760D01*
X125729762Y-72157141D01*
X125777381Y-72061903D01*
X125777381Y-71919045D01*
X125729762Y-71823807D01*
X125682143Y-71776188D01*
X125110714Y-71442855D02*
X125110714Y-71061903D01*
X124777381Y-71299998D02*
X125634524Y-71299998D01*
X125729762Y-71252379D01*
X125777381Y-71157141D01*
X125777381Y-71061903D01*
X125110714Y-70871426D02*
X125110714Y-70490474D01*
X124777381Y-70728569D02*
X125634524Y-70728569D01*
X125729762Y-70680950D01*
X125777381Y-70585712D01*
X125777381Y-70490474D01*
X125777381Y-70014283D02*
X125729762Y-70109521D01*
X125682143Y-70157140D01*
X125586905Y-70204759D01*
X125301190Y-70204759D01*
X125205952Y-70157140D01*
X125158333Y-70109521D01*
X125110714Y-70014283D01*
X125110714Y-69871425D01*
X125158333Y-69776187D01*
X125205952Y-69728568D01*
X125301190Y-69680949D01*
X125586905Y-69680949D01*
X125682143Y-69728568D01*
X125729762Y-69776187D01*
X125777381Y-69871425D01*
X125777381Y-70014283D01*
X125110714Y-69252378D02*
X125777381Y-69252378D01*
X125205952Y-69252378D02*
X125158333Y-69204759D01*
X125110714Y-69109521D01*
X125110714Y-68966663D01*
X125158333Y-68871425D01*
X125253571Y-68823806D01*
X125777381Y-68823806D01*
X125253571Y-68014282D02*
X125301190Y-67871425D01*
X125348810Y-67823806D01*
X125444048Y-67776187D01*
X125586905Y-67776187D01*
X125682143Y-67823806D01*
X125729762Y-67871425D01*
X125777381Y-67966663D01*
X125777381Y-68347616D01*
X124777381Y-68347616D01*
X124777381Y-68014282D01*
X124825000Y-67919044D01*
X124872619Y-67871425D01*
X124967857Y-67823806D01*
X125063095Y-67823806D01*
X125158333Y-67871425D01*
X125205952Y-67919044D01*
X125253571Y-68014282D01*
X125253571Y-68347616D01*
X125777381Y-67204759D02*
X125729762Y-67299997D01*
X125682143Y-67347616D01*
X125586905Y-67395235D01*
X125301190Y-67395235D01*
X125205952Y-67347616D01*
X125158333Y-67299997D01*
X125110714Y-67204759D01*
X125110714Y-67061901D01*
X125158333Y-66966663D01*
X125205952Y-66919044D01*
X125301190Y-66871425D01*
X125586905Y-66871425D01*
X125682143Y-66919044D01*
X125729762Y-66966663D01*
X125777381Y-67061901D01*
X125777381Y-67204759D01*
X125777381Y-66538092D02*
X125110714Y-66014282D01*
X125110714Y-66538092D02*
X125777381Y-66014282D01*
X118927381Y-91561905D02*
X117927381Y-91561905D01*
X118641667Y-91228571D01*
X117927381Y-90895238D01*
X118927381Y-90895238D01*
X118927381Y-90276191D02*
X118879762Y-90371429D01*
X118832143Y-90419048D01*
X118736905Y-90466667D01*
X118451190Y-90466667D01*
X118355952Y-90419048D01*
X118308333Y-90371429D01*
X118260714Y-90276191D01*
X118260714Y-90133333D01*
X118308333Y-90038095D01*
X118355952Y-89990476D01*
X118451190Y-89942857D01*
X118736905Y-89942857D01*
X118832143Y-89990476D01*
X118879762Y-90038095D01*
X118927381Y-90133333D01*
X118927381Y-90276191D01*
X118927381Y-89085714D02*
X117927381Y-89085714D01*
X118879762Y-89085714D02*
X118927381Y-89180952D01*
X118927381Y-89371429D01*
X118879762Y-89466667D01*
X118832143Y-89514286D01*
X118736905Y-89561905D01*
X118451190Y-89561905D01*
X118355952Y-89514286D01*
X118308333Y-89466667D01*
X118260714Y-89371429D01*
X118260714Y-89180952D01*
X118308333Y-89085714D01*
X118260714Y-88180952D02*
X118927381Y-88180952D01*
X118260714Y-88609524D02*
X118784524Y-88609524D01*
X118879762Y-88561905D01*
X118927381Y-88466667D01*
X118927381Y-88323809D01*
X118879762Y-88228571D01*
X118832143Y-88180952D01*
X118927381Y-87561905D02*
X118879762Y-87657143D01*
X118784524Y-87704762D01*
X117927381Y-87704762D01*
X118927381Y-86752380D02*
X118403571Y-86752380D01*
X118308333Y-86799999D01*
X118260714Y-86895237D01*
X118260714Y-87085714D01*
X118308333Y-87180952D01*
X118879762Y-86752380D02*
X118927381Y-86847618D01*
X118927381Y-87085714D01*
X118879762Y-87180952D01*
X118784524Y-87228571D01*
X118689286Y-87228571D01*
X118594048Y-87180952D01*
X118546429Y-87085714D01*
X118546429Y-86847618D01*
X118498810Y-86752380D01*
X118927381Y-86276190D02*
X118260714Y-86276190D01*
X118451190Y-86276190D02*
X118355952Y-86228571D01*
X118308333Y-86180952D01*
X118260714Y-86085714D01*
X118260714Y-85990475D01*
X117927381Y-84704761D02*
X117927381Y-84514284D01*
X117975000Y-84419046D01*
X118070238Y-84323808D01*
X118260714Y-84276189D01*
X118594048Y-84276189D01*
X118784524Y-84323808D01*
X118879762Y-84419046D01*
X118927381Y-84514284D01*
X118927381Y-84704761D01*
X118879762Y-84799999D01*
X118784524Y-84895237D01*
X118594048Y-84942856D01*
X118260714Y-84942856D01*
X118070238Y-84895237D01*
X117975000Y-84799999D01*
X117927381Y-84704761D01*
X118260714Y-83847618D02*
X119260714Y-83847618D01*
X118308333Y-83847618D02*
X118260714Y-83752380D01*
X118260714Y-83561903D01*
X118308333Y-83466665D01*
X118355952Y-83419046D01*
X118451190Y-83371427D01*
X118736905Y-83371427D01*
X118832143Y-83419046D01*
X118879762Y-83466665D01*
X118927381Y-83561903D01*
X118927381Y-83752380D01*
X118879762Y-83847618D01*
X118879762Y-82561903D02*
X118927381Y-82657141D01*
X118927381Y-82847618D01*
X118879762Y-82942856D01*
X118784524Y-82990475D01*
X118403571Y-82990475D01*
X118308333Y-82942856D01*
X118260714Y-82847618D01*
X118260714Y-82657141D01*
X118308333Y-82561903D01*
X118403571Y-82514284D01*
X118498810Y-82514284D01*
X118594048Y-82990475D01*
X118260714Y-82085713D02*
X118927381Y-82085713D01*
X118355952Y-82085713D02*
X118308333Y-82038094D01*
X118260714Y-81942856D01*
X118260714Y-81799998D01*
X118308333Y-81704760D01*
X118403571Y-81657141D01*
X118927381Y-81657141D01*
X118403571Y-80085712D02*
X118451190Y-79942855D01*
X118498810Y-79895236D01*
X118594048Y-79847617D01*
X118736905Y-79847617D01*
X118832143Y-79895236D01*
X118879762Y-79942855D01*
X118927381Y-80038093D01*
X118927381Y-80419046D01*
X117927381Y-80419046D01*
X117927381Y-80085712D01*
X117975000Y-79990474D01*
X118022619Y-79942855D01*
X118117857Y-79895236D01*
X118213095Y-79895236D01*
X118308333Y-79942855D01*
X118355952Y-79990474D01*
X118403571Y-80085712D01*
X118403571Y-80419046D01*
X118260714Y-78990474D02*
X118927381Y-78990474D01*
X118260714Y-79419046D02*
X118784524Y-79419046D01*
X118879762Y-79371427D01*
X118927381Y-79276189D01*
X118927381Y-79133331D01*
X118879762Y-79038093D01*
X118832143Y-78990474D01*
X118260714Y-78657141D02*
X118260714Y-78276189D01*
X117927381Y-78514284D02*
X118784524Y-78514284D01*
X118879762Y-78466665D01*
X118927381Y-78371427D01*
X118927381Y-78276189D01*
X118260714Y-78085712D02*
X118260714Y-77704760D01*
X117927381Y-77942855D02*
X118784524Y-77942855D01*
X118879762Y-77895236D01*
X118927381Y-77799998D01*
X118927381Y-77704760D01*
X118927381Y-77228569D02*
X118879762Y-77323807D01*
X118832143Y-77371426D01*
X118736905Y-77419045D01*
X118451190Y-77419045D01*
X118355952Y-77371426D01*
X118308333Y-77323807D01*
X118260714Y-77228569D01*
X118260714Y-77085711D01*
X118308333Y-76990473D01*
X118355952Y-76942854D01*
X118451190Y-76895235D01*
X118736905Y-76895235D01*
X118832143Y-76942854D01*
X118879762Y-76990473D01*
X118927381Y-77085711D01*
X118927381Y-77228569D01*
X118260714Y-76466664D02*
X118927381Y-76466664D01*
X118355952Y-76466664D02*
X118308333Y-76419045D01*
X118260714Y-76323807D01*
X118260714Y-76180949D01*
X118308333Y-76085711D01*
X118403571Y-76038092D01*
X118927381Y-76038092D01*
X118403571Y-74466663D02*
X118451190Y-74323806D01*
X118498810Y-74276187D01*
X118594048Y-74228568D01*
X118736905Y-74228568D01*
X118832143Y-74276187D01*
X118879762Y-74323806D01*
X118927381Y-74419044D01*
X118927381Y-74799997D01*
X117927381Y-74799997D01*
X117927381Y-74466663D01*
X117975000Y-74371425D01*
X118022619Y-74323806D01*
X118117857Y-74276187D01*
X118213095Y-74276187D01*
X118308333Y-74323806D01*
X118355952Y-74371425D01*
X118403571Y-74466663D01*
X118403571Y-74799997D01*
X118927381Y-73657140D02*
X118879762Y-73752378D01*
X118832143Y-73799997D01*
X118736905Y-73847616D01*
X118451190Y-73847616D01*
X118355952Y-73799997D01*
X118308333Y-73752378D01*
X118260714Y-73657140D01*
X118260714Y-73514282D01*
X118308333Y-73419044D01*
X118355952Y-73371425D01*
X118451190Y-73323806D01*
X118736905Y-73323806D01*
X118832143Y-73371425D01*
X118879762Y-73419044D01*
X118927381Y-73514282D01*
X118927381Y-73657140D01*
X118927381Y-72990473D02*
X118260714Y-72466663D01*
X118260714Y-72990473D02*
X118927381Y-72466663D01*
X119308333Y-71038091D02*
X119260714Y-71085711D01*
X119117857Y-71180949D01*
X119022619Y-71228568D01*
X118879762Y-71276187D01*
X118641667Y-71323806D01*
X118451190Y-71323806D01*
X118213095Y-71276187D01*
X118070238Y-71228568D01*
X117975000Y-71180949D01*
X117832143Y-71085711D01*
X117784524Y-71038091D01*
X118927381Y-70657139D02*
X117927381Y-70657139D01*
X118641667Y-70323805D01*
X117927381Y-69990472D01*
X118927381Y-69990472D01*
X117927381Y-69323806D02*
X117927381Y-69133329D01*
X117975000Y-69038091D01*
X118070238Y-68942853D01*
X118260714Y-68895234D01*
X118594048Y-68895234D01*
X118784524Y-68942853D01*
X118879762Y-69038091D01*
X118927381Y-69133329D01*
X118927381Y-69323806D01*
X118879762Y-69419044D01*
X118784524Y-69514282D01*
X118594048Y-69561901D01*
X118260714Y-69561901D01*
X118070238Y-69514282D01*
X117975000Y-69419044D01*
X117927381Y-69323806D01*
X118403571Y-68133329D02*
X118451190Y-67990472D01*
X118498810Y-67942853D01*
X118594048Y-67895234D01*
X118736905Y-67895234D01*
X118832143Y-67942853D01*
X118879762Y-67990472D01*
X118927381Y-68085710D01*
X118927381Y-68466663D01*
X117927381Y-68466663D01*
X117927381Y-68133329D01*
X117975000Y-68038091D01*
X118022619Y-67990472D01*
X118117857Y-67942853D01*
X118213095Y-67942853D01*
X118308333Y-67990472D01*
X118355952Y-68038091D01*
X118403571Y-68133329D01*
X118403571Y-68466663D01*
X118403571Y-67133329D02*
X118451190Y-66990472D01*
X118498810Y-66942853D01*
X118594048Y-66895234D01*
X118736905Y-66895234D01*
X118832143Y-66942853D01*
X118879762Y-66990472D01*
X118927381Y-67085710D01*
X118927381Y-67466663D01*
X117927381Y-67466663D01*
X117927381Y-67133329D01*
X117975000Y-67038091D01*
X118022619Y-66990472D01*
X118117857Y-66942853D01*
X118213095Y-66942853D01*
X118308333Y-66990472D01*
X118355952Y-67038091D01*
X118403571Y-67133329D01*
X118403571Y-67466663D01*
X119308333Y-66561901D02*
X119260714Y-66514282D01*
X119117857Y-66419044D01*
X119022619Y-66371425D01*
X118879762Y-66323806D01*
X118641667Y-66276187D01*
X118451190Y-66276187D01*
X118213095Y-66323806D01*
X118070238Y-66371425D01*
X117975000Y-66419044D01*
X117832143Y-66514282D01*
X117784524Y-66561901D01*
X120577381Y-91561905D02*
X119577381Y-91561905D01*
X119577381Y-91180952D01*
X119625000Y-91085714D01*
X119672619Y-91038095D01*
X119767857Y-90990476D01*
X119910714Y-90990476D01*
X120005952Y-91038095D01*
X120053571Y-91085714D01*
X120101190Y-91180952D01*
X120101190Y-91561905D01*
X120482143Y-89990476D02*
X120529762Y-90038095D01*
X120577381Y-90180952D01*
X120577381Y-90276190D01*
X120529762Y-90419048D01*
X120434524Y-90514286D01*
X120339286Y-90561905D01*
X120148810Y-90609524D01*
X120005952Y-90609524D01*
X119815476Y-90561905D01*
X119720238Y-90514286D01*
X119625000Y-90419048D01*
X119577381Y-90276190D01*
X119577381Y-90180952D01*
X119625000Y-90038095D01*
X119672619Y-89990476D01*
X120053571Y-89228571D02*
X120101190Y-89085714D01*
X120148810Y-89038095D01*
X120244048Y-88990476D01*
X120386905Y-88990476D01*
X120482143Y-89038095D01*
X120529762Y-89085714D01*
X120577381Y-89180952D01*
X120577381Y-89561905D01*
X119577381Y-89561905D01*
X119577381Y-89228571D01*
X119625000Y-89133333D01*
X119672619Y-89085714D01*
X119767857Y-89038095D01*
X119863095Y-89038095D01*
X119958333Y-89085714D01*
X120005952Y-89133333D01*
X120053571Y-89228571D01*
X120053571Y-89561905D01*
X120577381Y-87800000D02*
X119910714Y-87800000D01*
X120101190Y-87800000D02*
X120005952Y-87752381D01*
X119958333Y-87704762D01*
X119910714Y-87609524D01*
X119910714Y-87514285D01*
X120529762Y-86799999D02*
X120577381Y-86895237D01*
X120577381Y-87085714D01*
X120529762Y-87180952D01*
X120434524Y-87228571D01*
X120053571Y-87228571D01*
X119958333Y-87180952D01*
X119910714Y-87085714D01*
X119910714Y-86895237D01*
X119958333Y-86799999D01*
X120053571Y-86752380D01*
X120148810Y-86752380D01*
X120244048Y-87228571D01*
X119910714Y-86419047D02*
X120577381Y-86180952D01*
X119910714Y-85942856D01*
X120577381Y-84228570D02*
X120101190Y-84561904D01*
X120577381Y-84799999D02*
X119577381Y-84799999D01*
X119577381Y-84419046D01*
X119625000Y-84323808D01*
X119672619Y-84276189D01*
X119767857Y-84228570D01*
X119910714Y-84228570D01*
X120005952Y-84276189D01*
X120053571Y-84323808D01*
X120101190Y-84419046D01*
X120101190Y-84799999D01*
X120482143Y-83228570D02*
X120529762Y-83276189D01*
X120577381Y-83419046D01*
X120577381Y-83514284D01*
X120529762Y-83657142D01*
X120434524Y-83752380D01*
X120339286Y-83799999D01*
X120148810Y-83847618D01*
X120005952Y-83847618D01*
X119815476Y-83799999D01*
X119720238Y-83752380D01*
X119625000Y-83657142D01*
X119577381Y-83514284D01*
X119577381Y-83419046D01*
X119625000Y-83276189D01*
X119672619Y-83228570D01*
X119910714Y-82371427D02*
X120577381Y-82371427D01*
X119529762Y-82609523D02*
X120244048Y-82847618D01*
X120244048Y-82228570D01*
X133000000Y-87300000D02*
X131450000Y-87300000D01*
X133000000Y-88600000D02*
X133000000Y-87300000D01*
X131577000Y-92791000D02*
X131577000Y-98633000D01*
X131577000Y-98633000D02*
X131323000Y-98633000D01*
X131323000Y-98633000D02*
X131323000Y-92791000D01*
X131323000Y-92791000D02*
X131450000Y-92791000D01*
X131450000Y-92791000D02*
X131450000Y-98633000D01*
X131704000Y-90124000D02*
X131704000Y-89743000D01*
X131196000Y-90124000D02*
X131196000Y-89743000D01*
X129164000Y-90124000D02*
X129164000Y-89743000D01*
X128656000Y-90124000D02*
X128656000Y-89743000D01*
X132720000Y-90124000D02*
X132720000Y-92664000D01*
X130180000Y-90124000D02*
X130180000Y-92664000D01*
X130180000Y-90124000D02*
X127640000Y-90124000D01*
X127640000Y-90124000D02*
X127640000Y-92664000D01*
X129164000Y-92664000D02*
X129164000Y-98760000D01*
X129164000Y-98760000D02*
X128656000Y-98760000D01*
X128656000Y-98760000D02*
X128656000Y-92664000D01*
X127640000Y-92664000D02*
X130180000Y-92664000D01*
X130180000Y-92664000D02*
X132720000Y-92664000D01*
X131196000Y-98760000D02*
X131196000Y-92664000D01*
X131704000Y-98760000D02*
X131196000Y-98760000D01*
X131704000Y-92664000D02*
X131704000Y-98760000D01*
X130180000Y-90124000D02*
X130180000Y-92664000D01*
X132720000Y-90124000D02*
X130180000Y-90124000D01*
X142005000Y-63165000D02*
X143275000Y-63165000D01*
X142005000Y-55815000D02*
X143275000Y-55815000D01*
X164375000Y-55815000D02*
X163105000Y-55815000D01*
X164375000Y-63165000D02*
X163105000Y-63165000D01*
X142005000Y-63165000D02*
X142005000Y-55815000D01*
X164375000Y-63165000D02*
X164375000Y-55815000D01*
X143275000Y-63165000D02*
X143275000Y-64450000D01*
X141566000Y-87624000D02*
X141566000Y-87116000D01*
X142074000Y-87624000D02*
X142074000Y-87116000D01*
X144106000Y-87624000D02*
X144106000Y-87116000D01*
X144614000Y-87624000D02*
X144614000Y-87116000D01*
X146646000Y-87624000D02*
X146646000Y-87116000D01*
X147154000Y-87624000D02*
X147154000Y-87116000D01*
X144614000Y-90164000D02*
X144614000Y-89656000D01*
X144106000Y-90164000D02*
X144106000Y-89656000D01*
X142074000Y-90164000D02*
X142074000Y-89656000D01*
X141566000Y-90164000D02*
X141566000Y-89656000D01*
X147154000Y-90164000D02*
X147154000Y-89656000D01*
X146646000Y-90164000D02*
X146646000Y-89656000D01*
X148450000Y-86100000D02*
X148450000Y-84950000D01*
X148450000Y-84950000D02*
X146900000Y-84950000D01*
X147027000Y-92704000D02*
X147027000Y-98673000D01*
X147027000Y-98673000D02*
X146773000Y-98673000D01*
X146773000Y-98673000D02*
X146773000Y-92831000D01*
X146773000Y-92831000D02*
X146900000Y-92831000D01*
X146900000Y-92831000D02*
X146900000Y-98673000D01*
X145630000Y-90164000D02*
X143090000Y-90164000D01*
X143090000Y-90164000D02*
X143090000Y-92704000D01*
X144614000Y-92704000D02*
X144614000Y-98800000D01*
X144614000Y-98800000D02*
X144106000Y-98800000D01*
X144106000Y-98800000D02*
X144106000Y-92704000D01*
X143090000Y-92704000D02*
X145630000Y-92704000D01*
X140550000Y-90164000D02*
X140550000Y-92704000D01*
X140550000Y-92704000D02*
X143090000Y-92704000D01*
X141566000Y-98800000D02*
X141566000Y-92704000D01*
X142074000Y-98800000D02*
X141566000Y-98800000D01*
X142074000Y-92704000D02*
X142074000Y-98800000D01*
X140550000Y-90164000D02*
X140550000Y-92704000D01*
X143090000Y-90164000D02*
X140550000Y-90164000D01*
X143090000Y-90164000D02*
X143090000Y-92704000D01*
X145630000Y-90164000D02*
X145630000Y-92704000D01*
X145630000Y-92704000D02*
X148170000Y-92704000D01*
X146646000Y-98800000D02*
X146646000Y-92704000D01*
X147154000Y-98800000D02*
X146646000Y-98800000D01*
X147154000Y-92704000D02*
X147154000Y-98800000D01*
X145630000Y-90164000D02*
X145630000Y-92704000D01*
X148170000Y-90164000D02*
X145630000Y-90164000D01*
X148170000Y-90164000D02*
X148170000Y-92704000D01*
X151950000Y-87350000D02*
X151950000Y-88900000D01*
X148850000Y-88900000D02*
X148850000Y-87350000D01*
X148850000Y-87350000D02*
X151950000Y-87350000D01*
X149130000Y-90170000D02*
X151670000Y-90170000D01*
X160366000Y-87624000D02*
X160366000Y-87116000D01*
X160874000Y-87624000D02*
X160874000Y-87116000D01*
X162906000Y-87624000D02*
X162906000Y-87116000D01*
X163414000Y-87624000D02*
X163414000Y-87116000D01*
X165446000Y-87624000D02*
X165446000Y-87116000D01*
X165954000Y-87624000D02*
X165954000Y-87116000D01*
X163414000Y-90164000D02*
X163414000Y-89656000D01*
X162906000Y-90164000D02*
X162906000Y-89656000D01*
X160874000Y-90164000D02*
X160874000Y-89656000D01*
X160366000Y-90164000D02*
X160366000Y-89656000D01*
X165954000Y-90164000D02*
X165954000Y-89656000D01*
X165446000Y-90164000D02*
X165446000Y-89656000D01*
X167250000Y-86100000D02*
X167250000Y-84950000D01*
X167250000Y-84950000D02*
X165700000Y-84950000D01*
X165827000Y-92704000D02*
X165827000Y-98673000D01*
X165827000Y-98673000D02*
X165573000Y-98673000D01*
X165573000Y-98673000D02*
X165573000Y-92831000D01*
X165573000Y-92831000D02*
X165700000Y-92831000D01*
X165700000Y-92831000D02*
X165700000Y-98673000D01*
X164430000Y-90164000D02*
X161890000Y-90164000D01*
X161890000Y-90164000D02*
X161890000Y-92704000D01*
X163414000Y-92704000D02*
X163414000Y-98800000D01*
X163414000Y-98800000D02*
X162906000Y-98800000D01*
X162906000Y-98800000D02*
X162906000Y-92704000D01*
X161890000Y-92704000D02*
X164430000Y-92704000D01*
X159350000Y-90164000D02*
X159350000Y-92704000D01*
X159350000Y-92704000D02*
X161890000Y-92704000D01*
X160366000Y-98800000D02*
X160366000Y-92704000D01*
X160874000Y-98800000D02*
X160366000Y-98800000D01*
X160874000Y-92704000D02*
X160874000Y-98800000D01*
X159350000Y-90164000D02*
X159350000Y-92704000D01*
X161890000Y-90164000D02*
X159350000Y-90164000D01*
X161890000Y-90164000D02*
X161890000Y-92704000D01*
X164430000Y-90164000D02*
X164430000Y-92704000D01*
X164430000Y-92704000D02*
X166970000Y-92704000D01*
X165446000Y-98800000D02*
X165446000Y-92704000D01*
X165954000Y-98800000D02*
X165446000Y-98800000D01*
X165954000Y-92704000D02*
X165954000Y-98800000D01*
X164430000Y-90164000D02*
X164430000Y-92704000D01*
X166970000Y-90164000D02*
X164430000Y-90164000D01*
X166970000Y-90164000D02*
X166970000Y-92704000D01*
X184950000Y-87300000D02*
X183400000Y-87300000D01*
X184950000Y-88600000D02*
X184950000Y-87300000D01*
X183527000Y-92791000D02*
X183527000Y-98633000D01*
X183527000Y-98633000D02*
X183273000Y-98633000D01*
X183273000Y-98633000D02*
X183273000Y-92791000D01*
X183273000Y-92791000D02*
X183400000Y-92791000D01*
X183400000Y-92791000D02*
X183400000Y-98633000D01*
X183654000Y-90124000D02*
X183654000Y-89743000D01*
X183146000Y-90124000D02*
X183146000Y-89743000D01*
X181114000Y-90124000D02*
X181114000Y-89743000D01*
X180606000Y-90124000D02*
X180606000Y-89743000D01*
X178574000Y-90124000D02*
X178574000Y-89743000D01*
X178066000Y-90124000D02*
X178066000Y-89743000D01*
X170446000Y-90124000D02*
X170446000Y-89743000D01*
X170954000Y-90124000D02*
X170954000Y-89743000D01*
X172986000Y-90124000D02*
X172986000Y-89743000D01*
X173494000Y-90124000D02*
X173494000Y-89743000D01*
X175526000Y-90124000D02*
X175526000Y-89743000D01*
X176034000Y-90124000D02*
X176034000Y-89743000D01*
X184670000Y-90124000D02*
X184670000Y-92664000D01*
X182130000Y-90124000D02*
X182130000Y-92664000D01*
X182130000Y-90124000D02*
X179590000Y-90124000D01*
X179590000Y-90124000D02*
X179590000Y-92664000D01*
X181114000Y-92664000D02*
X181114000Y-98760000D01*
X181114000Y-98760000D02*
X180606000Y-98760000D01*
X180606000Y-98760000D02*
X180606000Y-92664000D01*
X179590000Y-92664000D02*
X182130000Y-92664000D01*
X182130000Y-92664000D02*
X184670000Y-92664000D01*
X183146000Y-98760000D02*
X183146000Y-92664000D01*
X183654000Y-98760000D02*
X183146000Y-98760000D01*
X183654000Y-92664000D02*
X183654000Y-98760000D01*
X182130000Y-90124000D02*
X182130000Y-92664000D01*
X184670000Y-90124000D02*
X182130000Y-90124000D01*
X174510000Y-90124000D02*
X174510000Y-92664000D01*
X174510000Y-90124000D02*
X171970000Y-90124000D01*
X171970000Y-90124000D02*
X171970000Y-92664000D01*
X173494000Y-92664000D02*
X173494000Y-98760000D01*
X173494000Y-98760000D02*
X172986000Y-98760000D01*
X172986000Y-98760000D02*
X172986000Y-92664000D01*
X171970000Y-92664000D02*
X174510000Y-92664000D01*
X169430000Y-92664000D02*
X171970000Y-92664000D01*
X170446000Y-98760000D02*
X170446000Y-92664000D01*
X170954000Y-98760000D02*
X170446000Y-98760000D01*
X170954000Y-92664000D02*
X170954000Y-98760000D01*
X169430000Y-90124000D02*
X169430000Y-92664000D01*
X171970000Y-90124000D02*
X169430000Y-90124000D01*
X171970000Y-90124000D02*
X171970000Y-92664000D01*
X177050000Y-90124000D02*
X177050000Y-92664000D01*
X177050000Y-90124000D02*
X174510000Y-90124000D01*
X174510000Y-90124000D02*
X174510000Y-92664000D01*
X176034000Y-92664000D02*
X176034000Y-98760000D01*
X176034000Y-98760000D02*
X175526000Y-98760000D01*
X175526000Y-98760000D02*
X175526000Y-92664000D01*
X174510000Y-92664000D02*
X177050000Y-92664000D01*
X177050000Y-92664000D02*
X179590000Y-92664000D01*
X178066000Y-98760000D02*
X178066000Y-92664000D01*
X178574000Y-98760000D02*
X178066000Y-98760000D01*
X178574000Y-92664000D02*
X178574000Y-98760000D01*
X177050000Y-90124000D02*
X177050000Y-92664000D01*
X179590000Y-90124000D02*
X177050000Y-90124000D01*
X179590000Y-90124000D02*
X179590000Y-92664000D01*
X119646000Y-50476000D02*
X119646000Y-50984000D01*
X120154000Y-50476000D02*
X120154000Y-50984000D01*
X122186000Y-50476000D02*
X122186000Y-50984000D01*
X122694000Y-50476000D02*
X122694000Y-50984000D01*
X127774000Y-50476000D02*
X127774000Y-50984000D01*
X127266000Y-50476000D02*
X127266000Y-50984000D01*
X125234000Y-50476000D02*
X125234000Y-50984000D01*
X124726000Y-50476000D02*
X124726000Y-50984000D01*
X145046000Y-50476000D02*
X145046000Y-50984000D01*
X145554000Y-50476000D02*
X145554000Y-50984000D01*
X147586000Y-50476000D02*
X147586000Y-50984000D01*
X148094000Y-50476000D02*
X148094000Y-50984000D01*
X143014000Y-50476000D02*
X143014000Y-50984000D01*
X142506000Y-50476000D02*
X142506000Y-50984000D01*
X140474000Y-50476000D02*
X140474000Y-50984000D01*
X139966000Y-50476000D02*
X139966000Y-50984000D01*
X129806000Y-50476000D02*
X129806000Y-50984000D01*
X130314000Y-50476000D02*
X130314000Y-50984000D01*
X132346000Y-50476000D02*
X132346000Y-50984000D01*
X132854000Y-50476000D02*
X132854000Y-50984000D01*
X137934000Y-50476000D02*
X137934000Y-50984000D01*
X137426000Y-50476000D02*
X137426000Y-50984000D01*
X135394000Y-50476000D02*
X135394000Y-50984000D01*
X134886000Y-50476000D02*
X134886000Y-50984000D01*
X175526000Y-50476000D02*
X175526000Y-50984000D01*
X176034000Y-50476000D02*
X176034000Y-50984000D01*
X178066000Y-50476000D02*
X178066000Y-50984000D01*
X178574000Y-50476000D02*
X178574000Y-50984000D01*
X173494000Y-50476000D02*
X173494000Y-50984000D01*
X172986000Y-50476000D02*
X172986000Y-50984000D01*
X170954000Y-50476000D02*
X170954000Y-50984000D01*
X170446000Y-50476000D02*
X170446000Y-50984000D01*
X180606000Y-50476000D02*
X180606000Y-50984000D01*
X181114000Y-50476000D02*
X181114000Y-50984000D01*
X183146000Y-50476000D02*
X183146000Y-50984000D01*
X183654000Y-50476000D02*
X183654000Y-50984000D01*
X188734000Y-50476000D02*
X188734000Y-50984000D01*
X188226000Y-50476000D02*
X188226000Y-50984000D01*
X186194000Y-50476000D02*
X186194000Y-50984000D01*
X185686000Y-50476000D02*
X185686000Y-50984000D01*
X165366000Y-50476000D02*
X165366000Y-50984000D01*
X165874000Y-50476000D02*
X165874000Y-50984000D01*
X167906000Y-50476000D02*
X167906000Y-50984000D01*
X168414000Y-50476000D02*
X168414000Y-50984000D01*
X163334000Y-50476000D02*
X163334000Y-50984000D01*
X162826000Y-50476000D02*
X162826000Y-50984000D01*
X160794000Y-50476000D02*
X160794000Y-50984000D01*
X160286000Y-50476000D02*
X160286000Y-50984000D01*
X150126000Y-50476000D02*
X150126000Y-50984000D01*
X150634000Y-50476000D02*
X150634000Y-50984000D01*
X152666000Y-50476000D02*
X152666000Y-50984000D01*
X153174000Y-50476000D02*
X153174000Y-50984000D01*
X158254000Y-50476000D02*
X158254000Y-50984000D01*
X157746000Y-50476000D02*
X157746000Y-50984000D01*
X155714000Y-50476000D02*
X155714000Y-50984000D01*
X155206000Y-50476000D02*
X155206000Y-50984000D01*
X190766000Y-50476000D02*
X190766000Y-50984000D01*
X191274000Y-50476000D02*
X191274000Y-50984000D01*
X193306000Y-50476000D02*
X193306000Y-50984000D01*
X193814000Y-50476000D02*
X193814000Y-50984000D01*
X198894000Y-50476000D02*
X198894000Y-50984000D01*
X198386000Y-50476000D02*
X198386000Y-50984000D01*
X196354000Y-50476000D02*
X196354000Y-50984000D01*
X195846000Y-50476000D02*
X195846000Y-50984000D01*
X165366000Y-47936000D02*
X165366000Y-48444000D01*
X165874000Y-47936000D02*
X165874000Y-48444000D01*
X167906000Y-47936000D02*
X167906000Y-48444000D01*
X168414000Y-47936000D02*
X168414000Y-48444000D01*
X163334000Y-47936000D02*
X163334000Y-48444000D01*
X162826000Y-47936000D02*
X162826000Y-48444000D01*
X160794000Y-47936000D02*
X160794000Y-48444000D01*
X160286000Y-47936000D02*
X160286000Y-48444000D01*
X170446000Y-47936000D02*
X170446000Y-48444000D01*
X170954000Y-47936000D02*
X170954000Y-48444000D01*
X172986000Y-47936000D02*
X172986000Y-48444000D01*
X173494000Y-47936000D02*
X173494000Y-48444000D01*
X178574000Y-47936000D02*
X178574000Y-48444000D01*
X178066000Y-47936000D02*
X178066000Y-48444000D01*
X176034000Y-47936000D02*
X176034000Y-48444000D01*
X175526000Y-47936000D02*
X175526000Y-48444000D01*
X195846000Y-47936000D02*
X195846000Y-48444000D01*
X196354000Y-47936000D02*
X196354000Y-48444000D01*
X198386000Y-47936000D02*
X198386000Y-48444000D01*
X198894000Y-47936000D02*
X198894000Y-48444000D01*
X193814000Y-47936000D02*
X193814000Y-48444000D01*
X193306000Y-47936000D02*
X193306000Y-48444000D01*
X191274000Y-47936000D02*
X191274000Y-48444000D01*
X190766000Y-47936000D02*
X190766000Y-48444000D01*
X180606000Y-47936000D02*
X180606000Y-48444000D01*
X181114000Y-47936000D02*
X181114000Y-48444000D01*
X183146000Y-47936000D02*
X183146000Y-48444000D01*
X183654000Y-47936000D02*
X183654000Y-48444000D01*
X188734000Y-47936000D02*
X188734000Y-48444000D01*
X188226000Y-47936000D02*
X188226000Y-48444000D01*
X186194000Y-47936000D02*
X186194000Y-48444000D01*
X185686000Y-47936000D02*
X185686000Y-48444000D01*
X145046000Y-47936000D02*
X145046000Y-48444000D01*
X145554000Y-47936000D02*
X145554000Y-48444000D01*
X147586000Y-47936000D02*
X147586000Y-48444000D01*
X148094000Y-47936000D02*
X148094000Y-48444000D01*
X143014000Y-47936000D02*
X143014000Y-48444000D01*
X142506000Y-47936000D02*
X142506000Y-48444000D01*
X140474000Y-47936000D02*
X140474000Y-48444000D01*
X139966000Y-47936000D02*
X139966000Y-48444000D01*
X150126000Y-47936000D02*
X150126000Y-48444000D01*
X150634000Y-47936000D02*
X150634000Y-48444000D01*
X152666000Y-47936000D02*
X152666000Y-48444000D01*
X153174000Y-47936000D02*
X153174000Y-48444000D01*
X158254000Y-47936000D02*
X158254000Y-48444000D01*
X157746000Y-47936000D02*
X157746000Y-48444000D01*
X155714000Y-47936000D02*
X155714000Y-48444000D01*
X155206000Y-47936000D02*
X155206000Y-48444000D01*
X134886000Y-47936000D02*
X134886000Y-48444000D01*
X135394000Y-47936000D02*
X135394000Y-48444000D01*
X137426000Y-47936000D02*
X137426000Y-48444000D01*
X137934000Y-47936000D02*
X137934000Y-48444000D01*
X132854000Y-47936000D02*
X132854000Y-48444000D01*
X132346000Y-47936000D02*
X132346000Y-48444000D01*
X130314000Y-47936000D02*
X130314000Y-48444000D01*
X129806000Y-47936000D02*
X129806000Y-48444000D01*
X119646000Y-47936000D02*
X119646000Y-48444000D01*
X120154000Y-47936000D02*
X120154000Y-48444000D01*
X122186000Y-47936000D02*
X122186000Y-48444000D01*
X122694000Y-47936000D02*
X122694000Y-48444000D01*
X127774000Y-47936000D02*
X127774000Y-48444000D01*
X127266000Y-47936000D02*
X127266000Y-48444000D01*
X125234000Y-47936000D02*
X125234000Y-48444000D01*
X124726000Y-47936000D02*
X124726000Y-48444000D01*
X118350000Y-52000000D02*
X118350000Y-53150000D01*
X118350000Y-53150000D02*
X119900000Y-53150000D01*
X119773000Y-45396000D02*
X119773000Y-39427000D01*
X119773000Y-39427000D02*
X120027000Y-39427000D01*
X120027000Y-39427000D02*
X120027000Y-45269000D01*
X120027000Y-45269000D02*
X119900000Y-45269000D01*
X119900000Y-45269000D02*
X119900000Y-39427000D01*
X159270000Y-47936000D02*
X159270000Y-45396000D01*
X159270000Y-47936000D02*
X161810000Y-47936000D01*
X161810000Y-47936000D02*
X161810000Y-45396000D01*
X160286000Y-45396000D02*
X160286000Y-39300000D01*
X160286000Y-39300000D02*
X160794000Y-39300000D01*
X160794000Y-39300000D02*
X160794000Y-45396000D01*
X161810000Y-45396000D02*
X159270000Y-45396000D01*
X164350000Y-45396000D02*
X161810000Y-45396000D01*
X163334000Y-39300000D02*
X163334000Y-45396000D01*
X162826000Y-39300000D02*
X163334000Y-39300000D01*
X162826000Y-45396000D02*
X162826000Y-39300000D01*
X164350000Y-47936000D02*
X164350000Y-45396000D01*
X161810000Y-47936000D02*
X164350000Y-47936000D01*
X161810000Y-47936000D02*
X161810000Y-45396000D01*
X166890000Y-47936000D02*
X166890000Y-45396000D01*
X166890000Y-47936000D02*
X169430000Y-47936000D01*
X169430000Y-47936000D02*
X169430000Y-45396000D01*
X167906000Y-45396000D02*
X167906000Y-39300000D01*
X167906000Y-39300000D02*
X168414000Y-39300000D01*
X168414000Y-39300000D02*
X168414000Y-45396000D01*
X169430000Y-45396000D02*
X166890000Y-45396000D01*
X166890000Y-45396000D02*
X164350000Y-45396000D01*
X165874000Y-39300000D02*
X165874000Y-45396000D01*
X165366000Y-39300000D02*
X165874000Y-39300000D01*
X165366000Y-45396000D02*
X165366000Y-39300000D01*
X166890000Y-47936000D02*
X166890000Y-45396000D01*
X164350000Y-47936000D02*
X166890000Y-47936000D01*
X164350000Y-47936000D02*
X164350000Y-45396000D01*
X174510000Y-47936000D02*
X174510000Y-45396000D01*
X174510000Y-47936000D02*
X177050000Y-47936000D01*
X177050000Y-47936000D02*
X177050000Y-45396000D01*
X175526000Y-45396000D02*
X175526000Y-39300000D01*
X175526000Y-39300000D02*
X176034000Y-39300000D01*
X176034000Y-39300000D02*
X176034000Y-45396000D01*
X177050000Y-45396000D02*
X174510000Y-45396000D01*
X179590000Y-45396000D02*
X177050000Y-45396000D01*
X178574000Y-39300000D02*
X178574000Y-45396000D01*
X178066000Y-39300000D02*
X178574000Y-39300000D01*
X178066000Y-45396000D02*
X178066000Y-39300000D01*
X179590000Y-47936000D02*
X179590000Y-45396000D01*
X177050000Y-47936000D02*
X179590000Y-47936000D01*
X177050000Y-47936000D02*
X177050000Y-45396000D01*
X171970000Y-47936000D02*
X171970000Y-45396000D01*
X171970000Y-47936000D02*
X174510000Y-47936000D01*
X174510000Y-47936000D02*
X174510000Y-45396000D01*
X172986000Y-45396000D02*
X172986000Y-39300000D01*
X172986000Y-39300000D02*
X173494000Y-39300000D01*
X173494000Y-39300000D02*
X173494000Y-45396000D01*
X174510000Y-45396000D02*
X171970000Y-45396000D01*
X171970000Y-45396000D02*
X169430000Y-45396000D01*
X170954000Y-39300000D02*
X170954000Y-45396000D01*
X170446000Y-39300000D02*
X170954000Y-39300000D01*
X170446000Y-45396000D02*
X170446000Y-39300000D01*
X171970000Y-47936000D02*
X171970000Y-45396000D01*
X169430000Y-47936000D02*
X171970000Y-47936000D01*
X169430000Y-47936000D02*
X169430000Y-45396000D01*
X189750000Y-47936000D02*
X189750000Y-45396000D01*
X189750000Y-47936000D02*
X192290000Y-47936000D01*
X192290000Y-47936000D02*
X192290000Y-45396000D01*
X190766000Y-45396000D02*
X190766000Y-39300000D01*
X190766000Y-39300000D02*
X191274000Y-39300000D01*
X191274000Y-39300000D02*
X191274000Y-45396000D01*
X192290000Y-45396000D02*
X189750000Y-45396000D01*
X194830000Y-45396000D02*
X192290000Y-45396000D01*
X193814000Y-39300000D02*
X193814000Y-45396000D01*
X193306000Y-39300000D02*
X193814000Y-39300000D01*
X193306000Y-45396000D02*
X193306000Y-39300000D01*
X194830000Y-47936000D02*
X194830000Y-45396000D01*
X192290000Y-47936000D02*
X194830000Y-47936000D01*
X192290000Y-47936000D02*
X192290000Y-45396000D01*
X197370000Y-47936000D02*
X197370000Y-45396000D01*
X197370000Y-47936000D02*
X199910000Y-47936000D01*
X199910000Y-47936000D02*
X199910000Y-45396000D01*
X198386000Y-45396000D02*
X198386000Y-39300000D01*
X198386000Y-39300000D02*
X198894000Y-39300000D01*
X198894000Y-39300000D02*
X198894000Y-45396000D01*
X199910000Y-45396000D02*
X197370000Y-45396000D01*
X197370000Y-45396000D02*
X194830000Y-45396000D01*
X196354000Y-39300000D02*
X196354000Y-45396000D01*
X195846000Y-39300000D02*
X196354000Y-39300000D01*
X195846000Y-45396000D02*
X195846000Y-39300000D01*
X197370000Y-47936000D02*
X197370000Y-45396000D01*
X194830000Y-47936000D02*
X197370000Y-47936000D01*
X194830000Y-47936000D02*
X194830000Y-45396000D01*
X184670000Y-47936000D02*
X184670000Y-45396000D01*
X184670000Y-47936000D02*
X187210000Y-47936000D01*
X187210000Y-47936000D02*
X187210000Y-45396000D01*
X185686000Y-45396000D02*
X185686000Y-39300000D01*
X185686000Y-39300000D02*
X186194000Y-39300000D01*
X186194000Y-39300000D02*
X186194000Y-45396000D01*
X187210000Y-45396000D02*
X184670000Y-45396000D01*
X189750000Y-45396000D02*
X187210000Y-45396000D01*
X188734000Y-39300000D02*
X188734000Y-45396000D01*
X188226000Y-39300000D02*
X188734000Y-39300000D01*
X188226000Y-45396000D02*
X188226000Y-39300000D01*
X189750000Y-47936000D02*
X189750000Y-45396000D01*
X187210000Y-47936000D02*
X189750000Y-47936000D01*
X187210000Y-47936000D02*
X187210000Y-45396000D01*
X182130000Y-47936000D02*
X182130000Y-45396000D01*
X182130000Y-47936000D02*
X184670000Y-47936000D01*
X184670000Y-47936000D02*
X184670000Y-45396000D01*
X183146000Y-45396000D02*
X183146000Y-39300000D01*
X183146000Y-39300000D02*
X183654000Y-39300000D01*
X183654000Y-39300000D02*
X183654000Y-45396000D01*
X184670000Y-45396000D02*
X182130000Y-45396000D01*
X182130000Y-45396000D02*
X179590000Y-45396000D01*
X181114000Y-39300000D02*
X181114000Y-45396000D01*
X180606000Y-39300000D02*
X181114000Y-39300000D01*
X180606000Y-45396000D02*
X180606000Y-39300000D01*
X182130000Y-47936000D02*
X182130000Y-45396000D01*
X179590000Y-47936000D02*
X182130000Y-47936000D01*
X179590000Y-47936000D02*
X179590000Y-45396000D01*
X138950000Y-47936000D02*
X138950000Y-45396000D01*
X138950000Y-47936000D02*
X141490000Y-47936000D01*
X141490000Y-47936000D02*
X141490000Y-45396000D01*
X139966000Y-45396000D02*
X139966000Y-39300000D01*
X139966000Y-39300000D02*
X140474000Y-39300000D01*
X140474000Y-39300000D02*
X140474000Y-45396000D01*
X141490000Y-45396000D02*
X138950000Y-45396000D01*
X144030000Y-45396000D02*
X141490000Y-45396000D01*
X143014000Y-39300000D02*
X143014000Y-45396000D01*
X142506000Y-39300000D02*
X143014000Y-39300000D01*
X142506000Y-45396000D02*
X142506000Y-39300000D01*
X144030000Y-47936000D02*
X144030000Y-45396000D01*
X141490000Y-47936000D02*
X144030000Y-47936000D01*
X141490000Y-47936000D02*
X141490000Y-45396000D01*
X146570000Y-47936000D02*
X146570000Y-45396000D01*
X146570000Y-47936000D02*
X149110000Y-47936000D01*
X149110000Y-47936000D02*
X149110000Y-45396000D01*
X147586000Y-45396000D02*
X147586000Y-39300000D01*
X147586000Y-39300000D02*
X148094000Y-39300000D01*
X148094000Y-39300000D02*
X148094000Y-45396000D01*
X149110000Y-45396000D02*
X146570000Y-45396000D01*
X146570000Y-45396000D02*
X144030000Y-45396000D01*
X145554000Y-39300000D02*
X145554000Y-45396000D01*
X145046000Y-39300000D02*
X145554000Y-39300000D01*
X145046000Y-45396000D02*
X145046000Y-39300000D01*
X146570000Y-47936000D02*
X146570000Y-45396000D01*
X144030000Y-47936000D02*
X146570000Y-47936000D01*
X144030000Y-47936000D02*
X144030000Y-45396000D01*
X154190000Y-47936000D02*
X154190000Y-45396000D01*
X154190000Y-47936000D02*
X156730000Y-47936000D01*
X156730000Y-47936000D02*
X156730000Y-45396000D01*
X155206000Y-45396000D02*
X155206000Y-39300000D01*
X155206000Y-39300000D02*
X155714000Y-39300000D01*
X155714000Y-39300000D02*
X155714000Y-45396000D01*
X156730000Y-45396000D02*
X154190000Y-45396000D01*
X159270000Y-45396000D02*
X156730000Y-45396000D01*
X158254000Y-39300000D02*
X158254000Y-45396000D01*
X157746000Y-39300000D02*
X158254000Y-39300000D01*
X157746000Y-45396000D02*
X157746000Y-39300000D01*
X159270000Y-47936000D02*
X159270000Y-45396000D01*
X156730000Y-47936000D02*
X159270000Y-47936000D01*
X156730000Y-47936000D02*
X156730000Y-45396000D01*
X151650000Y-47936000D02*
X151650000Y-45396000D01*
X151650000Y-47936000D02*
X154190000Y-47936000D01*
X154190000Y-47936000D02*
X154190000Y-45396000D01*
X152666000Y-45396000D02*
X152666000Y-39300000D01*
X152666000Y-39300000D02*
X153174000Y-39300000D01*
X153174000Y-39300000D02*
X153174000Y-45396000D01*
X154190000Y-45396000D02*
X151650000Y-45396000D01*
X151650000Y-45396000D02*
X149110000Y-45396000D01*
X150634000Y-39300000D02*
X150634000Y-45396000D01*
X150126000Y-39300000D02*
X150634000Y-39300000D01*
X150126000Y-45396000D02*
X150126000Y-39300000D01*
X151650000Y-47936000D02*
X151650000Y-45396000D01*
X149110000Y-47936000D02*
X151650000Y-47936000D01*
X149110000Y-47936000D02*
X149110000Y-45396000D01*
X128790000Y-47936000D02*
X128790000Y-45396000D01*
X128790000Y-47936000D02*
X131330000Y-47936000D01*
X131330000Y-47936000D02*
X131330000Y-45396000D01*
X129806000Y-45396000D02*
X129806000Y-39300000D01*
X129806000Y-39300000D02*
X130314000Y-39300000D01*
X130314000Y-39300000D02*
X130314000Y-45396000D01*
X131330000Y-45396000D02*
X128790000Y-45396000D01*
X133870000Y-45396000D02*
X131330000Y-45396000D01*
X132854000Y-39300000D02*
X132854000Y-45396000D01*
X132346000Y-39300000D02*
X132854000Y-39300000D01*
X132346000Y-45396000D02*
X132346000Y-39300000D01*
X133870000Y-47936000D02*
X133870000Y-45396000D01*
X131330000Y-47936000D02*
X133870000Y-47936000D01*
X131330000Y-47936000D02*
X131330000Y-45396000D01*
X136410000Y-47936000D02*
X136410000Y-45396000D01*
X136410000Y-47936000D02*
X138950000Y-47936000D01*
X138950000Y-47936000D02*
X138950000Y-45396000D01*
X137426000Y-45396000D02*
X137426000Y-39300000D01*
X137426000Y-39300000D02*
X137934000Y-39300000D01*
X137934000Y-39300000D02*
X137934000Y-45396000D01*
X138950000Y-45396000D02*
X136410000Y-45396000D01*
X136410000Y-45396000D02*
X133870000Y-45396000D01*
X135394000Y-39300000D02*
X135394000Y-45396000D01*
X134886000Y-39300000D02*
X135394000Y-39300000D01*
X134886000Y-45396000D02*
X134886000Y-39300000D01*
X136410000Y-47936000D02*
X136410000Y-45396000D01*
X133870000Y-47936000D02*
X136410000Y-47936000D01*
X133870000Y-47936000D02*
X133870000Y-45396000D01*
X123710000Y-47936000D02*
X123710000Y-45396000D01*
X123710000Y-47936000D02*
X126250000Y-47936000D01*
X126250000Y-47936000D02*
X126250000Y-45396000D01*
X124726000Y-45396000D02*
X124726000Y-39300000D01*
X124726000Y-39300000D02*
X125234000Y-39300000D01*
X125234000Y-39300000D02*
X125234000Y-45396000D01*
X126250000Y-45396000D02*
X123710000Y-45396000D01*
X128790000Y-45396000D02*
X126250000Y-45396000D01*
X127774000Y-39300000D02*
X127774000Y-45396000D01*
X127266000Y-39300000D02*
X127774000Y-39300000D01*
X127266000Y-45396000D02*
X127266000Y-39300000D01*
X128790000Y-47936000D02*
X128790000Y-45396000D01*
X126250000Y-47936000D02*
X128790000Y-47936000D01*
X126250000Y-47936000D02*
X126250000Y-45396000D01*
X121170000Y-47936000D02*
X121170000Y-45396000D01*
X121170000Y-47936000D02*
X123710000Y-47936000D01*
X123710000Y-47936000D02*
X123710000Y-45396000D01*
X122186000Y-45396000D02*
X122186000Y-39300000D01*
X122186000Y-39300000D02*
X122694000Y-39300000D01*
X122694000Y-39300000D02*
X122694000Y-45396000D01*
X123710000Y-45396000D02*
X121170000Y-45396000D01*
X121170000Y-45396000D02*
X118630000Y-45396000D01*
X120154000Y-39300000D02*
X120154000Y-45396000D01*
X119646000Y-39300000D02*
X120154000Y-39300000D01*
X119646000Y-45396000D02*
X119646000Y-39300000D01*
X121170000Y-47936000D02*
X121170000Y-45396000D01*
X118630000Y-47936000D02*
X121170000Y-47936000D01*
X118630000Y-47936000D02*
X118630000Y-45396000D01*
X200150000Y-87300000D02*
X198600000Y-87300000D01*
X200150000Y-88600000D02*
X200150000Y-87300000D01*
X198727000Y-92791000D02*
X198727000Y-98633000D01*
X198727000Y-98633000D02*
X198473000Y-98633000D01*
X198473000Y-98633000D02*
X198473000Y-92791000D01*
X198473000Y-92791000D02*
X198600000Y-92791000D01*
X198600000Y-92791000D02*
X198600000Y-98633000D01*
X198854000Y-90124000D02*
X198854000Y-89743000D01*
X198346000Y-90124000D02*
X198346000Y-89743000D01*
X196314000Y-90124000D02*
X196314000Y-89743000D01*
X195806000Y-90124000D02*
X195806000Y-89743000D01*
X193774000Y-90124000D02*
X193774000Y-89743000D01*
X193266000Y-90124000D02*
X193266000Y-89743000D01*
X191234000Y-90124000D02*
X191234000Y-89743000D01*
X190726000Y-90124000D02*
X190726000Y-89743000D01*
X188186000Y-90124000D02*
X188186000Y-89743000D01*
X188694000Y-90124000D02*
X188694000Y-89743000D01*
X197330000Y-92664000D02*
X199870000Y-92664000D01*
X198346000Y-98760000D02*
X198346000Y-92664000D01*
X198854000Y-98760000D02*
X198346000Y-98760000D01*
X198854000Y-92664000D02*
X198854000Y-98760000D01*
X197330000Y-90124000D02*
X197330000Y-92664000D01*
X199870000Y-90124000D02*
X197330000Y-90124000D01*
X199870000Y-90124000D02*
X199870000Y-92664000D01*
X194790000Y-90124000D02*
X194790000Y-92664000D01*
X194790000Y-90124000D02*
X192250000Y-90124000D01*
X192250000Y-90124000D02*
X192250000Y-92664000D01*
X193774000Y-92664000D02*
X193774000Y-98760000D01*
X193774000Y-98760000D02*
X193266000Y-98760000D01*
X193266000Y-98760000D02*
X193266000Y-92664000D01*
X192250000Y-92664000D02*
X194790000Y-92664000D01*
X194790000Y-92664000D02*
X197330000Y-92664000D01*
X195806000Y-98760000D02*
X195806000Y-92664000D01*
X196314000Y-98760000D02*
X195806000Y-98760000D01*
X196314000Y-92664000D02*
X196314000Y-98760000D01*
X194790000Y-90124000D02*
X194790000Y-92664000D01*
X197330000Y-90124000D02*
X194790000Y-90124000D01*
X197330000Y-90124000D02*
X197330000Y-92664000D01*
X189710000Y-90124000D02*
X189710000Y-92664000D01*
X189710000Y-90124000D02*
X187170000Y-90124000D01*
X187170000Y-90124000D02*
X187170000Y-92664000D01*
X188694000Y-92664000D02*
X188694000Y-98760000D01*
X188694000Y-98760000D02*
X188186000Y-98760000D01*
X188186000Y-98760000D02*
X188186000Y-92664000D01*
X187170000Y-92664000D02*
X189710000Y-92664000D01*
X189710000Y-92664000D02*
X192250000Y-92664000D01*
X190726000Y-98760000D02*
X190726000Y-92664000D01*
X191234000Y-98760000D02*
X190726000Y-98760000D01*
X191234000Y-92664000D02*
X191234000Y-98760000D01*
X189710000Y-90124000D02*
X189710000Y-92664000D01*
X192250000Y-90124000D02*
X189710000Y-90124000D01*
X192250000Y-90124000D02*
X192250000Y-92664000D01*
X137580000Y-87350000D02*
X134180000Y-87350000D01*
X137577056Y-87352944D02*
G75*
G02X135880000Y-91450000I-1697056J-1697056D01*
G01*
X134182944Y-87352944D02*
G75*
G03X135880000Y-91450000I1697056J-1697056D01*
G01*
X157000000Y-89680000D02*
X157000000Y-86280000D01*
X156997056Y-89677056D02*
G75*
G02X152900000Y-87980000I-1697056J1697056D01*
G01*
X156997056Y-86282944D02*
G75*
G03X152900000Y-87980000I-1697056J-1697056D01*
G01*
X137580000Y-82000000D02*
X134180000Y-82000000D01*
X137577056Y-82002944D02*
G75*
G02X135880000Y-86100000I-1697056J-1697056D01*
G01*
X134182944Y-82002944D02*
G75*
G03X135880000Y-86100000I1697056J-1697056D01*
G01*
X134730000Y-74970000D02*
X129650000Y-74970000D01*
X129650000Y-74970000D02*
X129650000Y-72430000D01*
X129650000Y-72430000D02*
X134730000Y-72430000D01*
X134730000Y-72430000D02*
X134730000Y-74970000D01*
X146330000Y-74970000D02*
X141250000Y-74970000D01*
X141250000Y-74970000D02*
X141250000Y-72430000D01*
X141250000Y-72430000D02*
X146330000Y-72430000D01*
X146330000Y-72430000D02*
X146330000Y-74970000D01*
X134730000Y-71970000D02*
X129650000Y-71970000D01*
X129650000Y-71970000D02*
X129650000Y-69430000D01*
X129650000Y-69430000D02*
X134730000Y-69430000D01*
X134730000Y-69430000D02*
X134730000Y-71970000D01*
X146330000Y-71970000D02*
X141250000Y-71970000D01*
X141250000Y-71970000D02*
X141250000Y-69430000D01*
X141250000Y-69430000D02*
X146330000Y-69430000D01*
X146330000Y-69430000D02*
X146330000Y-71970000D01*
X134730000Y-68970000D02*
X129650000Y-68970000D01*
X129650000Y-68970000D02*
X129650000Y-66430000D01*
X129650000Y-66430000D02*
X134730000Y-66430000D01*
X134730000Y-66430000D02*
X134730000Y-68970000D01*
X146330000Y-68970000D02*
X141250000Y-68970000D01*
X141250000Y-68970000D02*
X141250000Y-66430000D01*
X141250000Y-66430000D02*
X146330000Y-66430000D01*
X146330000Y-66430000D02*
X146330000Y-68970000D01*
X118305000Y-63165000D02*
X119575000Y-63165000D01*
X118305000Y-55815000D02*
X119575000Y-55815000D01*
X140675000Y-55815000D02*
X139405000Y-55815000D01*
X140675000Y-63165000D02*
X139405000Y-63165000D01*
X118305000Y-63165000D02*
X118305000Y-55815000D01*
X140675000Y-63165000D02*
X140675000Y-55815000D01*
X119575000Y-63165000D02*
X119575000Y-64450000D01*
X165705000Y-63165000D02*
X166975000Y-63165000D01*
X165705000Y-55815000D02*
X166975000Y-55815000D01*
X188075000Y-55815000D02*
X186805000Y-55815000D01*
X188075000Y-63165000D02*
X186805000Y-63165000D01*
X165705000Y-63165000D02*
X165705000Y-55815000D01*
X188075000Y-63165000D02*
X188075000Y-55815000D01*
X166975000Y-63165000D02*
X166975000Y-64450000D01*
X191535000Y-54505000D02*
X191535000Y-55775000D01*
X198885000Y-54505000D02*
X198885000Y-55775000D01*
X198885000Y-76875000D02*
X198885000Y-75605000D01*
X191535000Y-76875000D02*
X191535000Y-75605000D01*
X191535000Y-54505000D02*
X198885000Y-54505000D01*
X191535000Y-76875000D02*
X198885000Y-76875000D01*
X191535000Y-55775000D02*
X190250000Y-55775000D01*
X150005000Y-82165000D02*
X151275000Y-82165000D01*
X150005000Y-67195000D02*
X151275000Y-67195000D01*
X187615000Y-67195000D02*
X186345000Y-67195000D01*
X187615000Y-82165000D02*
X186345000Y-82165000D01*
X150005000Y-82165000D02*
X150005000Y-67195000D01*
X187615000Y-82165000D02*
X187615000Y-67195000D01*
X151275000Y-82165000D02*
X151275000Y-83450000D01*
X131530000Y-81900000D02*
X128130000Y-81900000D01*
X131527056Y-81902944D02*
G75*
G02X129830000Y-86000000I-1697056J-1697056D01*
G01*
X128132944Y-81902944D02*
G75*
G03X129830000Y-86000000I1697056J-1697056D01*
G01*
X146330000Y-77970000D02*
X141250000Y-77970000D01*
X141250000Y-77970000D02*
X141250000Y-75430000D01*
X141250000Y-75430000D02*
X146330000Y-75430000D01*
X146330000Y-75430000D02*
X146330000Y-77970000D01*
X134730000Y-80970000D02*
X129650000Y-80970000D01*
X129650000Y-80970000D02*
X129650000Y-78430000D01*
X129650000Y-78430000D02*
X134730000Y-78430000D01*
X134730000Y-78430000D02*
X134730000Y-80970000D01*
X129670000Y-75430000D02*
X134750000Y-75430000D01*
X134750000Y-75430000D02*
X134750000Y-77970000D01*
X134750000Y-77970000D02*
X129670000Y-77970000D01*
X129670000Y-77970000D02*
X129670000Y-75430000D01*
X146330000Y-80970000D02*
X141250000Y-80970000D01*
X141250000Y-80970000D02*
X141250000Y-78430000D01*
X141250000Y-78430000D02*
X146330000Y-78430000D01*
X146330000Y-78430000D02*
X146330000Y-80970000D01*
D16*
G36*
X122646200Y-78309320D02*
X122638580Y-78291540D01*
X122615720Y-78258520D01*
X122582700Y-78207720D01*
X122544600Y-78149300D01*
X122503960Y-78088340D01*
X122470940Y-78040080D01*
X122448080Y-78004520D01*
X122440460Y-77991820D01*
X122443000Y-77984200D01*
X122458240Y-77956260D01*
X122478560Y-77915620D01*
X122491260Y-77890220D01*
X122506500Y-77852120D01*
X122511580Y-77834340D01*
X122506500Y-77831800D01*
X122476020Y-77816560D01*
X122427760Y-77796240D01*
X122361720Y-77768300D01*
X122285520Y-77735280D01*
X122204240Y-77699720D01*
X122120420Y-77666700D01*
X122041680Y-77633680D01*
X121968020Y-77603200D01*
X121909600Y-77580340D01*
X121868960Y-77565100D01*
X121851180Y-77557480D01*
X121848640Y-77560020D01*
X121830860Y-77577800D01*
X121805460Y-77610820D01*
X121747040Y-77681940D01*
X121660680Y-77753060D01*
X121561620Y-77796240D01*
X121449860Y-77808940D01*
X121348260Y-77798780D01*
X121251740Y-77758140D01*
X121162840Y-77689560D01*
X121096800Y-77605740D01*
X121056160Y-77509220D01*
X121043460Y-77400000D01*
X121053620Y-77295860D01*
X121094260Y-77196800D01*
X121160300Y-77107900D01*
X121203480Y-77069800D01*
X121294920Y-77019000D01*
X121388900Y-76988520D01*
X121411760Y-76985980D01*
X121518440Y-76991060D01*
X121620040Y-77021540D01*
X121708940Y-77077420D01*
X121782600Y-77153620D01*
X121790220Y-77163780D01*
X121818160Y-77199340D01*
X121835940Y-77224740D01*
X121851180Y-77242520D01*
X122173760Y-77107900D01*
X122224560Y-77087580D01*
X122313460Y-77049480D01*
X122389660Y-77019000D01*
X122450620Y-76991060D01*
X122491260Y-76973280D01*
X122506500Y-76965660D01*
X122506500Y-76965660D01*
X122509040Y-76952960D01*
X122501420Y-76930100D01*
X122478560Y-76884380D01*
X122463320Y-76853900D01*
X122448080Y-76820880D01*
X122440460Y-76805640D01*
X122448080Y-76790400D01*
X122468400Y-76757380D01*
X122501420Y-76711660D01*
X122539520Y-76653240D01*
X122577620Y-76597360D01*
X122610640Y-76546560D01*
X122636040Y-76511000D01*
X122643660Y-76493220D01*
X122643660Y-76490680D01*
X122636040Y-76472900D01*
X122610640Y-76444960D01*
X122570000Y-76401780D01*
X122509040Y-76338280D01*
X122498880Y-76328120D01*
X122448080Y-76277320D01*
X122402360Y-76236680D01*
X122371880Y-76208740D01*
X122359180Y-76198580D01*
X122359180Y-76198580D01*
X122341400Y-76208740D01*
X122303300Y-76231600D01*
X122252500Y-76264620D01*
X122191540Y-76305260D01*
X122036600Y-76411940D01*
X121891820Y-76353520D01*
X121846100Y-76335740D01*
X121790220Y-76312880D01*
X121752120Y-76295100D01*
X121734340Y-76287480D01*
X121729260Y-76269700D01*
X121719100Y-76231600D01*
X121708940Y-76173180D01*
X121696240Y-76102060D01*
X121683540Y-76036020D01*
X121670840Y-75977600D01*
X121663220Y-75934420D01*
X121660680Y-75914100D01*
X121655600Y-75909020D01*
X121647980Y-75906480D01*
X121627660Y-75903940D01*
X121589560Y-75901400D01*
X121533680Y-75901400D01*
X121449860Y-75901400D01*
X121442240Y-75901400D01*
X121363500Y-75901400D01*
X121300000Y-75903940D01*
X121261900Y-75906480D01*
X121244120Y-75909020D01*
X121244120Y-75909020D01*
X121239040Y-75926800D01*
X121231420Y-75969980D01*
X121218720Y-76028400D01*
X121206020Y-76099520D01*
X121206020Y-76104600D01*
X121190780Y-76175720D01*
X121178080Y-76234140D01*
X121170460Y-76277320D01*
X121162840Y-76295100D01*
X121157760Y-76297640D01*
X121129820Y-76312880D01*
X121086640Y-76333200D01*
X121033300Y-76356060D01*
X120977420Y-76378920D01*
X120926620Y-76399240D01*
X120891060Y-76411940D01*
X120873280Y-76417020D01*
X120873280Y-76417020D01*
X120855500Y-76406860D01*
X120819940Y-76381460D01*
X120769140Y-76345900D01*
X120708180Y-76305260D01*
X120703100Y-76302720D01*
X120642140Y-76262080D01*
X120591340Y-76229060D01*
X120555780Y-76206200D01*
X120540540Y-76198580D01*
X120538000Y-76198580D01*
X120520220Y-76211280D01*
X120487200Y-76241760D01*
X120441480Y-76287480D01*
X120388140Y-76338280D01*
X120372900Y-76356060D01*
X120314480Y-76414480D01*
X120278920Y-76455120D01*
X120258600Y-76480520D01*
X120253520Y-76490680D01*
X120253520Y-76493220D01*
X120263680Y-76511000D01*
X120289080Y-76549100D01*
X120324640Y-76599900D01*
X120365280Y-76660860D01*
X120367820Y-76663400D01*
X120408460Y-76724360D01*
X120444020Y-76775160D01*
X120466880Y-76810720D01*
X120474500Y-76825960D01*
X120474500Y-76828500D01*
X120469420Y-76851360D01*
X120454180Y-76894540D01*
X120433860Y-76947880D01*
X120411000Y-77003760D01*
X120390680Y-77054560D01*
X120372900Y-77090120D01*
X120362740Y-77107900D01*
X120362740Y-77110440D01*
X120339880Y-77115520D01*
X120294160Y-77125680D01*
X120233200Y-77138380D01*
X120159540Y-77153620D01*
X120149380Y-77156160D01*
X120075720Y-77168860D01*
X120017300Y-77179020D01*
X119976660Y-77189180D01*
X119958880Y-77191720D01*
X119958880Y-77201880D01*
X119956340Y-77237440D01*
X119953800Y-77290780D01*
X119953800Y-77356820D01*
X119953800Y-77422860D01*
X119953800Y-77488900D01*
X119956340Y-77544780D01*
X119958880Y-77585420D01*
X119963960Y-77603200D01*
X119963960Y-77603200D01*
X119986820Y-77608280D01*
X120030000Y-77618440D01*
X120093500Y-77631140D01*
X120167160Y-77646380D01*
X120179860Y-77648920D01*
X120250980Y-77661620D01*
X120309400Y-77674320D01*
X120350040Y-77681940D01*
X120365280Y-77687020D01*
X120367820Y-77692100D01*
X120383060Y-77722580D01*
X120400840Y-77770840D01*
X120426240Y-77829260D01*
X120482120Y-77966420D01*
X120365280Y-78134060D01*
X120355120Y-78149300D01*
X120314480Y-78210260D01*
X120281460Y-78261060D01*
X120258600Y-78296620D01*
X120250980Y-78309320D01*
X120250980Y-78311860D01*
X120266220Y-78327100D01*
X120296700Y-78360120D01*
X120342420Y-78405840D01*
X120393220Y-78459180D01*
X120433860Y-78499820D01*
X120479580Y-78545540D01*
X120512600Y-78573480D01*
X120532920Y-78591260D01*
X120545620Y-78596340D01*
X120553240Y-78593800D01*
X120571020Y-78583640D01*
X120606580Y-78558240D01*
X120659920Y-78525220D01*
X120718340Y-78484580D01*
X120769140Y-78449020D01*
X120825020Y-78413460D01*
X120865660Y-78390600D01*
X120883440Y-78380440D01*
X120893600Y-78382980D01*
X120926620Y-78395680D01*
X120974880Y-78416000D01*
X121035840Y-78441400D01*
X121167920Y-78499820D01*
X121185700Y-78586180D01*
X121195860Y-78639520D01*
X121208560Y-78713180D01*
X121223800Y-78784300D01*
X121244120Y-78896060D01*
X121647980Y-78898600D01*
X121655600Y-78880820D01*
X121660680Y-78865580D01*
X121670840Y-78824940D01*
X121681000Y-78766520D01*
X121693700Y-78697940D01*
X121706400Y-78636980D01*
X121716560Y-78578560D01*
X121724180Y-78535380D01*
X121729260Y-78517600D01*
X121734340Y-78512520D01*
X121764820Y-78497280D01*
X121810540Y-78476960D01*
X121863880Y-78454100D01*
X121922300Y-78428700D01*
X121973100Y-78408380D01*
X122013740Y-78393140D01*
X122034060Y-78388060D01*
X122049300Y-78395680D01*
X122084860Y-78418540D01*
X122135660Y-78451560D01*
X122194080Y-78492200D01*
X122252500Y-78532840D01*
X122303300Y-78565860D01*
X122338860Y-78591260D01*
X122356640Y-78598880D01*
X122366800Y-78593800D01*
X122394740Y-78570940D01*
X122440460Y-78527760D01*
X122506500Y-78461720D01*
X122516660Y-78449020D01*
X122567460Y-78398220D01*
X122608100Y-78352500D01*
X122636040Y-78322020D01*
X122646200Y-78309320D01*
X122646200Y-78309320D01*
G37*
X122646200Y-78309320D02*
X122638580Y-78291540D01*
X122615720Y-78258520D01*
X122582700Y-78207720D01*
X122544600Y-78149300D01*
X122503960Y-78088340D01*
X122470940Y-78040080D01*
X122448080Y-78004520D01*
X122440460Y-77991820D01*
X122443000Y-77984200D01*
X122458240Y-77956260D01*
X122478560Y-77915620D01*
X122491260Y-77890220D01*
X122506500Y-77852120D01*
X122511580Y-77834340D01*
X122506500Y-77831800D01*
X122476020Y-77816560D01*
X122427760Y-77796240D01*
X122361720Y-77768300D01*
X122285520Y-77735280D01*
X122204240Y-77699720D01*
X122120420Y-77666700D01*
X122041680Y-77633680D01*
X121968020Y-77603200D01*
X121909600Y-77580340D01*
X121868960Y-77565100D01*
X121851180Y-77557480D01*
X121848640Y-77560020D01*
X121830860Y-77577800D01*
X121805460Y-77610820D01*
X121747040Y-77681940D01*
X121660680Y-77753060D01*
X121561620Y-77796240D01*
X121449860Y-77808940D01*
X121348260Y-77798780D01*
X121251740Y-77758140D01*
X121162840Y-77689560D01*
X121096800Y-77605740D01*
X121056160Y-77509220D01*
X121043460Y-77400000D01*
X121053620Y-77295860D01*
X121094260Y-77196800D01*
X121160300Y-77107900D01*
X121203480Y-77069800D01*
X121294920Y-77019000D01*
X121388900Y-76988520D01*
X121411760Y-76985980D01*
X121518440Y-76991060D01*
X121620040Y-77021540D01*
X121708940Y-77077420D01*
X121782600Y-77153620D01*
X121790220Y-77163780D01*
X121818160Y-77199340D01*
X121835940Y-77224740D01*
X121851180Y-77242520D01*
X122173760Y-77107900D01*
X122224560Y-77087580D01*
X122313460Y-77049480D01*
X122389660Y-77019000D01*
X122450620Y-76991060D01*
X122491260Y-76973280D01*
X122506500Y-76965660D01*
X122506500Y-76965660D01*
X122509040Y-76952960D01*
X122501420Y-76930100D01*
X122478560Y-76884380D01*
X122463320Y-76853900D01*
X122448080Y-76820880D01*
X122440460Y-76805640D01*
X122448080Y-76790400D01*
X122468400Y-76757380D01*
X122501420Y-76711660D01*
X122539520Y-76653240D01*
X122577620Y-76597360D01*
X122610640Y-76546560D01*
X122636040Y-76511000D01*
X122643660Y-76493220D01*
X122643660Y-76490680D01*
X122636040Y-76472900D01*
X122610640Y-76444960D01*
X122570000Y-76401780D01*
X122509040Y-76338280D01*
X122498880Y-76328120D01*
X122448080Y-76277320D01*
X122402360Y-76236680D01*
X122371880Y-76208740D01*
X122359180Y-76198580D01*
X122359180Y-76198580D01*
X122341400Y-76208740D01*
X122303300Y-76231600D01*
X122252500Y-76264620D01*
X122191540Y-76305260D01*
X122036600Y-76411940D01*
X121891820Y-76353520D01*
X121846100Y-76335740D01*
X121790220Y-76312880D01*
X121752120Y-76295100D01*
X121734340Y-76287480D01*
X121729260Y-76269700D01*
X121719100Y-76231600D01*
X121708940Y-76173180D01*
X121696240Y-76102060D01*
X121683540Y-76036020D01*
X121670840Y-75977600D01*
X121663220Y-75934420D01*
X121660680Y-75914100D01*
X121655600Y-75909020D01*
X121647980Y-75906480D01*
X121627660Y-75903940D01*
X121589560Y-75901400D01*
X121533680Y-75901400D01*
X121449860Y-75901400D01*
X121442240Y-75901400D01*
X121363500Y-75901400D01*
X121300000Y-75903940D01*
X121261900Y-75906480D01*
X121244120Y-75909020D01*
X121244120Y-75909020D01*
X121239040Y-75926800D01*
X121231420Y-75969980D01*
X121218720Y-76028400D01*
X121206020Y-76099520D01*
X121206020Y-76104600D01*
X121190780Y-76175720D01*
X121178080Y-76234140D01*
X121170460Y-76277320D01*
X121162840Y-76295100D01*
X121157760Y-76297640D01*
X121129820Y-76312880D01*
X121086640Y-76333200D01*
X121033300Y-76356060D01*
X120977420Y-76378920D01*
X120926620Y-76399240D01*
X120891060Y-76411940D01*
X120873280Y-76417020D01*
X120873280Y-76417020D01*
X120855500Y-76406860D01*
X120819940Y-76381460D01*
X120769140Y-76345900D01*
X120708180Y-76305260D01*
X120703100Y-76302720D01*
X120642140Y-76262080D01*
X120591340Y-76229060D01*
X120555780Y-76206200D01*
X120540540Y-76198580D01*
X120538000Y-76198580D01*
X120520220Y-76211280D01*
X120487200Y-76241760D01*
X120441480Y-76287480D01*
X120388140Y-76338280D01*
X120372900Y-76356060D01*
X120314480Y-76414480D01*
X120278920Y-76455120D01*
X120258600Y-76480520D01*
X120253520Y-76490680D01*
X120253520Y-76493220D01*
X120263680Y-76511000D01*
X120289080Y-76549100D01*
X120324640Y-76599900D01*
X120365280Y-76660860D01*
X120367820Y-76663400D01*
X120408460Y-76724360D01*
X120444020Y-76775160D01*
X120466880Y-76810720D01*
X120474500Y-76825960D01*
X120474500Y-76828500D01*
X120469420Y-76851360D01*
X120454180Y-76894540D01*
X120433860Y-76947880D01*
X120411000Y-77003760D01*
X120390680Y-77054560D01*
X120372900Y-77090120D01*
X120362740Y-77107900D01*
X120362740Y-77110440D01*
X120339880Y-77115520D01*
X120294160Y-77125680D01*
X120233200Y-77138380D01*
X120159540Y-77153620D01*
X120149380Y-77156160D01*
X120075720Y-77168860D01*
X120017300Y-77179020D01*
X119976660Y-77189180D01*
X119958880Y-77191720D01*
X119958880Y-77201880D01*
X119956340Y-77237440D01*
X119953800Y-77290780D01*
X119953800Y-77356820D01*
X119953800Y-77422860D01*
X119953800Y-77488900D01*
X119956340Y-77544780D01*
X119958880Y-77585420D01*
X119963960Y-77603200D01*
X119963960Y-77603200D01*
X119986820Y-77608280D01*
X120030000Y-77618440D01*
X120093500Y-77631140D01*
X120167160Y-77646380D01*
X120179860Y-77648920D01*
X120250980Y-77661620D01*
X120309400Y-77674320D01*
X120350040Y-77681940D01*
X120365280Y-77687020D01*
X120367820Y-77692100D01*
X120383060Y-77722580D01*
X120400840Y-77770840D01*
X120426240Y-77829260D01*
X120482120Y-77966420D01*
X120365280Y-78134060D01*
X120355120Y-78149300D01*
X120314480Y-78210260D01*
X120281460Y-78261060D01*
X120258600Y-78296620D01*
X120250980Y-78309320D01*
X120250980Y-78311860D01*
X120266220Y-78327100D01*
X120296700Y-78360120D01*
X120342420Y-78405840D01*
X120393220Y-78459180D01*
X120433860Y-78499820D01*
X120479580Y-78545540D01*
X120512600Y-78573480D01*
X120532920Y-78591260D01*
X120545620Y-78596340D01*
X120553240Y-78593800D01*
X120571020Y-78583640D01*
X120606580Y-78558240D01*
X120659920Y-78525220D01*
X120718340Y-78484580D01*
X120769140Y-78449020D01*
X120825020Y-78413460D01*
X120865660Y-78390600D01*
X120883440Y-78380440D01*
X120893600Y-78382980D01*
X120926620Y-78395680D01*
X120974880Y-78416000D01*
X121035840Y-78441400D01*
X121167920Y-78499820D01*
X121185700Y-78586180D01*
X121195860Y-78639520D01*
X121208560Y-78713180D01*
X121223800Y-78784300D01*
X121244120Y-78896060D01*
X121647980Y-78898600D01*
X121655600Y-78880820D01*
X121660680Y-78865580D01*
X121670840Y-78824940D01*
X121681000Y-78766520D01*
X121693700Y-78697940D01*
X121706400Y-78636980D01*
X121716560Y-78578560D01*
X121724180Y-78535380D01*
X121729260Y-78517600D01*
X121734340Y-78512520D01*
X121764820Y-78497280D01*
X121810540Y-78476960D01*
X121863880Y-78454100D01*
X121922300Y-78428700D01*
X121973100Y-78408380D01*
X122013740Y-78393140D01*
X122034060Y-78388060D01*
X122049300Y-78395680D01*
X122084860Y-78418540D01*
X122135660Y-78451560D01*
X122194080Y-78492200D01*
X122252500Y-78532840D01*
X122303300Y-78565860D01*
X122338860Y-78591260D01*
X122356640Y-78598880D01*
X122366800Y-78593800D01*
X122394740Y-78570940D01*
X122440460Y-78527760D01*
X122506500Y-78461720D01*
X122516660Y-78449020D01*
X122567460Y-78398220D01*
X122608100Y-78352500D01*
X122636040Y-78322020D01*
X122646200Y-78309320D01*
D12*
X130711905Y-91902381D02*
X130711905Y-90902381D01*
X131092858Y-90902381D01*
X131188096Y-90950000D01*
X131235715Y-90997619D01*
X131283334Y-91092857D01*
X131283334Y-91235714D01*
X131235715Y-91330952D01*
X131188096Y-91378571D01*
X131092858Y-91426190D01*
X130711905Y-91426190D01*
X132140477Y-91235714D02*
X132140477Y-91902381D01*
X131902381Y-90854762D02*
X131664286Y-91569048D01*
X132283334Y-91569048D01*
X145677381Y-61486905D02*
X146486905Y-61486905D01*
X146582143Y-61439286D01*
X146629762Y-61391667D01*
X146677381Y-61296429D01*
X146677381Y-61105952D01*
X146629762Y-61010714D01*
X146582143Y-60963095D01*
X146486905Y-60915476D01*
X145677381Y-60915476D01*
X145772619Y-60486905D02*
X145725000Y-60439286D01*
X145677381Y-60344048D01*
X145677381Y-60105952D01*
X145725000Y-60010714D01*
X145772619Y-59963095D01*
X145867857Y-59915476D01*
X145963095Y-59915476D01*
X146105952Y-59963095D01*
X146677381Y-60534524D01*
X146677381Y-59915476D01*
X143761905Y-91852381D02*
X143761905Y-90852381D01*
X144142858Y-90852381D01*
X144238096Y-90900000D01*
X144285715Y-90947619D01*
X144333334Y-91042857D01*
X144333334Y-91185714D01*
X144285715Y-91280952D01*
X144238096Y-91328571D01*
X144142858Y-91376190D01*
X143761905Y-91376190D01*
X145285715Y-91852381D02*
X144714286Y-91852381D01*
X145000000Y-91852381D02*
X145000000Y-90852381D01*
X144904762Y-90995238D01*
X144809524Y-91090476D01*
X144714286Y-91138095D01*
X162261905Y-91852381D02*
X162261905Y-90852381D01*
X162642858Y-90852381D01*
X162738096Y-90900000D01*
X162785715Y-90947619D01*
X162833334Y-91042857D01*
X162833334Y-91185714D01*
X162785715Y-91280952D01*
X162738096Y-91328571D01*
X162642858Y-91376190D01*
X162261905Y-91376190D01*
X163166667Y-90852381D02*
X163785715Y-90852381D01*
X163452381Y-91233333D01*
X163595239Y-91233333D01*
X163690477Y-91280952D01*
X163738096Y-91328571D01*
X163785715Y-91423810D01*
X163785715Y-91661905D01*
X163738096Y-91757143D01*
X163690477Y-91804762D01*
X163595239Y-91852381D01*
X163309524Y-91852381D01*
X163214286Y-91804762D01*
X163166667Y-91757143D01*
X174861905Y-92052381D02*
X174861905Y-91052381D01*
X175242858Y-91052381D01*
X175338096Y-91100000D01*
X175385715Y-91147619D01*
X175433334Y-91242857D01*
X175433334Y-91385714D01*
X175385715Y-91480952D01*
X175338096Y-91528571D01*
X175242858Y-91576190D01*
X174861905Y-91576190D01*
X176338096Y-91052381D02*
X175861905Y-91052381D01*
X175814286Y-91528571D01*
X175861905Y-91480952D01*
X175957143Y-91433333D01*
X176195239Y-91433333D01*
X176290477Y-91480952D01*
X176338096Y-91528571D01*
X176385715Y-91623810D01*
X176385715Y-91861905D01*
X176338096Y-91957143D01*
X176290477Y-92004762D01*
X176195239Y-92052381D01*
X175957143Y-92052381D01*
X175861905Y-92004762D01*
X175814286Y-91957143D01*
X139361905Y-47252381D02*
X139361905Y-46252381D01*
X139742858Y-46252381D01*
X139838096Y-46300000D01*
X139885715Y-46347619D01*
X139933334Y-46442857D01*
X139933334Y-46585714D01*
X139885715Y-46680952D01*
X139838096Y-46728571D01*
X139742858Y-46776190D01*
X139361905Y-46776190D01*
X140790477Y-46252381D02*
X140600000Y-46252381D01*
X140504762Y-46300000D01*
X140457143Y-46347619D01*
X140361905Y-46490476D01*
X140314286Y-46680952D01*
X140314286Y-47061905D01*
X140361905Y-47157143D01*
X140409524Y-47204762D01*
X140504762Y-47252381D01*
X140695239Y-47252381D01*
X140790477Y-47204762D01*
X140838096Y-47157143D01*
X140885715Y-47061905D01*
X140885715Y-46823810D01*
X140838096Y-46728571D01*
X140790477Y-46680952D01*
X140695239Y-46633333D01*
X140504762Y-46633333D01*
X140409524Y-46680952D01*
X140361905Y-46728571D01*
X140314286Y-46823810D01*
X191585714Y-91752381D02*
X191585714Y-90752381D01*
X191966667Y-90752381D01*
X192061905Y-90800000D01*
X192109524Y-90847619D01*
X192157143Y-90942857D01*
X192157143Y-91085714D01*
X192109524Y-91180952D01*
X192061905Y-91228571D01*
X191966667Y-91276190D01*
X191585714Y-91276190D01*
X193109524Y-91752381D02*
X192538095Y-91752381D01*
X192823809Y-91752381D02*
X192823809Y-90752381D01*
X192728571Y-90895238D01*
X192633333Y-90990476D01*
X192538095Y-91038095D01*
X193966667Y-91085714D02*
X193966667Y-91752381D01*
X193728571Y-90704762D02*
X193490476Y-91419048D01*
X194109524Y-91419048D01*
X135954762Y-87997619D02*
X135859524Y-87950000D01*
X135764286Y-87854762D01*
X135621429Y-87711905D01*
X135526190Y-87664286D01*
X135430952Y-87664286D01*
X135478571Y-87902381D02*
X135383333Y-87854762D01*
X135288095Y-87759524D01*
X135240476Y-87569048D01*
X135240476Y-87235714D01*
X135288095Y-87045238D01*
X135383333Y-86950000D01*
X135478571Y-86902381D01*
X135669048Y-86902381D01*
X135764286Y-86950000D01*
X135859524Y-87045238D01*
X135907143Y-87235714D01*
X135907143Y-87569048D01*
X135859524Y-87759524D01*
X135764286Y-87854762D01*
X135669048Y-87902381D01*
X135478571Y-87902381D01*
X136859524Y-87902381D02*
X136288095Y-87902381D01*
X136573809Y-87902381D02*
X136573809Y-86902381D01*
X136478571Y-87045238D01*
X136383333Y-87140476D01*
X136288095Y-87188095D01*
X154247619Y-87845238D02*
X154200000Y-87940476D01*
X154104762Y-88035714D01*
X153961905Y-88178571D01*
X153914286Y-88273810D01*
X153914286Y-88369048D01*
X154152381Y-88321429D02*
X154104762Y-88416667D01*
X154009524Y-88511905D01*
X153819048Y-88559524D01*
X153485714Y-88559524D01*
X153295238Y-88511905D01*
X153200000Y-88416667D01*
X153152381Y-88321429D01*
X153152381Y-88130952D01*
X153200000Y-88035714D01*
X153295238Y-87940476D01*
X153485714Y-87892857D01*
X153819048Y-87892857D01*
X154009524Y-87940476D01*
X154104762Y-88035714D01*
X154152381Y-88130952D01*
X154152381Y-88321429D01*
X153247619Y-87511905D02*
X153200000Y-87464286D01*
X153152381Y-87369048D01*
X153152381Y-87130952D01*
X153200000Y-87035714D01*
X153247619Y-86988095D01*
X153342857Y-86940476D01*
X153438095Y-86940476D01*
X153580952Y-86988095D01*
X154152381Y-87559524D01*
X154152381Y-86940476D01*
X135754762Y-82597619D02*
X135659524Y-82550000D01*
X135564286Y-82454762D01*
X135421429Y-82311905D01*
X135326190Y-82264286D01*
X135230952Y-82264286D01*
X135278571Y-82502381D02*
X135183333Y-82454762D01*
X135088095Y-82359524D01*
X135040476Y-82169048D01*
X135040476Y-81835714D01*
X135088095Y-81645238D01*
X135183333Y-81550000D01*
X135278571Y-81502381D01*
X135469048Y-81502381D01*
X135564286Y-81550000D01*
X135659524Y-81645238D01*
X135707143Y-81835714D01*
X135707143Y-82169048D01*
X135659524Y-82359524D01*
X135564286Y-82454762D01*
X135469048Y-82502381D01*
X135278571Y-82502381D01*
X136040476Y-81502381D02*
X136659524Y-81502381D01*
X136326190Y-81883333D01*
X136469048Y-81883333D01*
X136564286Y-81930952D01*
X136611905Y-81978571D01*
X136659524Y-82073810D01*
X136659524Y-82311905D01*
X136611905Y-82407143D01*
X136564286Y-82454762D01*
X136469048Y-82502381D01*
X136183333Y-82502381D01*
X136088095Y-82454762D01*
X136040476Y-82407143D01*
X130433334Y-74752381D02*
X130100000Y-74276190D01*
X129861905Y-74752381D02*
X129861905Y-73752381D01*
X130242858Y-73752381D01*
X130338096Y-73800000D01*
X130385715Y-73847619D01*
X130433334Y-73942857D01*
X130433334Y-74085714D01*
X130385715Y-74180952D01*
X130338096Y-74228571D01*
X130242858Y-74276190D01*
X129861905Y-74276190D01*
X131385715Y-74752381D02*
X130814286Y-74752381D01*
X131100000Y-74752381D02*
X131100000Y-73752381D01*
X131004762Y-73895238D01*
X130909524Y-73990476D01*
X130814286Y-74038095D01*
X142133334Y-74752381D02*
X141800000Y-74276190D01*
X141561905Y-74752381D02*
X141561905Y-73752381D01*
X141942858Y-73752381D01*
X142038096Y-73800000D01*
X142085715Y-73847619D01*
X142133334Y-73942857D01*
X142133334Y-74085714D01*
X142085715Y-74180952D01*
X142038096Y-74228571D01*
X141942858Y-74276190D01*
X141561905Y-74276190D01*
X142514286Y-73847619D02*
X142561905Y-73800000D01*
X142657143Y-73752381D01*
X142895239Y-73752381D01*
X142990477Y-73800000D01*
X143038096Y-73847619D01*
X143085715Y-73942857D01*
X143085715Y-74038095D01*
X143038096Y-74180952D01*
X142466667Y-74752381D01*
X143085715Y-74752381D01*
X130333334Y-71852381D02*
X130000000Y-71376190D01*
X129761905Y-71852381D02*
X129761905Y-70852381D01*
X130142858Y-70852381D01*
X130238096Y-70900000D01*
X130285715Y-70947619D01*
X130333334Y-71042857D01*
X130333334Y-71185714D01*
X130285715Y-71280952D01*
X130238096Y-71328571D01*
X130142858Y-71376190D01*
X129761905Y-71376190D01*
X130666667Y-70852381D02*
X131285715Y-70852381D01*
X130952381Y-71233333D01*
X131095239Y-71233333D01*
X131190477Y-71280952D01*
X131238096Y-71328571D01*
X131285715Y-71423810D01*
X131285715Y-71661905D01*
X131238096Y-71757143D01*
X131190477Y-71804762D01*
X131095239Y-71852381D01*
X130809524Y-71852381D01*
X130714286Y-71804762D01*
X130666667Y-71757143D01*
X142033334Y-71852381D02*
X141700000Y-71376190D01*
X141461905Y-71852381D02*
X141461905Y-70852381D01*
X141842858Y-70852381D01*
X141938096Y-70900000D01*
X141985715Y-70947619D01*
X142033334Y-71042857D01*
X142033334Y-71185714D01*
X141985715Y-71280952D01*
X141938096Y-71328571D01*
X141842858Y-71376190D01*
X141461905Y-71376190D01*
X142890477Y-71185714D02*
X142890477Y-71852381D01*
X142652381Y-70804762D02*
X142414286Y-71519048D01*
X143033334Y-71519048D01*
X130433334Y-68852381D02*
X130100000Y-68376190D01*
X129861905Y-68852381D02*
X129861905Y-67852381D01*
X130242858Y-67852381D01*
X130338096Y-67900000D01*
X130385715Y-67947619D01*
X130433334Y-68042857D01*
X130433334Y-68185714D01*
X130385715Y-68280952D01*
X130338096Y-68328571D01*
X130242858Y-68376190D01*
X129861905Y-68376190D01*
X131338096Y-67852381D02*
X130861905Y-67852381D01*
X130814286Y-68328571D01*
X130861905Y-68280952D01*
X130957143Y-68233333D01*
X131195239Y-68233333D01*
X131290477Y-68280952D01*
X131338096Y-68328571D01*
X131385715Y-68423810D01*
X131385715Y-68661905D01*
X131338096Y-68757143D01*
X131290477Y-68804762D01*
X131195239Y-68852381D01*
X130957143Y-68852381D01*
X130861905Y-68804762D01*
X130814286Y-68757143D01*
X142033334Y-68852381D02*
X141700000Y-68376190D01*
X141461905Y-68852381D02*
X141461905Y-67852381D01*
X141842858Y-67852381D01*
X141938096Y-67900000D01*
X141985715Y-67947619D01*
X142033334Y-68042857D01*
X142033334Y-68185714D01*
X141985715Y-68280952D01*
X141938096Y-68328571D01*
X141842858Y-68376190D01*
X141461905Y-68376190D01*
X142890477Y-67852381D02*
X142700000Y-67852381D01*
X142604762Y-67900000D01*
X142557143Y-67947619D01*
X142461905Y-68090476D01*
X142414286Y-68280952D01*
X142414286Y-68661905D01*
X142461905Y-68757143D01*
X142509524Y-68804762D01*
X142604762Y-68852381D01*
X142795239Y-68852381D01*
X142890477Y-68804762D01*
X142938096Y-68757143D01*
X142985715Y-68661905D01*
X142985715Y-68423810D01*
X142938096Y-68328571D01*
X142890477Y-68280952D01*
X142795239Y-68233333D01*
X142604762Y-68233333D01*
X142509524Y-68280952D01*
X142461905Y-68328571D01*
X142414286Y-68423810D01*
X121952381Y-61536905D02*
X122761905Y-61536905D01*
X122857143Y-61489286D01*
X122904762Y-61441667D01*
X122952381Y-61346429D01*
X122952381Y-61155952D01*
X122904762Y-61060714D01*
X122857143Y-61013095D01*
X122761905Y-60965476D01*
X121952381Y-60965476D01*
X122952381Y-59965476D02*
X122952381Y-60536905D01*
X122952381Y-60251191D02*
X121952381Y-60251191D01*
X122095238Y-60346429D01*
X122190476Y-60441667D01*
X122238095Y-60536905D01*
X169252381Y-61686905D02*
X170061905Y-61686905D01*
X170157143Y-61639286D01*
X170204762Y-61591667D01*
X170252381Y-61496429D01*
X170252381Y-61305952D01*
X170204762Y-61210714D01*
X170157143Y-61163095D01*
X170061905Y-61115476D01*
X169252381Y-61115476D01*
X169252381Y-60734524D02*
X169252381Y-60115476D01*
X169633333Y-60448810D01*
X169633333Y-60305952D01*
X169680952Y-60210714D01*
X169728571Y-60163095D01*
X169823810Y-60115476D01*
X170061905Y-60115476D01*
X170157143Y-60163095D01*
X170204762Y-60210714D01*
X170252381Y-60305952D01*
X170252381Y-60591667D01*
X170204762Y-60686905D01*
X170157143Y-60734524D01*
X193163095Y-57902381D02*
X193163095Y-58711905D01*
X193210714Y-58807143D01*
X193258333Y-58854762D01*
X193353571Y-58902381D01*
X193544048Y-58902381D01*
X193639286Y-58854762D01*
X193686905Y-58807143D01*
X193734524Y-58711905D01*
X193734524Y-57902381D01*
X194639286Y-58235714D02*
X194639286Y-58902381D01*
X194401190Y-57854762D02*
X194163095Y-58569048D01*
X194782143Y-58569048D01*
X153177381Y-80961905D02*
X153986905Y-80961905D01*
X154082143Y-80914286D01*
X154129762Y-80866667D01*
X154177381Y-80771429D01*
X154177381Y-80580952D01*
X154129762Y-80485714D01*
X154082143Y-80438095D01*
X153986905Y-80390476D01*
X153177381Y-80390476D01*
X153177381Y-79438095D02*
X153177381Y-79914286D01*
X153653571Y-79961905D01*
X153605952Y-79914286D01*
X153558333Y-79819048D01*
X153558333Y-79580952D01*
X153605952Y-79485714D01*
X153653571Y-79438095D01*
X153748810Y-79390476D01*
X153986905Y-79390476D01*
X154082143Y-79438095D01*
X154129762Y-79485714D01*
X154177381Y-79580952D01*
X154177381Y-79819048D01*
X154129762Y-79914286D01*
X154082143Y-79961905D01*
X129554762Y-82497619D02*
X129459524Y-82450000D01*
X129364286Y-82354762D01*
X129221429Y-82211905D01*
X129126190Y-82164286D01*
X129030952Y-82164286D01*
X129078571Y-82402381D02*
X128983333Y-82354762D01*
X128888095Y-82259524D01*
X128840476Y-82069048D01*
X128840476Y-81735714D01*
X128888095Y-81545238D01*
X128983333Y-81450000D01*
X129078571Y-81402381D01*
X129269048Y-81402381D01*
X129364286Y-81450000D01*
X129459524Y-81545238D01*
X129507143Y-81735714D01*
X129507143Y-82069048D01*
X129459524Y-82259524D01*
X129364286Y-82354762D01*
X129269048Y-82402381D01*
X129078571Y-82402381D01*
X130364286Y-81735714D02*
X130364286Y-82402381D01*
X130126190Y-81354762D02*
X129888095Y-82069048D01*
X130507143Y-82069048D01*
X142033334Y-77652381D02*
X141700000Y-77176190D01*
X141461905Y-77652381D02*
X141461905Y-76652381D01*
X141842858Y-76652381D01*
X141938096Y-76700000D01*
X141985715Y-76747619D01*
X142033334Y-76842857D01*
X142033334Y-76985714D01*
X141985715Y-77080952D01*
X141938096Y-77128571D01*
X141842858Y-77176190D01*
X141461905Y-77176190D01*
X142366667Y-76652381D02*
X143033334Y-76652381D01*
X142604762Y-77652381D01*
X130433334Y-80852381D02*
X130100000Y-80376190D01*
X129861905Y-80852381D02*
X129861905Y-79852381D01*
X130242858Y-79852381D01*
X130338096Y-79900000D01*
X130385715Y-79947619D01*
X130433334Y-80042857D01*
X130433334Y-80185714D01*
X130385715Y-80280952D01*
X130338096Y-80328571D01*
X130242858Y-80376190D01*
X129861905Y-80376190D01*
X131004762Y-80280952D02*
X130909524Y-80233333D01*
X130861905Y-80185714D01*
X130814286Y-80090476D01*
X130814286Y-80042857D01*
X130861905Y-79947619D01*
X130909524Y-79900000D01*
X131004762Y-79852381D01*
X131195239Y-79852381D01*
X131290477Y-79900000D01*
X131338096Y-79947619D01*
X131385715Y-80042857D01*
X131385715Y-80090476D01*
X131338096Y-80185714D01*
X131290477Y-80233333D01*
X131195239Y-80280952D01*
X131004762Y-80280952D01*
X130909524Y-80328571D01*
X130861905Y-80376190D01*
X130814286Y-80471429D01*
X130814286Y-80661905D01*
X130861905Y-80757143D01*
X130909524Y-80804762D01*
X131004762Y-80852381D01*
X131195239Y-80852381D01*
X131290477Y-80804762D01*
X131338096Y-80757143D01*
X131385715Y-80661905D01*
X131385715Y-80471429D01*
X131338096Y-80376190D01*
X131290477Y-80328571D01*
X131195239Y-80280952D01*
X130533334Y-77852381D02*
X130200000Y-77376190D01*
X129961905Y-77852381D02*
X129961905Y-76852381D01*
X130342858Y-76852381D01*
X130438096Y-76900000D01*
X130485715Y-76947619D01*
X130533334Y-77042857D01*
X130533334Y-77185714D01*
X130485715Y-77280952D01*
X130438096Y-77328571D01*
X130342858Y-77376190D01*
X129961905Y-77376190D01*
X131009524Y-77852381D02*
X131200000Y-77852381D01*
X131295239Y-77804762D01*
X131342858Y-77757143D01*
X131438096Y-77614286D01*
X131485715Y-77423810D01*
X131485715Y-77042857D01*
X131438096Y-76947619D01*
X131390477Y-76900000D01*
X131295239Y-76852381D01*
X131104762Y-76852381D01*
X131009524Y-76900000D01*
X130961905Y-76947619D01*
X130914286Y-77042857D01*
X130914286Y-77280952D01*
X130961905Y-77376190D01*
X131009524Y-77423810D01*
X131104762Y-77471429D01*
X131295239Y-77471429D01*
X131390477Y-77423810D01*
X131438096Y-77376190D01*
X131485715Y-77280952D01*
X142007143Y-80802381D02*
X141673809Y-80326190D01*
X141435714Y-80802381D02*
X141435714Y-79802381D01*
X141816667Y-79802381D01*
X141911905Y-79850000D01*
X141959524Y-79897619D01*
X142007143Y-79992857D01*
X142007143Y-80135714D01*
X141959524Y-80230952D01*
X141911905Y-80278571D01*
X141816667Y-80326190D01*
X141435714Y-80326190D01*
X142959524Y-80802381D02*
X142388095Y-80802381D01*
X142673809Y-80802381D02*
X142673809Y-79802381D01*
X142578571Y-79945238D01*
X142483333Y-80040476D01*
X142388095Y-80088095D01*
X143578571Y-79802381D02*
X143673810Y-79802381D01*
X143769048Y-79850000D01*
X143816667Y-79897619D01*
X143864286Y-79992857D01*
X143911905Y-80183333D01*
X143911905Y-80421429D01*
X143864286Y-80611905D01*
X143816667Y-80707143D01*
X143769048Y-80754762D01*
X143673810Y-80802381D01*
X143578571Y-80802381D01*
X143483333Y-80754762D01*
X143435714Y-80707143D01*
X143388095Y-80611905D01*
X143340476Y-80421429D01*
X143340476Y-80183333D01*
X143388095Y-79992857D01*
X143435714Y-79897619D01*
X143483333Y-79850000D01*
X143578571Y-79802381D01*
M02*
