G04 #@! TF.FileFunction,Legend,Top*
%FSLAX46Y46*%
G04 Gerber Fmt 4.6, Leading zero omitted, Abs format (unit mm)*
G04 Created by KiCad (PCBNEW 4.0.4-stable) date 01/15/17 13:56:54*
%MOMM*%
%LPD*%
G01*
G04 APERTURE LIST*
%ADD10C,0.100000*%
%ADD11C,0.275000*%
%ADD12C,0.300000*%
%ADD13C,0.150000*%
%ADD14C,0.002540*%
G04 APERTURE END LIST*
D10*
D11*
X232733333Y-145964286D02*
X232733333Y-146854762D01*
X232680952Y-146959524D01*
X232628571Y-147011905D01*
X232523810Y-147064286D01*
X232366667Y-147064286D01*
X232261905Y-147011905D01*
X232733333Y-146645238D02*
X232628571Y-146697619D01*
X232419048Y-146697619D01*
X232314286Y-146645238D01*
X232261905Y-146592857D01*
X232209524Y-146488095D01*
X232209524Y-146173810D01*
X232261905Y-146069048D01*
X232314286Y-146016667D01*
X232419048Y-145964286D01*
X232628571Y-145964286D01*
X232733333Y-146016667D01*
X233257143Y-146697619D02*
X233257143Y-145964286D01*
X233257143Y-145597619D02*
X233204762Y-145650000D01*
X233257143Y-145702381D01*
X233309524Y-145650000D01*
X233257143Y-145597619D01*
X233257143Y-145702381D01*
X233623810Y-145964286D02*
X234042858Y-145964286D01*
X233780953Y-145597619D02*
X233780953Y-146540476D01*
X233833334Y-146645238D01*
X233938096Y-146697619D01*
X234042858Y-146697619D01*
X234409524Y-146697619D02*
X234409524Y-145597619D01*
X234880952Y-146697619D02*
X234880952Y-146121429D01*
X234828571Y-146016667D01*
X234723809Y-145964286D01*
X234566667Y-145964286D01*
X234461905Y-146016667D01*
X234409524Y-146069048D01*
X235876190Y-145964286D02*
X235876190Y-146697619D01*
X235404762Y-145964286D02*
X235404762Y-146540476D01*
X235457143Y-146645238D01*
X235561905Y-146697619D01*
X235719047Y-146697619D01*
X235823809Y-146645238D01*
X235876190Y-146592857D01*
X236400000Y-146697619D02*
X236400000Y-145597619D01*
X236400000Y-146016667D02*
X236504762Y-145964286D01*
X236714285Y-145964286D01*
X236819047Y-146016667D01*
X236871428Y-146069048D01*
X236923809Y-146173810D01*
X236923809Y-146488095D01*
X236871428Y-146592857D01*
X236819047Y-146645238D01*
X236714285Y-146697619D01*
X236504762Y-146697619D01*
X236400000Y-146645238D01*
X237395238Y-146592857D02*
X237447619Y-146645238D01*
X237395238Y-146697619D01*
X237342857Y-146645238D01*
X237395238Y-146592857D01*
X237395238Y-146697619D01*
X238390476Y-146645238D02*
X238285714Y-146697619D01*
X238076191Y-146697619D01*
X237971429Y-146645238D01*
X237919048Y-146592857D01*
X237866667Y-146488095D01*
X237866667Y-146173810D01*
X237919048Y-146069048D01*
X237971429Y-146016667D01*
X238076191Y-145964286D01*
X238285714Y-145964286D01*
X238390476Y-146016667D01*
X239019048Y-146697619D02*
X238914286Y-146645238D01*
X238861905Y-146592857D01*
X238809524Y-146488095D01*
X238809524Y-146173810D01*
X238861905Y-146069048D01*
X238914286Y-146016667D01*
X239019048Y-145964286D01*
X239176190Y-145964286D01*
X239280952Y-146016667D01*
X239333333Y-146069048D01*
X239385714Y-146173810D01*
X239385714Y-146488095D01*
X239333333Y-146592857D01*
X239280952Y-146645238D01*
X239176190Y-146697619D01*
X239019048Y-146697619D01*
X239857143Y-146697619D02*
X239857143Y-145964286D01*
X239857143Y-146069048D02*
X239909524Y-146016667D01*
X240014286Y-145964286D01*
X240171428Y-145964286D01*
X240276190Y-146016667D01*
X240328571Y-146121429D01*
X240328571Y-146697619D01*
X240328571Y-146121429D02*
X240380952Y-146016667D01*
X240485714Y-145964286D01*
X240642857Y-145964286D01*
X240747619Y-146016667D01*
X240800000Y-146121429D01*
X240800000Y-146697619D01*
X242109524Y-145545238D02*
X241166667Y-146959524D01*
X242476191Y-146697619D02*
X242476191Y-145597619D01*
X243104762Y-146697619D02*
X242633334Y-146069048D01*
X243104762Y-145597619D02*
X242476191Y-146226190D01*
X244047619Y-146697619D02*
X244047619Y-146121429D01*
X243995238Y-146016667D01*
X243890476Y-145964286D01*
X243680953Y-145964286D01*
X243576191Y-146016667D01*
X244047619Y-146645238D02*
X243942857Y-146697619D01*
X243680953Y-146697619D01*
X243576191Y-146645238D01*
X243523810Y-146540476D01*
X243523810Y-146435714D01*
X243576191Y-146330952D01*
X243680953Y-146278571D01*
X243942857Y-146278571D01*
X244047619Y-146226190D01*
X244571429Y-146697619D02*
X244571429Y-145964286D01*
X244571429Y-145597619D02*
X244519048Y-145650000D01*
X244571429Y-145702381D01*
X244623810Y-145650000D01*
X244571429Y-145597619D01*
X244571429Y-145702381D01*
X245042858Y-146645238D02*
X245147620Y-146697619D01*
X245357144Y-146697619D01*
X245461905Y-146645238D01*
X245514286Y-146540476D01*
X245514286Y-146488095D01*
X245461905Y-146383333D01*
X245357144Y-146330952D01*
X245200001Y-146330952D01*
X245095239Y-146278571D01*
X245042858Y-146173810D01*
X245042858Y-146121429D01*
X245095239Y-146016667D01*
X245200001Y-145964286D01*
X245357144Y-145964286D01*
X245461905Y-146016667D01*
X246404762Y-146645238D02*
X246300000Y-146697619D01*
X246090477Y-146697619D01*
X245985715Y-146645238D01*
X245933334Y-146540476D01*
X245933334Y-146121429D01*
X245985715Y-146016667D01*
X246090477Y-145964286D01*
X246300000Y-145964286D01*
X246404762Y-146016667D01*
X246457143Y-146121429D01*
X246457143Y-146226190D01*
X245933334Y-146330952D01*
X246928572Y-146697619D02*
X246928572Y-145964286D01*
X246928572Y-146173810D02*
X246980953Y-146069048D01*
X247033334Y-146016667D01*
X247138096Y-145964286D01*
X247242857Y-145964286D01*
X247557143Y-146645238D02*
X247714286Y-146697619D01*
X247976190Y-146697619D01*
X248080952Y-146645238D01*
X248133333Y-146592857D01*
X248185714Y-146488095D01*
X248185714Y-146383333D01*
X248133333Y-146278571D01*
X248080952Y-146226190D01*
X247976190Y-146173810D01*
X247766667Y-146121429D01*
X247661905Y-146069048D01*
X247609524Y-146016667D01*
X247557143Y-145911905D01*
X247557143Y-145807143D01*
X247609524Y-145702381D01*
X247661905Y-145650000D01*
X247766667Y-145597619D01*
X248028571Y-145597619D01*
X248185714Y-145650000D01*
X248814286Y-146697619D02*
X248709524Y-146645238D01*
X248657143Y-146592857D01*
X248604762Y-146488095D01*
X248604762Y-146173810D01*
X248657143Y-146069048D01*
X248709524Y-146016667D01*
X248814286Y-145964286D01*
X248971428Y-145964286D01*
X249076190Y-146016667D01*
X249128571Y-146069048D01*
X249180952Y-146173810D01*
X249180952Y-146488095D01*
X249128571Y-146592857D01*
X249076190Y-146645238D01*
X248971428Y-146697619D01*
X248814286Y-146697619D01*
X249495238Y-145964286D02*
X249914286Y-145964286D01*
X249652381Y-146697619D02*
X249652381Y-145754762D01*
X249704762Y-145650000D01*
X249809524Y-145597619D01*
X249914286Y-145597619D01*
X250123809Y-145964286D02*
X250542857Y-145964286D01*
X250280952Y-145597619D02*
X250280952Y-146540476D01*
X250333333Y-146645238D01*
X250438095Y-146697619D01*
X250542857Y-146697619D01*
X251695237Y-145545238D02*
X250752380Y-146959524D01*
X252271428Y-145597619D02*
X252480951Y-145597619D01*
X252585713Y-145650000D01*
X252690475Y-145754762D01*
X252742856Y-145964286D01*
X252742856Y-146330952D01*
X252690475Y-146540476D01*
X252585713Y-146645238D01*
X252480951Y-146697619D01*
X252271428Y-146697619D01*
X252166666Y-146645238D01*
X252061904Y-146540476D01*
X252009523Y-146330952D01*
X252009523Y-145964286D01*
X252061904Y-145754762D01*
X252166666Y-145650000D01*
X252271428Y-145597619D01*
X253214285Y-145964286D02*
X253214285Y-147064286D01*
X253214285Y-146016667D02*
X253319047Y-145964286D01*
X253528570Y-145964286D01*
X253633332Y-146016667D01*
X253685713Y-146069048D01*
X253738094Y-146173810D01*
X253738094Y-146488095D01*
X253685713Y-146592857D01*
X253633332Y-146645238D01*
X253528570Y-146697619D01*
X253319047Y-146697619D01*
X253214285Y-146645238D01*
X254628570Y-146645238D02*
X254523808Y-146697619D01*
X254314285Y-146697619D01*
X254209523Y-146645238D01*
X254157142Y-146540476D01*
X254157142Y-146121429D01*
X254209523Y-146016667D01*
X254314285Y-145964286D01*
X254523808Y-145964286D01*
X254628570Y-146016667D01*
X254680951Y-146121429D01*
X254680951Y-146226190D01*
X254157142Y-146330952D01*
X255152380Y-145964286D02*
X255152380Y-146697619D01*
X255152380Y-146069048D02*
X255204761Y-146016667D01*
X255309523Y-145964286D01*
X255466665Y-145964286D01*
X255571427Y-146016667D01*
X255623808Y-146121429D01*
X255623808Y-146697619D01*
X256095237Y-146645238D02*
X256252380Y-146697619D01*
X256514284Y-146697619D01*
X256619046Y-146645238D01*
X256671427Y-146592857D01*
X256723808Y-146488095D01*
X256723808Y-146383333D01*
X256671427Y-146278571D01*
X256619046Y-146226190D01*
X256514284Y-146173810D01*
X256304761Y-146121429D01*
X256199999Y-146069048D01*
X256147618Y-146016667D01*
X256095237Y-145911905D01*
X256095237Y-145807143D01*
X256147618Y-145702381D01*
X256199999Y-145650000D01*
X256304761Y-145597619D01*
X256566665Y-145597619D01*
X256723808Y-145650000D01*
X257195237Y-146697619D02*
X257195237Y-145964286D01*
X257195237Y-145597619D02*
X257142856Y-145650000D01*
X257195237Y-145702381D01*
X257247618Y-145650000D01*
X257195237Y-145597619D01*
X257195237Y-145702381D01*
X257719047Y-146697619D02*
X257719047Y-145964286D01*
X257719047Y-146069048D02*
X257771428Y-146016667D01*
X257876190Y-145964286D01*
X258033332Y-145964286D01*
X258138094Y-146016667D01*
X258190475Y-146121429D01*
X258190475Y-146697619D01*
X258190475Y-146121429D02*
X258242856Y-146016667D01*
X258347618Y-145964286D01*
X258504761Y-145964286D01*
X258609523Y-146016667D01*
X258661904Y-146121429D01*
X258661904Y-146697619D01*
X259552380Y-146121429D02*
X259709523Y-146173810D01*
X259761904Y-146226190D01*
X259814285Y-146330952D01*
X259814285Y-146488095D01*
X259761904Y-146592857D01*
X259709523Y-146645238D01*
X259604761Y-146697619D01*
X259185714Y-146697619D01*
X259185714Y-145597619D01*
X259552380Y-145597619D01*
X259657142Y-145650000D01*
X259709523Y-145702381D01*
X259761904Y-145807143D01*
X259761904Y-145911905D01*
X259709523Y-146016667D01*
X259657142Y-146069048D01*
X259552380Y-146121429D01*
X259185714Y-146121429D01*
X260757142Y-145964286D02*
X260757142Y-146697619D01*
X260285714Y-145964286D02*
X260285714Y-146540476D01*
X260338095Y-146645238D01*
X260442857Y-146697619D01*
X260599999Y-146697619D01*
X260704761Y-146645238D01*
X260757142Y-146592857D01*
X261123809Y-145964286D02*
X261542857Y-145964286D01*
X261280952Y-145597619D02*
X261280952Y-146540476D01*
X261333333Y-146645238D01*
X261438095Y-146697619D01*
X261542857Y-146697619D01*
X261752380Y-145964286D02*
X262171428Y-145964286D01*
X261909523Y-145597619D02*
X261909523Y-146540476D01*
X261961904Y-146645238D01*
X262066666Y-146697619D01*
X262171428Y-146697619D01*
X262695237Y-146697619D02*
X262590475Y-146645238D01*
X262538094Y-146592857D01*
X262485713Y-146488095D01*
X262485713Y-146173810D01*
X262538094Y-146069048D01*
X262590475Y-146016667D01*
X262695237Y-145964286D01*
X262852379Y-145964286D01*
X262957141Y-146016667D01*
X263009522Y-146069048D01*
X263061903Y-146173810D01*
X263061903Y-146488095D01*
X263009522Y-146592857D01*
X262957141Y-146645238D01*
X262852379Y-146697619D01*
X262695237Y-146697619D01*
X263533332Y-145964286D02*
X263533332Y-146697619D01*
X263533332Y-146069048D02*
X263585713Y-146016667D01*
X263690475Y-145964286D01*
X263847617Y-145964286D01*
X263952379Y-146016667D01*
X264004760Y-146121429D01*
X264004760Y-146697619D01*
X264895236Y-146121429D02*
X265052379Y-146173810D01*
X265104760Y-146226190D01*
X265157141Y-146330952D01*
X265157141Y-146488095D01*
X265104760Y-146592857D01*
X265052379Y-146645238D01*
X264947617Y-146697619D01*
X264528570Y-146697619D01*
X264528570Y-145597619D01*
X264895236Y-145597619D01*
X264999998Y-145650000D01*
X265052379Y-145702381D01*
X265104760Y-145807143D01*
X265104760Y-145911905D01*
X265052379Y-146016667D01*
X264999998Y-146069048D01*
X264895236Y-146121429D01*
X264528570Y-146121429D01*
X265785713Y-146697619D02*
X265680951Y-146645238D01*
X265628570Y-146592857D01*
X265576189Y-146488095D01*
X265576189Y-146173810D01*
X265628570Y-146069048D01*
X265680951Y-146016667D01*
X265785713Y-145964286D01*
X265942855Y-145964286D01*
X266047617Y-146016667D01*
X266099998Y-146069048D01*
X266152379Y-146173810D01*
X266152379Y-146488095D01*
X266099998Y-146592857D01*
X266047617Y-146645238D01*
X265942855Y-146697619D01*
X265785713Y-146697619D01*
X266519046Y-146697619D02*
X267095236Y-145964286D01*
X266519046Y-145964286D02*
X267095236Y-146697619D01*
D12*
X232257143Y-135378571D02*
X232257143Y-133878571D01*
X232757143Y-134950000D01*
X233257143Y-133878571D01*
X233257143Y-135378571D01*
X234257143Y-133878571D02*
X234542857Y-133878571D01*
X234685715Y-133950000D01*
X234828572Y-134092857D01*
X234900000Y-134378571D01*
X234900000Y-134878571D01*
X234828572Y-135164286D01*
X234685715Y-135307143D01*
X234542857Y-135378571D01*
X234257143Y-135378571D01*
X234114286Y-135307143D01*
X233971429Y-135164286D01*
X233900000Y-134878571D01*
X233900000Y-134378571D01*
X233971429Y-134092857D01*
X234114286Y-133950000D01*
X234257143Y-133878571D01*
X236042858Y-134592857D02*
X236257144Y-134664286D01*
X236328572Y-134735714D01*
X236400001Y-134878571D01*
X236400001Y-135092857D01*
X236328572Y-135235714D01*
X236257144Y-135307143D01*
X236114286Y-135378571D01*
X235542858Y-135378571D01*
X235542858Y-133878571D01*
X236042858Y-133878571D01*
X236185715Y-133950000D01*
X236257144Y-134021429D01*
X236328572Y-134164286D01*
X236328572Y-134307143D01*
X236257144Y-134450000D01*
X236185715Y-134521429D01*
X236042858Y-134592857D01*
X235542858Y-134592857D01*
X237542858Y-134592857D02*
X237757144Y-134664286D01*
X237828572Y-134735714D01*
X237900001Y-134878571D01*
X237900001Y-135092857D01*
X237828572Y-135235714D01*
X237757144Y-135307143D01*
X237614286Y-135378571D01*
X237042858Y-135378571D01*
X237042858Y-133878571D01*
X237542858Y-133878571D01*
X237685715Y-133950000D01*
X237757144Y-134021429D01*
X237828572Y-134164286D01*
X237828572Y-134307143D01*
X237757144Y-134450000D01*
X237685715Y-134521429D01*
X237542858Y-134592857D01*
X237042858Y-134592857D01*
X239614286Y-134950000D02*
X240328572Y-134950000D01*
X239471429Y-135378571D02*
X239971429Y-133878571D01*
X240471429Y-135378571D01*
X240971429Y-133878571D02*
X240971429Y-135092857D01*
X241042857Y-135235714D01*
X241114286Y-135307143D01*
X241257143Y-135378571D01*
X241542857Y-135378571D01*
X241685715Y-135307143D01*
X241757143Y-135235714D01*
X241828572Y-135092857D01*
X241828572Y-133878571D01*
X242400001Y-133878571D02*
X243400001Y-135378571D01*
X243400001Y-133878571D02*
X242400001Y-135378571D01*
X245042857Y-134950000D02*
X245757143Y-134950000D01*
X244900000Y-135378571D02*
X245400000Y-133878571D01*
X245900000Y-135378571D01*
X247042857Y-135378571D02*
X247042857Y-133878571D01*
X247042857Y-135307143D02*
X246900000Y-135378571D01*
X246614286Y-135378571D01*
X246471428Y-135307143D01*
X246400000Y-135235714D01*
X246328571Y-135092857D01*
X246328571Y-134664286D01*
X246400000Y-134521429D01*
X246471428Y-134450000D01*
X246614286Y-134378571D01*
X246900000Y-134378571D01*
X247042857Y-134450000D01*
X248400000Y-135378571D02*
X248400000Y-134592857D01*
X248328571Y-134450000D01*
X248185714Y-134378571D01*
X247900000Y-134378571D01*
X247757143Y-134450000D01*
X248400000Y-135307143D02*
X248257143Y-135378571D01*
X247900000Y-135378571D01*
X247757143Y-135307143D01*
X247685714Y-135164286D01*
X247685714Y-135021429D01*
X247757143Y-134878571D01*
X247900000Y-134807143D01*
X248257143Y-134807143D01*
X248400000Y-134735714D01*
X249114286Y-134378571D02*
X249114286Y-135878571D01*
X249114286Y-134450000D02*
X249257143Y-134378571D01*
X249542857Y-134378571D01*
X249685714Y-134450000D01*
X249757143Y-134521429D01*
X249828572Y-134664286D01*
X249828572Y-135092857D01*
X249757143Y-135235714D01*
X249685714Y-135307143D01*
X249542857Y-135378571D01*
X249257143Y-135378571D01*
X249114286Y-135307143D01*
X250257143Y-134378571D02*
X250828572Y-134378571D01*
X250471429Y-133878571D02*
X250471429Y-135164286D01*
X250542857Y-135307143D01*
X250685715Y-135378571D01*
X250828572Y-135378571D01*
X251900000Y-135307143D02*
X251757143Y-135378571D01*
X251471429Y-135378571D01*
X251328572Y-135307143D01*
X251257143Y-135164286D01*
X251257143Y-134592857D01*
X251328572Y-134450000D01*
X251471429Y-134378571D01*
X251757143Y-134378571D01*
X251900000Y-134450000D01*
X251971429Y-134592857D01*
X251971429Y-134735714D01*
X251257143Y-134878571D01*
X252614286Y-135378571D02*
X252614286Y-134378571D01*
X252614286Y-134664286D02*
X252685714Y-134521429D01*
X252757143Y-134450000D01*
X252900000Y-134378571D01*
X253042857Y-134378571D01*
X254685714Y-135378571D02*
X254685714Y-134378571D01*
X254685714Y-134664286D02*
X254757142Y-134521429D01*
X254828571Y-134450000D01*
X254971428Y-134378571D01*
X255114285Y-134378571D01*
X256185713Y-135307143D02*
X256042856Y-135378571D01*
X255757142Y-135378571D01*
X255614285Y-135307143D01*
X255542856Y-135164286D01*
X255542856Y-134592857D01*
X255614285Y-134450000D01*
X255757142Y-134378571D01*
X256042856Y-134378571D01*
X256185713Y-134450000D01*
X256257142Y-134592857D01*
X256257142Y-134735714D01*
X255542856Y-134878571D01*
X256757142Y-134378571D02*
X257114285Y-135378571D01*
X257471427Y-134378571D01*
X258042856Y-135235714D02*
X258114284Y-135307143D01*
X258042856Y-135378571D01*
X257971427Y-135307143D01*
X258042856Y-135235714D01*
X258042856Y-135378571D01*
X258042856Y-134450000D02*
X258114284Y-134521429D01*
X258042856Y-134592857D01*
X257971427Y-134521429D01*
X258042856Y-134450000D01*
X258042856Y-134592857D01*
X259614285Y-135378571D02*
X259114285Y-134664286D01*
X258757142Y-135378571D02*
X258757142Y-133878571D01*
X259328570Y-133878571D01*
X259471428Y-133950000D01*
X259542856Y-134021429D01*
X259614285Y-134164286D01*
X259614285Y-134378571D01*
X259542856Y-134521429D01*
X259471428Y-134592857D01*
X259328570Y-134664286D01*
X258757142Y-134664286D01*
X261114285Y-135235714D02*
X261042856Y-135307143D01*
X260828570Y-135378571D01*
X260685713Y-135378571D01*
X260471428Y-135307143D01*
X260328570Y-135164286D01*
X260257142Y-135021429D01*
X260185713Y-134735714D01*
X260185713Y-134521429D01*
X260257142Y-134235714D01*
X260328570Y-134092857D01*
X260471428Y-133950000D01*
X260685713Y-133878571D01*
X260828570Y-133878571D01*
X261042856Y-133950000D01*
X261114285Y-134021429D01*
X261685713Y-134021429D02*
X261757142Y-133950000D01*
X261899999Y-133878571D01*
X262257142Y-133878571D01*
X262399999Y-133950000D01*
X262471428Y-134021429D01*
X262542856Y-134164286D01*
X262542856Y-134307143D01*
X262471428Y-134521429D01*
X261614285Y-135378571D01*
X262542856Y-135378571D01*
X257850000Y-154646428D02*
X257850000Y-153932142D01*
X258278571Y-154789285D02*
X256778571Y-154289285D01*
X258278571Y-153789285D01*
X256778571Y-153289285D02*
X257992857Y-153289285D01*
X258135714Y-153217857D01*
X258207143Y-153146428D01*
X258278571Y-153003571D01*
X258278571Y-152717857D01*
X258207143Y-152574999D01*
X258135714Y-152503571D01*
X257992857Y-152432142D01*
X256778571Y-152432142D01*
X256778571Y-151860713D02*
X258278571Y-150860713D01*
X256778571Y-150860713D02*
X258278571Y-151860713D01*
X256778571Y-150432142D02*
X256778571Y-149503571D01*
X257350000Y-150003571D01*
X257350000Y-149789285D01*
X257421429Y-149646428D01*
X257492857Y-149574999D01*
X257635714Y-149503571D01*
X257992857Y-149503571D01*
X258135714Y-149574999D01*
X258207143Y-149646428D01*
X258278571Y-149789285D01*
X258278571Y-150217857D01*
X258207143Y-150360714D01*
X258135714Y-150432142D01*
X254628572Y-129007143D02*
X255771429Y-129007143D01*
X255200000Y-129578571D02*
X255200000Y-128435714D01*
X255207143Y-132071428D02*
X255207143Y-130928571D01*
X255207143Y-154971428D02*
X255207143Y-153828571D01*
X254628572Y-152107143D02*
X255771429Y-152107143D01*
X255200000Y-152678571D02*
X255200000Y-151535714D01*
X255307143Y-143571428D02*
X255307143Y-142428571D01*
X254678572Y-140357143D02*
X255821429Y-140357143D01*
X255250000Y-140928571D02*
X255250000Y-139785714D01*
X257775000Y-131696428D02*
X257775000Y-130982142D01*
X258203571Y-131839285D02*
X256703571Y-131339285D01*
X258203571Y-130839285D01*
X256703571Y-130339285D02*
X257917857Y-130339285D01*
X258060714Y-130267857D01*
X258132143Y-130196428D01*
X258203571Y-130053571D01*
X258203571Y-129767857D01*
X258132143Y-129624999D01*
X258060714Y-129553571D01*
X257917857Y-129482142D01*
X256703571Y-129482142D01*
X256703571Y-128910713D02*
X258203571Y-127910713D01*
X256703571Y-127910713D02*
X258203571Y-128910713D01*
X258203571Y-126553571D02*
X258203571Y-127410714D01*
X258203571Y-126982142D02*
X256703571Y-126982142D01*
X256917857Y-127124999D01*
X257060714Y-127267857D01*
X257132143Y-127410714D01*
X257750000Y-143071428D02*
X257750000Y-142357142D01*
X258178571Y-143214285D02*
X256678571Y-142714285D01*
X258178571Y-142214285D01*
X256678571Y-141714285D02*
X257892857Y-141714285D01*
X258035714Y-141642857D01*
X258107143Y-141571428D01*
X258178571Y-141428571D01*
X258178571Y-141142857D01*
X258107143Y-140999999D01*
X258035714Y-140928571D01*
X257892857Y-140857142D01*
X256678571Y-140857142D01*
X256678571Y-140285713D02*
X258178571Y-139285713D01*
X256678571Y-139285713D02*
X258178571Y-140285713D01*
X256821429Y-138785714D02*
X256750000Y-138714285D01*
X256678571Y-138571428D01*
X256678571Y-138214285D01*
X256750000Y-138071428D01*
X256821429Y-137999999D01*
X256964286Y-137928571D01*
X257107143Y-137928571D01*
X257321429Y-137999999D01*
X258178571Y-138857142D01*
X258178571Y-137928571D01*
X246275001Y-142453571D02*
X247203572Y-142453571D01*
X246703572Y-143025000D01*
X246917858Y-143025000D01*
X247060715Y-143096429D01*
X247132144Y-143167857D01*
X247203572Y-143310714D01*
X247203572Y-143667857D01*
X247132144Y-143810714D01*
X247060715Y-143882143D01*
X246917858Y-143953571D01*
X246489286Y-143953571D01*
X246346429Y-143882143D01*
X246275001Y-143810714D01*
X246321429Y-139821429D02*
X246392858Y-139750000D01*
X246535715Y-139678571D01*
X246892858Y-139678571D01*
X247035715Y-139750000D01*
X247107144Y-139821429D01*
X247178572Y-139964286D01*
X247178572Y-140107143D01*
X247107144Y-140321429D01*
X246250001Y-141178571D01*
X247178572Y-141178571D01*
X247253572Y-138603571D02*
X246396429Y-138603571D01*
X246825001Y-138603571D02*
X246825001Y-137103571D01*
X246682144Y-137317857D01*
X246539286Y-137460714D01*
X246396429Y-137532143D01*
D13*
X242226000Y-137666000D02*
X242734000Y-137666000D01*
X242226000Y-138174000D02*
X242734000Y-138174000D01*
X242226000Y-140206000D02*
X242734000Y-140206000D01*
X242226000Y-140714000D02*
X242734000Y-140714000D01*
X242226000Y-142746000D02*
X242734000Y-142746000D01*
X242226000Y-143254000D02*
X242734000Y-143254000D01*
X239686000Y-140714000D02*
X240194000Y-140714000D01*
X239686000Y-140206000D02*
X240194000Y-140206000D01*
X239686000Y-138174000D02*
X240194000Y-138174000D01*
X239686000Y-137666000D02*
X240194000Y-137666000D01*
X239686000Y-143254000D02*
X240194000Y-143254000D01*
X239686000Y-142746000D02*
X240194000Y-142746000D01*
X243750000Y-144550000D02*
X244900000Y-144550000D01*
X244900000Y-144550000D02*
X244900000Y-143000000D01*
X237146000Y-143127000D02*
X231177000Y-143127000D01*
X231177000Y-143127000D02*
X231177000Y-142873000D01*
X231177000Y-142873000D02*
X237019000Y-142873000D01*
X237019000Y-142873000D02*
X237019000Y-143000000D01*
X237019000Y-143000000D02*
X231177000Y-143000000D01*
X239686000Y-141730000D02*
X239686000Y-139190000D01*
X239686000Y-139190000D02*
X237146000Y-139190000D01*
X237146000Y-140714000D02*
X231050000Y-140714000D01*
X231050000Y-140714000D02*
X231050000Y-140206000D01*
X231050000Y-140206000D02*
X237146000Y-140206000D01*
X237146000Y-139190000D02*
X237146000Y-141730000D01*
X239686000Y-136650000D02*
X237146000Y-136650000D01*
X237146000Y-136650000D02*
X237146000Y-139190000D01*
X231050000Y-137666000D02*
X237146000Y-137666000D01*
X231050000Y-138174000D02*
X231050000Y-137666000D01*
X237146000Y-138174000D02*
X231050000Y-138174000D01*
X239686000Y-136650000D02*
X237146000Y-136650000D01*
X239686000Y-139190000D02*
X239686000Y-136650000D01*
X239686000Y-139190000D02*
X237146000Y-139190000D01*
X239686000Y-141730000D02*
X237146000Y-141730000D01*
X237146000Y-141730000D02*
X237146000Y-144270000D01*
X231050000Y-142746000D02*
X237146000Y-142746000D01*
X231050000Y-143254000D02*
X231050000Y-142746000D01*
X237146000Y-143254000D02*
X231050000Y-143254000D01*
X239686000Y-141730000D02*
X237146000Y-141730000D01*
X239686000Y-144270000D02*
X239686000Y-141730000D01*
X239686000Y-144270000D02*
X237146000Y-144270000D01*
D14*
G36*
X236190680Y-131846200D02*
X236208460Y-131838580D01*
X236241480Y-131815720D01*
X236292280Y-131782700D01*
X236350700Y-131744600D01*
X236411660Y-131703960D01*
X236459920Y-131670940D01*
X236495480Y-131648080D01*
X236508180Y-131640460D01*
X236515800Y-131643000D01*
X236543740Y-131658240D01*
X236584380Y-131678560D01*
X236609780Y-131691260D01*
X236647880Y-131706500D01*
X236665660Y-131711580D01*
X236668200Y-131706500D01*
X236683440Y-131676020D01*
X236703760Y-131627760D01*
X236731700Y-131561720D01*
X236764720Y-131485520D01*
X236800280Y-131404240D01*
X236833300Y-131320420D01*
X236866320Y-131241680D01*
X236896800Y-131168020D01*
X236919660Y-131109600D01*
X236934900Y-131068960D01*
X236942520Y-131051180D01*
X236939980Y-131048640D01*
X236922200Y-131030860D01*
X236889180Y-131005460D01*
X236818060Y-130947040D01*
X236746940Y-130860680D01*
X236703760Y-130761620D01*
X236691060Y-130649860D01*
X236701220Y-130548260D01*
X236741860Y-130451740D01*
X236810440Y-130362840D01*
X236894260Y-130296800D01*
X236990780Y-130256160D01*
X237100000Y-130243460D01*
X237204140Y-130253620D01*
X237303200Y-130294260D01*
X237392100Y-130360300D01*
X237430200Y-130403480D01*
X237481000Y-130494920D01*
X237511480Y-130588900D01*
X237514020Y-130611760D01*
X237508940Y-130718440D01*
X237478460Y-130820040D01*
X237422580Y-130908940D01*
X237346380Y-130982600D01*
X237336220Y-130990220D01*
X237300660Y-131018160D01*
X237275260Y-131035940D01*
X237257480Y-131051180D01*
X237392100Y-131373760D01*
X237412420Y-131424560D01*
X237450520Y-131513460D01*
X237481000Y-131589660D01*
X237508940Y-131650620D01*
X237526720Y-131691260D01*
X237534340Y-131706500D01*
X237534340Y-131706500D01*
X237547040Y-131709040D01*
X237569900Y-131701420D01*
X237615620Y-131678560D01*
X237646100Y-131663320D01*
X237679120Y-131648080D01*
X237694360Y-131640460D01*
X237709600Y-131648080D01*
X237742620Y-131668400D01*
X237788340Y-131701420D01*
X237846760Y-131739520D01*
X237902640Y-131777620D01*
X237953440Y-131810640D01*
X237989000Y-131836040D01*
X238006780Y-131843660D01*
X238009320Y-131843660D01*
X238027100Y-131836040D01*
X238055040Y-131810640D01*
X238098220Y-131770000D01*
X238161720Y-131709040D01*
X238171880Y-131698880D01*
X238222680Y-131648080D01*
X238263320Y-131602360D01*
X238291260Y-131571880D01*
X238301420Y-131559180D01*
X238301420Y-131559180D01*
X238291260Y-131541400D01*
X238268400Y-131503300D01*
X238235380Y-131452500D01*
X238194740Y-131391540D01*
X238088060Y-131236600D01*
X238146480Y-131091820D01*
X238164260Y-131046100D01*
X238187120Y-130990220D01*
X238204900Y-130952120D01*
X238212520Y-130934340D01*
X238230300Y-130929260D01*
X238268400Y-130919100D01*
X238326820Y-130908940D01*
X238397940Y-130896240D01*
X238463980Y-130883540D01*
X238522400Y-130870840D01*
X238565580Y-130863220D01*
X238585900Y-130860680D01*
X238590980Y-130855600D01*
X238593520Y-130847980D01*
X238596060Y-130827660D01*
X238598600Y-130789560D01*
X238598600Y-130733680D01*
X238598600Y-130649860D01*
X238598600Y-130642240D01*
X238598600Y-130563500D01*
X238596060Y-130500000D01*
X238593520Y-130461900D01*
X238590980Y-130444120D01*
X238590980Y-130444120D01*
X238573200Y-130439040D01*
X238530020Y-130431420D01*
X238471600Y-130418720D01*
X238400480Y-130406020D01*
X238395400Y-130406020D01*
X238324280Y-130390780D01*
X238265860Y-130378080D01*
X238222680Y-130370460D01*
X238204900Y-130362840D01*
X238202360Y-130357760D01*
X238187120Y-130329820D01*
X238166800Y-130286640D01*
X238143940Y-130233300D01*
X238121080Y-130177420D01*
X238100760Y-130126620D01*
X238088060Y-130091060D01*
X238082980Y-130073280D01*
X238082980Y-130073280D01*
X238093140Y-130055500D01*
X238118540Y-130019940D01*
X238154100Y-129969140D01*
X238194740Y-129908180D01*
X238197280Y-129903100D01*
X238237920Y-129842140D01*
X238270940Y-129791340D01*
X238293800Y-129755780D01*
X238301420Y-129740540D01*
X238301420Y-129738000D01*
X238288720Y-129720220D01*
X238258240Y-129687200D01*
X238212520Y-129641480D01*
X238161720Y-129588140D01*
X238143940Y-129572900D01*
X238085520Y-129514480D01*
X238044880Y-129478920D01*
X238019480Y-129458600D01*
X238009320Y-129453520D01*
X238006780Y-129453520D01*
X237989000Y-129463680D01*
X237950900Y-129489080D01*
X237900100Y-129524640D01*
X237839140Y-129565280D01*
X237836600Y-129567820D01*
X237775640Y-129608460D01*
X237724840Y-129644020D01*
X237689280Y-129666880D01*
X237674040Y-129674500D01*
X237671500Y-129674500D01*
X237648640Y-129669420D01*
X237605460Y-129654180D01*
X237552120Y-129633860D01*
X237496240Y-129611000D01*
X237445440Y-129590680D01*
X237409880Y-129572900D01*
X237392100Y-129562740D01*
X237389560Y-129562740D01*
X237384480Y-129539880D01*
X237374320Y-129494160D01*
X237361620Y-129433200D01*
X237346380Y-129359540D01*
X237343840Y-129349380D01*
X237331140Y-129275720D01*
X237320980Y-129217300D01*
X237310820Y-129176660D01*
X237308280Y-129158880D01*
X237298120Y-129158880D01*
X237262560Y-129156340D01*
X237209220Y-129153800D01*
X237143180Y-129153800D01*
X237077140Y-129153800D01*
X237011100Y-129153800D01*
X236955220Y-129156340D01*
X236914580Y-129158880D01*
X236896800Y-129163960D01*
X236896800Y-129163960D01*
X236891720Y-129186820D01*
X236881560Y-129230000D01*
X236868860Y-129293500D01*
X236853620Y-129367160D01*
X236851080Y-129379860D01*
X236838380Y-129450980D01*
X236825680Y-129509400D01*
X236818060Y-129550040D01*
X236812980Y-129565280D01*
X236807900Y-129567820D01*
X236777420Y-129583060D01*
X236729160Y-129600840D01*
X236670740Y-129626240D01*
X236533580Y-129682120D01*
X236365940Y-129565280D01*
X236350700Y-129555120D01*
X236289740Y-129514480D01*
X236238940Y-129481460D01*
X236203380Y-129458600D01*
X236190680Y-129450980D01*
X236188140Y-129450980D01*
X236172900Y-129466220D01*
X236139880Y-129496700D01*
X236094160Y-129542420D01*
X236040820Y-129593220D01*
X236000180Y-129633860D01*
X235954460Y-129679580D01*
X235926520Y-129712600D01*
X235908740Y-129732920D01*
X235903660Y-129745620D01*
X235906200Y-129753240D01*
X235916360Y-129771020D01*
X235941760Y-129806580D01*
X235974780Y-129859920D01*
X236015420Y-129918340D01*
X236050980Y-129969140D01*
X236086540Y-130025020D01*
X236109400Y-130065660D01*
X236119560Y-130083440D01*
X236117020Y-130093600D01*
X236104320Y-130126620D01*
X236084000Y-130174880D01*
X236058600Y-130235840D01*
X236000180Y-130367920D01*
X235913820Y-130385700D01*
X235860480Y-130395860D01*
X235786820Y-130408560D01*
X235715700Y-130423800D01*
X235603940Y-130444120D01*
X235601400Y-130847980D01*
X235619180Y-130855600D01*
X235634420Y-130860680D01*
X235675060Y-130870840D01*
X235733480Y-130881000D01*
X235802060Y-130893700D01*
X235863020Y-130906400D01*
X235921440Y-130916560D01*
X235964620Y-130924180D01*
X235982400Y-130929260D01*
X235987480Y-130934340D01*
X236002720Y-130964820D01*
X236023040Y-131010540D01*
X236045900Y-131063880D01*
X236071300Y-131122300D01*
X236091620Y-131173100D01*
X236106860Y-131213740D01*
X236111940Y-131234060D01*
X236104320Y-131249300D01*
X236081460Y-131284860D01*
X236048440Y-131335660D01*
X236007800Y-131394080D01*
X235967160Y-131452500D01*
X235934140Y-131503300D01*
X235908740Y-131538860D01*
X235901120Y-131556640D01*
X235906200Y-131566800D01*
X235929060Y-131594740D01*
X235972240Y-131640460D01*
X236038280Y-131706500D01*
X236050980Y-131716660D01*
X236101780Y-131767460D01*
X236147500Y-131808100D01*
X236177980Y-131836040D01*
X236190680Y-131846200D01*
X236190680Y-131846200D01*
G37*
X236190680Y-131846200D02*
X236208460Y-131838580D01*
X236241480Y-131815720D01*
X236292280Y-131782700D01*
X236350700Y-131744600D01*
X236411660Y-131703960D01*
X236459920Y-131670940D01*
X236495480Y-131648080D01*
X236508180Y-131640460D01*
X236515800Y-131643000D01*
X236543740Y-131658240D01*
X236584380Y-131678560D01*
X236609780Y-131691260D01*
X236647880Y-131706500D01*
X236665660Y-131711580D01*
X236668200Y-131706500D01*
X236683440Y-131676020D01*
X236703760Y-131627760D01*
X236731700Y-131561720D01*
X236764720Y-131485520D01*
X236800280Y-131404240D01*
X236833300Y-131320420D01*
X236866320Y-131241680D01*
X236896800Y-131168020D01*
X236919660Y-131109600D01*
X236934900Y-131068960D01*
X236942520Y-131051180D01*
X236939980Y-131048640D01*
X236922200Y-131030860D01*
X236889180Y-131005460D01*
X236818060Y-130947040D01*
X236746940Y-130860680D01*
X236703760Y-130761620D01*
X236691060Y-130649860D01*
X236701220Y-130548260D01*
X236741860Y-130451740D01*
X236810440Y-130362840D01*
X236894260Y-130296800D01*
X236990780Y-130256160D01*
X237100000Y-130243460D01*
X237204140Y-130253620D01*
X237303200Y-130294260D01*
X237392100Y-130360300D01*
X237430200Y-130403480D01*
X237481000Y-130494920D01*
X237511480Y-130588900D01*
X237514020Y-130611760D01*
X237508940Y-130718440D01*
X237478460Y-130820040D01*
X237422580Y-130908940D01*
X237346380Y-130982600D01*
X237336220Y-130990220D01*
X237300660Y-131018160D01*
X237275260Y-131035940D01*
X237257480Y-131051180D01*
X237392100Y-131373760D01*
X237412420Y-131424560D01*
X237450520Y-131513460D01*
X237481000Y-131589660D01*
X237508940Y-131650620D01*
X237526720Y-131691260D01*
X237534340Y-131706500D01*
X237534340Y-131706500D01*
X237547040Y-131709040D01*
X237569900Y-131701420D01*
X237615620Y-131678560D01*
X237646100Y-131663320D01*
X237679120Y-131648080D01*
X237694360Y-131640460D01*
X237709600Y-131648080D01*
X237742620Y-131668400D01*
X237788340Y-131701420D01*
X237846760Y-131739520D01*
X237902640Y-131777620D01*
X237953440Y-131810640D01*
X237989000Y-131836040D01*
X238006780Y-131843660D01*
X238009320Y-131843660D01*
X238027100Y-131836040D01*
X238055040Y-131810640D01*
X238098220Y-131770000D01*
X238161720Y-131709040D01*
X238171880Y-131698880D01*
X238222680Y-131648080D01*
X238263320Y-131602360D01*
X238291260Y-131571880D01*
X238301420Y-131559180D01*
X238301420Y-131559180D01*
X238291260Y-131541400D01*
X238268400Y-131503300D01*
X238235380Y-131452500D01*
X238194740Y-131391540D01*
X238088060Y-131236600D01*
X238146480Y-131091820D01*
X238164260Y-131046100D01*
X238187120Y-130990220D01*
X238204900Y-130952120D01*
X238212520Y-130934340D01*
X238230300Y-130929260D01*
X238268400Y-130919100D01*
X238326820Y-130908940D01*
X238397940Y-130896240D01*
X238463980Y-130883540D01*
X238522400Y-130870840D01*
X238565580Y-130863220D01*
X238585900Y-130860680D01*
X238590980Y-130855600D01*
X238593520Y-130847980D01*
X238596060Y-130827660D01*
X238598600Y-130789560D01*
X238598600Y-130733680D01*
X238598600Y-130649860D01*
X238598600Y-130642240D01*
X238598600Y-130563500D01*
X238596060Y-130500000D01*
X238593520Y-130461900D01*
X238590980Y-130444120D01*
X238590980Y-130444120D01*
X238573200Y-130439040D01*
X238530020Y-130431420D01*
X238471600Y-130418720D01*
X238400480Y-130406020D01*
X238395400Y-130406020D01*
X238324280Y-130390780D01*
X238265860Y-130378080D01*
X238222680Y-130370460D01*
X238204900Y-130362840D01*
X238202360Y-130357760D01*
X238187120Y-130329820D01*
X238166800Y-130286640D01*
X238143940Y-130233300D01*
X238121080Y-130177420D01*
X238100760Y-130126620D01*
X238088060Y-130091060D01*
X238082980Y-130073280D01*
X238082980Y-130073280D01*
X238093140Y-130055500D01*
X238118540Y-130019940D01*
X238154100Y-129969140D01*
X238194740Y-129908180D01*
X238197280Y-129903100D01*
X238237920Y-129842140D01*
X238270940Y-129791340D01*
X238293800Y-129755780D01*
X238301420Y-129740540D01*
X238301420Y-129738000D01*
X238288720Y-129720220D01*
X238258240Y-129687200D01*
X238212520Y-129641480D01*
X238161720Y-129588140D01*
X238143940Y-129572900D01*
X238085520Y-129514480D01*
X238044880Y-129478920D01*
X238019480Y-129458600D01*
X238009320Y-129453520D01*
X238006780Y-129453520D01*
X237989000Y-129463680D01*
X237950900Y-129489080D01*
X237900100Y-129524640D01*
X237839140Y-129565280D01*
X237836600Y-129567820D01*
X237775640Y-129608460D01*
X237724840Y-129644020D01*
X237689280Y-129666880D01*
X237674040Y-129674500D01*
X237671500Y-129674500D01*
X237648640Y-129669420D01*
X237605460Y-129654180D01*
X237552120Y-129633860D01*
X237496240Y-129611000D01*
X237445440Y-129590680D01*
X237409880Y-129572900D01*
X237392100Y-129562740D01*
X237389560Y-129562740D01*
X237384480Y-129539880D01*
X237374320Y-129494160D01*
X237361620Y-129433200D01*
X237346380Y-129359540D01*
X237343840Y-129349380D01*
X237331140Y-129275720D01*
X237320980Y-129217300D01*
X237310820Y-129176660D01*
X237308280Y-129158880D01*
X237298120Y-129158880D01*
X237262560Y-129156340D01*
X237209220Y-129153800D01*
X237143180Y-129153800D01*
X237077140Y-129153800D01*
X237011100Y-129153800D01*
X236955220Y-129156340D01*
X236914580Y-129158880D01*
X236896800Y-129163960D01*
X236896800Y-129163960D01*
X236891720Y-129186820D01*
X236881560Y-129230000D01*
X236868860Y-129293500D01*
X236853620Y-129367160D01*
X236851080Y-129379860D01*
X236838380Y-129450980D01*
X236825680Y-129509400D01*
X236818060Y-129550040D01*
X236812980Y-129565280D01*
X236807900Y-129567820D01*
X236777420Y-129583060D01*
X236729160Y-129600840D01*
X236670740Y-129626240D01*
X236533580Y-129682120D01*
X236365940Y-129565280D01*
X236350700Y-129555120D01*
X236289740Y-129514480D01*
X236238940Y-129481460D01*
X236203380Y-129458600D01*
X236190680Y-129450980D01*
X236188140Y-129450980D01*
X236172900Y-129466220D01*
X236139880Y-129496700D01*
X236094160Y-129542420D01*
X236040820Y-129593220D01*
X236000180Y-129633860D01*
X235954460Y-129679580D01*
X235926520Y-129712600D01*
X235908740Y-129732920D01*
X235903660Y-129745620D01*
X235906200Y-129753240D01*
X235916360Y-129771020D01*
X235941760Y-129806580D01*
X235974780Y-129859920D01*
X236015420Y-129918340D01*
X236050980Y-129969140D01*
X236086540Y-130025020D01*
X236109400Y-130065660D01*
X236119560Y-130083440D01*
X236117020Y-130093600D01*
X236104320Y-130126620D01*
X236084000Y-130174880D01*
X236058600Y-130235840D01*
X236000180Y-130367920D01*
X235913820Y-130385700D01*
X235860480Y-130395860D01*
X235786820Y-130408560D01*
X235715700Y-130423800D01*
X235603940Y-130444120D01*
X235601400Y-130847980D01*
X235619180Y-130855600D01*
X235634420Y-130860680D01*
X235675060Y-130870840D01*
X235733480Y-130881000D01*
X235802060Y-130893700D01*
X235863020Y-130906400D01*
X235921440Y-130916560D01*
X235964620Y-130924180D01*
X235982400Y-130929260D01*
X235987480Y-130934340D01*
X236002720Y-130964820D01*
X236023040Y-131010540D01*
X236045900Y-131063880D01*
X236071300Y-131122300D01*
X236091620Y-131173100D01*
X236106860Y-131213740D01*
X236111940Y-131234060D01*
X236104320Y-131249300D01*
X236081460Y-131284860D01*
X236048440Y-131335660D01*
X236007800Y-131394080D01*
X235967160Y-131452500D01*
X235934140Y-131503300D01*
X235908740Y-131538860D01*
X235901120Y-131556640D01*
X235906200Y-131566800D01*
X235929060Y-131594740D01*
X235972240Y-131640460D01*
X236038280Y-131706500D01*
X236050980Y-131716660D01*
X236101780Y-131767460D01*
X236147500Y-131808100D01*
X236177980Y-131836040D01*
X236190680Y-131846200D01*
D13*
X251452381Y-129738095D02*
X250452381Y-129738095D01*
X250452381Y-129357142D01*
X250500000Y-129261904D01*
X250547619Y-129214285D01*
X250642857Y-129166666D01*
X250785714Y-129166666D01*
X250880952Y-129214285D01*
X250928571Y-129261904D01*
X250976190Y-129357142D01*
X250976190Y-129738095D01*
X251452381Y-128214285D02*
X251452381Y-128785714D01*
X251452381Y-128500000D02*
X250452381Y-128500000D01*
X250595238Y-128595238D01*
X250690476Y-128690476D01*
X250738095Y-128785714D01*
X239052381Y-141238095D02*
X238052381Y-141238095D01*
X238052381Y-140857142D01*
X238100000Y-140761904D01*
X238147619Y-140714285D01*
X238242857Y-140666666D01*
X238385714Y-140666666D01*
X238480952Y-140714285D01*
X238528571Y-140761904D01*
X238576190Y-140857142D01*
X238576190Y-141238095D01*
X238147619Y-140285714D02*
X238100000Y-140238095D01*
X238052381Y-140142857D01*
X238052381Y-139904761D01*
X238100000Y-139809523D01*
X238147619Y-139761904D01*
X238242857Y-139714285D01*
X238338095Y-139714285D01*
X238480952Y-139761904D01*
X239052381Y-140333333D01*
X239052381Y-139714285D01*
X251452381Y-141238095D02*
X250452381Y-141238095D01*
X250452381Y-140857142D01*
X250500000Y-140761904D01*
X250547619Y-140714285D01*
X250642857Y-140666666D01*
X250785714Y-140666666D01*
X250880952Y-140714285D01*
X250928571Y-140761904D01*
X250976190Y-140857142D01*
X250976190Y-141238095D01*
X250452381Y-140333333D02*
X250452381Y-139714285D01*
X250833333Y-140047619D01*
X250833333Y-139904761D01*
X250880952Y-139809523D01*
X250928571Y-139761904D01*
X251023810Y-139714285D01*
X251261905Y-139714285D01*
X251357143Y-139761904D01*
X251404762Y-139809523D01*
X251452381Y-139904761D01*
X251452381Y-140190476D01*
X251404762Y-140285714D01*
X251357143Y-140333333D01*
X251452381Y-152838095D02*
X250452381Y-152838095D01*
X250452381Y-152457142D01*
X250500000Y-152361904D01*
X250547619Y-152314285D01*
X250642857Y-152266666D01*
X250785714Y-152266666D01*
X250880952Y-152314285D01*
X250928571Y-152361904D01*
X250976190Y-152457142D01*
X250976190Y-152838095D01*
X250785714Y-151409523D02*
X251452381Y-151409523D01*
X250404762Y-151647619D02*
X251119048Y-151885714D01*
X251119048Y-151266666D01*
M02*
