G04 #@! TF.FileFunction,Soldermask,Top*
%FSLAX46Y46*%
G04 Gerber Fmt 4.6, Leading zero omitted, Abs format (unit mm)*
G04 Created by KiCad (PCBNEW 4.0.4-stable) date 11/21/16 16:02:37*
%MOMM*%
%LPD*%
G01*
G04 APERTURE LIST*
%ADD10C,0.100000*%
%ADD11R,1.727200X1.727200*%
%ADD12O,1.727200X1.727200*%
%ADD13R,2.032000X2.032000*%
%ADD14O,2.032000X2.032000*%
%ADD15R,1.727200X2.032000*%
%ADD16O,1.727200X2.032000*%
%ADD17O,1.600000X2.300000*%
%ADD18R,2.235200X2.235200*%
%ADD19O,0.899160X1.501140*%
%ADD20C,1.998980*%
%ADD21C,5.500000*%
%ADD22R,1.300000X1.300000*%
%ADD23C,1.300000*%
%ADD24R,2.032000X1.727200*%
%ADD25O,2.032000X1.727200*%
%ADD26O,2.300000X1.600000*%
G04 APERTURE END LIST*
D10*
D11*
X179600000Y-101600000D03*
D12*
X179600000Y-99060000D03*
X182140000Y-101600000D03*
X182140000Y-99060000D03*
X184680000Y-101600000D03*
X184680000Y-99060000D03*
X187220000Y-101600000D03*
X187220000Y-99060000D03*
X189760000Y-101600000D03*
X189760000Y-99060000D03*
X192300000Y-101600000D03*
X192300000Y-99060000D03*
X194840000Y-101600000D03*
X194840000Y-99060000D03*
X197380000Y-101600000D03*
X197380000Y-99060000D03*
X199920000Y-101600000D03*
X199920000Y-99060000D03*
X202460000Y-101600000D03*
X202460000Y-99060000D03*
X205000000Y-101600000D03*
X205000000Y-99060000D03*
X207540000Y-101600000D03*
X207540000Y-99060000D03*
X210080000Y-101600000D03*
X210080000Y-99060000D03*
X212620000Y-101600000D03*
X212620000Y-99060000D03*
X215160000Y-101600000D03*
X215160000Y-99060000D03*
X217700000Y-101600000D03*
X217700000Y-99060000D03*
X220240000Y-101600000D03*
X220240000Y-99060000D03*
X222780000Y-101600000D03*
X222780000Y-99060000D03*
X225320000Y-101600000D03*
X225320000Y-99060000D03*
X227860000Y-101600000D03*
X227860000Y-99060000D03*
X230400000Y-101600000D03*
X230400000Y-99060000D03*
X232940000Y-101600000D03*
X232940000Y-99060000D03*
X235480000Y-101600000D03*
X235480000Y-99060000D03*
X238020000Y-101600000D03*
X238020000Y-99060000D03*
X240560000Y-101600000D03*
X240560000Y-99060000D03*
X243100000Y-101600000D03*
X243100000Y-99060000D03*
X245640000Y-101600000D03*
X245640000Y-99060000D03*
X248180000Y-101600000D03*
X248180000Y-99060000D03*
X250720000Y-101600000D03*
X250720000Y-99060000D03*
X253260000Y-101600000D03*
X253260000Y-99060000D03*
X255800000Y-101600000D03*
X255800000Y-99060000D03*
X258340000Y-101600000D03*
X258340000Y-99060000D03*
D13*
X189870000Y-140670000D03*
D14*
X187330000Y-140670000D03*
D15*
X242725000Y-140675000D03*
D16*
X240185000Y-140675000D03*
X237645000Y-140675000D03*
X235105000Y-140675000D03*
X232565000Y-140675000D03*
X230025000Y-140675000D03*
D17*
X210700000Y-134900000D03*
X213240000Y-134900000D03*
X215780000Y-134900000D03*
X218320000Y-134900000D03*
X220860000Y-134900000D03*
X223400000Y-134900000D03*
X225940000Y-134900000D03*
X228480000Y-134900000D03*
X231020000Y-134900000D03*
X233560000Y-134900000D03*
X236100000Y-134900000D03*
X238640000Y-134900000D03*
X241180000Y-134900000D03*
X243720000Y-134900000D03*
X243720000Y-119660000D03*
X241180000Y-119660000D03*
X238640000Y-119660000D03*
X236100000Y-119660000D03*
X233560000Y-119660000D03*
X231020000Y-119660000D03*
X228480000Y-119660000D03*
X225940000Y-119660000D03*
X223400000Y-119660000D03*
X220860000Y-119660000D03*
X218320000Y-119660000D03*
X215780000Y-119660000D03*
X213240000Y-119660000D03*
X210700000Y-119660000D03*
D11*
X214400000Y-138200000D03*
D12*
X214400000Y-140740000D03*
X211860000Y-138200000D03*
X211860000Y-140740000D03*
X209320000Y-138200000D03*
X209320000Y-140740000D03*
D18*
X198875000Y-135475000D03*
D11*
X224800000Y-138200000D03*
D12*
X224800000Y-140740000D03*
X222260000Y-138200000D03*
X222260000Y-140740000D03*
X219720000Y-138200000D03*
X219720000Y-140740000D03*
D15*
X257775000Y-140675000D03*
D16*
X255235000Y-140675000D03*
X252695000Y-140675000D03*
X250155000Y-140675000D03*
X247615000Y-140675000D03*
D19*
X194305000Y-140525000D03*
X193035000Y-140525000D03*
X195575000Y-140525000D03*
X199905000Y-140525000D03*
X198635000Y-140525000D03*
X201175000Y-140525000D03*
X193930000Y-135700000D03*
X192660000Y-135700000D03*
X195200000Y-135700000D03*
D20*
X194420000Y-125770000D03*
X186800000Y-125770000D03*
X206020000Y-125770000D03*
X198400000Y-125770000D03*
X194420000Y-122770000D03*
X186800000Y-122770000D03*
X206020000Y-122770000D03*
X198400000Y-122770000D03*
X194420000Y-119770000D03*
X186800000Y-119770000D03*
X206020000Y-119770000D03*
X198400000Y-119770000D03*
D21*
X180375000Y-121725000D03*
X255380000Y-135220000D03*
D19*
X188330000Y-135700000D03*
X187060000Y-135700000D03*
X189600000Y-135700000D03*
D20*
X206020000Y-128770000D03*
X198400000Y-128770000D03*
X194420000Y-131770000D03*
X186800000Y-131770000D03*
X186820000Y-128770000D03*
X194440000Y-128770000D03*
X206020000Y-131770000D03*
X198400000Y-131770000D03*
D22*
X185100000Y-111400000D03*
D23*
X185100000Y-113900000D03*
D22*
X207025000Y-113225000D03*
D23*
X209525000Y-113225000D03*
D22*
X229625000Y-113275000D03*
D23*
X232125000Y-113275000D03*
D22*
X250700000Y-114675000D03*
D23*
X250700000Y-112175000D03*
D22*
X210700000Y-125925000D03*
D23*
X210700000Y-128425000D03*
D15*
X229250000Y-105080000D03*
D16*
X226710000Y-105080000D03*
X224170000Y-105080000D03*
X221630000Y-105080000D03*
X219090000Y-105080000D03*
X216550000Y-105080000D03*
X214010000Y-105080000D03*
X211470000Y-105080000D03*
X208930000Y-105080000D03*
X206390000Y-105080000D03*
D15*
X202500000Y-105100000D03*
D16*
X199960000Y-105100000D03*
X197420000Y-105100000D03*
X194880000Y-105100000D03*
X192340000Y-105100000D03*
X189800000Y-105100000D03*
X187260000Y-105100000D03*
X184720000Y-105100000D03*
X182180000Y-105100000D03*
X179640000Y-105100000D03*
D24*
X258400000Y-128000000D03*
D25*
X258400000Y-125460000D03*
X258400000Y-122920000D03*
X258400000Y-120380000D03*
X258400000Y-117840000D03*
X258400000Y-115300000D03*
X258400000Y-112760000D03*
X258400000Y-110220000D03*
X258400000Y-107680000D03*
X258400000Y-105140000D03*
D15*
X245700000Y-105080000D03*
D16*
X243160000Y-105080000D03*
X240620000Y-105080000D03*
X238080000Y-105080000D03*
X235540000Y-105080000D03*
X233000000Y-105080000D03*
D17*
X203100000Y-116300000D03*
X205640000Y-116300000D03*
X208180000Y-116300000D03*
X210720000Y-116300000D03*
X213260000Y-116300000D03*
X215800000Y-116300000D03*
X218340000Y-116300000D03*
X220880000Y-116300000D03*
X220880000Y-108680000D03*
X218340000Y-108680000D03*
X215800000Y-108680000D03*
X213260000Y-108680000D03*
X210720000Y-108680000D03*
X208180000Y-108680000D03*
X205640000Y-108680000D03*
X203100000Y-108680000D03*
X180300000Y-116300000D03*
X182840000Y-116300000D03*
X185380000Y-116300000D03*
X187920000Y-116300000D03*
X190460000Y-116300000D03*
X193000000Y-116300000D03*
X195540000Y-116300000D03*
X198080000Y-116300000D03*
X198080000Y-108680000D03*
X195540000Y-108680000D03*
X193000000Y-108680000D03*
X190460000Y-108680000D03*
X187920000Y-108680000D03*
X185380000Y-108680000D03*
X182840000Y-108680000D03*
X180300000Y-108680000D03*
X225800000Y-116300000D03*
X228340000Y-116300000D03*
X230880000Y-116300000D03*
X233420000Y-116300000D03*
X235960000Y-116300000D03*
X238500000Y-116300000D03*
X241040000Y-116300000D03*
X243580000Y-116300000D03*
X243580000Y-108680000D03*
X241040000Y-108680000D03*
X238500000Y-108680000D03*
X235960000Y-108680000D03*
X233420000Y-108680000D03*
X230880000Y-108680000D03*
X228340000Y-108680000D03*
X225800000Y-108680000D03*
D26*
X247600000Y-109800000D03*
X247600000Y-112340000D03*
X247600000Y-114880000D03*
X247600000Y-117420000D03*
X247600000Y-119960000D03*
X247600000Y-122500000D03*
X247600000Y-125040000D03*
X247600000Y-127580000D03*
X255220000Y-127580000D03*
X255220000Y-125040000D03*
X255220000Y-122500000D03*
X255220000Y-119960000D03*
X255220000Y-117420000D03*
X255220000Y-114880000D03*
X255220000Y-112340000D03*
X255220000Y-109800000D03*
D22*
X248825000Y-131625000D03*
D23*
X248825000Y-133625000D03*
D22*
X205125000Y-136275000D03*
D23*
X203125000Y-136275000D03*
M02*
