G04 #@! TF.FileFunction,Legend,Bot*
%FSLAX46Y46*%
G04 Gerber Fmt 4.6, Leading zero omitted, Abs format (unit mm)*
G04 Created by KiCad (PCBNEW 4.0.4-stable) date 11/21/16 16:02:37*
%MOMM*%
%LPD*%
G01*
G04 APERTURE LIST*
%ADD10C,0.100000*%
%ADD11C,0.250000*%
%ADD12C,0.150000*%
%ADD13C,0.300000*%
G04 APERTURE END LIST*
D10*
D11*
X245389286Y-129200000D02*
X245446428Y-129142857D01*
X245560714Y-128971429D01*
X245617857Y-128857143D01*
X245675000Y-128685714D01*
X245732143Y-128400000D01*
X245732143Y-128171429D01*
X245675000Y-127885714D01*
X245617857Y-127714286D01*
X245560714Y-127600000D01*
X245446428Y-127428571D01*
X245389286Y-127371429D01*
X244417857Y-128685714D02*
X244532143Y-128742857D01*
X244760714Y-128742857D01*
X244875000Y-128685714D01*
X244932143Y-128628571D01*
X244989286Y-128514286D01*
X244989286Y-128171429D01*
X244932143Y-128057143D01*
X244875000Y-128000000D01*
X244760714Y-127942857D01*
X244532143Y-127942857D01*
X244417857Y-128000000D01*
X244017857Y-129200000D02*
X243960715Y-129142857D01*
X243846429Y-128971429D01*
X243789286Y-128857143D01*
X243732143Y-128685714D01*
X243675000Y-128400000D01*
X243675000Y-128171429D01*
X243732143Y-127885714D01*
X243789286Y-127714286D01*
X243846429Y-127600000D01*
X243960715Y-127428571D01*
X244017857Y-127371429D01*
X242246429Y-127657143D02*
X242189286Y-127600000D01*
X242075000Y-127542857D01*
X241789286Y-127542857D01*
X241675000Y-127600000D01*
X241617857Y-127657143D01*
X241560714Y-127771429D01*
X241560714Y-127885714D01*
X241617857Y-128057143D01*
X242303571Y-128742857D01*
X241560714Y-128742857D01*
X240817857Y-127542857D02*
X240703572Y-127542857D01*
X240589286Y-127600000D01*
X240532143Y-127657143D01*
X240475000Y-127771429D01*
X240417857Y-128000000D01*
X240417857Y-128285714D01*
X240475000Y-128514286D01*
X240532143Y-128628571D01*
X240589286Y-128685714D01*
X240703572Y-128742857D01*
X240817857Y-128742857D01*
X240932143Y-128685714D01*
X240989286Y-128628571D01*
X241046429Y-128514286D01*
X241103572Y-128285714D01*
X241103572Y-128000000D01*
X241046429Y-127771429D01*
X240989286Y-127657143D01*
X240932143Y-127600000D01*
X240817857Y-127542857D01*
X239275000Y-128742857D02*
X239960715Y-128742857D01*
X239617857Y-128742857D02*
X239617857Y-127542857D01*
X239732143Y-127714286D01*
X239846429Y-127828571D01*
X239960715Y-127885714D01*
X238246429Y-127542857D02*
X238475000Y-127542857D01*
X238589286Y-127600000D01*
X238646429Y-127657143D01*
X238760715Y-127828571D01*
X238817858Y-128057143D01*
X238817858Y-128514286D01*
X238760715Y-128628571D01*
X238703572Y-128685714D01*
X238589286Y-128742857D01*
X238360715Y-128742857D01*
X238246429Y-128685714D01*
X238189286Y-128628571D01*
X238132143Y-128514286D01*
X238132143Y-128228571D01*
X238189286Y-128114286D01*
X238246429Y-128057143D01*
X238360715Y-128000000D01*
X238589286Y-128000000D01*
X238703572Y-128057143D01*
X238760715Y-128114286D01*
X238817858Y-128228571D01*
X236703572Y-128742857D02*
X236703572Y-127542857D01*
X236303572Y-128400000D01*
X235903572Y-127542857D01*
X235903572Y-128742857D01*
X235332143Y-128742857D02*
X235332143Y-127942857D01*
X235332143Y-127542857D02*
X235389286Y-127600000D01*
X235332143Y-127657143D01*
X235275000Y-127600000D01*
X235332143Y-127542857D01*
X235332143Y-127657143D01*
X234760714Y-128742857D02*
X234760714Y-127942857D01*
X234760714Y-128171429D02*
X234703571Y-128057143D01*
X234646428Y-128000000D01*
X234532142Y-127942857D01*
X234417857Y-127942857D01*
X234017857Y-128742857D02*
X234017857Y-127542857D01*
X233903571Y-128285714D02*
X233560714Y-128742857D01*
X233560714Y-127942857D02*
X234017857Y-128400000D01*
X232874999Y-128742857D02*
X232989285Y-128685714D01*
X233046428Y-128628571D01*
X233103571Y-128514286D01*
X233103571Y-128171429D01*
X233046428Y-128057143D01*
X232989285Y-128000000D01*
X232874999Y-127942857D01*
X232703571Y-127942857D01*
X232589285Y-128000000D01*
X232532142Y-128057143D01*
X232474999Y-128171429D01*
X232474999Y-128514286D01*
X232532142Y-128628571D01*
X232589285Y-128685714D01*
X232703571Y-128742857D01*
X232874999Y-128742857D01*
X231046428Y-128742857D02*
X231046428Y-127542857D01*
X230360713Y-128742857D02*
X230874999Y-128057143D01*
X230360713Y-127542857D02*
X231046428Y-128228571D01*
X229332142Y-128742857D02*
X229332142Y-128114286D01*
X229389285Y-128000000D01*
X229503571Y-127942857D01*
X229732142Y-127942857D01*
X229846428Y-128000000D01*
X229332142Y-128685714D02*
X229446428Y-128742857D01*
X229732142Y-128742857D01*
X229846428Y-128685714D01*
X229903571Y-128571429D01*
X229903571Y-128457143D01*
X229846428Y-128342857D01*
X229732142Y-128285714D01*
X229446428Y-128285714D01*
X229332142Y-128228571D01*
X228760714Y-128742857D02*
X228760714Y-127942857D01*
X228760714Y-127542857D02*
X228817857Y-127600000D01*
X228760714Y-127657143D01*
X228703571Y-127600000D01*
X228760714Y-127542857D01*
X228760714Y-127657143D01*
X228246428Y-128685714D02*
X228132142Y-128742857D01*
X227903570Y-128742857D01*
X227789285Y-128685714D01*
X227732142Y-128571429D01*
X227732142Y-128514286D01*
X227789285Y-128400000D01*
X227903570Y-128342857D01*
X228074999Y-128342857D01*
X228189285Y-128285714D01*
X228246428Y-128171429D01*
X228246428Y-128114286D01*
X228189285Y-128000000D01*
X228074999Y-127942857D01*
X227903570Y-127942857D01*
X227789285Y-128000000D01*
X226760713Y-128685714D02*
X226874999Y-128742857D01*
X227103570Y-128742857D01*
X227217856Y-128685714D01*
X227274999Y-128571429D01*
X227274999Y-128114286D01*
X227217856Y-128000000D01*
X227103570Y-127942857D01*
X226874999Y-127942857D01*
X226760713Y-128000000D01*
X226703570Y-128114286D01*
X226703570Y-128228571D01*
X227274999Y-128342857D01*
X226189285Y-128742857D02*
X226189285Y-127942857D01*
X226189285Y-128171429D02*
X226132142Y-128057143D01*
X226074999Y-128000000D01*
X225960713Y-127942857D01*
X225846428Y-127942857D01*
X253440476Y-128202381D02*
X253250000Y-128202381D01*
X253154761Y-128154762D01*
X253107142Y-128107143D01*
X253011904Y-127964286D01*
X252964285Y-127773810D01*
X252964285Y-127392857D01*
X253011904Y-127297619D01*
X253059523Y-127250000D01*
X253154761Y-127202381D01*
X253345238Y-127202381D01*
X253440476Y-127250000D01*
X253488095Y-127297619D01*
X253535714Y-127392857D01*
X253535714Y-127630952D01*
X253488095Y-127726190D01*
X253440476Y-127773810D01*
X253345238Y-127821429D01*
X253154761Y-127821429D01*
X253059523Y-127773810D01*
X253011904Y-127726190D01*
X252964285Y-127630952D01*
X249214285Y-110202381D02*
X249785714Y-110202381D01*
X249500000Y-110202381D02*
X249500000Y-109202381D01*
X249595238Y-109345238D01*
X249690476Y-109440476D01*
X249785714Y-109488095D01*
X243952381Y-110690476D02*
X243952381Y-110500000D01*
X243904762Y-110404761D01*
X243857143Y-110357142D01*
X243714286Y-110261904D01*
X243523810Y-110214285D01*
X243142857Y-110214285D01*
X243047619Y-110261904D01*
X243000000Y-110309523D01*
X242952381Y-110404761D01*
X242952381Y-110595238D01*
X243000000Y-110690476D01*
X243047619Y-110738095D01*
X243142857Y-110785714D01*
X243380952Y-110785714D01*
X243476190Y-110738095D01*
X243523810Y-110690476D01*
X243571429Y-110595238D01*
X243571429Y-110404761D01*
X243523810Y-110309523D01*
X243476190Y-110261904D01*
X243380952Y-110214285D01*
X226202381Y-114785715D02*
X226202381Y-114214286D01*
X226202381Y-114500000D02*
X225202381Y-114500000D01*
X225345238Y-114404762D01*
X225440476Y-114309524D01*
X225488095Y-114214286D01*
X221452381Y-110309524D02*
X221452381Y-110500000D01*
X221404762Y-110595239D01*
X221357143Y-110642858D01*
X221214286Y-110738096D01*
X221023810Y-110785715D01*
X220642857Y-110785715D01*
X220547619Y-110738096D01*
X220500000Y-110690477D01*
X220452381Y-110595239D01*
X220452381Y-110404762D01*
X220500000Y-110309524D01*
X220547619Y-110261905D01*
X220642857Y-110214286D01*
X220880952Y-110214286D01*
X220976190Y-110261905D01*
X221023810Y-110309524D01*
X221071429Y-110404762D01*
X221071429Y-110595239D01*
X221023810Y-110690477D01*
X220976190Y-110738096D01*
X220880952Y-110785715D01*
X203452381Y-114785715D02*
X203452381Y-114214286D01*
X203452381Y-114500000D02*
X202452381Y-114500000D01*
X202595238Y-114404762D01*
X202690476Y-114309524D01*
X202738095Y-114214286D01*
X198702381Y-110559524D02*
X198702381Y-110750000D01*
X198654762Y-110845239D01*
X198607143Y-110892858D01*
X198464286Y-110988096D01*
X198273810Y-111035715D01*
X197892857Y-111035715D01*
X197797619Y-110988096D01*
X197750000Y-110940477D01*
X197702381Y-110845239D01*
X197702381Y-110654762D01*
X197750000Y-110559524D01*
X197797619Y-110511905D01*
X197892857Y-110464286D01*
X198130952Y-110464286D01*
X198226190Y-110511905D01*
X198273810Y-110559524D01*
X198321429Y-110654762D01*
X198321429Y-110845239D01*
X198273810Y-110940477D01*
X198226190Y-110988096D01*
X198130952Y-111035715D01*
X180702381Y-114785715D02*
X180702381Y-114214286D01*
X180702381Y-114500000D02*
X179702381Y-114500000D01*
X179845238Y-114404762D01*
X179940476Y-114309524D01*
X179988095Y-114214286D01*
D12*
X177347381Y-118396186D02*
X176347381Y-118396186D01*
X177061667Y-118729520D01*
X176347381Y-119062853D01*
X177347381Y-119062853D01*
X177347381Y-119681900D02*
X177299762Y-119586662D01*
X177252143Y-119539043D01*
X177156905Y-119491424D01*
X176871190Y-119491424D01*
X176775952Y-119539043D01*
X176728333Y-119586662D01*
X176680714Y-119681900D01*
X176680714Y-119824758D01*
X176728333Y-119919996D01*
X176775952Y-119967615D01*
X176871190Y-120015234D01*
X177156905Y-120015234D01*
X177252143Y-119967615D01*
X177299762Y-119919996D01*
X177347381Y-119824758D01*
X177347381Y-119681900D01*
X177347381Y-120872377D02*
X176347381Y-120872377D01*
X177299762Y-120872377D02*
X177347381Y-120777139D01*
X177347381Y-120586662D01*
X177299762Y-120491424D01*
X177252143Y-120443805D01*
X177156905Y-120396186D01*
X176871190Y-120396186D01*
X176775952Y-120443805D01*
X176728333Y-120491424D01*
X176680714Y-120586662D01*
X176680714Y-120777139D01*
X176728333Y-120872377D01*
X176680714Y-121777139D02*
X177347381Y-121777139D01*
X176680714Y-121348567D02*
X177204524Y-121348567D01*
X177299762Y-121396186D01*
X177347381Y-121491424D01*
X177347381Y-121634282D01*
X177299762Y-121729520D01*
X177252143Y-121777139D01*
X177347381Y-122396186D02*
X177299762Y-122300948D01*
X177204524Y-122253329D01*
X176347381Y-122253329D01*
X177347381Y-123205711D02*
X176823571Y-123205711D01*
X176728333Y-123158092D01*
X176680714Y-123062854D01*
X176680714Y-122872377D01*
X176728333Y-122777139D01*
X177299762Y-123205711D02*
X177347381Y-123110473D01*
X177347381Y-122872377D01*
X177299762Y-122777139D01*
X177204524Y-122729520D01*
X177109286Y-122729520D01*
X177014048Y-122777139D01*
X176966429Y-122872377D01*
X176966429Y-123110473D01*
X176918810Y-123205711D01*
X177347381Y-123681901D02*
X176680714Y-123681901D01*
X176871190Y-123681901D02*
X176775952Y-123729520D01*
X176728333Y-123777139D01*
X176680714Y-123872377D01*
X176680714Y-123967616D01*
X176347381Y-125253330D02*
X176347381Y-125443807D01*
X176395000Y-125539045D01*
X176490238Y-125634283D01*
X176680714Y-125681902D01*
X177014048Y-125681902D01*
X177204524Y-125634283D01*
X177299762Y-125539045D01*
X177347381Y-125443807D01*
X177347381Y-125253330D01*
X177299762Y-125158092D01*
X177204524Y-125062854D01*
X177014048Y-125015235D01*
X176680714Y-125015235D01*
X176490238Y-125062854D01*
X176395000Y-125158092D01*
X176347381Y-125253330D01*
X176680714Y-126110473D02*
X177680714Y-126110473D01*
X176728333Y-126110473D02*
X176680714Y-126205711D01*
X176680714Y-126396188D01*
X176728333Y-126491426D01*
X176775952Y-126539045D01*
X176871190Y-126586664D01*
X177156905Y-126586664D01*
X177252143Y-126539045D01*
X177299762Y-126491426D01*
X177347381Y-126396188D01*
X177347381Y-126205711D01*
X177299762Y-126110473D01*
X177299762Y-127396188D02*
X177347381Y-127300950D01*
X177347381Y-127110473D01*
X177299762Y-127015235D01*
X177204524Y-126967616D01*
X176823571Y-126967616D01*
X176728333Y-127015235D01*
X176680714Y-127110473D01*
X176680714Y-127300950D01*
X176728333Y-127396188D01*
X176823571Y-127443807D01*
X176918810Y-127443807D01*
X177014048Y-126967616D01*
X176680714Y-127872378D02*
X177347381Y-127872378D01*
X176775952Y-127872378D02*
X176728333Y-127919997D01*
X176680714Y-128015235D01*
X176680714Y-128158093D01*
X176728333Y-128253331D01*
X176823571Y-128300950D01*
X177347381Y-128300950D01*
X176823571Y-129872379D02*
X176871190Y-130015236D01*
X176918810Y-130062855D01*
X177014048Y-130110474D01*
X177156905Y-130110474D01*
X177252143Y-130062855D01*
X177299762Y-130015236D01*
X177347381Y-129919998D01*
X177347381Y-129539045D01*
X176347381Y-129539045D01*
X176347381Y-129872379D01*
X176395000Y-129967617D01*
X176442619Y-130015236D01*
X176537857Y-130062855D01*
X176633095Y-130062855D01*
X176728333Y-130015236D01*
X176775952Y-129967617D01*
X176823571Y-129872379D01*
X176823571Y-129539045D01*
X176680714Y-130967617D02*
X177347381Y-130967617D01*
X176680714Y-130539045D02*
X177204524Y-130539045D01*
X177299762Y-130586664D01*
X177347381Y-130681902D01*
X177347381Y-130824760D01*
X177299762Y-130919998D01*
X177252143Y-130967617D01*
X176680714Y-131300950D02*
X176680714Y-131681902D01*
X176347381Y-131443807D02*
X177204524Y-131443807D01*
X177299762Y-131491426D01*
X177347381Y-131586664D01*
X177347381Y-131681902D01*
X176680714Y-131872379D02*
X176680714Y-132253331D01*
X176347381Y-132015236D02*
X177204524Y-132015236D01*
X177299762Y-132062855D01*
X177347381Y-132158093D01*
X177347381Y-132253331D01*
X177347381Y-132729522D02*
X177299762Y-132634284D01*
X177252143Y-132586665D01*
X177156905Y-132539046D01*
X176871190Y-132539046D01*
X176775952Y-132586665D01*
X176728333Y-132634284D01*
X176680714Y-132729522D01*
X176680714Y-132872380D01*
X176728333Y-132967618D01*
X176775952Y-133015237D01*
X176871190Y-133062856D01*
X177156905Y-133062856D01*
X177252143Y-133015237D01*
X177299762Y-132967618D01*
X177347381Y-132872380D01*
X177347381Y-132729522D01*
X176680714Y-133491427D02*
X177347381Y-133491427D01*
X176775952Y-133491427D02*
X176728333Y-133539046D01*
X176680714Y-133634284D01*
X176680714Y-133777142D01*
X176728333Y-133872380D01*
X176823571Y-133919999D01*
X177347381Y-133919999D01*
X176823571Y-135491428D02*
X176871190Y-135634285D01*
X176918810Y-135681904D01*
X177014048Y-135729523D01*
X177156905Y-135729523D01*
X177252143Y-135681904D01*
X177299762Y-135634285D01*
X177347381Y-135539047D01*
X177347381Y-135158094D01*
X176347381Y-135158094D01*
X176347381Y-135491428D01*
X176395000Y-135586666D01*
X176442619Y-135634285D01*
X176537857Y-135681904D01*
X176633095Y-135681904D01*
X176728333Y-135634285D01*
X176775952Y-135586666D01*
X176823571Y-135491428D01*
X176823571Y-135158094D01*
X177347381Y-136300951D02*
X177299762Y-136205713D01*
X177252143Y-136158094D01*
X177156905Y-136110475D01*
X176871190Y-136110475D01*
X176775952Y-136158094D01*
X176728333Y-136205713D01*
X176680714Y-136300951D01*
X176680714Y-136443809D01*
X176728333Y-136539047D01*
X176775952Y-136586666D01*
X176871190Y-136634285D01*
X177156905Y-136634285D01*
X177252143Y-136586666D01*
X177299762Y-136539047D01*
X177347381Y-136443809D01*
X177347381Y-136300951D01*
X177347381Y-136967618D02*
X176680714Y-137491428D01*
X176680714Y-136967618D02*
X177347381Y-137491428D01*
X177728333Y-138920000D02*
X177680714Y-138872380D01*
X177537857Y-138777142D01*
X177442619Y-138729523D01*
X177299762Y-138681904D01*
X177061667Y-138634285D01*
X176871190Y-138634285D01*
X176633095Y-138681904D01*
X176490238Y-138729523D01*
X176395000Y-138777142D01*
X176252143Y-138872380D01*
X176204524Y-138920000D01*
X177347381Y-139300952D02*
X176347381Y-139300952D01*
X177061667Y-139634286D01*
X176347381Y-139967619D01*
X177347381Y-139967619D01*
X176347381Y-140634285D02*
X176347381Y-140824762D01*
X176395000Y-140920000D01*
X176490238Y-141015238D01*
X176680714Y-141062857D01*
X177014048Y-141062857D01*
X177204524Y-141015238D01*
X177299762Y-140920000D01*
X177347381Y-140824762D01*
X177347381Y-140634285D01*
X177299762Y-140539047D01*
X177204524Y-140443809D01*
X177014048Y-140396190D01*
X176680714Y-140396190D01*
X176490238Y-140443809D01*
X176395000Y-140539047D01*
X176347381Y-140634285D01*
X176823571Y-141824762D02*
X176871190Y-141967619D01*
X176918810Y-142015238D01*
X177014048Y-142062857D01*
X177156905Y-142062857D01*
X177252143Y-142015238D01*
X177299762Y-141967619D01*
X177347381Y-141872381D01*
X177347381Y-141491428D01*
X176347381Y-141491428D01*
X176347381Y-141824762D01*
X176395000Y-141920000D01*
X176442619Y-141967619D01*
X176537857Y-142015238D01*
X176633095Y-142015238D01*
X176728333Y-141967619D01*
X176775952Y-141920000D01*
X176823571Y-141824762D01*
X176823571Y-141491428D01*
X176823571Y-142824762D02*
X176871190Y-142967619D01*
X176918810Y-143015238D01*
X177014048Y-143062857D01*
X177156905Y-143062857D01*
X177252143Y-143015238D01*
X177299762Y-142967619D01*
X177347381Y-142872381D01*
X177347381Y-142491428D01*
X176347381Y-142491428D01*
X176347381Y-142824762D01*
X176395000Y-142920000D01*
X176442619Y-142967619D01*
X176537857Y-143015238D01*
X176633095Y-143015238D01*
X176728333Y-142967619D01*
X176775952Y-142920000D01*
X176823571Y-142824762D01*
X176823571Y-142491428D01*
X177728333Y-143396190D02*
X177680714Y-143443809D01*
X177537857Y-143539047D01*
X177442619Y-143586666D01*
X177299762Y-143634285D01*
X177061667Y-143681904D01*
X176871190Y-143681904D01*
X176633095Y-143634285D01*
X176490238Y-143586666D01*
X176395000Y-143539047D01*
X176252143Y-143443809D01*
X176204524Y-143396190D01*
X178997381Y-134443808D02*
X177997381Y-134443808D01*
X177997381Y-134824761D01*
X178045000Y-134919999D01*
X178092619Y-134967618D01*
X178187857Y-135015237D01*
X178330714Y-135015237D01*
X178425952Y-134967618D01*
X178473571Y-134919999D01*
X178521190Y-134824761D01*
X178521190Y-134443808D01*
X178902143Y-136015237D02*
X178949762Y-135967618D01*
X178997381Y-135824761D01*
X178997381Y-135729523D01*
X178949762Y-135586665D01*
X178854524Y-135491427D01*
X178759286Y-135443808D01*
X178568810Y-135396189D01*
X178425952Y-135396189D01*
X178235476Y-135443808D01*
X178140238Y-135491427D01*
X178045000Y-135586665D01*
X177997381Y-135729523D01*
X177997381Y-135824761D01*
X178045000Y-135967618D01*
X178092619Y-136015237D01*
X178473571Y-136777142D02*
X178521190Y-136919999D01*
X178568810Y-136967618D01*
X178664048Y-137015237D01*
X178806905Y-137015237D01*
X178902143Y-136967618D01*
X178949762Y-136919999D01*
X178997381Y-136824761D01*
X178997381Y-136443808D01*
X177997381Y-136443808D01*
X177997381Y-136777142D01*
X178045000Y-136872380D01*
X178092619Y-136919999D01*
X178187857Y-136967618D01*
X178283095Y-136967618D01*
X178378333Y-136919999D01*
X178425952Y-136872380D01*
X178473571Y-136777142D01*
X178473571Y-136443808D01*
X178997381Y-138205713D02*
X178330714Y-138205713D01*
X178521190Y-138205713D02*
X178425952Y-138253332D01*
X178378333Y-138300951D01*
X178330714Y-138396189D01*
X178330714Y-138491428D01*
X178949762Y-139205714D02*
X178997381Y-139110476D01*
X178997381Y-138919999D01*
X178949762Y-138824761D01*
X178854524Y-138777142D01*
X178473571Y-138777142D01*
X178378333Y-138824761D01*
X178330714Y-138919999D01*
X178330714Y-139110476D01*
X178378333Y-139205714D01*
X178473571Y-139253333D01*
X178568810Y-139253333D01*
X178664048Y-138777142D01*
X178330714Y-139586666D02*
X178997381Y-139824761D01*
X178330714Y-140062857D01*
X178997381Y-141777143D02*
X178521190Y-141443809D01*
X178997381Y-141205714D02*
X177997381Y-141205714D01*
X177997381Y-141586667D01*
X178045000Y-141681905D01*
X178092619Y-141729524D01*
X178187857Y-141777143D01*
X178330714Y-141777143D01*
X178425952Y-141729524D01*
X178473571Y-141681905D01*
X178521190Y-141586667D01*
X178521190Y-141205714D01*
X178902143Y-142777143D02*
X178949762Y-142729524D01*
X178997381Y-142586667D01*
X178997381Y-142491429D01*
X178949762Y-142348571D01*
X178854524Y-142253333D01*
X178759286Y-142205714D01*
X178568810Y-142158095D01*
X178425952Y-142158095D01*
X178235476Y-142205714D01*
X178140238Y-142253333D01*
X178045000Y-142348571D01*
X177997381Y-142491429D01*
X177997381Y-142586667D01*
X178045000Y-142729524D01*
X178092619Y-142777143D01*
X177997381Y-143681905D02*
X177997381Y-143205714D01*
X178473571Y-143158095D01*
X178425952Y-143205714D01*
X178378333Y-143300952D01*
X178378333Y-143539048D01*
X178425952Y-143634286D01*
X178473571Y-143681905D01*
X178568810Y-143729524D01*
X178806905Y-143729524D01*
X178902143Y-143681905D01*
X178949762Y-143634286D01*
X178997381Y-143539048D01*
X178997381Y-143300952D01*
X178949762Y-143205714D01*
X178902143Y-143158095D01*
D11*
X245225000Y-125700000D02*
X245225000Y-126550000D01*
X245275000Y-126650000D01*
X245325000Y-126700000D01*
X245425000Y-126750000D01*
X245575000Y-126750000D01*
X245675000Y-126700000D01*
X245225000Y-126350000D02*
X245325000Y-126400000D01*
X245525000Y-126400000D01*
X245625000Y-126350000D01*
X245675000Y-126300000D01*
X245725000Y-126200000D01*
X245725000Y-125900000D01*
X245675000Y-125800000D01*
X245625000Y-125750000D01*
X245525000Y-125700000D01*
X245325000Y-125700000D01*
X245225000Y-125750000D01*
X244725000Y-126400000D02*
X244725000Y-125700000D01*
X244725000Y-125350000D02*
X244775000Y-125400000D01*
X244725000Y-125450000D01*
X244675000Y-125400000D01*
X244725000Y-125350000D01*
X244725000Y-125450000D01*
X244375000Y-125700000D02*
X243975000Y-125700000D01*
X244225000Y-125350000D02*
X244225000Y-126250000D01*
X244175000Y-126350000D01*
X244075000Y-126400000D01*
X243975000Y-126400000D01*
X243625000Y-126400000D02*
X243625000Y-125350000D01*
X243175000Y-126400000D02*
X243175000Y-125850000D01*
X243225000Y-125750000D01*
X243325000Y-125700000D01*
X243475000Y-125700000D01*
X243575000Y-125750000D01*
X243625000Y-125800000D01*
X242225000Y-125700000D02*
X242225000Y-126400000D01*
X242675000Y-125700000D02*
X242675000Y-126250000D01*
X242625000Y-126350000D01*
X242525000Y-126400000D01*
X242375000Y-126400000D01*
X242275000Y-126350000D01*
X242225000Y-126300000D01*
X241725000Y-126400000D02*
X241725000Y-125350000D01*
X241725000Y-125750000D02*
X241625000Y-125700000D01*
X241425000Y-125700000D01*
X241325000Y-125750000D01*
X241275000Y-125800000D01*
X241225000Y-125900000D01*
X241225000Y-126200000D01*
X241275000Y-126300000D01*
X241325000Y-126350000D01*
X241425000Y-126400000D01*
X241625000Y-126400000D01*
X241725000Y-126350000D01*
X240775000Y-126300000D02*
X240725000Y-126350000D01*
X240775000Y-126400000D01*
X240825000Y-126350000D01*
X240775000Y-126300000D01*
X240775000Y-126400000D01*
X239825000Y-126350000D02*
X239925000Y-126400000D01*
X240125000Y-126400000D01*
X240225000Y-126350000D01*
X240275000Y-126300000D01*
X240325000Y-126200000D01*
X240325000Y-125900000D01*
X240275000Y-125800000D01*
X240225000Y-125750000D01*
X240125000Y-125700000D01*
X239925000Y-125700000D01*
X239825000Y-125750000D01*
X239225000Y-126400000D02*
X239325000Y-126350000D01*
X239375000Y-126300000D01*
X239425000Y-126200000D01*
X239425000Y-125900000D01*
X239375000Y-125800000D01*
X239325000Y-125750000D01*
X239225000Y-125700000D01*
X239075000Y-125700000D01*
X238975000Y-125750000D01*
X238925000Y-125800000D01*
X238875000Y-125900000D01*
X238875000Y-126200000D01*
X238925000Y-126300000D01*
X238975000Y-126350000D01*
X239075000Y-126400000D01*
X239225000Y-126400000D01*
X238425000Y-126400000D02*
X238425000Y-125700000D01*
X238425000Y-125800000D02*
X238375000Y-125750000D01*
X238275000Y-125700000D01*
X238125000Y-125700000D01*
X238025000Y-125750000D01*
X237975000Y-125850000D01*
X237975000Y-126400000D01*
X237975000Y-125850000D02*
X237925000Y-125750000D01*
X237825000Y-125700000D01*
X237675000Y-125700000D01*
X237575000Y-125750000D01*
X237525000Y-125850000D01*
X237525000Y-126400000D01*
X236275000Y-125300000D02*
X237175000Y-126650000D01*
X235925000Y-126400000D02*
X235925000Y-125350000D01*
X235325000Y-126400000D02*
X235775000Y-125800000D01*
X235325000Y-125350000D02*
X235925000Y-125950000D01*
X234425000Y-126400000D02*
X234425000Y-125850000D01*
X234475000Y-125750000D01*
X234575000Y-125700000D01*
X234775000Y-125700000D01*
X234875000Y-125750000D01*
X234425000Y-126350000D02*
X234525000Y-126400000D01*
X234775000Y-126400000D01*
X234875000Y-126350000D01*
X234925000Y-126250000D01*
X234925000Y-126150000D01*
X234875000Y-126050000D01*
X234775000Y-126000000D01*
X234525000Y-126000000D01*
X234425000Y-125950000D01*
X233925000Y-126400000D02*
X233925000Y-125700000D01*
X233925000Y-125350000D02*
X233975000Y-125400000D01*
X233925000Y-125450000D01*
X233875000Y-125400000D01*
X233925000Y-125350000D01*
X233925000Y-125450000D01*
X233475000Y-126350000D02*
X233375000Y-126400000D01*
X233175000Y-126400000D01*
X233075000Y-126350000D01*
X233025000Y-126250000D01*
X233025000Y-126200000D01*
X233075000Y-126100000D01*
X233175000Y-126050000D01*
X233325000Y-126050000D01*
X233425000Y-126000000D01*
X233475000Y-125900000D01*
X233475000Y-125850000D01*
X233425000Y-125750000D01*
X233325000Y-125700000D01*
X233175000Y-125700000D01*
X233075000Y-125750000D01*
X232175000Y-126350000D02*
X232275000Y-126400000D01*
X232475000Y-126400000D01*
X232575000Y-126350000D01*
X232625000Y-126250000D01*
X232625000Y-125850000D01*
X232575000Y-125750000D01*
X232475000Y-125700000D01*
X232275000Y-125700000D01*
X232175000Y-125750000D01*
X232125000Y-125850000D01*
X232125000Y-125950000D01*
X232625000Y-126050000D01*
X231675000Y-126400000D02*
X231675000Y-125700000D01*
X231675000Y-125900000D02*
X231625000Y-125800000D01*
X231575000Y-125750000D01*
X231475000Y-125700000D01*
X231375000Y-125700000D01*
X231075000Y-126350000D02*
X230925000Y-126400000D01*
X230675000Y-126400000D01*
X230575000Y-126350000D01*
X230525000Y-126300000D01*
X230475000Y-126200000D01*
X230475000Y-126100000D01*
X230525000Y-126000000D01*
X230575000Y-125950000D01*
X230675000Y-125900000D01*
X230875000Y-125850000D01*
X230975000Y-125800000D01*
X231025000Y-125750000D01*
X231075000Y-125650000D01*
X231075000Y-125550000D01*
X231025000Y-125450000D01*
X230975000Y-125400000D01*
X230875000Y-125350000D01*
X230625000Y-125350000D01*
X230475000Y-125400000D01*
X229875000Y-126400000D02*
X229975000Y-126350000D01*
X230025000Y-126300000D01*
X230075000Y-126200000D01*
X230075000Y-125900000D01*
X230025000Y-125800000D01*
X229975000Y-125750000D01*
X229875000Y-125700000D01*
X229725000Y-125700000D01*
X229625000Y-125750000D01*
X229575000Y-125800000D01*
X229525000Y-125900000D01*
X229525000Y-126200000D01*
X229575000Y-126300000D01*
X229625000Y-126350000D01*
X229725000Y-126400000D01*
X229875000Y-126400000D01*
X229225000Y-125700000D02*
X228825000Y-125700000D01*
X229075000Y-126400000D02*
X229075000Y-125500000D01*
X229025000Y-125400000D01*
X228925000Y-125350000D01*
X228825000Y-125350000D01*
X228625000Y-125700000D02*
X228225000Y-125700000D01*
X228475000Y-125350000D02*
X228475000Y-126250000D01*
X228425000Y-126350000D01*
X228325000Y-126400000D01*
X228225000Y-126400000D01*
X227125000Y-125300000D02*
X228025000Y-126650000D01*
X226575000Y-125350000D02*
X226375000Y-125350000D01*
X226275000Y-125400000D01*
X226175000Y-125500000D01*
X226125000Y-125700000D01*
X226125000Y-126050000D01*
X226175000Y-126250000D01*
X226275000Y-126350000D01*
X226375000Y-126400000D01*
X226575000Y-126400000D01*
X226675000Y-126350000D01*
X226775000Y-126250000D01*
X226825000Y-126050000D01*
X226825000Y-125700000D01*
X226775000Y-125500000D01*
X226675000Y-125400000D01*
X226575000Y-125350000D01*
X225675000Y-125700000D02*
X225675000Y-126750000D01*
X225675000Y-125750000D02*
X225575000Y-125700000D01*
X225375000Y-125700000D01*
X225275000Y-125750000D01*
X225225000Y-125800000D01*
X225175000Y-125900000D01*
X225175000Y-126200000D01*
X225225000Y-126300000D01*
X225275000Y-126350000D01*
X225375000Y-126400000D01*
X225575000Y-126400000D01*
X225675000Y-126350000D01*
X224325000Y-126350000D02*
X224425000Y-126400000D01*
X224625000Y-126400000D01*
X224725000Y-126350000D01*
X224775000Y-126250000D01*
X224775000Y-125850000D01*
X224725000Y-125750000D01*
X224625000Y-125700000D01*
X224425000Y-125700000D01*
X224325000Y-125750000D01*
X224275000Y-125850000D01*
X224275000Y-125950000D01*
X224775000Y-126050000D01*
X223825000Y-125700000D02*
X223825000Y-126400000D01*
X223825000Y-125800000D02*
X223775000Y-125750000D01*
X223675000Y-125700000D01*
X223525000Y-125700000D01*
X223425000Y-125750000D01*
X223375000Y-125850000D01*
X223375000Y-126400000D01*
X222925000Y-126350000D02*
X222775000Y-126400000D01*
X222525000Y-126400000D01*
X222425000Y-126350000D01*
X222375000Y-126300000D01*
X222325000Y-126200000D01*
X222325000Y-126100000D01*
X222375000Y-126000000D01*
X222425000Y-125950000D01*
X222525000Y-125900000D01*
X222725000Y-125850000D01*
X222825000Y-125800000D01*
X222875000Y-125750000D01*
X222925000Y-125650000D01*
X222925000Y-125550000D01*
X222875000Y-125450000D01*
X222825000Y-125400000D01*
X222725000Y-125350000D01*
X222475000Y-125350000D01*
X222325000Y-125400000D01*
X221875000Y-126400000D02*
X221875000Y-125700000D01*
X221875000Y-125350000D02*
X221925000Y-125400000D01*
X221875000Y-125450000D01*
X221825000Y-125400000D01*
X221875000Y-125350000D01*
X221875000Y-125450000D01*
X221375000Y-126400000D02*
X221375000Y-125700000D01*
X221375000Y-125800000D02*
X221325000Y-125750000D01*
X221225000Y-125700000D01*
X221075000Y-125700000D01*
X220975000Y-125750000D01*
X220925000Y-125850000D01*
X220925000Y-126400000D01*
X220925000Y-125850000D02*
X220875000Y-125750000D01*
X220775000Y-125700000D01*
X220625000Y-125700000D01*
X220525000Y-125750000D01*
X220475000Y-125850000D01*
X220475000Y-126400000D01*
X219625000Y-125850000D02*
X219475000Y-125900000D01*
X219425000Y-125950000D01*
X219375000Y-126050000D01*
X219375000Y-126200000D01*
X219425000Y-126300000D01*
X219475000Y-126350000D01*
X219575000Y-126400000D01*
X219975000Y-126400000D01*
X219975000Y-125350000D01*
X219625000Y-125350000D01*
X219525000Y-125400000D01*
X219475000Y-125450000D01*
X219425000Y-125550000D01*
X219425000Y-125650000D01*
X219475000Y-125750000D01*
X219525000Y-125800000D01*
X219625000Y-125850000D01*
X219975000Y-125850000D01*
X218475000Y-125700000D02*
X218475000Y-126400000D01*
X218925000Y-125700000D02*
X218925000Y-126250000D01*
X218875000Y-126350000D01*
X218775000Y-126400000D01*
X218625000Y-126400000D01*
X218525000Y-126350000D01*
X218475000Y-126300000D01*
X218125000Y-125700000D02*
X217725000Y-125700000D01*
X217975000Y-125350000D02*
X217975000Y-126250000D01*
X217925000Y-126350000D01*
X217825000Y-126400000D01*
X217725000Y-126400000D01*
X217525000Y-125700000D02*
X217125000Y-125700000D01*
X217375000Y-125350000D02*
X217375000Y-126250000D01*
X217325000Y-126350000D01*
X217225000Y-126400000D01*
X217125000Y-126400000D01*
X216625000Y-126400000D02*
X216725000Y-126350000D01*
X216775000Y-126300000D01*
X216825000Y-126200000D01*
X216825000Y-125900000D01*
X216775000Y-125800000D01*
X216725000Y-125750000D01*
X216625000Y-125700000D01*
X216475000Y-125700000D01*
X216375000Y-125750000D01*
X216325000Y-125800000D01*
X216275000Y-125900000D01*
X216275000Y-126200000D01*
X216325000Y-126300000D01*
X216375000Y-126350000D01*
X216475000Y-126400000D01*
X216625000Y-126400000D01*
X215825000Y-125700000D02*
X215825000Y-126400000D01*
X215825000Y-125800000D02*
X215775000Y-125750000D01*
X215675000Y-125700000D01*
X215525000Y-125700000D01*
X215425000Y-125750000D01*
X215375000Y-125850000D01*
X215375000Y-126400000D01*
X214525000Y-125850000D02*
X214375000Y-125900000D01*
X214325000Y-125950000D01*
X214275000Y-126050000D01*
X214275000Y-126200000D01*
X214325000Y-126300000D01*
X214375000Y-126350000D01*
X214475000Y-126400000D01*
X214875000Y-126400000D01*
X214875000Y-125350000D01*
X214525000Y-125350000D01*
X214425000Y-125400000D01*
X214375000Y-125450000D01*
X214325000Y-125550000D01*
X214325000Y-125650000D01*
X214375000Y-125750000D01*
X214425000Y-125800000D01*
X214525000Y-125850000D01*
X214875000Y-125850000D01*
X213675000Y-126400000D02*
X213775000Y-126350000D01*
X213825000Y-126300000D01*
X213875000Y-126200000D01*
X213875000Y-125900000D01*
X213825000Y-125800000D01*
X213775000Y-125750000D01*
X213675000Y-125700000D01*
X213525000Y-125700000D01*
X213425000Y-125750000D01*
X213375000Y-125800000D01*
X213325000Y-125900000D01*
X213325000Y-126200000D01*
X213375000Y-126300000D01*
X213425000Y-126350000D01*
X213525000Y-126400000D01*
X213675000Y-126400000D01*
X212975000Y-126400000D02*
X212425000Y-125700000D01*
X212975000Y-125700000D02*
X212425000Y-126400000D01*
D13*
X245692857Y-124453571D02*
X245692857Y-122953571D01*
X245192857Y-124025000D01*
X244692857Y-122953571D01*
X244692857Y-124453571D01*
X243764285Y-124453571D02*
X243907143Y-124382143D01*
X243978571Y-124310714D01*
X244050000Y-124167857D01*
X244050000Y-123739286D01*
X243978571Y-123596429D01*
X243907143Y-123525000D01*
X243764285Y-123453571D01*
X243550000Y-123453571D01*
X243407143Y-123525000D01*
X243335714Y-123596429D01*
X243264285Y-123739286D01*
X243264285Y-124167857D01*
X243335714Y-124310714D01*
X243407143Y-124382143D01*
X243550000Y-124453571D01*
X243764285Y-124453571D01*
X241978571Y-124453571D02*
X241978571Y-122953571D01*
X241978571Y-124382143D02*
X242121428Y-124453571D01*
X242407142Y-124453571D01*
X242550000Y-124382143D01*
X242621428Y-124310714D01*
X242692857Y-124167857D01*
X242692857Y-123739286D01*
X242621428Y-123596429D01*
X242550000Y-123525000D01*
X242407142Y-123453571D01*
X242121428Y-123453571D01*
X241978571Y-123525000D01*
X240621428Y-123453571D02*
X240621428Y-124453571D01*
X241264285Y-123453571D02*
X241264285Y-124239286D01*
X241192857Y-124382143D01*
X241049999Y-124453571D01*
X240835714Y-124453571D01*
X240692857Y-124382143D01*
X240621428Y-124310714D01*
X239692856Y-124453571D02*
X239835714Y-124382143D01*
X239907142Y-124239286D01*
X239907142Y-122953571D01*
X238478571Y-124453571D02*
X238478571Y-123667857D01*
X238550000Y-123525000D01*
X238692857Y-123453571D01*
X238978571Y-123453571D01*
X239121428Y-123525000D01*
X238478571Y-124382143D02*
X238621428Y-124453571D01*
X238978571Y-124453571D01*
X239121428Y-124382143D01*
X239192857Y-124239286D01*
X239192857Y-124096429D01*
X239121428Y-123953571D01*
X238978571Y-123882143D01*
X238621428Y-123882143D01*
X238478571Y-123810714D01*
X237764285Y-124453571D02*
X237764285Y-123453571D01*
X237764285Y-123739286D02*
X237692857Y-123596429D01*
X237621428Y-123525000D01*
X237478571Y-123453571D01*
X237335714Y-123453571D01*
X235407143Y-122953571D02*
X235121429Y-122953571D01*
X234978571Y-123025000D01*
X234835714Y-123167857D01*
X234764286Y-123453571D01*
X234764286Y-123953571D01*
X234835714Y-124239286D01*
X234978571Y-124382143D01*
X235121429Y-124453571D01*
X235407143Y-124453571D01*
X235550000Y-124382143D01*
X235692857Y-124239286D01*
X235764286Y-123953571D01*
X235764286Y-123453571D01*
X235692857Y-123167857D01*
X235550000Y-123025000D01*
X235407143Y-122953571D01*
X234121428Y-123453571D02*
X234121428Y-124953571D01*
X234121428Y-123525000D02*
X233978571Y-123453571D01*
X233692857Y-123453571D01*
X233550000Y-123525000D01*
X233478571Y-123596429D01*
X233407142Y-123739286D01*
X233407142Y-124167857D01*
X233478571Y-124310714D01*
X233550000Y-124382143D01*
X233692857Y-124453571D01*
X233978571Y-124453571D01*
X234121428Y-124382143D01*
X232192857Y-124382143D02*
X232335714Y-124453571D01*
X232621428Y-124453571D01*
X232764285Y-124382143D01*
X232835714Y-124239286D01*
X232835714Y-123667857D01*
X232764285Y-123525000D01*
X232621428Y-123453571D01*
X232335714Y-123453571D01*
X232192857Y-123525000D01*
X232121428Y-123667857D01*
X232121428Y-123810714D01*
X232835714Y-123953571D01*
X231478571Y-123453571D02*
X231478571Y-124453571D01*
X231478571Y-123596429D02*
X231407143Y-123525000D01*
X231264285Y-123453571D01*
X231050000Y-123453571D01*
X230907143Y-123525000D01*
X230835714Y-123667857D01*
X230835714Y-124453571D01*
X228478571Y-123667857D02*
X228264285Y-123739286D01*
X228192857Y-123810714D01*
X228121428Y-123953571D01*
X228121428Y-124167857D01*
X228192857Y-124310714D01*
X228264285Y-124382143D01*
X228407143Y-124453571D01*
X228978571Y-124453571D01*
X228978571Y-122953571D01*
X228478571Y-122953571D01*
X228335714Y-123025000D01*
X228264285Y-123096429D01*
X228192857Y-123239286D01*
X228192857Y-123382143D01*
X228264285Y-123525000D01*
X228335714Y-123596429D01*
X228478571Y-123667857D01*
X228978571Y-123667857D01*
X226835714Y-123453571D02*
X226835714Y-124453571D01*
X227478571Y-123453571D02*
X227478571Y-124239286D01*
X227407143Y-124382143D01*
X227264285Y-124453571D01*
X227050000Y-124453571D01*
X226907143Y-124382143D01*
X226835714Y-124310714D01*
X226335714Y-123453571D02*
X225764285Y-123453571D01*
X226121428Y-122953571D02*
X226121428Y-124239286D01*
X226050000Y-124382143D01*
X225907142Y-124453571D01*
X225764285Y-124453571D01*
X225478571Y-123453571D02*
X224907142Y-123453571D01*
X225264285Y-122953571D02*
X225264285Y-124239286D01*
X225192857Y-124382143D01*
X225049999Y-124453571D01*
X224907142Y-124453571D01*
X224192856Y-124453571D02*
X224335714Y-124382143D01*
X224407142Y-124310714D01*
X224478571Y-124167857D01*
X224478571Y-123739286D01*
X224407142Y-123596429D01*
X224335714Y-123525000D01*
X224192856Y-123453571D01*
X223978571Y-123453571D01*
X223835714Y-123525000D01*
X223764285Y-123596429D01*
X223692856Y-123739286D01*
X223692856Y-124167857D01*
X223764285Y-124310714D01*
X223835714Y-124382143D01*
X223978571Y-124453571D01*
X224192856Y-124453571D01*
X223049999Y-123453571D02*
X223049999Y-124453571D01*
X223049999Y-123596429D02*
X222978571Y-123525000D01*
X222835713Y-123453571D01*
X222621428Y-123453571D01*
X222478571Y-123525000D01*
X222407142Y-123667857D01*
X222407142Y-124453571D01*
X220049999Y-123667857D02*
X219835713Y-123739286D01*
X219764285Y-123810714D01*
X219692856Y-123953571D01*
X219692856Y-124167857D01*
X219764285Y-124310714D01*
X219835713Y-124382143D01*
X219978571Y-124453571D01*
X220549999Y-124453571D01*
X220549999Y-122953571D01*
X220049999Y-122953571D01*
X219907142Y-123025000D01*
X219835713Y-123096429D01*
X219764285Y-123239286D01*
X219764285Y-123382143D01*
X219835713Y-123525000D01*
X219907142Y-123596429D01*
X220049999Y-123667857D01*
X220549999Y-123667857D01*
X218835713Y-124453571D02*
X218978571Y-124382143D01*
X219049999Y-124310714D01*
X219121428Y-124167857D01*
X219121428Y-123739286D01*
X219049999Y-123596429D01*
X218978571Y-123525000D01*
X218835713Y-123453571D01*
X218621428Y-123453571D01*
X218478571Y-123525000D01*
X218407142Y-123596429D01*
X218335713Y-123739286D01*
X218335713Y-124167857D01*
X218407142Y-124310714D01*
X218478571Y-124382143D01*
X218621428Y-124453571D01*
X218835713Y-124453571D01*
X217835713Y-124453571D02*
X217049999Y-123453571D01*
X217835713Y-123453571D02*
X217049999Y-124453571D01*
X214907142Y-125025000D02*
X214978570Y-124953571D01*
X215121427Y-124739286D01*
X215192856Y-124596429D01*
X215264285Y-124382143D01*
X215335713Y-124025000D01*
X215335713Y-123739286D01*
X215264285Y-123382143D01*
X215192856Y-123167857D01*
X215121427Y-123025000D01*
X214978570Y-122810714D01*
X214907142Y-122739286D01*
X214335713Y-124453571D02*
X214335713Y-122953571D01*
X213835713Y-124025000D01*
X213335713Y-122953571D01*
X213335713Y-124453571D01*
X212335713Y-122953571D02*
X212049999Y-122953571D01*
X211907141Y-123025000D01*
X211764284Y-123167857D01*
X211692856Y-123453571D01*
X211692856Y-123953571D01*
X211764284Y-124239286D01*
X211907141Y-124382143D01*
X212049999Y-124453571D01*
X212335713Y-124453571D01*
X212478570Y-124382143D01*
X212621427Y-124239286D01*
X212692856Y-123953571D01*
X212692856Y-123453571D01*
X212621427Y-123167857D01*
X212478570Y-123025000D01*
X212335713Y-122953571D01*
X210549998Y-123667857D02*
X210335712Y-123739286D01*
X210264284Y-123810714D01*
X210192855Y-123953571D01*
X210192855Y-124167857D01*
X210264284Y-124310714D01*
X210335712Y-124382143D01*
X210478570Y-124453571D01*
X211049998Y-124453571D01*
X211049998Y-122953571D01*
X210549998Y-122953571D01*
X210407141Y-123025000D01*
X210335712Y-123096429D01*
X210264284Y-123239286D01*
X210264284Y-123382143D01*
X210335712Y-123525000D01*
X210407141Y-123596429D01*
X210549998Y-123667857D01*
X211049998Y-123667857D01*
X209049998Y-123667857D02*
X208835712Y-123739286D01*
X208764284Y-123810714D01*
X208692855Y-123953571D01*
X208692855Y-124167857D01*
X208764284Y-124310714D01*
X208835712Y-124382143D01*
X208978570Y-124453571D01*
X209549998Y-124453571D01*
X209549998Y-122953571D01*
X209049998Y-122953571D01*
X208907141Y-123025000D01*
X208835712Y-123096429D01*
X208764284Y-123239286D01*
X208764284Y-123382143D01*
X208835712Y-123525000D01*
X208907141Y-123596429D01*
X209049998Y-123667857D01*
X209549998Y-123667857D01*
X208192855Y-125025000D02*
X208121427Y-124953571D01*
X207978570Y-124739286D01*
X207907141Y-124596429D01*
X207835712Y-124382143D01*
X207764284Y-124025000D01*
X207764284Y-123739286D01*
X207835712Y-123382143D01*
X207907141Y-123167857D01*
X207978570Y-123025000D01*
X208121427Y-122810714D01*
X208192855Y-122739286D01*
D12*
X183850000Y-111150000D02*
X183850000Y-114150000D01*
X186350000Y-114150000D02*
X186350000Y-111150000D01*
X206775000Y-114475000D02*
X209775000Y-114475000D01*
X209775000Y-111975000D02*
X206775000Y-111975000D01*
X229375000Y-114525000D02*
X232375000Y-114525000D01*
X232375000Y-112025000D02*
X229375000Y-112025000D01*
X251950000Y-114925000D02*
X251950000Y-111925000D01*
X249450000Y-111925000D02*
X249450000Y-114925000D01*
X209450000Y-125675000D02*
X209450000Y-128675000D01*
X211950000Y-128675000D02*
X211950000Y-125675000D01*
X184057143Y-112333334D02*
X184104762Y-112285715D01*
X184152381Y-112142858D01*
X184152381Y-112047620D01*
X184104762Y-111904762D01*
X184009524Y-111809524D01*
X183914286Y-111761905D01*
X183723810Y-111714286D01*
X183580952Y-111714286D01*
X183390476Y-111761905D01*
X183295238Y-111809524D01*
X183200000Y-111904762D01*
X183152381Y-112047620D01*
X183152381Y-112142858D01*
X183200000Y-112285715D01*
X183247619Y-112333334D01*
X184152381Y-113285715D02*
X184152381Y-112714286D01*
X184152381Y-113000000D02*
X183152381Y-113000000D01*
X183295238Y-112904762D01*
X183390476Y-112809524D01*
X183438095Y-112714286D01*
X208641666Y-112082143D02*
X208689285Y-112129762D01*
X208832142Y-112177381D01*
X208927380Y-112177381D01*
X209070238Y-112129762D01*
X209165476Y-112034524D01*
X209213095Y-111939286D01*
X209260714Y-111748810D01*
X209260714Y-111605952D01*
X209213095Y-111415476D01*
X209165476Y-111320238D01*
X209070238Y-111225000D01*
X208927380Y-111177381D01*
X208832142Y-111177381D01*
X208689285Y-111225000D01*
X208641666Y-111272619D01*
X208260714Y-111272619D02*
X208213095Y-111225000D01*
X208117857Y-111177381D01*
X207879761Y-111177381D01*
X207784523Y-111225000D01*
X207736904Y-111272619D01*
X207689285Y-111367857D01*
X207689285Y-111463095D01*
X207736904Y-111605952D01*
X208308333Y-112177381D01*
X207689285Y-112177381D01*
X252332143Y-113108334D02*
X252379762Y-113060715D01*
X252427381Y-112917858D01*
X252427381Y-112822620D01*
X252379762Y-112679762D01*
X252284524Y-112584524D01*
X252189286Y-112536905D01*
X251998810Y-112489286D01*
X251855952Y-112489286D01*
X251665476Y-112536905D01*
X251570238Y-112584524D01*
X251475000Y-112679762D01*
X251427381Y-112822620D01*
X251427381Y-112917858D01*
X251475000Y-113060715D01*
X251522619Y-113108334D01*
X251760714Y-113965477D02*
X252427381Y-113965477D01*
X251379762Y-113727381D02*
X252094048Y-113489286D01*
X252094048Y-114108334D01*
X209832143Y-127233334D02*
X209879762Y-127185715D01*
X209927381Y-127042858D01*
X209927381Y-126947620D01*
X209879762Y-126804762D01*
X209784524Y-126709524D01*
X209689286Y-126661905D01*
X209498810Y-126614286D01*
X209355952Y-126614286D01*
X209165476Y-126661905D01*
X209070238Y-126709524D01*
X208975000Y-126804762D01*
X208927381Y-126947620D01*
X208927381Y-127042858D01*
X208975000Y-127185715D01*
X209022619Y-127233334D01*
X208927381Y-128090477D02*
X208927381Y-127900000D01*
X208975000Y-127804762D01*
X209022619Y-127757143D01*
X209165476Y-127661905D01*
X209355952Y-127614286D01*
X209736905Y-127614286D01*
X209832143Y-127661905D01*
X209879762Y-127709524D01*
X209927381Y-127804762D01*
X209927381Y-127995239D01*
X209879762Y-128090477D01*
X209832143Y-128138096D01*
X209736905Y-128185715D01*
X209498810Y-128185715D01*
X209403571Y-128138096D01*
X209355952Y-128090477D01*
X209308333Y-127995239D01*
X209308333Y-127804762D01*
X209355952Y-127709524D01*
X209403571Y-127661905D01*
X209498810Y-127614286D01*
M02*
