G04 #@! TF.FileFunction,Legend,Top*
%FSLAX46Y46*%
G04 Gerber Fmt 4.6, Leading zero omitted, Abs format (unit mm)*
G04 Created by KiCad (PCBNEW 4.0.4-stable) date 01/15/17 13:44:32*
%MOMM*%
%LPD*%
G01*
G04 APERTURE LIST*
%ADD10C,0.100000*%
%ADD11C,0.300000*%
%ADD12C,0.200000*%
%ADD13C,0.500000*%
%ADD14C,0.350000*%
%ADD15C,0.150000*%
%ADD16C,0.002540*%
G04 APERTURE END LIST*
D10*
D11*
X185317144Y-131987143D02*
X186460001Y-131987143D01*
X185888572Y-132558571D02*
X185888572Y-131415714D01*
X187960001Y-132558571D02*
X187102858Y-132558571D01*
X187531430Y-132558571D02*
X187531430Y-131058571D01*
X187388573Y-131272857D01*
X187245715Y-131415714D01*
X187102858Y-131487143D01*
X188531429Y-131201429D02*
X188602858Y-131130000D01*
X188745715Y-131058571D01*
X189102858Y-131058571D01*
X189245715Y-131130000D01*
X189317144Y-131201429D01*
X189388572Y-131344286D01*
X189388572Y-131487143D01*
X189317144Y-131701429D01*
X188460001Y-132558571D01*
X189388572Y-132558571D01*
X189817143Y-131058571D02*
X190317143Y-132558571D01*
X190817143Y-131058571D01*
D12*
X222282143Y-142260714D02*
X221382143Y-142260714D01*
X221382143Y-141917857D01*
X221425000Y-141832143D01*
X221467857Y-141789286D01*
X221553571Y-141746429D01*
X221682143Y-141746429D01*
X221767857Y-141789286D01*
X221810714Y-141832143D01*
X221853571Y-141917857D01*
X221853571Y-142260714D01*
X222196429Y-140846429D02*
X222239286Y-140889286D01*
X222282143Y-141017857D01*
X222282143Y-141103571D01*
X222239286Y-141232143D01*
X222153571Y-141317857D01*
X222067857Y-141360714D01*
X221896429Y-141403571D01*
X221767857Y-141403571D01*
X221596429Y-141360714D01*
X221510714Y-141317857D01*
X221425000Y-141232143D01*
X221382143Y-141103571D01*
X221382143Y-141017857D01*
X221425000Y-140889286D01*
X221467857Y-140846429D01*
X221810714Y-140160714D02*
X221853571Y-140032143D01*
X221896429Y-139989286D01*
X221982143Y-139946429D01*
X222110714Y-139946429D01*
X222196429Y-139989286D01*
X222239286Y-140032143D01*
X222282143Y-140117857D01*
X222282143Y-140460714D01*
X221382143Y-140460714D01*
X221382143Y-140160714D01*
X221425000Y-140075000D01*
X221467857Y-140032143D01*
X221553571Y-139989286D01*
X221639286Y-139989286D01*
X221725000Y-140032143D01*
X221767857Y-140075000D01*
X221810714Y-140160714D01*
X221810714Y-140460714D01*
X222282143Y-138360715D02*
X221853571Y-138660715D01*
X222282143Y-138875000D02*
X221382143Y-138875000D01*
X221382143Y-138532143D01*
X221425000Y-138446429D01*
X221467857Y-138403572D01*
X221553571Y-138360715D01*
X221682143Y-138360715D01*
X221767857Y-138403572D01*
X221810714Y-138446429D01*
X221853571Y-138532143D01*
X221853571Y-138875000D01*
X222196429Y-137460715D02*
X222239286Y-137503572D01*
X222282143Y-137632143D01*
X222282143Y-137717857D01*
X222239286Y-137846429D01*
X222153571Y-137932143D01*
X222067857Y-137975000D01*
X221896429Y-138017857D01*
X221767857Y-138017857D01*
X221596429Y-137975000D01*
X221510714Y-137932143D01*
X221425000Y-137846429D01*
X221382143Y-137717857D01*
X221382143Y-137632143D01*
X221425000Y-137503572D01*
X221467857Y-137460715D01*
X221467857Y-137117857D02*
X221425000Y-137075000D01*
X221382143Y-136989286D01*
X221382143Y-136775000D01*
X221425000Y-136689286D01*
X221467857Y-136646429D01*
X221553571Y-136603572D01*
X221639286Y-136603572D01*
X221767857Y-136646429D01*
X222282143Y-137160715D01*
X222282143Y-136603572D01*
X224175000Y-142003571D02*
X224132143Y-142046429D01*
X224003571Y-142132143D01*
X223917857Y-142175000D01*
X223789286Y-142217857D01*
X223575000Y-142260714D01*
X223403571Y-142260714D01*
X223189286Y-142217857D01*
X223060714Y-142175000D01*
X222975000Y-142132143D01*
X222846429Y-142046429D01*
X222803571Y-142003571D01*
X223789286Y-141275000D02*
X223832143Y-141360714D01*
X223832143Y-141532143D01*
X223789286Y-141617857D01*
X223746429Y-141660714D01*
X223660714Y-141703571D01*
X223403571Y-141703571D01*
X223317857Y-141660714D01*
X223275000Y-141617857D01*
X223232143Y-141532143D01*
X223232143Y-141360714D01*
X223275000Y-141275000D01*
X224175000Y-140975000D02*
X224132143Y-140932142D01*
X224003571Y-140846428D01*
X223917857Y-140803571D01*
X223789286Y-140760714D01*
X223575000Y-140717857D01*
X223403571Y-140717857D01*
X223189286Y-140760714D01*
X223060714Y-140803571D01*
X222975000Y-140846428D01*
X222846429Y-140932142D01*
X222803571Y-140975000D01*
X223832143Y-139603571D02*
X222932143Y-139603571D01*
X223575000Y-139303571D01*
X222932143Y-139003571D01*
X223832143Y-139003571D01*
X223832143Y-138575000D02*
X223232143Y-138575000D01*
X222932143Y-138575000D02*
X222975000Y-138617857D01*
X223017857Y-138575000D01*
X222975000Y-138532143D01*
X222932143Y-138575000D01*
X223017857Y-138575000D01*
X223832143Y-138146429D02*
X223232143Y-138146429D01*
X223403571Y-138146429D02*
X223317857Y-138103572D01*
X223275000Y-138060715D01*
X223232143Y-137975001D01*
X223232143Y-137889286D01*
X223832143Y-137589286D02*
X222932143Y-137589286D01*
X223489286Y-137503572D02*
X223832143Y-137246429D01*
X223232143Y-137246429D02*
X223575000Y-137589286D01*
X223832143Y-136732144D02*
X223789286Y-136817858D01*
X223746429Y-136860715D01*
X223660714Y-136903572D01*
X223403571Y-136903572D01*
X223317857Y-136860715D01*
X223275000Y-136817858D01*
X223232143Y-136732144D01*
X223232143Y-136603572D01*
X223275000Y-136517858D01*
X223317857Y-136475001D01*
X223403571Y-136432144D01*
X223660714Y-136432144D01*
X223746429Y-136475001D01*
X223789286Y-136517858D01*
X223832143Y-136603572D01*
X223832143Y-136732144D01*
X223832143Y-135360715D02*
X222932143Y-135360715D01*
X223832143Y-134846430D02*
X223317857Y-135232144D01*
X222932143Y-134846430D02*
X223446429Y-135360715D01*
X223832143Y-134075001D02*
X223360714Y-134075001D01*
X223275000Y-134117858D01*
X223232143Y-134203572D01*
X223232143Y-134375001D01*
X223275000Y-134460715D01*
X223789286Y-134075001D02*
X223832143Y-134160715D01*
X223832143Y-134375001D01*
X223789286Y-134460715D01*
X223703571Y-134503572D01*
X223617857Y-134503572D01*
X223532143Y-134460715D01*
X223489286Y-134375001D01*
X223489286Y-134160715D01*
X223446429Y-134075001D01*
X223832143Y-133646429D02*
X223232143Y-133646429D01*
X222932143Y-133646429D02*
X222975000Y-133689286D01*
X223017857Y-133646429D01*
X222975000Y-133603572D01*
X222932143Y-133646429D01*
X223017857Y-133646429D01*
X223789286Y-133260715D02*
X223832143Y-133175001D01*
X223832143Y-133003573D01*
X223789286Y-132917858D01*
X223703571Y-132875001D01*
X223660714Y-132875001D01*
X223575000Y-132917858D01*
X223532143Y-133003573D01*
X223532143Y-133132144D01*
X223489286Y-133217858D01*
X223403571Y-133260715D01*
X223360714Y-133260715D01*
X223275000Y-133217858D01*
X223232143Y-133132144D01*
X223232143Y-133003573D01*
X223275000Y-132917858D01*
X223789286Y-132146430D02*
X223832143Y-132232144D01*
X223832143Y-132403573D01*
X223789286Y-132489287D01*
X223703571Y-132532144D01*
X223360714Y-132532144D01*
X223275000Y-132489287D01*
X223232143Y-132403573D01*
X223232143Y-132232144D01*
X223275000Y-132146430D01*
X223360714Y-132103573D01*
X223446429Y-132103573D01*
X223532143Y-132532144D01*
X223832143Y-131717858D02*
X223232143Y-131717858D01*
X223403571Y-131717858D02*
X223317857Y-131675001D01*
X223275000Y-131632144D01*
X223232143Y-131546430D01*
X223232143Y-131460715D01*
D11*
X211653571Y-127278572D02*
X210153571Y-127278572D01*
X211225000Y-126778572D01*
X210153571Y-126278572D01*
X211653571Y-126278572D01*
X210153571Y-125278572D02*
X210153571Y-124992858D01*
X210225000Y-124850000D01*
X210367857Y-124707143D01*
X210653571Y-124635715D01*
X211153571Y-124635715D01*
X211439286Y-124707143D01*
X211582143Y-124850000D01*
X211653571Y-124992858D01*
X211653571Y-125278572D01*
X211582143Y-125421429D01*
X211439286Y-125564286D01*
X211153571Y-125635715D01*
X210653571Y-125635715D01*
X210367857Y-125564286D01*
X210225000Y-125421429D01*
X210153571Y-125278572D01*
X210867857Y-123492857D02*
X210939286Y-123278571D01*
X211010714Y-123207143D01*
X211153571Y-123135714D01*
X211367857Y-123135714D01*
X211510714Y-123207143D01*
X211582143Y-123278571D01*
X211653571Y-123421429D01*
X211653571Y-123992857D01*
X210153571Y-123992857D01*
X210153571Y-123492857D01*
X210225000Y-123350000D01*
X210296429Y-123278571D01*
X210439286Y-123207143D01*
X210582143Y-123207143D01*
X210725000Y-123278571D01*
X210796429Y-123350000D01*
X210867857Y-123492857D01*
X210867857Y-123992857D01*
X210867857Y-121992857D02*
X210939286Y-121778571D01*
X211010714Y-121707143D01*
X211153571Y-121635714D01*
X211367857Y-121635714D01*
X211510714Y-121707143D01*
X211582143Y-121778571D01*
X211653571Y-121921429D01*
X211653571Y-122492857D01*
X210153571Y-122492857D01*
X210153571Y-121992857D01*
X210225000Y-121850000D01*
X210296429Y-121778571D01*
X210439286Y-121707143D01*
X210582143Y-121707143D01*
X210725000Y-121778571D01*
X210796429Y-121850000D01*
X210867857Y-121992857D01*
X210867857Y-122492857D01*
X213417857Y-132135714D02*
X213417857Y-132635714D01*
X214203571Y-132635714D02*
X212703571Y-132635714D01*
X212703571Y-131921428D01*
X214203571Y-130707143D02*
X213417857Y-130707143D01*
X213275000Y-130778572D01*
X213203571Y-130921429D01*
X213203571Y-131207143D01*
X213275000Y-131350000D01*
X214132143Y-130707143D02*
X214203571Y-130850000D01*
X214203571Y-131207143D01*
X214132143Y-131350000D01*
X213989286Y-131421429D01*
X213846429Y-131421429D01*
X213703571Y-131350000D01*
X213632143Y-131207143D01*
X213632143Y-130850000D01*
X213560714Y-130707143D01*
X213203571Y-129992857D02*
X214203571Y-129992857D01*
X213346429Y-129992857D02*
X213275000Y-129921429D01*
X213203571Y-129778571D01*
X213203571Y-129564286D01*
X213275000Y-129421429D01*
X213417857Y-129350000D01*
X214203571Y-129350000D01*
X213417857Y-126992857D02*
X213489286Y-126778571D01*
X213560714Y-126707143D01*
X213703571Y-126635714D01*
X213917857Y-126635714D01*
X214060714Y-126707143D01*
X214132143Y-126778571D01*
X214203571Y-126921429D01*
X214203571Y-127492857D01*
X212703571Y-127492857D01*
X212703571Y-126992857D01*
X212775000Y-126850000D01*
X212846429Y-126778571D01*
X212989286Y-126707143D01*
X213132143Y-126707143D01*
X213275000Y-126778571D01*
X213346429Y-126850000D01*
X213417857Y-126992857D01*
X213417857Y-127492857D01*
X214203571Y-125778571D02*
X214132143Y-125921429D01*
X214060714Y-125992857D01*
X213917857Y-126064286D01*
X213489286Y-126064286D01*
X213346429Y-125992857D01*
X213275000Y-125921429D01*
X213203571Y-125778571D01*
X213203571Y-125564286D01*
X213275000Y-125421429D01*
X213346429Y-125350000D01*
X213489286Y-125278571D01*
X213917857Y-125278571D01*
X214060714Y-125350000D01*
X214132143Y-125421429D01*
X214203571Y-125564286D01*
X214203571Y-125778571D01*
X214203571Y-123992857D02*
X213417857Y-123992857D01*
X213275000Y-124064286D01*
X213203571Y-124207143D01*
X213203571Y-124492857D01*
X213275000Y-124635714D01*
X214132143Y-123992857D02*
X214203571Y-124135714D01*
X214203571Y-124492857D01*
X214132143Y-124635714D01*
X213989286Y-124707143D01*
X213846429Y-124707143D01*
X213703571Y-124635714D01*
X213632143Y-124492857D01*
X213632143Y-124135714D01*
X213560714Y-123992857D01*
X214203571Y-123278571D02*
X213203571Y-123278571D01*
X213489286Y-123278571D02*
X213346429Y-123207143D01*
X213275000Y-123135714D01*
X213203571Y-122992857D01*
X213203571Y-122850000D01*
X214203571Y-121707143D02*
X212703571Y-121707143D01*
X214132143Y-121707143D02*
X214203571Y-121850000D01*
X214203571Y-122135714D01*
X214132143Y-122278572D01*
X214060714Y-122350000D01*
X213917857Y-122421429D01*
X213489286Y-122421429D01*
X213346429Y-122350000D01*
X213275000Y-122278572D01*
X213203571Y-122135714D01*
X213203571Y-121850000D01*
X213275000Y-121707143D01*
D13*
X215542857Y-123038095D02*
X215542857Y-124561905D01*
D11*
X215807143Y-131028571D02*
X215807143Y-129885714D01*
X216378571Y-130457143D02*
X215235714Y-130457143D01*
X214878571Y-128457142D02*
X214878571Y-129171428D01*
X215592857Y-129242857D01*
X215521429Y-129171428D01*
X215450000Y-129028571D01*
X215450000Y-128671428D01*
X215521429Y-128528571D01*
X215592857Y-128457142D01*
X215735714Y-128385714D01*
X216092857Y-128385714D01*
X216235714Y-128457142D01*
X216307143Y-128528571D01*
X216378571Y-128671428D01*
X216378571Y-129028571D01*
X216307143Y-129171428D01*
X216235714Y-129242857D01*
X214878571Y-127957143D02*
X216378571Y-127457143D01*
X214878571Y-126957143D01*
D13*
X193492857Y-141436905D02*
X193492857Y-139913095D01*
D14*
X192814286Y-134628571D02*
X194185715Y-134628571D01*
X193500001Y-135314286D02*
X193500001Y-133942857D01*
D15*
X216615000Y-142095000D02*
X216615000Y-140825000D01*
X209265000Y-142095000D02*
X209265000Y-140825000D01*
X209265000Y-134965000D02*
X209265000Y-136235000D01*
X216615000Y-134965000D02*
X216615000Y-136235000D01*
X216615000Y-142095000D02*
X209265000Y-142095000D01*
X216615000Y-134965000D02*
X209265000Y-134965000D01*
X216615000Y-140825000D02*
X217900000Y-140825000D01*
X205600000Y-122270000D02*
X205600000Y-125670000D01*
X205602944Y-122272944D02*
G75*
G02X209700000Y-123970000I1697056J-1697056D01*
G01*
X205602944Y-125667056D02*
G75*
G03X209700000Y-123970000I1697056J1697056D01*
G01*
X192250000Y-132800000D02*
X184250000Y-132800000D01*
X184250000Y-132800000D02*
X184250000Y-142800000D01*
X184250000Y-142800000D02*
X192250000Y-142800000D01*
X192250000Y-142800000D02*
X192250000Y-137800000D01*
X192250000Y-137800000D02*
X192250000Y-132800000D01*
X224700000Y-121100000D02*
X216700000Y-121100000D01*
X216700000Y-121100000D02*
X216700000Y-131100000D01*
X216700000Y-131100000D02*
X224700000Y-131100000D01*
X224700000Y-131100000D02*
X224700000Y-126100000D01*
X224700000Y-126100000D02*
X224700000Y-121100000D01*
D11*
X186000000Y-127600000D02*
X191250000Y-127600000D01*
D15*
X192750000Y-126000000D02*
X192750000Y-129250000D01*
X192750000Y-129250000D02*
X184250000Y-129250000D01*
X184250000Y-129250000D02*
X184250000Y-122750000D01*
X184250000Y-122750000D02*
X192750000Y-122750000D01*
X192750000Y-122750000D02*
X192750000Y-126000000D01*
D11*
X196700000Y-127600000D02*
X201950000Y-127600000D01*
D15*
X203450000Y-126000000D02*
X203450000Y-129250000D01*
X203450000Y-129250000D02*
X194950000Y-129250000D01*
X194950000Y-129250000D02*
X194950000Y-122750000D01*
X194950000Y-122750000D02*
X203450000Y-122750000D01*
X203450000Y-122750000D02*
X203450000Y-126000000D01*
X209899000Y-131486000D02*
X209899000Y-131686000D01*
X209899000Y-134080000D02*
X209899000Y-133900000D01*
X206671256Y-133769643D02*
G75*
G03X209899000Y-134086000I1727744J1003643D01*
G01*
X207346994Y-133899068D02*
G75*
G03X209450000Y-133900000I1052006J1133068D01*
G01*
X209886220Y-131459274D02*
G75*
G03X206649000Y-131806000I-1497220J-1306726D01*
G01*
X209412889Y-131686747D02*
G75*
G03X207365000Y-131706000I-1013889J-1079253D01*
G01*
X207870000Y-127580000D02*
X210410000Y-127580000D01*
X205050000Y-127300000D02*
X206600000Y-127300000D01*
X207870000Y-127580000D02*
X207870000Y-130120000D01*
X206600000Y-130400000D02*
X205050000Y-130400000D01*
X205050000Y-130400000D02*
X205050000Y-127300000D01*
X207870000Y-130120000D02*
X210410000Y-130120000D01*
X210410000Y-130120000D02*
X210410000Y-127580000D01*
D16*
G36*
X192940680Y-131856200D02*
X192958460Y-131848580D01*
X192991480Y-131825720D01*
X193042280Y-131792700D01*
X193100700Y-131754600D01*
X193161660Y-131713960D01*
X193209920Y-131680940D01*
X193245480Y-131658080D01*
X193258180Y-131650460D01*
X193265800Y-131653000D01*
X193293740Y-131668240D01*
X193334380Y-131688560D01*
X193359780Y-131701260D01*
X193397880Y-131716500D01*
X193415660Y-131721580D01*
X193418200Y-131716500D01*
X193433440Y-131686020D01*
X193453760Y-131637760D01*
X193481700Y-131571720D01*
X193514720Y-131495520D01*
X193550280Y-131414240D01*
X193583300Y-131330420D01*
X193616320Y-131251680D01*
X193646800Y-131178020D01*
X193669660Y-131119600D01*
X193684900Y-131078960D01*
X193692520Y-131061180D01*
X193689980Y-131058640D01*
X193672200Y-131040860D01*
X193639180Y-131015460D01*
X193568060Y-130957040D01*
X193496940Y-130870680D01*
X193453760Y-130771620D01*
X193441060Y-130659860D01*
X193451220Y-130558260D01*
X193491860Y-130461740D01*
X193560440Y-130372840D01*
X193644260Y-130306800D01*
X193740780Y-130266160D01*
X193850000Y-130253460D01*
X193954140Y-130263620D01*
X194053200Y-130304260D01*
X194142100Y-130370300D01*
X194180200Y-130413480D01*
X194231000Y-130504920D01*
X194261480Y-130598900D01*
X194264020Y-130621760D01*
X194258940Y-130728440D01*
X194228460Y-130830040D01*
X194172580Y-130918940D01*
X194096380Y-130992600D01*
X194086220Y-131000220D01*
X194050660Y-131028160D01*
X194025260Y-131045940D01*
X194007480Y-131061180D01*
X194142100Y-131383760D01*
X194162420Y-131434560D01*
X194200520Y-131523460D01*
X194231000Y-131599660D01*
X194258940Y-131660620D01*
X194276720Y-131701260D01*
X194284340Y-131716500D01*
X194284340Y-131716500D01*
X194297040Y-131719040D01*
X194319900Y-131711420D01*
X194365620Y-131688560D01*
X194396100Y-131673320D01*
X194429120Y-131658080D01*
X194444360Y-131650460D01*
X194459600Y-131658080D01*
X194492620Y-131678400D01*
X194538340Y-131711420D01*
X194596760Y-131749520D01*
X194652640Y-131787620D01*
X194703440Y-131820640D01*
X194739000Y-131846040D01*
X194756780Y-131853660D01*
X194759320Y-131853660D01*
X194777100Y-131846040D01*
X194805040Y-131820640D01*
X194848220Y-131780000D01*
X194911720Y-131719040D01*
X194921880Y-131708880D01*
X194972680Y-131658080D01*
X195013320Y-131612360D01*
X195041260Y-131581880D01*
X195051420Y-131569180D01*
X195051420Y-131569180D01*
X195041260Y-131551400D01*
X195018400Y-131513300D01*
X194985380Y-131462500D01*
X194944740Y-131401540D01*
X194838060Y-131246600D01*
X194896480Y-131101820D01*
X194914260Y-131056100D01*
X194937120Y-131000220D01*
X194954900Y-130962120D01*
X194962520Y-130944340D01*
X194980300Y-130939260D01*
X195018400Y-130929100D01*
X195076820Y-130918940D01*
X195147940Y-130906240D01*
X195213980Y-130893540D01*
X195272400Y-130880840D01*
X195315580Y-130873220D01*
X195335900Y-130870680D01*
X195340980Y-130865600D01*
X195343520Y-130857980D01*
X195346060Y-130837660D01*
X195348600Y-130799560D01*
X195348600Y-130743680D01*
X195348600Y-130659860D01*
X195348600Y-130652240D01*
X195348600Y-130573500D01*
X195346060Y-130510000D01*
X195343520Y-130471900D01*
X195340980Y-130454120D01*
X195340980Y-130454120D01*
X195323200Y-130449040D01*
X195280020Y-130441420D01*
X195221600Y-130428720D01*
X195150480Y-130416020D01*
X195145400Y-130416020D01*
X195074280Y-130400780D01*
X195015860Y-130388080D01*
X194972680Y-130380460D01*
X194954900Y-130372840D01*
X194952360Y-130367760D01*
X194937120Y-130339820D01*
X194916800Y-130296640D01*
X194893940Y-130243300D01*
X194871080Y-130187420D01*
X194850760Y-130136620D01*
X194838060Y-130101060D01*
X194832980Y-130083280D01*
X194832980Y-130083280D01*
X194843140Y-130065500D01*
X194868540Y-130029940D01*
X194904100Y-129979140D01*
X194944740Y-129918180D01*
X194947280Y-129913100D01*
X194987920Y-129852140D01*
X195020940Y-129801340D01*
X195043800Y-129765780D01*
X195051420Y-129750540D01*
X195051420Y-129748000D01*
X195038720Y-129730220D01*
X195008240Y-129697200D01*
X194962520Y-129651480D01*
X194911720Y-129598140D01*
X194893940Y-129582900D01*
X194835520Y-129524480D01*
X194794880Y-129488920D01*
X194769480Y-129468600D01*
X194759320Y-129463520D01*
X194756780Y-129463520D01*
X194739000Y-129473680D01*
X194700900Y-129499080D01*
X194650100Y-129534640D01*
X194589140Y-129575280D01*
X194586600Y-129577820D01*
X194525640Y-129618460D01*
X194474840Y-129654020D01*
X194439280Y-129676880D01*
X194424040Y-129684500D01*
X194421500Y-129684500D01*
X194398640Y-129679420D01*
X194355460Y-129664180D01*
X194302120Y-129643860D01*
X194246240Y-129621000D01*
X194195440Y-129600680D01*
X194159880Y-129582900D01*
X194142100Y-129572740D01*
X194139560Y-129572740D01*
X194134480Y-129549880D01*
X194124320Y-129504160D01*
X194111620Y-129443200D01*
X194096380Y-129369540D01*
X194093840Y-129359380D01*
X194081140Y-129285720D01*
X194070980Y-129227300D01*
X194060820Y-129186660D01*
X194058280Y-129168880D01*
X194048120Y-129168880D01*
X194012560Y-129166340D01*
X193959220Y-129163800D01*
X193893180Y-129163800D01*
X193827140Y-129163800D01*
X193761100Y-129163800D01*
X193705220Y-129166340D01*
X193664580Y-129168880D01*
X193646800Y-129173960D01*
X193646800Y-129173960D01*
X193641720Y-129196820D01*
X193631560Y-129240000D01*
X193618860Y-129303500D01*
X193603620Y-129377160D01*
X193601080Y-129389860D01*
X193588380Y-129460980D01*
X193575680Y-129519400D01*
X193568060Y-129560040D01*
X193562980Y-129575280D01*
X193557900Y-129577820D01*
X193527420Y-129593060D01*
X193479160Y-129610840D01*
X193420740Y-129636240D01*
X193283580Y-129692120D01*
X193115940Y-129575280D01*
X193100700Y-129565120D01*
X193039740Y-129524480D01*
X192988940Y-129491460D01*
X192953380Y-129468600D01*
X192940680Y-129460980D01*
X192938140Y-129460980D01*
X192922900Y-129476220D01*
X192889880Y-129506700D01*
X192844160Y-129552420D01*
X192790820Y-129603220D01*
X192750180Y-129643860D01*
X192704460Y-129689580D01*
X192676520Y-129722600D01*
X192658740Y-129742920D01*
X192653660Y-129755620D01*
X192656200Y-129763240D01*
X192666360Y-129781020D01*
X192691760Y-129816580D01*
X192724780Y-129869920D01*
X192765420Y-129928340D01*
X192800980Y-129979140D01*
X192836540Y-130035020D01*
X192859400Y-130075660D01*
X192869560Y-130093440D01*
X192867020Y-130103600D01*
X192854320Y-130136620D01*
X192834000Y-130184880D01*
X192808600Y-130245840D01*
X192750180Y-130377920D01*
X192663820Y-130395700D01*
X192610480Y-130405860D01*
X192536820Y-130418560D01*
X192465700Y-130433800D01*
X192353940Y-130454120D01*
X192351400Y-130857980D01*
X192369180Y-130865600D01*
X192384420Y-130870680D01*
X192425060Y-130880840D01*
X192483480Y-130891000D01*
X192552060Y-130903700D01*
X192613020Y-130916400D01*
X192671440Y-130926560D01*
X192714620Y-130934180D01*
X192732400Y-130939260D01*
X192737480Y-130944340D01*
X192752720Y-130974820D01*
X192773040Y-131020540D01*
X192795900Y-131073880D01*
X192821300Y-131132300D01*
X192841620Y-131183100D01*
X192856860Y-131223740D01*
X192861940Y-131244060D01*
X192854320Y-131259300D01*
X192831460Y-131294860D01*
X192798440Y-131345660D01*
X192757800Y-131404080D01*
X192717160Y-131462500D01*
X192684140Y-131513300D01*
X192658740Y-131548860D01*
X192651120Y-131566640D01*
X192656200Y-131576800D01*
X192679060Y-131604740D01*
X192722240Y-131650460D01*
X192788280Y-131716500D01*
X192800980Y-131726660D01*
X192851780Y-131777460D01*
X192897500Y-131818100D01*
X192927980Y-131846040D01*
X192940680Y-131856200D01*
X192940680Y-131856200D01*
G37*
X192940680Y-131856200D02*
X192958460Y-131848580D01*
X192991480Y-131825720D01*
X193042280Y-131792700D01*
X193100700Y-131754600D01*
X193161660Y-131713960D01*
X193209920Y-131680940D01*
X193245480Y-131658080D01*
X193258180Y-131650460D01*
X193265800Y-131653000D01*
X193293740Y-131668240D01*
X193334380Y-131688560D01*
X193359780Y-131701260D01*
X193397880Y-131716500D01*
X193415660Y-131721580D01*
X193418200Y-131716500D01*
X193433440Y-131686020D01*
X193453760Y-131637760D01*
X193481700Y-131571720D01*
X193514720Y-131495520D01*
X193550280Y-131414240D01*
X193583300Y-131330420D01*
X193616320Y-131251680D01*
X193646800Y-131178020D01*
X193669660Y-131119600D01*
X193684900Y-131078960D01*
X193692520Y-131061180D01*
X193689980Y-131058640D01*
X193672200Y-131040860D01*
X193639180Y-131015460D01*
X193568060Y-130957040D01*
X193496940Y-130870680D01*
X193453760Y-130771620D01*
X193441060Y-130659860D01*
X193451220Y-130558260D01*
X193491860Y-130461740D01*
X193560440Y-130372840D01*
X193644260Y-130306800D01*
X193740780Y-130266160D01*
X193850000Y-130253460D01*
X193954140Y-130263620D01*
X194053200Y-130304260D01*
X194142100Y-130370300D01*
X194180200Y-130413480D01*
X194231000Y-130504920D01*
X194261480Y-130598900D01*
X194264020Y-130621760D01*
X194258940Y-130728440D01*
X194228460Y-130830040D01*
X194172580Y-130918940D01*
X194096380Y-130992600D01*
X194086220Y-131000220D01*
X194050660Y-131028160D01*
X194025260Y-131045940D01*
X194007480Y-131061180D01*
X194142100Y-131383760D01*
X194162420Y-131434560D01*
X194200520Y-131523460D01*
X194231000Y-131599660D01*
X194258940Y-131660620D01*
X194276720Y-131701260D01*
X194284340Y-131716500D01*
X194284340Y-131716500D01*
X194297040Y-131719040D01*
X194319900Y-131711420D01*
X194365620Y-131688560D01*
X194396100Y-131673320D01*
X194429120Y-131658080D01*
X194444360Y-131650460D01*
X194459600Y-131658080D01*
X194492620Y-131678400D01*
X194538340Y-131711420D01*
X194596760Y-131749520D01*
X194652640Y-131787620D01*
X194703440Y-131820640D01*
X194739000Y-131846040D01*
X194756780Y-131853660D01*
X194759320Y-131853660D01*
X194777100Y-131846040D01*
X194805040Y-131820640D01*
X194848220Y-131780000D01*
X194911720Y-131719040D01*
X194921880Y-131708880D01*
X194972680Y-131658080D01*
X195013320Y-131612360D01*
X195041260Y-131581880D01*
X195051420Y-131569180D01*
X195051420Y-131569180D01*
X195041260Y-131551400D01*
X195018400Y-131513300D01*
X194985380Y-131462500D01*
X194944740Y-131401540D01*
X194838060Y-131246600D01*
X194896480Y-131101820D01*
X194914260Y-131056100D01*
X194937120Y-131000220D01*
X194954900Y-130962120D01*
X194962520Y-130944340D01*
X194980300Y-130939260D01*
X195018400Y-130929100D01*
X195076820Y-130918940D01*
X195147940Y-130906240D01*
X195213980Y-130893540D01*
X195272400Y-130880840D01*
X195315580Y-130873220D01*
X195335900Y-130870680D01*
X195340980Y-130865600D01*
X195343520Y-130857980D01*
X195346060Y-130837660D01*
X195348600Y-130799560D01*
X195348600Y-130743680D01*
X195348600Y-130659860D01*
X195348600Y-130652240D01*
X195348600Y-130573500D01*
X195346060Y-130510000D01*
X195343520Y-130471900D01*
X195340980Y-130454120D01*
X195340980Y-130454120D01*
X195323200Y-130449040D01*
X195280020Y-130441420D01*
X195221600Y-130428720D01*
X195150480Y-130416020D01*
X195145400Y-130416020D01*
X195074280Y-130400780D01*
X195015860Y-130388080D01*
X194972680Y-130380460D01*
X194954900Y-130372840D01*
X194952360Y-130367760D01*
X194937120Y-130339820D01*
X194916800Y-130296640D01*
X194893940Y-130243300D01*
X194871080Y-130187420D01*
X194850760Y-130136620D01*
X194838060Y-130101060D01*
X194832980Y-130083280D01*
X194832980Y-130083280D01*
X194843140Y-130065500D01*
X194868540Y-130029940D01*
X194904100Y-129979140D01*
X194944740Y-129918180D01*
X194947280Y-129913100D01*
X194987920Y-129852140D01*
X195020940Y-129801340D01*
X195043800Y-129765780D01*
X195051420Y-129750540D01*
X195051420Y-129748000D01*
X195038720Y-129730220D01*
X195008240Y-129697200D01*
X194962520Y-129651480D01*
X194911720Y-129598140D01*
X194893940Y-129582900D01*
X194835520Y-129524480D01*
X194794880Y-129488920D01*
X194769480Y-129468600D01*
X194759320Y-129463520D01*
X194756780Y-129463520D01*
X194739000Y-129473680D01*
X194700900Y-129499080D01*
X194650100Y-129534640D01*
X194589140Y-129575280D01*
X194586600Y-129577820D01*
X194525640Y-129618460D01*
X194474840Y-129654020D01*
X194439280Y-129676880D01*
X194424040Y-129684500D01*
X194421500Y-129684500D01*
X194398640Y-129679420D01*
X194355460Y-129664180D01*
X194302120Y-129643860D01*
X194246240Y-129621000D01*
X194195440Y-129600680D01*
X194159880Y-129582900D01*
X194142100Y-129572740D01*
X194139560Y-129572740D01*
X194134480Y-129549880D01*
X194124320Y-129504160D01*
X194111620Y-129443200D01*
X194096380Y-129369540D01*
X194093840Y-129359380D01*
X194081140Y-129285720D01*
X194070980Y-129227300D01*
X194060820Y-129186660D01*
X194058280Y-129168880D01*
X194048120Y-129168880D01*
X194012560Y-129166340D01*
X193959220Y-129163800D01*
X193893180Y-129163800D01*
X193827140Y-129163800D01*
X193761100Y-129163800D01*
X193705220Y-129166340D01*
X193664580Y-129168880D01*
X193646800Y-129173960D01*
X193646800Y-129173960D01*
X193641720Y-129196820D01*
X193631560Y-129240000D01*
X193618860Y-129303500D01*
X193603620Y-129377160D01*
X193601080Y-129389860D01*
X193588380Y-129460980D01*
X193575680Y-129519400D01*
X193568060Y-129560040D01*
X193562980Y-129575280D01*
X193557900Y-129577820D01*
X193527420Y-129593060D01*
X193479160Y-129610840D01*
X193420740Y-129636240D01*
X193283580Y-129692120D01*
X193115940Y-129575280D01*
X193100700Y-129565120D01*
X193039740Y-129524480D01*
X192988940Y-129491460D01*
X192953380Y-129468600D01*
X192940680Y-129460980D01*
X192938140Y-129460980D01*
X192922900Y-129476220D01*
X192889880Y-129506700D01*
X192844160Y-129552420D01*
X192790820Y-129603220D01*
X192750180Y-129643860D01*
X192704460Y-129689580D01*
X192676520Y-129722600D01*
X192658740Y-129742920D01*
X192653660Y-129755620D01*
X192656200Y-129763240D01*
X192666360Y-129781020D01*
X192691760Y-129816580D01*
X192724780Y-129869920D01*
X192765420Y-129928340D01*
X192800980Y-129979140D01*
X192836540Y-130035020D01*
X192859400Y-130075660D01*
X192869560Y-130093440D01*
X192867020Y-130103600D01*
X192854320Y-130136620D01*
X192834000Y-130184880D01*
X192808600Y-130245840D01*
X192750180Y-130377920D01*
X192663820Y-130395700D01*
X192610480Y-130405860D01*
X192536820Y-130418560D01*
X192465700Y-130433800D01*
X192353940Y-130454120D01*
X192351400Y-130857980D01*
X192369180Y-130865600D01*
X192384420Y-130870680D01*
X192425060Y-130880840D01*
X192483480Y-130891000D01*
X192552060Y-130903700D01*
X192613020Y-130916400D01*
X192671440Y-130926560D01*
X192714620Y-130934180D01*
X192732400Y-130939260D01*
X192737480Y-130944340D01*
X192752720Y-130974820D01*
X192773040Y-131020540D01*
X192795900Y-131073880D01*
X192821300Y-131132300D01*
X192841620Y-131183100D01*
X192856860Y-131223740D01*
X192861940Y-131244060D01*
X192854320Y-131259300D01*
X192831460Y-131294860D01*
X192798440Y-131345660D01*
X192757800Y-131404080D01*
X192717160Y-131462500D01*
X192684140Y-131513300D01*
X192658740Y-131548860D01*
X192651120Y-131566640D01*
X192656200Y-131576800D01*
X192679060Y-131604740D01*
X192722240Y-131650460D01*
X192788280Y-131716500D01*
X192800980Y-131726660D01*
X192851780Y-131777460D01*
X192897500Y-131818100D01*
X192927980Y-131846040D01*
X192940680Y-131856200D01*
D15*
X194894200Y-139268200D02*
X194894200Y-134188200D01*
X194894200Y-134188200D02*
X197434200Y-134188200D01*
X197434200Y-134188200D02*
X197434200Y-139268200D01*
X197434200Y-139268200D02*
X194894200Y-139268200D01*
X218287600Y-139522200D02*
X218287600Y-134442200D01*
X218287600Y-134442200D02*
X220827600Y-134442200D01*
X220827600Y-134442200D02*
X220827600Y-139522200D01*
X220827600Y-139522200D02*
X218287600Y-139522200D01*
X197612000Y-139268200D02*
X197612000Y-134188200D01*
X197612000Y-134188200D02*
X200152000Y-134188200D01*
X200152000Y-134188200D02*
X200152000Y-139268200D01*
X200152000Y-139268200D02*
X197612000Y-139268200D01*
X200329800Y-139293600D02*
X200329800Y-134213600D01*
X200329800Y-134213600D02*
X202869800Y-134213600D01*
X202869800Y-134213600D02*
X202869800Y-139293600D01*
X202869800Y-139293600D02*
X200329800Y-139293600D01*
X203047600Y-139268200D02*
X203047600Y-134188200D01*
X203047600Y-134188200D02*
X205587600Y-134188200D01*
X205587600Y-134188200D02*
X205587600Y-139268200D01*
X205587600Y-139268200D02*
X203047600Y-139268200D01*
X213791895Y-139431781D02*
X213791895Y-140241305D01*
X213839514Y-140336543D01*
X213887133Y-140384162D01*
X213982371Y-140431781D01*
X214172848Y-140431781D01*
X214268086Y-140384162D01*
X214315705Y-140336543D01*
X214363324Y-140241305D01*
X214363324Y-139431781D01*
X215363324Y-140431781D02*
X214791895Y-140431781D01*
X215077609Y-140431781D02*
X215077609Y-139431781D01*
X214982371Y-139574638D01*
X214887133Y-139669876D01*
X214791895Y-139717495D01*
X209411819Y-124123438D02*
X209364200Y-124218676D01*
X209268962Y-124313914D01*
X209126105Y-124456771D01*
X209078486Y-124552010D01*
X209078486Y-124647248D01*
X209316581Y-124599629D02*
X209268962Y-124694867D01*
X209173724Y-124790105D01*
X208983248Y-124837724D01*
X208649914Y-124837724D01*
X208459438Y-124790105D01*
X208364200Y-124694867D01*
X208316581Y-124599629D01*
X208316581Y-124409152D01*
X208364200Y-124313914D01*
X208459438Y-124218676D01*
X208649914Y-124171057D01*
X208983248Y-124171057D01*
X209173724Y-124218676D01*
X209268962Y-124313914D01*
X209316581Y-124409152D01*
X209316581Y-124599629D01*
X209316581Y-123218676D02*
X209316581Y-123790105D01*
X209316581Y-123504391D02*
X208316581Y-123504391D01*
X208459438Y-123599629D01*
X208554676Y-123694867D01*
X208602295Y-123790105D01*
X186202381Y-136038095D02*
X185202381Y-136038095D01*
X185202381Y-135657142D01*
X185250000Y-135561904D01*
X185297619Y-135514285D01*
X185392857Y-135466666D01*
X185535714Y-135466666D01*
X185630952Y-135514285D01*
X185678571Y-135561904D01*
X185726190Y-135657142D01*
X185726190Y-136038095D01*
X185297619Y-135085714D02*
X185250000Y-135038095D01*
X185202381Y-134942857D01*
X185202381Y-134704761D01*
X185250000Y-134609523D01*
X185297619Y-134561904D01*
X185392857Y-134514285D01*
X185488095Y-134514285D01*
X185630952Y-134561904D01*
X186202381Y-135133333D01*
X186202381Y-134514285D01*
X218652381Y-124338095D02*
X217652381Y-124338095D01*
X217652381Y-123957142D01*
X217700000Y-123861904D01*
X217747619Y-123814285D01*
X217842857Y-123766666D01*
X217985714Y-123766666D01*
X218080952Y-123814285D01*
X218128571Y-123861904D01*
X218176190Y-123957142D01*
X218176190Y-124338095D01*
X218652381Y-122814285D02*
X218652381Y-123385714D01*
X218652381Y-123100000D02*
X217652381Y-123100000D01*
X217795238Y-123195238D01*
X217890476Y-123290476D01*
X217938095Y-123385714D01*
X187061905Y-128752381D02*
X187061905Y-127752381D01*
X187442858Y-127752381D01*
X187538096Y-127800000D01*
X187585715Y-127847619D01*
X187633334Y-127942857D01*
X187633334Y-128085714D01*
X187585715Y-128180952D01*
X187538096Y-128228571D01*
X187442858Y-128276190D01*
X187061905Y-128276190D01*
X187966667Y-127752381D02*
X188585715Y-127752381D01*
X188252381Y-128133333D01*
X188395239Y-128133333D01*
X188490477Y-128180952D01*
X188538096Y-128228571D01*
X188585715Y-128323810D01*
X188585715Y-128561905D01*
X188538096Y-128657143D01*
X188490477Y-128704762D01*
X188395239Y-128752381D01*
X188109524Y-128752381D01*
X188014286Y-128704762D01*
X187966667Y-128657143D01*
X197761905Y-128752381D02*
X197761905Y-127752381D01*
X198142858Y-127752381D01*
X198238096Y-127800000D01*
X198285715Y-127847619D01*
X198333334Y-127942857D01*
X198333334Y-128085714D01*
X198285715Y-128180952D01*
X198238096Y-128228571D01*
X198142858Y-128276190D01*
X197761905Y-128276190D01*
X199190477Y-128085714D02*
X199190477Y-128752381D01*
X198952381Y-127704762D02*
X198714286Y-128419048D01*
X199333334Y-128419048D01*
X211128095Y-131512381D02*
X211128095Y-130512381D01*
X211699524Y-131512381D02*
X211270952Y-130940952D01*
X211699524Y-130512381D02*
X211128095Y-131083810D01*
X196133981Y-135320066D02*
X195657790Y-135653400D01*
X196133981Y-135891495D02*
X195133981Y-135891495D01*
X195133981Y-135510542D01*
X195181600Y-135415304D01*
X195229219Y-135367685D01*
X195324457Y-135320066D01*
X195467314Y-135320066D01*
X195562552Y-135367685D01*
X195610171Y-135415304D01*
X195657790Y-135510542D01*
X195657790Y-135891495D01*
X196133981Y-134367685D02*
X196133981Y-134939114D01*
X196133981Y-134653400D02*
X195133981Y-134653400D01*
X195276838Y-134748638D01*
X195372076Y-134843876D01*
X195419695Y-134939114D01*
X219501981Y-135624866D02*
X219025790Y-135958200D01*
X219501981Y-136196295D02*
X218501981Y-136196295D01*
X218501981Y-135815342D01*
X218549600Y-135720104D01*
X218597219Y-135672485D01*
X218692457Y-135624866D01*
X218835314Y-135624866D01*
X218930552Y-135672485D01*
X218978171Y-135720104D01*
X219025790Y-135815342D01*
X219025790Y-136196295D01*
X218597219Y-135243914D02*
X218549600Y-135196295D01*
X218501981Y-135101057D01*
X218501981Y-134862961D01*
X218549600Y-134767723D01*
X218597219Y-134720104D01*
X218692457Y-134672485D01*
X218787695Y-134672485D01*
X218930552Y-134720104D01*
X219501981Y-135291533D01*
X219501981Y-134672485D01*
X198851781Y-135294666D02*
X198375590Y-135628000D01*
X198851781Y-135866095D02*
X197851781Y-135866095D01*
X197851781Y-135485142D01*
X197899400Y-135389904D01*
X197947019Y-135342285D01*
X198042257Y-135294666D01*
X198185114Y-135294666D01*
X198280352Y-135342285D01*
X198327971Y-135389904D01*
X198375590Y-135485142D01*
X198375590Y-135866095D01*
X197851781Y-134961333D02*
X197851781Y-134342285D01*
X198232733Y-134675619D01*
X198232733Y-134532761D01*
X198280352Y-134437523D01*
X198327971Y-134389904D01*
X198423210Y-134342285D01*
X198661305Y-134342285D01*
X198756543Y-134389904D01*
X198804162Y-134437523D01*
X198851781Y-134532761D01*
X198851781Y-134818476D01*
X198804162Y-134913714D01*
X198756543Y-134961333D01*
X201544181Y-135421666D02*
X201067990Y-135755000D01*
X201544181Y-135993095D02*
X200544181Y-135993095D01*
X200544181Y-135612142D01*
X200591800Y-135516904D01*
X200639419Y-135469285D01*
X200734657Y-135421666D01*
X200877514Y-135421666D01*
X200972752Y-135469285D01*
X201020371Y-135516904D01*
X201067990Y-135612142D01*
X201067990Y-135993095D01*
X200877514Y-134564523D02*
X201544181Y-134564523D01*
X200496562Y-134802619D02*
X201210848Y-135040714D01*
X201210848Y-134421666D01*
X204236581Y-135345466D02*
X203760390Y-135678800D01*
X204236581Y-135916895D02*
X203236581Y-135916895D01*
X203236581Y-135535942D01*
X203284200Y-135440704D01*
X203331819Y-135393085D01*
X203427057Y-135345466D01*
X203569914Y-135345466D01*
X203665152Y-135393085D01*
X203712771Y-135440704D01*
X203760390Y-135535942D01*
X203760390Y-135916895D01*
X203236581Y-134440704D02*
X203236581Y-134916895D01*
X203712771Y-134964514D01*
X203665152Y-134916895D01*
X203617533Y-134821657D01*
X203617533Y-134583561D01*
X203665152Y-134488323D01*
X203712771Y-134440704D01*
X203808010Y-134393085D01*
X204046105Y-134393085D01*
X204141343Y-134440704D01*
X204188962Y-134488323D01*
X204236581Y-134583561D01*
X204236581Y-134821657D01*
X204188962Y-134916895D01*
X204141343Y-134964514D01*
M02*
