G04 #@! TF.FileFunction,Copper,L2,Bot,Signal*
%FSLAX46Y46*%
G04 Gerber Fmt 4.6, Leading zero omitted, Abs format (unit mm)*
G04 Created by KiCad (PCBNEW 4.0.4-stable) date 01/15/17 13:44:32*
%MOMM*%
%LPD*%
G01*
G04 APERTURE LIST*
%ADD10C,0.100000*%
%ADD11C,0.600000*%
%ADD12O,2.300000X1.600000*%
%ADD13O,1.501140X0.899160*%
%ADD14O,2.100000X1.900000*%
%ADD15C,1.900000*%
%ADD16R,1.900000X1.900000*%
%ADD17R,2.000000X2.000000*%
%ADD18C,2.000000*%
%ADD19R,2.032000X2.032000*%
%ADD20O,2.032000X2.032000*%
%ADD21C,1.998980*%
%ADD22C,1.000000*%
%ADD23C,0.500000*%
%ADD24C,0.250000*%
G04 APERTURE END LIST*
D10*
D11*
X216890000Y-133465000D03*
X220125000Y-136600000D03*
X218665000Y-130265000D03*
X185775000Y-133825000D03*
X209925000Y-135275000D03*
X206875000Y-138475000D03*
X206451200Y-135712200D03*
X210075000Y-141650000D03*
X190475000Y-137550000D03*
X194437000Y-135407400D03*
X193125000Y-133200000D03*
X201725000Y-130650000D03*
X203600000Y-127075000D03*
X185800000Y-128425000D03*
X193850000Y-127450000D03*
X191425000Y-130025000D03*
X205550000Y-123925000D03*
X191000000Y-134800000D03*
X200675000Y-127700000D03*
D12*
X216750000Y-139800000D03*
X216750000Y-137260000D03*
X209130000Y-137260000D03*
X209130000Y-139800000D03*
D11*
X186375000Y-137700000D03*
X222800000Y-140275000D03*
X217600000Y-125925000D03*
X222800000Y-136075000D03*
X223189800Y-129946400D03*
X223175000Y-122825000D03*
X222875000Y-127175000D03*
X222290000Y-132340000D03*
X207391000Y-141757400D03*
X191650000Y-140925000D03*
X186050000Y-130650000D03*
X185925000Y-141150000D03*
X193525000Y-137675000D03*
X199339200Y-135001000D03*
X193750000Y-125350000D03*
X206324200Y-140792200D03*
X193875000Y-130650000D03*
D13*
X207300000Y-123970000D03*
X207300000Y-125240000D03*
X207300000Y-122700000D03*
D11*
X216650000Y-122675000D03*
D14*
X188250000Y-135300000D03*
X188250000Y-140300000D03*
X220700000Y-123600000D03*
X220700000Y-128600000D03*
D15*
X188500000Y-126000000D03*
X191040000Y-126000000D03*
D16*
X185960000Y-126000000D03*
D15*
X199200000Y-126000000D03*
X201740000Y-126000000D03*
D16*
X196660000Y-126000000D03*
D17*
X209700000Y-132800000D03*
D18*
X207160000Y-132800000D03*
D19*
X206600000Y-128850000D03*
D20*
X209140000Y-128850000D03*
D21*
X196164200Y-140538200D03*
X196164200Y-132918200D03*
X219557600Y-140792200D03*
X219557600Y-133172200D03*
X198882000Y-140538200D03*
X198882000Y-132918200D03*
X201599800Y-140563600D03*
X201599800Y-132943600D03*
X204317600Y-140538200D03*
X204317600Y-132918200D03*
D11*
X196088000Y-138226800D03*
X203500000Y-135100000D03*
X204800000Y-136400000D03*
X204100000Y-137200000D03*
X202600000Y-135700000D03*
D22*
X198882000Y-140538200D02*
X198882000Y-139471400D01*
X197637400Y-138226800D02*
X196088000Y-138226800D01*
X198882000Y-139471400D02*
X197637400Y-138226800D01*
X206575000Y-126825000D02*
X206575000Y-128825000D01*
X206575000Y-128825000D02*
X206600000Y-128850000D01*
X209100000Y-126825000D02*
X209100000Y-128810000D01*
X209100000Y-128810000D02*
X209140000Y-128850000D01*
X206575000Y-126825000D02*
X209100000Y-126825000D01*
X209150000Y-128840000D02*
X209140000Y-128850000D01*
X191800000Y-136800000D02*
X191750000Y-136800000D01*
X191750000Y-136800000D02*
X188250000Y-140300000D01*
X199200000Y-136800000D02*
X191800000Y-136800000D01*
X207300000Y-125240000D02*
X205260000Y-125240000D01*
X192200000Y-136400000D02*
X191800000Y-136800000D01*
X192200000Y-133000000D02*
X192200000Y-136400000D01*
X194700000Y-130500000D02*
X192200000Y-133000000D01*
X200000000Y-130500000D02*
X194700000Y-130500000D01*
X205260000Y-125240000D02*
X200000000Y-130500000D01*
X201600000Y-139200000D02*
X199200000Y-136800000D01*
X204300000Y-140500000D02*
X201600000Y-140500000D01*
X201600000Y-140500000D02*
X201600000Y-139200000D01*
X196660000Y-126000000D02*
X196660000Y-125960000D01*
X196660000Y-125960000D02*
X193400000Y-122700000D01*
X185960000Y-126000000D02*
X185960000Y-124640000D01*
X187900000Y-122700000D02*
X193400000Y-122700000D01*
X193400000Y-122700000D02*
X207300000Y-122700000D01*
X185960000Y-124640000D02*
X187900000Y-122700000D01*
D23*
X204700000Y-130700000D02*
X204350000Y-131050000D01*
X204350000Y-131050000D02*
X204350000Y-132830000D01*
X204350000Y-132830000D02*
X204300000Y-132880000D01*
X207300000Y-123970000D02*
X209420000Y-123970000D01*
X209420000Y-123970000D02*
X210900000Y-125450000D01*
X210900000Y-125450000D02*
X210900000Y-129750000D01*
X210900000Y-129750000D02*
X209950000Y-130700000D01*
X209950000Y-130700000D02*
X204700000Y-130700000D01*
X204800000Y-136400000D02*
X203500000Y-135100000D01*
X204100000Y-137200000D02*
X202600000Y-135700000D01*
D24*
G36*
X195072756Y-125963746D02*
X195072756Y-126950000D01*
X195116337Y-127181611D01*
X195253219Y-127394332D01*
X195462076Y-127537038D01*
X195710000Y-127587244D01*
X197610000Y-127587244D01*
X197841611Y-127543663D01*
X198054332Y-127406781D01*
X198186210Y-127213772D01*
X198306669Y-127334441D01*
X198885339Y-127574726D01*
X199511912Y-127575273D01*
X200091000Y-127335999D01*
X200470273Y-126957387D01*
X200846669Y-127334441D01*
X201425339Y-127574726D01*
X202051912Y-127575273D01*
X202631000Y-127335999D01*
X203074441Y-126893331D01*
X203314726Y-126314661D01*
X203315273Y-125688088D01*
X203075999Y-125109000D01*
X202633331Y-124665559D01*
X202054661Y-124425274D01*
X201428088Y-124424727D01*
X200849000Y-124664001D01*
X200469727Y-125042613D01*
X200093331Y-124665559D01*
X199514661Y-124425274D01*
X198888088Y-124424727D01*
X198309000Y-124664001D01*
X198184373Y-124788411D01*
X198066781Y-124605668D01*
X197857924Y-124462962D01*
X197610000Y-124412756D01*
X196703746Y-124412756D01*
X196115990Y-123825000D01*
X205926323Y-123825000D01*
X205897481Y-123970000D01*
X205979279Y-124381224D01*
X206131196Y-124608585D01*
X205964419Y-124949579D01*
X206089227Y-125115000D01*
X207175000Y-125115000D01*
X207175000Y-125095000D01*
X207425000Y-125095000D01*
X207425000Y-125115000D01*
X208510773Y-125115000D01*
X208635581Y-124949579D01*
X208584432Y-124845000D01*
X209057564Y-124845000D01*
X210025000Y-125812436D01*
X210025000Y-126223323D01*
X209895495Y-126029505D01*
X209530519Y-125785636D01*
X209100000Y-125700000D01*
X208552641Y-125700000D01*
X208635581Y-125530421D01*
X208510773Y-125365000D01*
X207425000Y-125365000D01*
X207425000Y-125385000D01*
X207175000Y-125385000D01*
X207175000Y-125365000D01*
X206089227Y-125365000D01*
X205964419Y-125530421D01*
X206102848Y-125813454D01*
X205779505Y-126029505D01*
X205535636Y-126394481D01*
X205450000Y-126825000D01*
X205450000Y-127221970D01*
X205352389Y-127240337D01*
X205139668Y-127377219D01*
X204996962Y-127586076D01*
X204946756Y-127834000D01*
X204946756Y-129825000D01*
X204700000Y-129825000D01*
X204365152Y-129891605D01*
X204081282Y-130081281D01*
X203731282Y-130431282D01*
X203541605Y-130715152D01*
X203475000Y-131050000D01*
X203475000Y-131508654D01*
X203398602Y-131540221D01*
X202945633Y-131992400D01*
X202521201Y-131567227D01*
X201924349Y-131319392D01*
X201278087Y-131318828D01*
X200680802Y-131565621D01*
X200253233Y-131992445D01*
X199803401Y-131541827D01*
X199206549Y-131293992D01*
X198560287Y-131293428D01*
X197963002Y-131540221D01*
X197522733Y-131979722D01*
X197085601Y-131541827D01*
X196488749Y-131293992D01*
X195842487Y-131293428D01*
X195245202Y-131540221D01*
X194787827Y-131996799D01*
X194539992Y-132593651D01*
X194539428Y-133239913D01*
X194786221Y-133837198D01*
X195242799Y-134294573D01*
X195839651Y-134542408D01*
X196485913Y-134542972D01*
X197083198Y-134296179D01*
X197523467Y-133856678D01*
X197960599Y-134294573D01*
X198557451Y-134542408D01*
X199203713Y-134542972D01*
X199800998Y-134296179D01*
X200228567Y-133869355D01*
X200678399Y-134319973D01*
X201275251Y-134567808D01*
X201921513Y-134568372D01*
X202518798Y-134321579D01*
X202971767Y-133869400D01*
X203288396Y-134186582D01*
X202976714Y-134315366D01*
X202716280Y-134575345D01*
X202633364Y-134775029D01*
X202416813Y-134774840D01*
X202076714Y-134915366D01*
X201816280Y-135175345D01*
X201675161Y-135515199D01*
X201674840Y-135883187D01*
X201815366Y-136223286D01*
X202075345Y-136483720D01*
X202196657Y-136534093D01*
X203265736Y-137603173D01*
X203315366Y-137723286D01*
X203575345Y-137983720D01*
X203915199Y-138124839D01*
X204283187Y-138125160D01*
X204623286Y-137984634D01*
X204883720Y-137724655D01*
X205024839Y-137384801D01*
X205024906Y-137307922D01*
X205323286Y-137184634D01*
X205583720Y-136924655D01*
X205724839Y-136584801D01*
X205725160Y-136216813D01*
X205584634Y-135876714D01*
X205324655Y-135616280D01*
X205203345Y-135565908D01*
X204334264Y-134696828D01*
X204284634Y-134576714D01*
X204250612Y-134542633D01*
X204639313Y-134542972D01*
X205236598Y-134296179D01*
X205693973Y-133839601D01*
X205762807Y-133673832D01*
X205781588Y-133719286D01*
X206238309Y-134176805D01*
X206835349Y-134424718D01*
X207481814Y-134425282D01*
X208079286Y-134178412D01*
X208153274Y-134104553D01*
X208243219Y-134244332D01*
X208452076Y-134387038D01*
X208700000Y-134437244D01*
X210700000Y-134437244D01*
X210875000Y-134404315D01*
X210875000Y-136934360D01*
X210831302Y-136714676D01*
X210522401Y-136252373D01*
X210060098Y-135943472D01*
X209514774Y-135835000D01*
X208745226Y-135835000D01*
X208199902Y-135943472D01*
X207737599Y-136252373D01*
X207428698Y-136714676D01*
X207320226Y-137260000D01*
X207428698Y-137805324D01*
X207737599Y-138267627D01*
X208130268Y-138530000D01*
X207737599Y-138792373D01*
X207428698Y-139254676D01*
X207320226Y-139800000D01*
X207428698Y-140345324D01*
X207737599Y-140807627D01*
X208199902Y-141116528D01*
X208745226Y-141225000D01*
X209514774Y-141225000D01*
X210060098Y-141116528D01*
X210522401Y-140807627D01*
X210831302Y-140345324D01*
X210875000Y-140125640D01*
X210875000Y-142250000D01*
X184800000Y-142250000D01*
X184800000Y-140859913D01*
X194539428Y-140859913D01*
X194786221Y-141457198D01*
X195242799Y-141914573D01*
X195839651Y-142162408D01*
X196485913Y-142162972D01*
X197083198Y-141916179D01*
X197523467Y-141476678D01*
X197960599Y-141914573D01*
X198557451Y-142162408D01*
X199203713Y-142162972D01*
X199800998Y-141916179D01*
X200008532Y-141709006D01*
X200631170Y-141709006D01*
X200730146Y-141973239D01*
X201335790Y-142198739D01*
X201981628Y-142175304D01*
X202469454Y-141973239D01*
X202568430Y-141709006D01*
X202543030Y-141683606D01*
X203348970Y-141683606D01*
X203447946Y-141947839D01*
X204053590Y-142173339D01*
X204699428Y-142149904D01*
X205187254Y-141947839D01*
X205286230Y-141683606D01*
X204317600Y-140714977D01*
X203348970Y-141683606D01*
X202543030Y-141683606D01*
X201599800Y-140740377D01*
X200631170Y-141709006D01*
X200008532Y-141709006D01*
X200258373Y-141459601D01*
X200258659Y-141458912D01*
X200454394Y-141532230D01*
X201423023Y-140563600D01*
X201776577Y-140563600D01*
X202745206Y-141532230D01*
X202992605Y-141439560D01*
X203172194Y-141506830D01*
X204140823Y-140538200D01*
X204494377Y-140538200D01*
X205463006Y-141506830D01*
X205657755Y-141433881D01*
X205799545Y-141575920D01*
X206139399Y-141717039D01*
X206507387Y-141717360D01*
X206847486Y-141576834D01*
X207107920Y-141316855D01*
X207249039Y-140977001D01*
X207249360Y-140609013D01*
X207108834Y-140268914D01*
X206848855Y-140008480D01*
X206509001Y-139867361D01*
X206141013Y-139867040D01*
X205857911Y-139984015D01*
X205727239Y-139668546D01*
X205463006Y-139569570D01*
X204494377Y-140538200D01*
X204140823Y-140538200D01*
X203172194Y-139569570D01*
X202924795Y-139662240D01*
X202745206Y-139594970D01*
X201776577Y-140563600D01*
X201423023Y-140563600D01*
X200454394Y-139594970D01*
X200277366Y-139661281D01*
X200259979Y-139619202D01*
X200059321Y-139418194D01*
X200631170Y-139418194D01*
X201599800Y-140386823D01*
X202568430Y-139418194D01*
X202558916Y-139392794D01*
X203348970Y-139392794D01*
X204317600Y-140361423D01*
X205286230Y-139392794D01*
X205187254Y-139128561D01*
X204581610Y-138903061D01*
X203935772Y-138926496D01*
X203447946Y-139128561D01*
X203348970Y-139392794D01*
X202558916Y-139392794D01*
X202469454Y-139153961D01*
X201863810Y-138928461D01*
X201217972Y-138951896D01*
X200730146Y-139153961D01*
X200631170Y-139418194D01*
X200059321Y-139418194D01*
X199980763Y-139339499D01*
X199921364Y-139040881D01*
X199677495Y-138675905D01*
X198432895Y-137431305D01*
X198360881Y-137383187D01*
X198067919Y-137187436D01*
X197637400Y-137101800D01*
X196088000Y-137101800D01*
X195657481Y-137187436D01*
X195292505Y-137431305D01*
X195048636Y-137796281D01*
X194963000Y-138226800D01*
X195048636Y-138657319D01*
X195292505Y-139022295D01*
X195401978Y-139095442D01*
X195245202Y-139160221D01*
X194787827Y-139616799D01*
X194539992Y-140213651D01*
X194539428Y-140859913D01*
X184800000Y-140859913D01*
X184800000Y-135300000D01*
X186542185Y-135300000D01*
X186662075Y-135902726D01*
X187003492Y-136413693D01*
X187514459Y-136755110D01*
X188117185Y-136875000D01*
X188382815Y-136875000D01*
X188985541Y-136755110D01*
X189496508Y-136413693D01*
X189837925Y-135902726D01*
X189957815Y-135300000D01*
X189837925Y-134697274D01*
X189496508Y-134186307D01*
X188985541Y-133844890D01*
X188382815Y-133725000D01*
X188117185Y-133725000D01*
X187514459Y-133844890D01*
X187003492Y-134186307D01*
X186662075Y-134697274D01*
X186542185Y-135300000D01*
X184800000Y-135300000D01*
X184800000Y-127544718D01*
X185010000Y-127587244D01*
X186910000Y-127587244D01*
X187141611Y-127543663D01*
X187354332Y-127406781D01*
X187486210Y-127213772D01*
X187606669Y-127334441D01*
X188185339Y-127574726D01*
X188811912Y-127575273D01*
X189391000Y-127335999D01*
X189770273Y-126957387D01*
X190146669Y-127334441D01*
X190725339Y-127574726D01*
X191351912Y-127575273D01*
X191931000Y-127335999D01*
X192374441Y-126893331D01*
X192614726Y-126314661D01*
X192615273Y-125688088D01*
X192375999Y-125109000D01*
X191933331Y-124665559D01*
X191354661Y-124425274D01*
X190728088Y-124424727D01*
X190149000Y-124664001D01*
X189769727Y-125042613D01*
X189393331Y-124665559D01*
X188814661Y-124425274D01*
X188188088Y-124424727D01*
X187609000Y-124664001D01*
X187484373Y-124788411D01*
X187452348Y-124738642D01*
X188365990Y-123825000D01*
X192934010Y-123825000D01*
X195072756Y-125963746D01*
X195072756Y-125963746D01*
G37*
X195072756Y-125963746D02*
X195072756Y-126950000D01*
X195116337Y-127181611D01*
X195253219Y-127394332D01*
X195462076Y-127537038D01*
X195710000Y-127587244D01*
X197610000Y-127587244D01*
X197841611Y-127543663D01*
X198054332Y-127406781D01*
X198186210Y-127213772D01*
X198306669Y-127334441D01*
X198885339Y-127574726D01*
X199511912Y-127575273D01*
X200091000Y-127335999D01*
X200470273Y-126957387D01*
X200846669Y-127334441D01*
X201425339Y-127574726D01*
X202051912Y-127575273D01*
X202631000Y-127335999D01*
X203074441Y-126893331D01*
X203314726Y-126314661D01*
X203315273Y-125688088D01*
X203075999Y-125109000D01*
X202633331Y-124665559D01*
X202054661Y-124425274D01*
X201428088Y-124424727D01*
X200849000Y-124664001D01*
X200469727Y-125042613D01*
X200093331Y-124665559D01*
X199514661Y-124425274D01*
X198888088Y-124424727D01*
X198309000Y-124664001D01*
X198184373Y-124788411D01*
X198066781Y-124605668D01*
X197857924Y-124462962D01*
X197610000Y-124412756D01*
X196703746Y-124412756D01*
X196115990Y-123825000D01*
X205926323Y-123825000D01*
X205897481Y-123970000D01*
X205979279Y-124381224D01*
X206131196Y-124608585D01*
X205964419Y-124949579D01*
X206089227Y-125115000D01*
X207175000Y-125115000D01*
X207175000Y-125095000D01*
X207425000Y-125095000D01*
X207425000Y-125115000D01*
X208510773Y-125115000D01*
X208635581Y-124949579D01*
X208584432Y-124845000D01*
X209057564Y-124845000D01*
X210025000Y-125812436D01*
X210025000Y-126223323D01*
X209895495Y-126029505D01*
X209530519Y-125785636D01*
X209100000Y-125700000D01*
X208552641Y-125700000D01*
X208635581Y-125530421D01*
X208510773Y-125365000D01*
X207425000Y-125365000D01*
X207425000Y-125385000D01*
X207175000Y-125385000D01*
X207175000Y-125365000D01*
X206089227Y-125365000D01*
X205964419Y-125530421D01*
X206102848Y-125813454D01*
X205779505Y-126029505D01*
X205535636Y-126394481D01*
X205450000Y-126825000D01*
X205450000Y-127221970D01*
X205352389Y-127240337D01*
X205139668Y-127377219D01*
X204996962Y-127586076D01*
X204946756Y-127834000D01*
X204946756Y-129825000D01*
X204700000Y-129825000D01*
X204365152Y-129891605D01*
X204081282Y-130081281D01*
X203731282Y-130431282D01*
X203541605Y-130715152D01*
X203475000Y-131050000D01*
X203475000Y-131508654D01*
X203398602Y-131540221D01*
X202945633Y-131992400D01*
X202521201Y-131567227D01*
X201924349Y-131319392D01*
X201278087Y-131318828D01*
X200680802Y-131565621D01*
X200253233Y-131992445D01*
X199803401Y-131541827D01*
X199206549Y-131293992D01*
X198560287Y-131293428D01*
X197963002Y-131540221D01*
X197522733Y-131979722D01*
X197085601Y-131541827D01*
X196488749Y-131293992D01*
X195842487Y-131293428D01*
X195245202Y-131540221D01*
X194787827Y-131996799D01*
X194539992Y-132593651D01*
X194539428Y-133239913D01*
X194786221Y-133837198D01*
X195242799Y-134294573D01*
X195839651Y-134542408D01*
X196485913Y-134542972D01*
X197083198Y-134296179D01*
X197523467Y-133856678D01*
X197960599Y-134294573D01*
X198557451Y-134542408D01*
X199203713Y-134542972D01*
X199800998Y-134296179D01*
X200228567Y-133869355D01*
X200678399Y-134319973D01*
X201275251Y-134567808D01*
X201921513Y-134568372D01*
X202518798Y-134321579D01*
X202971767Y-133869400D01*
X203288396Y-134186582D01*
X202976714Y-134315366D01*
X202716280Y-134575345D01*
X202633364Y-134775029D01*
X202416813Y-134774840D01*
X202076714Y-134915366D01*
X201816280Y-135175345D01*
X201675161Y-135515199D01*
X201674840Y-135883187D01*
X201815366Y-136223286D01*
X202075345Y-136483720D01*
X202196657Y-136534093D01*
X203265736Y-137603173D01*
X203315366Y-137723286D01*
X203575345Y-137983720D01*
X203915199Y-138124839D01*
X204283187Y-138125160D01*
X204623286Y-137984634D01*
X204883720Y-137724655D01*
X205024839Y-137384801D01*
X205024906Y-137307922D01*
X205323286Y-137184634D01*
X205583720Y-136924655D01*
X205724839Y-136584801D01*
X205725160Y-136216813D01*
X205584634Y-135876714D01*
X205324655Y-135616280D01*
X205203345Y-135565908D01*
X204334264Y-134696828D01*
X204284634Y-134576714D01*
X204250612Y-134542633D01*
X204639313Y-134542972D01*
X205236598Y-134296179D01*
X205693973Y-133839601D01*
X205762807Y-133673832D01*
X205781588Y-133719286D01*
X206238309Y-134176805D01*
X206835349Y-134424718D01*
X207481814Y-134425282D01*
X208079286Y-134178412D01*
X208153274Y-134104553D01*
X208243219Y-134244332D01*
X208452076Y-134387038D01*
X208700000Y-134437244D01*
X210700000Y-134437244D01*
X210875000Y-134404315D01*
X210875000Y-136934360D01*
X210831302Y-136714676D01*
X210522401Y-136252373D01*
X210060098Y-135943472D01*
X209514774Y-135835000D01*
X208745226Y-135835000D01*
X208199902Y-135943472D01*
X207737599Y-136252373D01*
X207428698Y-136714676D01*
X207320226Y-137260000D01*
X207428698Y-137805324D01*
X207737599Y-138267627D01*
X208130268Y-138530000D01*
X207737599Y-138792373D01*
X207428698Y-139254676D01*
X207320226Y-139800000D01*
X207428698Y-140345324D01*
X207737599Y-140807627D01*
X208199902Y-141116528D01*
X208745226Y-141225000D01*
X209514774Y-141225000D01*
X210060098Y-141116528D01*
X210522401Y-140807627D01*
X210831302Y-140345324D01*
X210875000Y-140125640D01*
X210875000Y-142250000D01*
X184800000Y-142250000D01*
X184800000Y-140859913D01*
X194539428Y-140859913D01*
X194786221Y-141457198D01*
X195242799Y-141914573D01*
X195839651Y-142162408D01*
X196485913Y-142162972D01*
X197083198Y-141916179D01*
X197523467Y-141476678D01*
X197960599Y-141914573D01*
X198557451Y-142162408D01*
X199203713Y-142162972D01*
X199800998Y-141916179D01*
X200008532Y-141709006D01*
X200631170Y-141709006D01*
X200730146Y-141973239D01*
X201335790Y-142198739D01*
X201981628Y-142175304D01*
X202469454Y-141973239D01*
X202568430Y-141709006D01*
X202543030Y-141683606D01*
X203348970Y-141683606D01*
X203447946Y-141947839D01*
X204053590Y-142173339D01*
X204699428Y-142149904D01*
X205187254Y-141947839D01*
X205286230Y-141683606D01*
X204317600Y-140714977D01*
X203348970Y-141683606D01*
X202543030Y-141683606D01*
X201599800Y-140740377D01*
X200631170Y-141709006D01*
X200008532Y-141709006D01*
X200258373Y-141459601D01*
X200258659Y-141458912D01*
X200454394Y-141532230D01*
X201423023Y-140563600D01*
X201776577Y-140563600D01*
X202745206Y-141532230D01*
X202992605Y-141439560D01*
X203172194Y-141506830D01*
X204140823Y-140538200D01*
X204494377Y-140538200D01*
X205463006Y-141506830D01*
X205657755Y-141433881D01*
X205799545Y-141575920D01*
X206139399Y-141717039D01*
X206507387Y-141717360D01*
X206847486Y-141576834D01*
X207107920Y-141316855D01*
X207249039Y-140977001D01*
X207249360Y-140609013D01*
X207108834Y-140268914D01*
X206848855Y-140008480D01*
X206509001Y-139867361D01*
X206141013Y-139867040D01*
X205857911Y-139984015D01*
X205727239Y-139668546D01*
X205463006Y-139569570D01*
X204494377Y-140538200D01*
X204140823Y-140538200D01*
X203172194Y-139569570D01*
X202924795Y-139662240D01*
X202745206Y-139594970D01*
X201776577Y-140563600D01*
X201423023Y-140563600D01*
X200454394Y-139594970D01*
X200277366Y-139661281D01*
X200259979Y-139619202D01*
X200059321Y-139418194D01*
X200631170Y-139418194D01*
X201599800Y-140386823D01*
X202568430Y-139418194D01*
X202558916Y-139392794D01*
X203348970Y-139392794D01*
X204317600Y-140361423D01*
X205286230Y-139392794D01*
X205187254Y-139128561D01*
X204581610Y-138903061D01*
X203935772Y-138926496D01*
X203447946Y-139128561D01*
X203348970Y-139392794D01*
X202558916Y-139392794D01*
X202469454Y-139153961D01*
X201863810Y-138928461D01*
X201217972Y-138951896D01*
X200730146Y-139153961D01*
X200631170Y-139418194D01*
X200059321Y-139418194D01*
X199980763Y-139339499D01*
X199921364Y-139040881D01*
X199677495Y-138675905D01*
X198432895Y-137431305D01*
X198360881Y-137383187D01*
X198067919Y-137187436D01*
X197637400Y-137101800D01*
X196088000Y-137101800D01*
X195657481Y-137187436D01*
X195292505Y-137431305D01*
X195048636Y-137796281D01*
X194963000Y-138226800D01*
X195048636Y-138657319D01*
X195292505Y-139022295D01*
X195401978Y-139095442D01*
X195245202Y-139160221D01*
X194787827Y-139616799D01*
X194539992Y-140213651D01*
X194539428Y-140859913D01*
X184800000Y-140859913D01*
X184800000Y-135300000D01*
X186542185Y-135300000D01*
X186662075Y-135902726D01*
X187003492Y-136413693D01*
X187514459Y-136755110D01*
X188117185Y-136875000D01*
X188382815Y-136875000D01*
X188985541Y-136755110D01*
X189496508Y-136413693D01*
X189837925Y-135902726D01*
X189957815Y-135300000D01*
X189837925Y-134697274D01*
X189496508Y-134186307D01*
X188985541Y-133844890D01*
X188382815Y-133725000D01*
X188117185Y-133725000D01*
X187514459Y-133844890D01*
X187003492Y-134186307D01*
X186662075Y-134697274D01*
X186542185Y-135300000D01*
X184800000Y-135300000D01*
X184800000Y-127544718D01*
X185010000Y-127587244D01*
X186910000Y-127587244D01*
X187141611Y-127543663D01*
X187354332Y-127406781D01*
X187486210Y-127213772D01*
X187606669Y-127334441D01*
X188185339Y-127574726D01*
X188811912Y-127575273D01*
X189391000Y-127335999D01*
X189770273Y-126957387D01*
X190146669Y-127334441D01*
X190725339Y-127574726D01*
X191351912Y-127575273D01*
X191931000Y-127335999D01*
X192374441Y-126893331D01*
X192614726Y-126314661D01*
X192615273Y-125688088D01*
X192375999Y-125109000D01*
X191933331Y-124665559D01*
X191354661Y-124425274D01*
X190728088Y-124424727D01*
X190149000Y-124664001D01*
X189769727Y-125042613D01*
X189393331Y-124665559D01*
X188814661Y-124425274D01*
X188188088Y-124424727D01*
X187609000Y-124664001D01*
X187484373Y-124788411D01*
X187452348Y-124738642D01*
X188365990Y-123825000D01*
X192934010Y-123825000D01*
X195072756Y-125963746D01*
G36*
X224150000Y-142250000D02*
X220283416Y-142250000D01*
X220476598Y-142170179D01*
X220933973Y-141713601D01*
X221181808Y-141116749D01*
X221182372Y-140470487D01*
X220935579Y-139873202D01*
X220479001Y-139415827D01*
X219882149Y-139167992D01*
X219235887Y-139167428D01*
X218638602Y-139414221D01*
X218508810Y-139543787D01*
X218451302Y-139254676D01*
X218142401Y-138792373D01*
X217751737Y-138531340D01*
X217760809Y-138528693D01*
X218196016Y-138179239D01*
X218464364Y-137689839D01*
X218482476Y-137605521D01*
X218362577Y-137385000D01*
X216875000Y-137385000D01*
X216875000Y-137405000D01*
X216625000Y-137405000D01*
X216625000Y-137385000D01*
X216605000Y-137385000D01*
X216605000Y-137135000D01*
X216625000Y-137135000D01*
X216625000Y-135835000D01*
X216875000Y-135835000D01*
X216875000Y-137135000D01*
X218362577Y-137135000D01*
X218482476Y-136914479D01*
X218464364Y-136830161D01*
X218196016Y-136340761D01*
X217760809Y-135991307D01*
X217225000Y-135835000D01*
X216875000Y-135835000D01*
X216625000Y-135835000D01*
X216275000Y-135835000D01*
X215739191Y-135991307D01*
X215400000Y-136263664D01*
X215400000Y-133493913D01*
X217932828Y-133493913D01*
X218179621Y-134091198D01*
X218636199Y-134548573D01*
X219233051Y-134796408D01*
X219879313Y-134796972D01*
X220476598Y-134550179D01*
X220933973Y-134093601D01*
X221181808Y-133496749D01*
X221182372Y-132850487D01*
X220935579Y-132253202D01*
X220479001Y-131795827D01*
X219882149Y-131547992D01*
X219235887Y-131547428D01*
X218638602Y-131794221D01*
X218181227Y-132250799D01*
X217933392Y-132847651D01*
X217932828Y-133493913D01*
X215400000Y-133493913D01*
X215400000Y-128600000D01*
X218992185Y-128600000D01*
X219112075Y-129202726D01*
X219453492Y-129713693D01*
X219964459Y-130055110D01*
X220567185Y-130175000D01*
X220832815Y-130175000D01*
X221061120Y-130129587D01*
X222264640Y-130129587D01*
X222405166Y-130469686D01*
X222665145Y-130730120D01*
X223004999Y-130871239D01*
X223372987Y-130871560D01*
X223713086Y-130731034D01*
X223973520Y-130471055D01*
X224114639Y-130131201D01*
X224114960Y-129763213D01*
X223974434Y-129423114D01*
X223714455Y-129162680D01*
X223374601Y-129021561D01*
X223006613Y-129021240D01*
X222666514Y-129161766D01*
X222406080Y-129421745D01*
X222264961Y-129761599D01*
X222264640Y-130129587D01*
X221061120Y-130129587D01*
X221435541Y-130055110D01*
X221946508Y-129713693D01*
X222287925Y-129202726D01*
X222407815Y-128600000D01*
X222287925Y-127997274D01*
X221946508Y-127486307D01*
X221435541Y-127144890D01*
X220832815Y-127025000D01*
X220567185Y-127025000D01*
X219964459Y-127144890D01*
X219453492Y-127486307D01*
X219112075Y-127997274D01*
X218992185Y-128600000D01*
X215400000Y-128600000D01*
X215400000Y-121650000D01*
X224150000Y-121650000D01*
X224150000Y-142250000D01*
X224150000Y-142250000D01*
G37*
X224150000Y-142250000D02*
X220283416Y-142250000D01*
X220476598Y-142170179D01*
X220933973Y-141713601D01*
X221181808Y-141116749D01*
X221182372Y-140470487D01*
X220935579Y-139873202D01*
X220479001Y-139415827D01*
X219882149Y-139167992D01*
X219235887Y-139167428D01*
X218638602Y-139414221D01*
X218508810Y-139543787D01*
X218451302Y-139254676D01*
X218142401Y-138792373D01*
X217751737Y-138531340D01*
X217760809Y-138528693D01*
X218196016Y-138179239D01*
X218464364Y-137689839D01*
X218482476Y-137605521D01*
X218362577Y-137385000D01*
X216875000Y-137385000D01*
X216875000Y-137405000D01*
X216625000Y-137405000D01*
X216625000Y-137385000D01*
X216605000Y-137385000D01*
X216605000Y-137135000D01*
X216625000Y-137135000D01*
X216625000Y-135835000D01*
X216875000Y-135835000D01*
X216875000Y-137135000D01*
X218362577Y-137135000D01*
X218482476Y-136914479D01*
X218464364Y-136830161D01*
X218196016Y-136340761D01*
X217760809Y-135991307D01*
X217225000Y-135835000D01*
X216875000Y-135835000D01*
X216625000Y-135835000D01*
X216275000Y-135835000D01*
X215739191Y-135991307D01*
X215400000Y-136263664D01*
X215400000Y-133493913D01*
X217932828Y-133493913D01*
X218179621Y-134091198D01*
X218636199Y-134548573D01*
X219233051Y-134796408D01*
X219879313Y-134796972D01*
X220476598Y-134550179D01*
X220933973Y-134093601D01*
X221181808Y-133496749D01*
X221182372Y-132850487D01*
X220935579Y-132253202D01*
X220479001Y-131795827D01*
X219882149Y-131547992D01*
X219235887Y-131547428D01*
X218638602Y-131794221D01*
X218181227Y-132250799D01*
X217933392Y-132847651D01*
X217932828Y-133493913D01*
X215400000Y-133493913D01*
X215400000Y-128600000D01*
X218992185Y-128600000D01*
X219112075Y-129202726D01*
X219453492Y-129713693D01*
X219964459Y-130055110D01*
X220567185Y-130175000D01*
X220832815Y-130175000D01*
X221061120Y-130129587D01*
X222264640Y-130129587D01*
X222405166Y-130469686D01*
X222665145Y-130730120D01*
X223004999Y-130871239D01*
X223372987Y-130871560D01*
X223713086Y-130731034D01*
X223973520Y-130471055D01*
X224114639Y-130131201D01*
X224114960Y-129763213D01*
X223974434Y-129423114D01*
X223714455Y-129162680D01*
X223374601Y-129021561D01*
X223006613Y-129021240D01*
X222666514Y-129161766D01*
X222406080Y-129421745D01*
X222264961Y-129761599D01*
X222264640Y-130129587D01*
X221061120Y-130129587D01*
X221435541Y-130055110D01*
X221946508Y-129713693D01*
X222287925Y-129202726D01*
X222407815Y-128600000D01*
X222287925Y-127997274D01*
X221946508Y-127486307D01*
X221435541Y-127144890D01*
X220832815Y-127025000D01*
X220567185Y-127025000D01*
X219964459Y-127144890D01*
X219453492Y-127486307D01*
X219112075Y-127997274D01*
X218992185Y-128600000D01*
X215400000Y-128600000D01*
X215400000Y-121650000D01*
X224150000Y-121650000D01*
X224150000Y-142250000D01*
M02*
