G04 #@! TF.FileFunction,Copper,L1,Top,Signal*
%FSLAX46Y46*%
G04 Gerber Fmt 4.6, Leading zero omitted, Abs format (unit mm)*
G04 Created by KiCad (PCBNEW 4.0.4-stable) date 01/15/17 13:44:32*
%MOMM*%
%LPD*%
G01*
G04 APERTURE LIST*
%ADD10C,0.100000*%
%ADD11C,0.600000*%
%ADD12O,2.300000X1.600000*%
%ADD13O,1.501140X0.899160*%
%ADD14O,2.100000X1.900000*%
%ADD15C,1.900000*%
%ADD16R,1.900000X1.900000*%
%ADD17R,2.000000X2.000000*%
%ADD18C,2.000000*%
%ADD19R,2.032000X2.032000*%
%ADD20O,2.032000X2.032000*%
%ADD21C,1.998980*%
%ADD22C,1.000000*%
%ADD23C,2.000000*%
%ADD24C,0.800000*%
%ADD25C,0.500000*%
%ADD26C,0.250000*%
G04 APERTURE END LIST*
D10*
D11*
X216890000Y-133465000D03*
X220125000Y-136600000D03*
X218665000Y-130265000D03*
X185775000Y-133825000D03*
X209925000Y-135275000D03*
X206875000Y-138475000D03*
X206451200Y-135712200D03*
X210075000Y-141650000D03*
X190475000Y-137550000D03*
X194437000Y-135407400D03*
X193125000Y-133200000D03*
X201725000Y-130650000D03*
X203600000Y-127075000D03*
X185800000Y-128425000D03*
X193850000Y-127450000D03*
X191425000Y-130025000D03*
X205550000Y-123925000D03*
X191000000Y-134800000D03*
X200675000Y-127700000D03*
D12*
X216750000Y-139800000D03*
X216750000Y-137260000D03*
X209130000Y-137260000D03*
X209130000Y-139800000D03*
D11*
X186375000Y-137700000D03*
X222800000Y-140275000D03*
X217600000Y-125925000D03*
X222800000Y-136075000D03*
X223189800Y-129946400D03*
X223175000Y-122825000D03*
X222875000Y-127175000D03*
X222290000Y-132340000D03*
X207391000Y-141757400D03*
X191650000Y-140925000D03*
X186050000Y-130650000D03*
X185925000Y-141150000D03*
X193525000Y-137675000D03*
X199339200Y-135001000D03*
X193750000Y-125350000D03*
X206324200Y-140792200D03*
X193875000Y-130650000D03*
D13*
X207300000Y-123970000D03*
X207300000Y-125240000D03*
X207300000Y-122700000D03*
D11*
X216650000Y-122675000D03*
D14*
X188250000Y-135300000D03*
X188250000Y-140300000D03*
X220700000Y-123600000D03*
X220700000Y-128600000D03*
D15*
X188500000Y-126000000D03*
X191040000Y-126000000D03*
D16*
X185960000Y-126000000D03*
D15*
X199200000Y-126000000D03*
X201740000Y-126000000D03*
D16*
X196660000Y-126000000D03*
D17*
X209700000Y-132800000D03*
D18*
X207160000Y-132800000D03*
D19*
X206600000Y-128850000D03*
D20*
X209140000Y-128850000D03*
D21*
X196164200Y-140538200D03*
X196164200Y-132918200D03*
X219557600Y-140792200D03*
X219557600Y-133172200D03*
X198882000Y-140538200D03*
X198882000Y-132918200D03*
X201599800Y-140563600D03*
X201599800Y-132943600D03*
X204317600Y-140538200D03*
X204317600Y-132918200D03*
D11*
X196088000Y-138226800D03*
X203500000Y-135100000D03*
X204800000Y-136400000D03*
X204100000Y-137200000D03*
X202600000Y-135700000D03*
D22*
X196164200Y-138150600D02*
X196164200Y-132918200D01*
X196088000Y-138226800D02*
X196164200Y-138150600D01*
X202800000Y-123200000D02*
X202800000Y-123225000D01*
X202800000Y-123225000D02*
X204375000Y-124800000D01*
X204375000Y-124800000D02*
X204375000Y-125225000D01*
X204375000Y-125225000D02*
X205900000Y-126750000D01*
X205900000Y-126750000D02*
X208800000Y-126750000D01*
X208800000Y-126750000D02*
X209140000Y-127090000D01*
X209140000Y-127090000D02*
X209140000Y-128850000D01*
D23*
X188250000Y-135300000D02*
X188250000Y-131000000D01*
X188500000Y-130750000D02*
X188500000Y-126000000D01*
X188250000Y-131000000D02*
X188500000Y-130750000D01*
D22*
X199200000Y-126000000D02*
X199200000Y-126700000D01*
X199200000Y-126700000D02*
X196200000Y-129700000D01*
X199200000Y-124500000D02*
X199200000Y-126000000D01*
X200500000Y-123200000D02*
X202800000Y-123200000D01*
X199200000Y-124500000D02*
X200500000Y-123200000D01*
D23*
X188500000Y-126000000D02*
X188500000Y-124400000D01*
X199200000Y-123900000D02*
X199200000Y-126000000D01*
X198100000Y-122800000D02*
X199200000Y-123900000D01*
X190100000Y-122800000D02*
X198100000Y-122800000D01*
X188500000Y-124400000D02*
X190100000Y-122800000D01*
D22*
X196200000Y-129700000D02*
X196200000Y-132900000D01*
D24*
X220700000Y-128600000D02*
X220700000Y-132030000D01*
X220700000Y-132030000D02*
X219550000Y-133180000D01*
X216750000Y-137260000D02*
X216750000Y-133775000D01*
X220700000Y-125400000D02*
X220700000Y-123600000D01*
X217350000Y-128750000D02*
X220700000Y-125400000D01*
X217350000Y-133175000D02*
X217350000Y-128750000D01*
X216750000Y-133775000D02*
X217350000Y-133175000D01*
D25*
X202666600Y-137210800D02*
X204876400Y-135001000D01*
X198628000Y-137210800D02*
X202666600Y-137210800D01*
X196164200Y-139674600D02*
X198628000Y-137210800D01*
X205308200Y-135001000D02*
X207160000Y-133149200D01*
X204876400Y-135001000D02*
X205308200Y-135001000D01*
X207160000Y-133149200D02*
X207160000Y-132800000D01*
X196164200Y-140538200D02*
X196164200Y-139674600D01*
X207300000Y-122700000D02*
X209100000Y-122700000D01*
X210900000Y-131600000D02*
X209700000Y-132800000D01*
X210900000Y-124500000D02*
X210900000Y-131600000D01*
X209100000Y-122700000D02*
X210900000Y-124500000D01*
X207275000Y-137260000D02*
X209130000Y-137260000D01*
X207280000Y-137260000D02*
X207275000Y-137260000D01*
X207275000Y-137260000D02*
X205660000Y-137260000D01*
X203500000Y-133680000D02*
X204300000Y-132880000D01*
X205660000Y-137260000D02*
X204800000Y-136400000D01*
X203500000Y-135100000D02*
X203500000Y-133680000D01*
D24*
X219550000Y-140800000D02*
X219550000Y-139100000D01*
X219325000Y-138875000D02*
X218300000Y-138875000D01*
X219550000Y-139100000D02*
X219325000Y-138875000D01*
X218300000Y-138875000D02*
X217375000Y-139800000D01*
X217375000Y-139800000D02*
X216750000Y-139800000D01*
D25*
X201599800Y-132943600D02*
X198907400Y-132943600D01*
X198907400Y-132943600D02*
X198882000Y-132918200D01*
X201600000Y-132943800D02*
X201600000Y-134700000D01*
X206700000Y-139800000D02*
X207280000Y-139800000D01*
X206700000Y-139800000D02*
X204100000Y-137200000D01*
X202600000Y-135700000D02*
X201600000Y-134700000D01*
X201600000Y-132943800D02*
X201599800Y-132943600D01*
X207280000Y-139800000D02*
X206800000Y-139800000D01*
X207280000Y-139800000D02*
X209130000Y-139800000D01*
D26*
G36*
X224150000Y-142250000D02*
X220283416Y-142250000D01*
X220476598Y-142170179D01*
X220933973Y-141713601D01*
X221181808Y-141116749D01*
X221182372Y-140470487D01*
X220935579Y-139873202D01*
X220575000Y-139511994D01*
X220575000Y-139100000D01*
X220496977Y-138707749D01*
X220274784Y-138375216D01*
X220049784Y-138150216D01*
X219717251Y-137928023D01*
X219717246Y-137928022D01*
X219325000Y-137850000D01*
X218376544Y-137850000D01*
X218464364Y-137689839D01*
X218482476Y-137605521D01*
X218362577Y-137385000D01*
X216875000Y-137385000D01*
X216875000Y-137405000D01*
X216625000Y-137405000D01*
X216625000Y-137385000D01*
X216605000Y-137385000D01*
X216605000Y-137135000D01*
X216625000Y-137135000D01*
X216625000Y-135835000D01*
X216875000Y-135835000D01*
X216875000Y-137135000D01*
X218362577Y-137135000D01*
X218482476Y-136914479D01*
X218464364Y-136830161D01*
X218196016Y-136340761D01*
X217760809Y-135991307D01*
X217225000Y-135835000D01*
X216875000Y-135835000D01*
X216625000Y-135835000D01*
X216275000Y-135835000D01*
X215739191Y-135991307D01*
X215400000Y-136263664D01*
X215400000Y-133493913D01*
X217932828Y-133493913D01*
X218179621Y-134091198D01*
X218636199Y-134548573D01*
X219233051Y-134796408D01*
X219879313Y-134796972D01*
X220476598Y-134550179D01*
X220933973Y-134093601D01*
X221181808Y-133496749D01*
X221182244Y-132997325D01*
X221424785Y-132754784D01*
X221624950Y-132455216D01*
X221646977Y-132422251D01*
X221725000Y-132030000D01*
X221725000Y-130129587D01*
X222264640Y-130129587D01*
X222405166Y-130469686D01*
X222665145Y-130730120D01*
X223004999Y-130871239D01*
X223372987Y-130871560D01*
X223713086Y-130731034D01*
X223973520Y-130471055D01*
X224114639Y-130131201D01*
X224114960Y-129763213D01*
X223974434Y-129423114D01*
X223714455Y-129162680D01*
X223374601Y-129021561D01*
X223006613Y-129021240D01*
X222666514Y-129161766D01*
X222406080Y-129421745D01*
X222264961Y-129761599D01*
X222264640Y-130129587D01*
X221725000Y-130129587D01*
X221725000Y-129861700D01*
X221946508Y-129713693D01*
X222287925Y-129202726D01*
X222407815Y-128600000D01*
X222287925Y-127997274D01*
X221946508Y-127486307D01*
X221435541Y-127144890D01*
X220832815Y-127025000D01*
X220567185Y-127025000D01*
X219964459Y-127144890D01*
X219453492Y-127486307D01*
X219112075Y-127997274D01*
X218992185Y-128600000D01*
X219112075Y-129202726D01*
X219453492Y-129713693D01*
X219675000Y-129861700D01*
X219675000Y-131547811D01*
X219235887Y-131547428D01*
X218638602Y-131794221D01*
X218181227Y-132250799D01*
X217933392Y-132847651D01*
X217932828Y-133493913D01*
X215400000Y-133493913D01*
X215400000Y-121650000D01*
X224150000Y-121650000D01*
X224150000Y-142250000D01*
X224150000Y-142250000D01*
G37*
X224150000Y-142250000D02*
X220283416Y-142250000D01*
X220476598Y-142170179D01*
X220933973Y-141713601D01*
X221181808Y-141116749D01*
X221182372Y-140470487D01*
X220935579Y-139873202D01*
X220575000Y-139511994D01*
X220575000Y-139100000D01*
X220496977Y-138707749D01*
X220274784Y-138375216D01*
X220049784Y-138150216D01*
X219717251Y-137928023D01*
X219717246Y-137928022D01*
X219325000Y-137850000D01*
X218376544Y-137850000D01*
X218464364Y-137689839D01*
X218482476Y-137605521D01*
X218362577Y-137385000D01*
X216875000Y-137385000D01*
X216875000Y-137405000D01*
X216625000Y-137405000D01*
X216625000Y-137385000D01*
X216605000Y-137385000D01*
X216605000Y-137135000D01*
X216625000Y-137135000D01*
X216625000Y-135835000D01*
X216875000Y-135835000D01*
X216875000Y-137135000D01*
X218362577Y-137135000D01*
X218482476Y-136914479D01*
X218464364Y-136830161D01*
X218196016Y-136340761D01*
X217760809Y-135991307D01*
X217225000Y-135835000D01*
X216875000Y-135835000D01*
X216625000Y-135835000D01*
X216275000Y-135835000D01*
X215739191Y-135991307D01*
X215400000Y-136263664D01*
X215400000Y-133493913D01*
X217932828Y-133493913D01*
X218179621Y-134091198D01*
X218636199Y-134548573D01*
X219233051Y-134796408D01*
X219879313Y-134796972D01*
X220476598Y-134550179D01*
X220933973Y-134093601D01*
X221181808Y-133496749D01*
X221182244Y-132997325D01*
X221424785Y-132754784D01*
X221624950Y-132455216D01*
X221646977Y-132422251D01*
X221725000Y-132030000D01*
X221725000Y-130129587D01*
X222264640Y-130129587D01*
X222405166Y-130469686D01*
X222665145Y-130730120D01*
X223004999Y-130871239D01*
X223372987Y-130871560D01*
X223713086Y-130731034D01*
X223973520Y-130471055D01*
X224114639Y-130131201D01*
X224114960Y-129763213D01*
X223974434Y-129423114D01*
X223714455Y-129162680D01*
X223374601Y-129021561D01*
X223006613Y-129021240D01*
X222666514Y-129161766D01*
X222406080Y-129421745D01*
X222264961Y-129761599D01*
X222264640Y-130129587D01*
X221725000Y-130129587D01*
X221725000Y-129861700D01*
X221946508Y-129713693D01*
X222287925Y-129202726D01*
X222407815Y-128600000D01*
X222287925Y-127997274D01*
X221946508Y-127486307D01*
X221435541Y-127144890D01*
X220832815Y-127025000D01*
X220567185Y-127025000D01*
X219964459Y-127144890D01*
X219453492Y-127486307D01*
X219112075Y-127997274D01*
X218992185Y-128600000D01*
X219112075Y-129202726D01*
X219453492Y-129713693D01*
X219675000Y-129861700D01*
X219675000Y-131547811D01*
X219235887Y-131547428D01*
X218638602Y-131794221D01*
X218181227Y-132250799D01*
X217933392Y-132847651D01*
X217932828Y-133493913D01*
X215400000Y-133493913D01*
X215400000Y-121650000D01*
X224150000Y-121650000D01*
X224150000Y-142250000D01*
G36*
X195478389Y-124456337D02*
X195265668Y-124593219D01*
X195122962Y-124802076D01*
X195072756Y-125050000D01*
X195072756Y-126950000D01*
X195116337Y-127181611D01*
X195253219Y-127394332D01*
X195462076Y-127537038D01*
X195710000Y-127587244D01*
X196721766Y-127587244D01*
X195404505Y-128904505D01*
X195160636Y-129269481D01*
X195075000Y-129700000D01*
X195075000Y-131710126D01*
X194787827Y-131996799D01*
X194539992Y-132593651D01*
X194539428Y-133239913D01*
X194786221Y-133837198D01*
X195039200Y-134090619D01*
X195039200Y-137843720D01*
X194963000Y-138226800D01*
X195048636Y-138657318D01*
X195292505Y-139022295D01*
X195401978Y-139095442D01*
X195245202Y-139160221D01*
X194787827Y-139616799D01*
X194539992Y-140213651D01*
X194539428Y-140859913D01*
X194786221Y-141457198D01*
X195242799Y-141914573D01*
X195839651Y-142162408D01*
X196485913Y-142162972D01*
X197083198Y-141916179D01*
X197523467Y-141476678D01*
X197960599Y-141914573D01*
X198557451Y-142162408D01*
X199203713Y-142162972D01*
X199800998Y-141916179D01*
X200008532Y-141709006D01*
X200631170Y-141709006D01*
X200730146Y-141973239D01*
X201335790Y-142198739D01*
X201981628Y-142175304D01*
X202469454Y-141973239D01*
X202568430Y-141709006D01*
X202543030Y-141683606D01*
X203348970Y-141683606D01*
X203447946Y-141947839D01*
X204053590Y-142173339D01*
X204699428Y-142149904D01*
X205187254Y-141947839D01*
X205286230Y-141683606D01*
X204317600Y-140714977D01*
X203348970Y-141683606D01*
X202543030Y-141683606D01*
X201599800Y-140740377D01*
X200631170Y-141709006D01*
X200008532Y-141709006D01*
X200258373Y-141459601D01*
X200258659Y-141458912D01*
X200454394Y-141532230D01*
X201423023Y-140563600D01*
X201776577Y-140563600D01*
X202745206Y-141532230D01*
X202992605Y-141439560D01*
X203172194Y-141506830D01*
X204140823Y-140538200D01*
X203172194Y-139569570D01*
X202924795Y-139662240D01*
X202745206Y-139594970D01*
X201776577Y-140563600D01*
X201423023Y-140563600D01*
X200454394Y-139594970D01*
X200277366Y-139661281D01*
X200259979Y-139619202D01*
X200059322Y-139418194D01*
X200631170Y-139418194D01*
X201599800Y-140386823D01*
X202568430Y-139418194D01*
X202469454Y-139153961D01*
X201863810Y-138928461D01*
X201217972Y-138951896D01*
X200730146Y-139153961D01*
X200631170Y-139418194D01*
X200059322Y-139418194D01*
X199803401Y-139161827D01*
X199206549Y-138913992D01*
X198560287Y-138913428D01*
X197963002Y-139160221D01*
X197522733Y-139599722D01*
X197499644Y-139576593D01*
X198990437Y-138085800D01*
X202666600Y-138085800D01*
X203001448Y-138019195D01*
X203285318Y-137829518D01*
X203353425Y-137761411D01*
X203575345Y-137983720D01*
X203696657Y-138034093D01*
X204566184Y-138903621D01*
X203935772Y-138926496D01*
X203447946Y-139128561D01*
X203348970Y-139392794D01*
X204317600Y-140361423D01*
X204331742Y-140347281D01*
X204508519Y-140524058D01*
X204494377Y-140538200D01*
X205463006Y-141506830D01*
X205657755Y-141433881D01*
X205799545Y-141575920D01*
X206139399Y-141717039D01*
X206507387Y-141717360D01*
X206847486Y-141576834D01*
X207107920Y-141316855D01*
X207249039Y-140977001D01*
X207249302Y-140675000D01*
X207648980Y-140675000D01*
X207737599Y-140807627D01*
X208199902Y-141116528D01*
X208745226Y-141225000D01*
X209514774Y-141225000D01*
X210060098Y-141116528D01*
X210522401Y-140807627D01*
X210831302Y-140345324D01*
X210875000Y-140125640D01*
X210875000Y-142250000D01*
X184800000Y-142250000D01*
X184800000Y-127544718D01*
X185010000Y-127587244D01*
X186875000Y-127587244D01*
X186875000Y-130189111D01*
X186748696Y-130378139D01*
X186748696Y-130378140D01*
X186624999Y-131000000D01*
X186625000Y-131000005D01*
X186625000Y-134883662D01*
X186542185Y-135300000D01*
X186662075Y-135902726D01*
X187003492Y-136413693D01*
X187514459Y-136755110D01*
X187577887Y-136767727D01*
X187628139Y-136801304D01*
X188250000Y-136925000D01*
X188871861Y-136801304D01*
X188922113Y-136767727D01*
X188985541Y-136755110D01*
X189496508Y-136413693D01*
X189837925Y-135902726D01*
X189957815Y-135300000D01*
X189875000Y-134883662D01*
X189875000Y-131560889D01*
X190001304Y-131371861D01*
X190125000Y-130750000D01*
X190125000Y-127312734D01*
X190146669Y-127334441D01*
X190725339Y-127574726D01*
X191351912Y-127575273D01*
X191931000Y-127335999D01*
X192374441Y-126893331D01*
X192614726Y-126314661D01*
X192615273Y-125688088D01*
X192375999Y-125109000D01*
X191933331Y-124665559D01*
X191354661Y-124425274D01*
X191040802Y-124425000D01*
X195644929Y-124425000D01*
X195478389Y-124456337D01*
X195478389Y-124456337D01*
G37*
X195478389Y-124456337D02*
X195265668Y-124593219D01*
X195122962Y-124802076D01*
X195072756Y-125050000D01*
X195072756Y-126950000D01*
X195116337Y-127181611D01*
X195253219Y-127394332D01*
X195462076Y-127537038D01*
X195710000Y-127587244D01*
X196721766Y-127587244D01*
X195404505Y-128904505D01*
X195160636Y-129269481D01*
X195075000Y-129700000D01*
X195075000Y-131710126D01*
X194787827Y-131996799D01*
X194539992Y-132593651D01*
X194539428Y-133239913D01*
X194786221Y-133837198D01*
X195039200Y-134090619D01*
X195039200Y-137843720D01*
X194963000Y-138226800D01*
X195048636Y-138657318D01*
X195292505Y-139022295D01*
X195401978Y-139095442D01*
X195245202Y-139160221D01*
X194787827Y-139616799D01*
X194539992Y-140213651D01*
X194539428Y-140859913D01*
X194786221Y-141457198D01*
X195242799Y-141914573D01*
X195839651Y-142162408D01*
X196485913Y-142162972D01*
X197083198Y-141916179D01*
X197523467Y-141476678D01*
X197960599Y-141914573D01*
X198557451Y-142162408D01*
X199203713Y-142162972D01*
X199800998Y-141916179D01*
X200008532Y-141709006D01*
X200631170Y-141709006D01*
X200730146Y-141973239D01*
X201335790Y-142198739D01*
X201981628Y-142175304D01*
X202469454Y-141973239D01*
X202568430Y-141709006D01*
X202543030Y-141683606D01*
X203348970Y-141683606D01*
X203447946Y-141947839D01*
X204053590Y-142173339D01*
X204699428Y-142149904D01*
X205187254Y-141947839D01*
X205286230Y-141683606D01*
X204317600Y-140714977D01*
X203348970Y-141683606D01*
X202543030Y-141683606D01*
X201599800Y-140740377D01*
X200631170Y-141709006D01*
X200008532Y-141709006D01*
X200258373Y-141459601D01*
X200258659Y-141458912D01*
X200454394Y-141532230D01*
X201423023Y-140563600D01*
X201776577Y-140563600D01*
X202745206Y-141532230D01*
X202992605Y-141439560D01*
X203172194Y-141506830D01*
X204140823Y-140538200D01*
X203172194Y-139569570D01*
X202924795Y-139662240D01*
X202745206Y-139594970D01*
X201776577Y-140563600D01*
X201423023Y-140563600D01*
X200454394Y-139594970D01*
X200277366Y-139661281D01*
X200259979Y-139619202D01*
X200059322Y-139418194D01*
X200631170Y-139418194D01*
X201599800Y-140386823D01*
X202568430Y-139418194D01*
X202469454Y-139153961D01*
X201863810Y-138928461D01*
X201217972Y-138951896D01*
X200730146Y-139153961D01*
X200631170Y-139418194D01*
X200059322Y-139418194D01*
X199803401Y-139161827D01*
X199206549Y-138913992D01*
X198560287Y-138913428D01*
X197963002Y-139160221D01*
X197522733Y-139599722D01*
X197499644Y-139576593D01*
X198990437Y-138085800D01*
X202666600Y-138085800D01*
X203001448Y-138019195D01*
X203285318Y-137829518D01*
X203353425Y-137761411D01*
X203575345Y-137983720D01*
X203696657Y-138034093D01*
X204566184Y-138903621D01*
X203935772Y-138926496D01*
X203447946Y-139128561D01*
X203348970Y-139392794D01*
X204317600Y-140361423D01*
X204331742Y-140347281D01*
X204508519Y-140524058D01*
X204494377Y-140538200D01*
X205463006Y-141506830D01*
X205657755Y-141433881D01*
X205799545Y-141575920D01*
X206139399Y-141717039D01*
X206507387Y-141717360D01*
X206847486Y-141576834D01*
X207107920Y-141316855D01*
X207249039Y-140977001D01*
X207249302Y-140675000D01*
X207648980Y-140675000D01*
X207737599Y-140807627D01*
X208199902Y-141116528D01*
X208745226Y-141225000D01*
X209514774Y-141225000D01*
X210060098Y-141116528D01*
X210522401Y-140807627D01*
X210831302Y-140345324D01*
X210875000Y-140125640D01*
X210875000Y-142250000D01*
X184800000Y-142250000D01*
X184800000Y-127544718D01*
X185010000Y-127587244D01*
X186875000Y-127587244D01*
X186875000Y-130189111D01*
X186748696Y-130378139D01*
X186748696Y-130378140D01*
X186624999Y-131000000D01*
X186625000Y-131000005D01*
X186625000Y-134883662D01*
X186542185Y-135300000D01*
X186662075Y-135902726D01*
X187003492Y-136413693D01*
X187514459Y-136755110D01*
X187577887Y-136767727D01*
X187628139Y-136801304D01*
X188250000Y-136925000D01*
X188871861Y-136801304D01*
X188922113Y-136767727D01*
X188985541Y-136755110D01*
X189496508Y-136413693D01*
X189837925Y-135902726D01*
X189957815Y-135300000D01*
X189875000Y-134883662D01*
X189875000Y-131560889D01*
X190001304Y-131371861D01*
X190125000Y-130750000D01*
X190125000Y-127312734D01*
X190146669Y-127334441D01*
X190725339Y-127574726D01*
X191351912Y-127575273D01*
X191931000Y-127335999D01*
X192374441Y-126893331D01*
X192614726Y-126314661D01*
X192615273Y-125688088D01*
X192375999Y-125109000D01*
X191933331Y-124665559D01*
X191354661Y-124425274D01*
X191040802Y-124425000D01*
X195644929Y-124425000D01*
X195478389Y-124456337D01*
G36*
X207737599Y-138267627D02*
X208130268Y-138530000D01*
X207737599Y-138792373D01*
X207648980Y-138925000D01*
X207062437Y-138925000D01*
X206272437Y-138135000D01*
X207648980Y-138135000D01*
X207737599Y-138267627D01*
X207737599Y-138267627D01*
G37*
X207737599Y-138267627D02*
X208130268Y-138530000D01*
X207737599Y-138792373D01*
X207648980Y-138925000D01*
X207062437Y-138925000D01*
X206272437Y-138135000D01*
X207648980Y-138135000D01*
X207737599Y-138267627D01*
G36*
X197960599Y-134294573D02*
X198557451Y-134542408D01*
X199203713Y-134542972D01*
X199800998Y-134296179D01*
X200228567Y-133869355D01*
X200678399Y-134319973D01*
X200725000Y-134339323D01*
X200725000Y-134700000D01*
X200767839Y-134915366D01*
X200791605Y-135034848D01*
X200981282Y-135318718D01*
X201765736Y-136103173D01*
X201815366Y-136223286D01*
X201927683Y-136335800D01*
X198628000Y-136335800D01*
X198348706Y-136391355D01*
X198293151Y-136402405D01*
X198009281Y-136592082D01*
X197289200Y-137312163D01*
X197289200Y-134090536D01*
X197523467Y-133856678D01*
X197960599Y-134294573D01*
X197960599Y-134294573D01*
G37*
X197960599Y-134294573D02*
X198557451Y-134542408D01*
X199203713Y-134542972D01*
X199800998Y-134296179D01*
X200228567Y-133869355D01*
X200678399Y-134319973D01*
X200725000Y-134339323D01*
X200725000Y-134700000D01*
X200767839Y-134915366D01*
X200791605Y-135034848D01*
X200981282Y-135318718D01*
X201765736Y-136103173D01*
X201815366Y-136223286D01*
X201927683Y-136335800D01*
X198628000Y-136335800D01*
X198348706Y-136391355D01*
X198293151Y-136402405D01*
X198009281Y-136592082D01*
X197289200Y-137312163D01*
X197289200Y-134090536D01*
X197523467Y-133856678D01*
X197960599Y-134294573D01*
G36*
X208243219Y-134244332D02*
X208452076Y-134387038D01*
X208700000Y-134437244D01*
X210700000Y-134437244D01*
X210875000Y-134404315D01*
X210875000Y-136934360D01*
X210831302Y-136714676D01*
X210522401Y-136252373D01*
X210060098Y-135943472D01*
X209514774Y-135835000D01*
X208745226Y-135835000D01*
X208199902Y-135943472D01*
X207737599Y-136252373D01*
X207648980Y-136385000D01*
X206022437Y-136385000D01*
X205634264Y-135996828D01*
X205584634Y-135876714D01*
X205538243Y-135830242D01*
X205643048Y-135809395D01*
X205926918Y-135619718D01*
X207121669Y-134424968D01*
X207481814Y-134425282D01*
X208079286Y-134178412D01*
X208153274Y-134104553D01*
X208243219Y-134244332D01*
X208243219Y-134244332D01*
G37*
X208243219Y-134244332D02*
X208452076Y-134387038D01*
X208700000Y-134437244D01*
X210700000Y-134437244D01*
X210875000Y-134404315D01*
X210875000Y-136934360D01*
X210831302Y-136714676D01*
X210522401Y-136252373D01*
X210060098Y-135943472D01*
X209514774Y-135835000D01*
X208745226Y-135835000D01*
X208199902Y-135943472D01*
X207737599Y-136252373D01*
X207648980Y-136385000D01*
X206022437Y-136385000D01*
X205634264Y-135996828D01*
X205584634Y-135876714D01*
X205538243Y-135830242D01*
X205643048Y-135809395D01*
X205926918Y-135619718D01*
X207121669Y-134424968D01*
X207481814Y-134425282D01*
X208079286Y-134178412D01*
X208153274Y-134104553D01*
X208243219Y-134244332D01*
G36*
X203260178Y-125276168D02*
X203335636Y-125655519D01*
X203565811Y-126000000D01*
X203579505Y-126020495D01*
X205057088Y-127498078D01*
X204996962Y-127586076D01*
X204946756Y-127834000D01*
X204946756Y-129866000D01*
X204990337Y-130097611D01*
X205127219Y-130310332D01*
X205336076Y-130453038D01*
X205584000Y-130503244D01*
X207616000Y-130503244D01*
X207847611Y-130459663D01*
X208060332Y-130322781D01*
X208166514Y-130167378D01*
X208512016Y-130398235D01*
X209140000Y-130523149D01*
X209767984Y-130398235D01*
X210025000Y-130226502D01*
X210025000Y-131162756D01*
X208700000Y-131162756D01*
X208468389Y-131206337D01*
X208255668Y-131343219D01*
X208152533Y-131494161D01*
X208081691Y-131423195D01*
X207484651Y-131175282D01*
X206838186Y-131174718D01*
X206240714Y-131421588D01*
X205783195Y-131878309D01*
X205714241Y-132044368D01*
X205695579Y-131999202D01*
X205239001Y-131541827D01*
X204642149Y-131293992D01*
X203995887Y-131293428D01*
X203398602Y-131540221D01*
X202945633Y-131992400D01*
X202521201Y-131567227D01*
X201924349Y-131319392D01*
X201278087Y-131318828D01*
X200680802Y-131565621D01*
X200253233Y-131992445D01*
X199803401Y-131541827D01*
X199206549Y-131293992D01*
X198560287Y-131293428D01*
X197963002Y-131540221D01*
X197522733Y-131979722D01*
X197325000Y-131781644D01*
X197325000Y-130165990D01*
X199995495Y-127495495D01*
X200074524Y-127377219D01*
X200124235Y-127302822D01*
X200135012Y-127292063D01*
X200349049Y-127149049D01*
X200474370Y-126961492D01*
X200846669Y-127334441D01*
X201425339Y-127574726D01*
X202051912Y-127575273D01*
X202631000Y-127335999D01*
X203074441Y-126893331D01*
X203314726Y-126314661D01*
X203315273Y-125688088D01*
X203075999Y-125109000D01*
X202633331Y-124665559D01*
X202054661Y-124425274D01*
X201428088Y-124424727D01*
X200849000Y-124664001D01*
X200825000Y-124687959D01*
X200825000Y-124465990D01*
X200965990Y-124325000D01*
X202309010Y-124325000D01*
X203260178Y-125276168D01*
X203260178Y-125276168D01*
G37*
X203260178Y-125276168D02*
X203335636Y-125655519D01*
X203565811Y-126000000D01*
X203579505Y-126020495D01*
X205057088Y-127498078D01*
X204996962Y-127586076D01*
X204946756Y-127834000D01*
X204946756Y-129866000D01*
X204990337Y-130097611D01*
X205127219Y-130310332D01*
X205336076Y-130453038D01*
X205584000Y-130503244D01*
X207616000Y-130503244D01*
X207847611Y-130459663D01*
X208060332Y-130322781D01*
X208166514Y-130167378D01*
X208512016Y-130398235D01*
X209140000Y-130523149D01*
X209767984Y-130398235D01*
X210025000Y-130226502D01*
X210025000Y-131162756D01*
X208700000Y-131162756D01*
X208468389Y-131206337D01*
X208255668Y-131343219D01*
X208152533Y-131494161D01*
X208081691Y-131423195D01*
X207484651Y-131175282D01*
X206838186Y-131174718D01*
X206240714Y-131421588D01*
X205783195Y-131878309D01*
X205714241Y-132044368D01*
X205695579Y-131999202D01*
X205239001Y-131541827D01*
X204642149Y-131293992D01*
X203995887Y-131293428D01*
X203398602Y-131540221D01*
X202945633Y-131992400D01*
X202521201Y-131567227D01*
X201924349Y-131319392D01*
X201278087Y-131318828D01*
X200680802Y-131565621D01*
X200253233Y-131992445D01*
X199803401Y-131541827D01*
X199206549Y-131293992D01*
X198560287Y-131293428D01*
X197963002Y-131540221D01*
X197522733Y-131979722D01*
X197325000Y-131781644D01*
X197325000Y-130165990D01*
X199995495Y-127495495D01*
X200074524Y-127377219D01*
X200124235Y-127302822D01*
X200135012Y-127292063D01*
X200349049Y-127149049D01*
X200474370Y-126961492D01*
X200846669Y-127334441D01*
X201425339Y-127574726D01*
X202051912Y-127575273D01*
X202631000Y-127335999D01*
X203074441Y-126893331D01*
X203314726Y-126314661D01*
X203315273Y-125688088D01*
X203075999Y-125109000D01*
X202633331Y-124665559D01*
X202054661Y-124425274D01*
X201428088Y-124424727D01*
X200849000Y-124664001D01*
X200825000Y-124687959D01*
X200825000Y-124465990D01*
X200965990Y-124325000D01*
X202309010Y-124325000D01*
X203260178Y-125276168D01*
G36*
X210025000Y-124862437D02*
X210025000Y-126428459D01*
X209935495Y-126294505D01*
X209595495Y-125954505D01*
X209230519Y-125710636D01*
X208800000Y-125625000D01*
X208589323Y-125625000D01*
X208635581Y-125530421D01*
X208510773Y-125365000D01*
X207425000Y-125365000D01*
X207425000Y-125385000D01*
X207175000Y-125385000D01*
X207175000Y-125365000D01*
X207155000Y-125365000D01*
X207155000Y-125115000D01*
X207175000Y-125115000D01*
X207175000Y-125095000D01*
X207425000Y-125095000D01*
X207425000Y-125115000D01*
X208510773Y-125115000D01*
X208635581Y-124949579D01*
X208468804Y-124608585D01*
X208620721Y-124381224D01*
X208702519Y-123970000D01*
X208623948Y-123575000D01*
X208737564Y-123575000D01*
X210025000Y-124862437D01*
X210025000Y-124862437D01*
G37*
X210025000Y-124862437D02*
X210025000Y-126428459D01*
X209935495Y-126294505D01*
X209595495Y-125954505D01*
X209230519Y-125710636D01*
X208800000Y-125625000D01*
X208589323Y-125625000D01*
X208635581Y-125530421D01*
X208510773Y-125365000D01*
X207425000Y-125365000D01*
X207425000Y-125385000D01*
X207175000Y-125385000D01*
X207175000Y-125365000D01*
X207155000Y-125365000D01*
X207155000Y-125115000D01*
X207175000Y-125115000D01*
X207175000Y-125095000D01*
X207425000Y-125095000D01*
X207425000Y-125115000D01*
X208510773Y-125115000D01*
X208635581Y-124949579D01*
X208468804Y-124608585D01*
X208620721Y-124381224D01*
X208702519Y-123970000D01*
X208623948Y-123575000D01*
X208737564Y-123575000D01*
X210025000Y-124862437D01*
G36*
X206560837Y-121707218D02*
X206212218Y-121940157D01*
X205979279Y-122288776D01*
X205897481Y-122700000D01*
X205979279Y-123111224D01*
X206128801Y-123335000D01*
X205979279Y-123558776D01*
X205897481Y-123970000D01*
X205979279Y-124381224D01*
X206131196Y-124608585D01*
X205964419Y-124949579D01*
X206089225Y-125114998D01*
X205924430Y-125114998D01*
X205924430Y-125183440D01*
X205489822Y-124748832D01*
X205414364Y-124369481D01*
X205170495Y-124004505D01*
X203645837Y-122479847D01*
X203595495Y-122404505D01*
X203230519Y-122160636D01*
X202800000Y-122075000D01*
X200500000Y-122075000D01*
X200069481Y-122160636D01*
X199883201Y-122285104D01*
X199249049Y-121650951D01*
X199247626Y-121650000D01*
X206848490Y-121650000D01*
X206560837Y-121707218D01*
X206560837Y-121707218D01*
G37*
X206560837Y-121707218D02*
X206212218Y-121940157D01*
X205979279Y-122288776D01*
X205897481Y-122700000D01*
X205979279Y-123111224D01*
X206128801Y-123335000D01*
X205979279Y-123558776D01*
X205897481Y-123970000D01*
X205979279Y-124381224D01*
X206131196Y-124608585D01*
X205964419Y-124949579D01*
X206089225Y-125114998D01*
X205924430Y-125114998D01*
X205924430Y-125183440D01*
X205489822Y-124748832D01*
X205414364Y-124369481D01*
X205170495Y-124004505D01*
X203645837Y-122479847D01*
X203595495Y-122404505D01*
X203230519Y-122160636D01*
X202800000Y-122075000D01*
X200500000Y-122075000D01*
X200069481Y-122160636D01*
X199883201Y-122285104D01*
X199249049Y-121650951D01*
X199247626Y-121650000D01*
X206848490Y-121650000D01*
X206560837Y-121707218D01*
M02*
