M48
;DRILL file {KiCad 4.0.4-stable} date 02/26/17 13:48:49
;FORMAT={-:-/ absolute / metric / decimal}
FMAT,2
METRIC,TZ
T1C0.400
T2C0.600
T3C0.762
T4C0.800
T5C1.000
T6C3.200
%
G90
G05
M71
T1
X177.21Y-97.09
X178.95Y-117.875
X179.05Y-128.6
X179.6Y-133.55
X180.9Y-141.75
X181.275Y-114.075
X181.525Y-109.525
X182.4Y-96.55
X183.525Y-103.425
X183.75Y-140.85
X184.35Y-108.75
X184.45Y-118.5
X185.225Y-142.8
X185.25Y-113.95
X185.25Y-133.55
X185.35Y-138.2
X185.5Y-130.6
X185.9Y-110.8
X186.69Y-128.35
X186.95Y-106.07
X187.4Y-96.55
X187.8Y-143.3
X188.425Y-121.15
X188.76Y-104.3
X188.925Y-123.925
X189.5Y-128.3
X190.075Y-119.5
X190.25Y-125.75
X190.325Y-129.425
X191.55Y-108.075
X192.1Y-110.825
X192.4Y-96.55
X193.575Y-111.475
X193.95Y-103.275
X196.2Y-121.75
X196.3Y-120.
X197.05Y-143.55
X197.4Y-96.55
X197.5Y-108.725
X198.2Y-123.5
X198.425Y-110.975
X198.55Y-118.975
X198.625Y-106.875
X199.15Y-114.925
X199.2Y-141.25
X199.275Y-113.375
X199.9Y-124.1
X201.925Y-116.35
X202.35Y-106.375
X202.4Y-96.55
X202.4Y-136.525
X202.9Y-143.25
X205.15Y-120.475
X205.6Y-108.775
X206.05Y-131.1
X206.175Y-103.75
X206.3Y-107.6
X206.475Y-111.875
X206.85Y-142.95
X207.1Y-115.9
X207.4Y-96.55
X207.85Y-106.4
X208.075Y-114.725
X208.425Y-104.4
X208.825Y-113.175
X208.875Y-110.725
X209.7Y-143.35
X209.8Y-127.375
X210.75Y-123.575
X211.15Y-105.55
X211.4Y-134.675
X211.6Y-128.85
X211.725Y-111.275
X211.725Y-112.775
X211.75Y-123.575
X211.925Y-115.
X212.025Y-108.225
X212.175Y-112.075
X212.2Y-130.3
X212.4Y-96.55
X212.575Y-116.325
X212.6Y-107.5
X212.625Y-123.6
X213.025Y-105.85
X214.05Y-124.775
X214.3Y-143.35
X215.95Y-126.325
X216.275Y-131.05
X216.75Y-122.65
X217.1Y-138.9
X217.1Y-143.
X217.4Y-96.55
X219.325Y-124.9
X220.Y-129.125
X220.Y-143.25
X221.375Y-110.85
X221.875Y-123.925
X222.4Y-96.55
X223.3Y-129.225
X224.55Y-122.4
X224.6Y-109.4
X225.25Y-143.4
X225.35Y-130.975
X225.775Y-112.675
X226.475Y-114.975
X226.475Y-115.85
X226.55Y-113.825
X226.625Y-140.875
X226.975Y-124.075
X227.075Y-110.05
X227.375Y-128.275
X227.4Y-96.55
X228.175Y-138.525
X228.375Y-103.7
X229.975Y-130.25
X230.175Y-136.875
X230.425Y-122.275
X230.45Y-109.975
X230.45Y-111.275
X230.8Y-116.825
X230.825Y-113.725
X231.825Y-114.675
X232.35Y-109.4
X232.4Y-96.55
X232.575Y-115.425
X232.8Y-130.65
X232.875Y-107.95
X233.275Y-124.95
X235.95Y-120.7
X236.8Y-122.125
X237.35Y-127.5
X237.4Y-96.55
X241.825Y-102.9
X242.125Y-124.525
X242.4Y-96.55
X242.95Y-127.425
X246.05Y-109.2
X247.15Y-110.4
X247.4Y-96.55
X247.575Y-115.7
X247.975Y-114.775
X248.025Y-113.65
X248.6Y-120.7
X249.3Y-105.8
X249.35Y-136.55
X250.15Y-130.95
X250.6Y-104.35
X250.6Y-129.9
X250.925Y-121.175
X251.Y-136.25
X252.25Y-105.05
X252.25Y-108.15
X252.25Y-109.4
X252.4Y-96.55
X252.7Y-116.425
X252.85Y-110.75
X253.175Y-114.3
X253.55Y-129.45
X254.55Y-111.65
X254.6Y-109.7
X254.9Y-103.9
X254.9Y-108.45
X255.675Y-127.325
X255.7Y-129.15
X256.4Y-138.3
X257.4Y-96.55
X259.25Y-127.1
X259.35Y-116.9
X259.4Y-120.35
X259.4Y-123.65
X259.65Y-100.35
X259.75Y-143.6
T2
X178.975Y-106.175
X181.85Y-115.825
X187.2Y-109.05
X187.475Y-117.95
X187.6Y-111.
X187.825Y-115.9
X193.4Y-131.7
X197.6Y-105.025
X198.55Y-125.75
X200.475Y-103.275
X201.85Y-113.3
X201.925Y-108.275
X203.3Y-130.7
X204.15Y-123.75
X205.55Y-112.85
X205.725Y-116.925
X207.2Y-108.75
X208.75Y-107.05
X209.55Y-125.45
X216.65Y-103.25
X218.95Y-102.975
X224.4Y-113.
X227.125Y-105.75
X238.9Y-111.525
X242.6Y-106.35
X246.25Y-110.9
X247.925Y-108.325
X252.075Y-106.075
X255.175Y-116.025
X257.875Y-120.775
X258.75Y-115.65
X259.6Y-103.4
T3
X193.3Y-125.05
X193.3Y-130.05
X208.05Y-120.05
X213.05Y-120.05
T4
X193.2Y-120.4
X216.8Y-118.56
X216.8Y-133.8
X219.34Y-118.56
X219.34Y-133.8
X221.88Y-118.56
X221.88Y-133.8
X224.42Y-118.56
X224.42Y-133.8
X226.96Y-118.56
X226.96Y-133.8
X229.5Y-118.56
X229.5Y-133.8
X232.04Y-118.56
X232.04Y-133.8
X234.58Y-118.56
X234.58Y-133.8
X237.12Y-118.56
X237.12Y-133.8
X239.66Y-118.56
X239.66Y-133.8
X242.2Y-118.56
X242.2Y-133.8
X244.74Y-118.56
X244.74Y-133.8
X247.28Y-118.56
X247.28Y-133.8
X249.82Y-118.56
X249.82Y-133.8
X254.9Y-122.4
X254.9Y-124.9
T5
X179.6Y-99.06
X179.6Y-101.6
X182.14Y-99.06
X182.14Y-101.6
X184.68Y-99.06
X184.68Y-101.6
X187.22Y-99.06
X187.22Y-101.6
X189.76Y-99.06
X189.76Y-101.6
X192.3Y-99.06
X192.3Y-101.6
X194.056Y-140.716
X194.84Y-99.06
X194.84Y-101.6
X196.596Y-140.716
X197.38Y-99.06
X197.38Y-101.6
X199.92Y-99.06
X199.92Y-101.6
X201.676Y-140.716
X202.46Y-99.06
X202.46Y-101.6
X204.216Y-140.716
X205.Y-99.06
X205.Y-101.6
X207.54Y-99.06
X207.54Y-101.6
X209.32Y-138.2
X209.32Y-140.74
X210.08Y-99.06
X210.08Y-101.6
X211.86Y-138.2
X211.86Y-140.74
X212.62Y-99.06
X212.62Y-101.6
X214.4Y-138.2
X214.4Y-140.74
X215.16Y-99.06
X215.16Y-101.6
X217.7Y-99.06
X217.7Y-101.6
X219.456Y-138.176
X219.456Y-140.716
X220.24Y-99.06
X220.24Y-101.6
X221.996Y-138.176
X221.996Y-140.716
X222.78Y-99.06
X222.78Y-101.6
X224.536Y-138.176
X224.536Y-140.716
X225.32Y-99.06
X225.32Y-101.6
X227.86Y-99.06
X227.86Y-101.6
X229.616Y-140.716
X230.4Y-99.06
X230.4Y-101.6
X232.156Y-140.716
X232.94Y-99.06
X232.94Y-101.6
X234.696Y-140.716
X235.48Y-99.06
X235.48Y-101.6
X237.236Y-140.716
X238.02Y-99.06
X238.02Y-101.6
X239.776Y-140.716
X240.56Y-99.06
X240.56Y-101.6
X242.316Y-140.716
X243.1Y-99.06
X243.1Y-101.6
X245.64Y-99.06
X245.64Y-101.6
X247.396Y-140.716
X248.18Y-99.06
X248.18Y-101.6
X249.936Y-140.716
X250.72Y-99.06
X250.72Y-101.6
X252.476Y-140.716
X253.26Y-99.06
X253.26Y-101.6
X255.016Y-140.716
X255.8Y-99.06
X255.8Y-101.6
X257.556Y-140.716
X258.34Y-99.06
X258.34Y-101.6
T6
X181.4Y-122.72
X255.87Y-133.72
T0
M30
