G04 #@! TF.FileFunction,Soldermask,Top*
%FSLAX46Y46*%
G04 Gerber Fmt 4.6, Leading zero omitted, Abs format (unit mm)*
G04 Created by KiCad (PCBNEW 4.0.4-stable) date 02/26/17 13:48:46*
%MOMM*%
%LPD*%
G01*
G04 APERTURE LIST*
%ADD10C,0.100000*%
%ADD11R,1.143000X0.508000*%
%ADD12R,1.600000X1.600000*%
%ADD13C,1.600000*%
%ADD14R,1.300000X1.500000*%
%ADD15R,1.600000X2.400000*%
%ADD16O,1.600000X2.400000*%
%ADD17R,1.500000X1.250000*%
%ADD18R,0.800000X1.900000*%
%ADD19R,1.500000X1.300000*%
%ADD20R,1.700000X1.700000*%
%ADD21O,1.700000X1.700000*%
%ADD22C,6.400000*%
G04 APERTURE END LIST*
D10*
D11*
X189650000Y-106905000D03*
X189650000Y-109445000D03*
X189650000Y-110715000D03*
X189650000Y-111985000D03*
X189650000Y-113255000D03*
X189650000Y-114525000D03*
X189650000Y-115795000D03*
X183300000Y-115795000D03*
X183300000Y-114525000D03*
X183300000Y-113255000D03*
X183300000Y-111985000D03*
X183300000Y-110715000D03*
X183300000Y-109445000D03*
X183300000Y-108175000D03*
X183300000Y-106905000D03*
X189650000Y-108175000D03*
X210375000Y-106880000D03*
X210375000Y-109420000D03*
X210375000Y-110690000D03*
X210375000Y-111960000D03*
X210375000Y-113230000D03*
X210375000Y-114500000D03*
X210375000Y-115770000D03*
X204025000Y-115770000D03*
X204025000Y-114500000D03*
X204025000Y-113230000D03*
X204025000Y-111960000D03*
X204025000Y-110690000D03*
X204025000Y-109420000D03*
X204025000Y-108150000D03*
X204025000Y-106880000D03*
X210375000Y-108150000D03*
X229125000Y-106880000D03*
X229125000Y-109420000D03*
X229125000Y-110690000D03*
X229125000Y-111960000D03*
X229125000Y-113230000D03*
X229125000Y-114500000D03*
X229125000Y-115770000D03*
X222775000Y-115770000D03*
X222775000Y-114500000D03*
X222775000Y-113230000D03*
X222775000Y-111960000D03*
X222775000Y-110690000D03*
X222775000Y-109420000D03*
X222775000Y-108150000D03*
X222775000Y-106880000D03*
X229125000Y-108150000D03*
D12*
X254900000Y-124900000D03*
D13*
X254900000Y-122400000D03*
D11*
X250975000Y-106855000D03*
X250975000Y-109395000D03*
X250975000Y-110665000D03*
X250975000Y-111935000D03*
X250975000Y-113205000D03*
X250975000Y-114475000D03*
X250975000Y-115745000D03*
X244625000Y-115745000D03*
X244625000Y-114475000D03*
X244625000Y-113205000D03*
X244625000Y-111935000D03*
X244625000Y-110665000D03*
X244625000Y-109395000D03*
X244625000Y-108125000D03*
X244625000Y-106855000D03*
X250975000Y-108125000D03*
D14*
X199900000Y-130000000D03*
X199900000Y-127300000D03*
D15*
X216800000Y-133800000D03*
D16*
X249820000Y-118560000D03*
X219340000Y-133800000D03*
X247280000Y-118560000D03*
X221880000Y-133800000D03*
X244740000Y-118560000D03*
X224420000Y-133800000D03*
X242200000Y-118560000D03*
X226960000Y-133800000D03*
X239660000Y-118560000D03*
X229500000Y-133800000D03*
X237120000Y-118560000D03*
X232040000Y-133800000D03*
X234580000Y-118560000D03*
X234580000Y-133800000D03*
X232040000Y-118560000D03*
X237120000Y-133800000D03*
X229500000Y-118560000D03*
X239660000Y-133800000D03*
X226960000Y-118560000D03*
X242200000Y-133800000D03*
X224420000Y-118560000D03*
X244740000Y-133800000D03*
X221880000Y-118560000D03*
X247280000Y-133800000D03*
X219340000Y-118560000D03*
X249820000Y-133800000D03*
X216800000Y-118560000D03*
D14*
X200750000Y-114650000D03*
X200750000Y-111950000D03*
D17*
X203125000Y-120450000D03*
X200625000Y-120450000D03*
D13*
X208050000Y-120050000D03*
X213050000Y-120050000D03*
D18*
X196050000Y-129200000D03*
X197950000Y-129200000D03*
X197000000Y-126200000D03*
X203750000Y-134450000D03*
X205650000Y-134450000D03*
X204700000Y-131450000D03*
X201800000Y-127550000D03*
X203700000Y-127550000D03*
X202750000Y-124550000D03*
X192450000Y-136650000D03*
X194350000Y-136650000D03*
X193400000Y-133650000D03*
D14*
X188350000Y-138250000D03*
X188350000Y-140950000D03*
D19*
X187850000Y-126700000D03*
X185150000Y-126700000D03*
D14*
X190500000Y-140950000D03*
X190500000Y-138250000D03*
X207800000Y-125000000D03*
X207800000Y-127700000D03*
X209800000Y-131900000D03*
X209800000Y-134600000D03*
X201750000Y-134800000D03*
X201750000Y-132100000D03*
D19*
X214250000Y-115425000D03*
X216950000Y-115425000D03*
X214250000Y-111125000D03*
X216950000Y-111125000D03*
X214250000Y-113225000D03*
X216950000Y-113225000D03*
D14*
X188366400Y-132152400D03*
X188366400Y-134852400D03*
D19*
X214250000Y-109025000D03*
X216950000Y-109025000D03*
X214275000Y-104825000D03*
X216975000Y-104825000D03*
X214275000Y-106925000D03*
X216975000Y-106925000D03*
D14*
X219925000Y-111925000D03*
X219925000Y-114625000D03*
X219925000Y-107000000D03*
X219925000Y-109700000D03*
D19*
X222675000Y-104775000D03*
X219975000Y-104775000D03*
D14*
X207650000Y-134600000D03*
X207650000Y-131900000D03*
D19*
X201025000Y-104800000D03*
X203725000Y-104800000D03*
D14*
X200750000Y-109700000D03*
X200750000Y-107000000D03*
X205650000Y-127700000D03*
X205650000Y-125000000D03*
D19*
X195800000Y-104950000D03*
X193100000Y-104950000D03*
D14*
X190500000Y-134850000D03*
X190500000Y-132150000D03*
D19*
X195800000Y-107075000D03*
X193100000Y-107075000D03*
X195800000Y-109200000D03*
X193100000Y-109200000D03*
D14*
X196300000Y-134100000D03*
X196300000Y-136800000D03*
X179000000Y-115625000D03*
X179000000Y-112925000D03*
D19*
X179050000Y-104575000D03*
X181750000Y-104575000D03*
D14*
X179000000Y-107925000D03*
X179000000Y-110625000D03*
D19*
X242700000Y-104600000D03*
X245400000Y-104600000D03*
X258800000Y-105250000D03*
X256100000Y-105250000D03*
X258800000Y-107450000D03*
X256100000Y-107450000D03*
X258800000Y-109600000D03*
X256100000Y-109600000D03*
X258800000Y-111750000D03*
X256100000Y-111750000D03*
D14*
X242600000Y-107950000D03*
X242600000Y-110650000D03*
D19*
X258800000Y-113900000D03*
X256100000Y-113900000D03*
D14*
X240400000Y-108000000D03*
X240400000Y-105300000D03*
D19*
X242550000Y-113700000D03*
X239850000Y-113700000D03*
X237550000Y-104900000D03*
X234850000Y-104900000D03*
X237100000Y-107150000D03*
X234400000Y-107150000D03*
X237100000Y-109375000D03*
X234400000Y-109375000D03*
X237100000Y-111575000D03*
X234400000Y-111575000D03*
X237100000Y-113775000D03*
X234400000Y-113775000D03*
D13*
X193300000Y-130050000D03*
X193300000Y-125050000D03*
D20*
X193200000Y-120400000D03*
X196596000Y-140716000D03*
D21*
X194056000Y-140716000D03*
D17*
X257350000Y-118775000D03*
X254850000Y-118775000D03*
D20*
X214400000Y-138200000D03*
D21*
X214400000Y-140740000D03*
X211860000Y-138200000D03*
X211860000Y-140740000D03*
X209320000Y-138200000D03*
X209320000Y-140740000D03*
D20*
X224536000Y-138176000D03*
D21*
X224536000Y-140716000D03*
X221996000Y-138176000D03*
X221996000Y-140716000D03*
X219456000Y-138176000D03*
X219456000Y-140716000D03*
D20*
X204216000Y-140716000D03*
D21*
X201676000Y-140716000D03*
D20*
X242316000Y-140716000D03*
D21*
X239776000Y-140716000D03*
X237236000Y-140716000D03*
X234696000Y-140716000D03*
X232156000Y-140716000D03*
X229616000Y-140716000D03*
D20*
X179600000Y-101600000D03*
D21*
X179600000Y-99060000D03*
X182140000Y-101600000D03*
X182140000Y-99060000D03*
X184680000Y-101600000D03*
X184680000Y-99060000D03*
X187220000Y-101600000D03*
X187220000Y-99060000D03*
X189760000Y-101600000D03*
X189760000Y-99060000D03*
X192300000Y-101600000D03*
X192300000Y-99060000D03*
X194840000Y-101600000D03*
X194840000Y-99060000D03*
X197380000Y-101600000D03*
X197380000Y-99060000D03*
X199920000Y-101600000D03*
X199920000Y-99060000D03*
X202460000Y-101600000D03*
X202460000Y-99060000D03*
X205000000Y-101600000D03*
X205000000Y-99060000D03*
X207540000Y-101600000D03*
X207540000Y-99060000D03*
X210080000Y-101600000D03*
X210080000Y-99060000D03*
X212620000Y-101600000D03*
X212620000Y-99060000D03*
X215160000Y-101600000D03*
X215160000Y-99060000D03*
X217700000Y-101600000D03*
X217700000Y-99060000D03*
X220240000Y-101600000D03*
X220240000Y-99060000D03*
X222780000Y-101600000D03*
X222780000Y-99060000D03*
X225320000Y-101600000D03*
X225320000Y-99060000D03*
X227860000Y-101600000D03*
X227860000Y-99060000D03*
X230400000Y-101600000D03*
X230400000Y-99060000D03*
X232940000Y-101600000D03*
X232940000Y-99060000D03*
X235480000Y-101600000D03*
X235480000Y-99060000D03*
X238020000Y-101600000D03*
X238020000Y-99060000D03*
X240560000Y-101600000D03*
X240560000Y-99060000D03*
X243100000Y-101600000D03*
X243100000Y-99060000D03*
X245640000Y-101600000D03*
X245640000Y-99060000D03*
X248180000Y-101600000D03*
X248180000Y-99060000D03*
X250720000Y-101600000D03*
X250720000Y-99060000D03*
X253260000Y-101600000D03*
X253260000Y-99060000D03*
X255800000Y-101600000D03*
X255800000Y-99060000D03*
X258340000Y-101600000D03*
X258340000Y-99060000D03*
D20*
X257556000Y-140716000D03*
D21*
X255016000Y-140716000D03*
X252476000Y-140716000D03*
X249936000Y-140716000D03*
X247396000Y-140716000D03*
D22*
X181400000Y-122720000D03*
X255870000Y-133720000D03*
M02*
