G04 #@! TF.FileFunction,Legend,Bot*
%FSLAX46Y46*%
G04 Gerber Fmt 4.6, Leading zero omitted, Abs format (unit mm)*
G04 Created by KiCad (PCBNEW 4.0.4-stable) date 02/26/17 13:48:46*
%MOMM*%
%LPD*%
G01*
G04 APERTURE LIST*
%ADD10C,0.100000*%
%ADD11C,0.200000*%
%ADD12C,0.150000*%
%ADD13C,0.250000*%
%ADD14C,0.300000*%
G04 APERTURE END LIST*
D10*
D11*
X260300000Y-131020000D02*
X259990000Y-131330000D01*
X260000000Y-130720000D02*
X260300000Y-131020000D01*
X260320000Y-131040000D02*
X260000000Y-130720000D01*
X258525000Y-138417500D02*
X258885000Y-138057500D01*
X258155000Y-138047500D02*
X258525000Y-138417500D01*
X258525000Y-138417500D02*
X258155000Y-138047500D01*
X178170000Y-129032000D02*
X178180000Y-129032000D01*
X177780000Y-128642000D02*
X178170000Y-129032000D01*
X178190000Y-128232000D02*
X177780000Y-128642000D01*
X177790000Y-128632000D02*
X178190000Y-128232000D01*
X179170000Y-128632000D02*
X177790000Y-128632000D01*
D12*
X177347381Y-118396186D02*
X176347381Y-118396186D01*
X177061667Y-118729520D01*
X176347381Y-119062853D01*
X177347381Y-119062853D01*
X177347381Y-119681900D02*
X177299762Y-119586662D01*
X177252143Y-119539043D01*
X177156905Y-119491424D01*
X176871190Y-119491424D01*
X176775952Y-119539043D01*
X176728333Y-119586662D01*
X176680714Y-119681900D01*
X176680714Y-119824758D01*
X176728333Y-119919996D01*
X176775952Y-119967615D01*
X176871190Y-120015234D01*
X177156905Y-120015234D01*
X177252143Y-119967615D01*
X177299762Y-119919996D01*
X177347381Y-119824758D01*
X177347381Y-119681900D01*
X177347381Y-120872377D02*
X176347381Y-120872377D01*
X177299762Y-120872377D02*
X177347381Y-120777139D01*
X177347381Y-120586662D01*
X177299762Y-120491424D01*
X177252143Y-120443805D01*
X177156905Y-120396186D01*
X176871190Y-120396186D01*
X176775952Y-120443805D01*
X176728333Y-120491424D01*
X176680714Y-120586662D01*
X176680714Y-120777139D01*
X176728333Y-120872377D01*
X176680714Y-121777139D02*
X177347381Y-121777139D01*
X176680714Y-121348567D02*
X177204524Y-121348567D01*
X177299762Y-121396186D01*
X177347381Y-121491424D01*
X177347381Y-121634282D01*
X177299762Y-121729520D01*
X177252143Y-121777139D01*
X177347381Y-122396186D02*
X177299762Y-122300948D01*
X177204524Y-122253329D01*
X176347381Y-122253329D01*
X177347381Y-123205711D02*
X176823571Y-123205711D01*
X176728333Y-123158092D01*
X176680714Y-123062854D01*
X176680714Y-122872377D01*
X176728333Y-122777139D01*
X177299762Y-123205711D02*
X177347381Y-123110473D01*
X177347381Y-122872377D01*
X177299762Y-122777139D01*
X177204524Y-122729520D01*
X177109286Y-122729520D01*
X177014048Y-122777139D01*
X176966429Y-122872377D01*
X176966429Y-123110473D01*
X176918810Y-123205711D01*
X177347381Y-123681901D02*
X176680714Y-123681901D01*
X176871190Y-123681901D02*
X176775952Y-123729520D01*
X176728333Y-123777139D01*
X176680714Y-123872377D01*
X176680714Y-123967616D01*
X176347381Y-125253330D02*
X176347381Y-125443807D01*
X176395000Y-125539045D01*
X176490238Y-125634283D01*
X176680714Y-125681902D01*
X177014048Y-125681902D01*
X177204524Y-125634283D01*
X177299762Y-125539045D01*
X177347381Y-125443807D01*
X177347381Y-125253330D01*
X177299762Y-125158092D01*
X177204524Y-125062854D01*
X177014048Y-125015235D01*
X176680714Y-125015235D01*
X176490238Y-125062854D01*
X176395000Y-125158092D01*
X176347381Y-125253330D01*
X176680714Y-126110473D02*
X177680714Y-126110473D01*
X176728333Y-126110473D02*
X176680714Y-126205711D01*
X176680714Y-126396188D01*
X176728333Y-126491426D01*
X176775952Y-126539045D01*
X176871190Y-126586664D01*
X177156905Y-126586664D01*
X177252143Y-126539045D01*
X177299762Y-126491426D01*
X177347381Y-126396188D01*
X177347381Y-126205711D01*
X177299762Y-126110473D01*
X177299762Y-127396188D02*
X177347381Y-127300950D01*
X177347381Y-127110473D01*
X177299762Y-127015235D01*
X177204524Y-126967616D01*
X176823571Y-126967616D01*
X176728333Y-127015235D01*
X176680714Y-127110473D01*
X176680714Y-127300950D01*
X176728333Y-127396188D01*
X176823571Y-127443807D01*
X176918810Y-127443807D01*
X177014048Y-126967616D01*
X176680714Y-127872378D02*
X177347381Y-127872378D01*
X176775952Y-127872378D02*
X176728333Y-127919997D01*
X176680714Y-128015235D01*
X176680714Y-128158093D01*
X176728333Y-128253331D01*
X176823571Y-128300950D01*
X177347381Y-128300950D01*
X176823571Y-129872379D02*
X176871190Y-130015236D01*
X176918810Y-130062855D01*
X177014048Y-130110474D01*
X177156905Y-130110474D01*
X177252143Y-130062855D01*
X177299762Y-130015236D01*
X177347381Y-129919998D01*
X177347381Y-129539045D01*
X176347381Y-129539045D01*
X176347381Y-129872379D01*
X176395000Y-129967617D01*
X176442619Y-130015236D01*
X176537857Y-130062855D01*
X176633095Y-130062855D01*
X176728333Y-130015236D01*
X176775952Y-129967617D01*
X176823571Y-129872379D01*
X176823571Y-129539045D01*
X176680714Y-130967617D02*
X177347381Y-130967617D01*
X176680714Y-130539045D02*
X177204524Y-130539045D01*
X177299762Y-130586664D01*
X177347381Y-130681902D01*
X177347381Y-130824760D01*
X177299762Y-130919998D01*
X177252143Y-130967617D01*
X176680714Y-131300950D02*
X176680714Y-131681902D01*
X176347381Y-131443807D02*
X177204524Y-131443807D01*
X177299762Y-131491426D01*
X177347381Y-131586664D01*
X177347381Y-131681902D01*
X176680714Y-131872379D02*
X176680714Y-132253331D01*
X176347381Y-132015236D02*
X177204524Y-132015236D01*
X177299762Y-132062855D01*
X177347381Y-132158093D01*
X177347381Y-132253331D01*
X177347381Y-132729522D02*
X177299762Y-132634284D01*
X177252143Y-132586665D01*
X177156905Y-132539046D01*
X176871190Y-132539046D01*
X176775952Y-132586665D01*
X176728333Y-132634284D01*
X176680714Y-132729522D01*
X176680714Y-132872380D01*
X176728333Y-132967618D01*
X176775952Y-133015237D01*
X176871190Y-133062856D01*
X177156905Y-133062856D01*
X177252143Y-133015237D01*
X177299762Y-132967618D01*
X177347381Y-132872380D01*
X177347381Y-132729522D01*
X176680714Y-133491427D02*
X177347381Y-133491427D01*
X176775952Y-133491427D02*
X176728333Y-133539046D01*
X176680714Y-133634284D01*
X176680714Y-133777142D01*
X176728333Y-133872380D01*
X176823571Y-133919999D01*
X177347381Y-133919999D01*
X176823571Y-135491428D02*
X176871190Y-135634285D01*
X176918810Y-135681904D01*
X177014048Y-135729523D01*
X177156905Y-135729523D01*
X177252143Y-135681904D01*
X177299762Y-135634285D01*
X177347381Y-135539047D01*
X177347381Y-135158094D01*
X176347381Y-135158094D01*
X176347381Y-135491428D01*
X176395000Y-135586666D01*
X176442619Y-135634285D01*
X176537857Y-135681904D01*
X176633095Y-135681904D01*
X176728333Y-135634285D01*
X176775952Y-135586666D01*
X176823571Y-135491428D01*
X176823571Y-135158094D01*
X177347381Y-136300951D02*
X177299762Y-136205713D01*
X177252143Y-136158094D01*
X177156905Y-136110475D01*
X176871190Y-136110475D01*
X176775952Y-136158094D01*
X176728333Y-136205713D01*
X176680714Y-136300951D01*
X176680714Y-136443809D01*
X176728333Y-136539047D01*
X176775952Y-136586666D01*
X176871190Y-136634285D01*
X177156905Y-136634285D01*
X177252143Y-136586666D01*
X177299762Y-136539047D01*
X177347381Y-136443809D01*
X177347381Y-136300951D01*
X177347381Y-136967618D02*
X176680714Y-137491428D01*
X176680714Y-136967618D02*
X177347381Y-137491428D01*
X177728333Y-138920000D02*
X177680714Y-138872380D01*
X177537857Y-138777142D01*
X177442619Y-138729523D01*
X177299762Y-138681904D01*
X177061667Y-138634285D01*
X176871190Y-138634285D01*
X176633095Y-138681904D01*
X176490238Y-138729523D01*
X176395000Y-138777142D01*
X176252143Y-138872380D01*
X176204524Y-138920000D01*
X177347381Y-139300952D02*
X176347381Y-139300952D01*
X177061667Y-139634286D01*
X176347381Y-139967619D01*
X177347381Y-139967619D01*
X176347381Y-140634285D02*
X176347381Y-140824762D01*
X176395000Y-140920000D01*
X176490238Y-141015238D01*
X176680714Y-141062857D01*
X177014048Y-141062857D01*
X177204524Y-141015238D01*
X177299762Y-140920000D01*
X177347381Y-140824762D01*
X177347381Y-140634285D01*
X177299762Y-140539047D01*
X177204524Y-140443809D01*
X177014048Y-140396190D01*
X176680714Y-140396190D01*
X176490238Y-140443809D01*
X176395000Y-140539047D01*
X176347381Y-140634285D01*
X176823571Y-141824762D02*
X176871190Y-141967619D01*
X176918810Y-142015238D01*
X177014048Y-142062857D01*
X177156905Y-142062857D01*
X177252143Y-142015238D01*
X177299762Y-141967619D01*
X177347381Y-141872381D01*
X177347381Y-141491428D01*
X176347381Y-141491428D01*
X176347381Y-141824762D01*
X176395000Y-141920000D01*
X176442619Y-141967619D01*
X176537857Y-142015238D01*
X176633095Y-142015238D01*
X176728333Y-141967619D01*
X176775952Y-141920000D01*
X176823571Y-141824762D01*
X176823571Y-141491428D01*
X176823571Y-142824762D02*
X176871190Y-142967619D01*
X176918810Y-143015238D01*
X177014048Y-143062857D01*
X177156905Y-143062857D01*
X177252143Y-143015238D01*
X177299762Y-142967619D01*
X177347381Y-142872381D01*
X177347381Y-142491428D01*
X176347381Y-142491428D01*
X176347381Y-142824762D01*
X176395000Y-142920000D01*
X176442619Y-142967619D01*
X176537857Y-143015238D01*
X176633095Y-143015238D01*
X176728333Y-142967619D01*
X176775952Y-142920000D01*
X176823571Y-142824762D01*
X176823571Y-142491428D01*
X177728333Y-143396190D02*
X177680714Y-143443809D01*
X177537857Y-143539047D01*
X177442619Y-143586666D01*
X177299762Y-143634285D01*
X177061667Y-143681904D01*
X176871190Y-143681904D01*
X176633095Y-143634285D01*
X176490238Y-143586666D01*
X176395000Y-143539047D01*
X176252143Y-143443809D01*
X176204524Y-143396190D01*
X178997381Y-130110475D02*
X177997381Y-130110475D01*
X177997381Y-130491428D01*
X178045000Y-130586666D01*
X178092619Y-130634285D01*
X178187857Y-130681904D01*
X178330714Y-130681904D01*
X178425952Y-130634285D01*
X178473571Y-130586666D01*
X178521190Y-130491428D01*
X178521190Y-130110475D01*
X178902143Y-131681904D02*
X178949762Y-131634285D01*
X178997381Y-131491428D01*
X178997381Y-131396190D01*
X178949762Y-131253332D01*
X178854524Y-131158094D01*
X178759286Y-131110475D01*
X178568810Y-131062856D01*
X178425952Y-131062856D01*
X178235476Y-131110475D01*
X178140238Y-131158094D01*
X178045000Y-131253332D01*
X177997381Y-131396190D01*
X177997381Y-131491428D01*
X178045000Y-131634285D01*
X178092619Y-131681904D01*
X178473571Y-132443809D02*
X178521190Y-132586666D01*
X178568810Y-132634285D01*
X178664048Y-132681904D01*
X178806905Y-132681904D01*
X178902143Y-132634285D01*
X178949762Y-132586666D01*
X178997381Y-132491428D01*
X178997381Y-132110475D01*
X177997381Y-132110475D01*
X177997381Y-132443809D01*
X178045000Y-132539047D01*
X178092619Y-132586666D01*
X178187857Y-132634285D01*
X178283095Y-132634285D01*
X178378333Y-132586666D01*
X178425952Y-132539047D01*
X178473571Y-132443809D01*
X178473571Y-132110475D01*
X178997381Y-133872380D02*
X178330714Y-133872380D01*
X178521190Y-133872380D02*
X178425952Y-133919999D01*
X178378333Y-133967618D01*
X178330714Y-134062856D01*
X178330714Y-134158095D01*
X178949762Y-134872381D02*
X178997381Y-134777143D01*
X178997381Y-134586666D01*
X178949762Y-134491428D01*
X178854524Y-134443809D01*
X178473571Y-134443809D01*
X178378333Y-134491428D01*
X178330714Y-134586666D01*
X178330714Y-134777143D01*
X178378333Y-134872381D01*
X178473571Y-134920000D01*
X178568810Y-134920000D01*
X178664048Y-134443809D01*
X178330714Y-135253333D02*
X178997381Y-135491428D01*
X178330714Y-135729524D01*
X178997381Y-137443810D02*
X178521190Y-137110476D01*
X178997381Y-136872381D02*
X177997381Y-136872381D01*
X177997381Y-137253334D01*
X178045000Y-137348572D01*
X178092619Y-137396191D01*
X178187857Y-137443810D01*
X178330714Y-137443810D01*
X178425952Y-137396191D01*
X178473571Y-137348572D01*
X178521190Y-137253334D01*
X178521190Y-136872381D01*
X178902143Y-138443810D02*
X178949762Y-138396191D01*
X178997381Y-138253334D01*
X178997381Y-138158096D01*
X178949762Y-138015238D01*
X178854524Y-137920000D01*
X178759286Y-137872381D01*
X178568810Y-137824762D01*
X178425952Y-137824762D01*
X178235476Y-137872381D01*
X178140238Y-137920000D01*
X178045000Y-138015238D01*
X177997381Y-138158096D01*
X177997381Y-138253334D01*
X178045000Y-138396191D01*
X178092619Y-138443810D01*
X178997381Y-139396191D02*
X178997381Y-138824762D01*
X178997381Y-139110476D02*
X177997381Y-139110476D01*
X178140238Y-139015238D01*
X178235476Y-138920000D01*
X178283095Y-138824762D01*
X178616429Y-139824762D02*
X178616429Y-140586667D01*
X178949762Y-141015238D02*
X178997381Y-141158095D01*
X178997381Y-141396191D01*
X178949762Y-141491429D01*
X178902143Y-141539048D01*
X178806905Y-141586667D01*
X178711667Y-141586667D01*
X178616429Y-141539048D01*
X178568810Y-141491429D01*
X178521190Y-141396191D01*
X178473571Y-141205714D01*
X178425952Y-141110476D01*
X178378333Y-141062857D01*
X178283095Y-141015238D01*
X178187857Y-141015238D01*
X178092619Y-141062857D01*
X178045000Y-141110476D01*
X177997381Y-141205714D01*
X177997381Y-141443810D01*
X178045000Y-141586667D01*
X178997381Y-142015238D02*
X177997381Y-142015238D01*
X178711667Y-142348572D01*
X177997381Y-142681905D01*
X178997381Y-142681905D01*
X178997381Y-143158095D02*
X177997381Y-143158095D01*
X177997381Y-143396190D01*
X178045000Y-143539048D01*
X178140238Y-143634286D01*
X178235476Y-143681905D01*
X178425952Y-143729524D01*
X178568810Y-143729524D01*
X178759286Y-143681905D01*
X178854524Y-143634286D01*
X178949762Y-143539048D01*
X178997381Y-143396190D01*
X178997381Y-143158095D01*
D11*
X184294500Y-128468500D02*
X184284500Y-128478500D01*
X183934500Y-128828500D02*
X184294500Y-128468500D01*
X183534500Y-128428500D02*
X183934500Y-128828500D01*
X183924500Y-128818500D02*
X183534500Y-128428500D01*
X183924500Y-127368500D02*
X183924500Y-128818500D01*
D12*
X184721238Y-126103119D02*
X184673619Y-126055500D01*
X184578381Y-126007881D01*
X184340285Y-126007881D01*
X184245047Y-126055500D01*
X184197428Y-126103119D01*
X184149809Y-126198357D01*
X184149809Y-126293595D01*
X184197428Y-126436452D01*
X184768857Y-127007881D01*
X184149809Y-127007881D01*
X183768857Y-126103119D02*
X183721238Y-126055500D01*
X183626000Y-126007881D01*
X183387904Y-126007881D01*
X183292666Y-126055500D01*
X183245047Y-126103119D01*
X183197428Y-126198357D01*
X183197428Y-126293595D01*
X183245047Y-126436452D01*
X183816476Y-127007881D01*
X183197428Y-127007881D01*
X182768857Y-127007881D02*
X182768857Y-126341214D01*
X182768857Y-126436452D02*
X182721238Y-126388833D01*
X182626000Y-126341214D01*
X182483142Y-126341214D01*
X182387904Y-126388833D01*
X182340285Y-126484071D01*
X182340285Y-127007881D01*
X182340285Y-126484071D02*
X182292666Y-126388833D01*
X182197428Y-126341214D01*
X182054571Y-126341214D01*
X181959333Y-126388833D01*
X181911714Y-126484071D01*
X181911714Y-127007881D01*
X181435524Y-127007881D02*
X181435524Y-126341214D01*
X181435524Y-126436452D02*
X181387905Y-126388833D01*
X181292667Y-126341214D01*
X181149809Y-126341214D01*
X181054571Y-126388833D01*
X181006952Y-126484071D01*
X181006952Y-127007881D01*
X181006952Y-126484071D02*
X180959333Y-126388833D01*
X180864095Y-126341214D01*
X180721238Y-126341214D01*
X180626000Y-126388833D01*
X180578381Y-126484071D01*
X180578381Y-127007881D01*
X179157381Y-126619144D02*
X179157381Y-126428667D01*
X179205000Y-126333429D01*
X179252619Y-126285810D01*
X179395476Y-126190572D01*
X179585952Y-126142953D01*
X179966905Y-126142953D01*
X180062143Y-126190572D01*
X180109762Y-126238191D01*
X180157381Y-126333429D01*
X180157381Y-126523906D01*
X180109762Y-126619144D01*
X180062143Y-126666763D01*
X179966905Y-126714382D01*
X179728810Y-126714382D01*
X179633571Y-126666763D01*
X179585952Y-126619144D01*
X179538333Y-126523906D01*
X179538333Y-126333429D01*
X179585952Y-126238191D01*
X179633571Y-126190572D01*
X179728810Y-126142953D01*
X180157381Y-127142953D02*
X179490714Y-127142953D01*
X179585952Y-127142953D02*
X179538333Y-127190572D01*
X179490714Y-127285810D01*
X179490714Y-127428668D01*
X179538333Y-127523906D01*
X179633571Y-127571525D01*
X180157381Y-127571525D01*
X179633571Y-127571525D02*
X179538333Y-127619144D01*
X179490714Y-127714382D01*
X179490714Y-127857239D01*
X179538333Y-127952477D01*
X179633571Y-128000096D01*
X180157381Y-128000096D01*
X180157381Y-128476286D02*
X179490714Y-128476286D01*
X179585952Y-128476286D02*
X179538333Y-128523905D01*
X179490714Y-128619143D01*
X179490714Y-128762001D01*
X179538333Y-128857239D01*
X179633571Y-128904858D01*
X180157381Y-128904858D01*
X179633571Y-128904858D02*
X179538333Y-128952477D01*
X179490714Y-129047715D01*
X179490714Y-129190572D01*
X179538333Y-129285810D01*
X179633571Y-129333429D01*
X180157381Y-129333429D01*
D13*
X250864286Y-129250000D02*
X250921428Y-129192857D01*
X251035714Y-129021429D01*
X251092857Y-128907143D01*
X251150000Y-128735714D01*
X251207143Y-128450000D01*
X251207143Y-128221429D01*
X251150000Y-127935714D01*
X251092857Y-127764286D01*
X251035714Y-127650000D01*
X250921428Y-127478571D01*
X250864286Y-127421429D01*
X249892857Y-128735714D02*
X250007143Y-128792857D01*
X250235714Y-128792857D01*
X250350000Y-128735714D01*
X250407143Y-128678571D01*
X250464286Y-128564286D01*
X250464286Y-128221429D01*
X250407143Y-128107143D01*
X250350000Y-128050000D01*
X250235714Y-127992857D01*
X250007143Y-127992857D01*
X249892857Y-128050000D01*
X249492857Y-129250000D02*
X249435715Y-129192857D01*
X249321429Y-129021429D01*
X249264286Y-128907143D01*
X249207143Y-128735714D01*
X249150000Y-128450000D01*
X249150000Y-128221429D01*
X249207143Y-127935714D01*
X249264286Y-127764286D01*
X249321429Y-127650000D01*
X249435715Y-127478571D01*
X249492857Y-127421429D01*
X247721429Y-127707143D02*
X247664286Y-127650000D01*
X247550000Y-127592857D01*
X247264286Y-127592857D01*
X247150000Y-127650000D01*
X247092857Y-127707143D01*
X247035714Y-127821429D01*
X247035714Y-127935714D01*
X247092857Y-128107143D01*
X247778571Y-128792857D01*
X247035714Y-128792857D01*
X246292857Y-127592857D02*
X246178572Y-127592857D01*
X246064286Y-127650000D01*
X246007143Y-127707143D01*
X245950000Y-127821429D01*
X245892857Y-128050000D01*
X245892857Y-128335714D01*
X245950000Y-128564286D01*
X246007143Y-128678571D01*
X246064286Y-128735714D01*
X246178572Y-128792857D01*
X246292857Y-128792857D01*
X246407143Y-128735714D01*
X246464286Y-128678571D01*
X246521429Y-128564286D01*
X246578572Y-128335714D01*
X246578572Y-128050000D01*
X246521429Y-127821429D01*
X246464286Y-127707143D01*
X246407143Y-127650000D01*
X246292857Y-127592857D01*
X244750000Y-128792857D02*
X245435715Y-128792857D01*
X245092857Y-128792857D02*
X245092857Y-127592857D01*
X245207143Y-127764286D01*
X245321429Y-127878571D01*
X245435715Y-127935714D01*
X243721429Y-127592857D02*
X243950000Y-127592857D01*
X244064286Y-127650000D01*
X244121429Y-127707143D01*
X244235715Y-127878571D01*
X244292858Y-128107143D01*
X244292858Y-128564286D01*
X244235715Y-128678571D01*
X244178572Y-128735714D01*
X244064286Y-128792857D01*
X243835715Y-128792857D01*
X243721429Y-128735714D01*
X243664286Y-128678571D01*
X243607143Y-128564286D01*
X243607143Y-128278571D01*
X243664286Y-128164286D01*
X243721429Y-128107143D01*
X243835715Y-128050000D01*
X244064286Y-128050000D01*
X244178572Y-128107143D01*
X244235715Y-128164286D01*
X244292858Y-128278571D01*
X242178572Y-128792857D02*
X242178572Y-127592857D01*
X241778572Y-128450000D01*
X241378572Y-127592857D01*
X241378572Y-128792857D01*
X240807143Y-128792857D02*
X240807143Y-127992857D01*
X240807143Y-127592857D02*
X240864286Y-127650000D01*
X240807143Y-127707143D01*
X240750000Y-127650000D01*
X240807143Y-127592857D01*
X240807143Y-127707143D01*
X240235714Y-128792857D02*
X240235714Y-127992857D01*
X240235714Y-128221429D02*
X240178571Y-128107143D01*
X240121428Y-128050000D01*
X240007142Y-127992857D01*
X239892857Y-127992857D01*
X239492857Y-128792857D02*
X239492857Y-127592857D01*
X239378571Y-128335714D02*
X239035714Y-128792857D01*
X239035714Y-127992857D02*
X239492857Y-128450000D01*
X238349999Y-128792857D02*
X238464285Y-128735714D01*
X238521428Y-128678571D01*
X238578571Y-128564286D01*
X238578571Y-128221429D01*
X238521428Y-128107143D01*
X238464285Y-128050000D01*
X238349999Y-127992857D01*
X238178571Y-127992857D01*
X238064285Y-128050000D01*
X238007142Y-128107143D01*
X237949999Y-128221429D01*
X237949999Y-128564286D01*
X238007142Y-128678571D01*
X238064285Y-128735714D01*
X238178571Y-128792857D01*
X238349999Y-128792857D01*
X236521428Y-128792857D02*
X236521428Y-127592857D01*
X235835713Y-128792857D02*
X236349999Y-128107143D01*
X235835713Y-127592857D02*
X236521428Y-128278571D01*
X234807142Y-128792857D02*
X234807142Y-128164286D01*
X234864285Y-128050000D01*
X234978571Y-127992857D01*
X235207142Y-127992857D01*
X235321428Y-128050000D01*
X234807142Y-128735714D02*
X234921428Y-128792857D01*
X235207142Y-128792857D01*
X235321428Y-128735714D01*
X235378571Y-128621429D01*
X235378571Y-128507143D01*
X235321428Y-128392857D01*
X235207142Y-128335714D01*
X234921428Y-128335714D01*
X234807142Y-128278571D01*
X234235714Y-128792857D02*
X234235714Y-127992857D01*
X234235714Y-127592857D02*
X234292857Y-127650000D01*
X234235714Y-127707143D01*
X234178571Y-127650000D01*
X234235714Y-127592857D01*
X234235714Y-127707143D01*
X233721428Y-128735714D02*
X233607142Y-128792857D01*
X233378570Y-128792857D01*
X233264285Y-128735714D01*
X233207142Y-128621429D01*
X233207142Y-128564286D01*
X233264285Y-128450000D01*
X233378570Y-128392857D01*
X233549999Y-128392857D01*
X233664285Y-128335714D01*
X233721428Y-128221429D01*
X233721428Y-128164286D01*
X233664285Y-128050000D01*
X233549999Y-127992857D01*
X233378570Y-127992857D01*
X233264285Y-128050000D01*
X232235713Y-128735714D02*
X232349999Y-128792857D01*
X232578570Y-128792857D01*
X232692856Y-128735714D01*
X232749999Y-128621429D01*
X232749999Y-128164286D01*
X232692856Y-128050000D01*
X232578570Y-127992857D01*
X232349999Y-127992857D01*
X232235713Y-128050000D01*
X232178570Y-128164286D01*
X232178570Y-128278571D01*
X232749999Y-128392857D01*
X231664285Y-128792857D02*
X231664285Y-127992857D01*
X231664285Y-128221429D02*
X231607142Y-128107143D01*
X231549999Y-128050000D01*
X231435713Y-127992857D01*
X231321428Y-127992857D01*
X250725000Y-125725000D02*
X250725000Y-126575000D01*
X250775000Y-126675000D01*
X250825000Y-126725000D01*
X250925000Y-126775000D01*
X251075000Y-126775000D01*
X251175000Y-126725000D01*
X250725000Y-126375000D02*
X250825000Y-126425000D01*
X251025000Y-126425000D01*
X251125000Y-126375000D01*
X251175000Y-126325000D01*
X251225000Y-126225000D01*
X251225000Y-125925000D01*
X251175000Y-125825000D01*
X251125000Y-125775000D01*
X251025000Y-125725000D01*
X250825000Y-125725000D01*
X250725000Y-125775000D01*
X250225000Y-126425000D02*
X250225000Y-125725000D01*
X250225000Y-125375000D02*
X250275000Y-125425000D01*
X250225000Y-125475000D01*
X250175000Y-125425000D01*
X250225000Y-125375000D01*
X250225000Y-125475000D01*
X249875000Y-125725000D02*
X249475000Y-125725000D01*
X249725000Y-125375000D02*
X249725000Y-126275000D01*
X249675000Y-126375000D01*
X249575000Y-126425000D01*
X249475000Y-126425000D01*
X249125000Y-126425000D02*
X249125000Y-125375000D01*
X248675000Y-126425000D02*
X248675000Y-125875000D01*
X248725000Y-125775000D01*
X248825000Y-125725000D01*
X248975000Y-125725000D01*
X249075000Y-125775000D01*
X249125000Y-125825000D01*
X247725000Y-125725000D02*
X247725000Y-126425000D01*
X248175000Y-125725000D02*
X248175000Y-126275000D01*
X248125000Y-126375000D01*
X248025000Y-126425000D01*
X247875000Y-126425000D01*
X247775000Y-126375000D01*
X247725000Y-126325000D01*
X247225000Y-126425000D02*
X247225000Y-125375000D01*
X247225000Y-125775000D02*
X247125000Y-125725000D01*
X246925000Y-125725000D01*
X246825000Y-125775000D01*
X246775000Y-125825000D01*
X246725000Y-125925000D01*
X246725000Y-126225000D01*
X246775000Y-126325000D01*
X246825000Y-126375000D01*
X246925000Y-126425000D01*
X247125000Y-126425000D01*
X247225000Y-126375000D01*
X246275000Y-126325000D02*
X246225000Y-126375000D01*
X246275000Y-126425000D01*
X246325000Y-126375000D01*
X246275000Y-126325000D01*
X246275000Y-126425000D01*
X245325000Y-126375000D02*
X245425000Y-126425000D01*
X245625000Y-126425000D01*
X245725000Y-126375000D01*
X245775000Y-126325000D01*
X245825000Y-126225000D01*
X245825000Y-125925000D01*
X245775000Y-125825000D01*
X245725000Y-125775000D01*
X245625000Y-125725000D01*
X245425000Y-125725000D01*
X245325000Y-125775000D01*
X244725000Y-126425000D02*
X244825000Y-126375000D01*
X244875000Y-126325000D01*
X244925000Y-126225000D01*
X244925000Y-125925000D01*
X244875000Y-125825000D01*
X244825000Y-125775000D01*
X244725000Y-125725000D01*
X244575000Y-125725000D01*
X244475000Y-125775000D01*
X244425000Y-125825000D01*
X244375000Y-125925000D01*
X244375000Y-126225000D01*
X244425000Y-126325000D01*
X244475000Y-126375000D01*
X244575000Y-126425000D01*
X244725000Y-126425000D01*
X243925000Y-126425000D02*
X243925000Y-125725000D01*
X243925000Y-125825000D02*
X243875000Y-125775000D01*
X243775000Y-125725000D01*
X243625000Y-125725000D01*
X243525000Y-125775000D01*
X243475000Y-125875000D01*
X243475000Y-126425000D01*
X243475000Y-125875000D02*
X243425000Y-125775000D01*
X243325000Y-125725000D01*
X243175000Y-125725000D01*
X243075000Y-125775000D01*
X243025000Y-125875000D01*
X243025000Y-126425000D01*
X241775000Y-125325000D02*
X242675000Y-126675000D01*
X241425000Y-126425000D02*
X241425000Y-125375000D01*
X240825000Y-126425000D02*
X241275000Y-125825000D01*
X240825000Y-125375000D02*
X241425000Y-125975000D01*
X239925000Y-126425000D02*
X239925000Y-125875000D01*
X239975000Y-125775000D01*
X240075000Y-125725000D01*
X240275000Y-125725000D01*
X240375000Y-125775000D01*
X239925000Y-126375000D02*
X240025000Y-126425000D01*
X240275000Y-126425000D01*
X240375000Y-126375000D01*
X240425000Y-126275000D01*
X240425000Y-126175000D01*
X240375000Y-126075000D01*
X240275000Y-126025000D01*
X240025000Y-126025000D01*
X239925000Y-125975000D01*
X239425000Y-126425000D02*
X239425000Y-125725000D01*
X239425000Y-125375000D02*
X239475000Y-125425000D01*
X239425000Y-125475000D01*
X239375000Y-125425000D01*
X239425000Y-125375000D01*
X239425000Y-125475000D01*
X238975000Y-126375000D02*
X238875000Y-126425000D01*
X238675000Y-126425000D01*
X238575000Y-126375000D01*
X238525000Y-126275000D01*
X238525000Y-126225000D01*
X238575000Y-126125000D01*
X238675000Y-126075000D01*
X238825000Y-126075000D01*
X238925000Y-126025000D01*
X238975000Y-125925000D01*
X238975000Y-125875000D01*
X238925000Y-125775000D01*
X238825000Y-125725000D01*
X238675000Y-125725000D01*
X238575000Y-125775000D01*
X237675000Y-126375000D02*
X237775000Y-126425000D01*
X237975000Y-126425000D01*
X238075000Y-126375000D01*
X238125000Y-126275000D01*
X238125000Y-125875000D01*
X238075000Y-125775000D01*
X237975000Y-125725000D01*
X237775000Y-125725000D01*
X237675000Y-125775000D01*
X237625000Y-125875000D01*
X237625000Y-125975000D01*
X238125000Y-126075000D01*
X237175000Y-126425000D02*
X237175000Y-125725000D01*
X237175000Y-125925000D02*
X237125000Y-125825000D01*
X237075000Y-125775000D01*
X236975000Y-125725000D01*
X236875000Y-125725000D01*
X236575000Y-126375000D02*
X236425000Y-126425000D01*
X236175000Y-126425000D01*
X236075000Y-126375000D01*
X236025000Y-126325000D01*
X235975000Y-126225000D01*
X235975000Y-126125000D01*
X236025000Y-126025000D01*
X236075000Y-125975000D01*
X236175000Y-125925000D01*
X236375000Y-125875000D01*
X236475000Y-125825000D01*
X236525000Y-125775000D01*
X236575000Y-125675000D01*
X236575000Y-125575000D01*
X236525000Y-125475000D01*
X236475000Y-125425000D01*
X236375000Y-125375000D01*
X236125000Y-125375000D01*
X235975000Y-125425000D01*
X235375000Y-126425000D02*
X235475000Y-126375000D01*
X235525000Y-126325000D01*
X235575000Y-126225000D01*
X235575000Y-125925000D01*
X235525000Y-125825000D01*
X235475000Y-125775000D01*
X235375000Y-125725000D01*
X235225000Y-125725000D01*
X235125000Y-125775000D01*
X235075000Y-125825000D01*
X235025000Y-125925000D01*
X235025000Y-126225000D01*
X235075000Y-126325000D01*
X235125000Y-126375000D01*
X235225000Y-126425000D01*
X235375000Y-126425000D01*
X234725000Y-125725000D02*
X234325000Y-125725000D01*
X234575000Y-126425000D02*
X234575000Y-125525000D01*
X234525000Y-125425000D01*
X234425000Y-125375000D01*
X234325000Y-125375000D01*
X234125000Y-125725000D02*
X233725000Y-125725000D01*
X233975000Y-125375000D02*
X233975000Y-126275000D01*
X233925000Y-126375000D01*
X233825000Y-126425000D01*
X233725000Y-126425000D01*
X232625000Y-125325000D02*
X233525000Y-126675000D01*
X232075000Y-125375000D02*
X231875000Y-125375000D01*
X231775000Y-125425000D01*
X231675000Y-125525000D01*
X231625000Y-125725000D01*
X231625000Y-126075000D01*
X231675000Y-126275000D01*
X231775000Y-126375000D01*
X231875000Y-126425000D01*
X232075000Y-126425000D01*
X232175000Y-126375000D01*
X232275000Y-126275000D01*
X232325000Y-126075000D01*
X232325000Y-125725000D01*
X232275000Y-125525000D01*
X232175000Y-125425000D01*
X232075000Y-125375000D01*
X231175000Y-125725000D02*
X231175000Y-126775000D01*
X231175000Y-125775000D02*
X231075000Y-125725000D01*
X230875000Y-125725000D01*
X230775000Y-125775000D01*
X230725000Y-125825000D01*
X230675000Y-125925000D01*
X230675000Y-126225000D01*
X230725000Y-126325000D01*
X230775000Y-126375000D01*
X230875000Y-126425000D01*
X231075000Y-126425000D01*
X231175000Y-126375000D01*
X229825000Y-126375000D02*
X229925000Y-126425000D01*
X230125000Y-126425000D01*
X230225000Y-126375000D01*
X230275000Y-126275000D01*
X230275000Y-125875000D01*
X230225000Y-125775000D01*
X230125000Y-125725000D01*
X229925000Y-125725000D01*
X229825000Y-125775000D01*
X229775000Y-125875000D01*
X229775000Y-125975000D01*
X230275000Y-126075000D01*
X229325000Y-125725000D02*
X229325000Y-126425000D01*
X229325000Y-125825000D02*
X229275000Y-125775000D01*
X229175000Y-125725000D01*
X229025000Y-125725000D01*
X228925000Y-125775000D01*
X228875000Y-125875000D01*
X228875000Y-126425000D01*
X228425000Y-126375000D02*
X228275000Y-126425000D01*
X228025000Y-126425000D01*
X227925000Y-126375000D01*
X227875000Y-126325000D01*
X227825000Y-126225000D01*
X227825000Y-126125000D01*
X227875000Y-126025000D01*
X227925000Y-125975000D01*
X228025000Y-125925000D01*
X228225000Y-125875000D01*
X228325000Y-125825000D01*
X228375000Y-125775000D01*
X228425000Y-125675000D01*
X228425000Y-125575000D01*
X228375000Y-125475000D01*
X228325000Y-125425000D01*
X228225000Y-125375000D01*
X227975000Y-125375000D01*
X227825000Y-125425000D01*
X227375000Y-126425000D02*
X227375000Y-125725000D01*
X227375000Y-125375000D02*
X227425000Y-125425000D01*
X227375000Y-125475000D01*
X227325000Y-125425000D01*
X227375000Y-125375000D01*
X227375000Y-125475000D01*
X226875000Y-126425000D02*
X226875000Y-125725000D01*
X226875000Y-125825000D02*
X226825000Y-125775000D01*
X226725000Y-125725000D01*
X226575000Y-125725000D01*
X226475000Y-125775000D01*
X226425000Y-125875000D01*
X226425000Y-126425000D01*
X226425000Y-125875000D02*
X226375000Y-125775000D01*
X226275000Y-125725000D01*
X226125000Y-125725000D01*
X226025000Y-125775000D01*
X225975000Y-125875000D01*
X225975000Y-126425000D01*
X225125000Y-125875000D02*
X224975000Y-125925000D01*
X224925000Y-125975000D01*
X224875000Y-126075000D01*
X224875000Y-126225000D01*
X224925000Y-126325000D01*
X224975000Y-126375000D01*
X225075000Y-126425000D01*
X225475000Y-126425000D01*
X225475000Y-125375000D01*
X225125000Y-125375000D01*
X225025000Y-125425000D01*
X224975000Y-125475000D01*
X224925000Y-125575000D01*
X224925000Y-125675000D01*
X224975000Y-125775000D01*
X225025000Y-125825000D01*
X225125000Y-125875000D01*
X225475000Y-125875000D01*
X223975000Y-125725000D02*
X223975000Y-126425000D01*
X224425000Y-125725000D02*
X224425000Y-126275000D01*
X224375000Y-126375000D01*
X224275000Y-126425000D01*
X224125000Y-126425000D01*
X224025000Y-126375000D01*
X223975000Y-126325000D01*
X223625000Y-125725000D02*
X223225000Y-125725000D01*
X223475000Y-125375000D02*
X223475000Y-126275000D01*
X223425000Y-126375000D01*
X223325000Y-126425000D01*
X223225000Y-126425000D01*
X223025000Y-125725000D02*
X222625000Y-125725000D01*
X222875000Y-125375000D02*
X222875000Y-126275000D01*
X222825000Y-126375000D01*
X222725000Y-126425000D01*
X222625000Y-126425000D01*
X222125000Y-126425000D02*
X222225000Y-126375000D01*
X222275000Y-126325000D01*
X222325000Y-126225000D01*
X222325000Y-125925000D01*
X222275000Y-125825000D01*
X222225000Y-125775000D01*
X222125000Y-125725000D01*
X221975000Y-125725000D01*
X221875000Y-125775000D01*
X221825000Y-125825000D01*
X221775000Y-125925000D01*
X221775000Y-126225000D01*
X221825000Y-126325000D01*
X221875000Y-126375000D01*
X221975000Y-126425000D01*
X222125000Y-126425000D01*
X221325000Y-125725000D02*
X221325000Y-126425000D01*
X221325000Y-125825000D02*
X221275000Y-125775000D01*
X221175000Y-125725000D01*
X221025000Y-125725000D01*
X220925000Y-125775000D01*
X220875000Y-125875000D01*
X220875000Y-126425000D01*
X220025000Y-125875000D02*
X219875000Y-125925000D01*
X219825000Y-125975000D01*
X219775000Y-126075000D01*
X219775000Y-126225000D01*
X219825000Y-126325000D01*
X219875000Y-126375000D01*
X219975000Y-126425000D01*
X220375000Y-126425000D01*
X220375000Y-125375000D01*
X220025000Y-125375000D01*
X219925000Y-125425000D01*
X219875000Y-125475000D01*
X219825000Y-125575000D01*
X219825000Y-125675000D01*
X219875000Y-125775000D01*
X219925000Y-125825000D01*
X220025000Y-125875000D01*
X220375000Y-125875000D01*
X219175000Y-126425000D02*
X219275000Y-126375000D01*
X219325000Y-126325000D01*
X219375000Y-126225000D01*
X219375000Y-125925000D01*
X219325000Y-125825000D01*
X219275000Y-125775000D01*
X219175000Y-125725000D01*
X219025000Y-125725000D01*
X218925000Y-125775000D01*
X218875000Y-125825000D01*
X218825000Y-125925000D01*
X218825000Y-126225000D01*
X218875000Y-126325000D01*
X218925000Y-126375000D01*
X219025000Y-126425000D01*
X219175000Y-126425000D01*
X218475000Y-126425000D02*
X217925000Y-125725000D01*
X218475000Y-125725000D02*
X217925000Y-126425000D01*
D14*
X251192857Y-124428571D02*
X251192857Y-122928571D01*
X250692857Y-124000000D01*
X250192857Y-122928571D01*
X250192857Y-124428571D01*
X249264285Y-124428571D02*
X249407143Y-124357143D01*
X249478571Y-124285714D01*
X249550000Y-124142857D01*
X249550000Y-123714286D01*
X249478571Y-123571429D01*
X249407143Y-123500000D01*
X249264285Y-123428571D01*
X249050000Y-123428571D01*
X248907143Y-123500000D01*
X248835714Y-123571429D01*
X248764285Y-123714286D01*
X248764285Y-124142857D01*
X248835714Y-124285714D01*
X248907143Y-124357143D01*
X249050000Y-124428571D01*
X249264285Y-124428571D01*
X247478571Y-124428571D02*
X247478571Y-122928571D01*
X247478571Y-124357143D02*
X247621428Y-124428571D01*
X247907142Y-124428571D01*
X248050000Y-124357143D01*
X248121428Y-124285714D01*
X248192857Y-124142857D01*
X248192857Y-123714286D01*
X248121428Y-123571429D01*
X248050000Y-123500000D01*
X247907142Y-123428571D01*
X247621428Y-123428571D01*
X247478571Y-123500000D01*
X246121428Y-123428571D02*
X246121428Y-124428571D01*
X246764285Y-123428571D02*
X246764285Y-124214286D01*
X246692857Y-124357143D01*
X246549999Y-124428571D01*
X246335714Y-124428571D01*
X246192857Y-124357143D01*
X246121428Y-124285714D01*
X245192856Y-124428571D02*
X245335714Y-124357143D01*
X245407142Y-124214286D01*
X245407142Y-122928571D01*
X243978571Y-124428571D02*
X243978571Y-123642857D01*
X244050000Y-123500000D01*
X244192857Y-123428571D01*
X244478571Y-123428571D01*
X244621428Y-123500000D01*
X243978571Y-124357143D02*
X244121428Y-124428571D01*
X244478571Y-124428571D01*
X244621428Y-124357143D01*
X244692857Y-124214286D01*
X244692857Y-124071429D01*
X244621428Y-123928571D01*
X244478571Y-123857143D01*
X244121428Y-123857143D01*
X243978571Y-123785714D01*
X243264285Y-124428571D02*
X243264285Y-123428571D01*
X243264285Y-123714286D02*
X243192857Y-123571429D01*
X243121428Y-123500000D01*
X242978571Y-123428571D01*
X242835714Y-123428571D01*
X240907143Y-122928571D02*
X240621429Y-122928571D01*
X240478571Y-123000000D01*
X240335714Y-123142857D01*
X240264286Y-123428571D01*
X240264286Y-123928571D01*
X240335714Y-124214286D01*
X240478571Y-124357143D01*
X240621429Y-124428571D01*
X240907143Y-124428571D01*
X241050000Y-124357143D01*
X241192857Y-124214286D01*
X241264286Y-123928571D01*
X241264286Y-123428571D01*
X241192857Y-123142857D01*
X241050000Y-123000000D01*
X240907143Y-122928571D01*
X239621428Y-123428571D02*
X239621428Y-124928571D01*
X239621428Y-123500000D02*
X239478571Y-123428571D01*
X239192857Y-123428571D01*
X239050000Y-123500000D01*
X238978571Y-123571429D01*
X238907142Y-123714286D01*
X238907142Y-124142857D01*
X238978571Y-124285714D01*
X239050000Y-124357143D01*
X239192857Y-124428571D01*
X239478571Y-124428571D01*
X239621428Y-124357143D01*
X237692857Y-124357143D02*
X237835714Y-124428571D01*
X238121428Y-124428571D01*
X238264285Y-124357143D01*
X238335714Y-124214286D01*
X238335714Y-123642857D01*
X238264285Y-123500000D01*
X238121428Y-123428571D01*
X237835714Y-123428571D01*
X237692857Y-123500000D01*
X237621428Y-123642857D01*
X237621428Y-123785714D01*
X238335714Y-123928571D01*
X236978571Y-123428571D02*
X236978571Y-124428571D01*
X236978571Y-123571429D02*
X236907143Y-123500000D01*
X236764285Y-123428571D01*
X236550000Y-123428571D01*
X236407143Y-123500000D01*
X236335714Y-123642857D01*
X236335714Y-124428571D01*
X233978571Y-123642857D02*
X233764285Y-123714286D01*
X233692857Y-123785714D01*
X233621428Y-123928571D01*
X233621428Y-124142857D01*
X233692857Y-124285714D01*
X233764285Y-124357143D01*
X233907143Y-124428571D01*
X234478571Y-124428571D01*
X234478571Y-122928571D01*
X233978571Y-122928571D01*
X233835714Y-123000000D01*
X233764285Y-123071429D01*
X233692857Y-123214286D01*
X233692857Y-123357143D01*
X233764285Y-123500000D01*
X233835714Y-123571429D01*
X233978571Y-123642857D01*
X234478571Y-123642857D01*
X232335714Y-123428571D02*
X232335714Y-124428571D01*
X232978571Y-123428571D02*
X232978571Y-124214286D01*
X232907143Y-124357143D01*
X232764285Y-124428571D01*
X232550000Y-124428571D01*
X232407143Y-124357143D01*
X232335714Y-124285714D01*
X231835714Y-123428571D02*
X231264285Y-123428571D01*
X231621428Y-122928571D02*
X231621428Y-124214286D01*
X231550000Y-124357143D01*
X231407142Y-124428571D01*
X231264285Y-124428571D01*
X230978571Y-123428571D02*
X230407142Y-123428571D01*
X230764285Y-122928571D02*
X230764285Y-124214286D01*
X230692857Y-124357143D01*
X230549999Y-124428571D01*
X230407142Y-124428571D01*
X229692856Y-124428571D02*
X229835714Y-124357143D01*
X229907142Y-124285714D01*
X229978571Y-124142857D01*
X229978571Y-123714286D01*
X229907142Y-123571429D01*
X229835714Y-123500000D01*
X229692856Y-123428571D01*
X229478571Y-123428571D01*
X229335714Y-123500000D01*
X229264285Y-123571429D01*
X229192856Y-123714286D01*
X229192856Y-124142857D01*
X229264285Y-124285714D01*
X229335714Y-124357143D01*
X229478571Y-124428571D01*
X229692856Y-124428571D01*
X228549999Y-123428571D02*
X228549999Y-124428571D01*
X228549999Y-123571429D02*
X228478571Y-123500000D01*
X228335713Y-123428571D01*
X228121428Y-123428571D01*
X227978571Y-123500000D01*
X227907142Y-123642857D01*
X227907142Y-124428571D01*
X225549999Y-123642857D02*
X225335713Y-123714286D01*
X225264285Y-123785714D01*
X225192856Y-123928571D01*
X225192856Y-124142857D01*
X225264285Y-124285714D01*
X225335713Y-124357143D01*
X225478571Y-124428571D01*
X226049999Y-124428571D01*
X226049999Y-122928571D01*
X225549999Y-122928571D01*
X225407142Y-123000000D01*
X225335713Y-123071429D01*
X225264285Y-123214286D01*
X225264285Y-123357143D01*
X225335713Y-123500000D01*
X225407142Y-123571429D01*
X225549999Y-123642857D01*
X226049999Y-123642857D01*
X224335713Y-124428571D02*
X224478571Y-124357143D01*
X224549999Y-124285714D01*
X224621428Y-124142857D01*
X224621428Y-123714286D01*
X224549999Y-123571429D01*
X224478571Y-123500000D01*
X224335713Y-123428571D01*
X224121428Y-123428571D01*
X223978571Y-123500000D01*
X223907142Y-123571429D01*
X223835713Y-123714286D01*
X223835713Y-124142857D01*
X223907142Y-124285714D01*
X223978571Y-124357143D01*
X224121428Y-124428571D01*
X224335713Y-124428571D01*
X223335713Y-124428571D02*
X222549999Y-123428571D01*
X223335713Y-123428571D02*
X222549999Y-124428571D01*
X220407142Y-125000000D02*
X220478570Y-124928571D01*
X220621427Y-124714286D01*
X220692856Y-124571429D01*
X220764285Y-124357143D01*
X220835713Y-124000000D01*
X220835713Y-123714286D01*
X220764285Y-123357143D01*
X220692856Y-123142857D01*
X220621427Y-123000000D01*
X220478570Y-122785714D01*
X220407142Y-122714286D01*
X219835713Y-124428571D02*
X219835713Y-122928571D01*
X219335713Y-124000000D01*
X218835713Y-122928571D01*
X218835713Y-124428571D01*
X217835713Y-122928571D02*
X217549999Y-122928571D01*
X217407141Y-123000000D01*
X217264284Y-123142857D01*
X217192856Y-123428571D01*
X217192856Y-123928571D01*
X217264284Y-124214286D01*
X217407141Y-124357143D01*
X217549999Y-124428571D01*
X217835713Y-124428571D01*
X217978570Y-124357143D01*
X218121427Y-124214286D01*
X218192856Y-123928571D01*
X218192856Y-123428571D01*
X218121427Y-123142857D01*
X217978570Y-123000000D01*
X217835713Y-122928571D01*
X216049998Y-123642857D02*
X215835712Y-123714286D01*
X215764284Y-123785714D01*
X215692855Y-123928571D01*
X215692855Y-124142857D01*
X215764284Y-124285714D01*
X215835712Y-124357143D01*
X215978570Y-124428571D01*
X216549998Y-124428571D01*
X216549998Y-122928571D01*
X216049998Y-122928571D01*
X215907141Y-123000000D01*
X215835712Y-123071429D01*
X215764284Y-123214286D01*
X215764284Y-123357143D01*
X215835712Y-123500000D01*
X215907141Y-123571429D01*
X216049998Y-123642857D01*
X216549998Y-123642857D01*
X214549998Y-123642857D02*
X214335712Y-123714286D01*
X214264284Y-123785714D01*
X214192855Y-123928571D01*
X214192855Y-124142857D01*
X214264284Y-124285714D01*
X214335712Y-124357143D01*
X214478570Y-124428571D01*
X215049998Y-124428571D01*
X215049998Y-122928571D01*
X214549998Y-122928571D01*
X214407141Y-123000000D01*
X214335712Y-123071429D01*
X214264284Y-123214286D01*
X214264284Y-123357143D01*
X214335712Y-123500000D01*
X214407141Y-123571429D01*
X214549998Y-123642857D01*
X215049998Y-123642857D01*
X213692855Y-125000000D02*
X213621427Y-124928571D01*
X213478570Y-124714286D01*
X213407141Y-124571429D01*
X213335712Y-124357143D01*
X213264284Y-124000000D01*
X213264284Y-123714286D01*
X213335712Y-123357143D01*
X213407141Y-123142857D01*
X213478570Y-123000000D01*
X213621427Y-122785714D01*
X213692855Y-122714286D01*
M02*
