G04 #@! TF.FileFunction,Copper,L2,Bot,Signal*
%FSLAX46Y46*%
G04 Gerber Fmt 4.6, Leading zero omitted, Abs format (unit mm)*
G04 Created by KiCad (PCBNEW 4.0.4-stable) date 02/26/17 13:48:46*
%MOMM*%
%LPD*%
G01*
G04 APERTURE LIST*
%ADD10C,0.100000*%
%ADD11C,0.600000*%
%ADD12R,1.600000X1.600000*%
%ADD13C,1.600000*%
%ADD14R,1.600000X2.400000*%
%ADD15O,1.600000X2.400000*%
%ADD16R,1.700000X1.700000*%
%ADD17O,1.700000X1.700000*%
%ADD18C,6.400000*%
%ADD19C,0.800000*%
%ADD20C,0.750000*%
%ADD21C,0.500000*%
%ADD22C,0.250000*%
%ADD23C,1.000000*%
G04 APERTURE END LIST*
D10*
D11*
X228175000Y-138525000D03*
X181275000Y-114075000D03*
X190325000Y-129425000D03*
X229975000Y-130250000D03*
X225350000Y-130975000D03*
X215950000Y-126325000D03*
X214050000Y-124775000D03*
X223300000Y-129225000D03*
X208425000Y-104400000D03*
X250925000Y-121175000D03*
X197500000Y-108725000D03*
X183525000Y-103425000D03*
X230175000Y-136875000D03*
X226625000Y-140875000D03*
D12*
X254900000Y-124900000D03*
D13*
X254900000Y-122400000D03*
D11*
X259350000Y-116900000D03*
X259400000Y-123650000D03*
X196200000Y-121750000D03*
X185500000Y-130600000D03*
X185250000Y-133550000D03*
X185350000Y-138200000D03*
X241825000Y-102900000D03*
X259650000Y-100350000D03*
X188760000Y-104300000D03*
X227075000Y-110050000D03*
X185250000Y-113950000D03*
X216750000Y-122650000D03*
X242125000Y-124525000D03*
X186950000Y-106070000D03*
X230800000Y-116825000D03*
X205150000Y-120475000D03*
X188925000Y-123925000D03*
X190075000Y-119500000D03*
X181525000Y-109525000D03*
X179050000Y-128600000D03*
X179600000Y-133550000D03*
X180900000Y-141750000D03*
X178950000Y-117875000D03*
X198550000Y-118975000D03*
X198425000Y-110975000D03*
X188425000Y-121150000D03*
X196300000Y-120000000D03*
X221875000Y-123925000D03*
X219325000Y-124900000D03*
X216275000Y-131050000D03*
X209800000Y-127375000D03*
X211600000Y-128850000D03*
X184450000Y-118500000D03*
X211400000Y-134675000D03*
X190250000Y-125750000D03*
X183750000Y-140850000D03*
X185225000Y-142800000D03*
X197050000Y-143550000D03*
X199200000Y-141250000D03*
X187800000Y-143300000D03*
X202900000Y-143250000D03*
X202400000Y-136525000D03*
X206850000Y-142950000D03*
X209700000Y-143350000D03*
X214300000Y-143350000D03*
X217100000Y-138900000D03*
X217100000Y-143000000D03*
X220000000Y-143250000D03*
X225250000Y-143400000D03*
X259750000Y-143600000D03*
X256400000Y-138300000D03*
X259250000Y-127100000D03*
X252700000Y-116425000D03*
X221375000Y-110850000D03*
X253175000Y-114300000D03*
X259400000Y-120350000D03*
X253550000Y-129450000D03*
X255675000Y-127325000D03*
X220000000Y-129125000D03*
X242950000Y-127425000D03*
X237350000Y-127500000D03*
X233275000Y-124950000D03*
X232800000Y-130650000D03*
X227375000Y-128275000D03*
X236800000Y-122125000D03*
X230425000Y-122275000D03*
X226975000Y-124075000D03*
X224550000Y-122400000D03*
X257400000Y-96550000D03*
X252400000Y-96550000D03*
X247400000Y-96550000D03*
X242400000Y-96550000D03*
X237400000Y-96550000D03*
X232400000Y-96550000D03*
X227400000Y-96550000D03*
X222400000Y-96550000D03*
X217400000Y-96550000D03*
X212400000Y-96550000D03*
X207400000Y-96550000D03*
X202400000Y-96550000D03*
X197400000Y-96550000D03*
X192400000Y-96550000D03*
X187400000Y-96550000D03*
X182400000Y-96550000D03*
D14*
X216800000Y-133800000D03*
D15*
X249820000Y-118560000D03*
X219340000Y-133800000D03*
X247280000Y-118560000D03*
X221880000Y-133800000D03*
X244740000Y-118560000D03*
X224420000Y-133800000D03*
X242200000Y-118560000D03*
X226960000Y-133800000D03*
X239660000Y-118560000D03*
X229500000Y-133800000D03*
X237120000Y-118560000D03*
X232040000Y-133800000D03*
X234580000Y-118560000D03*
X234580000Y-133800000D03*
X232040000Y-118560000D03*
X237120000Y-133800000D03*
X229500000Y-118560000D03*
X239660000Y-133800000D03*
X226960000Y-118560000D03*
X242200000Y-133800000D03*
X224420000Y-118560000D03*
X244740000Y-133800000D03*
X221880000Y-118560000D03*
X247280000Y-133800000D03*
X219340000Y-118560000D03*
X249820000Y-133800000D03*
X216800000Y-118560000D03*
D13*
X208050000Y-120050000D03*
X213050000Y-120050000D03*
X193300000Y-130050000D03*
X193300000Y-125050000D03*
D16*
X193200000Y-120400000D03*
X196596000Y-140716000D03*
D17*
X194056000Y-140716000D03*
D16*
X214400000Y-138200000D03*
D17*
X214400000Y-140740000D03*
X211860000Y-138200000D03*
X211860000Y-140740000D03*
X209320000Y-138200000D03*
X209320000Y-140740000D03*
D16*
X224536000Y-138176000D03*
D17*
X224536000Y-140716000D03*
X221996000Y-138176000D03*
X221996000Y-140716000D03*
X219456000Y-138176000D03*
X219456000Y-140716000D03*
D16*
X204216000Y-140716000D03*
D17*
X201676000Y-140716000D03*
D16*
X242316000Y-140716000D03*
D17*
X239776000Y-140716000D03*
X237236000Y-140716000D03*
X234696000Y-140716000D03*
X232156000Y-140716000D03*
X229616000Y-140716000D03*
D16*
X179600000Y-101600000D03*
D17*
X179600000Y-99060000D03*
X182140000Y-101600000D03*
X182140000Y-99060000D03*
X184680000Y-101600000D03*
X184680000Y-99060000D03*
X187220000Y-101600000D03*
X187220000Y-99060000D03*
X189760000Y-101600000D03*
X189760000Y-99060000D03*
X192300000Y-101600000D03*
X192300000Y-99060000D03*
X194840000Y-101600000D03*
X194840000Y-99060000D03*
X197380000Y-101600000D03*
X197380000Y-99060000D03*
X199920000Y-101600000D03*
X199920000Y-99060000D03*
X202460000Y-101600000D03*
X202460000Y-99060000D03*
X205000000Y-101600000D03*
X205000000Y-99060000D03*
X207540000Y-101600000D03*
X207540000Y-99060000D03*
X210080000Y-101600000D03*
X210080000Y-99060000D03*
X212620000Y-101600000D03*
X212620000Y-99060000D03*
X215160000Y-101600000D03*
X215160000Y-99060000D03*
X217700000Y-101600000D03*
X217700000Y-99060000D03*
X220240000Y-101600000D03*
X220240000Y-99060000D03*
X222780000Y-101600000D03*
X222780000Y-99060000D03*
X225320000Y-101600000D03*
X225320000Y-99060000D03*
X227860000Y-101600000D03*
X227860000Y-99060000D03*
X230400000Y-101600000D03*
X230400000Y-99060000D03*
X232940000Y-101600000D03*
X232940000Y-99060000D03*
X235480000Y-101600000D03*
X235480000Y-99060000D03*
X238020000Y-101600000D03*
X238020000Y-99060000D03*
X240560000Y-101600000D03*
X240560000Y-99060000D03*
X243100000Y-101600000D03*
X243100000Y-99060000D03*
X245640000Y-101600000D03*
X245640000Y-99060000D03*
X248180000Y-101600000D03*
X248180000Y-99060000D03*
X250720000Y-101600000D03*
X250720000Y-99060000D03*
X253260000Y-101600000D03*
X253260000Y-99060000D03*
X255800000Y-101600000D03*
X255800000Y-99060000D03*
X258340000Y-101600000D03*
X258340000Y-99060000D03*
D16*
X257556000Y-140716000D03*
D17*
X255016000Y-140716000D03*
X252476000Y-140716000D03*
X249936000Y-140716000D03*
X247396000Y-140716000D03*
D18*
X181400000Y-122720000D03*
X255870000Y-133720000D03*
D11*
X177210000Y-97090000D03*
D19*
X255175000Y-116025000D03*
X252075000Y-106075000D03*
X247925000Y-108325000D03*
X227125000Y-105750000D03*
X208750000Y-107050000D03*
X207200000Y-108750000D03*
X205725000Y-116925000D03*
X187200000Y-109050000D03*
X187600000Y-111000000D03*
X187825000Y-115900000D03*
X187475000Y-117950000D03*
X203300000Y-130700000D03*
X216650000Y-103250000D03*
X257875000Y-120775000D03*
X205550000Y-112850000D03*
X197600000Y-105025000D03*
X181850000Y-115825000D03*
X178975000Y-106175000D03*
X200475000Y-103275000D03*
X201925000Y-108275000D03*
X201850000Y-113300000D03*
X224400000Y-113000000D03*
X218950000Y-102975000D03*
X238900000Y-111525000D03*
X246250000Y-110900000D03*
X259600000Y-103400000D03*
X258750000Y-115650000D03*
X242600000Y-106350000D03*
X198550000Y-125750000D03*
X204150000Y-123750000D03*
X209550000Y-125450000D03*
X193400000Y-131700000D03*
D11*
X191550000Y-108075000D03*
X193950000Y-103275000D03*
X193575000Y-111475000D03*
X192100000Y-110825000D03*
X202350000Y-106375000D03*
X198625000Y-106875000D03*
X208875000Y-110725000D03*
X205600000Y-108775000D03*
X206175000Y-103750000D03*
X212025000Y-108225000D03*
X211725000Y-111275000D03*
X212175000Y-112075000D03*
X212600000Y-107500000D03*
X211150000Y-105550000D03*
X213025000Y-105850000D03*
X207850000Y-106400000D03*
X206300000Y-107600000D03*
X211725000Y-112775000D03*
X206475000Y-111875000D03*
X228375000Y-103700000D03*
X232350000Y-109400000D03*
X230450000Y-109975000D03*
X232875000Y-107950000D03*
X230450000Y-111275000D03*
X252850000Y-110750000D03*
X254550000Y-111650000D03*
X249300000Y-105800000D03*
X252250000Y-109400000D03*
X254600000Y-109700000D03*
X250600000Y-104350000D03*
X254900000Y-103900000D03*
X252250000Y-105050000D03*
X252250000Y-108150000D03*
X254900000Y-108450000D03*
X255700000Y-129150000D03*
X250600000Y-129900000D03*
X251000000Y-136250000D03*
X249350000Y-136550000D03*
X250150000Y-130950000D03*
X210750000Y-123575000D03*
X247575000Y-115700000D03*
X232575000Y-115425000D03*
X226475000Y-115850000D03*
X212575000Y-116325000D03*
X207100000Y-115900000D03*
X201925000Y-116350000D03*
X211750000Y-123575000D03*
X247975000Y-114775000D03*
X231825000Y-114675000D03*
X226475000Y-114975000D03*
X211925000Y-115000000D03*
X208075000Y-114725000D03*
X199150000Y-114925000D03*
X212625000Y-123600000D03*
X248025000Y-113650000D03*
X230825000Y-113725000D03*
X226550000Y-113825000D03*
X208825000Y-113175000D03*
X199275000Y-113375000D03*
X184350000Y-108750000D03*
X185900000Y-110800000D03*
X224600000Y-109400000D03*
X225775000Y-112675000D03*
X247150000Y-110400000D03*
X246050000Y-109200000D03*
X189500000Y-128300000D03*
X186690000Y-128350000D03*
X248600000Y-120700000D03*
X235950000Y-120700000D03*
X199900000Y-124100000D03*
X198200000Y-123500000D03*
X206050000Y-131100000D03*
X212200000Y-130300000D03*
D20*
X204216000Y-140716000D02*
X209296000Y-140716000D01*
X209296000Y-140716000D02*
X209320000Y-140740000D01*
X211860000Y-140740000D02*
X214400000Y-140740000D01*
X209320000Y-140740000D02*
X211860000Y-140740000D01*
X209296000Y-140716000D02*
X209320000Y-140740000D01*
D21*
X208750000Y-107050000D02*
X208750000Y-106225000D01*
X210350000Y-104625000D02*
X214175000Y-104625000D01*
X208750000Y-106225000D02*
X210350000Y-104625000D01*
X227125000Y-105750000D02*
X228325000Y-106950000D01*
X230800000Y-106950000D02*
X233200000Y-104550000D01*
X228325000Y-106950000D02*
X230800000Y-106950000D01*
X255175000Y-115975000D02*
X255175000Y-116025000D01*
X257350000Y-113800000D02*
X255175000Y-115975000D01*
X257350000Y-107275000D02*
X257350000Y-113800000D01*
X256125000Y-106050000D02*
X257350000Y-107275000D01*
X252100000Y-106050000D02*
X256125000Y-106050000D01*
X252075000Y-106075000D02*
X252100000Y-106050000D01*
X247550000Y-107100000D02*
X247550000Y-107925000D01*
X247550000Y-107925000D02*
X247925000Y-108300000D01*
X247925000Y-108300000D02*
X247925000Y-108325000D01*
X245000000Y-104550000D02*
X247550000Y-107100000D01*
X233200000Y-104550000D02*
X245000000Y-104550000D01*
X227100000Y-105775000D02*
X227125000Y-105750000D01*
X215325000Y-105775000D02*
X227100000Y-105775000D01*
X214175000Y-104625000D02*
X215325000Y-105775000D01*
X208750000Y-107200000D02*
X208750000Y-107050000D01*
X207200000Y-108750000D02*
X208750000Y-107200000D01*
X208050000Y-120050000D02*
X208050000Y-119250000D01*
X208050000Y-119250000D02*
X205725000Y-116925000D01*
X187200000Y-110600000D02*
X187200000Y-109050000D01*
X187600000Y-111000000D02*
X187200000Y-110600000D01*
X187825000Y-117600000D02*
X187825000Y-115900000D01*
X187475000Y-117950000D02*
X187825000Y-117600000D01*
X218950000Y-102975000D02*
X218950000Y-102950000D01*
X194056000Y-140716000D02*
X193936000Y-140716000D01*
X219456000Y-138176000D02*
X219456000Y-137756000D01*
X219456000Y-137756000D02*
X216800000Y-135100000D01*
X216800000Y-135100000D02*
X216800000Y-133800000D01*
X224536000Y-138176000D02*
X221996000Y-138176000D01*
X221996000Y-138044000D02*
X219588000Y-138044000D01*
X219588000Y-138044000D02*
X219456000Y-138176000D01*
D22*
X191550000Y-108075000D02*
X193025000Y-106600000D01*
X193025000Y-106600000D02*
X193025000Y-104200000D01*
X193025000Y-104200000D02*
X193950000Y-103275000D01*
X192750000Y-111475000D02*
X193575000Y-111475000D01*
X192100000Y-110825000D02*
X192750000Y-111475000D01*
X199125000Y-106375000D02*
X202350000Y-106375000D01*
X198625000Y-106875000D02*
X199125000Y-106375000D01*
X205600000Y-108775000D02*
X205600000Y-109175000D01*
X208275000Y-111325000D02*
X208875000Y-110725000D01*
X207750000Y-111325000D02*
X208275000Y-111325000D01*
X205600000Y-109175000D02*
X207750000Y-111325000D01*
X206175000Y-103750000D02*
X207540000Y-102385000D01*
X207540000Y-102385000D02*
X207540000Y-101600000D01*
X211725000Y-110100000D02*
X211725000Y-108525000D01*
X211725000Y-111275000D02*
X211725000Y-110100000D01*
X211725000Y-108525000D02*
X212025000Y-108225000D01*
X212775000Y-108450000D02*
X212775000Y-107675000D01*
X212650000Y-108575000D02*
X212775000Y-108450000D01*
X212650000Y-111600000D02*
X212650000Y-109075000D01*
X212175000Y-112075000D02*
X212650000Y-111600000D01*
X212650000Y-109075000D02*
X212650000Y-108575000D01*
X212775000Y-107675000D02*
X212600000Y-107500000D01*
X211450000Y-105850000D02*
X213025000Y-105850000D01*
X211150000Y-105550000D02*
X211450000Y-105850000D01*
X207850000Y-106400000D02*
X206650000Y-107600000D01*
X206650000Y-107600000D02*
X206300000Y-107600000D01*
X215250000Y-101690000D02*
X215160000Y-101600000D01*
X209275000Y-112600000D02*
X209275000Y-111975000D01*
X209175000Y-111875000D02*
X206475000Y-111875000D01*
X211550000Y-112600000D02*
X211725000Y-112775000D01*
X209275000Y-112600000D02*
X211550000Y-112600000D01*
X209275000Y-111975000D02*
X209175000Y-111875000D01*
X217750000Y-101650000D02*
X217700000Y-101600000D01*
X220250000Y-101610000D02*
X220240000Y-101600000D01*
X222750000Y-101630000D02*
X222780000Y-101600000D01*
X227860000Y-103185000D02*
X227860000Y-101600000D01*
X228375000Y-103700000D02*
X227860000Y-103185000D01*
X227825000Y-101635000D02*
X227860000Y-101600000D01*
X227750000Y-101710000D02*
X227860000Y-101600000D01*
X231025000Y-109400000D02*
X232350000Y-109400000D01*
X230450000Y-109975000D02*
X231025000Y-109400000D01*
X233025000Y-108100000D02*
X232875000Y-107950000D01*
X233025000Y-109750000D02*
X233025000Y-108100000D01*
X232350000Y-110425000D02*
X233025000Y-109750000D01*
X231300000Y-110425000D02*
X232350000Y-110425000D01*
X230450000Y-111275000D02*
X231300000Y-110425000D01*
X235500000Y-101620000D02*
X235480000Y-101600000D01*
X238000000Y-101620000D02*
X238020000Y-101600000D01*
X253650000Y-110750000D02*
X252850000Y-110750000D01*
X254550000Y-111650000D02*
X253650000Y-110750000D01*
X248180000Y-101600000D02*
X248180000Y-104680000D01*
X248180000Y-104680000D02*
X249300000Y-105800000D01*
X252200000Y-109400000D02*
X252250000Y-109400000D01*
X254300000Y-109400000D02*
X252200000Y-109400000D01*
X254600000Y-109700000D02*
X254300000Y-109400000D01*
X250600000Y-104350000D02*
X253260000Y-101690000D01*
X253260000Y-101690000D02*
X253260000Y-101600000D01*
X253260000Y-101600000D02*
X253250000Y-101600000D01*
X253400000Y-103900000D02*
X254900000Y-103900000D01*
X252250000Y-105050000D02*
X253400000Y-103900000D01*
X254600000Y-108150000D02*
X252250000Y-108150000D01*
X254900000Y-108450000D02*
X254600000Y-108150000D01*
X257556000Y-139644000D02*
X259800000Y-137400000D01*
X259800000Y-137400000D02*
X259800000Y-131100000D01*
X259800000Y-131100000D02*
X257850000Y-129150000D01*
X257850000Y-129150000D02*
X255700000Y-129150000D01*
X257556000Y-140716000D02*
X257556000Y-139644000D01*
X251850000Y-131150000D02*
X250600000Y-129900000D01*
X251850000Y-135400000D02*
X251850000Y-131150000D01*
X251000000Y-136250000D02*
X251850000Y-135400000D01*
X249350000Y-136550000D02*
X250400000Y-135500000D01*
X250400000Y-135500000D02*
X250950000Y-135500000D01*
X250950000Y-135500000D02*
X251300000Y-135150000D01*
X251300000Y-135150000D02*
X251300000Y-132100000D01*
X251300000Y-132100000D02*
X250150000Y-130950000D01*
X209525000Y-122350000D02*
X208225000Y-122350000D01*
X210750000Y-123575000D02*
X209525000Y-122350000D01*
X203400000Y-116500000D02*
X203400000Y-115900000D01*
X206500000Y-119600000D02*
X203400000Y-116500000D01*
X206500000Y-120625000D02*
X206500000Y-119600000D01*
X208225000Y-122350000D02*
X206500000Y-120625000D01*
X232850000Y-115700000D02*
X247575000Y-115700000D01*
X232575000Y-115425000D02*
X232850000Y-115700000D01*
X213050000Y-115850000D02*
X226475000Y-115850000D01*
X212575000Y-116325000D02*
X213050000Y-115850000D01*
X202375000Y-115900000D02*
X203400000Y-115900000D01*
X203400000Y-115900000D02*
X207100000Y-115900000D01*
X201925000Y-116350000D02*
X202375000Y-115900000D01*
X211750000Y-123575000D02*
X209450000Y-121275000D01*
X209450000Y-121275000D02*
X209450000Y-119325000D01*
X209450000Y-119325000D02*
X208075000Y-117950000D01*
X208075000Y-117950000D02*
X208075000Y-114725000D01*
X247950000Y-114750000D02*
X247975000Y-114775000D01*
X231900000Y-114750000D02*
X247950000Y-114750000D01*
X231825000Y-114675000D02*
X231900000Y-114750000D01*
X211950000Y-114975000D02*
X226475000Y-114975000D01*
X211925000Y-115000000D02*
X211950000Y-114975000D01*
X208050000Y-114700000D02*
X208075000Y-114725000D01*
X207150000Y-114700000D02*
X208050000Y-114700000D01*
X206450000Y-115400000D02*
X207150000Y-114700000D01*
X199625000Y-115400000D02*
X206450000Y-115400000D01*
X199150000Y-114925000D02*
X199625000Y-115400000D01*
X212625000Y-123600000D02*
X212450000Y-123425000D01*
X212450000Y-123425000D02*
X212450000Y-123225000D01*
X212450000Y-123225000D02*
X210025000Y-120800000D01*
X210025000Y-120800000D02*
X210025000Y-119069998D01*
X210025000Y-119069998D02*
X208825000Y-117869998D01*
X208825000Y-117869998D02*
X208825000Y-113175000D01*
X247725000Y-113950000D02*
X248025000Y-113650000D01*
X231050000Y-113950000D02*
X247725000Y-113950000D01*
X230825000Y-113725000D02*
X231050000Y-113950000D01*
X208825000Y-113175000D02*
X210975000Y-113175000D01*
X226100000Y-114275000D02*
X226550000Y-113825000D01*
X212075000Y-114275000D02*
X226100000Y-114275000D01*
X210975000Y-113175000D02*
X212075000Y-114275000D01*
X206400000Y-113675000D02*
X208325000Y-113675000D01*
X199275000Y-113675000D02*
X200500000Y-114900000D01*
X200500000Y-114900000D02*
X206225000Y-114900000D01*
X206225000Y-114900000D02*
X206400000Y-114725000D01*
X206400000Y-114725000D02*
X206400000Y-113675000D01*
X199275000Y-113375000D02*
X199275000Y-113675000D01*
X208325000Y-113675000D02*
X208825000Y-113175000D01*
X199275000Y-113375000D02*
X199325000Y-113375000D01*
X184350000Y-109250000D02*
X184350000Y-108750000D01*
X185900000Y-110800000D02*
X184350000Y-109250000D01*
X225800000Y-110600000D02*
X224600000Y-109400000D01*
X225800000Y-112650000D02*
X225800000Y-110600000D01*
X225775000Y-112675000D02*
X225800000Y-112650000D01*
X229500000Y-118560000D02*
X229500000Y-118100000D01*
X247150000Y-110400000D02*
X246050000Y-109300000D01*
X246050000Y-109300000D02*
X246050000Y-109200000D01*
D23*
X258340000Y-99060000D02*
X179600000Y-99060000D01*
D20*
X221880000Y-118560000D02*
X221880000Y-119545000D01*
X221880000Y-119545000D02*
X220675000Y-120750000D01*
X220675000Y-120750000D02*
X215650000Y-120750000D01*
X215650000Y-120750000D02*
X214950000Y-120050000D01*
X214950000Y-120050000D02*
X213050000Y-120050000D01*
D22*
X186740000Y-128300000D02*
X189500000Y-128300000D01*
X186740000Y-128300000D02*
X186690000Y-128350000D01*
X235950000Y-120700000D02*
X248600000Y-120700000D01*
X199300000Y-123500000D02*
X198200000Y-123500000D01*
X199900000Y-124100000D02*
X199300000Y-123500000D01*
X210550000Y-130300000D02*
X212200000Y-130300000D01*
X210550000Y-130300000D02*
X208700000Y-130300000D01*
X207750000Y-131250000D02*
X208700000Y-130300000D01*
X206200000Y-131250000D02*
X207750000Y-131250000D01*
X206050000Y-131100000D02*
X206200000Y-131250000D01*
G36*
X260245000Y-97450000D02*
X260246989Y-97460000D01*
X260245000Y-97470000D01*
X260245000Y-130484340D01*
X258380330Y-128619670D01*
X258137013Y-128457090D01*
X257850000Y-128400000D01*
X256258316Y-128400000D01*
X256224655Y-128366280D01*
X255884801Y-128225161D01*
X255516813Y-128224840D01*
X255176714Y-128365366D01*
X254916280Y-128625345D01*
X254775161Y-128965199D01*
X254774840Y-129333187D01*
X254915366Y-129673286D01*
X255136052Y-129894359D01*
X255112498Y-129894338D01*
X253706142Y-130475432D01*
X252629214Y-131550483D01*
X252600000Y-131620838D01*
X252600000Y-131150000D01*
X252542910Y-130862987D01*
X252380330Y-130619670D01*
X251525118Y-129764458D01*
X251525160Y-129716813D01*
X251384634Y-129376714D01*
X251124655Y-129116280D01*
X250784801Y-128975161D01*
X250416813Y-128974840D01*
X250076714Y-129115366D01*
X249816280Y-129375345D01*
X249675161Y-129715199D01*
X249674840Y-130083187D01*
X249696826Y-130136396D01*
X249626714Y-130165366D01*
X249366280Y-130425345D01*
X249225161Y-130765199D01*
X249224840Y-131133187D01*
X249365366Y-131473286D01*
X249625345Y-131733720D01*
X249965199Y-131874839D01*
X250014222Y-131874882D01*
X250142794Y-132003454D01*
X249820000Y-131939246D01*
X249274676Y-132047718D01*
X248812373Y-132356619D01*
X248550000Y-132749288D01*
X248287627Y-132356619D01*
X247825324Y-132047718D01*
X247280000Y-131939246D01*
X246734676Y-132047718D01*
X246272373Y-132356619D01*
X246010000Y-132749288D01*
X245747627Y-132356619D01*
X245285324Y-132047718D01*
X244740000Y-131939246D01*
X244194676Y-132047718D01*
X243732373Y-132356619D01*
X243470000Y-132749288D01*
X243207627Y-132356619D01*
X242745324Y-132047718D01*
X242200000Y-131939246D01*
X241654676Y-132047718D01*
X241192373Y-132356619D01*
X240930000Y-132749288D01*
X240667627Y-132356619D01*
X240205324Y-132047718D01*
X239660000Y-131939246D01*
X239114676Y-132047718D01*
X238652373Y-132356619D01*
X238390000Y-132749288D01*
X238127627Y-132356619D01*
X237665324Y-132047718D01*
X237120000Y-131939246D01*
X236574676Y-132047718D01*
X236112373Y-132356619D01*
X235850000Y-132749288D01*
X235587627Y-132356619D01*
X235125324Y-132047718D01*
X234580000Y-131939246D01*
X234034676Y-132047718D01*
X233572373Y-132356619D01*
X233310000Y-132749288D01*
X233047627Y-132356619D01*
X232585324Y-132047718D01*
X232040000Y-131939246D01*
X231494676Y-132047718D01*
X231032373Y-132356619D01*
X230770000Y-132749288D01*
X230507627Y-132356619D01*
X230045324Y-132047718D01*
X229500000Y-131939246D01*
X228954676Y-132047718D01*
X228492373Y-132356619D01*
X228230000Y-132749288D01*
X227967627Y-132356619D01*
X227505324Y-132047718D01*
X226960000Y-131939246D01*
X226414676Y-132047718D01*
X225952373Y-132356619D01*
X225690000Y-132749288D01*
X225427627Y-132356619D01*
X224965324Y-132047718D01*
X224420000Y-131939246D01*
X223874676Y-132047718D01*
X223412373Y-132356619D01*
X223150000Y-132749288D01*
X222887627Y-132356619D01*
X222425324Y-132047718D01*
X221880000Y-131939246D01*
X221334676Y-132047718D01*
X220872373Y-132356619D01*
X220610000Y-132749288D01*
X220347627Y-132356619D01*
X219885324Y-132047718D01*
X219340000Y-131939246D01*
X218794676Y-132047718D01*
X218332373Y-132356619D01*
X218225000Y-132517314D01*
X218225000Y-132475680D01*
X218129850Y-132245966D01*
X217954034Y-132070151D01*
X217724320Y-131975000D01*
X217081250Y-131975000D01*
X216925000Y-132131250D01*
X216925000Y-133675000D01*
X216945000Y-133675000D01*
X216945000Y-133925000D01*
X216925000Y-133925000D01*
X216925000Y-135468750D01*
X217081250Y-135625000D01*
X217724320Y-135625000D01*
X217954034Y-135529849D01*
X218129850Y-135354034D01*
X218225000Y-135124320D01*
X218225000Y-135082686D01*
X218332373Y-135243381D01*
X218794676Y-135552282D01*
X219340000Y-135660754D01*
X219885324Y-135552282D01*
X220347627Y-135243381D01*
X220610000Y-134850712D01*
X220872373Y-135243381D01*
X221334676Y-135552282D01*
X221880000Y-135660754D01*
X222425324Y-135552282D01*
X222887627Y-135243381D01*
X223150000Y-134850712D01*
X223412373Y-135243381D01*
X223874676Y-135552282D01*
X224420000Y-135660754D01*
X224965324Y-135552282D01*
X225427627Y-135243381D01*
X225690000Y-134850712D01*
X225952373Y-135243381D01*
X226414676Y-135552282D01*
X226960000Y-135660754D01*
X227505324Y-135552282D01*
X227967627Y-135243381D01*
X228230000Y-134850712D01*
X228492373Y-135243381D01*
X228954676Y-135552282D01*
X229500000Y-135660754D01*
X230045324Y-135552282D01*
X230507627Y-135243381D01*
X230770000Y-134850712D01*
X231032373Y-135243381D01*
X231494676Y-135552282D01*
X232040000Y-135660754D01*
X232585324Y-135552282D01*
X233047627Y-135243381D01*
X233310000Y-134850712D01*
X233572373Y-135243381D01*
X234034676Y-135552282D01*
X234580000Y-135660754D01*
X235125324Y-135552282D01*
X235587627Y-135243381D01*
X235850000Y-134850712D01*
X236112373Y-135243381D01*
X236574676Y-135552282D01*
X237120000Y-135660754D01*
X237665324Y-135552282D01*
X238127627Y-135243381D01*
X238390000Y-134850712D01*
X238652373Y-135243381D01*
X239114676Y-135552282D01*
X239660000Y-135660754D01*
X240205324Y-135552282D01*
X240667627Y-135243381D01*
X240930000Y-134850712D01*
X241192373Y-135243381D01*
X241654676Y-135552282D01*
X242200000Y-135660754D01*
X242745324Y-135552282D01*
X243207627Y-135243381D01*
X243470000Y-134850712D01*
X243732373Y-135243381D01*
X244194676Y-135552282D01*
X244740000Y-135660754D01*
X245285324Y-135552282D01*
X245747627Y-135243381D01*
X246010000Y-134850712D01*
X246272373Y-135243381D01*
X246734676Y-135552282D01*
X247280000Y-135660754D01*
X247825324Y-135552282D01*
X248287627Y-135243381D01*
X248550000Y-134850712D01*
X248812373Y-135243381D01*
X249274676Y-135552282D01*
X249285004Y-135554336D01*
X249214458Y-135624882D01*
X249166813Y-135624840D01*
X248826714Y-135765366D01*
X248566280Y-136025345D01*
X248425161Y-136365199D01*
X248424840Y-136733187D01*
X248565366Y-137073286D01*
X248825345Y-137333720D01*
X249165199Y-137474839D01*
X249533187Y-137475160D01*
X249873286Y-137334634D01*
X250133720Y-137074655D01*
X250246082Y-136804056D01*
X250475345Y-137033720D01*
X250815199Y-137174839D01*
X251183187Y-137175160D01*
X251523286Y-137034634D01*
X251783720Y-136774655D01*
X251924839Y-136434801D01*
X251924882Y-136385778D01*
X252380330Y-135930330D01*
X252542911Y-135687012D01*
X252543296Y-135685074D01*
X252625432Y-135883858D01*
X253700483Y-136960786D01*
X255105823Y-137544334D01*
X256627502Y-137545662D01*
X258033858Y-136964568D01*
X259050000Y-135950197D01*
X259050000Y-137089340D01*
X257025670Y-139113670D01*
X256948772Y-139228756D01*
X256706000Y-139228756D01*
X256474389Y-139272337D01*
X256261668Y-139409219D01*
X256118962Y-139618076D01*
X256100965Y-139706950D01*
X256058983Y-139644120D01*
X255580458Y-139324381D01*
X255016000Y-139212103D01*
X254451542Y-139324381D01*
X253973017Y-139644120D01*
X253746000Y-139983876D01*
X253518983Y-139644120D01*
X253040458Y-139324381D01*
X252476000Y-139212103D01*
X251911542Y-139324381D01*
X251433017Y-139644120D01*
X251206000Y-139983876D01*
X250978983Y-139644120D01*
X250500458Y-139324381D01*
X249936000Y-139212103D01*
X249371542Y-139324381D01*
X248893017Y-139644120D01*
X248666000Y-139983876D01*
X248438983Y-139644120D01*
X247960458Y-139324381D01*
X247396000Y-139212103D01*
X246831542Y-139324381D01*
X246353017Y-139644120D01*
X246033278Y-140122645D01*
X245921000Y-140687103D01*
X245921000Y-140744897D01*
X246033278Y-141309355D01*
X246353017Y-141787880D01*
X246831542Y-142107619D01*
X247396000Y-142219897D01*
X247960458Y-142107619D01*
X248438983Y-141787880D01*
X248666000Y-141448124D01*
X248893017Y-141787880D01*
X249371542Y-142107619D01*
X249936000Y-142219897D01*
X250500458Y-142107619D01*
X250978983Y-141787880D01*
X251206000Y-141448124D01*
X251433017Y-141787880D01*
X251911542Y-142107619D01*
X252476000Y-142219897D01*
X253040458Y-142107619D01*
X253518983Y-141787880D01*
X253746000Y-141448124D01*
X253973017Y-141787880D01*
X254451542Y-142107619D01*
X255016000Y-142219897D01*
X255580458Y-142107619D01*
X256058983Y-141787880D01*
X256099185Y-141727714D01*
X256112337Y-141797611D01*
X256249219Y-142010332D01*
X256458076Y-142153038D01*
X256706000Y-142203244D01*
X258406000Y-142203244D01*
X258637611Y-142159663D01*
X258850332Y-142022781D01*
X258993038Y-141813924D01*
X259043244Y-141566000D01*
X259043244Y-139866000D01*
X258999663Y-139634389D01*
X258862781Y-139421668D01*
X258848648Y-139412012D01*
X260245000Y-138015660D01*
X260245000Y-144095000D01*
X175995000Y-144095000D01*
X175995000Y-141069373D01*
X192623946Y-141069373D01*
X192868185Y-141590497D01*
X193293258Y-141978487D01*
X193702628Y-142148045D01*
X193931000Y-142028812D01*
X193931000Y-140841000D01*
X192742547Y-140841000D01*
X192623946Y-141069373D01*
X175995000Y-141069373D01*
X175995000Y-140362627D01*
X192623946Y-140362627D01*
X192742547Y-140591000D01*
X193931000Y-140591000D01*
X193931000Y-139403188D01*
X194181000Y-139403188D01*
X194181000Y-140591000D01*
X194201000Y-140591000D01*
X194201000Y-140841000D01*
X194181000Y-140841000D01*
X194181000Y-142028812D01*
X194409372Y-142148045D01*
X194818742Y-141978487D01*
X195132486Y-141692114D01*
X195152337Y-141797611D01*
X195289219Y-142010332D01*
X195498076Y-142153038D01*
X195746000Y-142203244D01*
X197446000Y-142203244D01*
X197677611Y-142159663D01*
X197890332Y-142022781D01*
X198033038Y-141813924D01*
X198083244Y-141566000D01*
X198083244Y-140687103D01*
X200201000Y-140687103D01*
X200201000Y-140744897D01*
X200313278Y-141309355D01*
X200633017Y-141787880D01*
X201111542Y-142107619D01*
X201676000Y-142219897D01*
X202240458Y-142107619D01*
X202718983Y-141787880D01*
X202759185Y-141727714D01*
X202772337Y-141797611D01*
X202909219Y-142010332D01*
X203118076Y-142153038D01*
X203366000Y-142203244D01*
X205066000Y-142203244D01*
X205297611Y-142159663D01*
X205510332Y-142022781D01*
X205653038Y-141813924D01*
X205672868Y-141716000D01*
X208212952Y-141716000D01*
X208277017Y-141811880D01*
X208755542Y-142131619D01*
X209320000Y-142243897D01*
X209884458Y-142131619D01*
X210362983Y-141811880D01*
X210411012Y-141740000D01*
X210768988Y-141740000D01*
X210817017Y-141811880D01*
X211295542Y-142131619D01*
X211860000Y-142243897D01*
X212424458Y-142131619D01*
X212902983Y-141811880D01*
X212951012Y-141740000D01*
X213308988Y-141740000D01*
X213357017Y-141811880D01*
X213835542Y-142131619D01*
X214400000Y-142243897D01*
X214964458Y-142131619D01*
X215442983Y-141811880D01*
X215762722Y-141333355D01*
X215875000Y-140768897D01*
X215875000Y-140711103D01*
X215870227Y-140687103D01*
X217981000Y-140687103D01*
X217981000Y-140744897D01*
X218093278Y-141309355D01*
X218413017Y-141787880D01*
X218891542Y-142107619D01*
X219456000Y-142219897D01*
X220020458Y-142107619D01*
X220498983Y-141787880D01*
X220726000Y-141448124D01*
X220953017Y-141787880D01*
X221431542Y-142107619D01*
X221996000Y-142219897D01*
X222560458Y-142107619D01*
X223038983Y-141787880D01*
X223266000Y-141448124D01*
X223493017Y-141787880D01*
X223971542Y-142107619D01*
X224536000Y-142219897D01*
X225100458Y-142107619D01*
X225578983Y-141787880D01*
X225898722Y-141309355D01*
X226011000Y-140744897D01*
X226011000Y-140687103D01*
X228141000Y-140687103D01*
X228141000Y-140744897D01*
X228253278Y-141309355D01*
X228573017Y-141787880D01*
X229051542Y-142107619D01*
X229616000Y-142219897D01*
X230180458Y-142107619D01*
X230658983Y-141787880D01*
X230886000Y-141448124D01*
X231113017Y-141787880D01*
X231591542Y-142107619D01*
X232156000Y-142219897D01*
X232720458Y-142107619D01*
X233198983Y-141787880D01*
X233426000Y-141448124D01*
X233653017Y-141787880D01*
X234131542Y-142107619D01*
X234696000Y-142219897D01*
X235260458Y-142107619D01*
X235738983Y-141787880D01*
X235966000Y-141448124D01*
X236193017Y-141787880D01*
X236671542Y-142107619D01*
X237236000Y-142219897D01*
X237800458Y-142107619D01*
X238278983Y-141787880D01*
X238506000Y-141448124D01*
X238733017Y-141787880D01*
X239211542Y-142107619D01*
X239776000Y-142219897D01*
X240340458Y-142107619D01*
X240818983Y-141787880D01*
X240859185Y-141727714D01*
X240872337Y-141797611D01*
X241009219Y-142010332D01*
X241218076Y-142153038D01*
X241466000Y-142203244D01*
X243166000Y-142203244D01*
X243397611Y-142159663D01*
X243610332Y-142022781D01*
X243753038Y-141813924D01*
X243803244Y-141566000D01*
X243803244Y-139866000D01*
X243759663Y-139634389D01*
X243622781Y-139421668D01*
X243413924Y-139278962D01*
X243166000Y-139228756D01*
X241466000Y-139228756D01*
X241234389Y-139272337D01*
X241021668Y-139409219D01*
X240878962Y-139618076D01*
X240860965Y-139706950D01*
X240818983Y-139644120D01*
X240340458Y-139324381D01*
X239776000Y-139212103D01*
X239211542Y-139324381D01*
X238733017Y-139644120D01*
X238506000Y-139983876D01*
X238278983Y-139644120D01*
X237800458Y-139324381D01*
X237236000Y-139212103D01*
X236671542Y-139324381D01*
X236193017Y-139644120D01*
X235966000Y-139983876D01*
X235738983Y-139644120D01*
X235260458Y-139324381D01*
X234696000Y-139212103D01*
X234131542Y-139324381D01*
X233653017Y-139644120D01*
X233426000Y-139983876D01*
X233198983Y-139644120D01*
X232720458Y-139324381D01*
X232156000Y-139212103D01*
X231591542Y-139324381D01*
X231113017Y-139644120D01*
X230886000Y-139983876D01*
X230658983Y-139644120D01*
X230180458Y-139324381D01*
X229616000Y-139212103D01*
X229051542Y-139324381D01*
X228573017Y-139644120D01*
X228253278Y-140122645D01*
X228141000Y-140687103D01*
X226011000Y-140687103D01*
X225898722Y-140122645D01*
X225578983Y-139644120D01*
X225559063Y-139630810D01*
X225740034Y-139555849D01*
X225915850Y-139380034D01*
X226011000Y-139150320D01*
X226011000Y-138457250D01*
X225854750Y-138301000D01*
X224661000Y-138301000D01*
X224661000Y-138321000D01*
X224411000Y-138321000D01*
X224411000Y-138301000D01*
X222121000Y-138301000D01*
X222121000Y-138321000D01*
X221871000Y-138321000D01*
X221871000Y-138301000D01*
X219581000Y-138301000D01*
X219581000Y-138321000D01*
X219331000Y-138321000D01*
X219331000Y-138301000D01*
X218142547Y-138301000D01*
X218023946Y-138529373D01*
X218268185Y-139050497D01*
X218693258Y-139438487D01*
X218710242Y-139445522D01*
X218413017Y-139644120D01*
X218093278Y-140122645D01*
X217981000Y-140687103D01*
X215870227Y-140687103D01*
X215762722Y-140146645D01*
X215442983Y-139668120D01*
X215422911Y-139654708D01*
X215481611Y-139643663D01*
X215694332Y-139506781D01*
X215837038Y-139297924D01*
X215887244Y-139050000D01*
X215887244Y-137822627D01*
X218023946Y-137822627D01*
X218142547Y-138051000D01*
X219331000Y-138051000D01*
X219331000Y-136863188D01*
X219581000Y-136863188D01*
X219581000Y-138051000D01*
X221871000Y-138051000D01*
X221871000Y-136863188D01*
X222121000Y-136863188D01*
X222121000Y-138051000D01*
X224411000Y-138051000D01*
X224411000Y-136857250D01*
X224661000Y-136857250D01*
X224661000Y-138051000D01*
X225854750Y-138051000D01*
X226011000Y-137894750D01*
X226011000Y-137201680D01*
X225915850Y-136971966D01*
X225740034Y-136796151D01*
X225510320Y-136701000D01*
X224817250Y-136701000D01*
X224661000Y-136857250D01*
X224411000Y-136857250D01*
X224254750Y-136701000D01*
X223561680Y-136701000D01*
X223331966Y-136796151D01*
X223156150Y-136971966D01*
X223064690Y-137192771D01*
X222758742Y-136913513D01*
X222349372Y-136743955D01*
X222121000Y-136863188D01*
X221871000Y-136863188D01*
X221642628Y-136743955D01*
X221233258Y-136913513D01*
X220808185Y-137301503D01*
X220726000Y-137476858D01*
X220643815Y-137301503D01*
X220218742Y-136913513D01*
X219809372Y-136743955D01*
X219581000Y-136863188D01*
X219331000Y-136863188D01*
X219102628Y-136743955D01*
X218693258Y-136913513D01*
X218268185Y-137301503D01*
X218023946Y-137822627D01*
X215887244Y-137822627D01*
X215887244Y-137350000D01*
X215843663Y-137118389D01*
X215706781Y-136905668D01*
X215497924Y-136762962D01*
X215250000Y-136712756D01*
X213550000Y-136712756D01*
X213318389Y-136756337D01*
X213105668Y-136893219D01*
X212962962Y-137102076D01*
X212944965Y-137190950D01*
X212902983Y-137128120D01*
X212424458Y-136808381D01*
X211860000Y-136696103D01*
X211295542Y-136808381D01*
X210817017Y-137128120D01*
X210590000Y-137467876D01*
X210362983Y-137128120D01*
X209884458Y-136808381D01*
X209320000Y-136696103D01*
X208755542Y-136808381D01*
X208277017Y-137128120D01*
X207957278Y-137606645D01*
X207845000Y-138171103D01*
X207845000Y-138228897D01*
X207957278Y-138793355D01*
X208277017Y-139271880D01*
X208573526Y-139470000D01*
X208277017Y-139668120D01*
X208245025Y-139716000D01*
X205675019Y-139716000D01*
X205659663Y-139634389D01*
X205522781Y-139421668D01*
X205313924Y-139278962D01*
X205066000Y-139228756D01*
X203366000Y-139228756D01*
X203134389Y-139272337D01*
X202921668Y-139409219D01*
X202778962Y-139618076D01*
X202760965Y-139706950D01*
X202718983Y-139644120D01*
X202240458Y-139324381D01*
X201676000Y-139212103D01*
X201111542Y-139324381D01*
X200633017Y-139644120D01*
X200313278Y-140122645D01*
X200201000Y-140687103D01*
X198083244Y-140687103D01*
X198083244Y-139866000D01*
X198039663Y-139634389D01*
X197902781Y-139421668D01*
X197693924Y-139278962D01*
X197446000Y-139228756D01*
X195746000Y-139228756D01*
X195514389Y-139272337D01*
X195301668Y-139409219D01*
X195158962Y-139618076D01*
X195134013Y-139741280D01*
X194818742Y-139453513D01*
X194409372Y-139283955D01*
X194181000Y-139403188D01*
X193931000Y-139403188D01*
X193702628Y-139283955D01*
X193293258Y-139453513D01*
X192868185Y-139841503D01*
X192623946Y-140362627D01*
X175995000Y-140362627D01*
X175995000Y-134081250D01*
X215375000Y-134081250D01*
X215375000Y-135124320D01*
X215470150Y-135354034D01*
X215645966Y-135529849D01*
X215875680Y-135625000D01*
X216518750Y-135625000D01*
X216675000Y-135468750D01*
X216675000Y-133925000D01*
X215531250Y-133925000D01*
X215375000Y-134081250D01*
X175995000Y-134081250D01*
X175995000Y-132475680D01*
X215375000Y-132475680D01*
X215375000Y-133518750D01*
X215531250Y-133675000D01*
X216675000Y-133675000D01*
X216675000Y-132131250D01*
X216518750Y-131975000D01*
X215875680Y-131975000D01*
X215645966Y-132070151D01*
X215470150Y-132245966D01*
X215375000Y-132475680D01*
X175995000Y-132475680D01*
X175995000Y-130332206D01*
X191874754Y-130332206D01*
X192091240Y-130856143D01*
X192491749Y-131257351D01*
X193015307Y-131474752D01*
X193582206Y-131475246D01*
X194047025Y-131283187D01*
X205124840Y-131283187D01*
X205265366Y-131623286D01*
X205525345Y-131883720D01*
X205865199Y-132024839D01*
X206233187Y-132025160D01*
X206294079Y-132000000D01*
X207750000Y-132000000D01*
X208037013Y-131942910D01*
X208280330Y-131780330D01*
X209010660Y-131050000D01*
X211641684Y-131050000D01*
X211675345Y-131083720D01*
X212015199Y-131224839D01*
X212383187Y-131225160D01*
X212723286Y-131084634D01*
X212983720Y-130824655D01*
X213124839Y-130484801D01*
X213125160Y-130116813D01*
X212984634Y-129776714D01*
X212724655Y-129516280D01*
X212384801Y-129375161D01*
X212016813Y-129374840D01*
X211676714Y-129515366D01*
X211642019Y-129550000D01*
X208700000Y-129550000D01*
X208412987Y-129607090D01*
X208248776Y-129716813D01*
X208169670Y-129769670D01*
X207439340Y-130500000D01*
X206758054Y-130500000D01*
X206574655Y-130316280D01*
X206234801Y-130175161D01*
X205866813Y-130174840D01*
X205526714Y-130315366D01*
X205266280Y-130575345D01*
X205125161Y-130915199D01*
X205124840Y-131283187D01*
X194047025Y-131283187D01*
X194106143Y-131258760D01*
X194507351Y-130858251D01*
X194724752Y-130334693D01*
X194725246Y-129767794D01*
X194508760Y-129243857D01*
X194108251Y-128842649D01*
X193584693Y-128625248D01*
X193017794Y-128624754D01*
X192493857Y-128841240D01*
X192092649Y-129241749D01*
X191875248Y-129765307D01*
X191874754Y-130332206D01*
X175995000Y-130332206D01*
X175995000Y-128533187D01*
X185764840Y-128533187D01*
X185905366Y-128873286D01*
X186165345Y-129133720D01*
X186505199Y-129274839D01*
X186873187Y-129275160D01*
X187213286Y-129134634D01*
X187298068Y-129050000D01*
X188941684Y-129050000D01*
X188975345Y-129083720D01*
X189315199Y-129224839D01*
X189683187Y-129225160D01*
X190023286Y-129084634D01*
X190283720Y-128824655D01*
X190424839Y-128484801D01*
X190425160Y-128116813D01*
X190284634Y-127776714D01*
X190024655Y-127516280D01*
X189684801Y-127375161D01*
X189316813Y-127374840D01*
X188976714Y-127515366D01*
X188942019Y-127550000D01*
X187175448Y-127550000D01*
X186874801Y-127425161D01*
X186506813Y-127424840D01*
X186166714Y-127565366D01*
X185906280Y-127825345D01*
X185765161Y-128165199D01*
X185764840Y-128533187D01*
X175995000Y-128533187D01*
X175995000Y-123477502D01*
X177574338Y-123477502D01*
X178155432Y-124883858D01*
X179230483Y-125960786D01*
X180635823Y-126544334D01*
X182157502Y-126545662D01*
X183563858Y-125964568D01*
X184197324Y-125332206D01*
X191874754Y-125332206D01*
X192091240Y-125856143D01*
X192491749Y-126257351D01*
X193015307Y-126474752D01*
X193582206Y-126475246D01*
X194106143Y-126258760D01*
X194507351Y-125858251D01*
X194724752Y-125334693D01*
X194725246Y-124767794D01*
X194508760Y-124243857D01*
X194108251Y-123842649D01*
X193724226Y-123683187D01*
X197274840Y-123683187D01*
X197415366Y-124023286D01*
X197675345Y-124283720D01*
X198015199Y-124424839D01*
X198383187Y-124425160D01*
X198723286Y-124284634D01*
X198757981Y-124250000D01*
X198974869Y-124250000D01*
X198974840Y-124283187D01*
X199115366Y-124623286D01*
X199375345Y-124883720D01*
X199715199Y-125024839D01*
X200083187Y-125025160D01*
X200423286Y-124884634D01*
X200683720Y-124624655D01*
X200824839Y-124284801D01*
X200825160Y-123916813D01*
X200684634Y-123576714D01*
X200424655Y-123316280D01*
X200084801Y-123175161D01*
X200035778Y-123175118D01*
X199830330Y-122969670D01*
X199587013Y-122807090D01*
X199300000Y-122750000D01*
X198758316Y-122750000D01*
X198724655Y-122716280D01*
X198384801Y-122575161D01*
X198016813Y-122574840D01*
X197676714Y-122715366D01*
X197416280Y-122975345D01*
X197275161Y-123315199D01*
X197274840Y-123683187D01*
X193724226Y-123683187D01*
X193584693Y-123625248D01*
X193017794Y-123624754D01*
X192493857Y-123841240D01*
X192092649Y-124241749D01*
X191875248Y-124765307D01*
X191874754Y-125332206D01*
X184197324Y-125332206D01*
X184640786Y-124889517D01*
X185224334Y-123484177D01*
X185225662Y-121962498D01*
X184644568Y-120556142D01*
X183640180Y-119550000D01*
X191712756Y-119550000D01*
X191712756Y-121250000D01*
X191756337Y-121481611D01*
X191893219Y-121694332D01*
X192102076Y-121837038D01*
X192350000Y-121887244D01*
X194050000Y-121887244D01*
X194281611Y-121843663D01*
X194494332Y-121706781D01*
X194637038Y-121497924D01*
X194687244Y-121250000D01*
X194687244Y-119550000D01*
X194643663Y-119318389D01*
X194506781Y-119105668D01*
X194297924Y-118962962D01*
X194050000Y-118912756D01*
X192350000Y-118912756D01*
X192118389Y-118956337D01*
X191905668Y-119093219D01*
X191762962Y-119302076D01*
X191712756Y-119550000D01*
X183640180Y-119550000D01*
X183569517Y-119479214D01*
X182164177Y-118895666D01*
X180642498Y-118894338D01*
X179236142Y-119475432D01*
X178159214Y-120550483D01*
X177575666Y-121955823D01*
X177574338Y-123477502D01*
X175995000Y-123477502D01*
X175995000Y-118152991D01*
X186449822Y-118152991D01*
X186605541Y-118529857D01*
X186893626Y-118818446D01*
X187270220Y-118974822D01*
X187677991Y-118975178D01*
X188054857Y-118819459D01*
X188343446Y-118531374D01*
X188499822Y-118154780D01*
X188499840Y-118134728D01*
X188633395Y-117934848D01*
X188700000Y-117600000D01*
X188700000Y-116465590D01*
X188849822Y-116104780D01*
X188850178Y-115697009D01*
X188694459Y-115320143D01*
X188482874Y-115108187D01*
X198224840Y-115108187D01*
X198365366Y-115448286D01*
X198625345Y-115708720D01*
X198965199Y-115849839D01*
X199014222Y-115849882D01*
X199094670Y-115930330D01*
X199337987Y-116092910D01*
X199625000Y-116150000D01*
X201006472Y-116150000D01*
X201000161Y-116165199D01*
X200999840Y-116533187D01*
X201140366Y-116873286D01*
X201400345Y-117133720D01*
X201740199Y-117274839D01*
X202108187Y-117275160D01*
X202448286Y-117134634D01*
X202708720Y-116874655D01*
X202730540Y-116822108D01*
X202869670Y-117030330D01*
X205750000Y-119910660D01*
X205750000Y-120625000D01*
X205807090Y-120912013D01*
X205969670Y-121155330D01*
X207694670Y-122880330D01*
X207937987Y-123042910D01*
X208225000Y-123100000D01*
X209214340Y-123100000D01*
X209824882Y-123710542D01*
X209824840Y-123758187D01*
X209965366Y-124098286D01*
X210225345Y-124358720D01*
X210565199Y-124499839D01*
X210933187Y-124500160D01*
X211250360Y-124369107D01*
X211565199Y-124499839D01*
X211933187Y-124500160D01*
X212157528Y-124407464D01*
X212440199Y-124524839D01*
X212808187Y-124525160D01*
X213148286Y-124384634D01*
X213408720Y-124124655D01*
X213418957Y-124100000D01*
X253462756Y-124100000D01*
X253462756Y-125700000D01*
X253506337Y-125931611D01*
X253643219Y-126144332D01*
X253852076Y-126287038D01*
X254100000Y-126337244D01*
X255700000Y-126337244D01*
X255931611Y-126293663D01*
X256144332Y-126156781D01*
X256287038Y-125947924D01*
X256337244Y-125700000D01*
X256337244Y-124100000D01*
X256293663Y-123868389D01*
X256156781Y-123655668D01*
X255947924Y-123512962D01*
X255705018Y-123463772D01*
X255724223Y-123401000D01*
X254900000Y-122576777D01*
X254075777Y-123401000D01*
X254094961Y-123463704D01*
X253868389Y-123506337D01*
X253655668Y-123643219D01*
X253512962Y-123852076D01*
X253462756Y-124100000D01*
X213418957Y-124100000D01*
X213549839Y-123784801D01*
X213550160Y-123416813D01*
X213409634Y-123076714D01*
X213149655Y-122816280D01*
X213027771Y-122765669D01*
X212980330Y-122694670D01*
X212469287Y-122183627D01*
X253463284Y-122183627D01*
X253489845Y-122749905D01*
X253655450Y-123149709D01*
X253899000Y-123224223D01*
X254723223Y-122400000D01*
X255076777Y-122400000D01*
X255901000Y-123224223D01*
X256144550Y-123149709D01*
X256336716Y-122616373D01*
X256310155Y-122050095D01*
X256144550Y-121650291D01*
X255901000Y-121575777D01*
X255076777Y-122400000D01*
X254723223Y-122400000D01*
X253899000Y-121575777D01*
X253655450Y-121650291D01*
X253463284Y-122183627D01*
X212469287Y-122183627D01*
X210775000Y-120489340D01*
X210775000Y-119069998D01*
X210717910Y-118782985D01*
X210555330Y-118539668D01*
X209575000Y-117559338D01*
X209575000Y-113925000D01*
X210664340Y-113925000D01*
X211178015Y-114438675D01*
X211141280Y-114475345D01*
X211000161Y-114815199D01*
X210999840Y-115183187D01*
X211140366Y-115523286D01*
X211400345Y-115783720D01*
X211739676Y-115924622D01*
X211650161Y-116140199D01*
X211649840Y-116508187D01*
X211790366Y-116848286D01*
X212050345Y-117108720D01*
X212390199Y-117249839D01*
X212758187Y-117250160D01*
X213098286Y-117109634D01*
X213358720Y-116849655D01*
X213462385Y-116600000D01*
X225916684Y-116600000D01*
X225950345Y-116633720D01*
X226290199Y-116774839D01*
X226578704Y-116775091D01*
X226414676Y-116807718D01*
X225952373Y-117116619D01*
X225690000Y-117509288D01*
X225427627Y-117116619D01*
X224965324Y-116807718D01*
X224420000Y-116699246D01*
X223874676Y-116807718D01*
X223412373Y-117116619D01*
X223150000Y-117509288D01*
X222887627Y-117116619D01*
X222425324Y-116807718D01*
X221880000Y-116699246D01*
X221334676Y-116807718D01*
X220872373Y-117116619D01*
X220610000Y-117509288D01*
X220347627Y-117116619D01*
X219885324Y-116807718D01*
X219340000Y-116699246D01*
X218794676Y-116807718D01*
X218332373Y-117116619D01*
X218070000Y-117509288D01*
X217807627Y-117116619D01*
X217345324Y-116807718D01*
X216800000Y-116699246D01*
X216254676Y-116807718D01*
X215792373Y-117116619D01*
X215483472Y-117578922D01*
X215375000Y-118124246D01*
X215375000Y-118995754D01*
X215411393Y-119178712D01*
X215332684Y-119126120D01*
X214950000Y-119050000D01*
X214065241Y-119050000D01*
X213858251Y-118842649D01*
X213334693Y-118625248D01*
X212767794Y-118624754D01*
X212243857Y-118841240D01*
X211842649Y-119241749D01*
X211625248Y-119765307D01*
X211624754Y-120332206D01*
X211841240Y-120856143D01*
X212241749Y-121257351D01*
X212765307Y-121474752D01*
X213332206Y-121475246D01*
X213856143Y-121258760D01*
X214065267Y-121050000D01*
X214535786Y-121050000D01*
X214942891Y-121457104D01*
X214942893Y-121457107D01*
X215267317Y-121673880D01*
X215650000Y-121750000D01*
X220675000Y-121750000D01*
X221057684Y-121673880D01*
X221382107Y-121457107D01*
X222587107Y-120252107D01*
X222644957Y-120165528D01*
X222887627Y-120003381D01*
X223150000Y-119610712D01*
X223412373Y-120003381D01*
X223874676Y-120312282D01*
X224420000Y-120420754D01*
X224965324Y-120312282D01*
X225427627Y-120003381D01*
X225690000Y-119610712D01*
X225952373Y-120003381D01*
X226414676Y-120312282D01*
X226960000Y-120420754D01*
X227505324Y-120312282D01*
X227967627Y-120003381D01*
X228230000Y-119610712D01*
X228492373Y-120003381D01*
X228954676Y-120312282D01*
X229500000Y-120420754D01*
X230045324Y-120312282D01*
X230507627Y-120003381D01*
X230770000Y-119610712D01*
X231032373Y-120003381D01*
X231494676Y-120312282D01*
X232040000Y-120420754D01*
X232585324Y-120312282D01*
X233047627Y-120003381D01*
X233310000Y-119610712D01*
X233572373Y-120003381D01*
X234034676Y-120312282D01*
X234580000Y-120420754D01*
X235107987Y-120315731D01*
X235025161Y-120515199D01*
X235024840Y-120883187D01*
X235165366Y-121223286D01*
X235425345Y-121483720D01*
X235765199Y-121624839D01*
X236133187Y-121625160D01*
X236473286Y-121484634D01*
X236507981Y-121450000D01*
X248041684Y-121450000D01*
X248075345Y-121483720D01*
X248415199Y-121624839D01*
X248783187Y-121625160D01*
X249123286Y-121484634D01*
X249209069Y-121399000D01*
X254075777Y-121399000D01*
X254900000Y-122223223D01*
X255724223Y-121399000D01*
X255649709Y-121155450D01*
X255116373Y-120963284D01*
X254550095Y-120989845D01*
X254150291Y-121155450D01*
X254075777Y-121399000D01*
X249209069Y-121399000D01*
X249383720Y-121224655D01*
X249524839Y-120884801D01*
X249525160Y-120516813D01*
X249455512Y-120348253D01*
X249820000Y-120420754D01*
X250365324Y-120312282D01*
X250827627Y-120003381D01*
X251136528Y-119541078D01*
X251245000Y-118995754D01*
X251245000Y-118124246D01*
X251136528Y-117578922D01*
X250827627Y-117116619D01*
X250365324Y-116807718D01*
X249820000Y-116699246D01*
X249274676Y-116807718D01*
X248812373Y-117116619D01*
X248550000Y-117509288D01*
X248287627Y-117116619D01*
X247825324Y-116807718D01*
X247280000Y-116699246D01*
X246734676Y-116807718D01*
X246272373Y-117116619D01*
X246010000Y-117509288D01*
X245747627Y-117116619D01*
X245285324Y-116807718D01*
X244740000Y-116699246D01*
X244194676Y-116807718D01*
X243732373Y-117116619D01*
X243470000Y-117509288D01*
X243207627Y-117116619D01*
X242745324Y-116807718D01*
X242200000Y-116699246D01*
X241654676Y-116807718D01*
X241192373Y-117116619D01*
X240930000Y-117509288D01*
X240667627Y-117116619D01*
X240205324Y-116807718D01*
X239660000Y-116699246D01*
X239114676Y-116807718D01*
X238652373Y-117116619D01*
X238390000Y-117509288D01*
X238127627Y-117116619D01*
X237665324Y-116807718D01*
X237120000Y-116699246D01*
X236574676Y-116807718D01*
X236112373Y-117116619D01*
X235850000Y-117509288D01*
X235587627Y-117116619D01*
X235125324Y-116807718D01*
X234580000Y-116699246D01*
X234034676Y-116807718D01*
X233572373Y-117116619D01*
X233310000Y-117509288D01*
X233047627Y-117116619D01*
X232585324Y-116807718D01*
X232040000Y-116699246D01*
X231494676Y-116807718D01*
X231032373Y-117116619D01*
X230770000Y-117509288D01*
X230507627Y-117116619D01*
X230045324Y-116807718D01*
X229500000Y-116699246D01*
X228954676Y-116807718D01*
X228492373Y-117116619D01*
X228230000Y-117509288D01*
X227967627Y-117116619D01*
X227505324Y-116807718D01*
X226960000Y-116699246D01*
X226732294Y-116744540D01*
X226998286Y-116634634D01*
X227258720Y-116374655D01*
X227399839Y-116034801D01*
X227400160Y-115666813D01*
X227294995Y-115412294D01*
X227399839Y-115159801D01*
X227400160Y-114791813D01*
X227259634Y-114451714D01*
X227245583Y-114437638D01*
X227333720Y-114349655D01*
X227474839Y-114009801D01*
X227474927Y-113908187D01*
X229899840Y-113908187D01*
X230040366Y-114248286D01*
X230300345Y-114508720D01*
X230640199Y-114649839D01*
X230798516Y-114649977D01*
X230900004Y-114670164D01*
X230899840Y-114858187D01*
X231040366Y-115198286D01*
X231300345Y-115458720D01*
X231640199Y-115599839D01*
X231649847Y-115599847D01*
X231649840Y-115608187D01*
X231790366Y-115948286D01*
X232050345Y-116208720D01*
X232390199Y-116349839D01*
X232498669Y-116349934D01*
X232562987Y-116392910D01*
X232850000Y-116450000D01*
X247016684Y-116450000D01*
X247050345Y-116483720D01*
X247390199Y-116624839D01*
X247758187Y-116625160D01*
X248098286Y-116484634D01*
X248358720Y-116224655D01*
X248499839Y-115884801D01*
X248500124Y-115557799D01*
X248758720Y-115299655D01*
X248899839Y-114959801D01*
X248900160Y-114591813D01*
X248759634Y-114251714D01*
X248745605Y-114237660D01*
X248808720Y-114174655D01*
X248949839Y-113834801D01*
X248950160Y-113466813D01*
X248809634Y-113126714D01*
X248549655Y-112866280D01*
X248209801Y-112725161D01*
X247841813Y-112724840D01*
X247501714Y-112865366D01*
X247241280Y-113125345D01*
X247210281Y-113200000D01*
X231607923Y-113200000D01*
X231349655Y-112941280D01*
X231009801Y-112800161D01*
X230641813Y-112799840D01*
X230301714Y-112940366D01*
X230041280Y-113200345D01*
X229900161Y-113540199D01*
X229899840Y-113908187D01*
X227474927Y-113908187D01*
X227475160Y-113641813D01*
X227334634Y-113301714D01*
X227074655Y-113041280D01*
X226734801Y-112900161D01*
X226683099Y-112900116D01*
X226699839Y-112859801D01*
X226700160Y-112491813D01*
X226559634Y-112151714D01*
X226550000Y-112142063D01*
X226550000Y-110600000D01*
X226492910Y-110312987D01*
X226389476Y-110158187D01*
X229524840Y-110158187D01*
X229665366Y-110498286D01*
X229791852Y-110624993D01*
X229666280Y-110750345D01*
X229525161Y-111090199D01*
X229524840Y-111458187D01*
X229665366Y-111798286D01*
X229925345Y-112058720D01*
X230265199Y-112199839D01*
X230633187Y-112200160D01*
X230973286Y-112059634D01*
X231233720Y-111799655D01*
X231374839Y-111459801D01*
X231374882Y-111410778D01*
X231610660Y-111175000D01*
X232350000Y-111175000D01*
X232637013Y-111117910D01*
X232880330Y-110955330D01*
X233555330Y-110280330D01*
X233717910Y-110037013D01*
X233775000Y-109750000D01*
X233775000Y-109383187D01*
X245124840Y-109383187D01*
X245265366Y-109723286D01*
X245525345Y-109983720D01*
X245777950Y-110088610D01*
X246224882Y-110535542D01*
X246224840Y-110583187D01*
X246365366Y-110923286D01*
X246625345Y-111183720D01*
X246965199Y-111324839D01*
X247333187Y-111325160D01*
X247673286Y-111184634D01*
X247933720Y-110924655D01*
X248074839Y-110584801D01*
X248075160Y-110216813D01*
X247934634Y-109876714D01*
X247674655Y-109616280D01*
X247334801Y-109475161D01*
X247285778Y-109475118D01*
X246975031Y-109164371D01*
X246975160Y-109016813D01*
X246834634Y-108676714D01*
X246574655Y-108416280D01*
X246234801Y-108275161D01*
X245866813Y-108274840D01*
X245526714Y-108415366D01*
X245266280Y-108675345D01*
X245125161Y-109015199D01*
X245124840Y-109383187D01*
X233775000Y-109383187D01*
X233775000Y-108194620D01*
X233799839Y-108134801D01*
X233800160Y-107766813D01*
X233659634Y-107426714D01*
X233399655Y-107166280D01*
X233059801Y-107025161D01*
X232691813Y-107024840D01*
X232351714Y-107165366D01*
X232091280Y-107425345D01*
X231950161Y-107765199D01*
X231949840Y-108133187D01*
X232090366Y-108473286D01*
X232113788Y-108496749D01*
X231826714Y-108615366D01*
X231792019Y-108650000D01*
X231025000Y-108650000D01*
X230737987Y-108707090D01*
X230494670Y-108869670D01*
X230314458Y-109049882D01*
X230266813Y-109049840D01*
X229926714Y-109190366D01*
X229666280Y-109450345D01*
X229525161Y-109790199D01*
X229524840Y-110158187D01*
X226389476Y-110158187D01*
X226330330Y-110069670D01*
X225525118Y-109264458D01*
X225525160Y-109216813D01*
X225384634Y-108876714D01*
X225124655Y-108616280D01*
X224784801Y-108475161D01*
X224416813Y-108474840D01*
X224076714Y-108615366D01*
X223816280Y-108875345D01*
X223675161Y-109215199D01*
X223674840Y-109583187D01*
X223815366Y-109923286D01*
X224075345Y-110183720D01*
X224415199Y-110324839D01*
X224464222Y-110324882D01*
X225050000Y-110910660D01*
X225050000Y-112091728D01*
X224991280Y-112150345D01*
X224850161Y-112490199D01*
X224849840Y-112858187D01*
X224990366Y-113198286D01*
X225250345Y-113458720D01*
X225409966Y-113525000D01*
X212385660Y-113525000D01*
X212334365Y-113473705D01*
X212508720Y-113299655D01*
X212649839Y-112959801D01*
X212649909Y-112879623D01*
X212698286Y-112859634D01*
X212958720Y-112599655D01*
X213099839Y-112259801D01*
X213099882Y-112210778D01*
X213180330Y-112130330D01*
X213342910Y-111887013D01*
X213400000Y-111600000D01*
X213400000Y-108838647D01*
X213467910Y-108737013D01*
X213525000Y-108450000D01*
X213525000Y-107675000D01*
X213524848Y-107674237D01*
X213525160Y-107316813D01*
X213384634Y-106976714D01*
X213183411Y-106775138D01*
X213208187Y-106775160D01*
X213548286Y-106634634D01*
X213808720Y-106374655D01*
X213949839Y-106034801D01*
X213950160Y-105666813D01*
X213929588Y-105617024D01*
X214706282Y-106393719D01*
X214977349Y-106574840D01*
X214990152Y-106583395D01*
X215325000Y-106650000D01*
X226619616Y-106650000D01*
X226906823Y-106769259D01*
X227706281Y-107568718D01*
X227968049Y-107743626D01*
X227990152Y-107758395D01*
X228325000Y-107825000D01*
X230800000Y-107825000D01*
X231134848Y-107758395D01*
X231418718Y-107568718D01*
X233562437Y-105425000D01*
X244637564Y-105425000D01*
X246675000Y-107462437D01*
X246675000Y-107925000D01*
X246730761Y-108205330D01*
X246741605Y-108259848D01*
X246899849Y-108496676D01*
X246899822Y-108527991D01*
X247055541Y-108904857D01*
X247343626Y-109193446D01*
X247720220Y-109349822D01*
X248127991Y-109350178D01*
X248504857Y-109194459D01*
X248793446Y-108906374D01*
X248949822Y-108529780D01*
X248949993Y-108333187D01*
X251324840Y-108333187D01*
X251465366Y-108673286D01*
X251566852Y-108774949D01*
X251466280Y-108875345D01*
X251325161Y-109215199D01*
X251324840Y-109583187D01*
X251465366Y-109923286D01*
X251725345Y-110183720D01*
X252030883Y-110310590D01*
X251925161Y-110565199D01*
X251924840Y-110933187D01*
X252065366Y-111273286D01*
X252325345Y-111533720D01*
X252665199Y-111674839D01*
X253033187Y-111675160D01*
X253373286Y-111534634D01*
X253373630Y-111534290D01*
X253624882Y-111785542D01*
X253624840Y-111833187D01*
X253765366Y-112173286D01*
X254025345Y-112433720D01*
X254365199Y-112574839D01*
X254733187Y-112575160D01*
X255073286Y-112434634D01*
X255333720Y-112174655D01*
X255474839Y-111834801D01*
X255475160Y-111466813D01*
X255334634Y-111126714D01*
X255074655Y-110866280D01*
X254734801Y-110725161D01*
X254685778Y-110725118D01*
X254585648Y-110624988D01*
X254783187Y-110625160D01*
X255123286Y-110484634D01*
X255383720Y-110224655D01*
X255524839Y-109884801D01*
X255525160Y-109516813D01*
X255410713Y-109239829D01*
X255423286Y-109234634D01*
X255683720Y-108974655D01*
X255824839Y-108634801D01*
X255825160Y-108266813D01*
X255684634Y-107926714D01*
X255424655Y-107666280D01*
X255084801Y-107525161D01*
X254988763Y-107525077D01*
X254887013Y-107457090D01*
X254600000Y-107400000D01*
X252808316Y-107400000D01*
X252774655Y-107366280D01*
X252434801Y-107225161D01*
X252066813Y-107224840D01*
X251726714Y-107365366D01*
X251466280Y-107625345D01*
X251325161Y-107965199D01*
X251324840Y-108333187D01*
X248949993Y-108333187D01*
X248950178Y-108122009D01*
X248794459Y-107745143D01*
X248506374Y-107456554D01*
X248425000Y-107422764D01*
X248425000Y-107100000D01*
X248358395Y-106765152D01*
X248293960Y-106668719D01*
X248168719Y-106481282D01*
X245618718Y-103931282D01*
X245334848Y-103741605D01*
X245000000Y-103675000D01*
X233200000Y-103675000D01*
X232865152Y-103741605D01*
X232581282Y-103931281D01*
X230437564Y-106075000D01*
X228687437Y-106075000D01*
X228143652Y-105531216D01*
X227994459Y-105170143D01*
X227706374Y-104881554D01*
X227329780Y-104725178D01*
X226922009Y-104724822D01*
X226545143Y-104880541D01*
X226525650Y-104900000D01*
X215687437Y-104900000D01*
X214793718Y-104006282D01*
X214509848Y-103816605D01*
X214453164Y-103805330D01*
X214175000Y-103750000D01*
X210350000Y-103750000D01*
X210015152Y-103816605D01*
X209731282Y-104006281D01*
X208195624Y-105541940D01*
X208034801Y-105475161D01*
X207666813Y-105474840D01*
X207326714Y-105615366D01*
X207066280Y-105875345D01*
X206925161Y-106215199D01*
X206925118Y-106264222D01*
X206505559Y-106683781D01*
X206484801Y-106675161D01*
X206116813Y-106674840D01*
X205776714Y-106815366D01*
X205516280Y-107075345D01*
X205375161Y-107415199D01*
X205374840Y-107783187D01*
X205404485Y-107854934D01*
X205076714Y-107990366D01*
X204816280Y-108250345D01*
X204675161Y-108590199D01*
X204674840Y-108958187D01*
X204815366Y-109298286D01*
X204889244Y-109372293D01*
X204907090Y-109462013D01*
X205069670Y-109705330D01*
X206314200Y-110949860D01*
X206291813Y-110949840D01*
X205951714Y-111090366D01*
X205691280Y-111350345D01*
X205550161Y-111690199D01*
X205549840Y-112058187D01*
X205690366Y-112398286D01*
X205950345Y-112658720D01*
X206290199Y-112799839D01*
X206658187Y-112800160D01*
X206998286Y-112659634D01*
X207032981Y-112625000D01*
X208066669Y-112625000D01*
X208041280Y-112650345D01*
X207927234Y-112925000D01*
X206400000Y-112925000D01*
X206112987Y-112982090D01*
X205869670Y-113144670D01*
X205707090Y-113387987D01*
X205650000Y-113675000D01*
X205650000Y-114150000D01*
X200810660Y-114150000D01*
X200199857Y-113539197D01*
X200200160Y-113191813D01*
X200059634Y-112851714D01*
X199799655Y-112591280D01*
X199459801Y-112450161D01*
X199091813Y-112449840D01*
X198751714Y-112590366D01*
X198491280Y-112850345D01*
X198350161Y-113190199D01*
X198349840Y-113558187D01*
X198490366Y-113898286D01*
X198638991Y-114047171D01*
X198685133Y-114116228D01*
X198626714Y-114140366D01*
X198366280Y-114400345D01*
X198225161Y-114740199D01*
X198224840Y-115108187D01*
X188482874Y-115108187D01*
X188406374Y-115031554D01*
X188029780Y-114875178D01*
X187622009Y-114874822D01*
X187245143Y-115030541D01*
X186956554Y-115318626D01*
X186800178Y-115695220D01*
X186799822Y-116102991D01*
X186950000Y-116466447D01*
X186950000Y-117057874D01*
X186895143Y-117080541D01*
X186606554Y-117368626D01*
X186450178Y-117745220D01*
X186449822Y-118152991D01*
X175995000Y-118152991D01*
X175995000Y-108933187D01*
X183424840Y-108933187D01*
X183565366Y-109273286D01*
X183614403Y-109322409D01*
X183657090Y-109537013D01*
X183819670Y-109780330D01*
X184974882Y-110935542D01*
X184974840Y-110983187D01*
X185115366Y-111323286D01*
X185375345Y-111583720D01*
X185715199Y-111724839D01*
X186083187Y-111725160D01*
X186423286Y-111584634D01*
X186642213Y-111366089D01*
X186730541Y-111579857D01*
X187018626Y-111868446D01*
X187395220Y-112024822D01*
X187802991Y-112025178D01*
X188179857Y-111869459D01*
X188468446Y-111581374D01*
X188624822Y-111204780D01*
X188624993Y-111008187D01*
X191174840Y-111008187D01*
X191315366Y-111348286D01*
X191575345Y-111608720D01*
X191915199Y-111749839D01*
X191964222Y-111749882D01*
X192219670Y-112005330D01*
X192462987Y-112167910D01*
X192750000Y-112225000D01*
X193016684Y-112225000D01*
X193050345Y-112258720D01*
X193390199Y-112399839D01*
X193758187Y-112400160D01*
X194098286Y-112259634D01*
X194358720Y-111999655D01*
X194499839Y-111659801D01*
X194500160Y-111291813D01*
X194359634Y-110951714D01*
X194099655Y-110691280D01*
X193759801Y-110550161D01*
X193391813Y-110549840D01*
X193051714Y-110690366D01*
X193038859Y-110703199D01*
X193025118Y-110689458D01*
X193025160Y-110641813D01*
X192884634Y-110301714D01*
X192624655Y-110041280D01*
X192284801Y-109900161D01*
X191916813Y-109899840D01*
X191576714Y-110040366D01*
X191316280Y-110300345D01*
X191175161Y-110640199D01*
X191174840Y-111008187D01*
X188624993Y-111008187D01*
X188625178Y-110797009D01*
X188469459Y-110420143D01*
X188181374Y-110131554D01*
X188075000Y-110087384D01*
X188075000Y-109615590D01*
X188224822Y-109254780D01*
X188225178Y-108847009D01*
X188069459Y-108470143D01*
X187781374Y-108181554D01*
X187404780Y-108025178D01*
X186997009Y-108024822D01*
X186620143Y-108180541D01*
X186331554Y-108468626D01*
X186175178Y-108845220D01*
X186174822Y-109252991D01*
X186325000Y-109616447D01*
X186325000Y-109974900D01*
X186084801Y-109875161D01*
X186035778Y-109875118D01*
X185222209Y-109061549D01*
X185274839Y-108934801D01*
X185275160Y-108566813D01*
X185134634Y-108226714D01*
X184874655Y-107966280D01*
X184534801Y-107825161D01*
X184166813Y-107824840D01*
X183826714Y-107965366D01*
X183566280Y-108225345D01*
X183425161Y-108565199D01*
X183424840Y-108933187D01*
X175995000Y-108933187D01*
X175995000Y-100750000D01*
X178112756Y-100750000D01*
X178112756Y-102450000D01*
X178156337Y-102681611D01*
X178293219Y-102894332D01*
X178502076Y-103037038D01*
X178750000Y-103087244D01*
X180450000Y-103087244D01*
X180681611Y-103043663D01*
X180894332Y-102906781D01*
X181037038Y-102697924D01*
X181055035Y-102609050D01*
X181097017Y-102671880D01*
X181575542Y-102991619D01*
X182140000Y-103103897D01*
X182704458Y-102991619D01*
X183182983Y-102671880D01*
X183410000Y-102332124D01*
X183637017Y-102671880D01*
X184115542Y-102991619D01*
X184680000Y-103103897D01*
X185244458Y-102991619D01*
X185722983Y-102671880D01*
X185950000Y-102332124D01*
X186177017Y-102671880D01*
X186655542Y-102991619D01*
X187220000Y-103103897D01*
X187784458Y-102991619D01*
X188262983Y-102671880D01*
X188490000Y-102332124D01*
X188717017Y-102671880D01*
X189195542Y-102991619D01*
X189760000Y-103103897D01*
X190324458Y-102991619D01*
X190802983Y-102671880D01*
X191030000Y-102332124D01*
X191257017Y-102671880D01*
X191735542Y-102991619D01*
X192300000Y-103103897D01*
X192864458Y-102991619D01*
X193143521Y-102805156D01*
X193025161Y-103090199D01*
X193025118Y-103139222D01*
X192494670Y-103669670D01*
X192332090Y-103912987D01*
X192275000Y-104200000D01*
X192275000Y-106289340D01*
X191414458Y-107149882D01*
X191366813Y-107149840D01*
X191026714Y-107290366D01*
X190766280Y-107550345D01*
X190625161Y-107890199D01*
X190624840Y-108258187D01*
X190765366Y-108598286D01*
X191025345Y-108858720D01*
X191365199Y-108999839D01*
X191733187Y-109000160D01*
X192073286Y-108859634D01*
X192333720Y-108599655D01*
X192474839Y-108259801D01*
X192474882Y-108210778D01*
X193555330Y-107130330D01*
X193603534Y-107058187D01*
X197699840Y-107058187D01*
X197840366Y-107398286D01*
X198100345Y-107658720D01*
X198440199Y-107799839D01*
X198808187Y-107800160D01*
X199148286Y-107659634D01*
X199408720Y-107399655D01*
X199522766Y-107125000D01*
X201791684Y-107125000D01*
X201825345Y-107158720D01*
X202165199Y-107299839D01*
X202533187Y-107300160D01*
X202873286Y-107159634D01*
X203133720Y-106899655D01*
X203274839Y-106559801D01*
X203275160Y-106191813D01*
X203134634Y-105851714D01*
X202874655Y-105591280D01*
X202534801Y-105450161D01*
X202166813Y-105449840D01*
X201826714Y-105590366D01*
X201792019Y-105625000D01*
X199125000Y-105625000D01*
X198837987Y-105682090D01*
X198594670Y-105844670D01*
X198489458Y-105949882D01*
X198441813Y-105949840D01*
X198101714Y-106090366D01*
X197841280Y-106350345D01*
X197700161Y-106690199D01*
X197699840Y-107058187D01*
X193603534Y-107058187D01*
X193717910Y-106887013D01*
X193775000Y-106600000D01*
X193775000Y-104510660D01*
X194085542Y-104200118D01*
X194133187Y-104200160D01*
X194473286Y-104059634D01*
X194733720Y-103799655D01*
X194874839Y-103459801D01*
X194875156Y-103096904D01*
X195404458Y-102991619D01*
X195882983Y-102671880D01*
X196110000Y-102332124D01*
X196337017Y-102671880D01*
X196815542Y-102991619D01*
X197380000Y-103103897D01*
X197944458Y-102991619D01*
X198422983Y-102671880D01*
X198650000Y-102332124D01*
X198877017Y-102671880D01*
X199355542Y-102991619D01*
X199920000Y-103103897D01*
X200484458Y-102991619D01*
X200962983Y-102671880D01*
X201190000Y-102332124D01*
X201417017Y-102671880D01*
X201895542Y-102991619D01*
X202460000Y-103103897D01*
X203024458Y-102991619D01*
X203502983Y-102671880D01*
X203730000Y-102332124D01*
X203957017Y-102671880D01*
X204435542Y-102991619D01*
X205000000Y-103103897D01*
X205564458Y-102991619D01*
X206042983Y-102671880D01*
X206270000Y-102332124D01*
X206375029Y-102489311D01*
X206039458Y-102824882D01*
X205991813Y-102824840D01*
X205651714Y-102965366D01*
X205391280Y-103225345D01*
X205250161Y-103565199D01*
X205249840Y-103933187D01*
X205390366Y-104273286D01*
X205650345Y-104533720D01*
X205990199Y-104674839D01*
X206358187Y-104675160D01*
X206698286Y-104534634D01*
X206958720Y-104274655D01*
X207099839Y-103934801D01*
X207099882Y-103885778D01*
X207966624Y-103019036D01*
X208104458Y-102991619D01*
X208582983Y-102671880D01*
X208810000Y-102332124D01*
X209037017Y-102671880D01*
X209515542Y-102991619D01*
X210080000Y-103103897D01*
X210644458Y-102991619D01*
X211122983Y-102671880D01*
X211350000Y-102332124D01*
X211577017Y-102671880D01*
X212055542Y-102991619D01*
X212620000Y-103103897D01*
X213184458Y-102991619D01*
X213662983Y-102671880D01*
X213890000Y-102332124D01*
X214117017Y-102671880D01*
X214595542Y-102991619D01*
X215160000Y-103103897D01*
X215724458Y-102991619D01*
X216202983Y-102671880D01*
X216430000Y-102332124D01*
X216657017Y-102671880D01*
X217135542Y-102991619D01*
X217700000Y-103103897D01*
X218264458Y-102991619D01*
X218742983Y-102671880D01*
X218970000Y-102332124D01*
X219197017Y-102671880D01*
X219675542Y-102991619D01*
X220240000Y-103103897D01*
X220804458Y-102991619D01*
X221282983Y-102671880D01*
X221510000Y-102332124D01*
X221737017Y-102671880D01*
X222215542Y-102991619D01*
X222780000Y-103103897D01*
X223344458Y-102991619D01*
X223822983Y-102671880D01*
X224050000Y-102332124D01*
X224277017Y-102671880D01*
X224755542Y-102991619D01*
X225320000Y-103103897D01*
X225884458Y-102991619D01*
X226362983Y-102671880D01*
X226590000Y-102332124D01*
X226817017Y-102671880D01*
X227110000Y-102867644D01*
X227110000Y-103185000D01*
X227167090Y-103472013D01*
X227329670Y-103715330D01*
X227449882Y-103835542D01*
X227449840Y-103883187D01*
X227590366Y-104223286D01*
X227850345Y-104483720D01*
X228190199Y-104624839D01*
X228558187Y-104625160D01*
X228898286Y-104484634D01*
X229158720Y-104224655D01*
X229299839Y-103884801D01*
X229300160Y-103516813D01*
X229159634Y-103176714D01*
X228899655Y-102916280D01*
X228676124Y-102823462D01*
X228902983Y-102671880D01*
X229130000Y-102332124D01*
X229357017Y-102671880D01*
X229835542Y-102991619D01*
X230400000Y-103103897D01*
X230964458Y-102991619D01*
X231442983Y-102671880D01*
X231670000Y-102332124D01*
X231897017Y-102671880D01*
X232375542Y-102991619D01*
X232940000Y-103103897D01*
X233504458Y-102991619D01*
X233982983Y-102671880D01*
X234210000Y-102332124D01*
X234437017Y-102671880D01*
X234915542Y-102991619D01*
X235480000Y-103103897D01*
X236044458Y-102991619D01*
X236522983Y-102671880D01*
X236750000Y-102332124D01*
X236977017Y-102671880D01*
X237455542Y-102991619D01*
X238020000Y-103103897D01*
X238584458Y-102991619D01*
X239062983Y-102671880D01*
X239290000Y-102332124D01*
X239517017Y-102671880D01*
X239995542Y-102991619D01*
X240560000Y-103103897D01*
X241124458Y-102991619D01*
X241602983Y-102671880D01*
X241830000Y-102332124D01*
X242057017Y-102671880D01*
X242535542Y-102991619D01*
X243100000Y-103103897D01*
X243664458Y-102991619D01*
X244142983Y-102671880D01*
X244370000Y-102332124D01*
X244597017Y-102671880D01*
X245075542Y-102991619D01*
X245640000Y-103103897D01*
X246204458Y-102991619D01*
X246682983Y-102671880D01*
X246910000Y-102332124D01*
X247137017Y-102671880D01*
X247430000Y-102867644D01*
X247430000Y-104680000D01*
X247487090Y-104967013D01*
X247649670Y-105210330D01*
X248374882Y-105935542D01*
X248374840Y-105983187D01*
X248515366Y-106323286D01*
X248775345Y-106583720D01*
X249115199Y-106724839D01*
X249483187Y-106725160D01*
X249823286Y-106584634D01*
X250083720Y-106324655D01*
X250224839Y-105984801D01*
X250225160Y-105616813D01*
X250084634Y-105276714D01*
X249824655Y-105016280D01*
X249484801Y-104875161D01*
X249435778Y-104875118D01*
X248930000Y-104369340D01*
X248930000Y-102867644D01*
X249222983Y-102671880D01*
X249450000Y-102332124D01*
X249677017Y-102671880D01*
X250155542Y-102991619D01*
X250720000Y-103103897D01*
X250801693Y-103087647D01*
X250464458Y-103424882D01*
X250416813Y-103424840D01*
X250076714Y-103565366D01*
X249816280Y-103825345D01*
X249675161Y-104165199D01*
X249674840Y-104533187D01*
X249815366Y-104873286D01*
X250075345Y-105133720D01*
X250415199Y-105274839D01*
X250783187Y-105275160D01*
X251123286Y-105134634D01*
X251325102Y-104933171D01*
X251324840Y-105233187D01*
X251366485Y-105333975D01*
X251206554Y-105493626D01*
X251050178Y-105870220D01*
X251049822Y-106277991D01*
X251205541Y-106654857D01*
X251493626Y-106943446D01*
X251870220Y-107099822D01*
X252277991Y-107100178D01*
X252654857Y-106944459D01*
X252674350Y-106925000D01*
X255762564Y-106925000D01*
X256475000Y-107637437D01*
X256475000Y-113437563D01*
X254871009Y-115041555D01*
X254595143Y-115155541D01*
X254306554Y-115443626D01*
X254150178Y-115820220D01*
X254149822Y-116227991D01*
X254305541Y-116604857D01*
X254593626Y-116893446D01*
X254970220Y-117049822D01*
X255377991Y-117050178D01*
X255754857Y-116894459D01*
X256043446Y-116606374D01*
X256199822Y-116229780D01*
X256199859Y-116187577D01*
X257968718Y-114418719D01*
X258158395Y-114134849D01*
X258183807Y-114007090D01*
X258225000Y-113800000D01*
X258225000Y-107275000D01*
X258158395Y-106940152D01*
X258130421Y-106898286D01*
X257968719Y-106656282D01*
X256743718Y-105431282D01*
X256459848Y-105241605D01*
X256125000Y-105175000D01*
X253185660Y-105175000D01*
X253710660Y-104650000D01*
X254341684Y-104650000D01*
X254375345Y-104683720D01*
X254715199Y-104824839D01*
X255083187Y-104825160D01*
X255423286Y-104684634D01*
X255683720Y-104424655D01*
X255824839Y-104084801D01*
X255825160Y-103716813D01*
X255684634Y-103376714D01*
X255424655Y-103116280D01*
X255084801Y-102975161D01*
X254716813Y-102974840D01*
X254376714Y-103115366D01*
X254342019Y-103150000D01*
X253400000Y-103150000D01*
X253112987Y-103207090D01*
X252869670Y-103369670D01*
X252114458Y-104124882D01*
X252066813Y-104124840D01*
X251758377Y-104252283D01*
X252965369Y-103045291D01*
X253260000Y-103103897D01*
X253824458Y-102991619D01*
X254302983Y-102671880D01*
X254530000Y-102332124D01*
X254757017Y-102671880D01*
X255235542Y-102991619D01*
X255800000Y-103103897D01*
X256364458Y-102991619D01*
X256842983Y-102671880D01*
X257070000Y-102332124D01*
X257297017Y-102671880D01*
X257775542Y-102991619D01*
X258340000Y-103103897D01*
X258904458Y-102991619D01*
X259382983Y-102671880D01*
X259702722Y-102193355D01*
X259815000Y-101628897D01*
X259815000Y-101571103D01*
X259702722Y-101006645D01*
X259382983Y-100528120D01*
X259086474Y-100330000D01*
X259382983Y-100131880D01*
X259702722Y-99653355D01*
X259815000Y-99088897D01*
X259815000Y-99031103D01*
X259702722Y-98466645D01*
X259382983Y-97988120D01*
X258904458Y-97668381D01*
X258340000Y-97556103D01*
X257775542Y-97668381D01*
X257376517Y-97935000D01*
X256763483Y-97935000D01*
X256364458Y-97668381D01*
X255800000Y-97556103D01*
X255235542Y-97668381D01*
X254836517Y-97935000D01*
X254223483Y-97935000D01*
X253824458Y-97668381D01*
X253260000Y-97556103D01*
X252695542Y-97668381D01*
X252296517Y-97935000D01*
X251683483Y-97935000D01*
X251284458Y-97668381D01*
X250720000Y-97556103D01*
X250155542Y-97668381D01*
X249756517Y-97935000D01*
X249143483Y-97935000D01*
X248744458Y-97668381D01*
X248180000Y-97556103D01*
X247615542Y-97668381D01*
X247216517Y-97935000D01*
X246603483Y-97935000D01*
X246204458Y-97668381D01*
X245640000Y-97556103D01*
X245075542Y-97668381D01*
X244676517Y-97935000D01*
X244063483Y-97935000D01*
X243664458Y-97668381D01*
X243100000Y-97556103D01*
X242535542Y-97668381D01*
X242136517Y-97935000D01*
X241523483Y-97935000D01*
X241124458Y-97668381D01*
X240560000Y-97556103D01*
X239995542Y-97668381D01*
X239596517Y-97935000D01*
X238983483Y-97935000D01*
X238584458Y-97668381D01*
X238020000Y-97556103D01*
X237455542Y-97668381D01*
X237056517Y-97935000D01*
X236443483Y-97935000D01*
X236044458Y-97668381D01*
X235480000Y-97556103D01*
X234915542Y-97668381D01*
X234516517Y-97935000D01*
X233903483Y-97935000D01*
X233504458Y-97668381D01*
X232940000Y-97556103D01*
X232375542Y-97668381D01*
X231976517Y-97935000D01*
X231363483Y-97935000D01*
X230964458Y-97668381D01*
X230400000Y-97556103D01*
X229835542Y-97668381D01*
X229436517Y-97935000D01*
X228823483Y-97935000D01*
X228424458Y-97668381D01*
X227860000Y-97556103D01*
X227295542Y-97668381D01*
X226896517Y-97935000D01*
X226283483Y-97935000D01*
X225884458Y-97668381D01*
X225320000Y-97556103D01*
X224755542Y-97668381D01*
X224356517Y-97935000D01*
X223743483Y-97935000D01*
X223344458Y-97668381D01*
X222780000Y-97556103D01*
X222215542Y-97668381D01*
X221816517Y-97935000D01*
X221203483Y-97935000D01*
X220804458Y-97668381D01*
X220240000Y-97556103D01*
X219675542Y-97668381D01*
X219276517Y-97935000D01*
X218663483Y-97935000D01*
X218264458Y-97668381D01*
X217700000Y-97556103D01*
X217135542Y-97668381D01*
X216736517Y-97935000D01*
X216123483Y-97935000D01*
X215724458Y-97668381D01*
X215160000Y-97556103D01*
X214595542Y-97668381D01*
X214196517Y-97935000D01*
X213583483Y-97935000D01*
X213184458Y-97668381D01*
X212620000Y-97556103D01*
X212055542Y-97668381D01*
X211656517Y-97935000D01*
X211043483Y-97935000D01*
X210644458Y-97668381D01*
X210080000Y-97556103D01*
X209515542Y-97668381D01*
X209116517Y-97935000D01*
X208503483Y-97935000D01*
X208104458Y-97668381D01*
X207540000Y-97556103D01*
X206975542Y-97668381D01*
X206576517Y-97935000D01*
X205963483Y-97935000D01*
X205564458Y-97668381D01*
X205000000Y-97556103D01*
X204435542Y-97668381D01*
X204036517Y-97935000D01*
X203423483Y-97935000D01*
X203024458Y-97668381D01*
X202460000Y-97556103D01*
X201895542Y-97668381D01*
X201496517Y-97935000D01*
X200883483Y-97935000D01*
X200484458Y-97668381D01*
X199920000Y-97556103D01*
X199355542Y-97668381D01*
X198956517Y-97935000D01*
X198343483Y-97935000D01*
X197944458Y-97668381D01*
X197380000Y-97556103D01*
X196815542Y-97668381D01*
X196416517Y-97935000D01*
X195803483Y-97935000D01*
X195404458Y-97668381D01*
X194840000Y-97556103D01*
X194275542Y-97668381D01*
X193876517Y-97935000D01*
X193263483Y-97935000D01*
X192864458Y-97668381D01*
X192300000Y-97556103D01*
X191735542Y-97668381D01*
X191336517Y-97935000D01*
X190723483Y-97935000D01*
X190324458Y-97668381D01*
X189760000Y-97556103D01*
X189195542Y-97668381D01*
X188796517Y-97935000D01*
X188183483Y-97935000D01*
X187784458Y-97668381D01*
X187220000Y-97556103D01*
X186655542Y-97668381D01*
X186256517Y-97935000D01*
X185643483Y-97935000D01*
X185244458Y-97668381D01*
X184680000Y-97556103D01*
X184115542Y-97668381D01*
X183716517Y-97935000D01*
X183103483Y-97935000D01*
X182704458Y-97668381D01*
X182140000Y-97556103D01*
X181575542Y-97668381D01*
X181176517Y-97935000D01*
X180563483Y-97935000D01*
X180164458Y-97668381D01*
X179600000Y-97556103D01*
X179035542Y-97668381D01*
X178557017Y-97988120D01*
X178237278Y-98466645D01*
X178125000Y-99031103D01*
X178125000Y-99088897D01*
X178237278Y-99653355D01*
X178557017Y-100131880D01*
X178577089Y-100145292D01*
X178518389Y-100156337D01*
X178305668Y-100293219D01*
X178162962Y-100502076D01*
X178112756Y-100750000D01*
X175995000Y-100750000D01*
X175995000Y-95685000D01*
X260245000Y-95685000D01*
X260245000Y-97450000D01*
X260245000Y-97450000D01*
G37*
X260245000Y-97450000D02*
X260246989Y-97460000D01*
X260245000Y-97470000D01*
X260245000Y-130484340D01*
X258380330Y-128619670D01*
X258137013Y-128457090D01*
X257850000Y-128400000D01*
X256258316Y-128400000D01*
X256224655Y-128366280D01*
X255884801Y-128225161D01*
X255516813Y-128224840D01*
X255176714Y-128365366D01*
X254916280Y-128625345D01*
X254775161Y-128965199D01*
X254774840Y-129333187D01*
X254915366Y-129673286D01*
X255136052Y-129894359D01*
X255112498Y-129894338D01*
X253706142Y-130475432D01*
X252629214Y-131550483D01*
X252600000Y-131620838D01*
X252600000Y-131150000D01*
X252542910Y-130862987D01*
X252380330Y-130619670D01*
X251525118Y-129764458D01*
X251525160Y-129716813D01*
X251384634Y-129376714D01*
X251124655Y-129116280D01*
X250784801Y-128975161D01*
X250416813Y-128974840D01*
X250076714Y-129115366D01*
X249816280Y-129375345D01*
X249675161Y-129715199D01*
X249674840Y-130083187D01*
X249696826Y-130136396D01*
X249626714Y-130165366D01*
X249366280Y-130425345D01*
X249225161Y-130765199D01*
X249224840Y-131133187D01*
X249365366Y-131473286D01*
X249625345Y-131733720D01*
X249965199Y-131874839D01*
X250014222Y-131874882D01*
X250142794Y-132003454D01*
X249820000Y-131939246D01*
X249274676Y-132047718D01*
X248812373Y-132356619D01*
X248550000Y-132749288D01*
X248287627Y-132356619D01*
X247825324Y-132047718D01*
X247280000Y-131939246D01*
X246734676Y-132047718D01*
X246272373Y-132356619D01*
X246010000Y-132749288D01*
X245747627Y-132356619D01*
X245285324Y-132047718D01*
X244740000Y-131939246D01*
X244194676Y-132047718D01*
X243732373Y-132356619D01*
X243470000Y-132749288D01*
X243207627Y-132356619D01*
X242745324Y-132047718D01*
X242200000Y-131939246D01*
X241654676Y-132047718D01*
X241192373Y-132356619D01*
X240930000Y-132749288D01*
X240667627Y-132356619D01*
X240205324Y-132047718D01*
X239660000Y-131939246D01*
X239114676Y-132047718D01*
X238652373Y-132356619D01*
X238390000Y-132749288D01*
X238127627Y-132356619D01*
X237665324Y-132047718D01*
X237120000Y-131939246D01*
X236574676Y-132047718D01*
X236112373Y-132356619D01*
X235850000Y-132749288D01*
X235587627Y-132356619D01*
X235125324Y-132047718D01*
X234580000Y-131939246D01*
X234034676Y-132047718D01*
X233572373Y-132356619D01*
X233310000Y-132749288D01*
X233047627Y-132356619D01*
X232585324Y-132047718D01*
X232040000Y-131939246D01*
X231494676Y-132047718D01*
X231032373Y-132356619D01*
X230770000Y-132749288D01*
X230507627Y-132356619D01*
X230045324Y-132047718D01*
X229500000Y-131939246D01*
X228954676Y-132047718D01*
X228492373Y-132356619D01*
X228230000Y-132749288D01*
X227967627Y-132356619D01*
X227505324Y-132047718D01*
X226960000Y-131939246D01*
X226414676Y-132047718D01*
X225952373Y-132356619D01*
X225690000Y-132749288D01*
X225427627Y-132356619D01*
X224965324Y-132047718D01*
X224420000Y-131939246D01*
X223874676Y-132047718D01*
X223412373Y-132356619D01*
X223150000Y-132749288D01*
X222887627Y-132356619D01*
X222425324Y-132047718D01*
X221880000Y-131939246D01*
X221334676Y-132047718D01*
X220872373Y-132356619D01*
X220610000Y-132749288D01*
X220347627Y-132356619D01*
X219885324Y-132047718D01*
X219340000Y-131939246D01*
X218794676Y-132047718D01*
X218332373Y-132356619D01*
X218225000Y-132517314D01*
X218225000Y-132475680D01*
X218129850Y-132245966D01*
X217954034Y-132070151D01*
X217724320Y-131975000D01*
X217081250Y-131975000D01*
X216925000Y-132131250D01*
X216925000Y-133675000D01*
X216945000Y-133675000D01*
X216945000Y-133925000D01*
X216925000Y-133925000D01*
X216925000Y-135468750D01*
X217081250Y-135625000D01*
X217724320Y-135625000D01*
X217954034Y-135529849D01*
X218129850Y-135354034D01*
X218225000Y-135124320D01*
X218225000Y-135082686D01*
X218332373Y-135243381D01*
X218794676Y-135552282D01*
X219340000Y-135660754D01*
X219885324Y-135552282D01*
X220347627Y-135243381D01*
X220610000Y-134850712D01*
X220872373Y-135243381D01*
X221334676Y-135552282D01*
X221880000Y-135660754D01*
X222425324Y-135552282D01*
X222887627Y-135243381D01*
X223150000Y-134850712D01*
X223412373Y-135243381D01*
X223874676Y-135552282D01*
X224420000Y-135660754D01*
X224965324Y-135552282D01*
X225427627Y-135243381D01*
X225690000Y-134850712D01*
X225952373Y-135243381D01*
X226414676Y-135552282D01*
X226960000Y-135660754D01*
X227505324Y-135552282D01*
X227967627Y-135243381D01*
X228230000Y-134850712D01*
X228492373Y-135243381D01*
X228954676Y-135552282D01*
X229500000Y-135660754D01*
X230045324Y-135552282D01*
X230507627Y-135243381D01*
X230770000Y-134850712D01*
X231032373Y-135243381D01*
X231494676Y-135552282D01*
X232040000Y-135660754D01*
X232585324Y-135552282D01*
X233047627Y-135243381D01*
X233310000Y-134850712D01*
X233572373Y-135243381D01*
X234034676Y-135552282D01*
X234580000Y-135660754D01*
X235125324Y-135552282D01*
X235587627Y-135243381D01*
X235850000Y-134850712D01*
X236112373Y-135243381D01*
X236574676Y-135552282D01*
X237120000Y-135660754D01*
X237665324Y-135552282D01*
X238127627Y-135243381D01*
X238390000Y-134850712D01*
X238652373Y-135243381D01*
X239114676Y-135552282D01*
X239660000Y-135660754D01*
X240205324Y-135552282D01*
X240667627Y-135243381D01*
X240930000Y-134850712D01*
X241192373Y-135243381D01*
X241654676Y-135552282D01*
X242200000Y-135660754D01*
X242745324Y-135552282D01*
X243207627Y-135243381D01*
X243470000Y-134850712D01*
X243732373Y-135243381D01*
X244194676Y-135552282D01*
X244740000Y-135660754D01*
X245285324Y-135552282D01*
X245747627Y-135243381D01*
X246010000Y-134850712D01*
X246272373Y-135243381D01*
X246734676Y-135552282D01*
X247280000Y-135660754D01*
X247825324Y-135552282D01*
X248287627Y-135243381D01*
X248550000Y-134850712D01*
X248812373Y-135243381D01*
X249274676Y-135552282D01*
X249285004Y-135554336D01*
X249214458Y-135624882D01*
X249166813Y-135624840D01*
X248826714Y-135765366D01*
X248566280Y-136025345D01*
X248425161Y-136365199D01*
X248424840Y-136733187D01*
X248565366Y-137073286D01*
X248825345Y-137333720D01*
X249165199Y-137474839D01*
X249533187Y-137475160D01*
X249873286Y-137334634D01*
X250133720Y-137074655D01*
X250246082Y-136804056D01*
X250475345Y-137033720D01*
X250815199Y-137174839D01*
X251183187Y-137175160D01*
X251523286Y-137034634D01*
X251783720Y-136774655D01*
X251924839Y-136434801D01*
X251924882Y-136385778D01*
X252380330Y-135930330D01*
X252542911Y-135687012D01*
X252543296Y-135685074D01*
X252625432Y-135883858D01*
X253700483Y-136960786D01*
X255105823Y-137544334D01*
X256627502Y-137545662D01*
X258033858Y-136964568D01*
X259050000Y-135950197D01*
X259050000Y-137089340D01*
X257025670Y-139113670D01*
X256948772Y-139228756D01*
X256706000Y-139228756D01*
X256474389Y-139272337D01*
X256261668Y-139409219D01*
X256118962Y-139618076D01*
X256100965Y-139706950D01*
X256058983Y-139644120D01*
X255580458Y-139324381D01*
X255016000Y-139212103D01*
X254451542Y-139324381D01*
X253973017Y-139644120D01*
X253746000Y-139983876D01*
X253518983Y-139644120D01*
X253040458Y-139324381D01*
X252476000Y-139212103D01*
X251911542Y-139324381D01*
X251433017Y-139644120D01*
X251206000Y-139983876D01*
X250978983Y-139644120D01*
X250500458Y-139324381D01*
X249936000Y-139212103D01*
X249371542Y-139324381D01*
X248893017Y-139644120D01*
X248666000Y-139983876D01*
X248438983Y-139644120D01*
X247960458Y-139324381D01*
X247396000Y-139212103D01*
X246831542Y-139324381D01*
X246353017Y-139644120D01*
X246033278Y-140122645D01*
X245921000Y-140687103D01*
X245921000Y-140744897D01*
X246033278Y-141309355D01*
X246353017Y-141787880D01*
X246831542Y-142107619D01*
X247396000Y-142219897D01*
X247960458Y-142107619D01*
X248438983Y-141787880D01*
X248666000Y-141448124D01*
X248893017Y-141787880D01*
X249371542Y-142107619D01*
X249936000Y-142219897D01*
X250500458Y-142107619D01*
X250978983Y-141787880D01*
X251206000Y-141448124D01*
X251433017Y-141787880D01*
X251911542Y-142107619D01*
X252476000Y-142219897D01*
X253040458Y-142107619D01*
X253518983Y-141787880D01*
X253746000Y-141448124D01*
X253973017Y-141787880D01*
X254451542Y-142107619D01*
X255016000Y-142219897D01*
X255580458Y-142107619D01*
X256058983Y-141787880D01*
X256099185Y-141727714D01*
X256112337Y-141797611D01*
X256249219Y-142010332D01*
X256458076Y-142153038D01*
X256706000Y-142203244D01*
X258406000Y-142203244D01*
X258637611Y-142159663D01*
X258850332Y-142022781D01*
X258993038Y-141813924D01*
X259043244Y-141566000D01*
X259043244Y-139866000D01*
X258999663Y-139634389D01*
X258862781Y-139421668D01*
X258848648Y-139412012D01*
X260245000Y-138015660D01*
X260245000Y-144095000D01*
X175995000Y-144095000D01*
X175995000Y-141069373D01*
X192623946Y-141069373D01*
X192868185Y-141590497D01*
X193293258Y-141978487D01*
X193702628Y-142148045D01*
X193931000Y-142028812D01*
X193931000Y-140841000D01*
X192742547Y-140841000D01*
X192623946Y-141069373D01*
X175995000Y-141069373D01*
X175995000Y-140362627D01*
X192623946Y-140362627D01*
X192742547Y-140591000D01*
X193931000Y-140591000D01*
X193931000Y-139403188D01*
X194181000Y-139403188D01*
X194181000Y-140591000D01*
X194201000Y-140591000D01*
X194201000Y-140841000D01*
X194181000Y-140841000D01*
X194181000Y-142028812D01*
X194409372Y-142148045D01*
X194818742Y-141978487D01*
X195132486Y-141692114D01*
X195152337Y-141797611D01*
X195289219Y-142010332D01*
X195498076Y-142153038D01*
X195746000Y-142203244D01*
X197446000Y-142203244D01*
X197677611Y-142159663D01*
X197890332Y-142022781D01*
X198033038Y-141813924D01*
X198083244Y-141566000D01*
X198083244Y-140687103D01*
X200201000Y-140687103D01*
X200201000Y-140744897D01*
X200313278Y-141309355D01*
X200633017Y-141787880D01*
X201111542Y-142107619D01*
X201676000Y-142219897D01*
X202240458Y-142107619D01*
X202718983Y-141787880D01*
X202759185Y-141727714D01*
X202772337Y-141797611D01*
X202909219Y-142010332D01*
X203118076Y-142153038D01*
X203366000Y-142203244D01*
X205066000Y-142203244D01*
X205297611Y-142159663D01*
X205510332Y-142022781D01*
X205653038Y-141813924D01*
X205672868Y-141716000D01*
X208212952Y-141716000D01*
X208277017Y-141811880D01*
X208755542Y-142131619D01*
X209320000Y-142243897D01*
X209884458Y-142131619D01*
X210362983Y-141811880D01*
X210411012Y-141740000D01*
X210768988Y-141740000D01*
X210817017Y-141811880D01*
X211295542Y-142131619D01*
X211860000Y-142243897D01*
X212424458Y-142131619D01*
X212902983Y-141811880D01*
X212951012Y-141740000D01*
X213308988Y-141740000D01*
X213357017Y-141811880D01*
X213835542Y-142131619D01*
X214400000Y-142243897D01*
X214964458Y-142131619D01*
X215442983Y-141811880D01*
X215762722Y-141333355D01*
X215875000Y-140768897D01*
X215875000Y-140711103D01*
X215870227Y-140687103D01*
X217981000Y-140687103D01*
X217981000Y-140744897D01*
X218093278Y-141309355D01*
X218413017Y-141787880D01*
X218891542Y-142107619D01*
X219456000Y-142219897D01*
X220020458Y-142107619D01*
X220498983Y-141787880D01*
X220726000Y-141448124D01*
X220953017Y-141787880D01*
X221431542Y-142107619D01*
X221996000Y-142219897D01*
X222560458Y-142107619D01*
X223038983Y-141787880D01*
X223266000Y-141448124D01*
X223493017Y-141787880D01*
X223971542Y-142107619D01*
X224536000Y-142219897D01*
X225100458Y-142107619D01*
X225578983Y-141787880D01*
X225898722Y-141309355D01*
X226011000Y-140744897D01*
X226011000Y-140687103D01*
X228141000Y-140687103D01*
X228141000Y-140744897D01*
X228253278Y-141309355D01*
X228573017Y-141787880D01*
X229051542Y-142107619D01*
X229616000Y-142219897D01*
X230180458Y-142107619D01*
X230658983Y-141787880D01*
X230886000Y-141448124D01*
X231113017Y-141787880D01*
X231591542Y-142107619D01*
X232156000Y-142219897D01*
X232720458Y-142107619D01*
X233198983Y-141787880D01*
X233426000Y-141448124D01*
X233653017Y-141787880D01*
X234131542Y-142107619D01*
X234696000Y-142219897D01*
X235260458Y-142107619D01*
X235738983Y-141787880D01*
X235966000Y-141448124D01*
X236193017Y-141787880D01*
X236671542Y-142107619D01*
X237236000Y-142219897D01*
X237800458Y-142107619D01*
X238278983Y-141787880D01*
X238506000Y-141448124D01*
X238733017Y-141787880D01*
X239211542Y-142107619D01*
X239776000Y-142219897D01*
X240340458Y-142107619D01*
X240818983Y-141787880D01*
X240859185Y-141727714D01*
X240872337Y-141797611D01*
X241009219Y-142010332D01*
X241218076Y-142153038D01*
X241466000Y-142203244D01*
X243166000Y-142203244D01*
X243397611Y-142159663D01*
X243610332Y-142022781D01*
X243753038Y-141813924D01*
X243803244Y-141566000D01*
X243803244Y-139866000D01*
X243759663Y-139634389D01*
X243622781Y-139421668D01*
X243413924Y-139278962D01*
X243166000Y-139228756D01*
X241466000Y-139228756D01*
X241234389Y-139272337D01*
X241021668Y-139409219D01*
X240878962Y-139618076D01*
X240860965Y-139706950D01*
X240818983Y-139644120D01*
X240340458Y-139324381D01*
X239776000Y-139212103D01*
X239211542Y-139324381D01*
X238733017Y-139644120D01*
X238506000Y-139983876D01*
X238278983Y-139644120D01*
X237800458Y-139324381D01*
X237236000Y-139212103D01*
X236671542Y-139324381D01*
X236193017Y-139644120D01*
X235966000Y-139983876D01*
X235738983Y-139644120D01*
X235260458Y-139324381D01*
X234696000Y-139212103D01*
X234131542Y-139324381D01*
X233653017Y-139644120D01*
X233426000Y-139983876D01*
X233198983Y-139644120D01*
X232720458Y-139324381D01*
X232156000Y-139212103D01*
X231591542Y-139324381D01*
X231113017Y-139644120D01*
X230886000Y-139983876D01*
X230658983Y-139644120D01*
X230180458Y-139324381D01*
X229616000Y-139212103D01*
X229051542Y-139324381D01*
X228573017Y-139644120D01*
X228253278Y-140122645D01*
X228141000Y-140687103D01*
X226011000Y-140687103D01*
X225898722Y-140122645D01*
X225578983Y-139644120D01*
X225559063Y-139630810D01*
X225740034Y-139555849D01*
X225915850Y-139380034D01*
X226011000Y-139150320D01*
X226011000Y-138457250D01*
X225854750Y-138301000D01*
X224661000Y-138301000D01*
X224661000Y-138321000D01*
X224411000Y-138321000D01*
X224411000Y-138301000D01*
X222121000Y-138301000D01*
X222121000Y-138321000D01*
X221871000Y-138321000D01*
X221871000Y-138301000D01*
X219581000Y-138301000D01*
X219581000Y-138321000D01*
X219331000Y-138321000D01*
X219331000Y-138301000D01*
X218142547Y-138301000D01*
X218023946Y-138529373D01*
X218268185Y-139050497D01*
X218693258Y-139438487D01*
X218710242Y-139445522D01*
X218413017Y-139644120D01*
X218093278Y-140122645D01*
X217981000Y-140687103D01*
X215870227Y-140687103D01*
X215762722Y-140146645D01*
X215442983Y-139668120D01*
X215422911Y-139654708D01*
X215481611Y-139643663D01*
X215694332Y-139506781D01*
X215837038Y-139297924D01*
X215887244Y-139050000D01*
X215887244Y-137822627D01*
X218023946Y-137822627D01*
X218142547Y-138051000D01*
X219331000Y-138051000D01*
X219331000Y-136863188D01*
X219581000Y-136863188D01*
X219581000Y-138051000D01*
X221871000Y-138051000D01*
X221871000Y-136863188D01*
X222121000Y-136863188D01*
X222121000Y-138051000D01*
X224411000Y-138051000D01*
X224411000Y-136857250D01*
X224661000Y-136857250D01*
X224661000Y-138051000D01*
X225854750Y-138051000D01*
X226011000Y-137894750D01*
X226011000Y-137201680D01*
X225915850Y-136971966D01*
X225740034Y-136796151D01*
X225510320Y-136701000D01*
X224817250Y-136701000D01*
X224661000Y-136857250D01*
X224411000Y-136857250D01*
X224254750Y-136701000D01*
X223561680Y-136701000D01*
X223331966Y-136796151D01*
X223156150Y-136971966D01*
X223064690Y-137192771D01*
X222758742Y-136913513D01*
X222349372Y-136743955D01*
X222121000Y-136863188D01*
X221871000Y-136863188D01*
X221642628Y-136743955D01*
X221233258Y-136913513D01*
X220808185Y-137301503D01*
X220726000Y-137476858D01*
X220643815Y-137301503D01*
X220218742Y-136913513D01*
X219809372Y-136743955D01*
X219581000Y-136863188D01*
X219331000Y-136863188D01*
X219102628Y-136743955D01*
X218693258Y-136913513D01*
X218268185Y-137301503D01*
X218023946Y-137822627D01*
X215887244Y-137822627D01*
X215887244Y-137350000D01*
X215843663Y-137118389D01*
X215706781Y-136905668D01*
X215497924Y-136762962D01*
X215250000Y-136712756D01*
X213550000Y-136712756D01*
X213318389Y-136756337D01*
X213105668Y-136893219D01*
X212962962Y-137102076D01*
X212944965Y-137190950D01*
X212902983Y-137128120D01*
X212424458Y-136808381D01*
X211860000Y-136696103D01*
X211295542Y-136808381D01*
X210817017Y-137128120D01*
X210590000Y-137467876D01*
X210362983Y-137128120D01*
X209884458Y-136808381D01*
X209320000Y-136696103D01*
X208755542Y-136808381D01*
X208277017Y-137128120D01*
X207957278Y-137606645D01*
X207845000Y-138171103D01*
X207845000Y-138228897D01*
X207957278Y-138793355D01*
X208277017Y-139271880D01*
X208573526Y-139470000D01*
X208277017Y-139668120D01*
X208245025Y-139716000D01*
X205675019Y-139716000D01*
X205659663Y-139634389D01*
X205522781Y-139421668D01*
X205313924Y-139278962D01*
X205066000Y-139228756D01*
X203366000Y-139228756D01*
X203134389Y-139272337D01*
X202921668Y-139409219D01*
X202778962Y-139618076D01*
X202760965Y-139706950D01*
X202718983Y-139644120D01*
X202240458Y-139324381D01*
X201676000Y-139212103D01*
X201111542Y-139324381D01*
X200633017Y-139644120D01*
X200313278Y-140122645D01*
X200201000Y-140687103D01*
X198083244Y-140687103D01*
X198083244Y-139866000D01*
X198039663Y-139634389D01*
X197902781Y-139421668D01*
X197693924Y-139278962D01*
X197446000Y-139228756D01*
X195746000Y-139228756D01*
X195514389Y-139272337D01*
X195301668Y-139409219D01*
X195158962Y-139618076D01*
X195134013Y-139741280D01*
X194818742Y-139453513D01*
X194409372Y-139283955D01*
X194181000Y-139403188D01*
X193931000Y-139403188D01*
X193702628Y-139283955D01*
X193293258Y-139453513D01*
X192868185Y-139841503D01*
X192623946Y-140362627D01*
X175995000Y-140362627D01*
X175995000Y-134081250D01*
X215375000Y-134081250D01*
X215375000Y-135124320D01*
X215470150Y-135354034D01*
X215645966Y-135529849D01*
X215875680Y-135625000D01*
X216518750Y-135625000D01*
X216675000Y-135468750D01*
X216675000Y-133925000D01*
X215531250Y-133925000D01*
X215375000Y-134081250D01*
X175995000Y-134081250D01*
X175995000Y-132475680D01*
X215375000Y-132475680D01*
X215375000Y-133518750D01*
X215531250Y-133675000D01*
X216675000Y-133675000D01*
X216675000Y-132131250D01*
X216518750Y-131975000D01*
X215875680Y-131975000D01*
X215645966Y-132070151D01*
X215470150Y-132245966D01*
X215375000Y-132475680D01*
X175995000Y-132475680D01*
X175995000Y-130332206D01*
X191874754Y-130332206D01*
X192091240Y-130856143D01*
X192491749Y-131257351D01*
X193015307Y-131474752D01*
X193582206Y-131475246D01*
X194047025Y-131283187D01*
X205124840Y-131283187D01*
X205265366Y-131623286D01*
X205525345Y-131883720D01*
X205865199Y-132024839D01*
X206233187Y-132025160D01*
X206294079Y-132000000D01*
X207750000Y-132000000D01*
X208037013Y-131942910D01*
X208280330Y-131780330D01*
X209010660Y-131050000D01*
X211641684Y-131050000D01*
X211675345Y-131083720D01*
X212015199Y-131224839D01*
X212383187Y-131225160D01*
X212723286Y-131084634D01*
X212983720Y-130824655D01*
X213124839Y-130484801D01*
X213125160Y-130116813D01*
X212984634Y-129776714D01*
X212724655Y-129516280D01*
X212384801Y-129375161D01*
X212016813Y-129374840D01*
X211676714Y-129515366D01*
X211642019Y-129550000D01*
X208700000Y-129550000D01*
X208412987Y-129607090D01*
X208248776Y-129716813D01*
X208169670Y-129769670D01*
X207439340Y-130500000D01*
X206758054Y-130500000D01*
X206574655Y-130316280D01*
X206234801Y-130175161D01*
X205866813Y-130174840D01*
X205526714Y-130315366D01*
X205266280Y-130575345D01*
X205125161Y-130915199D01*
X205124840Y-131283187D01*
X194047025Y-131283187D01*
X194106143Y-131258760D01*
X194507351Y-130858251D01*
X194724752Y-130334693D01*
X194725246Y-129767794D01*
X194508760Y-129243857D01*
X194108251Y-128842649D01*
X193584693Y-128625248D01*
X193017794Y-128624754D01*
X192493857Y-128841240D01*
X192092649Y-129241749D01*
X191875248Y-129765307D01*
X191874754Y-130332206D01*
X175995000Y-130332206D01*
X175995000Y-128533187D01*
X185764840Y-128533187D01*
X185905366Y-128873286D01*
X186165345Y-129133720D01*
X186505199Y-129274839D01*
X186873187Y-129275160D01*
X187213286Y-129134634D01*
X187298068Y-129050000D01*
X188941684Y-129050000D01*
X188975345Y-129083720D01*
X189315199Y-129224839D01*
X189683187Y-129225160D01*
X190023286Y-129084634D01*
X190283720Y-128824655D01*
X190424839Y-128484801D01*
X190425160Y-128116813D01*
X190284634Y-127776714D01*
X190024655Y-127516280D01*
X189684801Y-127375161D01*
X189316813Y-127374840D01*
X188976714Y-127515366D01*
X188942019Y-127550000D01*
X187175448Y-127550000D01*
X186874801Y-127425161D01*
X186506813Y-127424840D01*
X186166714Y-127565366D01*
X185906280Y-127825345D01*
X185765161Y-128165199D01*
X185764840Y-128533187D01*
X175995000Y-128533187D01*
X175995000Y-123477502D01*
X177574338Y-123477502D01*
X178155432Y-124883858D01*
X179230483Y-125960786D01*
X180635823Y-126544334D01*
X182157502Y-126545662D01*
X183563858Y-125964568D01*
X184197324Y-125332206D01*
X191874754Y-125332206D01*
X192091240Y-125856143D01*
X192491749Y-126257351D01*
X193015307Y-126474752D01*
X193582206Y-126475246D01*
X194106143Y-126258760D01*
X194507351Y-125858251D01*
X194724752Y-125334693D01*
X194725246Y-124767794D01*
X194508760Y-124243857D01*
X194108251Y-123842649D01*
X193724226Y-123683187D01*
X197274840Y-123683187D01*
X197415366Y-124023286D01*
X197675345Y-124283720D01*
X198015199Y-124424839D01*
X198383187Y-124425160D01*
X198723286Y-124284634D01*
X198757981Y-124250000D01*
X198974869Y-124250000D01*
X198974840Y-124283187D01*
X199115366Y-124623286D01*
X199375345Y-124883720D01*
X199715199Y-125024839D01*
X200083187Y-125025160D01*
X200423286Y-124884634D01*
X200683720Y-124624655D01*
X200824839Y-124284801D01*
X200825160Y-123916813D01*
X200684634Y-123576714D01*
X200424655Y-123316280D01*
X200084801Y-123175161D01*
X200035778Y-123175118D01*
X199830330Y-122969670D01*
X199587013Y-122807090D01*
X199300000Y-122750000D01*
X198758316Y-122750000D01*
X198724655Y-122716280D01*
X198384801Y-122575161D01*
X198016813Y-122574840D01*
X197676714Y-122715366D01*
X197416280Y-122975345D01*
X197275161Y-123315199D01*
X197274840Y-123683187D01*
X193724226Y-123683187D01*
X193584693Y-123625248D01*
X193017794Y-123624754D01*
X192493857Y-123841240D01*
X192092649Y-124241749D01*
X191875248Y-124765307D01*
X191874754Y-125332206D01*
X184197324Y-125332206D01*
X184640786Y-124889517D01*
X185224334Y-123484177D01*
X185225662Y-121962498D01*
X184644568Y-120556142D01*
X183640180Y-119550000D01*
X191712756Y-119550000D01*
X191712756Y-121250000D01*
X191756337Y-121481611D01*
X191893219Y-121694332D01*
X192102076Y-121837038D01*
X192350000Y-121887244D01*
X194050000Y-121887244D01*
X194281611Y-121843663D01*
X194494332Y-121706781D01*
X194637038Y-121497924D01*
X194687244Y-121250000D01*
X194687244Y-119550000D01*
X194643663Y-119318389D01*
X194506781Y-119105668D01*
X194297924Y-118962962D01*
X194050000Y-118912756D01*
X192350000Y-118912756D01*
X192118389Y-118956337D01*
X191905668Y-119093219D01*
X191762962Y-119302076D01*
X191712756Y-119550000D01*
X183640180Y-119550000D01*
X183569517Y-119479214D01*
X182164177Y-118895666D01*
X180642498Y-118894338D01*
X179236142Y-119475432D01*
X178159214Y-120550483D01*
X177575666Y-121955823D01*
X177574338Y-123477502D01*
X175995000Y-123477502D01*
X175995000Y-118152991D01*
X186449822Y-118152991D01*
X186605541Y-118529857D01*
X186893626Y-118818446D01*
X187270220Y-118974822D01*
X187677991Y-118975178D01*
X188054857Y-118819459D01*
X188343446Y-118531374D01*
X188499822Y-118154780D01*
X188499840Y-118134728D01*
X188633395Y-117934848D01*
X188700000Y-117600000D01*
X188700000Y-116465590D01*
X188849822Y-116104780D01*
X188850178Y-115697009D01*
X188694459Y-115320143D01*
X188482874Y-115108187D01*
X198224840Y-115108187D01*
X198365366Y-115448286D01*
X198625345Y-115708720D01*
X198965199Y-115849839D01*
X199014222Y-115849882D01*
X199094670Y-115930330D01*
X199337987Y-116092910D01*
X199625000Y-116150000D01*
X201006472Y-116150000D01*
X201000161Y-116165199D01*
X200999840Y-116533187D01*
X201140366Y-116873286D01*
X201400345Y-117133720D01*
X201740199Y-117274839D01*
X202108187Y-117275160D01*
X202448286Y-117134634D01*
X202708720Y-116874655D01*
X202730540Y-116822108D01*
X202869670Y-117030330D01*
X205750000Y-119910660D01*
X205750000Y-120625000D01*
X205807090Y-120912013D01*
X205969670Y-121155330D01*
X207694670Y-122880330D01*
X207937987Y-123042910D01*
X208225000Y-123100000D01*
X209214340Y-123100000D01*
X209824882Y-123710542D01*
X209824840Y-123758187D01*
X209965366Y-124098286D01*
X210225345Y-124358720D01*
X210565199Y-124499839D01*
X210933187Y-124500160D01*
X211250360Y-124369107D01*
X211565199Y-124499839D01*
X211933187Y-124500160D01*
X212157528Y-124407464D01*
X212440199Y-124524839D01*
X212808187Y-124525160D01*
X213148286Y-124384634D01*
X213408720Y-124124655D01*
X213418957Y-124100000D01*
X253462756Y-124100000D01*
X253462756Y-125700000D01*
X253506337Y-125931611D01*
X253643219Y-126144332D01*
X253852076Y-126287038D01*
X254100000Y-126337244D01*
X255700000Y-126337244D01*
X255931611Y-126293663D01*
X256144332Y-126156781D01*
X256287038Y-125947924D01*
X256337244Y-125700000D01*
X256337244Y-124100000D01*
X256293663Y-123868389D01*
X256156781Y-123655668D01*
X255947924Y-123512962D01*
X255705018Y-123463772D01*
X255724223Y-123401000D01*
X254900000Y-122576777D01*
X254075777Y-123401000D01*
X254094961Y-123463704D01*
X253868389Y-123506337D01*
X253655668Y-123643219D01*
X253512962Y-123852076D01*
X253462756Y-124100000D01*
X213418957Y-124100000D01*
X213549839Y-123784801D01*
X213550160Y-123416813D01*
X213409634Y-123076714D01*
X213149655Y-122816280D01*
X213027771Y-122765669D01*
X212980330Y-122694670D01*
X212469287Y-122183627D01*
X253463284Y-122183627D01*
X253489845Y-122749905D01*
X253655450Y-123149709D01*
X253899000Y-123224223D01*
X254723223Y-122400000D01*
X255076777Y-122400000D01*
X255901000Y-123224223D01*
X256144550Y-123149709D01*
X256336716Y-122616373D01*
X256310155Y-122050095D01*
X256144550Y-121650291D01*
X255901000Y-121575777D01*
X255076777Y-122400000D01*
X254723223Y-122400000D01*
X253899000Y-121575777D01*
X253655450Y-121650291D01*
X253463284Y-122183627D01*
X212469287Y-122183627D01*
X210775000Y-120489340D01*
X210775000Y-119069998D01*
X210717910Y-118782985D01*
X210555330Y-118539668D01*
X209575000Y-117559338D01*
X209575000Y-113925000D01*
X210664340Y-113925000D01*
X211178015Y-114438675D01*
X211141280Y-114475345D01*
X211000161Y-114815199D01*
X210999840Y-115183187D01*
X211140366Y-115523286D01*
X211400345Y-115783720D01*
X211739676Y-115924622D01*
X211650161Y-116140199D01*
X211649840Y-116508187D01*
X211790366Y-116848286D01*
X212050345Y-117108720D01*
X212390199Y-117249839D01*
X212758187Y-117250160D01*
X213098286Y-117109634D01*
X213358720Y-116849655D01*
X213462385Y-116600000D01*
X225916684Y-116600000D01*
X225950345Y-116633720D01*
X226290199Y-116774839D01*
X226578704Y-116775091D01*
X226414676Y-116807718D01*
X225952373Y-117116619D01*
X225690000Y-117509288D01*
X225427627Y-117116619D01*
X224965324Y-116807718D01*
X224420000Y-116699246D01*
X223874676Y-116807718D01*
X223412373Y-117116619D01*
X223150000Y-117509288D01*
X222887627Y-117116619D01*
X222425324Y-116807718D01*
X221880000Y-116699246D01*
X221334676Y-116807718D01*
X220872373Y-117116619D01*
X220610000Y-117509288D01*
X220347627Y-117116619D01*
X219885324Y-116807718D01*
X219340000Y-116699246D01*
X218794676Y-116807718D01*
X218332373Y-117116619D01*
X218070000Y-117509288D01*
X217807627Y-117116619D01*
X217345324Y-116807718D01*
X216800000Y-116699246D01*
X216254676Y-116807718D01*
X215792373Y-117116619D01*
X215483472Y-117578922D01*
X215375000Y-118124246D01*
X215375000Y-118995754D01*
X215411393Y-119178712D01*
X215332684Y-119126120D01*
X214950000Y-119050000D01*
X214065241Y-119050000D01*
X213858251Y-118842649D01*
X213334693Y-118625248D01*
X212767794Y-118624754D01*
X212243857Y-118841240D01*
X211842649Y-119241749D01*
X211625248Y-119765307D01*
X211624754Y-120332206D01*
X211841240Y-120856143D01*
X212241749Y-121257351D01*
X212765307Y-121474752D01*
X213332206Y-121475246D01*
X213856143Y-121258760D01*
X214065267Y-121050000D01*
X214535786Y-121050000D01*
X214942891Y-121457104D01*
X214942893Y-121457107D01*
X215267317Y-121673880D01*
X215650000Y-121750000D01*
X220675000Y-121750000D01*
X221057684Y-121673880D01*
X221382107Y-121457107D01*
X222587107Y-120252107D01*
X222644957Y-120165528D01*
X222887627Y-120003381D01*
X223150000Y-119610712D01*
X223412373Y-120003381D01*
X223874676Y-120312282D01*
X224420000Y-120420754D01*
X224965324Y-120312282D01*
X225427627Y-120003381D01*
X225690000Y-119610712D01*
X225952373Y-120003381D01*
X226414676Y-120312282D01*
X226960000Y-120420754D01*
X227505324Y-120312282D01*
X227967627Y-120003381D01*
X228230000Y-119610712D01*
X228492373Y-120003381D01*
X228954676Y-120312282D01*
X229500000Y-120420754D01*
X230045324Y-120312282D01*
X230507627Y-120003381D01*
X230770000Y-119610712D01*
X231032373Y-120003381D01*
X231494676Y-120312282D01*
X232040000Y-120420754D01*
X232585324Y-120312282D01*
X233047627Y-120003381D01*
X233310000Y-119610712D01*
X233572373Y-120003381D01*
X234034676Y-120312282D01*
X234580000Y-120420754D01*
X235107987Y-120315731D01*
X235025161Y-120515199D01*
X235024840Y-120883187D01*
X235165366Y-121223286D01*
X235425345Y-121483720D01*
X235765199Y-121624839D01*
X236133187Y-121625160D01*
X236473286Y-121484634D01*
X236507981Y-121450000D01*
X248041684Y-121450000D01*
X248075345Y-121483720D01*
X248415199Y-121624839D01*
X248783187Y-121625160D01*
X249123286Y-121484634D01*
X249209069Y-121399000D01*
X254075777Y-121399000D01*
X254900000Y-122223223D01*
X255724223Y-121399000D01*
X255649709Y-121155450D01*
X255116373Y-120963284D01*
X254550095Y-120989845D01*
X254150291Y-121155450D01*
X254075777Y-121399000D01*
X249209069Y-121399000D01*
X249383720Y-121224655D01*
X249524839Y-120884801D01*
X249525160Y-120516813D01*
X249455512Y-120348253D01*
X249820000Y-120420754D01*
X250365324Y-120312282D01*
X250827627Y-120003381D01*
X251136528Y-119541078D01*
X251245000Y-118995754D01*
X251245000Y-118124246D01*
X251136528Y-117578922D01*
X250827627Y-117116619D01*
X250365324Y-116807718D01*
X249820000Y-116699246D01*
X249274676Y-116807718D01*
X248812373Y-117116619D01*
X248550000Y-117509288D01*
X248287627Y-117116619D01*
X247825324Y-116807718D01*
X247280000Y-116699246D01*
X246734676Y-116807718D01*
X246272373Y-117116619D01*
X246010000Y-117509288D01*
X245747627Y-117116619D01*
X245285324Y-116807718D01*
X244740000Y-116699246D01*
X244194676Y-116807718D01*
X243732373Y-117116619D01*
X243470000Y-117509288D01*
X243207627Y-117116619D01*
X242745324Y-116807718D01*
X242200000Y-116699246D01*
X241654676Y-116807718D01*
X241192373Y-117116619D01*
X240930000Y-117509288D01*
X240667627Y-117116619D01*
X240205324Y-116807718D01*
X239660000Y-116699246D01*
X239114676Y-116807718D01*
X238652373Y-117116619D01*
X238390000Y-117509288D01*
X238127627Y-117116619D01*
X237665324Y-116807718D01*
X237120000Y-116699246D01*
X236574676Y-116807718D01*
X236112373Y-117116619D01*
X235850000Y-117509288D01*
X235587627Y-117116619D01*
X235125324Y-116807718D01*
X234580000Y-116699246D01*
X234034676Y-116807718D01*
X233572373Y-117116619D01*
X233310000Y-117509288D01*
X233047627Y-117116619D01*
X232585324Y-116807718D01*
X232040000Y-116699246D01*
X231494676Y-116807718D01*
X231032373Y-117116619D01*
X230770000Y-117509288D01*
X230507627Y-117116619D01*
X230045324Y-116807718D01*
X229500000Y-116699246D01*
X228954676Y-116807718D01*
X228492373Y-117116619D01*
X228230000Y-117509288D01*
X227967627Y-117116619D01*
X227505324Y-116807718D01*
X226960000Y-116699246D01*
X226732294Y-116744540D01*
X226998286Y-116634634D01*
X227258720Y-116374655D01*
X227399839Y-116034801D01*
X227400160Y-115666813D01*
X227294995Y-115412294D01*
X227399839Y-115159801D01*
X227400160Y-114791813D01*
X227259634Y-114451714D01*
X227245583Y-114437638D01*
X227333720Y-114349655D01*
X227474839Y-114009801D01*
X227474927Y-113908187D01*
X229899840Y-113908187D01*
X230040366Y-114248286D01*
X230300345Y-114508720D01*
X230640199Y-114649839D01*
X230798516Y-114649977D01*
X230900004Y-114670164D01*
X230899840Y-114858187D01*
X231040366Y-115198286D01*
X231300345Y-115458720D01*
X231640199Y-115599839D01*
X231649847Y-115599847D01*
X231649840Y-115608187D01*
X231790366Y-115948286D01*
X232050345Y-116208720D01*
X232390199Y-116349839D01*
X232498669Y-116349934D01*
X232562987Y-116392910D01*
X232850000Y-116450000D01*
X247016684Y-116450000D01*
X247050345Y-116483720D01*
X247390199Y-116624839D01*
X247758187Y-116625160D01*
X248098286Y-116484634D01*
X248358720Y-116224655D01*
X248499839Y-115884801D01*
X248500124Y-115557799D01*
X248758720Y-115299655D01*
X248899839Y-114959801D01*
X248900160Y-114591813D01*
X248759634Y-114251714D01*
X248745605Y-114237660D01*
X248808720Y-114174655D01*
X248949839Y-113834801D01*
X248950160Y-113466813D01*
X248809634Y-113126714D01*
X248549655Y-112866280D01*
X248209801Y-112725161D01*
X247841813Y-112724840D01*
X247501714Y-112865366D01*
X247241280Y-113125345D01*
X247210281Y-113200000D01*
X231607923Y-113200000D01*
X231349655Y-112941280D01*
X231009801Y-112800161D01*
X230641813Y-112799840D01*
X230301714Y-112940366D01*
X230041280Y-113200345D01*
X229900161Y-113540199D01*
X229899840Y-113908187D01*
X227474927Y-113908187D01*
X227475160Y-113641813D01*
X227334634Y-113301714D01*
X227074655Y-113041280D01*
X226734801Y-112900161D01*
X226683099Y-112900116D01*
X226699839Y-112859801D01*
X226700160Y-112491813D01*
X226559634Y-112151714D01*
X226550000Y-112142063D01*
X226550000Y-110600000D01*
X226492910Y-110312987D01*
X226389476Y-110158187D01*
X229524840Y-110158187D01*
X229665366Y-110498286D01*
X229791852Y-110624993D01*
X229666280Y-110750345D01*
X229525161Y-111090199D01*
X229524840Y-111458187D01*
X229665366Y-111798286D01*
X229925345Y-112058720D01*
X230265199Y-112199839D01*
X230633187Y-112200160D01*
X230973286Y-112059634D01*
X231233720Y-111799655D01*
X231374839Y-111459801D01*
X231374882Y-111410778D01*
X231610660Y-111175000D01*
X232350000Y-111175000D01*
X232637013Y-111117910D01*
X232880330Y-110955330D01*
X233555330Y-110280330D01*
X233717910Y-110037013D01*
X233775000Y-109750000D01*
X233775000Y-109383187D01*
X245124840Y-109383187D01*
X245265366Y-109723286D01*
X245525345Y-109983720D01*
X245777950Y-110088610D01*
X246224882Y-110535542D01*
X246224840Y-110583187D01*
X246365366Y-110923286D01*
X246625345Y-111183720D01*
X246965199Y-111324839D01*
X247333187Y-111325160D01*
X247673286Y-111184634D01*
X247933720Y-110924655D01*
X248074839Y-110584801D01*
X248075160Y-110216813D01*
X247934634Y-109876714D01*
X247674655Y-109616280D01*
X247334801Y-109475161D01*
X247285778Y-109475118D01*
X246975031Y-109164371D01*
X246975160Y-109016813D01*
X246834634Y-108676714D01*
X246574655Y-108416280D01*
X246234801Y-108275161D01*
X245866813Y-108274840D01*
X245526714Y-108415366D01*
X245266280Y-108675345D01*
X245125161Y-109015199D01*
X245124840Y-109383187D01*
X233775000Y-109383187D01*
X233775000Y-108194620D01*
X233799839Y-108134801D01*
X233800160Y-107766813D01*
X233659634Y-107426714D01*
X233399655Y-107166280D01*
X233059801Y-107025161D01*
X232691813Y-107024840D01*
X232351714Y-107165366D01*
X232091280Y-107425345D01*
X231950161Y-107765199D01*
X231949840Y-108133187D01*
X232090366Y-108473286D01*
X232113788Y-108496749D01*
X231826714Y-108615366D01*
X231792019Y-108650000D01*
X231025000Y-108650000D01*
X230737987Y-108707090D01*
X230494670Y-108869670D01*
X230314458Y-109049882D01*
X230266813Y-109049840D01*
X229926714Y-109190366D01*
X229666280Y-109450345D01*
X229525161Y-109790199D01*
X229524840Y-110158187D01*
X226389476Y-110158187D01*
X226330330Y-110069670D01*
X225525118Y-109264458D01*
X225525160Y-109216813D01*
X225384634Y-108876714D01*
X225124655Y-108616280D01*
X224784801Y-108475161D01*
X224416813Y-108474840D01*
X224076714Y-108615366D01*
X223816280Y-108875345D01*
X223675161Y-109215199D01*
X223674840Y-109583187D01*
X223815366Y-109923286D01*
X224075345Y-110183720D01*
X224415199Y-110324839D01*
X224464222Y-110324882D01*
X225050000Y-110910660D01*
X225050000Y-112091728D01*
X224991280Y-112150345D01*
X224850161Y-112490199D01*
X224849840Y-112858187D01*
X224990366Y-113198286D01*
X225250345Y-113458720D01*
X225409966Y-113525000D01*
X212385660Y-113525000D01*
X212334365Y-113473705D01*
X212508720Y-113299655D01*
X212649839Y-112959801D01*
X212649909Y-112879623D01*
X212698286Y-112859634D01*
X212958720Y-112599655D01*
X213099839Y-112259801D01*
X213099882Y-112210778D01*
X213180330Y-112130330D01*
X213342910Y-111887013D01*
X213400000Y-111600000D01*
X213400000Y-108838647D01*
X213467910Y-108737013D01*
X213525000Y-108450000D01*
X213525000Y-107675000D01*
X213524848Y-107674237D01*
X213525160Y-107316813D01*
X213384634Y-106976714D01*
X213183411Y-106775138D01*
X213208187Y-106775160D01*
X213548286Y-106634634D01*
X213808720Y-106374655D01*
X213949839Y-106034801D01*
X213950160Y-105666813D01*
X213929588Y-105617024D01*
X214706282Y-106393719D01*
X214977349Y-106574840D01*
X214990152Y-106583395D01*
X215325000Y-106650000D01*
X226619616Y-106650000D01*
X226906823Y-106769259D01*
X227706281Y-107568718D01*
X227968049Y-107743626D01*
X227990152Y-107758395D01*
X228325000Y-107825000D01*
X230800000Y-107825000D01*
X231134848Y-107758395D01*
X231418718Y-107568718D01*
X233562437Y-105425000D01*
X244637564Y-105425000D01*
X246675000Y-107462437D01*
X246675000Y-107925000D01*
X246730761Y-108205330D01*
X246741605Y-108259848D01*
X246899849Y-108496676D01*
X246899822Y-108527991D01*
X247055541Y-108904857D01*
X247343626Y-109193446D01*
X247720220Y-109349822D01*
X248127991Y-109350178D01*
X248504857Y-109194459D01*
X248793446Y-108906374D01*
X248949822Y-108529780D01*
X248949993Y-108333187D01*
X251324840Y-108333187D01*
X251465366Y-108673286D01*
X251566852Y-108774949D01*
X251466280Y-108875345D01*
X251325161Y-109215199D01*
X251324840Y-109583187D01*
X251465366Y-109923286D01*
X251725345Y-110183720D01*
X252030883Y-110310590D01*
X251925161Y-110565199D01*
X251924840Y-110933187D01*
X252065366Y-111273286D01*
X252325345Y-111533720D01*
X252665199Y-111674839D01*
X253033187Y-111675160D01*
X253373286Y-111534634D01*
X253373630Y-111534290D01*
X253624882Y-111785542D01*
X253624840Y-111833187D01*
X253765366Y-112173286D01*
X254025345Y-112433720D01*
X254365199Y-112574839D01*
X254733187Y-112575160D01*
X255073286Y-112434634D01*
X255333720Y-112174655D01*
X255474839Y-111834801D01*
X255475160Y-111466813D01*
X255334634Y-111126714D01*
X255074655Y-110866280D01*
X254734801Y-110725161D01*
X254685778Y-110725118D01*
X254585648Y-110624988D01*
X254783187Y-110625160D01*
X255123286Y-110484634D01*
X255383720Y-110224655D01*
X255524839Y-109884801D01*
X255525160Y-109516813D01*
X255410713Y-109239829D01*
X255423286Y-109234634D01*
X255683720Y-108974655D01*
X255824839Y-108634801D01*
X255825160Y-108266813D01*
X255684634Y-107926714D01*
X255424655Y-107666280D01*
X255084801Y-107525161D01*
X254988763Y-107525077D01*
X254887013Y-107457090D01*
X254600000Y-107400000D01*
X252808316Y-107400000D01*
X252774655Y-107366280D01*
X252434801Y-107225161D01*
X252066813Y-107224840D01*
X251726714Y-107365366D01*
X251466280Y-107625345D01*
X251325161Y-107965199D01*
X251324840Y-108333187D01*
X248949993Y-108333187D01*
X248950178Y-108122009D01*
X248794459Y-107745143D01*
X248506374Y-107456554D01*
X248425000Y-107422764D01*
X248425000Y-107100000D01*
X248358395Y-106765152D01*
X248293960Y-106668719D01*
X248168719Y-106481282D01*
X245618718Y-103931282D01*
X245334848Y-103741605D01*
X245000000Y-103675000D01*
X233200000Y-103675000D01*
X232865152Y-103741605D01*
X232581282Y-103931281D01*
X230437564Y-106075000D01*
X228687437Y-106075000D01*
X228143652Y-105531216D01*
X227994459Y-105170143D01*
X227706374Y-104881554D01*
X227329780Y-104725178D01*
X226922009Y-104724822D01*
X226545143Y-104880541D01*
X226525650Y-104900000D01*
X215687437Y-104900000D01*
X214793718Y-104006282D01*
X214509848Y-103816605D01*
X214453164Y-103805330D01*
X214175000Y-103750000D01*
X210350000Y-103750000D01*
X210015152Y-103816605D01*
X209731282Y-104006281D01*
X208195624Y-105541940D01*
X208034801Y-105475161D01*
X207666813Y-105474840D01*
X207326714Y-105615366D01*
X207066280Y-105875345D01*
X206925161Y-106215199D01*
X206925118Y-106264222D01*
X206505559Y-106683781D01*
X206484801Y-106675161D01*
X206116813Y-106674840D01*
X205776714Y-106815366D01*
X205516280Y-107075345D01*
X205375161Y-107415199D01*
X205374840Y-107783187D01*
X205404485Y-107854934D01*
X205076714Y-107990366D01*
X204816280Y-108250345D01*
X204675161Y-108590199D01*
X204674840Y-108958187D01*
X204815366Y-109298286D01*
X204889244Y-109372293D01*
X204907090Y-109462013D01*
X205069670Y-109705330D01*
X206314200Y-110949860D01*
X206291813Y-110949840D01*
X205951714Y-111090366D01*
X205691280Y-111350345D01*
X205550161Y-111690199D01*
X205549840Y-112058187D01*
X205690366Y-112398286D01*
X205950345Y-112658720D01*
X206290199Y-112799839D01*
X206658187Y-112800160D01*
X206998286Y-112659634D01*
X207032981Y-112625000D01*
X208066669Y-112625000D01*
X208041280Y-112650345D01*
X207927234Y-112925000D01*
X206400000Y-112925000D01*
X206112987Y-112982090D01*
X205869670Y-113144670D01*
X205707090Y-113387987D01*
X205650000Y-113675000D01*
X205650000Y-114150000D01*
X200810660Y-114150000D01*
X200199857Y-113539197D01*
X200200160Y-113191813D01*
X200059634Y-112851714D01*
X199799655Y-112591280D01*
X199459801Y-112450161D01*
X199091813Y-112449840D01*
X198751714Y-112590366D01*
X198491280Y-112850345D01*
X198350161Y-113190199D01*
X198349840Y-113558187D01*
X198490366Y-113898286D01*
X198638991Y-114047171D01*
X198685133Y-114116228D01*
X198626714Y-114140366D01*
X198366280Y-114400345D01*
X198225161Y-114740199D01*
X198224840Y-115108187D01*
X188482874Y-115108187D01*
X188406374Y-115031554D01*
X188029780Y-114875178D01*
X187622009Y-114874822D01*
X187245143Y-115030541D01*
X186956554Y-115318626D01*
X186800178Y-115695220D01*
X186799822Y-116102991D01*
X186950000Y-116466447D01*
X186950000Y-117057874D01*
X186895143Y-117080541D01*
X186606554Y-117368626D01*
X186450178Y-117745220D01*
X186449822Y-118152991D01*
X175995000Y-118152991D01*
X175995000Y-108933187D01*
X183424840Y-108933187D01*
X183565366Y-109273286D01*
X183614403Y-109322409D01*
X183657090Y-109537013D01*
X183819670Y-109780330D01*
X184974882Y-110935542D01*
X184974840Y-110983187D01*
X185115366Y-111323286D01*
X185375345Y-111583720D01*
X185715199Y-111724839D01*
X186083187Y-111725160D01*
X186423286Y-111584634D01*
X186642213Y-111366089D01*
X186730541Y-111579857D01*
X187018626Y-111868446D01*
X187395220Y-112024822D01*
X187802991Y-112025178D01*
X188179857Y-111869459D01*
X188468446Y-111581374D01*
X188624822Y-111204780D01*
X188624993Y-111008187D01*
X191174840Y-111008187D01*
X191315366Y-111348286D01*
X191575345Y-111608720D01*
X191915199Y-111749839D01*
X191964222Y-111749882D01*
X192219670Y-112005330D01*
X192462987Y-112167910D01*
X192750000Y-112225000D01*
X193016684Y-112225000D01*
X193050345Y-112258720D01*
X193390199Y-112399839D01*
X193758187Y-112400160D01*
X194098286Y-112259634D01*
X194358720Y-111999655D01*
X194499839Y-111659801D01*
X194500160Y-111291813D01*
X194359634Y-110951714D01*
X194099655Y-110691280D01*
X193759801Y-110550161D01*
X193391813Y-110549840D01*
X193051714Y-110690366D01*
X193038859Y-110703199D01*
X193025118Y-110689458D01*
X193025160Y-110641813D01*
X192884634Y-110301714D01*
X192624655Y-110041280D01*
X192284801Y-109900161D01*
X191916813Y-109899840D01*
X191576714Y-110040366D01*
X191316280Y-110300345D01*
X191175161Y-110640199D01*
X191174840Y-111008187D01*
X188624993Y-111008187D01*
X188625178Y-110797009D01*
X188469459Y-110420143D01*
X188181374Y-110131554D01*
X188075000Y-110087384D01*
X188075000Y-109615590D01*
X188224822Y-109254780D01*
X188225178Y-108847009D01*
X188069459Y-108470143D01*
X187781374Y-108181554D01*
X187404780Y-108025178D01*
X186997009Y-108024822D01*
X186620143Y-108180541D01*
X186331554Y-108468626D01*
X186175178Y-108845220D01*
X186174822Y-109252991D01*
X186325000Y-109616447D01*
X186325000Y-109974900D01*
X186084801Y-109875161D01*
X186035778Y-109875118D01*
X185222209Y-109061549D01*
X185274839Y-108934801D01*
X185275160Y-108566813D01*
X185134634Y-108226714D01*
X184874655Y-107966280D01*
X184534801Y-107825161D01*
X184166813Y-107824840D01*
X183826714Y-107965366D01*
X183566280Y-108225345D01*
X183425161Y-108565199D01*
X183424840Y-108933187D01*
X175995000Y-108933187D01*
X175995000Y-100750000D01*
X178112756Y-100750000D01*
X178112756Y-102450000D01*
X178156337Y-102681611D01*
X178293219Y-102894332D01*
X178502076Y-103037038D01*
X178750000Y-103087244D01*
X180450000Y-103087244D01*
X180681611Y-103043663D01*
X180894332Y-102906781D01*
X181037038Y-102697924D01*
X181055035Y-102609050D01*
X181097017Y-102671880D01*
X181575542Y-102991619D01*
X182140000Y-103103897D01*
X182704458Y-102991619D01*
X183182983Y-102671880D01*
X183410000Y-102332124D01*
X183637017Y-102671880D01*
X184115542Y-102991619D01*
X184680000Y-103103897D01*
X185244458Y-102991619D01*
X185722983Y-102671880D01*
X185950000Y-102332124D01*
X186177017Y-102671880D01*
X186655542Y-102991619D01*
X187220000Y-103103897D01*
X187784458Y-102991619D01*
X188262983Y-102671880D01*
X188490000Y-102332124D01*
X188717017Y-102671880D01*
X189195542Y-102991619D01*
X189760000Y-103103897D01*
X190324458Y-102991619D01*
X190802983Y-102671880D01*
X191030000Y-102332124D01*
X191257017Y-102671880D01*
X191735542Y-102991619D01*
X192300000Y-103103897D01*
X192864458Y-102991619D01*
X193143521Y-102805156D01*
X193025161Y-103090199D01*
X193025118Y-103139222D01*
X192494670Y-103669670D01*
X192332090Y-103912987D01*
X192275000Y-104200000D01*
X192275000Y-106289340D01*
X191414458Y-107149882D01*
X191366813Y-107149840D01*
X191026714Y-107290366D01*
X190766280Y-107550345D01*
X190625161Y-107890199D01*
X190624840Y-108258187D01*
X190765366Y-108598286D01*
X191025345Y-108858720D01*
X191365199Y-108999839D01*
X191733187Y-109000160D01*
X192073286Y-108859634D01*
X192333720Y-108599655D01*
X192474839Y-108259801D01*
X192474882Y-108210778D01*
X193555330Y-107130330D01*
X193603534Y-107058187D01*
X197699840Y-107058187D01*
X197840366Y-107398286D01*
X198100345Y-107658720D01*
X198440199Y-107799839D01*
X198808187Y-107800160D01*
X199148286Y-107659634D01*
X199408720Y-107399655D01*
X199522766Y-107125000D01*
X201791684Y-107125000D01*
X201825345Y-107158720D01*
X202165199Y-107299839D01*
X202533187Y-107300160D01*
X202873286Y-107159634D01*
X203133720Y-106899655D01*
X203274839Y-106559801D01*
X203275160Y-106191813D01*
X203134634Y-105851714D01*
X202874655Y-105591280D01*
X202534801Y-105450161D01*
X202166813Y-105449840D01*
X201826714Y-105590366D01*
X201792019Y-105625000D01*
X199125000Y-105625000D01*
X198837987Y-105682090D01*
X198594670Y-105844670D01*
X198489458Y-105949882D01*
X198441813Y-105949840D01*
X198101714Y-106090366D01*
X197841280Y-106350345D01*
X197700161Y-106690199D01*
X197699840Y-107058187D01*
X193603534Y-107058187D01*
X193717910Y-106887013D01*
X193775000Y-106600000D01*
X193775000Y-104510660D01*
X194085542Y-104200118D01*
X194133187Y-104200160D01*
X194473286Y-104059634D01*
X194733720Y-103799655D01*
X194874839Y-103459801D01*
X194875156Y-103096904D01*
X195404458Y-102991619D01*
X195882983Y-102671880D01*
X196110000Y-102332124D01*
X196337017Y-102671880D01*
X196815542Y-102991619D01*
X197380000Y-103103897D01*
X197944458Y-102991619D01*
X198422983Y-102671880D01*
X198650000Y-102332124D01*
X198877017Y-102671880D01*
X199355542Y-102991619D01*
X199920000Y-103103897D01*
X200484458Y-102991619D01*
X200962983Y-102671880D01*
X201190000Y-102332124D01*
X201417017Y-102671880D01*
X201895542Y-102991619D01*
X202460000Y-103103897D01*
X203024458Y-102991619D01*
X203502983Y-102671880D01*
X203730000Y-102332124D01*
X203957017Y-102671880D01*
X204435542Y-102991619D01*
X205000000Y-103103897D01*
X205564458Y-102991619D01*
X206042983Y-102671880D01*
X206270000Y-102332124D01*
X206375029Y-102489311D01*
X206039458Y-102824882D01*
X205991813Y-102824840D01*
X205651714Y-102965366D01*
X205391280Y-103225345D01*
X205250161Y-103565199D01*
X205249840Y-103933187D01*
X205390366Y-104273286D01*
X205650345Y-104533720D01*
X205990199Y-104674839D01*
X206358187Y-104675160D01*
X206698286Y-104534634D01*
X206958720Y-104274655D01*
X207099839Y-103934801D01*
X207099882Y-103885778D01*
X207966624Y-103019036D01*
X208104458Y-102991619D01*
X208582983Y-102671880D01*
X208810000Y-102332124D01*
X209037017Y-102671880D01*
X209515542Y-102991619D01*
X210080000Y-103103897D01*
X210644458Y-102991619D01*
X211122983Y-102671880D01*
X211350000Y-102332124D01*
X211577017Y-102671880D01*
X212055542Y-102991619D01*
X212620000Y-103103897D01*
X213184458Y-102991619D01*
X213662983Y-102671880D01*
X213890000Y-102332124D01*
X214117017Y-102671880D01*
X214595542Y-102991619D01*
X215160000Y-103103897D01*
X215724458Y-102991619D01*
X216202983Y-102671880D01*
X216430000Y-102332124D01*
X216657017Y-102671880D01*
X217135542Y-102991619D01*
X217700000Y-103103897D01*
X218264458Y-102991619D01*
X218742983Y-102671880D01*
X218970000Y-102332124D01*
X219197017Y-102671880D01*
X219675542Y-102991619D01*
X220240000Y-103103897D01*
X220804458Y-102991619D01*
X221282983Y-102671880D01*
X221510000Y-102332124D01*
X221737017Y-102671880D01*
X222215542Y-102991619D01*
X222780000Y-103103897D01*
X223344458Y-102991619D01*
X223822983Y-102671880D01*
X224050000Y-102332124D01*
X224277017Y-102671880D01*
X224755542Y-102991619D01*
X225320000Y-103103897D01*
X225884458Y-102991619D01*
X226362983Y-102671880D01*
X226590000Y-102332124D01*
X226817017Y-102671880D01*
X227110000Y-102867644D01*
X227110000Y-103185000D01*
X227167090Y-103472013D01*
X227329670Y-103715330D01*
X227449882Y-103835542D01*
X227449840Y-103883187D01*
X227590366Y-104223286D01*
X227850345Y-104483720D01*
X228190199Y-104624839D01*
X228558187Y-104625160D01*
X228898286Y-104484634D01*
X229158720Y-104224655D01*
X229299839Y-103884801D01*
X229300160Y-103516813D01*
X229159634Y-103176714D01*
X228899655Y-102916280D01*
X228676124Y-102823462D01*
X228902983Y-102671880D01*
X229130000Y-102332124D01*
X229357017Y-102671880D01*
X229835542Y-102991619D01*
X230400000Y-103103897D01*
X230964458Y-102991619D01*
X231442983Y-102671880D01*
X231670000Y-102332124D01*
X231897017Y-102671880D01*
X232375542Y-102991619D01*
X232940000Y-103103897D01*
X233504458Y-102991619D01*
X233982983Y-102671880D01*
X234210000Y-102332124D01*
X234437017Y-102671880D01*
X234915542Y-102991619D01*
X235480000Y-103103897D01*
X236044458Y-102991619D01*
X236522983Y-102671880D01*
X236750000Y-102332124D01*
X236977017Y-102671880D01*
X237455542Y-102991619D01*
X238020000Y-103103897D01*
X238584458Y-102991619D01*
X239062983Y-102671880D01*
X239290000Y-102332124D01*
X239517017Y-102671880D01*
X239995542Y-102991619D01*
X240560000Y-103103897D01*
X241124458Y-102991619D01*
X241602983Y-102671880D01*
X241830000Y-102332124D01*
X242057017Y-102671880D01*
X242535542Y-102991619D01*
X243100000Y-103103897D01*
X243664458Y-102991619D01*
X244142983Y-102671880D01*
X244370000Y-102332124D01*
X244597017Y-102671880D01*
X245075542Y-102991619D01*
X245640000Y-103103897D01*
X246204458Y-102991619D01*
X246682983Y-102671880D01*
X246910000Y-102332124D01*
X247137017Y-102671880D01*
X247430000Y-102867644D01*
X247430000Y-104680000D01*
X247487090Y-104967013D01*
X247649670Y-105210330D01*
X248374882Y-105935542D01*
X248374840Y-105983187D01*
X248515366Y-106323286D01*
X248775345Y-106583720D01*
X249115199Y-106724839D01*
X249483187Y-106725160D01*
X249823286Y-106584634D01*
X250083720Y-106324655D01*
X250224839Y-105984801D01*
X250225160Y-105616813D01*
X250084634Y-105276714D01*
X249824655Y-105016280D01*
X249484801Y-104875161D01*
X249435778Y-104875118D01*
X248930000Y-104369340D01*
X248930000Y-102867644D01*
X249222983Y-102671880D01*
X249450000Y-102332124D01*
X249677017Y-102671880D01*
X250155542Y-102991619D01*
X250720000Y-103103897D01*
X250801693Y-103087647D01*
X250464458Y-103424882D01*
X250416813Y-103424840D01*
X250076714Y-103565366D01*
X249816280Y-103825345D01*
X249675161Y-104165199D01*
X249674840Y-104533187D01*
X249815366Y-104873286D01*
X250075345Y-105133720D01*
X250415199Y-105274839D01*
X250783187Y-105275160D01*
X251123286Y-105134634D01*
X251325102Y-104933171D01*
X251324840Y-105233187D01*
X251366485Y-105333975D01*
X251206554Y-105493626D01*
X251050178Y-105870220D01*
X251049822Y-106277991D01*
X251205541Y-106654857D01*
X251493626Y-106943446D01*
X251870220Y-107099822D01*
X252277991Y-107100178D01*
X252654857Y-106944459D01*
X252674350Y-106925000D01*
X255762564Y-106925000D01*
X256475000Y-107637437D01*
X256475000Y-113437563D01*
X254871009Y-115041555D01*
X254595143Y-115155541D01*
X254306554Y-115443626D01*
X254150178Y-115820220D01*
X254149822Y-116227991D01*
X254305541Y-116604857D01*
X254593626Y-116893446D01*
X254970220Y-117049822D01*
X255377991Y-117050178D01*
X255754857Y-116894459D01*
X256043446Y-116606374D01*
X256199822Y-116229780D01*
X256199859Y-116187577D01*
X257968718Y-114418719D01*
X258158395Y-114134849D01*
X258183807Y-114007090D01*
X258225000Y-113800000D01*
X258225000Y-107275000D01*
X258158395Y-106940152D01*
X258130421Y-106898286D01*
X257968719Y-106656282D01*
X256743718Y-105431282D01*
X256459848Y-105241605D01*
X256125000Y-105175000D01*
X253185660Y-105175000D01*
X253710660Y-104650000D01*
X254341684Y-104650000D01*
X254375345Y-104683720D01*
X254715199Y-104824839D01*
X255083187Y-104825160D01*
X255423286Y-104684634D01*
X255683720Y-104424655D01*
X255824839Y-104084801D01*
X255825160Y-103716813D01*
X255684634Y-103376714D01*
X255424655Y-103116280D01*
X255084801Y-102975161D01*
X254716813Y-102974840D01*
X254376714Y-103115366D01*
X254342019Y-103150000D01*
X253400000Y-103150000D01*
X253112987Y-103207090D01*
X252869670Y-103369670D01*
X252114458Y-104124882D01*
X252066813Y-104124840D01*
X251758377Y-104252283D01*
X252965369Y-103045291D01*
X253260000Y-103103897D01*
X253824458Y-102991619D01*
X254302983Y-102671880D01*
X254530000Y-102332124D01*
X254757017Y-102671880D01*
X255235542Y-102991619D01*
X255800000Y-103103897D01*
X256364458Y-102991619D01*
X256842983Y-102671880D01*
X257070000Y-102332124D01*
X257297017Y-102671880D01*
X257775542Y-102991619D01*
X258340000Y-103103897D01*
X258904458Y-102991619D01*
X259382983Y-102671880D01*
X259702722Y-102193355D01*
X259815000Y-101628897D01*
X259815000Y-101571103D01*
X259702722Y-101006645D01*
X259382983Y-100528120D01*
X259086474Y-100330000D01*
X259382983Y-100131880D01*
X259702722Y-99653355D01*
X259815000Y-99088897D01*
X259815000Y-99031103D01*
X259702722Y-98466645D01*
X259382983Y-97988120D01*
X258904458Y-97668381D01*
X258340000Y-97556103D01*
X257775542Y-97668381D01*
X257376517Y-97935000D01*
X256763483Y-97935000D01*
X256364458Y-97668381D01*
X255800000Y-97556103D01*
X255235542Y-97668381D01*
X254836517Y-97935000D01*
X254223483Y-97935000D01*
X253824458Y-97668381D01*
X253260000Y-97556103D01*
X252695542Y-97668381D01*
X252296517Y-97935000D01*
X251683483Y-97935000D01*
X251284458Y-97668381D01*
X250720000Y-97556103D01*
X250155542Y-97668381D01*
X249756517Y-97935000D01*
X249143483Y-97935000D01*
X248744458Y-97668381D01*
X248180000Y-97556103D01*
X247615542Y-97668381D01*
X247216517Y-97935000D01*
X246603483Y-97935000D01*
X246204458Y-97668381D01*
X245640000Y-97556103D01*
X245075542Y-97668381D01*
X244676517Y-97935000D01*
X244063483Y-97935000D01*
X243664458Y-97668381D01*
X243100000Y-97556103D01*
X242535542Y-97668381D01*
X242136517Y-97935000D01*
X241523483Y-97935000D01*
X241124458Y-97668381D01*
X240560000Y-97556103D01*
X239995542Y-97668381D01*
X239596517Y-97935000D01*
X238983483Y-97935000D01*
X238584458Y-97668381D01*
X238020000Y-97556103D01*
X237455542Y-97668381D01*
X237056517Y-97935000D01*
X236443483Y-97935000D01*
X236044458Y-97668381D01*
X235480000Y-97556103D01*
X234915542Y-97668381D01*
X234516517Y-97935000D01*
X233903483Y-97935000D01*
X233504458Y-97668381D01*
X232940000Y-97556103D01*
X232375542Y-97668381D01*
X231976517Y-97935000D01*
X231363483Y-97935000D01*
X230964458Y-97668381D01*
X230400000Y-97556103D01*
X229835542Y-97668381D01*
X229436517Y-97935000D01*
X228823483Y-97935000D01*
X228424458Y-97668381D01*
X227860000Y-97556103D01*
X227295542Y-97668381D01*
X226896517Y-97935000D01*
X226283483Y-97935000D01*
X225884458Y-97668381D01*
X225320000Y-97556103D01*
X224755542Y-97668381D01*
X224356517Y-97935000D01*
X223743483Y-97935000D01*
X223344458Y-97668381D01*
X222780000Y-97556103D01*
X222215542Y-97668381D01*
X221816517Y-97935000D01*
X221203483Y-97935000D01*
X220804458Y-97668381D01*
X220240000Y-97556103D01*
X219675542Y-97668381D01*
X219276517Y-97935000D01*
X218663483Y-97935000D01*
X218264458Y-97668381D01*
X217700000Y-97556103D01*
X217135542Y-97668381D01*
X216736517Y-97935000D01*
X216123483Y-97935000D01*
X215724458Y-97668381D01*
X215160000Y-97556103D01*
X214595542Y-97668381D01*
X214196517Y-97935000D01*
X213583483Y-97935000D01*
X213184458Y-97668381D01*
X212620000Y-97556103D01*
X212055542Y-97668381D01*
X211656517Y-97935000D01*
X211043483Y-97935000D01*
X210644458Y-97668381D01*
X210080000Y-97556103D01*
X209515542Y-97668381D01*
X209116517Y-97935000D01*
X208503483Y-97935000D01*
X208104458Y-97668381D01*
X207540000Y-97556103D01*
X206975542Y-97668381D01*
X206576517Y-97935000D01*
X205963483Y-97935000D01*
X205564458Y-97668381D01*
X205000000Y-97556103D01*
X204435542Y-97668381D01*
X204036517Y-97935000D01*
X203423483Y-97935000D01*
X203024458Y-97668381D01*
X202460000Y-97556103D01*
X201895542Y-97668381D01*
X201496517Y-97935000D01*
X200883483Y-97935000D01*
X200484458Y-97668381D01*
X199920000Y-97556103D01*
X199355542Y-97668381D01*
X198956517Y-97935000D01*
X198343483Y-97935000D01*
X197944458Y-97668381D01*
X197380000Y-97556103D01*
X196815542Y-97668381D01*
X196416517Y-97935000D01*
X195803483Y-97935000D01*
X195404458Y-97668381D01*
X194840000Y-97556103D01*
X194275542Y-97668381D01*
X193876517Y-97935000D01*
X193263483Y-97935000D01*
X192864458Y-97668381D01*
X192300000Y-97556103D01*
X191735542Y-97668381D01*
X191336517Y-97935000D01*
X190723483Y-97935000D01*
X190324458Y-97668381D01*
X189760000Y-97556103D01*
X189195542Y-97668381D01*
X188796517Y-97935000D01*
X188183483Y-97935000D01*
X187784458Y-97668381D01*
X187220000Y-97556103D01*
X186655542Y-97668381D01*
X186256517Y-97935000D01*
X185643483Y-97935000D01*
X185244458Y-97668381D01*
X184680000Y-97556103D01*
X184115542Y-97668381D01*
X183716517Y-97935000D01*
X183103483Y-97935000D01*
X182704458Y-97668381D01*
X182140000Y-97556103D01*
X181575542Y-97668381D01*
X181176517Y-97935000D01*
X180563483Y-97935000D01*
X180164458Y-97668381D01*
X179600000Y-97556103D01*
X179035542Y-97668381D01*
X178557017Y-97988120D01*
X178237278Y-98466645D01*
X178125000Y-99031103D01*
X178125000Y-99088897D01*
X178237278Y-99653355D01*
X178557017Y-100131880D01*
X178577089Y-100145292D01*
X178518389Y-100156337D01*
X178305668Y-100293219D01*
X178162962Y-100502076D01*
X178112756Y-100750000D01*
X175995000Y-100750000D01*
X175995000Y-95685000D01*
X260245000Y-95685000D01*
X260245000Y-97450000D01*
M02*
