M48
;DRILL file {KiCad 4.0.4-stable} date 11/21/16 16:02:32
;FORMAT={-:-/ absolute / metric / decimal}
FMAT,2
METRIC,TZ
T1C0.400
T2C0.600
T3C0.800
T4C0.800
T5C1.001
T6C1.016
%
G90
G05
M71
T1
X176.78Y-111.56
X176.88Y-98.08
X177.04Y-124.13
X177.13Y-114.95
X177.89Y-140.41
X177.92Y-133.28
X177.93Y-117.58
X178.5Y-96.53
X179.92Y-126.51
X181.1Y-134.06
X181.36Y-140.68
X182.09Y-130.11
X183.5Y-96.53
X183.57Y-113.62
X183.57Y-118.83
X183.73Y-124.26
X184.35Y-140.94
X188.13Y-143.22
X188.5Y-96.53
X188.9Y-138.54
X188.97Y-130.44
X189.2Y-127.33
X189.5Y-124.09
X189.73Y-121.08
X191.78Y-138.88
X192.07Y-123.99
X192.26Y-126.92
X192.56Y-110.98
X193.5Y-96.53
X195.47Y-112.6
X195.8Y-111.375
X196.38Y-124.29
X197.14Y-141.54
X198.15Y-112.075
X198.32Y-137.84
X198.5Y-96.53
X199.87Y-115.09
X199.96Y-127.26
X199.96Y-130.31
X200.425Y-110.575
X200.975Y-111.25
X201.14Y-103.22
X201.5Y-121.59
X202.3Y-114.45
X203.15Y-140.73
X203.5Y-96.53
X204.19Y-124.2
X204.21Y-130.3
X206.075Y-110.55
X206.625Y-111.225
X206.7Y-143.36
X206.725Y-114.75
X206.97Y-139.
X207.59Y-135.39
X207.95Y-127.19
X207.98Y-133.43
X208.025Y-122.
X208.45Y-112.12
X208.5Y-96.53
X208.54Y-125.83
X209.33Y-143.22
X209.36Y-130.71
X210.825Y-114.15
X211.59Y-112.
X211.88Y-130.71
X212.2Y-133.03
X213.4Y-111.425
X213.5Y-96.53
X213.75Y-110.6
X213.975Y-114.025
X214.33Y-143.22
X214.45Y-129.85
X214.5Y-125.85
X214.5Y-126.8
X214.51Y-136.45
X214.9Y-122.2
X215.1Y-129.1
X215.74Y-125.09
X216.4Y-112.875
X216.51Y-131.98
X216.63Y-141.26
X216.7Y-129.65
X216.925Y-128.2
X217.075Y-114.85
X217.075Y-117.975
X217.1Y-110.925
X217.575Y-129.7
X217.675Y-127.475
X218.05Y-114.27
X218.11Y-138.67
X218.325Y-111.675
X218.5Y-96.53
X218.71Y-122.86
X218.85Y-129.725
X219.Y-113.
X219.33Y-143.22
X219.55Y-136.41
X219.6Y-114.575
X219.6Y-117.9
X220.22Y-132.44
X220.8Y-113.8
X221.175Y-112.5
X221.77Y-126.81
X222.69Y-108.42
X222.74Y-127.15
X223.475Y-131.025
X223.5Y-96.53
X223.57Y-114.22
X223.65Y-110.875
X223.91Y-143.33
X224.1Y-111.775
X224.22Y-127.88
X225.075Y-112.625
X225.52Y-122.28
X225.95Y-130.7
X227.44Y-140.78
X228.225Y-110.575
X228.38Y-136.98
X228.5Y-96.53
X229.3Y-111.35
X229.33Y-143.22
X229.75Y-118.075
X229.91Y-122.93
X231.03Y-112.27
X231.77Y-128.18
X232.27Y-136.95
X233.5Y-96.53
X234.2Y-114.075
X234.33Y-143.22
X234.475Y-111.425
X234.66Y-121.92
X234.83Y-136.92
X235.25Y-114.5
X235.4Y-110.575
X235.89Y-127.05
X236.65Y-114.475
X237.275Y-113.25
X237.35Y-136.93
X237.46Y-128.91
X237.77Y-123.96
X238.01Y-127.06
X238.5Y-96.53
X238.775Y-111.825
X239.07Y-124.04
X239.15Y-127.1
X239.33Y-143.22
X239.5Y-111.
X239.81Y-114.5
X239.83Y-136.95
X240.1Y-123.85
X240.29Y-127.09
X240.76Y-132.24
X241.1Y-111.725
X241.44Y-123.87
X241.44Y-127.12
X242.29Y-112.51
X242.44Y-121.76
X242.54Y-136.89
X242.62Y-123.9
X242.62Y-127.14
X243.11Y-132.24
X243.5Y-96.53
X243.625Y-112.475
X244.33Y-143.22
X244.825Y-140.625
X244.96Y-122.29
X244.98Y-109.96
X245.15Y-111.075
X245.15Y-113.55
X245.15Y-114.5
X246.05Y-126.3
X246.9Y-100.525
X247.525Y-137.025
X248.5Y-96.53
X248.57Y-129.15
X248.675Y-138.075
X248.7Y-104.75
X249.19Y-123.73
X249.325Y-126.3
X249.33Y-143.22
X249.52Y-113.04
X249.6Y-104.5
X249.625Y-118.175
X249.875Y-103.7
X250.2Y-108.98
X250.225Y-142.5
X250.25Y-121.16
X250.68Y-136.15
X250.7Y-103.275
X251.11Y-118.32
X251.51Y-125.43
X251.6Y-103.475
X252.08Y-128.46
X252.39Y-123.32
X252.48Y-131.03
X252.525Y-104.775
X252.55Y-138.19
X252.6Y-103.75
X252.825Y-105.575
X253.3Y-121.825
X253.5Y-96.53
X253.5Y-106.075
X253.525Y-115.65
X254.33Y-143.22
X258.5Y-96.53
X258.93Y-143.18
X259.Y-131.32
X259.12Y-137.78
X259.51Y-124.15
X259.54Y-119.11
X259.75Y-111.47
X259.83Y-100.32
T2
X177.575Y-106.025
X185.15Y-135.
X187.06Y-135.7
X188.33Y-135.7
X189.075Y-111.4
X189.6Y-135.7
X190.325Y-112.65
X190.825Y-119.15
X191.Y-128.5
X192.66Y-135.7
X193.035Y-140.525
X193.93Y-135.7
X194.305Y-140.525
X195.2Y-135.7
X195.575Y-140.525
X196.5Y-130.75
X196.5Y-134.
X197.175Y-113.75
X198.635Y-140.525
X199.575Y-112.975
X199.905Y-140.525
X200.5Y-137.75
X200.875Y-108.725
X201.175Y-140.525
X201.225Y-114.6
X201.25Y-134.
X202.225Y-139.35
X204.775Y-113.225
X205.275Y-139.075
X212.425Y-131.75
X213.45Y-123.6
X215.475Y-127.85
X217.05Y-133.575
X217.1Y-136.45
X219.85Y-124.45
X223.4Y-124.475
X224.7Y-121.3
X251.2Y-107.
T3
X180.3Y-108.68
X180.3Y-116.3
X182.84Y-108.68
X182.84Y-116.3
X185.1Y-111.4
X185.38Y-108.68
X185.38Y-116.3
X187.92Y-108.68
X187.92Y-116.3
X190.46Y-108.68
X190.46Y-116.3
X193.Y-108.68
X193.Y-116.3
X195.54Y-108.68
X195.54Y-116.3
X198.08Y-108.68
X198.08Y-116.3
X203.1Y-108.68
X203.1Y-116.3
X203.125Y-136.275
X205.125Y-136.275
X205.64Y-108.68
X205.64Y-116.3
X207.025Y-113.225
X208.18Y-108.68
X208.18Y-116.3
X210.7Y-119.66
X210.7Y-125.925
X210.7Y-134.9
X210.72Y-108.68
X210.72Y-116.3
X213.24Y-119.66
X213.24Y-134.9
X213.26Y-108.68
X213.26Y-116.3
X215.78Y-119.66
X215.78Y-134.9
X215.8Y-108.68
X215.8Y-116.3
X218.32Y-119.66
X218.32Y-134.9
X218.34Y-108.68
X218.34Y-116.3
X220.86Y-119.66
X220.86Y-134.9
X220.88Y-108.68
X220.88Y-116.3
X223.4Y-119.66
X223.4Y-134.9
X225.8Y-108.68
X225.8Y-116.3
X225.94Y-119.66
X225.94Y-134.9
X228.34Y-108.68
X228.34Y-116.3
X228.48Y-119.66
X228.48Y-134.9
X229.625Y-113.275
X230.88Y-108.68
X230.88Y-116.3
X231.02Y-119.66
X231.02Y-134.9
X233.42Y-108.68
X233.42Y-116.3
X233.56Y-119.66
X233.56Y-134.9
X235.96Y-108.68
X235.96Y-116.3
X236.1Y-119.66
X236.1Y-134.9
X238.5Y-108.68
X238.5Y-116.3
X238.64Y-119.66
X238.64Y-134.9
X241.04Y-108.68
X241.04Y-116.3
X241.18Y-119.66
X241.18Y-134.9
X243.58Y-108.68
X243.58Y-116.3
X243.72Y-119.66
X243.72Y-134.9
X247.6Y-109.8
X247.6Y-112.34
X247.6Y-114.88
X247.6Y-117.42
X247.6Y-119.96
X247.6Y-122.5
X247.6Y-125.04
X247.6Y-127.58
X248.825Y-131.625
X248.825Y-133.625
X250.7Y-114.675
X255.22Y-109.8
X255.22Y-112.34
X255.22Y-114.88
X255.22Y-117.42
X255.22Y-119.96
X255.22Y-122.5
X255.22Y-125.04
X255.22Y-127.58
T4
X185.1Y-113.9
X209.525Y-113.225
X210.7Y-128.425
X232.125Y-113.275
X250.7Y-112.175
T5
X186.8Y-119.77
X186.8Y-122.77
X186.8Y-125.77
X186.8Y-131.77
X186.82Y-128.77
X194.42Y-119.77
X194.42Y-122.77
X194.42Y-125.77
X194.42Y-131.77
X194.44Y-128.77
X198.4Y-119.77
X198.4Y-122.77
X198.4Y-125.77
X198.4Y-128.77
X198.4Y-131.77
X206.02Y-119.77
X206.02Y-122.77
X206.02Y-125.77
X206.02Y-128.77
X206.02Y-131.77
T6
X179.6Y-99.06
X179.6Y-101.6
X179.64Y-105.1
X182.14Y-99.06
X182.14Y-101.6
X182.18Y-105.1
X184.68Y-99.06
X184.68Y-101.6
X184.72Y-105.1
X187.22Y-99.06
X187.22Y-101.6
X187.26Y-105.1
X187.33Y-140.67
X189.76Y-99.06
X189.76Y-101.6
X189.8Y-105.1
X189.87Y-140.67
X192.3Y-99.06
X192.3Y-101.6
X192.34Y-105.1
X194.84Y-99.06
X194.84Y-101.6
X194.88Y-105.1
X197.38Y-99.06
X197.38Y-101.6
X197.42Y-105.1
X198.875Y-135.475
X199.92Y-99.06
X199.92Y-101.6
X199.96Y-105.1
X202.46Y-99.06
X202.46Y-101.6
X202.5Y-105.1
X205.Y-99.06
X205.Y-101.6
X206.39Y-105.08
X207.54Y-99.06
X207.54Y-101.6
X208.93Y-105.08
X209.32Y-138.2
X209.32Y-140.74
X210.08Y-99.06
X210.08Y-101.6
X211.47Y-105.08
X211.86Y-138.2
X211.86Y-140.74
X212.62Y-99.06
X212.62Y-101.6
X214.01Y-105.08
X214.4Y-138.2
X214.4Y-140.74
X215.16Y-99.06
X215.16Y-101.6
X216.55Y-105.08
X217.7Y-99.06
X217.7Y-101.6
X219.09Y-105.08
X219.72Y-138.2
X219.72Y-140.74
X220.24Y-99.06
X220.24Y-101.6
X221.63Y-105.08
X222.26Y-138.2
X222.26Y-140.74
X222.78Y-99.06
X222.78Y-101.6
X224.17Y-105.08
X224.8Y-138.2
X224.8Y-140.74
X225.32Y-99.06
X225.32Y-101.6
X226.71Y-105.08
X227.86Y-99.06
X227.86Y-101.6
X229.25Y-105.08
X230.025Y-140.675
X230.4Y-99.06
X230.4Y-101.6
X232.565Y-140.675
X232.94Y-99.06
X232.94Y-101.6
X233.Y-105.08
X235.105Y-140.675
X235.48Y-99.06
X235.48Y-101.6
X235.54Y-105.08
X237.645Y-140.675
X238.02Y-99.06
X238.02Y-101.6
X238.08Y-105.08
X240.185Y-140.675
X240.56Y-99.06
X240.56Y-101.6
X240.62Y-105.08
X242.725Y-140.675
X243.1Y-99.06
X243.1Y-101.6
X243.16Y-105.08
X245.64Y-99.06
X245.64Y-101.6
X245.7Y-105.08
X247.615Y-140.675
X248.18Y-99.06
X248.18Y-101.6
X250.155Y-140.675
X250.72Y-99.06
X250.72Y-101.6
X252.695Y-140.675
X253.26Y-99.06
X253.26Y-101.6
X255.235Y-140.675
X255.8Y-99.06
X255.8Y-101.6
X257.775Y-140.675
X258.34Y-99.06
X258.34Y-101.6
X258.4Y-105.14
X258.4Y-107.68
X258.4Y-110.22
X258.4Y-112.76
X258.4Y-115.3
X258.4Y-117.84
X258.4Y-120.38
X258.4Y-122.92
X258.4Y-125.46
X258.4Y-128.
T0
M30
