G04 #@! TF.FileFunction,Soldermask,Bot*
%FSLAX46Y46*%
G04 Gerber Fmt 4.6, Leading zero omitted, Abs format (unit mm)*
G04 Created by KiCad (PCBNEW 4.0.4-stable) date 11/28/16 12:21:10*
%MOMM*%
%LPD*%
G01*
G04 APERTURE LIST*
%ADD10C,0.100000*%
%ADD11C,2.398980*%
%ADD12R,2.432000X2.432000*%
%ADD13O,2.432000X2.432000*%
%ADD14R,2.400000X2.400000*%
%ADD15C,2.400000*%
%ADD16C,1.924000*%
%ADD17R,1.924000X1.924000*%
%ADD18O,1.901140X1.299160*%
%ADD19O,2.700000X2.000000*%
G04 APERTURE END LIST*
D10*
D11*
X198900000Y-118630000D03*
X198900000Y-111010000D03*
D12*
X206600000Y-106980000D03*
D13*
X209140000Y-106980000D03*
D14*
X209700000Y-110930000D03*
D15*
X207160000Y-110930000D03*
D16*
X199200000Y-104130000D03*
X201740000Y-104130000D03*
D17*
X196660000Y-104130000D03*
D16*
X188500000Y-104130000D03*
X191040000Y-104130000D03*
D17*
X185960000Y-104130000D03*
D18*
X207300000Y-102100000D03*
X207300000Y-103370000D03*
X207300000Y-100830000D03*
D11*
X204300000Y-118630000D03*
X204300000Y-111010000D03*
X201600000Y-118630000D03*
X201600000Y-111010000D03*
X219550000Y-118930000D03*
X219550000Y-111310000D03*
X196200000Y-111030000D03*
X196200000Y-118650000D03*
D19*
X216750000Y-117930000D03*
X216750000Y-115390000D03*
X209130000Y-115390000D03*
X209130000Y-117930000D03*
X216750000Y-139800000D03*
X216750000Y-137260000D03*
X209130000Y-137260000D03*
X209130000Y-139800000D03*
D11*
X196200000Y-132900000D03*
X196200000Y-140520000D03*
X219550000Y-140800000D03*
X219550000Y-133180000D03*
X201600000Y-140500000D03*
X201600000Y-132880000D03*
X204300000Y-140500000D03*
X204300000Y-132880000D03*
D18*
X207300000Y-123970000D03*
X207300000Y-125240000D03*
X207300000Y-122700000D03*
D16*
X188500000Y-126000000D03*
X191040000Y-126000000D03*
D17*
X185960000Y-126000000D03*
D16*
X199200000Y-126000000D03*
X201740000Y-126000000D03*
D17*
X196660000Y-126000000D03*
D14*
X209700000Y-132800000D03*
D15*
X207160000Y-132800000D03*
D12*
X206600000Y-128850000D03*
D13*
X209140000Y-128850000D03*
D11*
X198900000Y-140500000D03*
X198900000Y-132880000D03*
M02*
