G04 #@! TF.FileFunction,Legend,Top*
%FSLAX46Y46*%
G04 Gerber Fmt 4.6, Leading zero omitted, Abs format (unit mm)*
G04 Created by KiCad (PCBNEW 4.0.4-stable) date 11/22/16 15:31:00*
%MOMM*%
%LPD*%
G01*
G04 APERTURE LIST*
%ADD10C,0.100000*%
%ADD11C,0.200000*%
%ADD12C,0.300000*%
%ADD13C,0.350000*%
%ADD14C,0.500000*%
%ADD15C,0.002540*%
%ADD16C,0.150000*%
G04 APERTURE END LIST*
D10*
D11*
X222282143Y-120395714D02*
X221382143Y-120395714D01*
X221382143Y-120052857D01*
X221425000Y-119967143D01*
X221467857Y-119924286D01*
X221553571Y-119881429D01*
X221682143Y-119881429D01*
X221767857Y-119924286D01*
X221810714Y-119967143D01*
X221853571Y-120052857D01*
X221853571Y-120395714D01*
X222196429Y-118981429D02*
X222239286Y-119024286D01*
X222282143Y-119152857D01*
X222282143Y-119238571D01*
X222239286Y-119367143D01*
X222153571Y-119452857D01*
X222067857Y-119495714D01*
X221896429Y-119538571D01*
X221767857Y-119538571D01*
X221596429Y-119495714D01*
X221510714Y-119452857D01*
X221425000Y-119367143D01*
X221382143Y-119238571D01*
X221382143Y-119152857D01*
X221425000Y-119024286D01*
X221467857Y-118981429D01*
X221810714Y-118295714D02*
X221853571Y-118167143D01*
X221896429Y-118124286D01*
X221982143Y-118081429D01*
X222110714Y-118081429D01*
X222196429Y-118124286D01*
X222239286Y-118167143D01*
X222282143Y-118252857D01*
X222282143Y-118595714D01*
X221382143Y-118595714D01*
X221382143Y-118295714D01*
X221425000Y-118210000D01*
X221467857Y-118167143D01*
X221553571Y-118124286D01*
X221639286Y-118124286D01*
X221725000Y-118167143D01*
X221767857Y-118210000D01*
X221810714Y-118295714D01*
X221810714Y-118595714D01*
X222282143Y-116495715D02*
X221853571Y-116795715D01*
X222282143Y-117010000D02*
X221382143Y-117010000D01*
X221382143Y-116667143D01*
X221425000Y-116581429D01*
X221467857Y-116538572D01*
X221553571Y-116495715D01*
X221682143Y-116495715D01*
X221767857Y-116538572D01*
X221810714Y-116581429D01*
X221853571Y-116667143D01*
X221853571Y-117010000D01*
X222196429Y-115595715D02*
X222239286Y-115638572D01*
X222282143Y-115767143D01*
X222282143Y-115852857D01*
X222239286Y-115981429D01*
X222153571Y-116067143D01*
X222067857Y-116110000D01*
X221896429Y-116152857D01*
X221767857Y-116152857D01*
X221596429Y-116110000D01*
X221510714Y-116067143D01*
X221425000Y-115981429D01*
X221382143Y-115852857D01*
X221382143Y-115767143D01*
X221425000Y-115638572D01*
X221467857Y-115595715D01*
X222282143Y-114738572D02*
X222282143Y-115252857D01*
X222282143Y-114995715D02*
X221382143Y-114995715D01*
X221510714Y-115081429D01*
X221596429Y-115167143D01*
X221639286Y-115252857D01*
X224175000Y-120138571D02*
X224132143Y-120181429D01*
X224003571Y-120267143D01*
X223917857Y-120310000D01*
X223789286Y-120352857D01*
X223575000Y-120395714D01*
X223403571Y-120395714D01*
X223189286Y-120352857D01*
X223060714Y-120310000D01*
X222975000Y-120267143D01*
X222846429Y-120181429D01*
X222803571Y-120138571D01*
X223789286Y-119410000D02*
X223832143Y-119495714D01*
X223832143Y-119667143D01*
X223789286Y-119752857D01*
X223746429Y-119795714D01*
X223660714Y-119838571D01*
X223403571Y-119838571D01*
X223317857Y-119795714D01*
X223275000Y-119752857D01*
X223232143Y-119667143D01*
X223232143Y-119495714D01*
X223275000Y-119410000D01*
X224175000Y-119110000D02*
X224132143Y-119067142D01*
X224003571Y-118981428D01*
X223917857Y-118938571D01*
X223789286Y-118895714D01*
X223575000Y-118852857D01*
X223403571Y-118852857D01*
X223189286Y-118895714D01*
X223060714Y-118938571D01*
X222975000Y-118981428D01*
X222846429Y-119067142D01*
X222803571Y-119110000D01*
X223832143Y-117738571D02*
X222932143Y-117738571D01*
X223575000Y-117438571D01*
X222932143Y-117138571D01*
X223832143Y-117138571D01*
X223832143Y-116710000D02*
X223232143Y-116710000D01*
X222932143Y-116710000D02*
X222975000Y-116752857D01*
X223017857Y-116710000D01*
X222975000Y-116667143D01*
X222932143Y-116710000D01*
X223017857Y-116710000D01*
X223832143Y-116281429D02*
X223232143Y-116281429D01*
X223403571Y-116281429D02*
X223317857Y-116238572D01*
X223275000Y-116195715D01*
X223232143Y-116110001D01*
X223232143Y-116024286D01*
X223832143Y-115724286D02*
X222932143Y-115724286D01*
X223489286Y-115638572D02*
X223832143Y-115381429D01*
X223232143Y-115381429D02*
X223575000Y-115724286D01*
X223832143Y-114867144D02*
X223789286Y-114952858D01*
X223746429Y-114995715D01*
X223660714Y-115038572D01*
X223403571Y-115038572D01*
X223317857Y-114995715D01*
X223275000Y-114952858D01*
X223232143Y-114867144D01*
X223232143Y-114738572D01*
X223275000Y-114652858D01*
X223317857Y-114610001D01*
X223403571Y-114567144D01*
X223660714Y-114567144D01*
X223746429Y-114610001D01*
X223789286Y-114652858D01*
X223832143Y-114738572D01*
X223832143Y-114867144D01*
X223832143Y-113495715D02*
X222932143Y-113495715D01*
X223832143Y-112981430D02*
X223317857Y-113367144D01*
X222932143Y-112981430D02*
X223446429Y-113495715D01*
X223832143Y-112210001D02*
X223360714Y-112210001D01*
X223275000Y-112252858D01*
X223232143Y-112338572D01*
X223232143Y-112510001D01*
X223275000Y-112595715D01*
X223789286Y-112210001D02*
X223832143Y-112295715D01*
X223832143Y-112510001D01*
X223789286Y-112595715D01*
X223703571Y-112638572D01*
X223617857Y-112638572D01*
X223532143Y-112595715D01*
X223489286Y-112510001D01*
X223489286Y-112295715D01*
X223446429Y-112210001D01*
X223832143Y-111781429D02*
X223232143Y-111781429D01*
X222932143Y-111781429D02*
X222975000Y-111824286D01*
X223017857Y-111781429D01*
X222975000Y-111738572D01*
X222932143Y-111781429D01*
X223017857Y-111781429D01*
X223789286Y-111395715D02*
X223832143Y-111310001D01*
X223832143Y-111138573D01*
X223789286Y-111052858D01*
X223703571Y-111010001D01*
X223660714Y-111010001D01*
X223575000Y-111052858D01*
X223532143Y-111138573D01*
X223532143Y-111267144D01*
X223489286Y-111352858D01*
X223403571Y-111395715D01*
X223360714Y-111395715D01*
X223275000Y-111352858D01*
X223232143Y-111267144D01*
X223232143Y-111138573D01*
X223275000Y-111052858D01*
X223789286Y-110281430D02*
X223832143Y-110367144D01*
X223832143Y-110538573D01*
X223789286Y-110624287D01*
X223703571Y-110667144D01*
X223360714Y-110667144D01*
X223275000Y-110624287D01*
X223232143Y-110538573D01*
X223232143Y-110367144D01*
X223275000Y-110281430D01*
X223360714Y-110238573D01*
X223446429Y-110238573D01*
X223532143Y-110667144D01*
X223832143Y-109852858D02*
X223232143Y-109852858D01*
X223403571Y-109852858D02*
X223317857Y-109810001D01*
X223275000Y-109767144D01*
X223232143Y-109681430D01*
X223232143Y-109595715D01*
D12*
X212253571Y-105878572D02*
X210753571Y-105878572D01*
X211825000Y-105378572D01*
X210753571Y-104878572D01*
X212253571Y-104878572D01*
X210753571Y-103878572D02*
X210753571Y-103592858D01*
X210825000Y-103450000D01*
X210967857Y-103307143D01*
X211253571Y-103235715D01*
X211753571Y-103235715D01*
X212039286Y-103307143D01*
X212182143Y-103450000D01*
X212253571Y-103592858D01*
X212253571Y-103878572D01*
X212182143Y-104021429D01*
X212039286Y-104164286D01*
X211753571Y-104235715D01*
X211253571Y-104235715D01*
X210967857Y-104164286D01*
X210825000Y-104021429D01*
X210753571Y-103878572D01*
X211467857Y-102092857D02*
X211539286Y-101878571D01*
X211610714Y-101807143D01*
X211753571Y-101735714D01*
X211967857Y-101735714D01*
X212110714Y-101807143D01*
X212182143Y-101878571D01*
X212253571Y-102021429D01*
X212253571Y-102592857D01*
X210753571Y-102592857D01*
X210753571Y-102092857D01*
X210825000Y-101950000D01*
X210896429Y-101878571D01*
X211039286Y-101807143D01*
X211182143Y-101807143D01*
X211325000Y-101878571D01*
X211396429Y-101950000D01*
X211467857Y-102092857D01*
X211467857Y-102592857D01*
X211467857Y-100592857D02*
X211539286Y-100378571D01*
X211610714Y-100307143D01*
X211753571Y-100235714D01*
X211967857Y-100235714D01*
X212110714Y-100307143D01*
X212182143Y-100378571D01*
X212253571Y-100521429D01*
X212253571Y-101092857D01*
X210753571Y-101092857D01*
X210753571Y-100592857D01*
X210825000Y-100450000D01*
X210896429Y-100378571D01*
X211039286Y-100307143D01*
X211182143Y-100307143D01*
X211325000Y-100378571D01*
X211396429Y-100450000D01*
X211467857Y-100592857D01*
X211467857Y-101092857D01*
X214017857Y-110735714D02*
X214017857Y-111235714D01*
X214803571Y-111235714D02*
X213303571Y-111235714D01*
X213303571Y-110521428D01*
X214803571Y-109307143D02*
X214017857Y-109307143D01*
X213875000Y-109378572D01*
X213803571Y-109521429D01*
X213803571Y-109807143D01*
X213875000Y-109950000D01*
X214732143Y-109307143D02*
X214803571Y-109450000D01*
X214803571Y-109807143D01*
X214732143Y-109950000D01*
X214589286Y-110021429D01*
X214446429Y-110021429D01*
X214303571Y-109950000D01*
X214232143Y-109807143D01*
X214232143Y-109450000D01*
X214160714Y-109307143D01*
X213803571Y-108592857D02*
X214803571Y-108592857D01*
X213946429Y-108592857D02*
X213875000Y-108521429D01*
X213803571Y-108378571D01*
X213803571Y-108164286D01*
X213875000Y-108021429D01*
X214017857Y-107950000D01*
X214803571Y-107950000D01*
X214017857Y-105592857D02*
X214089286Y-105378571D01*
X214160714Y-105307143D01*
X214303571Y-105235714D01*
X214517857Y-105235714D01*
X214660714Y-105307143D01*
X214732143Y-105378571D01*
X214803571Y-105521429D01*
X214803571Y-106092857D01*
X213303571Y-106092857D01*
X213303571Y-105592857D01*
X213375000Y-105450000D01*
X213446429Y-105378571D01*
X213589286Y-105307143D01*
X213732143Y-105307143D01*
X213875000Y-105378571D01*
X213946429Y-105450000D01*
X214017857Y-105592857D01*
X214017857Y-106092857D01*
X214803571Y-104378571D02*
X214732143Y-104521429D01*
X214660714Y-104592857D01*
X214517857Y-104664286D01*
X214089286Y-104664286D01*
X213946429Y-104592857D01*
X213875000Y-104521429D01*
X213803571Y-104378571D01*
X213803571Y-104164286D01*
X213875000Y-104021429D01*
X213946429Y-103950000D01*
X214089286Y-103878571D01*
X214517857Y-103878571D01*
X214660714Y-103950000D01*
X214732143Y-104021429D01*
X214803571Y-104164286D01*
X214803571Y-104378571D01*
X214803571Y-102592857D02*
X214017857Y-102592857D01*
X213875000Y-102664286D01*
X213803571Y-102807143D01*
X213803571Y-103092857D01*
X213875000Y-103235714D01*
X214732143Y-102592857D02*
X214803571Y-102735714D01*
X214803571Y-103092857D01*
X214732143Y-103235714D01*
X214589286Y-103307143D01*
X214446429Y-103307143D01*
X214303571Y-103235714D01*
X214232143Y-103092857D01*
X214232143Y-102735714D01*
X214160714Y-102592857D01*
X214803571Y-101878571D02*
X213803571Y-101878571D01*
X214089286Y-101878571D02*
X213946429Y-101807143D01*
X213875000Y-101735714D01*
X213803571Y-101592857D01*
X213803571Y-101450000D01*
X214803571Y-100307143D02*
X213303571Y-100307143D01*
X214732143Y-100307143D02*
X214803571Y-100450000D01*
X214803571Y-100735714D01*
X214732143Y-100878572D01*
X214660714Y-100950000D01*
X214517857Y-101021429D01*
X214089286Y-101021429D01*
X213946429Y-100950000D01*
X213875000Y-100878572D01*
X213803571Y-100735714D01*
X213803571Y-100450000D01*
X213875000Y-100307143D01*
D13*
X192814286Y-112758571D02*
X194185715Y-112758571D01*
X193500001Y-113444286D02*
X193500001Y-112072857D01*
D14*
X193492857Y-119566905D02*
X193492857Y-118043095D01*
D12*
X215997143Y-107521428D02*
X215997143Y-106378571D01*
X216568571Y-106950000D02*
X215425714Y-106950000D01*
D14*
X215922857Y-101018095D02*
X215922857Y-102541905D01*
D12*
X185317144Y-110117143D02*
X186460001Y-110117143D01*
X185888572Y-110688571D02*
X185888572Y-109545714D01*
X187960001Y-110688571D02*
X187102858Y-110688571D01*
X187531430Y-110688571D02*
X187531430Y-109188571D01*
X187388573Y-109402857D01*
X187245715Y-109545714D01*
X187102858Y-109617143D01*
X188531429Y-109331429D02*
X188602858Y-109260000D01*
X188745715Y-109188571D01*
X189102858Y-109188571D01*
X189245715Y-109260000D01*
X189317144Y-109331429D01*
X189388572Y-109474286D01*
X189388572Y-109617143D01*
X189317144Y-109831429D01*
X188460001Y-110688571D01*
X189388572Y-110688571D01*
X189817143Y-109188571D02*
X190317143Y-110688571D01*
X190817143Y-109188571D01*
X185317144Y-131987143D02*
X186460001Y-131987143D01*
X185888572Y-132558571D02*
X185888572Y-131415714D01*
X187960001Y-132558571D02*
X187102858Y-132558571D01*
X187531430Y-132558571D02*
X187531430Y-131058571D01*
X187388573Y-131272857D01*
X187245715Y-131415714D01*
X187102858Y-131487143D01*
X188531429Y-131201429D02*
X188602858Y-131130000D01*
X188745715Y-131058571D01*
X189102858Y-131058571D01*
X189245715Y-131130000D01*
X189317144Y-131201429D01*
X189388572Y-131344286D01*
X189388572Y-131487143D01*
X189317144Y-131701429D01*
X188460001Y-132558571D01*
X189388572Y-132558571D01*
X189817143Y-131058571D02*
X190317143Y-132558571D01*
X190817143Y-131058571D01*
D11*
X222282143Y-142260714D02*
X221382143Y-142260714D01*
X221382143Y-141917857D01*
X221425000Y-141832143D01*
X221467857Y-141789286D01*
X221553571Y-141746429D01*
X221682143Y-141746429D01*
X221767857Y-141789286D01*
X221810714Y-141832143D01*
X221853571Y-141917857D01*
X221853571Y-142260714D01*
X222196429Y-140846429D02*
X222239286Y-140889286D01*
X222282143Y-141017857D01*
X222282143Y-141103571D01*
X222239286Y-141232143D01*
X222153571Y-141317857D01*
X222067857Y-141360714D01*
X221896429Y-141403571D01*
X221767857Y-141403571D01*
X221596429Y-141360714D01*
X221510714Y-141317857D01*
X221425000Y-141232143D01*
X221382143Y-141103571D01*
X221382143Y-141017857D01*
X221425000Y-140889286D01*
X221467857Y-140846429D01*
X221810714Y-140160714D02*
X221853571Y-140032143D01*
X221896429Y-139989286D01*
X221982143Y-139946429D01*
X222110714Y-139946429D01*
X222196429Y-139989286D01*
X222239286Y-140032143D01*
X222282143Y-140117857D01*
X222282143Y-140460714D01*
X221382143Y-140460714D01*
X221382143Y-140160714D01*
X221425000Y-140075000D01*
X221467857Y-140032143D01*
X221553571Y-139989286D01*
X221639286Y-139989286D01*
X221725000Y-140032143D01*
X221767857Y-140075000D01*
X221810714Y-140160714D01*
X221810714Y-140460714D01*
X222282143Y-138360715D02*
X221853571Y-138660715D01*
X222282143Y-138875000D02*
X221382143Y-138875000D01*
X221382143Y-138532143D01*
X221425000Y-138446429D01*
X221467857Y-138403572D01*
X221553571Y-138360715D01*
X221682143Y-138360715D01*
X221767857Y-138403572D01*
X221810714Y-138446429D01*
X221853571Y-138532143D01*
X221853571Y-138875000D01*
X222196429Y-137460715D02*
X222239286Y-137503572D01*
X222282143Y-137632143D01*
X222282143Y-137717857D01*
X222239286Y-137846429D01*
X222153571Y-137932143D01*
X222067857Y-137975000D01*
X221896429Y-138017857D01*
X221767857Y-138017857D01*
X221596429Y-137975000D01*
X221510714Y-137932143D01*
X221425000Y-137846429D01*
X221382143Y-137717857D01*
X221382143Y-137632143D01*
X221425000Y-137503572D01*
X221467857Y-137460715D01*
X222282143Y-136603572D02*
X222282143Y-137117857D01*
X222282143Y-136860715D02*
X221382143Y-136860715D01*
X221510714Y-136946429D01*
X221596429Y-137032143D01*
X221639286Y-137117857D01*
X224175000Y-142003571D02*
X224132143Y-142046429D01*
X224003571Y-142132143D01*
X223917857Y-142175000D01*
X223789286Y-142217857D01*
X223575000Y-142260714D01*
X223403571Y-142260714D01*
X223189286Y-142217857D01*
X223060714Y-142175000D01*
X222975000Y-142132143D01*
X222846429Y-142046429D01*
X222803571Y-142003571D01*
X223789286Y-141275000D02*
X223832143Y-141360714D01*
X223832143Y-141532143D01*
X223789286Y-141617857D01*
X223746429Y-141660714D01*
X223660714Y-141703571D01*
X223403571Y-141703571D01*
X223317857Y-141660714D01*
X223275000Y-141617857D01*
X223232143Y-141532143D01*
X223232143Y-141360714D01*
X223275000Y-141275000D01*
X224175000Y-140975000D02*
X224132143Y-140932142D01*
X224003571Y-140846428D01*
X223917857Y-140803571D01*
X223789286Y-140760714D01*
X223575000Y-140717857D01*
X223403571Y-140717857D01*
X223189286Y-140760714D01*
X223060714Y-140803571D01*
X222975000Y-140846428D01*
X222846429Y-140932142D01*
X222803571Y-140975000D01*
X223832143Y-139603571D02*
X222932143Y-139603571D01*
X223575000Y-139303571D01*
X222932143Y-139003571D01*
X223832143Y-139003571D01*
X223832143Y-138575000D02*
X223232143Y-138575000D01*
X222932143Y-138575000D02*
X222975000Y-138617857D01*
X223017857Y-138575000D01*
X222975000Y-138532143D01*
X222932143Y-138575000D01*
X223017857Y-138575000D01*
X223832143Y-138146429D02*
X223232143Y-138146429D01*
X223403571Y-138146429D02*
X223317857Y-138103572D01*
X223275000Y-138060715D01*
X223232143Y-137975001D01*
X223232143Y-137889286D01*
X223832143Y-137589286D02*
X222932143Y-137589286D01*
X223489286Y-137503572D02*
X223832143Y-137246429D01*
X223232143Y-137246429D02*
X223575000Y-137589286D01*
X223832143Y-136732144D02*
X223789286Y-136817858D01*
X223746429Y-136860715D01*
X223660714Y-136903572D01*
X223403571Y-136903572D01*
X223317857Y-136860715D01*
X223275000Y-136817858D01*
X223232143Y-136732144D01*
X223232143Y-136603572D01*
X223275000Y-136517858D01*
X223317857Y-136475001D01*
X223403571Y-136432144D01*
X223660714Y-136432144D01*
X223746429Y-136475001D01*
X223789286Y-136517858D01*
X223832143Y-136603572D01*
X223832143Y-136732144D01*
X223832143Y-135360715D02*
X222932143Y-135360715D01*
X223832143Y-134846430D02*
X223317857Y-135232144D01*
X222932143Y-134846430D02*
X223446429Y-135360715D01*
X223832143Y-134075001D02*
X223360714Y-134075001D01*
X223275000Y-134117858D01*
X223232143Y-134203572D01*
X223232143Y-134375001D01*
X223275000Y-134460715D01*
X223789286Y-134075001D02*
X223832143Y-134160715D01*
X223832143Y-134375001D01*
X223789286Y-134460715D01*
X223703571Y-134503572D01*
X223617857Y-134503572D01*
X223532143Y-134460715D01*
X223489286Y-134375001D01*
X223489286Y-134160715D01*
X223446429Y-134075001D01*
X223832143Y-133646429D02*
X223232143Y-133646429D01*
X222932143Y-133646429D02*
X222975000Y-133689286D01*
X223017857Y-133646429D01*
X222975000Y-133603572D01*
X222932143Y-133646429D01*
X223017857Y-133646429D01*
X223789286Y-133260715D02*
X223832143Y-133175001D01*
X223832143Y-133003573D01*
X223789286Y-132917858D01*
X223703571Y-132875001D01*
X223660714Y-132875001D01*
X223575000Y-132917858D01*
X223532143Y-133003573D01*
X223532143Y-133132144D01*
X223489286Y-133217858D01*
X223403571Y-133260715D01*
X223360714Y-133260715D01*
X223275000Y-133217858D01*
X223232143Y-133132144D01*
X223232143Y-133003573D01*
X223275000Y-132917858D01*
X223789286Y-132146430D02*
X223832143Y-132232144D01*
X223832143Y-132403573D01*
X223789286Y-132489287D01*
X223703571Y-132532144D01*
X223360714Y-132532144D01*
X223275000Y-132489287D01*
X223232143Y-132403573D01*
X223232143Y-132232144D01*
X223275000Y-132146430D01*
X223360714Y-132103573D01*
X223446429Y-132103573D01*
X223532143Y-132532144D01*
X223832143Y-131717858D02*
X223232143Y-131717858D01*
X223403571Y-131717858D02*
X223317857Y-131675001D01*
X223275000Y-131632144D01*
X223232143Y-131546430D01*
X223232143Y-131460715D01*
D12*
X211653571Y-127278572D02*
X210153571Y-127278572D01*
X211225000Y-126778572D01*
X210153571Y-126278572D01*
X211653571Y-126278572D01*
X210153571Y-125278572D02*
X210153571Y-124992858D01*
X210225000Y-124850000D01*
X210367857Y-124707143D01*
X210653571Y-124635715D01*
X211153571Y-124635715D01*
X211439286Y-124707143D01*
X211582143Y-124850000D01*
X211653571Y-124992858D01*
X211653571Y-125278572D01*
X211582143Y-125421429D01*
X211439286Y-125564286D01*
X211153571Y-125635715D01*
X210653571Y-125635715D01*
X210367857Y-125564286D01*
X210225000Y-125421429D01*
X210153571Y-125278572D01*
X210867857Y-123492857D02*
X210939286Y-123278571D01*
X211010714Y-123207143D01*
X211153571Y-123135714D01*
X211367857Y-123135714D01*
X211510714Y-123207143D01*
X211582143Y-123278571D01*
X211653571Y-123421429D01*
X211653571Y-123992857D01*
X210153571Y-123992857D01*
X210153571Y-123492857D01*
X210225000Y-123350000D01*
X210296429Y-123278571D01*
X210439286Y-123207143D01*
X210582143Y-123207143D01*
X210725000Y-123278571D01*
X210796429Y-123350000D01*
X210867857Y-123492857D01*
X210867857Y-123992857D01*
X210867857Y-121992857D02*
X210939286Y-121778571D01*
X211010714Y-121707143D01*
X211153571Y-121635714D01*
X211367857Y-121635714D01*
X211510714Y-121707143D01*
X211582143Y-121778571D01*
X211653571Y-121921429D01*
X211653571Y-122492857D01*
X210153571Y-122492857D01*
X210153571Y-121992857D01*
X210225000Y-121850000D01*
X210296429Y-121778571D01*
X210439286Y-121707143D01*
X210582143Y-121707143D01*
X210725000Y-121778571D01*
X210796429Y-121850000D01*
X210867857Y-121992857D01*
X210867857Y-122492857D01*
X213417857Y-132135714D02*
X213417857Y-132635714D01*
X214203571Y-132635714D02*
X212703571Y-132635714D01*
X212703571Y-131921428D01*
X214203571Y-130707143D02*
X213417857Y-130707143D01*
X213275000Y-130778572D01*
X213203571Y-130921429D01*
X213203571Y-131207143D01*
X213275000Y-131350000D01*
X214132143Y-130707143D02*
X214203571Y-130850000D01*
X214203571Y-131207143D01*
X214132143Y-131350000D01*
X213989286Y-131421429D01*
X213846429Y-131421429D01*
X213703571Y-131350000D01*
X213632143Y-131207143D01*
X213632143Y-130850000D01*
X213560714Y-130707143D01*
X213203571Y-129992857D02*
X214203571Y-129992857D01*
X213346429Y-129992857D02*
X213275000Y-129921429D01*
X213203571Y-129778571D01*
X213203571Y-129564286D01*
X213275000Y-129421429D01*
X213417857Y-129350000D01*
X214203571Y-129350000D01*
X213417857Y-126992857D02*
X213489286Y-126778571D01*
X213560714Y-126707143D01*
X213703571Y-126635714D01*
X213917857Y-126635714D01*
X214060714Y-126707143D01*
X214132143Y-126778571D01*
X214203571Y-126921429D01*
X214203571Y-127492857D01*
X212703571Y-127492857D01*
X212703571Y-126992857D01*
X212775000Y-126850000D01*
X212846429Y-126778571D01*
X212989286Y-126707143D01*
X213132143Y-126707143D01*
X213275000Y-126778571D01*
X213346429Y-126850000D01*
X213417857Y-126992857D01*
X213417857Y-127492857D01*
X214203571Y-125778571D02*
X214132143Y-125921429D01*
X214060714Y-125992857D01*
X213917857Y-126064286D01*
X213489286Y-126064286D01*
X213346429Y-125992857D01*
X213275000Y-125921429D01*
X213203571Y-125778571D01*
X213203571Y-125564286D01*
X213275000Y-125421429D01*
X213346429Y-125350000D01*
X213489286Y-125278571D01*
X213917857Y-125278571D01*
X214060714Y-125350000D01*
X214132143Y-125421429D01*
X214203571Y-125564286D01*
X214203571Y-125778571D01*
X214203571Y-123992857D02*
X213417857Y-123992857D01*
X213275000Y-124064286D01*
X213203571Y-124207143D01*
X213203571Y-124492857D01*
X213275000Y-124635714D01*
X214132143Y-123992857D02*
X214203571Y-124135714D01*
X214203571Y-124492857D01*
X214132143Y-124635714D01*
X213989286Y-124707143D01*
X213846429Y-124707143D01*
X213703571Y-124635714D01*
X213632143Y-124492857D01*
X213632143Y-124135714D01*
X213560714Y-123992857D01*
X214203571Y-123278571D02*
X213203571Y-123278571D01*
X213489286Y-123278571D02*
X213346429Y-123207143D01*
X213275000Y-123135714D01*
X213203571Y-122992857D01*
X213203571Y-122850000D01*
X214203571Y-121707143D02*
X212703571Y-121707143D01*
X214132143Y-121707143D02*
X214203571Y-121850000D01*
X214203571Y-122135714D01*
X214132143Y-122278572D01*
X214060714Y-122350000D01*
X213917857Y-122421429D01*
X213489286Y-122421429D01*
X213346429Y-122350000D01*
X213275000Y-122278572D01*
X213203571Y-122135714D01*
X213203571Y-121850000D01*
X213275000Y-121707143D01*
D14*
X215542857Y-123038095D02*
X215542857Y-124561905D01*
D12*
X215807143Y-131028571D02*
X215807143Y-129885714D01*
X216378571Y-130457143D02*
X215235714Y-130457143D01*
X214878571Y-128457142D02*
X214878571Y-129171428D01*
X215592857Y-129242857D01*
X215521429Y-129171428D01*
X215450000Y-129028571D01*
X215450000Y-128671428D01*
X215521429Y-128528571D01*
X215592857Y-128457142D01*
X215735714Y-128385714D01*
X216092857Y-128385714D01*
X216235714Y-128457142D01*
X216307143Y-128528571D01*
X216378571Y-128671428D01*
X216378571Y-129028571D01*
X216307143Y-129171428D01*
X216235714Y-129242857D01*
X214878571Y-127957143D02*
X216378571Y-127457143D01*
X214878571Y-126957143D01*
D14*
X193492857Y-141436905D02*
X193492857Y-139913095D01*
D13*
X192814286Y-134628571D02*
X194185715Y-134628571D01*
X193500001Y-135314286D02*
X193500001Y-133942857D01*
D15*
G36*
X192940680Y-109986200D02*
X192958460Y-109978580D01*
X192991480Y-109955720D01*
X193042280Y-109922700D01*
X193100700Y-109884600D01*
X193161660Y-109843960D01*
X193209920Y-109810940D01*
X193245480Y-109788080D01*
X193258180Y-109780460D01*
X193265800Y-109783000D01*
X193293740Y-109798240D01*
X193334380Y-109818560D01*
X193359780Y-109831260D01*
X193397880Y-109846500D01*
X193415660Y-109851580D01*
X193418200Y-109846500D01*
X193433440Y-109816020D01*
X193453760Y-109767760D01*
X193481700Y-109701720D01*
X193514720Y-109625520D01*
X193550280Y-109544240D01*
X193583300Y-109460420D01*
X193616320Y-109381680D01*
X193646800Y-109308020D01*
X193669660Y-109249600D01*
X193684900Y-109208960D01*
X193692520Y-109191180D01*
X193689980Y-109188640D01*
X193672200Y-109170860D01*
X193639180Y-109145460D01*
X193568060Y-109087040D01*
X193496940Y-109000680D01*
X193453760Y-108901620D01*
X193441060Y-108789860D01*
X193451220Y-108688260D01*
X193491860Y-108591740D01*
X193560440Y-108502840D01*
X193644260Y-108436800D01*
X193740780Y-108396160D01*
X193850000Y-108383460D01*
X193954140Y-108393620D01*
X194053200Y-108434260D01*
X194142100Y-108500300D01*
X194180200Y-108543480D01*
X194231000Y-108634920D01*
X194261480Y-108728900D01*
X194264020Y-108751760D01*
X194258940Y-108858440D01*
X194228460Y-108960040D01*
X194172580Y-109048940D01*
X194096380Y-109122600D01*
X194086220Y-109130220D01*
X194050660Y-109158160D01*
X194025260Y-109175940D01*
X194007480Y-109191180D01*
X194142100Y-109513760D01*
X194162420Y-109564560D01*
X194200520Y-109653460D01*
X194231000Y-109729660D01*
X194258940Y-109790620D01*
X194276720Y-109831260D01*
X194284340Y-109846500D01*
X194284340Y-109846500D01*
X194297040Y-109849040D01*
X194319900Y-109841420D01*
X194365620Y-109818560D01*
X194396100Y-109803320D01*
X194429120Y-109788080D01*
X194444360Y-109780460D01*
X194459600Y-109788080D01*
X194492620Y-109808400D01*
X194538340Y-109841420D01*
X194596760Y-109879520D01*
X194652640Y-109917620D01*
X194703440Y-109950640D01*
X194739000Y-109976040D01*
X194756780Y-109983660D01*
X194759320Y-109983660D01*
X194777100Y-109976040D01*
X194805040Y-109950640D01*
X194848220Y-109910000D01*
X194911720Y-109849040D01*
X194921880Y-109838880D01*
X194972680Y-109788080D01*
X195013320Y-109742360D01*
X195041260Y-109711880D01*
X195051420Y-109699180D01*
X195051420Y-109699180D01*
X195041260Y-109681400D01*
X195018400Y-109643300D01*
X194985380Y-109592500D01*
X194944740Y-109531540D01*
X194838060Y-109376600D01*
X194896480Y-109231820D01*
X194914260Y-109186100D01*
X194937120Y-109130220D01*
X194954900Y-109092120D01*
X194962520Y-109074340D01*
X194980300Y-109069260D01*
X195018400Y-109059100D01*
X195076820Y-109048940D01*
X195147940Y-109036240D01*
X195213980Y-109023540D01*
X195272400Y-109010840D01*
X195315580Y-109003220D01*
X195335900Y-109000680D01*
X195340980Y-108995600D01*
X195343520Y-108987980D01*
X195346060Y-108967660D01*
X195348600Y-108929560D01*
X195348600Y-108873680D01*
X195348600Y-108789860D01*
X195348600Y-108782240D01*
X195348600Y-108703500D01*
X195346060Y-108640000D01*
X195343520Y-108601900D01*
X195340980Y-108584120D01*
X195340980Y-108584120D01*
X195323200Y-108579040D01*
X195280020Y-108571420D01*
X195221600Y-108558720D01*
X195150480Y-108546020D01*
X195145400Y-108546020D01*
X195074280Y-108530780D01*
X195015860Y-108518080D01*
X194972680Y-108510460D01*
X194954900Y-108502840D01*
X194952360Y-108497760D01*
X194937120Y-108469820D01*
X194916800Y-108426640D01*
X194893940Y-108373300D01*
X194871080Y-108317420D01*
X194850760Y-108266620D01*
X194838060Y-108231060D01*
X194832980Y-108213280D01*
X194832980Y-108213280D01*
X194843140Y-108195500D01*
X194868540Y-108159940D01*
X194904100Y-108109140D01*
X194944740Y-108048180D01*
X194947280Y-108043100D01*
X194987920Y-107982140D01*
X195020940Y-107931340D01*
X195043800Y-107895780D01*
X195051420Y-107880540D01*
X195051420Y-107878000D01*
X195038720Y-107860220D01*
X195008240Y-107827200D01*
X194962520Y-107781480D01*
X194911720Y-107728140D01*
X194893940Y-107712900D01*
X194835520Y-107654480D01*
X194794880Y-107618920D01*
X194769480Y-107598600D01*
X194759320Y-107593520D01*
X194756780Y-107593520D01*
X194739000Y-107603680D01*
X194700900Y-107629080D01*
X194650100Y-107664640D01*
X194589140Y-107705280D01*
X194586600Y-107707820D01*
X194525640Y-107748460D01*
X194474840Y-107784020D01*
X194439280Y-107806880D01*
X194424040Y-107814500D01*
X194421500Y-107814500D01*
X194398640Y-107809420D01*
X194355460Y-107794180D01*
X194302120Y-107773860D01*
X194246240Y-107751000D01*
X194195440Y-107730680D01*
X194159880Y-107712900D01*
X194142100Y-107702740D01*
X194139560Y-107702740D01*
X194134480Y-107679880D01*
X194124320Y-107634160D01*
X194111620Y-107573200D01*
X194096380Y-107499540D01*
X194093840Y-107489380D01*
X194081140Y-107415720D01*
X194070980Y-107357300D01*
X194060820Y-107316660D01*
X194058280Y-107298880D01*
X194048120Y-107298880D01*
X194012560Y-107296340D01*
X193959220Y-107293800D01*
X193893180Y-107293800D01*
X193827140Y-107293800D01*
X193761100Y-107293800D01*
X193705220Y-107296340D01*
X193664580Y-107298880D01*
X193646800Y-107303960D01*
X193646800Y-107303960D01*
X193641720Y-107326820D01*
X193631560Y-107370000D01*
X193618860Y-107433500D01*
X193603620Y-107507160D01*
X193601080Y-107519860D01*
X193588380Y-107590980D01*
X193575680Y-107649400D01*
X193568060Y-107690040D01*
X193562980Y-107705280D01*
X193557900Y-107707820D01*
X193527420Y-107723060D01*
X193479160Y-107740840D01*
X193420740Y-107766240D01*
X193283580Y-107822120D01*
X193115940Y-107705280D01*
X193100700Y-107695120D01*
X193039740Y-107654480D01*
X192988940Y-107621460D01*
X192953380Y-107598600D01*
X192940680Y-107590980D01*
X192938140Y-107590980D01*
X192922900Y-107606220D01*
X192889880Y-107636700D01*
X192844160Y-107682420D01*
X192790820Y-107733220D01*
X192750180Y-107773860D01*
X192704460Y-107819580D01*
X192676520Y-107852600D01*
X192658740Y-107872920D01*
X192653660Y-107885620D01*
X192656200Y-107893240D01*
X192666360Y-107911020D01*
X192691760Y-107946580D01*
X192724780Y-107999920D01*
X192765420Y-108058340D01*
X192800980Y-108109140D01*
X192836540Y-108165020D01*
X192859400Y-108205660D01*
X192869560Y-108223440D01*
X192867020Y-108233600D01*
X192854320Y-108266620D01*
X192834000Y-108314880D01*
X192808600Y-108375840D01*
X192750180Y-108507920D01*
X192663820Y-108525700D01*
X192610480Y-108535860D01*
X192536820Y-108548560D01*
X192465700Y-108563800D01*
X192353940Y-108584120D01*
X192351400Y-108987980D01*
X192369180Y-108995600D01*
X192384420Y-109000680D01*
X192425060Y-109010840D01*
X192483480Y-109021000D01*
X192552060Y-109033700D01*
X192613020Y-109046400D01*
X192671440Y-109056560D01*
X192714620Y-109064180D01*
X192732400Y-109069260D01*
X192737480Y-109074340D01*
X192752720Y-109104820D01*
X192773040Y-109150540D01*
X192795900Y-109203880D01*
X192821300Y-109262300D01*
X192841620Y-109313100D01*
X192856860Y-109353740D01*
X192861940Y-109374060D01*
X192854320Y-109389300D01*
X192831460Y-109424860D01*
X192798440Y-109475660D01*
X192757800Y-109534080D01*
X192717160Y-109592500D01*
X192684140Y-109643300D01*
X192658740Y-109678860D01*
X192651120Y-109696640D01*
X192656200Y-109706800D01*
X192679060Y-109734740D01*
X192722240Y-109780460D01*
X192788280Y-109846500D01*
X192800980Y-109856660D01*
X192851780Y-109907460D01*
X192897500Y-109948100D01*
X192927980Y-109976040D01*
X192940680Y-109986200D01*
X192940680Y-109986200D01*
G37*
X192940680Y-109986200D02*
X192958460Y-109978580D01*
X192991480Y-109955720D01*
X193042280Y-109922700D01*
X193100700Y-109884600D01*
X193161660Y-109843960D01*
X193209920Y-109810940D01*
X193245480Y-109788080D01*
X193258180Y-109780460D01*
X193265800Y-109783000D01*
X193293740Y-109798240D01*
X193334380Y-109818560D01*
X193359780Y-109831260D01*
X193397880Y-109846500D01*
X193415660Y-109851580D01*
X193418200Y-109846500D01*
X193433440Y-109816020D01*
X193453760Y-109767760D01*
X193481700Y-109701720D01*
X193514720Y-109625520D01*
X193550280Y-109544240D01*
X193583300Y-109460420D01*
X193616320Y-109381680D01*
X193646800Y-109308020D01*
X193669660Y-109249600D01*
X193684900Y-109208960D01*
X193692520Y-109191180D01*
X193689980Y-109188640D01*
X193672200Y-109170860D01*
X193639180Y-109145460D01*
X193568060Y-109087040D01*
X193496940Y-109000680D01*
X193453760Y-108901620D01*
X193441060Y-108789860D01*
X193451220Y-108688260D01*
X193491860Y-108591740D01*
X193560440Y-108502840D01*
X193644260Y-108436800D01*
X193740780Y-108396160D01*
X193850000Y-108383460D01*
X193954140Y-108393620D01*
X194053200Y-108434260D01*
X194142100Y-108500300D01*
X194180200Y-108543480D01*
X194231000Y-108634920D01*
X194261480Y-108728900D01*
X194264020Y-108751760D01*
X194258940Y-108858440D01*
X194228460Y-108960040D01*
X194172580Y-109048940D01*
X194096380Y-109122600D01*
X194086220Y-109130220D01*
X194050660Y-109158160D01*
X194025260Y-109175940D01*
X194007480Y-109191180D01*
X194142100Y-109513760D01*
X194162420Y-109564560D01*
X194200520Y-109653460D01*
X194231000Y-109729660D01*
X194258940Y-109790620D01*
X194276720Y-109831260D01*
X194284340Y-109846500D01*
X194284340Y-109846500D01*
X194297040Y-109849040D01*
X194319900Y-109841420D01*
X194365620Y-109818560D01*
X194396100Y-109803320D01*
X194429120Y-109788080D01*
X194444360Y-109780460D01*
X194459600Y-109788080D01*
X194492620Y-109808400D01*
X194538340Y-109841420D01*
X194596760Y-109879520D01*
X194652640Y-109917620D01*
X194703440Y-109950640D01*
X194739000Y-109976040D01*
X194756780Y-109983660D01*
X194759320Y-109983660D01*
X194777100Y-109976040D01*
X194805040Y-109950640D01*
X194848220Y-109910000D01*
X194911720Y-109849040D01*
X194921880Y-109838880D01*
X194972680Y-109788080D01*
X195013320Y-109742360D01*
X195041260Y-109711880D01*
X195051420Y-109699180D01*
X195051420Y-109699180D01*
X195041260Y-109681400D01*
X195018400Y-109643300D01*
X194985380Y-109592500D01*
X194944740Y-109531540D01*
X194838060Y-109376600D01*
X194896480Y-109231820D01*
X194914260Y-109186100D01*
X194937120Y-109130220D01*
X194954900Y-109092120D01*
X194962520Y-109074340D01*
X194980300Y-109069260D01*
X195018400Y-109059100D01*
X195076820Y-109048940D01*
X195147940Y-109036240D01*
X195213980Y-109023540D01*
X195272400Y-109010840D01*
X195315580Y-109003220D01*
X195335900Y-109000680D01*
X195340980Y-108995600D01*
X195343520Y-108987980D01*
X195346060Y-108967660D01*
X195348600Y-108929560D01*
X195348600Y-108873680D01*
X195348600Y-108789860D01*
X195348600Y-108782240D01*
X195348600Y-108703500D01*
X195346060Y-108640000D01*
X195343520Y-108601900D01*
X195340980Y-108584120D01*
X195340980Y-108584120D01*
X195323200Y-108579040D01*
X195280020Y-108571420D01*
X195221600Y-108558720D01*
X195150480Y-108546020D01*
X195145400Y-108546020D01*
X195074280Y-108530780D01*
X195015860Y-108518080D01*
X194972680Y-108510460D01*
X194954900Y-108502840D01*
X194952360Y-108497760D01*
X194937120Y-108469820D01*
X194916800Y-108426640D01*
X194893940Y-108373300D01*
X194871080Y-108317420D01*
X194850760Y-108266620D01*
X194838060Y-108231060D01*
X194832980Y-108213280D01*
X194832980Y-108213280D01*
X194843140Y-108195500D01*
X194868540Y-108159940D01*
X194904100Y-108109140D01*
X194944740Y-108048180D01*
X194947280Y-108043100D01*
X194987920Y-107982140D01*
X195020940Y-107931340D01*
X195043800Y-107895780D01*
X195051420Y-107880540D01*
X195051420Y-107878000D01*
X195038720Y-107860220D01*
X195008240Y-107827200D01*
X194962520Y-107781480D01*
X194911720Y-107728140D01*
X194893940Y-107712900D01*
X194835520Y-107654480D01*
X194794880Y-107618920D01*
X194769480Y-107598600D01*
X194759320Y-107593520D01*
X194756780Y-107593520D01*
X194739000Y-107603680D01*
X194700900Y-107629080D01*
X194650100Y-107664640D01*
X194589140Y-107705280D01*
X194586600Y-107707820D01*
X194525640Y-107748460D01*
X194474840Y-107784020D01*
X194439280Y-107806880D01*
X194424040Y-107814500D01*
X194421500Y-107814500D01*
X194398640Y-107809420D01*
X194355460Y-107794180D01*
X194302120Y-107773860D01*
X194246240Y-107751000D01*
X194195440Y-107730680D01*
X194159880Y-107712900D01*
X194142100Y-107702740D01*
X194139560Y-107702740D01*
X194134480Y-107679880D01*
X194124320Y-107634160D01*
X194111620Y-107573200D01*
X194096380Y-107499540D01*
X194093840Y-107489380D01*
X194081140Y-107415720D01*
X194070980Y-107357300D01*
X194060820Y-107316660D01*
X194058280Y-107298880D01*
X194048120Y-107298880D01*
X194012560Y-107296340D01*
X193959220Y-107293800D01*
X193893180Y-107293800D01*
X193827140Y-107293800D01*
X193761100Y-107293800D01*
X193705220Y-107296340D01*
X193664580Y-107298880D01*
X193646800Y-107303960D01*
X193646800Y-107303960D01*
X193641720Y-107326820D01*
X193631560Y-107370000D01*
X193618860Y-107433500D01*
X193603620Y-107507160D01*
X193601080Y-107519860D01*
X193588380Y-107590980D01*
X193575680Y-107649400D01*
X193568060Y-107690040D01*
X193562980Y-107705280D01*
X193557900Y-107707820D01*
X193527420Y-107723060D01*
X193479160Y-107740840D01*
X193420740Y-107766240D01*
X193283580Y-107822120D01*
X193115940Y-107705280D01*
X193100700Y-107695120D01*
X193039740Y-107654480D01*
X192988940Y-107621460D01*
X192953380Y-107598600D01*
X192940680Y-107590980D01*
X192938140Y-107590980D01*
X192922900Y-107606220D01*
X192889880Y-107636700D01*
X192844160Y-107682420D01*
X192790820Y-107733220D01*
X192750180Y-107773860D01*
X192704460Y-107819580D01*
X192676520Y-107852600D01*
X192658740Y-107872920D01*
X192653660Y-107885620D01*
X192656200Y-107893240D01*
X192666360Y-107911020D01*
X192691760Y-107946580D01*
X192724780Y-107999920D01*
X192765420Y-108058340D01*
X192800980Y-108109140D01*
X192836540Y-108165020D01*
X192859400Y-108205660D01*
X192869560Y-108223440D01*
X192867020Y-108233600D01*
X192854320Y-108266620D01*
X192834000Y-108314880D01*
X192808600Y-108375840D01*
X192750180Y-108507920D01*
X192663820Y-108525700D01*
X192610480Y-108535860D01*
X192536820Y-108548560D01*
X192465700Y-108563800D01*
X192353940Y-108584120D01*
X192351400Y-108987980D01*
X192369180Y-108995600D01*
X192384420Y-109000680D01*
X192425060Y-109010840D01*
X192483480Y-109021000D01*
X192552060Y-109033700D01*
X192613020Y-109046400D01*
X192671440Y-109056560D01*
X192714620Y-109064180D01*
X192732400Y-109069260D01*
X192737480Y-109074340D01*
X192752720Y-109104820D01*
X192773040Y-109150540D01*
X192795900Y-109203880D01*
X192821300Y-109262300D01*
X192841620Y-109313100D01*
X192856860Y-109353740D01*
X192861940Y-109374060D01*
X192854320Y-109389300D01*
X192831460Y-109424860D01*
X192798440Y-109475660D01*
X192757800Y-109534080D01*
X192717160Y-109592500D01*
X192684140Y-109643300D01*
X192658740Y-109678860D01*
X192651120Y-109696640D01*
X192656200Y-109706800D01*
X192679060Y-109734740D01*
X192722240Y-109780460D01*
X192788280Y-109846500D01*
X192800980Y-109856660D01*
X192851780Y-109907460D01*
X192897500Y-109948100D01*
X192927980Y-109976040D01*
X192940680Y-109986200D01*
D16*
X197630000Y-117360000D02*
X197630000Y-112280000D01*
X197630000Y-112280000D02*
X200170000Y-112280000D01*
X200170000Y-112280000D02*
X200170000Y-117360000D01*
X200170000Y-117360000D02*
X197630000Y-117360000D01*
X207870000Y-105710000D02*
X210410000Y-105710000D01*
X205050000Y-105430000D02*
X206600000Y-105430000D01*
X207870000Y-105710000D02*
X207870000Y-108250000D01*
X206600000Y-108530000D02*
X205050000Y-108530000D01*
X205050000Y-108530000D02*
X205050000Y-105430000D01*
X207870000Y-108250000D02*
X210410000Y-108250000D01*
X210410000Y-108250000D02*
X210410000Y-105710000D01*
X209899000Y-109616000D02*
X209899000Y-109816000D01*
X209899000Y-112210000D02*
X209899000Y-112030000D01*
X206671256Y-111899643D02*
G75*
G03X209899000Y-112216000I1727744J1003643D01*
G01*
X207346994Y-112029068D02*
G75*
G03X209450000Y-112030000I1052006J1133068D01*
G01*
X209886220Y-109589274D02*
G75*
G03X206649000Y-109936000I-1497220J-1306726D01*
G01*
X209412889Y-109816747D02*
G75*
G03X207365000Y-109836000I-1013889J-1079253D01*
G01*
D12*
X196700000Y-105730000D02*
X201950000Y-105730000D01*
D16*
X203450000Y-104130000D02*
X203450000Y-107380000D01*
X203450000Y-107380000D02*
X194950000Y-107380000D01*
X194950000Y-107380000D02*
X194950000Y-100880000D01*
X194950000Y-100880000D02*
X203450000Y-100880000D01*
X203450000Y-100880000D02*
X203450000Y-104130000D01*
D12*
X186000000Y-105730000D02*
X191250000Y-105730000D01*
D16*
X192750000Y-104130000D02*
X192750000Y-107380000D01*
X192750000Y-107380000D02*
X184250000Y-107380000D01*
X184250000Y-107380000D02*
X184250000Y-100880000D01*
X184250000Y-100880000D02*
X192750000Y-100880000D01*
X192750000Y-100880000D02*
X192750000Y-104130000D01*
X224700000Y-99230000D02*
X216700000Y-99230000D01*
X216700000Y-99230000D02*
X216700000Y-109230000D01*
X216700000Y-109230000D02*
X224700000Y-109230000D01*
X224700000Y-109230000D02*
X224700000Y-104230000D01*
X224700000Y-104230000D02*
X224700000Y-99230000D01*
X192250000Y-110930000D02*
X184250000Y-110930000D01*
X184250000Y-110930000D02*
X184250000Y-120930000D01*
X184250000Y-120930000D02*
X192250000Y-120930000D01*
X192250000Y-120930000D02*
X192250000Y-115930000D01*
X192250000Y-115930000D02*
X192250000Y-110930000D01*
X205600000Y-100400000D02*
X205600000Y-103800000D01*
X205602944Y-100402944D02*
G75*
G02X209700000Y-102100000I1697056J-1697056D01*
G01*
X205602944Y-103797056D02*
G75*
G03X209700000Y-102100000I1697056J1697056D01*
G01*
X203030000Y-117360000D02*
X203030000Y-112280000D01*
X203030000Y-112280000D02*
X205570000Y-112280000D01*
X205570000Y-112280000D02*
X205570000Y-117360000D01*
X205570000Y-117360000D02*
X203030000Y-117360000D01*
X200330000Y-117360000D02*
X200330000Y-112280000D01*
X200330000Y-112280000D02*
X202870000Y-112280000D01*
X202870000Y-112280000D02*
X202870000Y-117360000D01*
X202870000Y-117360000D02*
X200330000Y-117360000D01*
X218280000Y-117660000D02*
X218280000Y-112580000D01*
X218280000Y-112580000D02*
X220820000Y-112580000D01*
X220820000Y-112580000D02*
X220820000Y-117660000D01*
X220820000Y-117660000D02*
X218280000Y-117660000D01*
X197470000Y-112300000D02*
X197470000Y-117380000D01*
X197470000Y-117380000D02*
X194930000Y-117380000D01*
X194930000Y-117380000D02*
X194930000Y-112300000D01*
X194930000Y-112300000D02*
X197470000Y-112300000D01*
X216615000Y-120225000D02*
X216615000Y-118955000D01*
X209265000Y-120225000D02*
X209265000Y-118955000D01*
X209265000Y-113095000D02*
X209265000Y-114365000D01*
X216615000Y-113095000D02*
X216615000Y-114365000D01*
X216615000Y-120225000D02*
X209265000Y-120225000D01*
X216615000Y-113095000D02*
X209265000Y-113095000D01*
X216615000Y-118955000D02*
X217900000Y-118955000D01*
X216615000Y-142095000D02*
X216615000Y-140825000D01*
X209265000Y-142095000D02*
X209265000Y-140825000D01*
X209265000Y-134965000D02*
X209265000Y-136235000D01*
X216615000Y-134965000D02*
X216615000Y-136235000D01*
X216615000Y-142095000D02*
X209265000Y-142095000D01*
X216615000Y-134965000D02*
X209265000Y-134965000D01*
X216615000Y-140825000D02*
X217900000Y-140825000D01*
X197470000Y-134170000D02*
X197470000Y-139250000D01*
X197470000Y-139250000D02*
X194930000Y-139250000D01*
X194930000Y-139250000D02*
X194930000Y-134170000D01*
X194930000Y-134170000D02*
X197470000Y-134170000D01*
X218280000Y-139530000D02*
X218280000Y-134450000D01*
X218280000Y-134450000D02*
X220820000Y-134450000D01*
X220820000Y-134450000D02*
X220820000Y-139530000D01*
X220820000Y-139530000D02*
X218280000Y-139530000D01*
X200330000Y-139230000D02*
X200330000Y-134150000D01*
X200330000Y-134150000D02*
X202870000Y-134150000D01*
X202870000Y-134150000D02*
X202870000Y-139230000D01*
X202870000Y-139230000D02*
X200330000Y-139230000D01*
X203030000Y-139230000D02*
X203030000Y-134150000D01*
X203030000Y-134150000D02*
X205570000Y-134150000D01*
X205570000Y-134150000D02*
X205570000Y-139230000D01*
X205570000Y-139230000D02*
X203030000Y-139230000D01*
X205600000Y-122270000D02*
X205600000Y-125670000D01*
X205602944Y-122272944D02*
G75*
G02X209700000Y-123970000I1697056J-1697056D01*
G01*
X205602944Y-125667056D02*
G75*
G03X209700000Y-123970000I1697056J1697056D01*
G01*
X192250000Y-132800000D02*
X184250000Y-132800000D01*
X184250000Y-132800000D02*
X184250000Y-142800000D01*
X184250000Y-142800000D02*
X192250000Y-142800000D01*
X192250000Y-142800000D02*
X192250000Y-137800000D01*
X192250000Y-137800000D02*
X192250000Y-132800000D01*
X224700000Y-121100000D02*
X216700000Y-121100000D01*
X216700000Y-121100000D02*
X216700000Y-131100000D01*
X216700000Y-131100000D02*
X224700000Y-131100000D01*
X224700000Y-131100000D02*
X224700000Y-126100000D01*
X224700000Y-126100000D02*
X224700000Y-121100000D01*
D12*
X186000000Y-127600000D02*
X191250000Y-127600000D01*
D16*
X192750000Y-126000000D02*
X192750000Y-129250000D01*
X192750000Y-129250000D02*
X184250000Y-129250000D01*
X184250000Y-129250000D02*
X184250000Y-122750000D01*
X184250000Y-122750000D02*
X192750000Y-122750000D01*
X192750000Y-122750000D02*
X192750000Y-126000000D01*
D12*
X196700000Y-127600000D02*
X201950000Y-127600000D01*
D16*
X203450000Y-126000000D02*
X203450000Y-129250000D01*
X203450000Y-129250000D02*
X194950000Y-129250000D01*
X194950000Y-129250000D02*
X194950000Y-122750000D01*
X194950000Y-122750000D02*
X203450000Y-122750000D01*
X203450000Y-122750000D02*
X203450000Y-126000000D01*
X209899000Y-131486000D02*
X209899000Y-131686000D01*
X209899000Y-134080000D02*
X209899000Y-133900000D01*
X206671256Y-133769643D02*
G75*
G03X209899000Y-134086000I1727744J1003643D01*
G01*
X207346994Y-133899068D02*
G75*
G03X209450000Y-133900000I1052006J1133068D01*
G01*
X209886220Y-131459274D02*
G75*
G03X206649000Y-131806000I-1497220J-1306726D01*
G01*
X209412889Y-131686747D02*
G75*
G03X207365000Y-131706000I-1013889J-1079253D01*
G01*
X207870000Y-127580000D02*
X210410000Y-127580000D01*
X205050000Y-127300000D02*
X206600000Y-127300000D01*
X207870000Y-127580000D02*
X207870000Y-130120000D01*
X206600000Y-130400000D02*
X205050000Y-130400000D01*
X205050000Y-130400000D02*
X205050000Y-127300000D01*
X207870000Y-130120000D02*
X210410000Y-130120000D01*
X210410000Y-130120000D02*
X210410000Y-127580000D01*
X197630000Y-139230000D02*
X197630000Y-134150000D01*
X197630000Y-134150000D02*
X200170000Y-134150000D01*
X200170000Y-134150000D02*
X200170000Y-139230000D01*
X200170000Y-139230000D02*
X197630000Y-139230000D01*
D15*
G36*
X192940680Y-131856200D02*
X192958460Y-131848580D01*
X192991480Y-131825720D01*
X193042280Y-131792700D01*
X193100700Y-131754600D01*
X193161660Y-131713960D01*
X193209920Y-131680940D01*
X193245480Y-131658080D01*
X193258180Y-131650460D01*
X193265800Y-131653000D01*
X193293740Y-131668240D01*
X193334380Y-131688560D01*
X193359780Y-131701260D01*
X193397880Y-131716500D01*
X193415660Y-131721580D01*
X193418200Y-131716500D01*
X193433440Y-131686020D01*
X193453760Y-131637760D01*
X193481700Y-131571720D01*
X193514720Y-131495520D01*
X193550280Y-131414240D01*
X193583300Y-131330420D01*
X193616320Y-131251680D01*
X193646800Y-131178020D01*
X193669660Y-131119600D01*
X193684900Y-131078960D01*
X193692520Y-131061180D01*
X193689980Y-131058640D01*
X193672200Y-131040860D01*
X193639180Y-131015460D01*
X193568060Y-130957040D01*
X193496940Y-130870680D01*
X193453760Y-130771620D01*
X193441060Y-130659860D01*
X193451220Y-130558260D01*
X193491860Y-130461740D01*
X193560440Y-130372840D01*
X193644260Y-130306800D01*
X193740780Y-130266160D01*
X193850000Y-130253460D01*
X193954140Y-130263620D01*
X194053200Y-130304260D01*
X194142100Y-130370300D01*
X194180200Y-130413480D01*
X194231000Y-130504920D01*
X194261480Y-130598900D01*
X194264020Y-130621760D01*
X194258940Y-130728440D01*
X194228460Y-130830040D01*
X194172580Y-130918940D01*
X194096380Y-130992600D01*
X194086220Y-131000220D01*
X194050660Y-131028160D01*
X194025260Y-131045940D01*
X194007480Y-131061180D01*
X194142100Y-131383760D01*
X194162420Y-131434560D01*
X194200520Y-131523460D01*
X194231000Y-131599660D01*
X194258940Y-131660620D01*
X194276720Y-131701260D01*
X194284340Y-131716500D01*
X194284340Y-131716500D01*
X194297040Y-131719040D01*
X194319900Y-131711420D01*
X194365620Y-131688560D01*
X194396100Y-131673320D01*
X194429120Y-131658080D01*
X194444360Y-131650460D01*
X194459600Y-131658080D01*
X194492620Y-131678400D01*
X194538340Y-131711420D01*
X194596760Y-131749520D01*
X194652640Y-131787620D01*
X194703440Y-131820640D01*
X194739000Y-131846040D01*
X194756780Y-131853660D01*
X194759320Y-131853660D01*
X194777100Y-131846040D01*
X194805040Y-131820640D01*
X194848220Y-131780000D01*
X194911720Y-131719040D01*
X194921880Y-131708880D01*
X194972680Y-131658080D01*
X195013320Y-131612360D01*
X195041260Y-131581880D01*
X195051420Y-131569180D01*
X195051420Y-131569180D01*
X195041260Y-131551400D01*
X195018400Y-131513300D01*
X194985380Y-131462500D01*
X194944740Y-131401540D01*
X194838060Y-131246600D01*
X194896480Y-131101820D01*
X194914260Y-131056100D01*
X194937120Y-131000220D01*
X194954900Y-130962120D01*
X194962520Y-130944340D01*
X194980300Y-130939260D01*
X195018400Y-130929100D01*
X195076820Y-130918940D01*
X195147940Y-130906240D01*
X195213980Y-130893540D01*
X195272400Y-130880840D01*
X195315580Y-130873220D01*
X195335900Y-130870680D01*
X195340980Y-130865600D01*
X195343520Y-130857980D01*
X195346060Y-130837660D01*
X195348600Y-130799560D01*
X195348600Y-130743680D01*
X195348600Y-130659860D01*
X195348600Y-130652240D01*
X195348600Y-130573500D01*
X195346060Y-130510000D01*
X195343520Y-130471900D01*
X195340980Y-130454120D01*
X195340980Y-130454120D01*
X195323200Y-130449040D01*
X195280020Y-130441420D01*
X195221600Y-130428720D01*
X195150480Y-130416020D01*
X195145400Y-130416020D01*
X195074280Y-130400780D01*
X195015860Y-130388080D01*
X194972680Y-130380460D01*
X194954900Y-130372840D01*
X194952360Y-130367760D01*
X194937120Y-130339820D01*
X194916800Y-130296640D01*
X194893940Y-130243300D01*
X194871080Y-130187420D01*
X194850760Y-130136620D01*
X194838060Y-130101060D01*
X194832980Y-130083280D01*
X194832980Y-130083280D01*
X194843140Y-130065500D01*
X194868540Y-130029940D01*
X194904100Y-129979140D01*
X194944740Y-129918180D01*
X194947280Y-129913100D01*
X194987920Y-129852140D01*
X195020940Y-129801340D01*
X195043800Y-129765780D01*
X195051420Y-129750540D01*
X195051420Y-129748000D01*
X195038720Y-129730220D01*
X195008240Y-129697200D01*
X194962520Y-129651480D01*
X194911720Y-129598140D01*
X194893940Y-129582900D01*
X194835520Y-129524480D01*
X194794880Y-129488920D01*
X194769480Y-129468600D01*
X194759320Y-129463520D01*
X194756780Y-129463520D01*
X194739000Y-129473680D01*
X194700900Y-129499080D01*
X194650100Y-129534640D01*
X194589140Y-129575280D01*
X194586600Y-129577820D01*
X194525640Y-129618460D01*
X194474840Y-129654020D01*
X194439280Y-129676880D01*
X194424040Y-129684500D01*
X194421500Y-129684500D01*
X194398640Y-129679420D01*
X194355460Y-129664180D01*
X194302120Y-129643860D01*
X194246240Y-129621000D01*
X194195440Y-129600680D01*
X194159880Y-129582900D01*
X194142100Y-129572740D01*
X194139560Y-129572740D01*
X194134480Y-129549880D01*
X194124320Y-129504160D01*
X194111620Y-129443200D01*
X194096380Y-129369540D01*
X194093840Y-129359380D01*
X194081140Y-129285720D01*
X194070980Y-129227300D01*
X194060820Y-129186660D01*
X194058280Y-129168880D01*
X194048120Y-129168880D01*
X194012560Y-129166340D01*
X193959220Y-129163800D01*
X193893180Y-129163800D01*
X193827140Y-129163800D01*
X193761100Y-129163800D01*
X193705220Y-129166340D01*
X193664580Y-129168880D01*
X193646800Y-129173960D01*
X193646800Y-129173960D01*
X193641720Y-129196820D01*
X193631560Y-129240000D01*
X193618860Y-129303500D01*
X193603620Y-129377160D01*
X193601080Y-129389860D01*
X193588380Y-129460980D01*
X193575680Y-129519400D01*
X193568060Y-129560040D01*
X193562980Y-129575280D01*
X193557900Y-129577820D01*
X193527420Y-129593060D01*
X193479160Y-129610840D01*
X193420740Y-129636240D01*
X193283580Y-129692120D01*
X193115940Y-129575280D01*
X193100700Y-129565120D01*
X193039740Y-129524480D01*
X192988940Y-129491460D01*
X192953380Y-129468600D01*
X192940680Y-129460980D01*
X192938140Y-129460980D01*
X192922900Y-129476220D01*
X192889880Y-129506700D01*
X192844160Y-129552420D01*
X192790820Y-129603220D01*
X192750180Y-129643860D01*
X192704460Y-129689580D01*
X192676520Y-129722600D01*
X192658740Y-129742920D01*
X192653660Y-129755620D01*
X192656200Y-129763240D01*
X192666360Y-129781020D01*
X192691760Y-129816580D01*
X192724780Y-129869920D01*
X192765420Y-129928340D01*
X192800980Y-129979140D01*
X192836540Y-130035020D01*
X192859400Y-130075660D01*
X192869560Y-130093440D01*
X192867020Y-130103600D01*
X192854320Y-130136620D01*
X192834000Y-130184880D01*
X192808600Y-130245840D01*
X192750180Y-130377920D01*
X192663820Y-130395700D01*
X192610480Y-130405860D01*
X192536820Y-130418560D01*
X192465700Y-130433800D01*
X192353940Y-130454120D01*
X192351400Y-130857980D01*
X192369180Y-130865600D01*
X192384420Y-130870680D01*
X192425060Y-130880840D01*
X192483480Y-130891000D01*
X192552060Y-130903700D01*
X192613020Y-130916400D01*
X192671440Y-130926560D01*
X192714620Y-130934180D01*
X192732400Y-130939260D01*
X192737480Y-130944340D01*
X192752720Y-130974820D01*
X192773040Y-131020540D01*
X192795900Y-131073880D01*
X192821300Y-131132300D01*
X192841620Y-131183100D01*
X192856860Y-131223740D01*
X192861940Y-131244060D01*
X192854320Y-131259300D01*
X192831460Y-131294860D01*
X192798440Y-131345660D01*
X192757800Y-131404080D01*
X192717160Y-131462500D01*
X192684140Y-131513300D01*
X192658740Y-131548860D01*
X192651120Y-131566640D01*
X192656200Y-131576800D01*
X192679060Y-131604740D01*
X192722240Y-131650460D01*
X192788280Y-131716500D01*
X192800980Y-131726660D01*
X192851780Y-131777460D01*
X192897500Y-131818100D01*
X192927980Y-131846040D01*
X192940680Y-131856200D01*
X192940680Y-131856200D01*
G37*
X192940680Y-131856200D02*
X192958460Y-131848580D01*
X192991480Y-131825720D01*
X193042280Y-131792700D01*
X193100700Y-131754600D01*
X193161660Y-131713960D01*
X193209920Y-131680940D01*
X193245480Y-131658080D01*
X193258180Y-131650460D01*
X193265800Y-131653000D01*
X193293740Y-131668240D01*
X193334380Y-131688560D01*
X193359780Y-131701260D01*
X193397880Y-131716500D01*
X193415660Y-131721580D01*
X193418200Y-131716500D01*
X193433440Y-131686020D01*
X193453760Y-131637760D01*
X193481700Y-131571720D01*
X193514720Y-131495520D01*
X193550280Y-131414240D01*
X193583300Y-131330420D01*
X193616320Y-131251680D01*
X193646800Y-131178020D01*
X193669660Y-131119600D01*
X193684900Y-131078960D01*
X193692520Y-131061180D01*
X193689980Y-131058640D01*
X193672200Y-131040860D01*
X193639180Y-131015460D01*
X193568060Y-130957040D01*
X193496940Y-130870680D01*
X193453760Y-130771620D01*
X193441060Y-130659860D01*
X193451220Y-130558260D01*
X193491860Y-130461740D01*
X193560440Y-130372840D01*
X193644260Y-130306800D01*
X193740780Y-130266160D01*
X193850000Y-130253460D01*
X193954140Y-130263620D01*
X194053200Y-130304260D01*
X194142100Y-130370300D01*
X194180200Y-130413480D01*
X194231000Y-130504920D01*
X194261480Y-130598900D01*
X194264020Y-130621760D01*
X194258940Y-130728440D01*
X194228460Y-130830040D01*
X194172580Y-130918940D01*
X194096380Y-130992600D01*
X194086220Y-131000220D01*
X194050660Y-131028160D01*
X194025260Y-131045940D01*
X194007480Y-131061180D01*
X194142100Y-131383760D01*
X194162420Y-131434560D01*
X194200520Y-131523460D01*
X194231000Y-131599660D01*
X194258940Y-131660620D01*
X194276720Y-131701260D01*
X194284340Y-131716500D01*
X194284340Y-131716500D01*
X194297040Y-131719040D01*
X194319900Y-131711420D01*
X194365620Y-131688560D01*
X194396100Y-131673320D01*
X194429120Y-131658080D01*
X194444360Y-131650460D01*
X194459600Y-131658080D01*
X194492620Y-131678400D01*
X194538340Y-131711420D01*
X194596760Y-131749520D01*
X194652640Y-131787620D01*
X194703440Y-131820640D01*
X194739000Y-131846040D01*
X194756780Y-131853660D01*
X194759320Y-131853660D01*
X194777100Y-131846040D01*
X194805040Y-131820640D01*
X194848220Y-131780000D01*
X194911720Y-131719040D01*
X194921880Y-131708880D01*
X194972680Y-131658080D01*
X195013320Y-131612360D01*
X195041260Y-131581880D01*
X195051420Y-131569180D01*
X195051420Y-131569180D01*
X195041260Y-131551400D01*
X195018400Y-131513300D01*
X194985380Y-131462500D01*
X194944740Y-131401540D01*
X194838060Y-131246600D01*
X194896480Y-131101820D01*
X194914260Y-131056100D01*
X194937120Y-131000220D01*
X194954900Y-130962120D01*
X194962520Y-130944340D01*
X194980300Y-130939260D01*
X195018400Y-130929100D01*
X195076820Y-130918940D01*
X195147940Y-130906240D01*
X195213980Y-130893540D01*
X195272400Y-130880840D01*
X195315580Y-130873220D01*
X195335900Y-130870680D01*
X195340980Y-130865600D01*
X195343520Y-130857980D01*
X195346060Y-130837660D01*
X195348600Y-130799560D01*
X195348600Y-130743680D01*
X195348600Y-130659860D01*
X195348600Y-130652240D01*
X195348600Y-130573500D01*
X195346060Y-130510000D01*
X195343520Y-130471900D01*
X195340980Y-130454120D01*
X195340980Y-130454120D01*
X195323200Y-130449040D01*
X195280020Y-130441420D01*
X195221600Y-130428720D01*
X195150480Y-130416020D01*
X195145400Y-130416020D01*
X195074280Y-130400780D01*
X195015860Y-130388080D01*
X194972680Y-130380460D01*
X194954900Y-130372840D01*
X194952360Y-130367760D01*
X194937120Y-130339820D01*
X194916800Y-130296640D01*
X194893940Y-130243300D01*
X194871080Y-130187420D01*
X194850760Y-130136620D01*
X194838060Y-130101060D01*
X194832980Y-130083280D01*
X194832980Y-130083280D01*
X194843140Y-130065500D01*
X194868540Y-130029940D01*
X194904100Y-129979140D01*
X194944740Y-129918180D01*
X194947280Y-129913100D01*
X194987920Y-129852140D01*
X195020940Y-129801340D01*
X195043800Y-129765780D01*
X195051420Y-129750540D01*
X195051420Y-129748000D01*
X195038720Y-129730220D01*
X195008240Y-129697200D01*
X194962520Y-129651480D01*
X194911720Y-129598140D01*
X194893940Y-129582900D01*
X194835520Y-129524480D01*
X194794880Y-129488920D01*
X194769480Y-129468600D01*
X194759320Y-129463520D01*
X194756780Y-129463520D01*
X194739000Y-129473680D01*
X194700900Y-129499080D01*
X194650100Y-129534640D01*
X194589140Y-129575280D01*
X194586600Y-129577820D01*
X194525640Y-129618460D01*
X194474840Y-129654020D01*
X194439280Y-129676880D01*
X194424040Y-129684500D01*
X194421500Y-129684500D01*
X194398640Y-129679420D01*
X194355460Y-129664180D01*
X194302120Y-129643860D01*
X194246240Y-129621000D01*
X194195440Y-129600680D01*
X194159880Y-129582900D01*
X194142100Y-129572740D01*
X194139560Y-129572740D01*
X194134480Y-129549880D01*
X194124320Y-129504160D01*
X194111620Y-129443200D01*
X194096380Y-129369540D01*
X194093840Y-129359380D01*
X194081140Y-129285720D01*
X194070980Y-129227300D01*
X194060820Y-129186660D01*
X194058280Y-129168880D01*
X194048120Y-129168880D01*
X194012560Y-129166340D01*
X193959220Y-129163800D01*
X193893180Y-129163800D01*
X193827140Y-129163800D01*
X193761100Y-129163800D01*
X193705220Y-129166340D01*
X193664580Y-129168880D01*
X193646800Y-129173960D01*
X193646800Y-129173960D01*
X193641720Y-129196820D01*
X193631560Y-129240000D01*
X193618860Y-129303500D01*
X193603620Y-129377160D01*
X193601080Y-129389860D01*
X193588380Y-129460980D01*
X193575680Y-129519400D01*
X193568060Y-129560040D01*
X193562980Y-129575280D01*
X193557900Y-129577820D01*
X193527420Y-129593060D01*
X193479160Y-129610840D01*
X193420740Y-129636240D01*
X193283580Y-129692120D01*
X193115940Y-129575280D01*
X193100700Y-129565120D01*
X193039740Y-129524480D01*
X192988940Y-129491460D01*
X192953380Y-129468600D01*
X192940680Y-129460980D01*
X192938140Y-129460980D01*
X192922900Y-129476220D01*
X192889880Y-129506700D01*
X192844160Y-129552420D01*
X192790820Y-129603220D01*
X192750180Y-129643860D01*
X192704460Y-129689580D01*
X192676520Y-129722600D01*
X192658740Y-129742920D01*
X192653660Y-129755620D01*
X192656200Y-129763240D01*
X192666360Y-129781020D01*
X192691760Y-129816580D01*
X192724780Y-129869920D01*
X192765420Y-129928340D01*
X192800980Y-129979140D01*
X192836540Y-130035020D01*
X192859400Y-130075660D01*
X192869560Y-130093440D01*
X192867020Y-130103600D01*
X192854320Y-130136620D01*
X192834000Y-130184880D01*
X192808600Y-130245840D01*
X192750180Y-130377920D01*
X192663820Y-130395700D01*
X192610480Y-130405860D01*
X192536820Y-130418560D01*
X192465700Y-130433800D01*
X192353940Y-130454120D01*
X192351400Y-130857980D01*
X192369180Y-130865600D01*
X192384420Y-130870680D01*
X192425060Y-130880840D01*
X192483480Y-130891000D01*
X192552060Y-130903700D01*
X192613020Y-130916400D01*
X192671440Y-130926560D01*
X192714620Y-130934180D01*
X192732400Y-130939260D01*
X192737480Y-130944340D01*
X192752720Y-130974820D01*
X192773040Y-131020540D01*
X192795900Y-131073880D01*
X192821300Y-131132300D01*
X192841620Y-131183100D01*
X192856860Y-131223740D01*
X192861940Y-131244060D01*
X192854320Y-131259300D01*
X192831460Y-131294860D01*
X192798440Y-131345660D01*
X192757800Y-131404080D01*
X192717160Y-131462500D01*
X192684140Y-131513300D01*
X192658740Y-131548860D01*
X192651120Y-131566640D01*
X192656200Y-131576800D01*
X192679060Y-131604740D01*
X192722240Y-131650460D01*
X192788280Y-131716500D01*
X192800980Y-131726660D01*
X192851780Y-131777460D01*
X192897500Y-131818100D01*
X192927980Y-131846040D01*
X192940680Y-131856200D01*
D16*
X199952381Y-116596666D02*
X199476190Y-116930000D01*
X199952381Y-117168095D02*
X198952381Y-117168095D01*
X198952381Y-116787142D01*
X199000000Y-116691904D01*
X199047619Y-116644285D01*
X199142857Y-116596666D01*
X199285714Y-116596666D01*
X199380952Y-116644285D01*
X199428571Y-116691904D01*
X199476190Y-116787142D01*
X199476190Y-117168095D01*
X199952381Y-115644285D02*
X199952381Y-116215714D01*
X199952381Y-115930000D02*
X198952381Y-115930000D01*
X199095238Y-116025238D01*
X199190476Y-116120476D01*
X199238095Y-116215714D01*
X207051905Y-108322381D02*
X207051905Y-107322381D01*
X207290000Y-107322381D01*
X207432858Y-107370000D01*
X207528096Y-107465238D01*
X207575715Y-107560476D01*
X207623334Y-107750952D01*
X207623334Y-107893810D01*
X207575715Y-108084286D01*
X207528096Y-108179524D01*
X207432858Y-108274762D01*
X207290000Y-108322381D01*
X207051905Y-108322381D01*
X208575715Y-108322381D02*
X208004286Y-108322381D01*
X208290000Y-108322381D02*
X208290000Y-107322381D01*
X208194762Y-107465238D01*
X208099524Y-107560476D01*
X208004286Y-107608095D01*
X211128095Y-109642381D02*
X211128095Y-108642381D01*
X211699524Y-109642381D02*
X211270952Y-109070952D01*
X211699524Y-108642381D02*
X211128095Y-109213810D01*
X197761905Y-106882381D02*
X197761905Y-105882381D01*
X198142858Y-105882381D01*
X198238096Y-105930000D01*
X198285715Y-105977619D01*
X198333334Y-106072857D01*
X198333334Y-106215714D01*
X198285715Y-106310952D01*
X198238096Y-106358571D01*
X198142858Y-106406190D01*
X197761905Y-106406190D01*
X199190477Y-106215714D02*
X199190477Y-106882381D01*
X198952381Y-105834762D02*
X198714286Y-106549048D01*
X199333334Y-106549048D01*
X187061905Y-106882381D02*
X187061905Y-105882381D01*
X187442858Y-105882381D01*
X187538096Y-105930000D01*
X187585715Y-105977619D01*
X187633334Y-106072857D01*
X187633334Y-106215714D01*
X187585715Y-106310952D01*
X187538096Y-106358571D01*
X187442858Y-106406190D01*
X187061905Y-106406190D01*
X187966667Y-105882381D02*
X188585715Y-105882381D01*
X188252381Y-106263333D01*
X188395239Y-106263333D01*
X188490477Y-106310952D01*
X188538096Y-106358571D01*
X188585715Y-106453810D01*
X188585715Y-106691905D01*
X188538096Y-106787143D01*
X188490477Y-106834762D01*
X188395239Y-106882381D01*
X188109524Y-106882381D01*
X188014286Y-106834762D01*
X187966667Y-106787143D01*
X218652381Y-102468095D02*
X217652381Y-102468095D01*
X217652381Y-102087142D01*
X217700000Y-101991904D01*
X217747619Y-101944285D01*
X217842857Y-101896666D01*
X217985714Y-101896666D01*
X218080952Y-101944285D01*
X218128571Y-101991904D01*
X218176190Y-102087142D01*
X218176190Y-102468095D01*
X218652381Y-100944285D02*
X218652381Y-101515714D01*
X218652381Y-101230000D02*
X217652381Y-101230000D01*
X217795238Y-101325238D01*
X217890476Y-101420476D01*
X217938095Y-101515714D01*
X186202381Y-114168095D02*
X185202381Y-114168095D01*
X185202381Y-113787142D01*
X185250000Y-113691904D01*
X185297619Y-113644285D01*
X185392857Y-113596666D01*
X185535714Y-113596666D01*
X185630952Y-113644285D01*
X185678571Y-113691904D01*
X185726190Y-113787142D01*
X185726190Y-114168095D01*
X185297619Y-113215714D02*
X185250000Y-113168095D01*
X185202381Y-113072857D01*
X185202381Y-112834761D01*
X185250000Y-112739523D01*
X185297619Y-112691904D01*
X185392857Y-112644285D01*
X185488095Y-112644285D01*
X185630952Y-112691904D01*
X186202381Y-113263333D01*
X186202381Y-112644285D01*
X209747619Y-102125238D02*
X209700000Y-102220476D01*
X209604762Y-102315714D01*
X209461905Y-102458571D01*
X209414286Y-102553810D01*
X209414286Y-102649048D01*
X209652381Y-102601429D02*
X209604762Y-102696667D01*
X209509524Y-102791905D01*
X209319048Y-102839524D01*
X208985714Y-102839524D01*
X208795238Y-102791905D01*
X208700000Y-102696667D01*
X208652381Y-102601429D01*
X208652381Y-102410952D01*
X208700000Y-102315714D01*
X208795238Y-102220476D01*
X208985714Y-102172857D01*
X209319048Y-102172857D01*
X209509524Y-102220476D01*
X209604762Y-102315714D01*
X209652381Y-102410952D01*
X209652381Y-102601429D01*
X209652381Y-101220476D02*
X209652381Y-101791905D01*
X209652381Y-101506191D02*
X208652381Y-101506191D01*
X208795238Y-101601429D01*
X208890476Y-101696667D01*
X208938095Y-101791905D01*
X205252381Y-116596666D02*
X205252381Y-117168095D01*
X205252381Y-116882381D02*
X204252381Y-116882381D01*
X204395238Y-116977619D01*
X204490476Y-117072857D01*
X204538095Y-117168095D01*
X204252381Y-115977619D02*
X204252381Y-115882380D01*
X204300000Y-115787142D01*
X204347619Y-115739523D01*
X204442857Y-115691904D01*
X204633333Y-115644285D01*
X204871429Y-115644285D01*
X205061905Y-115691904D01*
X205157143Y-115739523D01*
X205204762Y-115787142D01*
X205252381Y-115882380D01*
X205252381Y-115977619D01*
X205204762Y-116072857D01*
X205157143Y-116120476D01*
X205061905Y-116168095D01*
X204871429Y-116215714D01*
X204633333Y-116215714D01*
X204442857Y-116168095D01*
X204347619Y-116120476D01*
X204300000Y-116072857D01*
X204252381Y-115977619D01*
X205252381Y-115215714D02*
X204252381Y-115215714D01*
X205252381Y-114644285D02*
X204680952Y-115072857D01*
X204252381Y-114644285D02*
X204823810Y-115215714D01*
X205252381Y-113691904D02*
X205252381Y-114263333D01*
X205252381Y-113977619D02*
X204252381Y-113977619D01*
X204395238Y-114072857D01*
X204490476Y-114168095D01*
X204538095Y-114263333D01*
X202752381Y-116720476D02*
X202752381Y-117291905D01*
X202752381Y-117006191D02*
X201752381Y-117006191D01*
X201895238Y-117101429D01*
X201990476Y-117196667D01*
X202038095Y-117291905D01*
X202752381Y-116291905D02*
X201752381Y-116291905D01*
X202752381Y-115720476D02*
X202180952Y-116149048D01*
X201752381Y-115720476D02*
X202323810Y-116291905D01*
X201847619Y-115339524D02*
X201800000Y-115291905D01*
X201752381Y-115196667D01*
X201752381Y-114958571D01*
X201800000Y-114863333D01*
X201847619Y-114815714D01*
X201942857Y-114768095D01*
X202038095Y-114768095D01*
X202180952Y-114815714D01*
X202752381Y-115387143D01*
X202752381Y-114768095D01*
X220502381Y-116720476D02*
X220502381Y-117291905D01*
X220502381Y-117006191D02*
X219502381Y-117006191D01*
X219645238Y-117101429D01*
X219740476Y-117196667D01*
X219788095Y-117291905D01*
X220502381Y-116291905D02*
X219502381Y-116291905D01*
X220502381Y-115720476D02*
X219930952Y-116149048D01*
X219502381Y-115720476D02*
X220073810Y-116291905D01*
X220502381Y-114768095D02*
X220502381Y-115339524D01*
X220502381Y-115053810D02*
X219502381Y-115053810D01*
X219645238Y-115149048D01*
X219740476Y-115244286D01*
X219788095Y-115339524D01*
X197252381Y-116534761D02*
X197252381Y-117106190D01*
X197252381Y-116820476D02*
X196252381Y-116820476D01*
X196395238Y-116915714D01*
X196490476Y-117010952D01*
X196538095Y-117106190D01*
X197157143Y-116106190D02*
X197204762Y-116058571D01*
X197252381Y-116106190D01*
X197204762Y-116153809D01*
X197157143Y-116106190D01*
X197252381Y-116106190D01*
X196585714Y-115201428D02*
X197252381Y-115201428D01*
X196204762Y-115439524D02*
X196919048Y-115677619D01*
X196919048Y-115058571D01*
X197252381Y-114677619D02*
X196252381Y-114677619D01*
X197252381Y-114106190D02*
X196680952Y-114534762D01*
X196252381Y-114106190D02*
X196823810Y-114677619D01*
X197252381Y-113153809D02*
X197252381Y-113725238D01*
X197252381Y-113439524D02*
X196252381Y-113439524D01*
X196395238Y-113534762D01*
X196490476Y-113630000D01*
X196538095Y-113725238D01*
X214502381Y-117391905D02*
X215311905Y-117391905D01*
X215407143Y-117344286D01*
X215454762Y-117296667D01*
X215502381Y-117201429D01*
X215502381Y-117010952D01*
X215454762Y-116915714D01*
X215407143Y-116868095D01*
X215311905Y-116820476D01*
X214502381Y-116820476D01*
X215502381Y-115820476D02*
X215502381Y-116391905D01*
X215502381Y-116106191D02*
X214502381Y-116106191D01*
X214645238Y-116201429D01*
X214740476Y-116296667D01*
X214788095Y-116391905D01*
X214502381Y-139261905D02*
X215311905Y-139261905D01*
X215407143Y-139214286D01*
X215454762Y-139166667D01*
X215502381Y-139071429D01*
X215502381Y-138880952D01*
X215454762Y-138785714D01*
X215407143Y-138738095D01*
X215311905Y-138690476D01*
X214502381Y-138690476D01*
X215502381Y-137690476D02*
X215502381Y-138261905D01*
X215502381Y-137976191D02*
X214502381Y-137976191D01*
X214645238Y-138071429D01*
X214740476Y-138166667D01*
X214788095Y-138261905D01*
X197252381Y-138404761D02*
X197252381Y-138976190D01*
X197252381Y-138690476D02*
X196252381Y-138690476D01*
X196395238Y-138785714D01*
X196490476Y-138880952D01*
X196538095Y-138976190D01*
X197157143Y-137976190D02*
X197204762Y-137928571D01*
X197252381Y-137976190D01*
X197204762Y-138023809D01*
X197157143Y-137976190D01*
X197252381Y-137976190D01*
X196585714Y-137071428D02*
X197252381Y-137071428D01*
X196204762Y-137309524D02*
X196919048Y-137547619D01*
X196919048Y-136928571D01*
X197252381Y-136547619D02*
X196252381Y-136547619D01*
X197252381Y-135976190D02*
X196680952Y-136404762D01*
X196252381Y-135976190D02*
X196823810Y-136547619D01*
X197252381Y-135023809D02*
X197252381Y-135595238D01*
X197252381Y-135309524D02*
X196252381Y-135309524D01*
X196395238Y-135404762D01*
X196490476Y-135500000D01*
X196538095Y-135595238D01*
X220502381Y-138590476D02*
X220502381Y-139161905D01*
X220502381Y-138876191D02*
X219502381Y-138876191D01*
X219645238Y-138971429D01*
X219740476Y-139066667D01*
X219788095Y-139161905D01*
X220502381Y-138161905D02*
X219502381Y-138161905D01*
X220502381Y-137590476D02*
X219930952Y-138019048D01*
X219502381Y-137590476D02*
X220073810Y-138161905D01*
X220502381Y-136638095D02*
X220502381Y-137209524D01*
X220502381Y-136923810D02*
X219502381Y-136923810D01*
X219645238Y-137019048D01*
X219740476Y-137114286D01*
X219788095Y-137209524D01*
X202752381Y-138590476D02*
X202752381Y-139161905D01*
X202752381Y-138876191D02*
X201752381Y-138876191D01*
X201895238Y-138971429D01*
X201990476Y-139066667D01*
X202038095Y-139161905D01*
X202752381Y-138161905D02*
X201752381Y-138161905D01*
X202752381Y-137590476D02*
X202180952Y-138019048D01*
X201752381Y-137590476D02*
X202323810Y-138161905D01*
X201847619Y-137209524D02*
X201800000Y-137161905D01*
X201752381Y-137066667D01*
X201752381Y-136828571D01*
X201800000Y-136733333D01*
X201847619Y-136685714D01*
X201942857Y-136638095D01*
X202038095Y-136638095D01*
X202180952Y-136685714D01*
X202752381Y-137257143D01*
X202752381Y-136638095D01*
X205252381Y-138466666D02*
X205252381Y-139038095D01*
X205252381Y-138752381D02*
X204252381Y-138752381D01*
X204395238Y-138847619D01*
X204490476Y-138942857D01*
X204538095Y-139038095D01*
X204252381Y-137847619D02*
X204252381Y-137752380D01*
X204300000Y-137657142D01*
X204347619Y-137609523D01*
X204442857Y-137561904D01*
X204633333Y-137514285D01*
X204871429Y-137514285D01*
X205061905Y-137561904D01*
X205157143Y-137609523D01*
X205204762Y-137657142D01*
X205252381Y-137752380D01*
X205252381Y-137847619D01*
X205204762Y-137942857D01*
X205157143Y-137990476D01*
X205061905Y-138038095D01*
X204871429Y-138085714D01*
X204633333Y-138085714D01*
X204442857Y-138038095D01*
X204347619Y-137990476D01*
X204300000Y-137942857D01*
X204252381Y-137847619D01*
X205252381Y-137085714D02*
X204252381Y-137085714D01*
X205252381Y-136514285D02*
X204680952Y-136942857D01*
X204252381Y-136514285D02*
X204823810Y-137085714D01*
X205252381Y-135561904D02*
X205252381Y-136133333D01*
X205252381Y-135847619D02*
X204252381Y-135847619D01*
X204395238Y-135942857D01*
X204490476Y-136038095D01*
X204538095Y-136133333D01*
X209747619Y-123995238D02*
X209700000Y-124090476D01*
X209604762Y-124185714D01*
X209461905Y-124328571D01*
X209414286Y-124423810D01*
X209414286Y-124519048D01*
X209652381Y-124471429D02*
X209604762Y-124566667D01*
X209509524Y-124661905D01*
X209319048Y-124709524D01*
X208985714Y-124709524D01*
X208795238Y-124661905D01*
X208700000Y-124566667D01*
X208652381Y-124471429D01*
X208652381Y-124280952D01*
X208700000Y-124185714D01*
X208795238Y-124090476D01*
X208985714Y-124042857D01*
X209319048Y-124042857D01*
X209509524Y-124090476D01*
X209604762Y-124185714D01*
X209652381Y-124280952D01*
X209652381Y-124471429D01*
X209652381Y-123090476D02*
X209652381Y-123661905D01*
X209652381Y-123376191D02*
X208652381Y-123376191D01*
X208795238Y-123471429D01*
X208890476Y-123566667D01*
X208938095Y-123661905D01*
X186202381Y-136038095D02*
X185202381Y-136038095D01*
X185202381Y-135657142D01*
X185250000Y-135561904D01*
X185297619Y-135514285D01*
X185392857Y-135466666D01*
X185535714Y-135466666D01*
X185630952Y-135514285D01*
X185678571Y-135561904D01*
X185726190Y-135657142D01*
X185726190Y-136038095D01*
X185297619Y-135085714D02*
X185250000Y-135038095D01*
X185202381Y-134942857D01*
X185202381Y-134704761D01*
X185250000Y-134609523D01*
X185297619Y-134561904D01*
X185392857Y-134514285D01*
X185488095Y-134514285D01*
X185630952Y-134561904D01*
X186202381Y-135133333D01*
X186202381Y-134514285D01*
X218652381Y-124338095D02*
X217652381Y-124338095D01*
X217652381Y-123957142D01*
X217700000Y-123861904D01*
X217747619Y-123814285D01*
X217842857Y-123766666D01*
X217985714Y-123766666D01*
X218080952Y-123814285D01*
X218128571Y-123861904D01*
X218176190Y-123957142D01*
X218176190Y-124338095D01*
X218652381Y-122814285D02*
X218652381Y-123385714D01*
X218652381Y-123100000D02*
X217652381Y-123100000D01*
X217795238Y-123195238D01*
X217890476Y-123290476D01*
X217938095Y-123385714D01*
X187061905Y-128752381D02*
X187061905Y-127752381D01*
X187442858Y-127752381D01*
X187538096Y-127800000D01*
X187585715Y-127847619D01*
X187633334Y-127942857D01*
X187633334Y-128085714D01*
X187585715Y-128180952D01*
X187538096Y-128228571D01*
X187442858Y-128276190D01*
X187061905Y-128276190D01*
X187966667Y-127752381D02*
X188585715Y-127752381D01*
X188252381Y-128133333D01*
X188395239Y-128133333D01*
X188490477Y-128180952D01*
X188538096Y-128228571D01*
X188585715Y-128323810D01*
X188585715Y-128561905D01*
X188538096Y-128657143D01*
X188490477Y-128704762D01*
X188395239Y-128752381D01*
X188109524Y-128752381D01*
X188014286Y-128704762D01*
X187966667Y-128657143D01*
X197761905Y-128752381D02*
X197761905Y-127752381D01*
X198142858Y-127752381D01*
X198238096Y-127800000D01*
X198285715Y-127847619D01*
X198333334Y-127942857D01*
X198333334Y-128085714D01*
X198285715Y-128180952D01*
X198238096Y-128228571D01*
X198142858Y-128276190D01*
X197761905Y-128276190D01*
X199190477Y-128085714D02*
X199190477Y-128752381D01*
X198952381Y-127704762D02*
X198714286Y-128419048D01*
X199333334Y-128419048D01*
X207051905Y-130192381D02*
X207051905Y-129192381D01*
X207290000Y-129192381D01*
X207432858Y-129240000D01*
X207528096Y-129335238D01*
X207575715Y-129430476D01*
X207623334Y-129620952D01*
X207623334Y-129763810D01*
X207575715Y-129954286D01*
X207528096Y-130049524D01*
X207432858Y-130144762D01*
X207290000Y-130192381D01*
X207051905Y-130192381D01*
X208575715Y-130192381D02*
X208004286Y-130192381D01*
X208290000Y-130192381D02*
X208290000Y-129192381D01*
X208194762Y-129335238D01*
X208099524Y-129430476D01*
X208004286Y-129478095D01*
X211128095Y-131512381D02*
X211128095Y-130512381D01*
X211699524Y-131512381D02*
X211270952Y-130940952D01*
X211699524Y-130512381D02*
X211128095Y-131083810D01*
X199952381Y-138466666D02*
X199476190Y-138800000D01*
X199952381Y-139038095D02*
X198952381Y-139038095D01*
X198952381Y-138657142D01*
X199000000Y-138561904D01*
X199047619Y-138514285D01*
X199142857Y-138466666D01*
X199285714Y-138466666D01*
X199380952Y-138514285D01*
X199428571Y-138561904D01*
X199476190Y-138657142D01*
X199476190Y-139038095D01*
X199952381Y-137514285D02*
X199952381Y-138085714D01*
X199952381Y-137800000D02*
X198952381Y-137800000D01*
X199095238Y-137895238D01*
X199190476Y-137990476D01*
X199238095Y-138085714D01*
M02*
