G04 #@! TF.FileFunction,Legend,Bot*
%FSLAX46Y46*%
G04 Gerber Fmt 4.6, Leading zero omitted, Abs format (unit mm)*
G04 Created by KiCad (PCBNEW 4.0.4-stable) date 11/28/16 12:21:10*
%MOMM*%
%LPD*%
G01*
G04 APERTURE LIST*
%ADD10C,0.100000*%
%ADD11C,0.300000*%
%ADD12C,0.200000*%
%ADD13C,0.250000*%
%ADD14C,0.002540*%
G04 APERTURE END LIST*
D10*
D11*
X218352857Y-122868095D02*
X218352857Y-124391905D01*
X218647143Y-126161429D02*
X218647143Y-127304286D01*
X219218571Y-126732857D02*
X218075714Y-126732857D01*
X217718571Y-128732858D02*
X217718571Y-128018572D01*
X218432857Y-127947143D01*
X218361429Y-128018572D01*
X218290000Y-128161429D01*
X218290000Y-128518572D01*
X218361429Y-128661429D01*
X218432857Y-128732858D01*
X218575714Y-128804286D01*
X218932857Y-128804286D01*
X219075714Y-128732858D01*
X219147143Y-128661429D01*
X219218571Y-128518572D01*
X219218571Y-128161429D01*
X219147143Y-128018572D01*
X219075714Y-127947143D01*
X217718571Y-129232857D02*
X219218571Y-129732857D01*
X217718571Y-130232857D01*
X218677143Y-104131429D02*
X218677143Y-105274286D01*
X219248571Y-104702857D02*
X218105714Y-104702857D01*
X217748571Y-106702858D02*
X217748571Y-105988572D01*
X218462857Y-105917143D01*
X218391429Y-105988572D01*
X218320000Y-106131429D01*
X218320000Y-106488572D01*
X218391429Y-106631429D01*
X218462857Y-106702858D01*
X218605714Y-106774286D01*
X218962857Y-106774286D01*
X219105714Y-106702858D01*
X219177143Y-106631429D01*
X219248571Y-106488572D01*
X219248571Y-106131429D01*
X219177143Y-105988572D01*
X219105714Y-105917143D01*
X217748571Y-107202857D02*
X219248571Y-107702857D01*
X217748571Y-108202857D01*
X218572857Y-100938095D02*
X218572857Y-102461905D01*
D12*
X201215714Y-101052143D02*
X201215714Y-100152143D01*
X200915714Y-100795000D01*
X200615714Y-100152143D01*
X200615714Y-101052143D01*
X200015715Y-100152143D02*
X199844286Y-100152143D01*
X199758572Y-100195000D01*
X199672858Y-100280714D01*
X199630000Y-100452143D01*
X199630000Y-100752143D01*
X199672858Y-100923571D01*
X199758572Y-101009286D01*
X199844286Y-101052143D01*
X200015715Y-101052143D01*
X200101429Y-101009286D01*
X200187143Y-100923571D01*
X200230000Y-100752143D01*
X200230000Y-100452143D01*
X200187143Y-100280714D01*
X200101429Y-100195000D01*
X200015715Y-100152143D01*
X198944286Y-100580714D02*
X198815715Y-100623571D01*
X198772858Y-100666429D01*
X198730001Y-100752143D01*
X198730001Y-100880714D01*
X198772858Y-100966429D01*
X198815715Y-101009286D01*
X198901429Y-101052143D01*
X199244286Y-101052143D01*
X199244286Y-100152143D01*
X198944286Y-100152143D01*
X198858572Y-100195000D01*
X198815715Y-100237857D01*
X198772858Y-100323571D01*
X198772858Y-100409286D01*
X198815715Y-100495000D01*
X198858572Y-100537857D01*
X198944286Y-100580714D01*
X199244286Y-100580714D01*
X198044286Y-100580714D02*
X197915715Y-100623571D01*
X197872858Y-100666429D01*
X197830001Y-100752143D01*
X197830001Y-100880714D01*
X197872858Y-100966429D01*
X197915715Y-101009286D01*
X198001429Y-101052143D01*
X198344286Y-101052143D01*
X198344286Y-100152143D01*
X198044286Y-100152143D01*
X197958572Y-100195000D01*
X197915715Y-100237857D01*
X197872858Y-100323571D01*
X197872858Y-100409286D01*
X197915715Y-100495000D01*
X197958572Y-100537857D01*
X198044286Y-100580714D01*
X198344286Y-100580714D01*
X196458572Y-100580714D02*
X196758572Y-100580714D01*
X196758572Y-101052143D02*
X196758572Y-100152143D01*
X196330001Y-100152143D01*
X195601429Y-101052143D02*
X195601429Y-100580714D01*
X195644286Y-100495000D01*
X195730000Y-100452143D01*
X195901429Y-100452143D01*
X195987143Y-100495000D01*
X195601429Y-101009286D02*
X195687143Y-101052143D01*
X195901429Y-101052143D01*
X195987143Y-101009286D01*
X196030000Y-100923571D01*
X196030000Y-100837857D01*
X195987143Y-100752143D01*
X195901429Y-100709286D01*
X195687143Y-100709286D01*
X195601429Y-100666429D01*
X195172857Y-100452143D02*
X195172857Y-101052143D01*
X195172857Y-100537857D02*
X195130000Y-100495000D01*
X195044286Y-100452143D01*
X194915714Y-100452143D01*
X194830000Y-100495000D01*
X194787143Y-100580714D01*
X194787143Y-101052143D01*
X193372857Y-100580714D02*
X193244286Y-100623571D01*
X193201429Y-100666429D01*
X193158572Y-100752143D01*
X193158572Y-100880714D01*
X193201429Y-100966429D01*
X193244286Y-101009286D01*
X193330000Y-101052143D01*
X193672857Y-101052143D01*
X193672857Y-100152143D01*
X193372857Y-100152143D01*
X193287143Y-100195000D01*
X193244286Y-100237857D01*
X193201429Y-100323571D01*
X193201429Y-100409286D01*
X193244286Y-100495000D01*
X193287143Y-100537857D01*
X193372857Y-100580714D01*
X193672857Y-100580714D01*
X192644286Y-101052143D02*
X192730000Y-101009286D01*
X192772857Y-100966429D01*
X192815714Y-100880714D01*
X192815714Y-100623571D01*
X192772857Y-100537857D01*
X192730000Y-100495000D01*
X192644286Y-100452143D01*
X192515714Y-100452143D01*
X192430000Y-100495000D01*
X192387143Y-100537857D01*
X192344286Y-100623571D01*
X192344286Y-100880714D01*
X192387143Y-100966429D01*
X192430000Y-101009286D01*
X192515714Y-101052143D01*
X192644286Y-101052143D01*
X191572857Y-101052143D02*
X191572857Y-100580714D01*
X191615714Y-100495000D01*
X191701428Y-100452143D01*
X191872857Y-100452143D01*
X191958571Y-100495000D01*
X191572857Y-101009286D02*
X191658571Y-101052143D01*
X191872857Y-101052143D01*
X191958571Y-101009286D01*
X192001428Y-100923571D01*
X192001428Y-100837857D01*
X191958571Y-100752143D01*
X191872857Y-100709286D01*
X191658571Y-100709286D01*
X191572857Y-100666429D01*
X191144285Y-101052143D02*
X191144285Y-100452143D01*
X191144285Y-100623571D02*
X191101428Y-100537857D01*
X191058571Y-100495000D01*
X190972857Y-100452143D01*
X190887142Y-100452143D01*
X190201428Y-101052143D02*
X190201428Y-100152143D01*
X190201428Y-101009286D02*
X190287142Y-101052143D01*
X190458571Y-101052143D01*
X190544285Y-101009286D01*
X190587142Y-100966429D01*
X190629999Y-100880714D01*
X190629999Y-100623571D01*
X190587142Y-100537857D01*
X190544285Y-100495000D01*
X190458571Y-100452143D01*
X190287142Y-100452143D01*
X190201428Y-100495000D01*
X200958571Y-102945000D02*
X201001429Y-102902143D01*
X201087143Y-102773571D01*
X201130000Y-102687857D01*
X201172857Y-102559286D01*
X201215714Y-102345000D01*
X201215714Y-102173571D01*
X201172857Y-101959286D01*
X201130000Y-101830714D01*
X201087143Y-101745000D01*
X201001429Y-101616429D01*
X200958571Y-101573571D01*
X200230000Y-102559286D02*
X200315714Y-102602143D01*
X200487143Y-102602143D01*
X200572857Y-102559286D01*
X200615714Y-102516429D01*
X200658571Y-102430714D01*
X200658571Y-102173571D01*
X200615714Y-102087857D01*
X200572857Y-102045000D01*
X200487143Y-102002143D01*
X200315714Y-102002143D01*
X200230000Y-102045000D01*
X199930000Y-102945000D02*
X199887142Y-102902143D01*
X199801428Y-102773571D01*
X199758571Y-102687857D01*
X199715714Y-102559286D01*
X199672857Y-102345000D01*
X199672857Y-102173571D01*
X199715714Y-101959286D01*
X199758571Y-101830714D01*
X199801428Y-101745000D01*
X199887142Y-101616429D01*
X199930000Y-101573571D01*
X198601428Y-101787857D02*
X198558571Y-101745000D01*
X198472857Y-101702143D01*
X198258571Y-101702143D01*
X198172857Y-101745000D01*
X198130000Y-101787857D01*
X198087143Y-101873571D01*
X198087143Y-101959286D01*
X198130000Y-102087857D01*
X198644286Y-102602143D01*
X198087143Y-102602143D01*
X197530000Y-101702143D02*
X197444285Y-101702143D01*
X197358571Y-101745000D01*
X197315714Y-101787857D01*
X197272857Y-101873571D01*
X197230000Y-102045000D01*
X197230000Y-102259286D01*
X197272857Y-102430714D01*
X197315714Y-102516429D01*
X197358571Y-102559286D01*
X197444285Y-102602143D01*
X197530000Y-102602143D01*
X197615714Y-102559286D01*
X197658571Y-102516429D01*
X197701428Y-102430714D01*
X197744285Y-102259286D01*
X197744285Y-102045000D01*
X197701428Y-101873571D01*
X197658571Y-101787857D01*
X197615714Y-101745000D01*
X197530000Y-101702143D01*
X196372857Y-102602143D02*
X196887142Y-102602143D01*
X196630000Y-102602143D02*
X196630000Y-101702143D01*
X196715714Y-101830714D01*
X196801428Y-101916429D01*
X196887142Y-101959286D01*
X195601428Y-101702143D02*
X195772857Y-101702143D01*
X195858571Y-101745000D01*
X195901428Y-101787857D01*
X195987142Y-101916429D01*
X196029999Y-102087857D01*
X196029999Y-102430714D01*
X195987142Y-102516429D01*
X195944285Y-102559286D01*
X195858571Y-102602143D01*
X195687142Y-102602143D01*
X195601428Y-102559286D01*
X195558571Y-102516429D01*
X195515714Y-102430714D01*
X195515714Y-102216429D01*
X195558571Y-102130714D01*
X195601428Y-102087857D01*
X195687142Y-102045000D01*
X195858571Y-102045000D01*
X195944285Y-102087857D01*
X195987142Y-102130714D01*
X196029999Y-102216429D01*
X194444285Y-102602143D02*
X194444285Y-101702143D01*
X194144285Y-102345000D01*
X193844285Y-101702143D01*
X193844285Y-102602143D01*
X193415714Y-102602143D02*
X193415714Y-102002143D01*
X193415714Y-101702143D02*
X193458571Y-101745000D01*
X193415714Y-101787857D01*
X193372857Y-101745000D01*
X193415714Y-101702143D01*
X193415714Y-101787857D01*
X192987143Y-102602143D02*
X192987143Y-102002143D01*
X192987143Y-102173571D02*
X192944286Y-102087857D01*
X192901429Y-102045000D01*
X192815715Y-102002143D01*
X192730000Y-102002143D01*
X192430000Y-102602143D02*
X192430000Y-101702143D01*
X192344286Y-102259286D02*
X192087143Y-102602143D01*
X192087143Y-102002143D02*
X192430000Y-102345000D01*
X191572858Y-102602143D02*
X191658572Y-102559286D01*
X191701429Y-102516429D01*
X191744286Y-102430714D01*
X191744286Y-102173571D01*
X191701429Y-102087857D01*
X191658572Y-102045000D01*
X191572858Y-102002143D01*
X191444286Y-102002143D01*
X191358572Y-102045000D01*
X191315715Y-102087857D01*
X191272858Y-102173571D01*
X191272858Y-102430714D01*
X191315715Y-102516429D01*
X191358572Y-102559286D01*
X191444286Y-102602143D01*
X191572858Y-102602143D01*
X190201429Y-102602143D02*
X190201429Y-101702143D01*
X189687144Y-102602143D02*
X190072858Y-102087857D01*
X189687144Y-101702143D02*
X190201429Y-102216429D01*
X188915715Y-102602143D02*
X188915715Y-102130714D01*
X188958572Y-102045000D01*
X189044286Y-102002143D01*
X189215715Y-102002143D01*
X189301429Y-102045000D01*
X188915715Y-102559286D02*
X189001429Y-102602143D01*
X189215715Y-102602143D01*
X189301429Y-102559286D01*
X189344286Y-102473571D01*
X189344286Y-102387857D01*
X189301429Y-102302143D01*
X189215715Y-102259286D01*
X189001429Y-102259286D01*
X188915715Y-102216429D01*
X188487143Y-102602143D02*
X188487143Y-102002143D01*
X188487143Y-101702143D02*
X188530000Y-101745000D01*
X188487143Y-101787857D01*
X188444286Y-101745000D01*
X188487143Y-101702143D01*
X188487143Y-101787857D01*
X188101429Y-102559286D02*
X188015715Y-102602143D01*
X187844287Y-102602143D01*
X187758572Y-102559286D01*
X187715715Y-102473571D01*
X187715715Y-102430714D01*
X187758572Y-102345000D01*
X187844287Y-102302143D01*
X187972858Y-102302143D01*
X188058572Y-102259286D01*
X188101429Y-102173571D01*
X188101429Y-102130714D01*
X188058572Y-102045000D01*
X187972858Y-102002143D01*
X187844287Y-102002143D01*
X187758572Y-102045000D01*
X186987144Y-102559286D02*
X187072858Y-102602143D01*
X187244287Y-102602143D01*
X187330001Y-102559286D01*
X187372858Y-102473571D01*
X187372858Y-102130714D01*
X187330001Y-102045000D01*
X187244287Y-102002143D01*
X187072858Y-102002143D01*
X186987144Y-102045000D01*
X186944287Y-102130714D01*
X186944287Y-102216429D01*
X187372858Y-102302143D01*
X186558572Y-102602143D02*
X186558572Y-102002143D01*
X186558572Y-102173571D02*
X186515715Y-102087857D01*
X186472858Y-102045000D01*
X186387144Y-102002143D01*
X186301429Y-102002143D01*
D13*
X217587143Y-108785714D02*
X217587143Y-109595238D01*
X217634762Y-109690476D01*
X217682381Y-109738095D01*
X217777620Y-109785714D01*
X217920477Y-109785714D01*
X218015715Y-109738095D01*
X217587143Y-109404762D02*
X217682381Y-109452381D01*
X217872858Y-109452381D01*
X217968096Y-109404762D01*
X218015715Y-109357143D01*
X218063334Y-109261905D01*
X218063334Y-108976190D01*
X218015715Y-108880952D01*
X217968096Y-108833333D01*
X217872858Y-108785714D01*
X217682381Y-108785714D01*
X217587143Y-108833333D01*
X217110953Y-109452381D02*
X217110953Y-108785714D01*
X217110953Y-108452381D02*
X217158572Y-108500000D01*
X217110953Y-108547619D01*
X217063334Y-108500000D01*
X217110953Y-108452381D01*
X217110953Y-108547619D01*
X216777620Y-108785714D02*
X216396668Y-108785714D01*
X216634763Y-108452381D02*
X216634763Y-109309524D01*
X216587144Y-109404762D01*
X216491906Y-109452381D01*
X216396668Y-109452381D01*
X216063334Y-109452381D02*
X216063334Y-108452381D01*
X215634762Y-109452381D02*
X215634762Y-108928571D01*
X215682381Y-108833333D01*
X215777619Y-108785714D01*
X215920477Y-108785714D01*
X216015715Y-108833333D01*
X216063334Y-108880952D01*
X214730000Y-108785714D02*
X214730000Y-109452381D01*
X215158572Y-108785714D02*
X215158572Y-109309524D01*
X215110953Y-109404762D01*
X215015715Y-109452381D01*
X214872857Y-109452381D01*
X214777619Y-109404762D01*
X214730000Y-109357143D01*
X214253810Y-109452381D02*
X214253810Y-108452381D01*
X214253810Y-108833333D02*
X214158572Y-108785714D01*
X213968095Y-108785714D01*
X213872857Y-108833333D01*
X213825238Y-108880952D01*
X213777619Y-108976190D01*
X213777619Y-109261905D01*
X213825238Y-109357143D01*
X213872857Y-109404762D01*
X213968095Y-109452381D01*
X214158572Y-109452381D01*
X214253810Y-109404762D01*
X213349048Y-109357143D02*
X213301429Y-109404762D01*
X213349048Y-109452381D01*
X213396667Y-109404762D01*
X213349048Y-109357143D01*
X213349048Y-109452381D01*
X212444286Y-109404762D02*
X212539524Y-109452381D01*
X212730001Y-109452381D01*
X212825239Y-109404762D01*
X212872858Y-109357143D01*
X212920477Y-109261905D01*
X212920477Y-108976190D01*
X212872858Y-108880952D01*
X212825239Y-108833333D01*
X212730001Y-108785714D01*
X212539524Y-108785714D01*
X212444286Y-108833333D01*
X211872858Y-109452381D02*
X211968096Y-109404762D01*
X212015715Y-109357143D01*
X212063334Y-109261905D01*
X212063334Y-108976190D01*
X212015715Y-108880952D01*
X211968096Y-108833333D01*
X211872858Y-108785714D01*
X211730000Y-108785714D01*
X211634762Y-108833333D01*
X211587143Y-108880952D01*
X211539524Y-108976190D01*
X211539524Y-109261905D01*
X211587143Y-109357143D01*
X211634762Y-109404762D01*
X211730000Y-109452381D01*
X211872858Y-109452381D01*
X211110953Y-109452381D02*
X211110953Y-108785714D01*
X211110953Y-108880952D02*
X211063334Y-108833333D01*
X210968096Y-108785714D01*
X210825238Y-108785714D01*
X210730000Y-108833333D01*
X210682381Y-108928571D01*
X210682381Y-109452381D01*
X210682381Y-108928571D02*
X210634762Y-108833333D01*
X210539524Y-108785714D01*
X210396667Y-108785714D01*
X210301429Y-108833333D01*
X210253810Y-108928571D01*
X210253810Y-109452381D01*
X209063334Y-108404762D02*
X209920477Y-109690476D01*
X208730001Y-109452381D02*
X208730001Y-108452381D01*
X208158572Y-109452381D02*
X208587144Y-108880952D01*
X208158572Y-108452381D02*
X208730001Y-109023810D01*
X207301429Y-109452381D02*
X207301429Y-108928571D01*
X207349048Y-108833333D01*
X207444286Y-108785714D01*
X207634763Y-108785714D01*
X207730001Y-108833333D01*
X207301429Y-109404762D02*
X207396667Y-109452381D01*
X207634763Y-109452381D01*
X207730001Y-109404762D01*
X207777620Y-109309524D01*
X207777620Y-109214286D01*
X207730001Y-109119048D01*
X207634763Y-109071429D01*
X207396667Y-109071429D01*
X207301429Y-109023810D01*
X206825239Y-109452381D02*
X206825239Y-108785714D01*
X206825239Y-108452381D02*
X206872858Y-108500000D01*
X206825239Y-108547619D01*
X206777620Y-108500000D01*
X206825239Y-108452381D01*
X206825239Y-108547619D01*
X206396668Y-109404762D02*
X206301430Y-109452381D01*
X206110954Y-109452381D01*
X206015715Y-109404762D01*
X205968096Y-109309524D01*
X205968096Y-109261905D01*
X206015715Y-109166667D01*
X206110954Y-109119048D01*
X206253811Y-109119048D01*
X206349049Y-109071429D01*
X206396668Y-108976190D01*
X206396668Y-108928571D01*
X206349049Y-108833333D01*
X206253811Y-108785714D01*
X206110954Y-108785714D01*
X206015715Y-108833333D01*
X205158572Y-109404762D02*
X205253810Y-109452381D01*
X205444287Y-109452381D01*
X205539525Y-109404762D01*
X205587144Y-109309524D01*
X205587144Y-108928571D01*
X205539525Y-108833333D01*
X205444287Y-108785714D01*
X205253810Y-108785714D01*
X205158572Y-108833333D01*
X205110953Y-108928571D01*
X205110953Y-109023810D01*
X205587144Y-109119048D01*
X204682382Y-109452381D02*
X204682382Y-108785714D01*
X204682382Y-108976190D02*
X204634763Y-108880952D01*
X204587144Y-108833333D01*
X204491906Y-108785714D01*
X204396667Y-108785714D01*
X204110953Y-109404762D02*
X203968096Y-109452381D01*
X203730000Y-109452381D01*
X203634762Y-109404762D01*
X203587143Y-109357143D01*
X203539524Y-109261905D01*
X203539524Y-109166667D01*
X203587143Y-109071429D01*
X203634762Y-109023810D01*
X203730000Y-108976190D01*
X203920477Y-108928571D01*
X204015715Y-108880952D01*
X204063334Y-108833333D01*
X204110953Y-108738095D01*
X204110953Y-108642857D01*
X204063334Y-108547619D01*
X204015715Y-108500000D01*
X203920477Y-108452381D01*
X203682381Y-108452381D01*
X203539524Y-108500000D01*
X202968096Y-109452381D02*
X203063334Y-109404762D01*
X203110953Y-109357143D01*
X203158572Y-109261905D01*
X203158572Y-108976190D01*
X203110953Y-108880952D01*
X203063334Y-108833333D01*
X202968096Y-108785714D01*
X202825238Y-108785714D01*
X202730000Y-108833333D01*
X202682381Y-108880952D01*
X202634762Y-108976190D01*
X202634762Y-109261905D01*
X202682381Y-109357143D01*
X202730000Y-109404762D01*
X202825238Y-109452381D01*
X202968096Y-109452381D01*
X202349048Y-108785714D02*
X201968096Y-108785714D01*
X202206191Y-109452381D02*
X202206191Y-108595238D01*
X202158572Y-108500000D01*
X202063334Y-108452381D01*
X201968096Y-108452381D01*
X201777619Y-108785714D02*
X201396667Y-108785714D01*
X201634762Y-108452381D02*
X201634762Y-109309524D01*
X201587143Y-109404762D01*
X201491905Y-109452381D01*
X201396667Y-109452381D01*
X200349047Y-108404762D02*
X201206190Y-109690476D01*
X199825238Y-108452381D02*
X199634761Y-108452381D01*
X199539523Y-108500000D01*
X199444285Y-108595238D01*
X199396666Y-108785714D01*
X199396666Y-109119048D01*
X199444285Y-109309524D01*
X199539523Y-109404762D01*
X199634761Y-109452381D01*
X199825238Y-109452381D01*
X199920476Y-109404762D01*
X200015714Y-109309524D01*
X200063333Y-109119048D01*
X200063333Y-108785714D01*
X200015714Y-108595238D01*
X199920476Y-108500000D01*
X199825238Y-108452381D01*
X198968095Y-108785714D02*
X198968095Y-109785714D01*
X198968095Y-108833333D02*
X198872857Y-108785714D01*
X198682380Y-108785714D01*
X198587142Y-108833333D01*
X198539523Y-108880952D01*
X198491904Y-108976190D01*
X198491904Y-109261905D01*
X198539523Y-109357143D01*
X198587142Y-109404762D01*
X198682380Y-109452381D01*
X198872857Y-109452381D01*
X198968095Y-109404762D01*
X197682380Y-109404762D02*
X197777618Y-109452381D01*
X197968095Y-109452381D01*
X198063333Y-109404762D01*
X198110952Y-109309524D01*
X198110952Y-108928571D01*
X198063333Y-108833333D01*
X197968095Y-108785714D01*
X197777618Y-108785714D01*
X197682380Y-108833333D01*
X197634761Y-108928571D01*
X197634761Y-109023810D01*
X198110952Y-109119048D01*
X197206190Y-108785714D02*
X197206190Y-109452381D01*
X197206190Y-108880952D02*
X197158571Y-108833333D01*
X197063333Y-108785714D01*
X196920475Y-108785714D01*
X196825237Y-108833333D01*
X196777618Y-108928571D01*
X196777618Y-109452381D01*
X196349047Y-109404762D02*
X196206190Y-109452381D01*
X195968094Y-109452381D01*
X195872856Y-109404762D01*
X195825237Y-109357143D01*
X195777618Y-109261905D01*
X195777618Y-109166667D01*
X195825237Y-109071429D01*
X195872856Y-109023810D01*
X195968094Y-108976190D01*
X196158571Y-108928571D01*
X196253809Y-108880952D01*
X196301428Y-108833333D01*
X196349047Y-108738095D01*
X196349047Y-108642857D01*
X196301428Y-108547619D01*
X196253809Y-108500000D01*
X196158571Y-108452381D01*
X195920475Y-108452381D01*
X195777618Y-108500000D01*
X195349047Y-109452381D02*
X195349047Y-108785714D01*
X195349047Y-108452381D02*
X195396666Y-108500000D01*
X195349047Y-108547619D01*
X195301428Y-108500000D01*
X195349047Y-108452381D01*
X195349047Y-108547619D01*
X194872857Y-109452381D02*
X194872857Y-108785714D01*
X194872857Y-108880952D02*
X194825238Y-108833333D01*
X194730000Y-108785714D01*
X194587142Y-108785714D01*
X194491904Y-108833333D01*
X194444285Y-108928571D01*
X194444285Y-109452381D01*
X194444285Y-108928571D02*
X194396666Y-108833333D01*
X194301428Y-108785714D01*
X194158571Y-108785714D01*
X194063333Y-108833333D01*
X194015714Y-108928571D01*
X194015714Y-109452381D01*
X193206190Y-108928571D02*
X193063333Y-108976190D01*
X193015714Y-109023810D01*
X192968095Y-109119048D01*
X192968095Y-109261905D01*
X193015714Y-109357143D01*
X193063333Y-109404762D01*
X193158571Y-109452381D01*
X193539524Y-109452381D01*
X193539524Y-108452381D01*
X193206190Y-108452381D01*
X193110952Y-108500000D01*
X193063333Y-108547619D01*
X193015714Y-108642857D01*
X193015714Y-108738095D01*
X193063333Y-108833333D01*
X193110952Y-108880952D01*
X193206190Y-108928571D01*
X193539524Y-108928571D01*
X192110952Y-108785714D02*
X192110952Y-109452381D01*
X192539524Y-108785714D02*
X192539524Y-109309524D01*
X192491905Y-109404762D01*
X192396667Y-109452381D01*
X192253809Y-109452381D01*
X192158571Y-109404762D01*
X192110952Y-109357143D01*
X191777619Y-108785714D02*
X191396667Y-108785714D01*
X191634762Y-108452381D02*
X191634762Y-109309524D01*
X191587143Y-109404762D01*
X191491905Y-109452381D01*
X191396667Y-109452381D01*
X191206190Y-108785714D02*
X190825238Y-108785714D01*
X191063333Y-108452381D02*
X191063333Y-109309524D01*
X191015714Y-109404762D01*
X190920476Y-109452381D01*
X190825238Y-109452381D01*
X190349047Y-109452381D02*
X190444285Y-109404762D01*
X190491904Y-109357143D01*
X190539523Y-109261905D01*
X190539523Y-108976190D01*
X190491904Y-108880952D01*
X190444285Y-108833333D01*
X190349047Y-108785714D01*
X190206189Y-108785714D01*
X190110951Y-108833333D01*
X190063332Y-108880952D01*
X190015713Y-108976190D01*
X190015713Y-109261905D01*
X190063332Y-109357143D01*
X190110951Y-109404762D01*
X190206189Y-109452381D01*
X190349047Y-109452381D01*
X189587142Y-108785714D02*
X189587142Y-109452381D01*
X189587142Y-108880952D02*
X189539523Y-108833333D01*
X189444285Y-108785714D01*
X189301427Y-108785714D01*
X189206189Y-108833333D01*
X189158570Y-108928571D01*
X189158570Y-109452381D01*
X188349046Y-108928571D02*
X188206189Y-108976190D01*
X188158570Y-109023810D01*
X188110951Y-109119048D01*
X188110951Y-109261905D01*
X188158570Y-109357143D01*
X188206189Y-109404762D01*
X188301427Y-109452381D01*
X188682380Y-109452381D01*
X188682380Y-108452381D01*
X188349046Y-108452381D01*
X188253808Y-108500000D01*
X188206189Y-108547619D01*
X188158570Y-108642857D01*
X188158570Y-108738095D01*
X188206189Y-108833333D01*
X188253808Y-108880952D01*
X188349046Y-108928571D01*
X188682380Y-108928571D01*
X187539523Y-109452381D02*
X187634761Y-109404762D01*
X187682380Y-109357143D01*
X187729999Y-109261905D01*
X187729999Y-108976190D01*
X187682380Y-108880952D01*
X187634761Y-108833333D01*
X187539523Y-108785714D01*
X187396665Y-108785714D01*
X187301427Y-108833333D01*
X187253808Y-108880952D01*
X187206189Y-108976190D01*
X187206189Y-109261905D01*
X187253808Y-109357143D01*
X187301427Y-109404762D01*
X187396665Y-109452381D01*
X187539523Y-109452381D01*
X186872856Y-109452381D02*
X186349046Y-108785714D01*
X186872856Y-108785714D02*
X186349046Y-109452381D01*
D12*
X209935715Y-105276429D02*
X209978572Y-105319286D01*
X210107143Y-105362143D01*
X210192857Y-105362143D01*
X210321429Y-105319286D01*
X210407143Y-105233571D01*
X210450000Y-105147857D01*
X210492857Y-104976429D01*
X210492857Y-104847857D01*
X210450000Y-104676429D01*
X210407143Y-104590714D01*
X210321429Y-104505000D01*
X210192857Y-104462143D01*
X210107143Y-104462143D01*
X209978572Y-104505000D01*
X209935715Y-104547857D01*
X209164286Y-104762143D02*
X209164286Y-105362143D01*
X209550000Y-104762143D02*
X209550000Y-105233571D01*
X209507143Y-105319286D01*
X209421429Y-105362143D01*
X209292857Y-105362143D01*
X209207143Y-105319286D01*
X209164286Y-105276429D01*
X208864286Y-104762143D02*
X208521429Y-104762143D01*
X208735714Y-104462143D02*
X208735714Y-105233571D01*
X208692857Y-105319286D01*
X208607143Y-105362143D01*
X208521429Y-105362143D01*
X207900000Y-105505000D02*
X207900000Y-105305000D01*
X207900000Y-105055000D02*
X207900000Y-104855000D01*
X207900000Y-104580000D02*
X207900000Y-104380000D01*
X210750000Y-105655000D02*
X210750000Y-104230000D01*
X210750000Y-104230000D02*
X205950000Y-104230000D01*
X205950000Y-104230000D02*
X205950000Y-105655000D01*
X210750000Y-105655000D02*
X205950000Y-105655000D01*
X210750000Y-127525000D02*
X205950000Y-127525000D01*
X205950000Y-126100000D02*
X205950000Y-127525000D01*
X210750000Y-126100000D02*
X205950000Y-126100000D01*
X210750000Y-127525000D02*
X210750000Y-126100000D01*
X207900000Y-126450000D02*
X207900000Y-126250000D01*
X207900000Y-126925000D02*
X207900000Y-126725000D01*
X207900000Y-127375000D02*
X207900000Y-127175000D01*
X209935715Y-127146429D02*
X209978572Y-127189286D01*
X210107143Y-127232143D01*
X210192857Y-127232143D01*
X210321429Y-127189286D01*
X210407143Y-127103571D01*
X210450000Y-127017857D01*
X210492857Y-126846429D01*
X210492857Y-126717857D01*
X210450000Y-126546429D01*
X210407143Y-126460714D01*
X210321429Y-126375000D01*
X210192857Y-126332143D01*
X210107143Y-126332143D01*
X209978572Y-126375000D01*
X209935715Y-126417857D01*
X209164286Y-126632143D02*
X209164286Y-127232143D01*
X209550000Y-126632143D02*
X209550000Y-127103571D01*
X209507143Y-127189286D01*
X209421429Y-127232143D01*
X209292857Y-127232143D01*
X209207143Y-127189286D01*
X209164286Y-127146429D01*
X208864286Y-126632143D02*
X208521429Y-126632143D01*
X208735714Y-126332143D02*
X208735714Y-127103571D01*
X208692857Y-127189286D01*
X208607143Y-127232143D01*
X208521429Y-127232143D01*
D13*
X217587143Y-130655714D02*
X217587143Y-131465238D01*
X217634762Y-131560476D01*
X217682381Y-131608095D01*
X217777620Y-131655714D01*
X217920477Y-131655714D01*
X218015715Y-131608095D01*
X217587143Y-131274762D02*
X217682381Y-131322381D01*
X217872858Y-131322381D01*
X217968096Y-131274762D01*
X218015715Y-131227143D01*
X218063334Y-131131905D01*
X218063334Y-130846190D01*
X218015715Y-130750952D01*
X217968096Y-130703333D01*
X217872858Y-130655714D01*
X217682381Y-130655714D01*
X217587143Y-130703333D01*
X217110953Y-131322381D02*
X217110953Y-130655714D01*
X217110953Y-130322381D02*
X217158572Y-130370000D01*
X217110953Y-130417619D01*
X217063334Y-130370000D01*
X217110953Y-130322381D01*
X217110953Y-130417619D01*
X216777620Y-130655714D02*
X216396668Y-130655714D01*
X216634763Y-130322381D02*
X216634763Y-131179524D01*
X216587144Y-131274762D01*
X216491906Y-131322381D01*
X216396668Y-131322381D01*
X216063334Y-131322381D02*
X216063334Y-130322381D01*
X215634762Y-131322381D02*
X215634762Y-130798571D01*
X215682381Y-130703333D01*
X215777619Y-130655714D01*
X215920477Y-130655714D01*
X216015715Y-130703333D01*
X216063334Y-130750952D01*
X214730000Y-130655714D02*
X214730000Y-131322381D01*
X215158572Y-130655714D02*
X215158572Y-131179524D01*
X215110953Y-131274762D01*
X215015715Y-131322381D01*
X214872857Y-131322381D01*
X214777619Y-131274762D01*
X214730000Y-131227143D01*
X214253810Y-131322381D02*
X214253810Y-130322381D01*
X214253810Y-130703333D02*
X214158572Y-130655714D01*
X213968095Y-130655714D01*
X213872857Y-130703333D01*
X213825238Y-130750952D01*
X213777619Y-130846190D01*
X213777619Y-131131905D01*
X213825238Y-131227143D01*
X213872857Y-131274762D01*
X213968095Y-131322381D01*
X214158572Y-131322381D01*
X214253810Y-131274762D01*
X213349048Y-131227143D02*
X213301429Y-131274762D01*
X213349048Y-131322381D01*
X213396667Y-131274762D01*
X213349048Y-131227143D01*
X213349048Y-131322381D01*
X212444286Y-131274762D02*
X212539524Y-131322381D01*
X212730001Y-131322381D01*
X212825239Y-131274762D01*
X212872858Y-131227143D01*
X212920477Y-131131905D01*
X212920477Y-130846190D01*
X212872858Y-130750952D01*
X212825239Y-130703333D01*
X212730001Y-130655714D01*
X212539524Y-130655714D01*
X212444286Y-130703333D01*
X211872858Y-131322381D02*
X211968096Y-131274762D01*
X212015715Y-131227143D01*
X212063334Y-131131905D01*
X212063334Y-130846190D01*
X212015715Y-130750952D01*
X211968096Y-130703333D01*
X211872858Y-130655714D01*
X211730000Y-130655714D01*
X211634762Y-130703333D01*
X211587143Y-130750952D01*
X211539524Y-130846190D01*
X211539524Y-131131905D01*
X211587143Y-131227143D01*
X211634762Y-131274762D01*
X211730000Y-131322381D01*
X211872858Y-131322381D01*
X211110953Y-131322381D02*
X211110953Y-130655714D01*
X211110953Y-130750952D02*
X211063334Y-130703333D01*
X210968096Y-130655714D01*
X210825238Y-130655714D01*
X210730000Y-130703333D01*
X210682381Y-130798571D01*
X210682381Y-131322381D01*
X210682381Y-130798571D02*
X210634762Y-130703333D01*
X210539524Y-130655714D01*
X210396667Y-130655714D01*
X210301429Y-130703333D01*
X210253810Y-130798571D01*
X210253810Y-131322381D01*
X209063334Y-130274762D02*
X209920477Y-131560476D01*
X208730001Y-131322381D02*
X208730001Y-130322381D01*
X208158572Y-131322381D02*
X208587144Y-130750952D01*
X208158572Y-130322381D02*
X208730001Y-130893810D01*
X207301429Y-131322381D02*
X207301429Y-130798571D01*
X207349048Y-130703333D01*
X207444286Y-130655714D01*
X207634763Y-130655714D01*
X207730001Y-130703333D01*
X207301429Y-131274762D02*
X207396667Y-131322381D01*
X207634763Y-131322381D01*
X207730001Y-131274762D01*
X207777620Y-131179524D01*
X207777620Y-131084286D01*
X207730001Y-130989048D01*
X207634763Y-130941429D01*
X207396667Y-130941429D01*
X207301429Y-130893810D01*
X206825239Y-131322381D02*
X206825239Y-130655714D01*
X206825239Y-130322381D02*
X206872858Y-130370000D01*
X206825239Y-130417619D01*
X206777620Y-130370000D01*
X206825239Y-130322381D01*
X206825239Y-130417619D01*
X206396668Y-131274762D02*
X206301430Y-131322381D01*
X206110954Y-131322381D01*
X206015715Y-131274762D01*
X205968096Y-131179524D01*
X205968096Y-131131905D01*
X206015715Y-131036667D01*
X206110954Y-130989048D01*
X206253811Y-130989048D01*
X206349049Y-130941429D01*
X206396668Y-130846190D01*
X206396668Y-130798571D01*
X206349049Y-130703333D01*
X206253811Y-130655714D01*
X206110954Y-130655714D01*
X206015715Y-130703333D01*
X205158572Y-131274762D02*
X205253810Y-131322381D01*
X205444287Y-131322381D01*
X205539525Y-131274762D01*
X205587144Y-131179524D01*
X205587144Y-130798571D01*
X205539525Y-130703333D01*
X205444287Y-130655714D01*
X205253810Y-130655714D01*
X205158572Y-130703333D01*
X205110953Y-130798571D01*
X205110953Y-130893810D01*
X205587144Y-130989048D01*
X204682382Y-131322381D02*
X204682382Y-130655714D01*
X204682382Y-130846190D02*
X204634763Y-130750952D01*
X204587144Y-130703333D01*
X204491906Y-130655714D01*
X204396667Y-130655714D01*
X204110953Y-131274762D02*
X203968096Y-131322381D01*
X203730000Y-131322381D01*
X203634762Y-131274762D01*
X203587143Y-131227143D01*
X203539524Y-131131905D01*
X203539524Y-131036667D01*
X203587143Y-130941429D01*
X203634762Y-130893810D01*
X203730000Y-130846190D01*
X203920477Y-130798571D01*
X204015715Y-130750952D01*
X204063334Y-130703333D01*
X204110953Y-130608095D01*
X204110953Y-130512857D01*
X204063334Y-130417619D01*
X204015715Y-130370000D01*
X203920477Y-130322381D01*
X203682381Y-130322381D01*
X203539524Y-130370000D01*
X202968096Y-131322381D02*
X203063334Y-131274762D01*
X203110953Y-131227143D01*
X203158572Y-131131905D01*
X203158572Y-130846190D01*
X203110953Y-130750952D01*
X203063334Y-130703333D01*
X202968096Y-130655714D01*
X202825238Y-130655714D01*
X202730000Y-130703333D01*
X202682381Y-130750952D01*
X202634762Y-130846190D01*
X202634762Y-131131905D01*
X202682381Y-131227143D01*
X202730000Y-131274762D01*
X202825238Y-131322381D01*
X202968096Y-131322381D01*
X202349048Y-130655714D02*
X201968096Y-130655714D01*
X202206191Y-131322381D02*
X202206191Y-130465238D01*
X202158572Y-130370000D01*
X202063334Y-130322381D01*
X201968096Y-130322381D01*
X201777619Y-130655714D02*
X201396667Y-130655714D01*
X201634762Y-130322381D02*
X201634762Y-131179524D01*
X201587143Y-131274762D01*
X201491905Y-131322381D01*
X201396667Y-131322381D01*
X200349047Y-130274762D02*
X201206190Y-131560476D01*
X199825238Y-130322381D02*
X199634761Y-130322381D01*
X199539523Y-130370000D01*
X199444285Y-130465238D01*
X199396666Y-130655714D01*
X199396666Y-130989048D01*
X199444285Y-131179524D01*
X199539523Y-131274762D01*
X199634761Y-131322381D01*
X199825238Y-131322381D01*
X199920476Y-131274762D01*
X200015714Y-131179524D01*
X200063333Y-130989048D01*
X200063333Y-130655714D01*
X200015714Y-130465238D01*
X199920476Y-130370000D01*
X199825238Y-130322381D01*
X198968095Y-130655714D02*
X198968095Y-131655714D01*
X198968095Y-130703333D02*
X198872857Y-130655714D01*
X198682380Y-130655714D01*
X198587142Y-130703333D01*
X198539523Y-130750952D01*
X198491904Y-130846190D01*
X198491904Y-131131905D01*
X198539523Y-131227143D01*
X198587142Y-131274762D01*
X198682380Y-131322381D01*
X198872857Y-131322381D01*
X198968095Y-131274762D01*
X197682380Y-131274762D02*
X197777618Y-131322381D01*
X197968095Y-131322381D01*
X198063333Y-131274762D01*
X198110952Y-131179524D01*
X198110952Y-130798571D01*
X198063333Y-130703333D01*
X197968095Y-130655714D01*
X197777618Y-130655714D01*
X197682380Y-130703333D01*
X197634761Y-130798571D01*
X197634761Y-130893810D01*
X198110952Y-130989048D01*
X197206190Y-130655714D02*
X197206190Y-131322381D01*
X197206190Y-130750952D02*
X197158571Y-130703333D01*
X197063333Y-130655714D01*
X196920475Y-130655714D01*
X196825237Y-130703333D01*
X196777618Y-130798571D01*
X196777618Y-131322381D01*
X196349047Y-131274762D02*
X196206190Y-131322381D01*
X195968094Y-131322381D01*
X195872856Y-131274762D01*
X195825237Y-131227143D01*
X195777618Y-131131905D01*
X195777618Y-131036667D01*
X195825237Y-130941429D01*
X195872856Y-130893810D01*
X195968094Y-130846190D01*
X196158571Y-130798571D01*
X196253809Y-130750952D01*
X196301428Y-130703333D01*
X196349047Y-130608095D01*
X196349047Y-130512857D01*
X196301428Y-130417619D01*
X196253809Y-130370000D01*
X196158571Y-130322381D01*
X195920475Y-130322381D01*
X195777618Y-130370000D01*
X195349047Y-131322381D02*
X195349047Y-130655714D01*
X195349047Y-130322381D02*
X195396666Y-130370000D01*
X195349047Y-130417619D01*
X195301428Y-130370000D01*
X195349047Y-130322381D01*
X195349047Y-130417619D01*
X194872857Y-131322381D02*
X194872857Y-130655714D01*
X194872857Y-130750952D02*
X194825238Y-130703333D01*
X194730000Y-130655714D01*
X194587142Y-130655714D01*
X194491904Y-130703333D01*
X194444285Y-130798571D01*
X194444285Y-131322381D01*
X194444285Y-130798571D02*
X194396666Y-130703333D01*
X194301428Y-130655714D01*
X194158571Y-130655714D01*
X194063333Y-130703333D01*
X194015714Y-130798571D01*
X194015714Y-131322381D01*
X193206190Y-130798571D02*
X193063333Y-130846190D01*
X193015714Y-130893810D01*
X192968095Y-130989048D01*
X192968095Y-131131905D01*
X193015714Y-131227143D01*
X193063333Y-131274762D01*
X193158571Y-131322381D01*
X193539524Y-131322381D01*
X193539524Y-130322381D01*
X193206190Y-130322381D01*
X193110952Y-130370000D01*
X193063333Y-130417619D01*
X193015714Y-130512857D01*
X193015714Y-130608095D01*
X193063333Y-130703333D01*
X193110952Y-130750952D01*
X193206190Y-130798571D01*
X193539524Y-130798571D01*
X192110952Y-130655714D02*
X192110952Y-131322381D01*
X192539524Y-130655714D02*
X192539524Y-131179524D01*
X192491905Y-131274762D01*
X192396667Y-131322381D01*
X192253809Y-131322381D01*
X192158571Y-131274762D01*
X192110952Y-131227143D01*
X191777619Y-130655714D02*
X191396667Y-130655714D01*
X191634762Y-130322381D02*
X191634762Y-131179524D01*
X191587143Y-131274762D01*
X191491905Y-131322381D01*
X191396667Y-131322381D01*
X191206190Y-130655714D02*
X190825238Y-130655714D01*
X191063333Y-130322381D02*
X191063333Y-131179524D01*
X191015714Y-131274762D01*
X190920476Y-131322381D01*
X190825238Y-131322381D01*
X190349047Y-131322381D02*
X190444285Y-131274762D01*
X190491904Y-131227143D01*
X190539523Y-131131905D01*
X190539523Y-130846190D01*
X190491904Y-130750952D01*
X190444285Y-130703333D01*
X190349047Y-130655714D01*
X190206189Y-130655714D01*
X190110951Y-130703333D01*
X190063332Y-130750952D01*
X190015713Y-130846190D01*
X190015713Y-131131905D01*
X190063332Y-131227143D01*
X190110951Y-131274762D01*
X190206189Y-131322381D01*
X190349047Y-131322381D01*
X189587142Y-130655714D02*
X189587142Y-131322381D01*
X189587142Y-130750952D02*
X189539523Y-130703333D01*
X189444285Y-130655714D01*
X189301427Y-130655714D01*
X189206189Y-130703333D01*
X189158570Y-130798571D01*
X189158570Y-131322381D01*
X188349046Y-130798571D02*
X188206189Y-130846190D01*
X188158570Y-130893810D01*
X188110951Y-130989048D01*
X188110951Y-131131905D01*
X188158570Y-131227143D01*
X188206189Y-131274762D01*
X188301427Y-131322381D01*
X188682380Y-131322381D01*
X188682380Y-130322381D01*
X188349046Y-130322381D01*
X188253808Y-130370000D01*
X188206189Y-130417619D01*
X188158570Y-130512857D01*
X188158570Y-130608095D01*
X188206189Y-130703333D01*
X188253808Y-130750952D01*
X188349046Y-130798571D01*
X188682380Y-130798571D01*
X187539523Y-131322381D02*
X187634761Y-131274762D01*
X187682380Y-131227143D01*
X187729999Y-131131905D01*
X187729999Y-130846190D01*
X187682380Y-130750952D01*
X187634761Y-130703333D01*
X187539523Y-130655714D01*
X187396665Y-130655714D01*
X187301427Y-130703333D01*
X187253808Y-130750952D01*
X187206189Y-130846190D01*
X187206189Y-131131905D01*
X187253808Y-131227143D01*
X187301427Y-131274762D01*
X187396665Y-131322381D01*
X187539523Y-131322381D01*
X186872856Y-131322381D02*
X186349046Y-130655714D01*
X186872856Y-130655714D02*
X186349046Y-131322381D01*
D12*
X201215714Y-122922143D02*
X201215714Y-122022143D01*
X200915714Y-122665000D01*
X200615714Y-122022143D01*
X200615714Y-122922143D01*
X200015715Y-122022143D02*
X199844286Y-122022143D01*
X199758572Y-122065000D01*
X199672858Y-122150714D01*
X199630000Y-122322143D01*
X199630000Y-122622143D01*
X199672858Y-122793571D01*
X199758572Y-122879286D01*
X199844286Y-122922143D01*
X200015715Y-122922143D01*
X200101429Y-122879286D01*
X200187143Y-122793571D01*
X200230000Y-122622143D01*
X200230000Y-122322143D01*
X200187143Y-122150714D01*
X200101429Y-122065000D01*
X200015715Y-122022143D01*
X198944286Y-122450714D02*
X198815715Y-122493571D01*
X198772858Y-122536429D01*
X198730001Y-122622143D01*
X198730001Y-122750714D01*
X198772858Y-122836429D01*
X198815715Y-122879286D01*
X198901429Y-122922143D01*
X199244286Y-122922143D01*
X199244286Y-122022143D01*
X198944286Y-122022143D01*
X198858572Y-122065000D01*
X198815715Y-122107857D01*
X198772858Y-122193571D01*
X198772858Y-122279286D01*
X198815715Y-122365000D01*
X198858572Y-122407857D01*
X198944286Y-122450714D01*
X199244286Y-122450714D01*
X198044286Y-122450714D02*
X197915715Y-122493571D01*
X197872858Y-122536429D01*
X197830001Y-122622143D01*
X197830001Y-122750714D01*
X197872858Y-122836429D01*
X197915715Y-122879286D01*
X198001429Y-122922143D01*
X198344286Y-122922143D01*
X198344286Y-122022143D01*
X198044286Y-122022143D01*
X197958572Y-122065000D01*
X197915715Y-122107857D01*
X197872858Y-122193571D01*
X197872858Y-122279286D01*
X197915715Y-122365000D01*
X197958572Y-122407857D01*
X198044286Y-122450714D01*
X198344286Y-122450714D01*
X196458572Y-122450714D02*
X196758572Y-122450714D01*
X196758572Y-122922143D02*
X196758572Y-122022143D01*
X196330001Y-122022143D01*
X195601429Y-122922143D02*
X195601429Y-122450714D01*
X195644286Y-122365000D01*
X195730000Y-122322143D01*
X195901429Y-122322143D01*
X195987143Y-122365000D01*
X195601429Y-122879286D02*
X195687143Y-122922143D01*
X195901429Y-122922143D01*
X195987143Y-122879286D01*
X196030000Y-122793571D01*
X196030000Y-122707857D01*
X195987143Y-122622143D01*
X195901429Y-122579286D01*
X195687143Y-122579286D01*
X195601429Y-122536429D01*
X195172857Y-122322143D02*
X195172857Y-122922143D01*
X195172857Y-122407857D02*
X195130000Y-122365000D01*
X195044286Y-122322143D01*
X194915714Y-122322143D01*
X194830000Y-122365000D01*
X194787143Y-122450714D01*
X194787143Y-122922143D01*
X193372857Y-122450714D02*
X193244286Y-122493571D01*
X193201429Y-122536429D01*
X193158572Y-122622143D01*
X193158572Y-122750714D01*
X193201429Y-122836429D01*
X193244286Y-122879286D01*
X193330000Y-122922143D01*
X193672857Y-122922143D01*
X193672857Y-122022143D01*
X193372857Y-122022143D01*
X193287143Y-122065000D01*
X193244286Y-122107857D01*
X193201429Y-122193571D01*
X193201429Y-122279286D01*
X193244286Y-122365000D01*
X193287143Y-122407857D01*
X193372857Y-122450714D01*
X193672857Y-122450714D01*
X192644286Y-122922143D02*
X192730000Y-122879286D01*
X192772857Y-122836429D01*
X192815714Y-122750714D01*
X192815714Y-122493571D01*
X192772857Y-122407857D01*
X192730000Y-122365000D01*
X192644286Y-122322143D01*
X192515714Y-122322143D01*
X192430000Y-122365000D01*
X192387143Y-122407857D01*
X192344286Y-122493571D01*
X192344286Y-122750714D01*
X192387143Y-122836429D01*
X192430000Y-122879286D01*
X192515714Y-122922143D01*
X192644286Y-122922143D01*
X191572857Y-122922143D02*
X191572857Y-122450714D01*
X191615714Y-122365000D01*
X191701428Y-122322143D01*
X191872857Y-122322143D01*
X191958571Y-122365000D01*
X191572857Y-122879286D02*
X191658571Y-122922143D01*
X191872857Y-122922143D01*
X191958571Y-122879286D01*
X192001428Y-122793571D01*
X192001428Y-122707857D01*
X191958571Y-122622143D01*
X191872857Y-122579286D01*
X191658571Y-122579286D01*
X191572857Y-122536429D01*
X191144285Y-122922143D02*
X191144285Y-122322143D01*
X191144285Y-122493571D02*
X191101428Y-122407857D01*
X191058571Y-122365000D01*
X190972857Y-122322143D01*
X190887142Y-122322143D01*
X190201428Y-122922143D02*
X190201428Y-122022143D01*
X190201428Y-122879286D02*
X190287142Y-122922143D01*
X190458571Y-122922143D01*
X190544285Y-122879286D01*
X190587142Y-122836429D01*
X190629999Y-122750714D01*
X190629999Y-122493571D01*
X190587142Y-122407857D01*
X190544285Y-122365000D01*
X190458571Y-122322143D01*
X190287142Y-122322143D01*
X190201428Y-122365000D01*
X200958571Y-124815000D02*
X201001429Y-124772143D01*
X201087143Y-124643571D01*
X201130000Y-124557857D01*
X201172857Y-124429286D01*
X201215714Y-124215000D01*
X201215714Y-124043571D01*
X201172857Y-123829286D01*
X201130000Y-123700714D01*
X201087143Y-123615000D01*
X201001429Y-123486429D01*
X200958571Y-123443571D01*
X200230000Y-124429286D02*
X200315714Y-124472143D01*
X200487143Y-124472143D01*
X200572857Y-124429286D01*
X200615714Y-124386429D01*
X200658571Y-124300714D01*
X200658571Y-124043571D01*
X200615714Y-123957857D01*
X200572857Y-123915000D01*
X200487143Y-123872143D01*
X200315714Y-123872143D01*
X200230000Y-123915000D01*
X199930000Y-124815000D02*
X199887142Y-124772143D01*
X199801428Y-124643571D01*
X199758571Y-124557857D01*
X199715714Y-124429286D01*
X199672857Y-124215000D01*
X199672857Y-124043571D01*
X199715714Y-123829286D01*
X199758571Y-123700714D01*
X199801428Y-123615000D01*
X199887142Y-123486429D01*
X199930000Y-123443571D01*
X198601428Y-123657857D02*
X198558571Y-123615000D01*
X198472857Y-123572143D01*
X198258571Y-123572143D01*
X198172857Y-123615000D01*
X198130000Y-123657857D01*
X198087143Y-123743571D01*
X198087143Y-123829286D01*
X198130000Y-123957857D01*
X198644286Y-124472143D01*
X198087143Y-124472143D01*
X197530000Y-123572143D02*
X197444285Y-123572143D01*
X197358571Y-123615000D01*
X197315714Y-123657857D01*
X197272857Y-123743571D01*
X197230000Y-123915000D01*
X197230000Y-124129286D01*
X197272857Y-124300714D01*
X197315714Y-124386429D01*
X197358571Y-124429286D01*
X197444285Y-124472143D01*
X197530000Y-124472143D01*
X197615714Y-124429286D01*
X197658571Y-124386429D01*
X197701428Y-124300714D01*
X197744285Y-124129286D01*
X197744285Y-123915000D01*
X197701428Y-123743571D01*
X197658571Y-123657857D01*
X197615714Y-123615000D01*
X197530000Y-123572143D01*
X196372857Y-124472143D02*
X196887142Y-124472143D01*
X196630000Y-124472143D02*
X196630000Y-123572143D01*
X196715714Y-123700714D01*
X196801428Y-123786429D01*
X196887142Y-123829286D01*
X195601428Y-123572143D02*
X195772857Y-123572143D01*
X195858571Y-123615000D01*
X195901428Y-123657857D01*
X195987142Y-123786429D01*
X196029999Y-123957857D01*
X196029999Y-124300714D01*
X195987142Y-124386429D01*
X195944285Y-124429286D01*
X195858571Y-124472143D01*
X195687142Y-124472143D01*
X195601428Y-124429286D01*
X195558571Y-124386429D01*
X195515714Y-124300714D01*
X195515714Y-124086429D01*
X195558571Y-124000714D01*
X195601428Y-123957857D01*
X195687142Y-123915000D01*
X195858571Y-123915000D01*
X195944285Y-123957857D01*
X195987142Y-124000714D01*
X196029999Y-124086429D01*
X194444285Y-124472143D02*
X194444285Y-123572143D01*
X194144285Y-124215000D01*
X193844285Y-123572143D01*
X193844285Y-124472143D01*
X193415714Y-124472143D02*
X193415714Y-123872143D01*
X193415714Y-123572143D02*
X193458571Y-123615000D01*
X193415714Y-123657857D01*
X193372857Y-123615000D01*
X193415714Y-123572143D01*
X193415714Y-123657857D01*
X192987143Y-124472143D02*
X192987143Y-123872143D01*
X192987143Y-124043571D02*
X192944286Y-123957857D01*
X192901429Y-123915000D01*
X192815715Y-123872143D01*
X192730000Y-123872143D01*
X192430000Y-124472143D02*
X192430000Y-123572143D01*
X192344286Y-124129286D02*
X192087143Y-124472143D01*
X192087143Y-123872143D02*
X192430000Y-124215000D01*
X191572858Y-124472143D02*
X191658572Y-124429286D01*
X191701429Y-124386429D01*
X191744286Y-124300714D01*
X191744286Y-124043571D01*
X191701429Y-123957857D01*
X191658572Y-123915000D01*
X191572858Y-123872143D01*
X191444286Y-123872143D01*
X191358572Y-123915000D01*
X191315715Y-123957857D01*
X191272858Y-124043571D01*
X191272858Y-124300714D01*
X191315715Y-124386429D01*
X191358572Y-124429286D01*
X191444286Y-124472143D01*
X191572858Y-124472143D01*
X190201429Y-124472143D02*
X190201429Y-123572143D01*
X189687144Y-124472143D02*
X190072858Y-123957857D01*
X189687144Y-123572143D02*
X190201429Y-124086429D01*
X188915715Y-124472143D02*
X188915715Y-124000714D01*
X188958572Y-123915000D01*
X189044286Y-123872143D01*
X189215715Y-123872143D01*
X189301429Y-123915000D01*
X188915715Y-124429286D02*
X189001429Y-124472143D01*
X189215715Y-124472143D01*
X189301429Y-124429286D01*
X189344286Y-124343571D01*
X189344286Y-124257857D01*
X189301429Y-124172143D01*
X189215715Y-124129286D01*
X189001429Y-124129286D01*
X188915715Y-124086429D01*
X188487143Y-124472143D02*
X188487143Y-123872143D01*
X188487143Y-123572143D02*
X188530000Y-123615000D01*
X188487143Y-123657857D01*
X188444286Y-123615000D01*
X188487143Y-123572143D01*
X188487143Y-123657857D01*
X188101429Y-124429286D02*
X188015715Y-124472143D01*
X187844287Y-124472143D01*
X187758572Y-124429286D01*
X187715715Y-124343571D01*
X187715715Y-124300714D01*
X187758572Y-124215000D01*
X187844287Y-124172143D01*
X187972858Y-124172143D01*
X188058572Y-124129286D01*
X188101429Y-124043571D01*
X188101429Y-124000714D01*
X188058572Y-123915000D01*
X187972858Y-123872143D01*
X187844287Y-123872143D01*
X187758572Y-123915000D01*
X186987144Y-124429286D02*
X187072858Y-124472143D01*
X187244287Y-124472143D01*
X187330001Y-124429286D01*
X187372858Y-124343571D01*
X187372858Y-124000714D01*
X187330001Y-123915000D01*
X187244287Y-123872143D01*
X187072858Y-123872143D01*
X186987144Y-123915000D01*
X186944287Y-124000714D01*
X186944287Y-124086429D01*
X187372858Y-124172143D01*
X186558572Y-124472143D02*
X186558572Y-123872143D01*
X186558572Y-124043571D02*
X186515715Y-123957857D01*
X186472858Y-123915000D01*
X186387144Y-123872143D01*
X186301429Y-123872143D01*
D14*
G36*
X213599320Y-107956200D02*
X213581540Y-107948580D01*
X213548520Y-107925720D01*
X213497720Y-107892700D01*
X213439300Y-107854600D01*
X213378340Y-107813960D01*
X213330080Y-107780940D01*
X213294520Y-107758080D01*
X213281820Y-107750460D01*
X213274200Y-107753000D01*
X213246260Y-107768240D01*
X213205620Y-107788560D01*
X213180220Y-107801260D01*
X213142120Y-107816500D01*
X213124340Y-107821580D01*
X213121800Y-107816500D01*
X213106560Y-107786020D01*
X213086240Y-107737760D01*
X213058300Y-107671720D01*
X213025280Y-107595520D01*
X212989720Y-107514240D01*
X212956700Y-107430420D01*
X212923680Y-107351680D01*
X212893200Y-107278020D01*
X212870340Y-107219600D01*
X212855100Y-107178960D01*
X212847480Y-107161180D01*
X212850020Y-107158640D01*
X212867800Y-107140860D01*
X212900820Y-107115460D01*
X212971940Y-107057040D01*
X213043060Y-106970680D01*
X213086240Y-106871620D01*
X213098940Y-106759860D01*
X213088780Y-106658260D01*
X213048140Y-106561740D01*
X212979560Y-106472840D01*
X212895740Y-106406800D01*
X212799220Y-106366160D01*
X212690000Y-106353460D01*
X212585860Y-106363620D01*
X212486800Y-106404260D01*
X212397900Y-106470300D01*
X212359800Y-106513480D01*
X212309000Y-106604920D01*
X212278520Y-106698900D01*
X212275980Y-106721760D01*
X212281060Y-106828440D01*
X212311540Y-106930040D01*
X212367420Y-107018940D01*
X212443620Y-107092600D01*
X212453780Y-107100220D01*
X212489340Y-107128160D01*
X212514740Y-107145940D01*
X212532520Y-107161180D01*
X212397900Y-107483760D01*
X212377580Y-107534560D01*
X212339480Y-107623460D01*
X212309000Y-107699660D01*
X212281060Y-107760620D01*
X212263280Y-107801260D01*
X212255660Y-107816500D01*
X212255660Y-107816500D01*
X212242960Y-107819040D01*
X212220100Y-107811420D01*
X212174380Y-107788560D01*
X212143900Y-107773320D01*
X212110880Y-107758080D01*
X212095640Y-107750460D01*
X212080400Y-107758080D01*
X212047380Y-107778400D01*
X212001660Y-107811420D01*
X211943240Y-107849520D01*
X211887360Y-107887620D01*
X211836560Y-107920640D01*
X211801000Y-107946040D01*
X211783220Y-107953660D01*
X211780680Y-107953660D01*
X211762900Y-107946040D01*
X211734960Y-107920640D01*
X211691780Y-107880000D01*
X211628280Y-107819040D01*
X211618120Y-107808880D01*
X211567320Y-107758080D01*
X211526680Y-107712360D01*
X211498740Y-107681880D01*
X211488580Y-107669180D01*
X211488580Y-107669180D01*
X211498740Y-107651400D01*
X211521600Y-107613300D01*
X211554620Y-107562500D01*
X211595260Y-107501540D01*
X211701940Y-107346600D01*
X211643520Y-107201820D01*
X211625740Y-107156100D01*
X211602880Y-107100220D01*
X211585100Y-107062120D01*
X211577480Y-107044340D01*
X211559700Y-107039260D01*
X211521600Y-107029100D01*
X211463180Y-107018940D01*
X211392060Y-107006240D01*
X211326020Y-106993540D01*
X211267600Y-106980840D01*
X211224420Y-106973220D01*
X211204100Y-106970680D01*
X211199020Y-106965600D01*
X211196480Y-106957980D01*
X211193940Y-106937660D01*
X211191400Y-106899560D01*
X211191400Y-106843680D01*
X211191400Y-106759860D01*
X211191400Y-106752240D01*
X211191400Y-106673500D01*
X211193940Y-106610000D01*
X211196480Y-106571900D01*
X211199020Y-106554120D01*
X211199020Y-106554120D01*
X211216800Y-106549040D01*
X211259980Y-106541420D01*
X211318400Y-106528720D01*
X211389520Y-106516020D01*
X211394600Y-106516020D01*
X211465720Y-106500780D01*
X211524140Y-106488080D01*
X211567320Y-106480460D01*
X211585100Y-106472840D01*
X211587640Y-106467760D01*
X211602880Y-106439820D01*
X211623200Y-106396640D01*
X211646060Y-106343300D01*
X211668920Y-106287420D01*
X211689240Y-106236620D01*
X211701940Y-106201060D01*
X211707020Y-106183280D01*
X211707020Y-106183280D01*
X211696860Y-106165500D01*
X211671460Y-106129940D01*
X211635900Y-106079140D01*
X211595260Y-106018180D01*
X211592720Y-106013100D01*
X211552080Y-105952140D01*
X211519060Y-105901340D01*
X211496200Y-105865780D01*
X211488580Y-105850540D01*
X211488580Y-105848000D01*
X211501280Y-105830220D01*
X211531760Y-105797200D01*
X211577480Y-105751480D01*
X211628280Y-105698140D01*
X211646060Y-105682900D01*
X211704480Y-105624480D01*
X211745120Y-105588920D01*
X211770520Y-105568600D01*
X211780680Y-105563520D01*
X211783220Y-105563520D01*
X211801000Y-105573680D01*
X211839100Y-105599080D01*
X211889900Y-105634640D01*
X211950860Y-105675280D01*
X211953400Y-105677820D01*
X212014360Y-105718460D01*
X212065160Y-105754020D01*
X212100720Y-105776880D01*
X212115960Y-105784500D01*
X212118500Y-105784500D01*
X212141360Y-105779420D01*
X212184540Y-105764180D01*
X212237880Y-105743860D01*
X212293760Y-105721000D01*
X212344560Y-105700680D01*
X212380120Y-105682900D01*
X212397900Y-105672740D01*
X212400440Y-105672740D01*
X212405520Y-105649880D01*
X212415680Y-105604160D01*
X212428380Y-105543200D01*
X212443620Y-105469540D01*
X212446160Y-105459380D01*
X212458860Y-105385720D01*
X212469020Y-105327300D01*
X212479180Y-105286660D01*
X212481720Y-105268880D01*
X212491880Y-105268880D01*
X212527440Y-105266340D01*
X212580780Y-105263800D01*
X212646820Y-105263800D01*
X212712860Y-105263800D01*
X212778900Y-105263800D01*
X212834780Y-105266340D01*
X212875420Y-105268880D01*
X212893200Y-105273960D01*
X212893200Y-105273960D01*
X212898280Y-105296820D01*
X212908440Y-105340000D01*
X212921140Y-105403500D01*
X212936380Y-105477160D01*
X212938920Y-105489860D01*
X212951620Y-105560980D01*
X212964320Y-105619400D01*
X212971940Y-105660040D01*
X212977020Y-105675280D01*
X212982100Y-105677820D01*
X213012580Y-105693060D01*
X213060840Y-105710840D01*
X213119260Y-105736240D01*
X213256420Y-105792120D01*
X213424060Y-105675280D01*
X213439300Y-105665120D01*
X213500260Y-105624480D01*
X213551060Y-105591460D01*
X213586620Y-105568600D01*
X213599320Y-105560980D01*
X213601860Y-105560980D01*
X213617100Y-105576220D01*
X213650120Y-105606700D01*
X213695840Y-105652420D01*
X213749180Y-105703220D01*
X213789820Y-105743860D01*
X213835540Y-105789580D01*
X213863480Y-105822600D01*
X213881260Y-105842920D01*
X213886340Y-105855620D01*
X213883800Y-105863240D01*
X213873640Y-105881020D01*
X213848240Y-105916580D01*
X213815220Y-105969920D01*
X213774580Y-106028340D01*
X213739020Y-106079140D01*
X213703460Y-106135020D01*
X213680600Y-106175660D01*
X213670440Y-106193440D01*
X213672980Y-106203600D01*
X213685680Y-106236620D01*
X213706000Y-106284880D01*
X213731400Y-106345840D01*
X213789820Y-106477920D01*
X213876180Y-106495700D01*
X213929520Y-106505860D01*
X214003180Y-106518560D01*
X214074300Y-106533800D01*
X214186060Y-106554120D01*
X214188600Y-106957980D01*
X214170820Y-106965600D01*
X214155580Y-106970680D01*
X214114940Y-106980840D01*
X214056520Y-106991000D01*
X213987940Y-107003700D01*
X213926980Y-107016400D01*
X213868560Y-107026560D01*
X213825380Y-107034180D01*
X213807600Y-107039260D01*
X213802520Y-107044340D01*
X213787280Y-107074820D01*
X213766960Y-107120540D01*
X213744100Y-107173880D01*
X213718700Y-107232300D01*
X213698380Y-107283100D01*
X213683140Y-107323740D01*
X213678060Y-107344060D01*
X213685680Y-107359300D01*
X213708540Y-107394860D01*
X213741560Y-107445660D01*
X213782200Y-107504080D01*
X213822840Y-107562500D01*
X213855860Y-107613300D01*
X213881260Y-107648860D01*
X213888880Y-107666640D01*
X213883800Y-107676800D01*
X213860940Y-107704740D01*
X213817760Y-107750460D01*
X213751720Y-107816500D01*
X213739020Y-107826660D01*
X213688220Y-107877460D01*
X213642500Y-107918100D01*
X213612020Y-107946040D01*
X213599320Y-107956200D01*
X213599320Y-107956200D01*
G37*
X213599320Y-107956200D02*
X213581540Y-107948580D01*
X213548520Y-107925720D01*
X213497720Y-107892700D01*
X213439300Y-107854600D01*
X213378340Y-107813960D01*
X213330080Y-107780940D01*
X213294520Y-107758080D01*
X213281820Y-107750460D01*
X213274200Y-107753000D01*
X213246260Y-107768240D01*
X213205620Y-107788560D01*
X213180220Y-107801260D01*
X213142120Y-107816500D01*
X213124340Y-107821580D01*
X213121800Y-107816500D01*
X213106560Y-107786020D01*
X213086240Y-107737760D01*
X213058300Y-107671720D01*
X213025280Y-107595520D01*
X212989720Y-107514240D01*
X212956700Y-107430420D01*
X212923680Y-107351680D01*
X212893200Y-107278020D01*
X212870340Y-107219600D01*
X212855100Y-107178960D01*
X212847480Y-107161180D01*
X212850020Y-107158640D01*
X212867800Y-107140860D01*
X212900820Y-107115460D01*
X212971940Y-107057040D01*
X213043060Y-106970680D01*
X213086240Y-106871620D01*
X213098940Y-106759860D01*
X213088780Y-106658260D01*
X213048140Y-106561740D01*
X212979560Y-106472840D01*
X212895740Y-106406800D01*
X212799220Y-106366160D01*
X212690000Y-106353460D01*
X212585860Y-106363620D01*
X212486800Y-106404260D01*
X212397900Y-106470300D01*
X212359800Y-106513480D01*
X212309000Y-106604920D01*
X212278520Y-106698900D01*
X212275980Y-106721760D01*
X212281060Y-106828440D01*
X212311540Y-106930040D01*
X212367420Y-107018940D01*
X212443620Y-107092600D01*
X212453780Y-107100220D01*
X212489340Y-107128160D01*
X212514740Y-107145940D01*
X212532520Y-107161180D01*
X212397900Y-107483760D01*
X212377580Y-107534560D01*
X212339480Y-107623460D01*
X212309000Y-107699660D01*
X212281060Y-107760620D01*
X212263280Y-107801260D01*
X212255660Y-107816500D01*
X212255660Y-107816500D01*
X212242960Y-107819040D01*
X212220100Y-107811420D01*
X212174380Y-107788560D01*
X212143900Y-107773320D01*
X212110880Y-107758080D01*
X212095640Y-107750460D01*
X212080400Y-107758080D01*
X212047380Y-107778400D01*
X212001660Y-107811420D01*
X211943240Y-107849520D01*
X211887360Y-107887620D01*
X211836560Y-107920640D01*
X211801000Y-107946040D01*
X211783220Y-107953660D01*
X211780680Y-107953660D01*
X211762900Y-107946040D01*
X211734960Y-107920640D01*
X211691780Y-107880000D01*
X211628280Y-107819040D01*
X211618120Y-107808880D01*
X211567320Y-107758080D01*
X211526680Y-107712360D01*
X211498740Y-107681880D01*
X211488580Y-107669180D01*
X211488580Y-107669180D01*
X211498740Y-107651400D01*
X211521600Y-107613300D01*
X211554620Y-107562500D01*
X211595260Y-107501540D01*
X211701940Y-107346600D01*
X211643520Y-107201820D01*
X211625740Y-107156100D01*
X211602880Y-107100220D01*
X211585100Y-107062120D01*
X211577480Y-107044340D01*
X211559700Y-107039260D01*
X211521600Y-107029100D01*
X211463180Y-107018940D01*
X211392060Y-107006240D01*
X211326020Y-106993540D01*
X211267600Y-106980840D01*
X211224420Y-106973220D01*
X211204100Y-106970680D01*
X211199020Y-106965600D01*
X211196480Y-106957980D01*
X211193940Y-106937660D01*
X211191400Y-106899560D01*
X211191400Y-106843680D01*
X211191400Y-106759860D01*
X211191400Y-106752240D01*
X211191400Y-106673500D01*
X211193940Y-106610000D01*
X211196480Y-106571900D01*
X211199020Y-106554120D01*
X211199020Y-106554120D01*
X211216800Y-106549040D01*
X211259980Y-106541420D01*
X211318400Y-106528720D01*
X211389520Y-106516020D01*
X211394600Y-106516020D01*
X211465720Y-106500780D01*
X211524140Y-106488080D01*
X211567320Y-106480460D01*
X211585100Y-106472840D01*
X211587640Y-106467760D01*
X211602880Y-106439820D01*
X211623200Y-106396640D01*
X211646060Y-106343300D01*
X211668920Y-106287420D01*
X211689240Y-106236620D01*
X211701940Y-106201060D01*
X211707020Y-106183280D01*
X211707020Y-106183280D01*
X211696860Y-106165500D01*
X211671460Y-106129940D01*
X211635900Y-106079140D01*
X211595260Y-106018180D01*
X211592720Y-106013100D01*
X211552080Y-105952140D01*
X211519060Y-105901340D01*
X211496200Y-105865780D01*
X211488580Y-105850540D01*
X211488580Y-105848000D01*
X211501280Y-105830220D01*
X211531760Y-105797200D01*
X211577480Y-105751480D01*
X211628280Y-105698140D01*
X211646060Y-105682900D01*
X211704480Y-105624480D01*
X211745120Y-105588920D01*
X211770520Y-105568600D01*
X211780680Y-105563520D01*
X211783220Y-105563520D01*
X211801000Y-105573680D01*
X211839100Y-105599080D01*
X211889900Y-105634640D01*
X211950860Y-105675280D01*
X211953400Y-105677820D01*
X212014360Y-105718460D01*
X212065160Y-105754020D01*
X212100720Y-105776880D01*
X212115960Y-105784500D01*
X212118500Y-105784500D01*
X212141360Y-105779420D01*
X212184540Y-105764180D01*
X212237880Y-105743860D01*
X212293760Y-105721000D01*
X212344560Y-105700680D01*
X212380120Y-105682900D01*
X212397900Y-105672740D01*
X212400440Y-105672740D01*
X212405520Y-105649880D01*
X212415680Y-105604160D01*
X212428380Y-105543200D01*
X212443620Y-105469540D01*
X212446160Y-105459380D01*
X212458860Y-105385720D01*
X212469020Y-105327300D01*
X212479180Y-105286660D01*
X212481720Y-105268880D01*
X212491880Y-105268880D01*
X212527440Y-105266340D01*
X212580780Y-105263800D01*
X212646820Y-105263800D01*
X212712860Y-105263800D01*
X212778900Y-105263800D01*
X212834780Y-105266340D01*
X212875420Y-105268880D01*
X212893200Y-105273960D01*
X212893200Y-105273960D01*
X212898280Y-105296820D01*
X212908440Y-105340000D01*
X212921140Y-105403500D01*
X212936380Y-105477160D01*
X212938920Y-105489860D01*
X212951620Y-105560980D01*
X212964320Y-105619400D01*
X212971940Y-105660040D01*
X212977020Y-105675280D01*
X212982100Y-105677820D01*
X213012580Y-105693060D01*
X213060840Y-105710840D01*
X213119260Y-105736240D01*
X213256420Y-105792120D01*
X213424060Y-105675280D01*
X213439300Y-105665120D01*
X213500260Y-105624480D01*
X213551060Y-105591460D01*
X213586620Y-105568600D01*
X213599320Y-105560980D01*
X213601860Y-105560980D01*
X213617100Y-105576220D01*
X213650120Y-105606700D01*
X213695840Y-105652420D01*
X213749180Y-105703220D01*
X213789820Y-105743860D01*
X213835540Y-105789580D01*
X213863480Y-105822600D01*
X213881260Y-105842920D01*
X213886340Y-105855620D01*
X213883800Y-105863240D01*
X213873640Y-105881020D01*
X213848240Y-105916580D01*
X213815220Y-105969920D01*
X213774580Y-106028340D01*
X213739020Y-106079140D01*
X213703460Y-106135020D01*
X213680600Y-106175660D01*
X213670440Y-106193440D01*
X213672980Y-106203600D01*
X213685680Y-106236620D01*
X213706000Y-106284880D01*
X213731400Y-106345840D01*
X213789820Y-106477920D01*
X213876180Y-106495700D01*
X213929520Y-106505860D01*
X214003180Y-106518560D01*
X214074300Y-106533800D01*
X214186060Y-106554120D01*
X214188600Y-106957980D01*
X214170820Y-106965600D01*
X214155580Y-106970680D01*
X214114940Y-106980840D01*
X214056520Y-106991000D01*
X213987940Y-107003700D01*
X213926980Y-107016400D01*
X213868560Y-107026560D01*
X213825380Y-107034180D01*
X213807600Y-107039260D01*
X213802520Y-107044340D01*
X213787280Y-107074820D01*
X213766960Y-107120540D01*
X213744100Y-107173880D01*
X213718700Y-107232300D01*
X213698380Y-107283100D01*
X213683140Y-107323740D01*
X213678060Y-107344060D01*
X213685680Y-107359300D01*
X213708540Y-107394860D01*
X213741560Y-107445660D01*
X213782200Y-107504080D01*
X213822840Y-107562500D01*
X213855860Y-107613300D01*
X213881260Y-107648860D01*
X213888880Y-107666640D01*
X213883800Y-107676800D01*
X213860940Y-107704740D01*
X213817760Y-107750460D01*
X213751720Y-107816500D01*
X213739020Y-107826660D01*
X213688220Y-107877460D01*
X213642500Y-107918100D01*
X213612020Y-107946040D01*
X213599320Y-107956200D01*
G36*
X213599320Y-129826200D02*
X213581540Y-129818580D01*
X213548520Y-129795720D01*
X213497720Y-129762700D01*
X213439300Y-129724600D01*
X213378340Y-129683960D01*
X213330080Y-129650940D01*
X213294520Y-129628080D01*
X213281820Y-129620460D01*
X213274200Y-129623000D01*
X213246260Y-129638240D01*
X213205620Y-129658560D01*
X213180220Y-129671260D01*
X213142120Y-129686500D01*
X213124340Y-129691580D01*
X213121800Y-129686500D01*
X213106560Y-129656020D01*
X213086240Y-129607760D01*
X213058300Y-129541720D01*
X213025280Y-129465520D01*
X212989720Y-129384240D01*
X212956700Y-129300420D01*
X212923680Y-129221680D01*
X212893200Y-129148020D01*
X212870340Y-129089600D01*
X212855100Y-129048960D01*
X212847480Y-129031180D01*
X212850020Y-129028640D01*
X212867800Y-129010860D01*
X212900820Y-128985460D01*
X212971940Y-128927040D01*
X213043060Y-128840680D01*
X213086240Y-128741620D01*
X213098940Y-128629860D01*
X213088780Y-128528260D01*
X213048140Y-128431740D01*
X212979560Y-128342840D01*
X212895740Y-128276800D01*
X212799220Y-128236160D01*
X212690000Y-128223460D01*
X212585860Y-128233620D01*
X212486800Y-128274260D01*
X212397900Y-128340300D01*
X212359800Y-128383480D01*
X212309000Y-128474920D01*
X212278520Y-128568900D01*
X212275980Y-128591760D01*
X212281060Y-128698440D01*
X212311540Y-128800040D01*
X212367420Y-128888940D01*
X212443620Y-128962600D01*
X212453780Y-128970220D01*
X212489340Y-128998160D01*
X212514740Y-129015940D01*
X212532520Y-129031180D01*
X212397900Y-129353760D01*
X212377580Y-129404560D01*
X212339480Y-129493460D01*
X212309000Y-129569660D01*
X212281060Y-129630620D01*
X212263280Y-129671260D01*
X212255660Y-129686500D01*
X212255660Y-129686500D01*
X212242960Y-129689040D01*
X212220100Y-129681420D01*
X212174380Y-129658560D01*
X212143900Y-129643320D01*
X212110880Y-129628080D01*
X212095640Y-129620460D01*
X212080400Y-129628080D01*
X212047380Y-129648400D01*
X212001660Y-129681420D01*
X211943240Y-129719520D01*
X211887360Y-129757620D01*
X211836560Y-129790640D01*
X211801000Y-129816040D01*
X211783220Y-129823660D01*
X211780680Y-129823660D01*
X211762900Y-129816040D01*
X211734960Y-129790640D01*
X211691780Y-129750000D01*
X211628280Y-129689040D01*
X211618120Y-129678880D01*
X211567320Y-129628080D01*
X211526680Y-129582360D01*
X211498740Y-129551880D01*
X211488580Y-129539180D01*
X211488580Y-129539180D01*
X211498740Y-129521400D01*
X211521600Y-129483300D01*
X211554620Y-129432500D01*
X211595260Y-129371540D01*
X211701940Y-129216600D01*
X211643520Y-129071820D01*
X211625740Y-129026100D01*
X211602880Y-128970220D01*
X211585100Y-128932120D01*
X211577480Y-128914340D01*
X211559700Y-128909260D01*
X211521600Y-128899100D01*
X211463180Y-128888940D01*
X211392060Y-128876240D01*
X211326020Y-128863540D01*
X211267600Y-128850840D01*
X211224420Y-128843220D01*
X211204100Y-128840680D01*
X211199020Y-128835600D01*
X211196480Y-128827980D01*
X211193940Y-128807660D01*
X211191400Y-128769560D01*
X211191400Y-128713680D01*
X211191400Y-128629860D01*
X211191400Y-128622240D01*
X211191400Y-128543500D01*
X211193940Y-128480000D01*
X211196480Y-128441900D01*
X211199020Y-128424120D01*
X211199020Y-128424120D01*
X211216800Y-128419040D01*
X211259980Y-128411420D01*
X211318400Y-128398720D01*
X211389520Y-128386020D01*
X211394600Y-128386020D01*
X211465720Y-128370780D01*
X211524140Y-128358080D01*
X211567320Y-128350460D01*
X211585100Y-128342840D01*
X211587640Y-128337760D01*
X211602880Y-128309820D01*
X211623200Y-128266640D01*
X211646060Y-128213300D01*
X211668920Y-128157420D01*
X211689240Y-128106620D01*
X211701940Y-128071060D01*
X211707020Y-128053280D01*
X211707020Y-128053280D01*
X211696860Y-128035500D01*
X211671460Y-127999940D01*
X211635900Y-127949140D01*
X211595260Y-127888180D01*
X211592720Y-127883100D01*
X211552080Y-127822140D01*
X211519060Y-127771340D01*
X211496200Y-127735780D01*
X211488580Y-127720540D01*
X211488580Y-127718000D01*
X211501280Y-127700220D01*
X211531760Y-127667200D01*
X211577480Y-127621480D01*
X211628280Y-127568140D01*
X211646060Y-127552900D01*
X211704480Y-127494480D01*
X211745120Y-127458920D01*
X211770520Y-127438600D01*
X211780680Y-127433520D01*
X211783220Y-127433520D01*
X211801000Y-127443680D01*
X211839100Y-127469080D01*
X211889900Y-127504640D01*
X211950860Y-127545280D01*
X211953400Y-127547820D01*
X212014360Y-127588460D01*
X212065160Y-127624020D01*
X212100720Y-127646880D01*
X212115960Y-127654500D01*
X212118500Y-127654500D01*
X212141360Y-127649420D01*
X212184540Y-127634180D01*
X212237880Y-127613860D01*
X212293760Y-127591000D01*
X212344560Y-127570680D01*
X212380120Y-127552900D01*
X212397900Y-127542740D01*
X212400440Y-127542740D01*
X212405520Y-127519880D01*
X212415680Y-127474160D01*
X212428380Y-127413200D01*
X212443620Y-127339540D01*
X212446160Y-127329380D01*
X212458860Y-127255720D01*
X212469020Y-127197300D01*
X212479180Y-127156660D01*
X212481720Y-127138880D01*
X212491880Y-127138880D01*
X212527440Y-127136340D01*
X212580780Y-127133800D01*
X212646820Y-127133800D01*
X212712860Y-127133800D01*
X212778900Y-127133800D01*
X212834780Y-127136340D01*
X212875420Y-127138880D01*
X212893200Y-127143960D01*
X212893200Y-127143960D01*
X212898280Y-127166820D01*
X212908440Y-127210000D01*
X212921140Y-127273500D01*
X212936380Y-127347160D01*
X212938920Y-127359860D01*
X212951620Y-127430980D01*
X212964320Y-127489400D01*
X212971940Y-127530040D01*
X212977020Y-127545280D01*
X212982100Y-127547820D01*
X213012580Y-127563060D01*
X213060840Y-127580840D01*
X213119260Y-127606240D01*
X213256420Y-127662120D01*
X213424060Y-127545280D01*
X213439300Y-127535120D01*
X213500260Y-127494480D01*
X213551060Y-127461460D01*
X213586620Y-127438600D01*
X213599320Y-127430980D01*
X213601860Y-127430980D01*
X213617100Y-127446220D01*
X213650120Y-127476700D01*
X213695840Y-127522420D01*
X213749180Y-127573220D01*
X213789820Y-127613860D01*
X213835540Y-127659580D01*
X213863480Y-127692600D01*
X213881260Y-127712920D01*
X213886340Y-127725620D01*
X213883800Y-127733240D01*
X213873640Y-127751020D01*
X213848240Y-127786580D01*
X213815220Y-127839920D01*
X213774580Y-127898340D01*
X213739020Y-127949140D01*
X213703460Y-128005020D01*
X213680600Y-128045660D01*
X213670440Y-128063440D01*
X213672980Y-128073600D01*
X213685680Y-128106620D01*
X213706000Y-128154880D01*
X213731400Y-128215840D01*
X213789820Y-128347920D01*
X213876180Y-128365700D01*
X213929520Y-128375860D01*
X214003180Y-128388560D01*
X214074300Y-128403800D01*
X214186060Y-128424120D01*
X214188600Y-128827980D01*
X214170820Y-128835600D01*
X214155580Y-128840680D01*
X214114940Y-128850840D01*
X214056520Y-128861000D01*
X213987940Y-128873700D01*
X213926980Y-128886400D01*
X213868560Y-128896560D01*
X213825380Y-128904180D01*
X213807600Y-128909260D01*
X213802520Y-128914340D01*
X213787280Y-128944820D01*
X213766960Y-128990540D01*
X213744100Y-129043880D01*
X213718700Y-129102300D01*
X213698380Y-129153100D01*
X213683140Y-129193740D01*
X213678060Y-129214060D01*
X213685680Y-129229300D01*
X213708540Y-129264860D01*
X213741560Y-129315660D01*
X213782200Y-129374080D01*
X213822840Y-129432500D01*
X213855860Y-129483300D01*
X213881260Y-129518860D01*
X213888880Y-129536640D01*
X213883800Y-129546800D01*
X213860940Y-129574740D01*
X213817760Y-129620460D01*
X213751720Y-129686500D01*
X213739020Y-129696660D01*
X213688220Y-129747460D01*
X213642500Y-129788100D01*
X213612020Y-129816040D01*
X213599320Y-129826200D01*
X213599320Y-129826200D01*
G37*
X213599320Y-129826200D02*
X213581540Y-129818580D01*
X213548520Y-129795720D01*
X213497720Y-129762700D01*
X213439300Y-129724600D01*
X213378340Y-129683960D01*
X213330080Y-129650940D01*
X213294520Y-129628080D01*
X213281820Y-129620460D01*
X213274200Y-129623000D01*
X213246260Y-129638240D01*
X213205620Y-129658560D01*
X213180220Y-129671260D01*
X213142120Y-129686500D01*
X213124340Y-129691580D01*
X213121800Y-129686500D01*
X213106560Y-129656020D01*
X213086240Y-129607760D01*
X213058300Y-129541720D01*
X213025280Y-129465520D01*
X212989720Y-129384240D01*
X212956700Y-129300420D01*
X212923680Y-129221680D01*
X212893200Y-129148020D01*
X212870340Y-129089600D01*
X212855100Y-129048960D01*
X212847480Y-129031180D01*
X212850020Y-129028640D01*
X212867800Y-129010860D01*
X212900820Y-128985460D01*
X212971940Y-128927040D01*
X213043060Y-128840680D01*
X213086240Y-128741620D01*
X213098940Y-128629860D01*
X213088780Y-128528260D01*
X213048140Y-128431740D01*
X212979560Y-128342840D01*
X212895740Y-128276800D01*
X212799220Y-128236160D01*
X212690000Y-128223460D01*
X212585860Y-128233620D01*
X212486800Y-128274260D01*
X212397900Y-128340300D01*
X212359800Y-128383480D01*
X212309000Y-128474920D01*
X212278520Y-128568900D01*
X212275980Y-128591760D01*
X212281060Y-128698440D01*
X212311540Y-128800040D01*
X212367420Y-128888940D01*
X212443620Y-128962600D01*
X212453780Y-128970220D01*
X212489340Y-128998160D01*
X212514740Y-129015940D01*
X212532520Y-129031180D01*
X212397900Y-129353760D01*
X212377580Y-129404560D01*
X212339480Y-129493460D01*
X212309000Y-129569660D01*
X212281060Y-129630620D01*
X212263280Y-129671260D01*
X212255660Y-129686500D01*
X212255660Y-129686500D01*
X212242960Y-129689040D01*
X212220100Y-129681420D01*
X212174380Y-129658560D01*
X212143900Y-129643320D01*
X212110880Y-129628080D01*
X212095640Y-129620460D01*
X212080400Y-129628080D01*
X212047380Y-129648400D01*
X212001660Y-129681420D01*
X211943240Y-129719520D01*
X211887360Y-129757620D01*
X211836560Y-129790640D01*
X211801000Y-129816040D01*
X211783220Y-129823660D01*
X211780680Y-129823660D01*
X211762900Y-129816040D01*
X211734960Y-129790640D01*
X211691780Y-129750000D01*
X211628280Y-129689040D01*
X211618120Y-129678880D01*
X211567320Y-129628080D01*
X211526680Y-129582360D01*
X211498740Y-129551880D01*
X211488580Y-129539180D01*
X211488580Y-129539180D01*
X211498740Y-129521400D01*
X211521600Y-129483300D01*
X211554620Y-129432500D01*
X211595260Y-129371540D01*
X211701940Y-129216600D01*
X211643520Y-129071820D01*
X211625740Y-129026100D01*
X211602880Y-128970220D01*
X211585100Y-128932120D01*
X211577480Y-128914340D01*
X211559700Y-128909260D01*
X211521600Y-128899100D01*
X211463180Y-128888940D01*
X211392060Y-128876240D01*
X211326020Y-128863540D01*
X211267600Y-128850840D01*
X211224420Y-128843220D01*
X211204100Y-128840680D01*
X211199020Y-128835600D01*
X211196480Y-128827980D01*
X211193940Y-128807660D01*
X211191400Y-128769560D01*
X211191400Y-128713680D01*
X211191400Y-128629860D01*
X211191400Y-128622240D01*
X211191400Y-128543500D01*
X211193940Y-128480000D01*
X211196480Y-128441900D01*
X211199020Y-128424120D01*
X211199020Y-128424120D01*
X211216800Y-128419040D01*
X211259980Y-128411420D01*
X211318400Y-128398720D01*
X211389520Y-128386020D01*
X211394600Y-128386020D01*
X211465720Y-128370780D01*
X211524140Y-128358080D01*
X211567320Y-128350460D01*
X211585100Y-128342840D01*
X211587640Y-128337760D01*
X211602880Y-128309820D01*
X211623200Y-128266640D01*
X211646060Y-128213300D01*
X211668920Y-128157420D01*
X211689240Y-128106620D01*
X211701940Y-128071060D01*
X211707020Y-128053280D01*
X211707020Y-128053280D01*
X211696860Y-128035500D01*
X211671460Y-127999940D01*
X211635900Y-127949140D01*
X211595260Y-127888180D01*
X211592720Y-127883100D01*
X211552080Y-127822140D01*
X211519060Y-127771340D01*
X211496200Y-127735780D01*
X211488580Y-127720540D01*
X211488580Y-127718000D01*
X211501280Y-127700220D01*
X211531760Y-127667200D01*
X211577480Y-127621480D01*
X211628280Y-127568140D01*
X211646060Y-127552900D01*
X211704480Y-127494480D01*
X211745120Y-127458920D01*
X211770520Y-127438600D01*
X211780680Y-127433520D01*
X211783220Y-127433520D01*
X211801000Y-127443680D01*
X211839100Y-127469080D01*
X211889900Y-127504640D01*
X211950860Y-127545280D01*
X211953400Y-127547820D01*
X212014360Y-127588460D01*
X212065160Y-127624020D01*
X212100720Y-127646880D01*
X212115960Y-127654500D01*
X212118500Y-127654500D01*
X212141360Y-127649420D01*
X212184540Y-127634180D01*
X212237880Y-127613860D01*
X212293760Y-127591000D01*
X212344560Y-127570680D01*
X212380120Y-127552900D01*
X212397900Y-127542740D01*
X212400440Y-127542740D01*
X212405520Y-127519880D01*
X212415680Y-127474160D01*
X212428380Y-127413200D01*
X212443620Y-127339540D01*
X212446160Y-127329380D01*
X212458860Y-127255720D01*
X212469020Y-127197300D01*
X212479180Y-127156660D01*
X212481720Y-127138880D01*
X212491880Y-127138880D01*
X212527440Y-127136340D01*
X212580780Y-127133800D01*
X212646820Y-127133800D01*
X212712860Y-127133800D01*
X212778900Y-127133800D01*
X212834780Y-127136340D01*
X212875420Y-127138880D01*
X212893200Y-127143960D01*
X212893200Y-127143960D01*
X212898280Y-127166820D01*
X212908440Y-127210000D01*
X212921140Y-127273500D01*
X212936380Y-127347160D01*
X212938920Y-127359860D01*
X212951620Y-127430980D01*
X212964320Y-127489400D01*
X212971940Y-127530040D01*
X212977020Y-127545280D01*
X212982100Y-127547820D01*
X213012580Y-127563060D01*
X213060840Y-127580840D01*
X213119260Y-127606240D01*
X213256420Y-127662120D01*
X213424060Y-127545280D01*
X213439300Y-127535120D01*
X213500260Y-127494480D01*
X213551060Y-127461460D01*
X213586620Y-127438600D01*
X213599320Y-127430980D01*
X213601860Y-127430980D01*
X213617100Y-127446220D01*
X213650120Y-127476700D01*
X213695840Y-127522420D01*
X213749180Y-127573220D01*
X213789820Y-127613860D01*
X213835540Y-127659580D01*
X213863480Y-127692600D01*
X213881260Y-127712920D01*
X213886340Y-127725620D01*
X213883800Y-127733240D01*
X213873640Y-127751020D01*
X213848240Y-127786580D01*
X213815220Y-127839920D01*
X213774580Y-127898340D01*
X213739020Y-127949140D01*
X213703460Y-128005020D01*
X213680600Y-128045660D01*
X213670440Y-128063440D01*
X213672980Y-128073600D01*
X213685680Y-128106620D01*
X213706000Y-128154880D01*
X213731400Y-128215840D01*
X213789820Y-128347920D01*
X213876180Y-128365700D01*
X213929520Y-128375860D01*
X214003180Y-128388560D01*
X214074300Y-128403800D01*
X214186060Y-128424120D01*
X214188600Y-128827980D01*
X214170820Y-128835600D01*
X214155580Y-128840680D01*
X214114940Y-128850840D01*
X214056520Y-128861000D01*
X213987940Y-128873700D01*
X213926980Y-128886400D01*
X213868560Y-128896560D01*
X213825380Y-128904180D01*
X213807600Y-128909260D01*
X213802520Y-128914340D01*
X213787280Y-128944820D01*
X213766960Y-128990540D01*
X213744100Y-129043880D01*
X213718700Y-129102300D01*
X213698380Y-129153100D01*
X213683140Y-129193740D01*
X213678060Y-129214060D01*
X213685680Y-129229300D01*
X213708540Y-129264860D01*
X213741560Y-129315660D01*
X213782200Y-129374080D01*
X213822840Y-129432500D01*
X213855860Y-129483300D01*
X213881260Y-129518860D01*
X213888880Y-129536640D01*
X213883800Y-129546800D01*
X213860940Y-129574740D01*
X213817760Y-129620460D01*
X213751720Y-129686500D01*
X213739020Y-129696660D01*
X213688220Y-129747460D01*
X213642500Y-129788100D01*
X213612020Y-129816040D01*
X213599320Y-129826200D01*
M02*
