M48
;DRILL file {KiCad 4.0.4-stable} date 11/22/16 15:30:56
;FORMAT={-:-/ absolute / metric / decimal}
FMAT,2
METRIC,TZ
T1C0.300
T2C0.350
T3C0.400
T4C0.600
T5C0.762
T6C0.800
T7C1.000
T8C1.001
T9C1.016
%
G90
G05
M71
T1
X205.55Y-102.055
X205.55Y-123.925
T2
X222.8Y-118.405
X222.8Y-140.275
T3
X185.775Y-111.955
X185.775Y-133.825
X185.8Y-106.555
X185.8Y-128.425
X185.925Y-119.28
X185.925Y-141.15
X186.05Y-108.78
X186.05Y-130.65
X186.375Y-115.83
X186.375Y-137.7
X190.475Y-115.68
X190.475Y-137.55
X190.95Y-119.23
X190.95Y-141.1
X191.Y-112.93
X191.Y-134.8
X191.425Y-108.155
X191.425Y-130.025
X193.125Y-111.33
X193.125Y-133.2
X193.525Y-115.805
X193.525Y-137.675
X193.75Y-103.905
X193.75Y-125.775
X193.875Y-108.78
X193.875Y-130.65
X193.925Y-105.88
X193.925Y-127.75
X195.725Y-114.105
X195.725Y-135.975
X198.275Y-113.205
X198.275Y-135.075
X200.675Y-105.83
X200.675Y-127.7
X201.725Y-108.78
X201.725Y-130.65
X202.6Y-113.83
X202.6Y-135.7
X203.5Y-113.23
X203.5Y-135.1
X203.6Y-105.205
X203.6Y-127.075
X204.1Y-115.33
X204.1Y-137.2
X204.8Y-114.53
X204.8Y-136.4
X206.45Y-113.355
X206.45Y-135.225
X206.5Y-119.805
X206.5Y-141.675
X206.875Y-116.605
X206.875Y-138.475
X209.925Y-113.405
X209.925Y-135.275
X210.075Y-119.78
X210.075Y-141.65
X216.65Y-100.805
X216.65Y-122.675
X217.6Y-104.055
X217.6Y-125.925
X221.825Y-113.98
X221.825Y-135.85
X222.29Y-110.47
X222.29Y-132.34
X222.875Y-105.305
X222.875Y-127.175
X223.175Y-100.955
X223.175Y-122.825
T4
X207.3Y-100.83
X207.3Y-102.1
X207.3Y-103.37
X207.3Y-122.7
X207.3Y-123.97
X207.3Y-125.24
T5
X185.96Y-104.13
X185.96Y-126.
X188.5Y-104.13
X188.5Y-126.
X191.04Y-104.13
X191.04Y-126.
X196.66Y-104.13
X196.66Y-126.
X199.2Y-104.13
X199.2Y-126.
X201.74Y-104.13
X201.74Y-126.
T6
X209.13Y-115.39
X209.13Y-117.93
X209.13Y-137.26
X209.13Y-139.8
X216.75Y-115.39
X216.75Y-117.93
X216.75Y-137.26
X216.75Y-139.8
T7
X188.25Y-113.43
X188.25Y-118.43
X188.25Y-135.3
X188.25Y-140.3
X220.7Y-101.73
X220.7Y-106.73
X220.7Y-123.6
X220.7Y-128.6
T8
X196.2Y-111.03
X196.2Y-118.65
X196.2Y-132.9
X196.2Y-140.52
X198.9Y-111.01
X198.9Y-118.63
X198.9Y-132.88
X198.9Y-140.5
X201.6Y-111.01
X201.6Y-118.63
X201.6Y-132.88
X201.6Y-140.5
X204.3Y-111.01
X204.3Y-118.63
X204.3Y-132.88
X204.3Y-140.5
X207.16Y-110.93
X207.16Y-132.8
X209.7Y-110.93
X209.7Y-132.8
X219.55Y-111.31
X219.55Y-118.93
X219.55Y-133.18
X219.55Y-140.8
T9
X206.6Y-106.98
X206.6Y-128.85
X209.14Y-106.98
X209.14Y-128.85
T0
M30
