G04 #@! TF.FileFunction,Copper,L1,Top,Signal*
%FSLAX46Y46*%
G04 Gerber Fmt 4.6, Leading zero omitted, Abs format (unit mm)*
G04 Created by KiCad (PCBNEW 4.0.4-stable) date 12/11/16 18:51:07*
%MOMM*%
%LPD*%
G01*
G04 APERTURE LIST*
%ADD10C,0.100000*%
%ADD11C,0.600000*%
%ADD12O,1.600000X2.300000*%
%ADD13R,1.727200X1.727200*%
%ADD14O,1.727200X1.727200*%
%ADD15R,2.032000X2.032000*%
%ADD16O,2.032000X2.032000*%
%ADD17R,1.727200X2.032000*%
%ADD18O,1.727200X2.032000*%
%ADD19R,2.235200X2.235200*%
%ADD20O,0.899160X1.501140*%
%ADD21R,2.032000X1.727200*%
%ADD22O,2.032000X1.727200*%
%ADD23O,2.300000X1.600000*%
%ADD24R,1.300000X1.300000*%
%ADD25C,1.300000*%
%ADD26C,1.524000*%
%ADD27C,1.998980*%
%ADD28C,6.400000*%
%ADD29R,1.500000X1.250000*%
%ADD30C,0.800000*%
%ADD31C,1.000000*%
%ADD32C,0.750000*%
%ADD33C,0.250000*%
%ADD34C,0.500000*%
%ADD35C,1.000000*%
G04 APERTURE END LIST*
D10*
D11*
X227956000Y-138109500D03*
X196528000Y-120472500D03*
X196845500Y-118313500D03*
X208212000Y-126060500D03*
X251659500Y-138130000D03*
X248929000Y-134891500D03*
X236420000Y-125080000D03*
X230530000Y-124980000D03*
X176530000Y-96926400D03*
X179812000Y-96852000D03*
X184812000Y-96852000D03*
X189812000Y-96852000D03*
X194812000Y-96852000D03*
X199812000Y-96852000D03*
X204812000Y-96852000D03*
X209812000Y-96852000D03*
X214812000Y-96852000D03*
X219812000Y-96852000D03*
X224812000Y-96852000D03*
X229812000Y-96852000D03*
X234812000Y-96852000D03*
X239812000Y-96852000D03*
X244812000Y-96852000D03*
X249812000Y-96852000D03*
X254812000Y-96852000D03*
X259812000Y-96852000D03*
X259328000Y-130506000D03*
X185394000Y-143476000D03*
X251480000Y-133720000D03*
X253120000Y-136860000D03*
X183769000Y-118618000D03*
X184880000Y-135460000D03*
X185010000Y-137930000D03*
X183120000Y-137100000D03*
X181050000Y-132470000D03*
X179410000Y-134540000D03*
X176640000Y-143580000D03*
X229370000Y-122060000D03*
X223540000Y-122200000D03*
X224790000Y-128270000D03*
X229290000Y-127390000D03*
X233530000Y-127580000D03*
X195580000Y-113680000D03*
X183150000Y-129530000D03*
X208940000Y-131330000D03*
X216610000Y-123520000D03*
X218940000Y-122640000D03*
X203750000Y-134430000D03*
X208670000Y-134650000D03*
X226480000Y-140040000D03*
X227010000Y-142020000D03*
X226740000Y-127070000D03*
X217570000Y-140570000D03*
X218200000Y-136920000D03*
X229720000Y-133010000D03*
X234810000Y-133050000D03*
X240030000Y-132750000D03*
X226570000Y-136960000D03*
X229480000Y-137030000D03*
X219300000Y-143100000D03*
X222620000Y-143240000D03*
X225850000Y-143220000D03*
X228970000Y-143370000D03*
X231680000Y-143380000D03*
X235150000Y-143390000D03*
X239080000Y-143400000D03*
X242030000Y-143390000D03*
X247850000Y-143580000D03*
X251340000Y-143550000D03*
X255040000Y-143540000D03*
X257550000Y-143460000D03*
X259580000Y-142310000D03*
X259480000Y-136340000D03*
X259580000Y-139340000D03*
X244856000Y-124714000D03*
X244920000Y-122180000D03*
X231080000Y-122200000D03*
X226790000Y-122220000D03*
X233880000Y-125080000D03*
X226568000Y-124968000D03*
D12*
X210700000Y-134900000D03*
X213240000Y-134900000D03*
X215780000Y-134900000D03*
X218320000Y-134900000D03*
X220860000Y-134900000D03*
X223400000Y-134900000D03*
X225940000Y-134900000D03*
X228480000Y-134900000D03*
X231020000Y-134900000D03*
X233560000Y-134900000D03*
X236100000Y-134900000D03*
X238640000Y-134900000D03*
X241180000Y-134900000D03*
X243720000Y-134900000D03*
X243720000Y-119660000D03*
X241180000Y-119660000D03*
X238640000Y-119660000D03*
X236100000Y-119660000D03*
X233560000Y-119660000D03*
X231020000Y-119660000D03*
X228480000Y-119660000D03*
X225940000Y-119660000D03*
X223400000Y-119660000D03*
X220860000Y-119660000D03*
X218320000Y-119660000D03*
X215780000Y-119660000D03*
X213240000Y-119660000D03*
X210700000Y-119660000D03*
D11*
X212530000Y-130950000D03*
X221560000Y-127340000D03*
X222910000Y-129980000D03*
X226400000Y-130840000D03*
X231710000Y-128770000D03*
X237380000Y-128670000D03*
X239690000Y-130540000D03*
X241860000Y-131440000D03*
X243790000Y-132330000D03*
X252320000Y-130870000D03*
X251630000Y-128070000D03*
X251590000Y-125220000D03*
X250340000Y-109230000D03*
X250570000Y-116080000D03*
X250510000Y-114410000D03*
X249920000Y-112500000D03*
X235840000Y-112460000D03*
X232380000Y-112600000D03*
X229330000Y-113080000D03*
X221720000Y-114050000D03*
X212090000Y-112380000D03*
X209820000Y-112660000D03*
X206730000Y-112770000D03*
X204520000Y-112560000D03*
X193120000Y-111360000D03*
X189290000Y-111110000D03*
X185590000Y-111500000D03*
X182320000Y-111320000D03*
X178320000Y-118640000D03*
X178689000Y-129794000D03*
X181330000Y-143730000D03*
X178960000Y-140500000D03*
X176550000Y-137690000D03*
X180750000Y-137280000D03*
D13*
X179600000Y-101600000D03*
D14*
X179600000Y-99060000D03*
X182140000Y-101600000D03*
X182140000Y-99060000D03*
X184680000Y-101600000D03*
X184680000Y-99060000D03*
X187220000Y-101600000D03*
X187220000Y-99060000D03*
X189760000Y-101600000D03*
X189760000Y-99060000D03*
X192300000Y-101600000D03*
X192300000Y-99060000D03*
X194840000Y-101600000D03*
X194840000Y-99060000D03*
X197380000Y-101600000D03*
X197380000Y-99060000D03*
X199920000Y-101600000D03*
X199920000Y-99060000D03*
X202460000Y-101600000D03*
X202460000Y-99060000D03*
X205000000Y-101600000D03*
X205000000Y-99060000D03*
X207540000Y-101600000D03*
X207540000Y-99060000D03*
X210080000Y-101600000D03*
X210080000Y-99060000D03*
X212620000Y-101600000D03*
X212620000Y-99060000D03*
X215160000Y-101600000D03*
X215160000Y-99060000D03*
X217700000Y-101600000D03*
X217700000Y-99060000D03*
X220240000Y-101600000D03*
X220240000Y-99060000D03*
X222780000Y-101600000D03*
X222780000Y-99060000D03*
X225320000Y-101600000D03*
X225320000Y-99060000D03*
X227860000Y-101600000D03*
X227860000Y-99060000D03*
X230400000Y-101600000D03*
X230400000Y-99060000D03*
X232940000Y-101600000D03*
X232940000Y-99060000D03*
X235480000Y-101600000D03*
X235480000Y-99060000D03*
X238020000Y-101600000D03*
X238020000Y-99060000D03*
X240560000Y-101600000D03*
X240560000Y-99060000D03*
X243100000Y-101600000D03*
X243100000Y-99060000D03*
X245640000Y-101600000D03*
X245640000Y-99060000D03*
X248180000Y-101600000D03*
X248180000Y-99060000D03*
X250720000Y-101600000D03*
X250720000Y-99060000D03*
X253260000Y-101600000D03*
X253260000Y-99060000D03*
X255800000Y-101600000D03*
X255800000Y-99060000D03*
X258340000Y-101600000D03*
X258340000Y-99060000D03*
D15*
X204216000Y-140716000D03*
D16*
X201676000Y-140716000D03*
D17*
X242316000Y-140716000D03*
D18*
X239776000Y-140716000D03*
X237236000Y-140716000D03*
X234696000Y-140716000D03*
X232156000Y-140716000D03*
X229616000Y-140716000D03*
D13*
X214400000Y-138200000D03*
D14*
X214400000Y-140740000D03*
X211860000Y-138200000D03*
X211860000Y-140740000D03*
X209320000Y-138200000D03*
X209320000Y-140740000D03*
D19*
X199850000Y-126950000D03*
D13*
X224536000Y-138176000D03*
D14*
X224536000Y-140716000D03*
X221996000Y-138176000D03*
X221996000Y-140716000D03*
X219456000Y-138176000D03*
X219456000Y-140716000D03*
D17*
X257556000Y-140716000D03*
D18*
X255016000Y-140716000D03*
X252476000Y-140716000D03*
X249936000Y-140716000D03*
X247396000Y-140716000D03*
D20*
X194980000Y-127000000D03*
X193710000Y-127000000D03*
X196250000Y-127000000D03*
X194980000Y-131750000D03*
X193710000Y-131750000D03*
X196250000Y-131750000D03*
X194980000Y-136500000D03*
X193710000Y-136500000D03*
X196250000Y-136500000D03*
X194980000Y-141250000D03*
X193710000Y-141250000D03*
X196250000Y-141250000D03*
D17*
X229250000Y-105080000D03*
D18*
X226710000Y-105080000D03*
X224170000Y-105080000D03*
X221630000Y-105080000D03*
X219090000Y-105080000D03*
X216550000Y-105080000D03*
X214010000Y-105080000D03*
X211470000Y-105080000D03*
X208930000Y-105080000D03*
X206390000Y-105080000D03*
D17*
X202500000Y-105100000D03*
D18*
X199960000Y-105100000D03*
X197420000Y-105100000D03*
X194880000Y-105100000D03*
X192340000Y-105100000D03*
X189800000Y-105100000D03*
X187260000Y-105100000D03*
X184720000Y-105100000D03*
X182180000Y-105100000D03*
X179640000Y-105100000D03*
D21*
X258400000Y-128000000D03*
D22*
X258400000Y-125460000D03*
X258400000Y-122920000D03*
X258400000Y-120380000D03*
X258400000Y-117840000D03*
X258400000Y-115300000D03*
X258400000Y-112760000D03*
X258400000Y-110220000D03*
X258400000Y-107680000D03*
X258400000Y-105140000D03*
D17*
X245700000Y-105080000D03*
D18*
X243160000Y-105080000D03*
X240620000Y-105080000D03*
X238080000Y-105080000D03*
X235540000Y-105080000D03*
X233000000Y-105080000D03*
D12*
X203100000Y-116300000D03*
X205640000Y-116300000D03*
X208180000Y-116300000D03*
X210720000Y-116300000D03*
X213260000Y-116300000D03*
X215800000Y-116300000D03*
X218340000Y-116300000D03*
X220880000Y-116300000D03*
X220880000Y-108680000D03*
X218340000Y-108680000D03*
X215800000Y-108680000D03*
X213260000Y-108680000D03*
X210720000Y-108680000D03*
X208180000Y-108680000D03*
X205640000Y-108680000D03*
X203100000Y-108680000D03*
X180300000Y-116300000D03*
X182840000Y-116300000D03*
X185380000Y-116300000D03*
X187920000Y-116300000D03*
X190460000Y-116300000D03*
X193000000Y-116300000D03*
X195540000Y-116300000D03*
X198080000Y-116300000D03*
X198080000Y-108680000D03*
X195540000Y-108680000D03*
X193000000Y-108680000D03*
X190460000Y-108680000D03*
X187920000Y-108680000D03*
X185380000Y-108680000D03*
X182840000Y-108680000D03*
X180300000Y-108680000D03*
X225800000Y-116300000D03*
X228340000Y-116300000D03*
X230880000Y-116300000D03*
X233420000Y-116300000D03*
X235960000Y-116300000D03*
X238500000Y-116300000D03*
X241040000Y-116300000D03*
X243580000Y-116300000D03*
X243580000Y-108680000D03*
X241040000Y-108680000D03*
X238500000Y-108680000D03*
X235960000Y-108680000D03*
X233420000Y-108680000D03*
X230880000Y-108680000D03*
X228340000Y-108680000D03*
X225800000Y-108680000D03*
D23*
X247600000Y-109800000D03*
X247600000Y-112340000D03*
X247600000Y-114880000D03*
X247600000Y-117420000D03*
X247600000Y-119960000D03*
X247600000Y-122500000D03*
X247600000Y-125040000D03*
X247600000Y-127580000D03*
X255220000Y-127580000D03*
X255220000Y-125040000D03*
X255220000Y-122500000D03*
X255220000Y-119960000D03*
X255220000Y-117420000D03*
X255220000Y-114880000D03*
X255220000Y-112340000D03*
X255220000Y-109800000D03*
D24*
X248950000Y-131325000D03*
D25*
X248950000Y-133325000D03*
D26*
X206500000Y-134750000D03*
X201500000Y-134750000D03*
X201500000Y-131600000D03*
X206500000Y-131600000D03*
D27*
X201000000Y-119000000D03*
X193380000Y-119000000D03*
D21*
X186750000Y-119250000D03*
D22*
X186750000Y-121790000D03*
X186750000Y-124330000D03*
X186750000Y-126870000D03*
X186750000Y-129410000D03*
X186750000Y-131950000D03*
X186750000Y-134490000D03*
X186750000Y-137030000D03*
X186750000Y-139570000D03*
X186750000Y-142110000D03*
D21*
X190500000Y-119250000D03*
D22*
X190500000Y-121790000D03*
X190500000Y-124330000D03*
X190500000Y-126870000D03*
X190500000Y-129410000D03*
X190500000Y-131950000D03*
X190500000Y-134490000D03*
X190500000Y-137030000D03*
X190500000Y-139570000D03*
X190500000Y-142110000D03*
D28*
X181380000Y-122720000D03*
X255870000Y-133720000D03*
D15*
X204000000Y-119750000D03*
D16*
X206540000Y-119750000D03*
D29*
X248875000Y-136450000D03*
X251375000Y-136450000D03*
D27*
X201000000Y-122100000D03*
X193380000Y-122100000D03*
D29*
X206750000Y-127000000D03*
X204250000Y-127000000D03*
D11*
X178140000Y-132970000D03*
D30*
X198600000Y-139200000D03*
X198600000Y-141900000D03*
D11*
X208450000Y-136450000D03*
D30*
X206700000Y-136600000D03*
X250250000Y-127650000D03*
X251250000Y-112410000D03*
X251200000Y-107000000D03*
X195700000Y-143400000D03*
X200800000Y-115900000D03*
X202900000Y-112400000D03*
X204500000Y-130750000D03*
X204250000Y-128500000D03*
D11*
X217043000Y-133477000D03*
X217043000Y-136271000D03*
D30*
X214122000Y-129794000D03*
X216154000Y-131572000D03*
X208750000Y-127750000D03*
X192600000Y-134200000D03*
X197700000Y-130400000D03*
X223400000Y-124475000D03*
X219850000Y-124450000D03*
X215475000Y-127850000D03*
X224700000Y-121300000D03*
X200875000Y-108725000D03*
X199575000Y-112975000D03*
X197300000Y-139600000D03*
D11*
X246900000Y-100525000D03*
X248700000Y-104750000D03*
X249600000Y-104500000D03*
X253500000Y-106075000D03*
X253525000Y-115650000D03*
X249875000Y-103700000D03*
X252825000Y-105575000D03*
X252525000Y-104775000D03*
X250700000Y-103275000D03*
X251600000Y-103475000D03*
X252600000Y-103750000D03*
X256794000Y-103251000D03*
X248000000Y-138050000D03*
X242620000Y-123900000D03*
X242620000Y-127140000D03*
X246875000Y-137400000D03*
X250225000Y-142500000D03*
X241440000Y-127120000D03*
X241440000Y-123870000D03*
X240100000Y-123850000D03*
X240290000Y-127090000D03*
X239070000Y-124040000D03*
X239150000Y-127100000D03*
X244825000Y-140625000D03*
X238010000Y-127060000D03*
X237770000Y-123960000D03*
X225075000Y-112625000D03*
X249325000Y-126300000D03*
X246050000Y-126300000D03*
X237275000Y-113250000D03*
X243625000Y-112475000D03*
X198150000Y-112075000D03*
X202300000Y-114450000D03*
X206725000Y-114750000D03*
X210825000Y-114150000D03*
X213975000Y-114025000D03*
X216400000Y-112875000D03*
X219000000Y-113000000D03*
X221175000Y-112500000D03*
X234200000Y-114075000D03*
X195800000Y-111375000D03*
X200975000Y-111250000D03*
X206625000Y-111225000D03*
X213400000Y-111425000D03*
X219600000Y-117900000D03*
X219600000Y-114575000D03*
X216700000Y-129650000D03*
X216925000Y-128200000D03*
X218325000Y-111675000D03*
X224100000Y-111775000D03*
X229300000Y-111350000D03*
X234475000Y-111425000D03*
X238775000Y-111825000D03*
X253300000Y-121825000D03*
X249625000Y-118175000D03*
X245150000Y-113550000D03*
X241100000Y-111725000D03*
X219000000Y-126575000D03*
X217075000Y-117950000D03*
X217125000Y-114725000D03*
X200425000Y-110575000D03*
X206075000Y-110550000D03*
X213750000Y-110600000D03*
X217100000Y-110925000D03*
X223650000Y-110875000D03*
X228225000Y-110575000D03*
X235400000Y-110575000D03*
X245150000Y-111075000D03*
X239500000Y-111000000D03*
X185900000Y-113400000D03*
X214900000Y-122200000D03*
X190250000Y-112750000D03*
X197250000Y-113750000D03*
X199500000Y-114500000D03*
X245150000Y-114500000D03*
X236650000Y-114475000D03*
X235250000Y-114500000D03*
X229750000Y-118075000D03*
D30*
X192600000Y-138000000D03*
X194800000Y-138300000D03*
D31*
X176650000Y-116078000D03*
X176650000Y-101600000D03*
X176650000Y-129413000D03*
X176650000Y-123063000D03*
X176650000Y-110998000D03*
X176650000Y-106299000D03*
X178000000Y-99650000D03*
D30*
X206700000Y-122700000D03*
D11*
X199200000Y-123100000D03*
X197100000Y-123200000D03*
X215400000Y-125900000D03*
X219200000Y-129600000D03*
X217700000Y-129700000D03*
X215000000Y-126800000D03*
X211800000Y-126000000D03*
X209600000Y-126600000D03*
X192900000Y-124600000D03*
X194500000Y-123700000D03*
X212000000Y-132400000D03*
X219700000Y-132400000D03*
X199800000Y-129400000D03*
X197300000Y-133600000D03*
X197800000Y-131400000D03*
X200600000Y-130100000D03*
X216700000Y-130700000D03*
X214900000Y-129000000D03*
X212500000Y-126800000D03*
X210400000Y-127400000D03*
X195920000Y-123060000D03*
X198960000Y-122160000D03*
X211800000Y-124100000D03*
X209500000Y-121800000D03*
X219700000Y-123400000D03*
X224200000Y-123600000D03*
X233200000Y-123100000D03*
X243500000Y-123500000D03*
D32*
X196250000Y-136500000D02*
X196250000Y-136850000D01*
X196250000Y-136850000D02*
X198600000Y-139200000D01*
X198600000Y-141900000D02*
X199400000Y-142700000D01*
X199400000Y-142700000D02*
X215200000Y-142700000D01*
X215200000Y-142700000D02*
X216300000Y-141600000D01*
X216300000Y-141600000D02*
X216300000Y-139100000D01*
X216300000Y-139100000D02*
X215400000Y-138200000D01*
X215400000Y-138200000D02*
X214400000Y-138200000D01*
X211860000Y-140740000D02*
X214400000Y-140740000D01*
X209320000Y-140740000D02*
X211860000Y-140740000D01*
X204216000Y-140716000D02*
X214376000Y-140716000D01*
X214376000Y-140716000D02*
X214400000Y-140740000D01*
X208450000Y-136450000D02*
X206400000Y-138500000D01*
X196250000Y-134050000D02*
X196250000Y-131750000D01*
X199700000Y-138500000D02*
X206400000Y-138500000D01*
X197800000Y-136600000D02*
X199700000Y-138500000D01*
X197800000Y-135600000D02*
X197800000Y-136600000D01*
X196250000Y-134050000D02*
X197800000Y-135600000D01*
D33*
X211860000Y-138200000D02*
X211860000Y-136860000D01*
X209400000Y-136450000D02*
X208450000Y-136450000D01*
X209650000Y-136700000D02*
X209400000Y-136450000D01*
X211700000Y-136700000D02*
X209650000Y-136700000D01*
X211860000Y-136860000D02*
X211700000Y-136700000D01*
D32*
X201000000Y-137300000D02*
X206000000Y-137300000D01*
X198825000Y-135125000D02*
X201000000Y-137300000D01*
X198825000Y-129575000D02*
X198825000Y-135125000D01*
X206000000Y-137300000D02*
X206700000Y-136600000D01*
X196250000Y-127000000D02*
X198825000Y-129575000D01*
D34*
X250250000Y-127925000D02*
X250250000Y-127650000D01*
X248950000Y-129225000D02*
X250250000Y-127925000D01*
X248950000Y-131325000D02*
X248950000Y-129225000D01*
X251325000Y-112335000D02*
X251325000Y-110950000D01*
X251250000Y-112410000D02*
X251325000Y-112335000D01*
X251325000Y-110950000D02*
X251325000Y-107125000D01*
X251325000Y-107125000D02*
X251200000Y-107000000D01*
X195700000Y-143400000D02*
X196000000Y-143700000D01*
X196000000Y-143700000D02*
X196500000Y-143700000D01*
X196500000Y-143700000D02*
X216472000Y-143700000D01*
X216472000Y-143700000D02*
X219456000Y-140716000D01*
X199900000Y-117000000D02*
X200500000Y-117000000D01*
X198100000Y-118800000D02*
X199825000Y-117075000D01*
X199825000Y-117075000D02*
X199900000Y-117000000D01*
X198100000Y-119600000D02*
X198100000Y-118800000D01*
X203100000Y-112200000D02*
X203100000Y-108680000D01*
X202900000Y-112400000D02*
X203100000Y-112200000D01*
X200800000Y-116700000D02*
X200800000Y-115900000D01*
X200500000Y-117000000D02*
X200800000Y-116700000D01*
X204250000Y-128500000D02*
X204000000Y-128500000D01*
X204000000Y-128500000D02*
X204000000Y-127750000D01*
X204000000Y-127750000D02*
X204250000Y-127750000D01*
X203587501Y-130587501D02*
X204337501Y-130587501D01*
X204337501Y-130587501D02*
X204500000Y-130750000D01*
X204500000Y-130750000D02*
X204500000Y-130500000D01*
X204500000Y-130500000D02*
X204924998Y-130075002D01*
X204250000Y-130075002D02*
X204250000Y-130500000D01*
X204250000Y-130500000D02*
X204500000Y-130750000D01*
X204250000Y-128500000D02*
X204250000Y-127750000D01*
X204250000Y-127750000D02*
X204250000Y-127000000D01*
X251375000Y-136450000D02*
X251375000Y-135375000D01*
X250100000Y-131325000D02*
X248950000Y-131325000D01*
X250425000Y-131650000D02*
X250100000Y-131325000D01*
X250425000Y-134425000D02*
X250425000Y-131650000D01*
X251375000Y-135375000D02*
X250425000Y-134425000D01*
X202300000Y-124500000D02*
X202100000Y-124500000D01*
X202100000Y-124500000D02*
X201900000Y-124300000D01*
X201900000Y-124300000D02*
X199000000Y-124300000D01*
X199000000Y-124300000D02*
X198800000Y-124100000D01*
X203800000Y-124500000D02*
X202300000Y-124500000D01*
X208828000Y-124500000D02*
X214122000Y-129794000D01*
X208828000Y-124500000D02*
X203850000Y-124500000D01*
X203850000Y-124500000D02*
X203800000Y-124500000D01*
X198100000Y-119600000D02*
X200400000Y-119600000D01*
X200400000Y-119600000D02*
X201000000Y-119000000D01*
X198100000Y-122000000D02*
X198100000Y-123400000D01*
X198100000Y-123400000D02*
X198200000Y-123500000D01*
X198800000Y-124100000D02*
X198200000Y-123500000D01*
X198100000Y-122000000D02*
X198100000Y-119600000D01*
X203900000Y-130275002D02*
X203900000Y-130254596D01*
X202575002Y-131600000D02*
X203587501Y-130587501D01*
X203587501Y-130587501D02*
X203900000Y-130275002D01*
X201500000Y-131600000D02*
X202575002Y-131600000D01*
X204079594Y-130075002D02*
X204250000Y-130075002D01*
X204250000Y-130075002D02*
X204924998Y-130075002D01*
X204924998Y-130075002D02*
X208679594Y-130075002D01*
X203900000Y-130254596D02*
X204079594Y-130075002D01*
X208960596Y-129794000D02*
X214122000Y-129794000D01*
X208679594Y-130075002D02*
X208960596Y-129794000D01*
X219456000Y-140716000D02*
X217297000Y-138557000D01*
X217297000Y-138557000D02*
X217297000Y-136525000D01*
X217297000Y-136525000D02*
X217043000Y-136271000D01*
D33*
X217043000Y-133350000D02*
X217043000Y-133477000D01*
D34*
X216154000Y-131572000D02*
X217043000Y-132461000D01*
X217043000Y-132461000D02*
X217043000Y-133350000D01*
D33*
X217043000Y-136271000D02*
X217043000Y-133350000D01*
D34*
X221996000Y-140716000D02*
X219456000Y-140716000D01*
X224536000Y-140716000D02*
X221996000Y-140716000D01*
X225800000Y-109475000D02*
X225800000Y-108680000D01*
X180725000Y-109105000D02*
X180300000Y-108680000D01*
X208750000Y-127750000D02*
X208000000Y-127000000D01*
X208000000Y-127000000D02*
X206750000Y-127000000D01*
X248875000Y-136450000D02*
X248875000Y-133400000D01*
X248875000Y-133400000D02*
X248950000Y-133325000D01*
X193710000Y-127000000D02*
X193710000Y-126810000D01*
D33*
X187198000Y-124333000D02*
X187333000Y-124333000D01*
D32*
X196000000Y-116760000D02*
X195540000Y-116300000D01*
X193710000Y-136500000D02*
X193710000Y-135310000D01*
X193710000Y-135310000D02*
X192600000Y-134200000D01*
X197700000Y-130400000D02*
X196045925Y-128745925D01*
X196045925Y-128745925D02*
X194145925Y-128745925D01*
X194145925Y-128745925D02*
X193710000Y-128310000D01*
X193710000Y-128310000D02*
X193710000Y-127000000D01*
X193710000Y-141250000D02*
X193710000Y-136500000D01*
X218875000Y-124450000D02*
X219850000Y-124450000D01*
X215475000Y-127850000D02*
X218875000Y-124450000D01*
X223025000Y-124100000D02*
X223400000Y-124475000D01*
X223025000Y-122975000D02*
X224700000Y-121300000D01*
X223025000Y-124100000D02*
X223025000Y-122975000D01*
X223965000Y-125040000D02*
X247600000Y-125040000D01*
X223400000Y-124475000D02*
X223965000Y-125040000D01*
X198080000Y-116300000D02*
X198080000Y-114470000D01*
X200975000Y-106625000D02*
X202500000Y-105100000D01*
X200975000Y-108625000D02*
X200975000Y-106625000D01*
X200875000Y-108725000D02*
X200975000Y-108625000D01*
X198080000Y-114470000D02*
X199575000Y-112975000D01*
X215800000Y-116300000D02*
X218340000Y-116300000D01*
X220880000Y-116300000D02*
X218340000Y-116300000D01*
X198080000Y-116300000D02*
X195540000Y-116300000D01*
X193000000Y-116300000D02*
X195540000Y-116300000D01*
X247600000Y-127580000D02*
X247600000Y-125040000D01*
X247600000Y-125040000D02*
X247600000Y-122500000D01*
X243580000Y-116300000D02*
X241040000Y-116300000D01*
X241040000Y-116300000D02*
X238500000Y-116300000D01*
X198416000Y-140716000D02*
X201676000Y-140716000D01*
X197300000Y-139600000D02*
X198416000Y-140716000D01*
D34*
X243720000Y-134900000D02*
X243720000Y-139312000D01*
X243720000Y-139312000D02*
X242316000Y-140716000D01*
X241180000Y-134900000D02*
X241180000Y-138296000D01*
X241180000Y-138296000D02*
X239776000Y-139700000D01*
X239776000Y-139700000D02*
X239776000Y-140716000D01*
X238640000Y-134900000D02*
X238640000Y-139312000D01*
X238640000Y-139312000D02*
X237236000Y-140716000D01*
X236100000Y-134900000D02*
X236100000Y-139312000D01*
X236100000Y-139312000D02*
X234696000Y-140716000D01*
X233560000Y-134900000D02*
X233560000Y-139312000D01*
X233560000Y-139312000D02*
X232156000Y-140716000D01*
X231020000Y-134900000D02*
X231020000Y-139312000D01*
X231020000Y-139312000D02*
X229616000Y-140716000D01*
D33*
X179640000Y-105100000D02*
X179640000Y-101640000D01*
X179640000Y-101640000D02*
X179600000Y-101600000D01*
X180300000Y-116300000D02*
X180300000Y-112700000D01*
X177600000Y-107400000D02*
X179640000Y-105360000D01*
X177600000Y-110000000D02*
X177600000Y-107400000D01*
X180300000Y-112700000D02*
X177600000Y-110000000D01*
X179640000Y-105360000D02*
X179640000Y-105100000D01*
X182180000Y-105100000D02*
X182180000Y-101640000D01*
X182180000Y-101640000D02*
X182140000Y-101600000D01*
X182840000Y-116300000D02*
X182840000Y-114340000D01*
X180780000Y-106500000D02*
X182180000Y-105100000D01*
X179500000Y-106500000D02*
X180780000Y-106500000D01*
X178300000Y-107700000D02*
X179500000Y-106500000D01*
X178300000Y-109800000D02*
X178300000Y-107700000D01*
X182840000Y-114340000D02*
X178300000Y-109800000D01*
X182840000Y-116300000D02*
X182840000Y-115640000D01*
X184720000Y-105100000D02*
X184720000Y-101640000D01*
X184720000Y-101640000D02*
X184680000Y-101600000D01*
X187920000Y-116300000D02*
X187920000Y-114320000D01*
X181300000Y-107000000D02*
X181700000Y-106600000D01*
X181700000Y-106600000D02*
X182800000Y-106600000D01*
X184300000Y-105100000D02*
X182800000Y-106600000D01*
X178800000Y-107900000D02*
X179700000Y-107000000D01*
X178800000Y-109600000D02*
X178800000Y-107900000D01*
X181800000Y-112600000D02*
X178800000Y-109600000D01*
X179700000Y-107000000D02*
X181300000Y-107000000D01*
X186200000Y-112600000D02*
X181800000Y-112600000D01*
X187920000Y-114320000D02*
X186200000Y-112600000D01*
X184300000Y-105100000D02*
X184720000Y-105100000D01*
X184720000Y-105280000D02*
X184720000Y-105100000D01*
X187260000Y-105100000D02*
X187260000Y-101640000D01*
X187260000Y-101640000D02*
X187220000Y-101600000D01*
X182100000Y-107100000D02*
X182978826Y-107100000D01*
X190460000Y-114160000D02*
X186600000Y-110300000D01*
X186600000Y-110300000D02*
X182200000Y-110300000D01*
X182200000Y-110300000D02*
X181600000Y-109700000D01*
X181600000Y-109700000D02*
X181600000Y-107600000D01*
X181600000Y-107600000D02*
X182100000Y-107100000D01*
X190460000Y-116300000D02*
X190460000Y-114160000D01*
X185200000Y-106600000D02*
X186700000Y-105100000D01*
X183478826Y-106600000D02*
X185200000Y-106600000D01*
X182978826Y-107100000D02*
X183478826Y-106600000D01*
X186700000Y-105100000D02*
X187260000Y-105100000D01*
X189800000Y-105100000D02*
X189800000Y-101640000D01*
X189800000Y-101640000D02*
X189760000Y-101600000D01*
X182840000Y-108680000D02*
X182840000Y-108140002D01*
X182840000Y-108140002D02*
X183880002Y-107100000D01*
X183880002Y-107100000D02*
X185600000Y-107100000D01*
X185600000Y-107100000D02*
X186100000Y-106600000D01*
X186100000Y-106600000D02*
X187700000Y-106600000D01*
X187700000Y-106600000D02*
X189200000Y-105100000D01*
X189200000Y-105100000D02*
X189800000Y-105100000D01*
X192340000Y-105100000D02*
X192340000Y-101640000D01*
X192340000Y-101640000D02*
X192300000Y-101600000D01*
X185380000Y-108680000D02*
X185380000Y-108100002D01*
X185380000Y-108100002D02*
X186380002Y-107100000D01*
X186380002Y-107100000D02*
X187900000Y-107100000D01*
X187900000Y-107100000D02*
X188400000Y-106600000D01*
X188400000Y-106600000D02*
X190400000Y-106600000D01*
X190400000Y-106600000D02*
X191900000Y-105100000D01*
X191900000Y-105100000D02*
X192340000Y-105100000D01*
X194880000Y-105100000D02*
X194880000Y-101640000D01*
X194880000Y-101640000D02*
X194840000Y-101600000D01*
X187920000Y-108680000D02*
X187920000Y-107860002D01*
X187920000Y-107860002D02*
X188680002Y-107100000D01*
X188680002Y-107100000D02*
X190578826Y-107100000D01*
X190578826Y-107100000D02*
X191078826Y-106600000D01*
X191078826Y-106600000D02*
X192800000Y-106600000D01*
X192800000Y-106600000D02*
X194300000Y-105100000D01*
X194300000Y-105100000D02*
X194880000Y-105100000D01*
X197420000Y-105100000D02*
X197420000Y-101640000D01*
X197420000Y-101640000D02*
X197380000Y-101600000D01*
X190460000Y-108680000D02*
X190460000Y-107897652D01*
X190460000Y-107897652D02*
X191277650Y-107080002D01*
X191277650Y-107080002D02*
X193019998Y-107080002D01*
X193019998Y-107080002D02*
X193600000Y-106500000D01*
X193600000Y-106500000D02*
X195600000Y-106500000D01*
X195600000Y-106500000D02*
X197000000Y-105100000D01*
X197000000Y-105100000D02*
X197420000Y-105100000D01*
X201900000Y-112800000D02*
X201900000Y-112900000D01*
X201900000Y-111000000D02*
X199960000Y-109060000D01*
X199960000Y-105100000D02*
X199960000Y-109060000D01*
X203100000Y-114100000D02*
X203100000Y-116300000D01*
X201900000Y-112800000D02*
X201900000Y-111000000D01*
X201900000Y-112900000D02*
X203100000Y-114100000D01*
X199960000Y-105100000D02*
X199960000Y-101640000D01*
X199960000Y-101640000D02*
X199920000Y-101600000D01*
X205640000Y-116300000D02*
X205640000Y-111165000D01*
X204425000Y-107050000D02*
X206390000Y-105085000D01*
X204425000Y-109950000D02*
X204425000Y-107050000D01*
X205640000Y-111165000D02*
X204425000Y-109950000D01*
X206390000Y-105085000D02*
X206390000Y-105080000D01*
X206390000Y-105080000D02*
X205940000Y-105080000D01*
X205940000Y-105080000D02*
X202460000Y-101600000D01*
X208930000Y-105080000D02*
X208480000Y-105080000D01*
X208480000Y-105080000D02*
X205000000Y-101600000D01*
X205640000Y-108680000D02*
X205640000Y-108370000D01*
X205640000Y-108370000D02*
X208930000Y-105080000D01*
X211470000Y-105080000D02*
X211020000Y-105080000D01*
X211020000Y-105080000D02*
X207540000Y-101600000D01*
X208180000Y-108680000D02*
X208180000Y-108370000D01*
X208180000Y-108370000D02*
X211470000Y-105080000D01*
X214010000Y-105080000D02*
X213560000Y-105080000D01*
X213560000Y-105080000D02*
X210080000Y-101600000D01*
X210720000Y-108680000D02*
X210720000Y-108370000D01*
X210720000Y-108370000D02*
X214010000Y-105080000D01*
X216550000Y-105080000D02*
X216100000Y-105080000D01*
X216100000Y-105080000D02*
X212620000Y-101600000D01*
X213260000Y-108680000D02*
X213260000Y-107240000D01*
X215730000Y-105900000D02*
X216550000Y-105080000D01*
X215200000Y-105900000D02*
X215730000Y-105900000D01*
X214500000Y-106600000D02*
X215200000Y-105900000D01*
X213900000Y-106600000D02*
X214500000Y-106600000D01*
X213260000Y-107240000D02*
X213900000Y-106600000D01*
X213260000Y-108680000D02*
X213260000Y-108370000D01*
X210720000Y-116300000D02*
X210720000Y-115330000D01*
X210720000Y-115330000D02*
X214500000Y-111550000D01*
X214500000Y-111550000D02*
X214500000Y-107600000D01*
X219090000Y-105080000D02*
X218640000Y-105080000D01*
X218640000Y-105080000D02*
X215160000Y-101600000D01*
X217200000Y-106800000D02*
X218920000Y-105080000D01*
X215300000Y-106800000D02*
X217200000Y-106800000D01*
X214500000Y-107600000D02*
X215300000Y-106800000D01*
X218920000Y-105080000D02*
X219090000Y-105080000D01*
X221630000Y-105080000D02*
X221180000Y-105080000D01*
X221180000Y-105080000D02*
X217700000Y-101600000D01*
X213260000Y-116300000D02*
X213260000Y-113740000D01*
X219900000Y-106600000D02*
X221420000Y-105080000D01*
X218200000Y-106600000D02*
X219900000Y-106600000D01*
X217100000Y-107700000D02*
X218200000Y-106600000D01*
X217100000Y-109900000D02*
X217100000Y-107700000D01*
X213260000Y-113740000D02*
X217100000Y-109900000D01*
X221420000Y-105080000D02*
X221630000Y-105080000D01*
X224170000Y-105080000D02*
X223720000Y-105080000D01*
X223720000Y-105080000D02*
X220240000Y-101600000D01*
X225800000Y-116300000D02*
X225800000Y-112000000D01*
X223700000Y-109900000D02*
X223700000Y-105550000D01*
X225800000Y-112000000D02*
X223700000Y-109900000D01*
X223700000Y-105550000D02*
X224170000Y-105080000D01*
X226710000Y-105080000D02*
X226260000Y-105080000D01*
X226260000Y-105080000D02*
X222780000Y-101600000D01*
X228340000Y-116300000D02*
X228340000Y-113540000D01*
X224300000Y-107800000D02*
X226710000Y-105390000D01*
X224300000Y-109700000D02*
X224300000Y-107800000D01*
X225200000Y-110600000D02*
X224300000Y-109700000D01*
X225400000Y-110600000D02*
X225200000Y-110600000D01*
X228340000Y-113540000D02*
X225400000Y-110600000D01*
X226710000Y-105390000D02*
X226710000Y-105080000D01*
X233000000Y-105080000D02*
X232280000Y-105080000D01*
X232280000Y-105080000D02*
X230575000Y-103375000D01*
X225320000Y-103020000D02*
X225320000Y-101600000D01*
X225675000Y-103375000D02*
X225320000Y-103020000D01*
X230575000Y-103375000D02*
X225675000Y-103375000D01*
X233000000Y-105080000D02*
X232580000Y-105080000D01*
X228340000Y-108680000D02*
X228340000Y-107860000D01*
X228340000Y-107860000D02*
X229500000Y-106700000D01*
X229500000Y-106700000D02*
X230400000Y-106700000D01*
X230400000Y-106700000D02*
X231200000Y-105900000D01*
X231200000Y-105900000D02*
X232180000Y-105900000D01*
X232180000Y-105900000D02*
X233000000Y-105080000D01*
X235540000Y-105080000D02*
X235205000Y-105080000D01*
X235205000Y-105080000D02*
X233600000Y-103475000D01*
X228350000Y-102875000D02*
X227860000Y-102385000D01*
X231100000Y-102875000D02*
X228350000Y-102875000D01*
X231700000Y-103475000D02*
X231100000Y-102875000D01*
X233600000Y-103475000D02*
X231700000Y-103475000D01*
X227860000Y-102385000D02*
X227860000Y-101600000D01*
X230880000Y-108680000D02*
X230880000Y-107420000D01*
X233700000Y-106600000D02*
X235220000Y-105080000D01*
X231700000Y-106600000D02*
X233700000Y-106600000D01*
X230880000Y-107420000D02*
X231700000Y-106600000D01*
X235220000Y-105080000D02*
X235540000Y-105080000D01*
X238080000Y-105080000D02*
X237730000Y-105080000D01*
X237730000Y-105080000D02*
X236125000Y-103475000D01*
X231944998Y-102994998D02*
X230550000Y-101600000D01*
X233798824Y-102994998D02*
X231944998Y-102994998D01*
X234278826Y-103475000D02*
X233798824Y-102994998D01*
X236125000Y-103475000D02*
X234278826Y-103475000D01*
X230550000Y-101600000D02*
X230400000Y-101600000D01*
X233420000Y-108680000D02*
X233420000Y-107680000D01*
X233420000Y-107680000D02*
X234500000Y-106600000D01*
X234500000Y-106600000D02*
X236500000Y-106600000D01*
X236500000Y-106600000D02*
X238020000Y-105080000D01*
X238020000Y-105080000D02*
X238080000Y-105080000D01*
X240620000Y-105080000D02*
X240280000Y-105080000D01*
X240280000Y-105080000D02*
X238673087Y-103473087D01*
X234446174Y-102946174D02*
X233100000Y-101600000D01*
X236321174Y-102946174D02*
X234446174Y-102946174D01*
X236848087Y-103473087D02*
X236321174Y-102946174D01*
X238673087Y-103473087D02*
X236848087Y-103473087D01*
X233100000Y-101600000D02*
X232940000Y-101600000D01*
X235960000Y-108680000D02*
X235960000Y-107940000D01*
X235960000Y-107940000D02*
X237300000Y-106600000D01*
X237300000Y-106600000D02*
X238800000Y-106600000D01*
X238800000Y-106600000D02*
X240320000Y-105080000D01*
X240320000Y-105080000D02*
X240620000Y-105080000D01*
X243160000Y-105080000D02*
X242830000Y-105080000D01*
X242830000Y-105080000D02*
X241225000Y-103475000D01*
X237073087Y-102973087D02*
X235700000Y-101600000D01*
X238873087Y-102973087D02*
X237073087Y-102973087D01*
X239375000Y-103475000D02*
X238873087Y-102973087D01*
X241225000Y-103475000D02*
X239375000Y-103475000D01*
X235700000Y-101600000D02*
X235480000Y-101600000D01*
X233420000Y-116300000D02*
X233420000Y-113680000D01*
X241300000Y-106600000D02*
X242820000Y-105080000D01*
X239600000Y-106600000D02*
X241300000Y-106600000D01*
X239100000Y-107100000D02*
X239600000Y-106600000D01*
X237700000Y-107100000D02*
X239100000Y-107100000D01*
X237200000Y-107600000D02*
X237700000Y-107100000D01*
X237200000Y-109900000D02*
X237200000Y-107600000D01*
X233420000Y-113680000D02*
X237200000Y-109900000D01*
X242820000Y-105080000D02*
X243160000Y-105080000D01*
X235960000Y-116300000D02*
X235960000Y-113565000D01*
X239800000Y-102975000D02*
X238425000Y-101600000D01*
X241625000Y-102975000D02*
X239800000Y-102975000D01*
X242125000Y-103475000D02*
X241625000Y-102975000D01*
X243775000Y-103475000D02*
X242125000Y-103475000D01*
X244400000Y-104100000D02*
X243775000Y-103475000D01*
X244400000Y-105950000D02*
X244400000Y-104100000D01*
X243750000Y-106600000D02*
X244400000Y-105950000D01*
X242025000Y-106600000D02*
X243750000Y-106600000D01*
X241525000Y-107100000D02*
X242025000Y-106600000D01*
X240100000Y-107100000D02*
X241525000Y-107100000D01*
X239775000Y-107425000D02*
X240100000Y-107100000D01*
X239775000Y-109750000D02*
X239775000Y-107425000D01*
X235960000Y-113565000D02*
X239775000Y-109750000D01*
X238425000Y-101600000D02*
X238020000Y-101600000D01*
X249100000Y-121200000D02*
X246525000Y-121200000D01*
X254175000Y-126275000D02*
X249100000Y-121200000D01*
X256875000Y-126275000D02*
X254175000Y-126275000D01*
X257690000Y-125460000D02*
X256875000Y-126275000D01*
X237025000Y-118025000D02*
X235960000Y-116960000D01*
X244450000Y-118025000D02*
X237025000Y-118025000D01*
X245125000Y-118700000D02*
X244450000Y-118025000D01*
X245125000Y-119800000D02*
X245125000Y-118700000D01*
X246525000Y-121200000D02*
X245125000Y-119800000D01*
X235960000Y-116960000D02*
X235960000Y-116300000D01*
X258400000Y-125460000D02*
X257690000Y-125460000D01*
X238225000Y-101600000D02*
X238020000Y-101600000D01*
X240560000Y-101600000D02*
X240560000Y-101565000D01*
X240560000Y-101565000D02*
X241775000Y-100350000D01*
X241775000Y-100350000D02*
X246725000Y-100350000D01*
X246725000Y-100350000D02*
X246900000Y-100525000D01*
X247600000Y-119960000D02*
X247600000Y-119725000D01*
X247600000Y-119725000D02*
X245875000Y-118000000D01*
X248750000Y-104800000D02*
X248700000Y-104750000D01*
X248750000Y-105375000D02*
X248750000Y-104800000D01*
X245875000Y-108250000D02*
X248750000Y-105375000D01*
X245875000Y-118000000D02*
X245875000Y-108250000D01*
X247600000Y-119960000D02*
X250310000Y-119960000D01*
X257545000Y-123775000D02*
X258400000Y-122920000D01*
X254125000Y-123775000D02*
X257545000Y-123775000D01*
X250310000Y-119960000D02*
X254125000Y-123775000D01*
X245050000Y-103050000D02*
X243600000Y-101600000D01*
X246925000Y-103050000D02*
X245050000Y-103050000D01*
X247375000Y-103500000D02*
X246925000Y-103050000D01*
X248350000Y-103500000D02*
X247375000Y-103500000D01*
X248950000Y-104100000D02*
X248350000Y-103500000D01*
X249200000Y-104100000D02*
X248950000Y-104100000D01*
X249600000Y-104500000D02*
X249200000Y-104100000D01*
X253500000Y-115625000D02*
X253500000Y-106075000D01*
X253525000Y-115650000D02*
X253500000Y-115625000D01*
X243600000Y-101600000D02*
X243100000Y-101600000D01*
X255220000Y-119960000D02*
X257980000Y-119960000D01*
X257980000Y-119960000D02*
X258400000Y-120380000D01*
X255220000Y-117420000D02*
X254320000Y-117420000D01*
X254320000Y-117420000D02*
X252825000Y-115925000D01*
X247625000Y-103000000D02*
X246225000Y-101600000D01*
X248650000Y-103000000D02*
X247625000Y-103000000D01*
X249200000Y-103550000D02*
X248650000Y-103000000D01*
X249725000Y-103550000D02*
X249200000Y-103550000D01*
X249875000Y-103700000D02*
X249725000Y-103550000D01*
X252825000Y-115925000D02*
X252825000Y-105575000D01*
X246225000Y-101600000D02*
X245640000Y-101600000D01*
X255220000Y-117420000D02*
X255305000Y-117420000D01*
X255305000Y-117420000D02*
X257425000Y-115300000D01*
X257425000Y-115300000D02*
X258400000Y-115300000D01*
X250375000Y-117420000D02*
X250580000Y-117420000D01*
X252150000Y-105150000D02*
X252525000Y-104775000D01*
X252150000Y-115850000D02*
X252150000Y-105150000D01*
X250580000Y-117420000D02*
X252150000Y-115850000D01*
X249605000Y-103025000D02*
X248180000Y-101600000D01*
X250700000Y-103275000D02*
X250450000Y-103025000D01*
X250450000Y-103025000D02*
X249605000Y-103025000D01*
X247600000Y-117420000D02*
X250375000Y-117420000D01*
X250375000Y-117420000D02*
X252720000Y-117420000D01*
X257565000Y-118675000D02*
X258400000Y-117840000D01*
X253975000Y-118675000D02*
X257565000Y-118675000D01*
X252720000Y-117420000D02*
X253975000Y-118675000D01*
X253700000Y-103075000D02*
X256875000Y-106250000D01*
X250720000Y-101600000D02*
X252195000Y-103075000D01*
X253700000Y-103075000D02*
X252195000Y-103075000D01*
X256875000Y-110900000D02*
X258400000Y-112425000D01*
X256875000Y-106250000D02*
X256875000Y-110900000D01*
X255470000Y-114880000D02*
X257590000Y-112760000D01*
X257590000Y-112760000D02*
X258400000Y-112760000D01*
X258400000Y-112760000D02*
X258400000Y-112425000D01*
X253700000Y-101600000D02*
X256700000Y-104600000D01*
X256700000Y-104600000D02*
X257860000Y-104600000D01*
X257860000Y-104600000D02*
X258400000Y-105140000D01*
X247600000Y-107475000D02*
X251600000Y-103475000D01*
X247600000Y-109800000D02*
X247600000Y-107475000D01*
X253700000Y-101600000D02*
X253260000Y-101600000D01*
X247600000Y-112050000D02*
X249350000Y-110300000D01*
X249350000Y-110300000D02*
X249350000Y-107000000D01*
X249350000Y-107000000D02*
X252600000Y-103750000D01*
X247600000Y-112340000D02*
X247600000Y-112050000D01*
X258400000Y-107680000D02*
X258400000Y-107350000D01*
X256794000Y-103251000D02*
X258340000Y-101705000D01*
X258340000Y-101705000D02*
X258340000Y-101600000D01*
X258400000Y-110220000D02*
X258400000Y-110175000D01*
X255220000Y-112340000D02*
X255220000Y-112220000D01*
X247600000Y-137650000D02*
X247600000Y-136825000D01*
X247600000Y-136825000D02*
X247400000Y-136625000D01*
X247600000Y-137650000D02*
X248000000Y-138050000D01*
X244715000Y-127140000D02*
X246750000Y-129175000D01*
X246750000Y-129175000D02*
X247325000Y-129750000D01*
X247325000Y-129750000D02*
X247325000Y-136550000D01*
X247325000Y-136550000D02*
X247400000Y-136625000D01*
X244715000Y-127140000D02*
X242620000Y-127140000D01*
X241180000Y-122460000D02*
X241180000Y-119660000D01*
X242620000Y-123900000D02*
X241180000Y-122460000D01*
X241180000Y-119880000D02*
X241180000Y-119660000D01*
X246875000Y-137400000D02*
X246690000Y-137215000D01*
X246690000Y-137215000D02*
X246690000Y-136190000D01*
X246690000Y-130100000D02*
X246690000Y-136190000D01*
X246690000Y-130100000D02*
X244610000Y-128020000D01*
X244610000Y-128020000D02*
X242340000Y-128020000D01*
X242340000Y-128020000D02*
X241440000Y-127120000D01*
X250225000Y-142500000D02*
X250450000Y-142275000D01*
X253584000Y-142275000D02*
X250450000Y-142275000D01*
X255016000Y-140716000D02*
X255016000Y-140843000D01*
X255016000Y-140843000D02*
X253584000Y-142275000D01*
X238640000Y-121070000D02*
X238640000Y-119660000D01*
X241440000Y-123870000D02*
X238640000Y-121070000D01*
X248310000Y-138750000D02*
X247200000Y-138750000D01*
X247200000Y-138750000D02*
X246170000Y-137720000D01*
X246170000Y-137720000D02*
X246170000Y-136610000D01*
X252476000Y-140456000D02*
X250770000Y-138750000D01*
X248310000Y-138750000D02*
X250770000Y-138750000D01*
X240100000Y-123850000D02*
X240100000Y-123660000D01*
X246170000Y-130750000D02*
X244110000Y-128690000D01*
X244110000Y-128690000D02*
X241890000Y-128690000D01*
X241890000Y-128690000D02*
X240290000Y-127090000D01*
X246170000Y-136610000D02*
X246170000Y-130750000D01*
X236100000Y-119660000D02*
X240100000Y-123660000D01*
X249936000Y-140894000D02*
X248480000Y-142350000D01*
X239070000Y-123970000D02*
X237375000Y-122275000D01*
X237375000Y-122275000D02*
X236175000Y-122275000D01*
X233560000Y-119660000D02*
X236175000Y-122275000D01*
X243910002Y-129450000D02*
X241500000Y-129450000D01*
X245650000Y-131189998D02*
X243910002Y-129450000D01*
X241500000Y-129450000D02*
X239150000Y-127100000D01*
X245650000Y-141350000D02*
X245650000Y-131189998D01*
X239070000Y-124040000D02*
X239070000Y-123970000D01*
X246650000Y-142350000D02*
X248480000Y-142350000D01*
X245650000Y-141350000D02*
X246650000Y-142350000D01*
X245080000Y-131560000D02*
X245080000Y-140370000D01*
X245080000Y-140370000D02*
X244825000Y-140625000D01*
X237770000Y-123960000D02*
X235320000Y-123960000D01*
X235320000Y-123960000D02*
X231020000Y-119660000D01*
X241070000Y-130120000D02*
X238010000Y-127060000D01*
X243640000Y-130120000D02*
X241070000Y-130120000D01*
X245080000Y-131560000D02*
X243640000Y-130120000D01*
X231120000Y-119760000D02*
X231020000Y-119660000D01*
D34*
X194980000Y-125430000D02*
X193204998Y-123654998D01*
X194980000Y-127000000D02*
X194980000Y-125430000D01*
X192364998Y-123654998D02*
X190500000Y-121790000D01*
X193204998Y-123654998D02*
X192364998Y-123654998D01*
X187198000Y-121793000D02*
X190497000Y-121793000D01*
X190497000Y-121793000D02*
X190500000Y-121790000D01*
X190790000Y-121790000D02*
X190500000Y-121790000D01*
X190500000Y-126870000D02*
X187201000Y-126870000D01*
X187201000Y-126870000D02*
X187198000Y-126873000D01*
X194980000Y-131750000D02*
X194980000Y-130980000D01*
X194980000Y-130980000D02*
X190870000Y-126870000D01*
X190870000Y-126870000D02*
X190500000Y-126870000D01*
X194980000Y-136500000D02*
X194980000Y-133820000D01*
X191750000Y-131950000D02*
X190500000Y-131950000D01*
X193200000Y-133400000D02*
X191750000Y-131950000D01*
X194560000Y-133400000D02*
X193200000Y-133400000D01*
X194980000Y-133820000D02*
X194560000Y-133400000D01*
X190500000Y-131950000D02*
X187201000Y-131950000D01*
X187201000Y-131950000D02*
X187198000Y-131953000D01*
X191200000Y-131950000D02*
X190500000Y-131950000D01*
D33*
X246050000Y-126300000D02*
X223025000Y-126300000D01*
X253355000Y-127580000D02*
X252500000Y-126725000D01*
X252500000Y-126725000D02*
X249750000Y-126725000D01*
X249750000Y-126725000D02*
X249325000Y-126300000D01*
X255220000Y-127580000D02*
X253355000Y-127580000D01*
X223025000Y-126300000D02*
X222125000Y-125400000D01*
X242850000Y-113250000D02*
X237275000Y-113250000D01*
X243625000Y-112475000D02*
X242850000Y-113250000D01*
X221175000Y-112500000D02*
X219500000Y-112500000D01*
X199925000Y-112075000D02*
X198150000Y-112075000D01*
X202300000Y-114450000D02*
X199925000Y-112075000D01*
X206925000Y-114550000D02*
X206725000Y-114750000D01*
X210425000Y-114550000D02*
X206925000Y-114550000D01*
X210825000Y-114150000D02*
X210425000Y-114550000D01*
X215250000Y-114025000D02*
X213975000Y-114025000D01*
X216400000Y-112875000D02*
X215250000Y-114025000D01*
X219500000Y-112500000D02*
X219000000Y-113000000D01*
X225075000Y-112625000D02*
X225075000Y-114650000D01*
X219425000Y-128100000D02*
X219425000Y-128925000D01*
X222125000Y-125400000D02*
X219425000Y-128100000D01*
X222125000Y-118350000D02*
X222125000Y-125400000D01*
X222425000Y-118050000D02*
X222125000Y-118350000D01*
X222425000Y-117300000D02*
X222425000Y-118050000D01*
X225075000Y-114650000D02*
X222425000Y-117300000D01*
X224950000Y-112500000D02*
X221175000Y-112500000D01*
X225075000Y-112625000D02*
X224950000Y-112500000D01*
X213240000Y-132035000D02*
X213240000Y-134900000D01*
X216350000Y-128925000D02*
X213240000Y-132035000D01*
X219425000Y-128925000D02*
X216350000Y-128925000D01*
X200850000Y-111375000D02*
X195800000Y-111375000D01*
X200975000Y-111250000D02*
X200850000Y-111375000D01*
X213200000Y-111225000D02*
X206625000Y-111225000D01*
X213400000Y-111425000D02*
X213200000Y-111225000D01*
X219562500Y-120912500D02*
X219562500Y-117937500D01*
X219600000Y-114575000D02*
X218325000Y-113300000D01*
X218325000Y-111675000D02*
X218325000Y-113300000D01*
X218350000Y-128200000D02*
X221425000Y-125125000D01*
X221425000Y-125125000D02*
X221425000Y-122775000D01*
X221425000Y-122775000D02*
X219562500Y-120912500D01*
X214125000Y-132525000D02*
X215780000Y-134180000D01*
X214125000Y-132525000D02*
X214125000Y-132225000D01*
X214125000Y-132225000D02*
X216700000Y-129650000D01*
X216925000Y-128200000D02*
X218350000Y-128200000D01*
X219562500Y-117937500D02*
X219600000Y-117900000D01*
X215780000Y-134900000D02*
X215780000Y-134180000D01*
X241100000Y-111725000D02*
X238875000Y-111725000D01*
X224000000Y-111675000D02*
X218325000Y-111675000D01*
X224100000Y-111775000D02*
X224000000Y-111675000D01*
X234400000Y-111350000D02*
X229300000Y-111350000D01*
X234475000Y-111425000D02*
X234400000Y-111350000D01*
X238875000Y-111725000D02*
X238775000Y-111825000D01*
X253300000Y-121825000D02*
X249750000Y-118275000D01*
X249750000Y-118275000D02*
X249725000Y-118275000D01*
X249725000Y-118275000D02*
X249625000Y-118175000D01*
X245150000Y-113550000D02*
X245100000Y-113500000D01*
X245100000Y-113500000D02*
X245100000Y-112225000D01*
X245100000Y-112225000D02*
X244600000Y-111725000D01*
X244600000Y-111725000D02*
X241100000Y-111725000D01*
X217100000Y-110925000D02*
X217100000Y-114675000D01*
X219296174Y-126575000D02*
X219000000Y-126575000D01*
X220900000Y-124971174D02*
X219296174Y-126575000D01*
X220900000Y-123300000D02*
X220900000Y-124971174D01*
X219275000Y-121675000D02*
X220900000Y-123300000D01*
X217650000Y-121675000D02*
X219275000Y-121675000D01*
X217075000Y-121100000D02*
X217650000Y-121675000D01*
X217075000Y-117950000D02*
X217075000Y-121100000D01*
X217125000Y-114700000D02*
X217125000Y-114725000D01*
X217100000Y-114675000D02*
X217125000Y-114700000D01*
X194970000Y-110650000D02*
X193000000Y-108680000D01*
X200350000Y-110650000D02*
X194970000Y-110650000D01*
X200425000Y-110575000D02*
X200350000Y-110650000D01*
X213700000Y-110550000D02*
X206075000Y-110550000D01*
X213750000Y-110600000D02*
X213700000Y-110550000D01*
X223600000Y-110925000D02*
X217100000Y-110925000D01*
X223650000Y-110875000D02*
X223600000Y-110925000D01*
X235400000Y-110575000D02*
X228225000Y-110575000D01*
X245150000Y-111075000D02*
X245075000Y-111000000D01*
X245075000Y-111000000D02*
X239500000Y-111000000D01*
X185380000Y-114380000D02*
X185380000Y-113920000D01*
X185380000Y-114620000D02*
X185380000Y-116300000D01*
X185380000Y-114620000D02*
X185380000Y-114380000D01*
X185380000Y-113920000D02*
X185900000Y-113400000D01*
X208250000Y-119000000D02*
X208250000Y-119550000D01*
X208250000Y-119550000D02*
X211000000Y-122300000D01*
X202500000Y-118000000D02*
X201750000Y-117250000D01*
X214800000Y-122300000D02*
X211000000Y-122300000D01*
X214900000Y-122200000D02*
X214800000Y-122300000D01*
X196250000Y-112750000D02*
X190250000Y-112750000D01*
X197250000Y-113750000D02*
X196250000Y-112750000D01*
X199500000Y-115000000D02*
X199500000Y-114500000D01*
X207250000Y-118000000D02*
X202500000Y-118000000D01*
X208250000Y-119000000D02*
X207250000Y-118000000D01*
X201750000Y-115000000D02*
X199500000Y-115000000D01*
X201750000Y-117250000D02*
X201750000Y-115000000D01*
X223400000Y-119660000D02*
X223400000Y-119125000D01*
X223400000Y-119125000D02*
X224700000Y-117825000D01*
X228825000Y-117825000D02*
X230350000Y-116300000D01*
X224700000Y-117825000D02*
X228825000Y-117825000D01*
X230350000Y-116300000D02*
X230880000Y-116300000D01*
X223400000Y-119660000D02*
X223400000Y-119550000D01*
X230880000Y-116320000D02*
X230880000Y-116300000D01*
X225940000Y-119660000D02*
X226135000Y-119660000D01*
X245075000Y-114500000D02*
X245150000Y-114500000D01*
X244325000Y-113750000D02*
X245075000Y-114500000D01*
X238075000Y-113750000D02*
X244325000Y-113750000D01*
X237900000Y-113925000D02*
X238075000Y-113750000D01*
X237200000Y-113925000D02*
X237900000Y-113925000D01*
X236650000Y-114475000D02*
X237200000Y-113925000D01*
X234675000Y-115075000D02*
X235250000Y-114500000D01*
X234675000Y-117500000D02*
X234675000Y-115075000D01*
X234175000Y-118000000D02*
X234675000Y-117500000D01*
X229825000Y-118000000D02*
X234175000Y-118000000D01*
X229750000Y-118075000D02*
X229825000Y-118000000D01*
D32*
X190500000Y-142110000D02*
X192210000Y-142110000D01*
X194980000Y-142520000D02*
X194980000Y-141250000D01*
X194500000Y-143000000D02*
X194980000Y-142520000D01*
X193100000Y-143000000D02*
X194500000Y-143000000D01*
X192210000Y-142110000D02*
X193100000Y-143000000D01*
X189610000Y-142110000D02*
X188600000Y-141100000D01*
X188430000Y-137030000D02*
X186750000Y-137030000D01*
X188600000Y-137200000D02*
X188430000Y-137030000D01*
X188600000Y-141100000D02*
X188600000Y-137200000D01*
D34*
X196250000Y-141250000D02*
X196250000Y-139750000D01*
X191630000Y-137030000D02*
X190500000Y-137030000D01*
X192600000Y-138000000D02*
X191630000Y-137030000D01*
X196250000Y-139750000D02*
X194800000Y-138300000D01*
D35*
X176650000Y-123063000D02*
X176650000Y-117094000D01*
X176650000Y-117094000D02*
X176650000Y-116078000D01*
X176650000Y-116078000D02*
X176650000Y-113919000D01*
X178000000Y-99650000D02*
X177950000Y-99650000D01*
X177950000Y-99650000D02*
X176650000Y-100950000D01*
X179600000Y-99060000D02*
X178590000Y-99060000D01*
X178590000Y-99060000D02*
X178000000Y-99650000D01*
X182140000Y-99060000D02*
X179600000Y-99060000D01*
X186750000Y-142110000D02*
X183860000Y-142110000D01*
X176650000Y-134900000D02*
X176650000Y-129413000D01*
X176650000Y-129413000D02*
X176650000Y-123063000D01*
X176650000Y-113919000D02*
X176650000Y-110998000D01*
X176650000Y-110998000D02*
X176650000Y-106299000D01*
X176650000Y-106299000D02*
X176650000Y-105918000D01*
X176650000Y-105918000D02*
X176650000Y-101600000D01*
X176650000Y-101600000D02*
X176650000Y-100950000D01*
X183860000Y-142110000D02*
X176650000Y-134900000D01*
X187198000Y-142113000D02*
X186753000Y-142113000D01*
X187220000Y-99060000D02*
X258340000Y-99060000D01*
X182140000Y-99060000D02*
X187220000Y-99060000D01*
D34*
X215780000Y-119660000D02*
X215780000Y-121380000D01*
X206999998Y-122999998D02*
X206700000Y-122700000D01*
X209699998Y-122999998D02*
X206999998Y-122999998D01*
X209900000Y-123200000D02*
X209699998Y-122999998D01*
X215300000Y-123200000D02*
X209900000Y-123200000D01*
X216100000Y-122400000D02*
X215300000Y-123200000D01*
X216100000Y-121700000D02*
X216100000Y-122400000D01*
X215780000Y-121380000D02*
X216100000Y-121700000D01*
X215780000Y-119660000D02*
X215780000Y-119260000D01*
X215780000Y-119260000D02*
X215900000Y-119380000D01*
X215780000Y-119660000D02*
X215780000Y-119720000D01*
D33*
X204325000Y-123675000D02*
X202475000Y-123675000D01*
X202475000Y-123675000D02*
X202424998Y-123624998D01*
X202424998Y-123624998D02*
X199624998Y-123624998D01*
X199624998Y-123624998D02*
X199200000Y-123200000D01*
X199200000Y-123200000D02*
X199200000Y-123100000D01*
X197100000Y-123200000D02*
X194440000Y-120540000D01*
X194440000Y-120540000D02*
X192020000Y-120540000D01*
X192020000Y-120540000D02*
X190730000Y-119250000D01*
X190730000Y-119250000D02*
X190500000Y-119250000D01*
X214600000Y-125100000D02*
X210600000Y-125100000D01*
X209175000Y-123675000D02*
X204325000Y-123675000D01*
X225500000Y-132000000D02*
X228400000Y-134900000D01*
X215400000Y-125900000D02*
X214600000Y-125100000D01*
X220700000Y-131100000D02*
X219200000Y-129600000D01*
X223200000Y-131100000D02*
X220700000Y-131100000D01*
X224100000Y-132000000D02*
X223200000Y-131100000D01*
X225500000Y-132000000D02*
X224100000Y-132000000D01*
X210600000Y-125100000D02*
X209175000Y-123675000D01*
X228480000Y-134900000D02*
X228400000Y-134900000D01*
X194500000Y-123700000D02*
X195800000Y-125000000D01*
X203500000Y-125300000D02*
X201900000Y-125300000D01*
X201900000Y-125300000D02*
X201600000Y-125000000D01*
X201600000Y-125000000D02*
X195800000Y-125000000D01*
X209600000Y-126600000D02*
X209600000Y-126400000D01*
X224100000Y-132700000D02*
X223800000Y-132700000D01*
X223800000Y-132700000D02*
X223000000Y-131900000D01*
X223000000Y-131900000D02*
X220400000Y-131900000D01*
X220400000Y-131900000D02*
X218200000Y-129700000D01*
X218200000Y-129700000D02*
X217700000Y-129700000D01*
X215000000Y-126800000D02*
X214300000Y-126100000D01*
X214300000Y-126100000D02*
X211600000Y-126100000D01*
X211600000Y-126100000D02*
X211700000Y-126000000D01*
X211700000Y-126000000D02*
X211800000Y-126000000D01*
X224100000Y-132700000D02*
X225940000Y-134540000D01*
X208500000Y-125300000D02*
X203500000Y-125300000D01*
X209600000Y-126400000D02*
X208500000Y-125300000D01*
X192630000Y-124330000D02*
X192900000Y-124600000D01*
X192580000Y-124330000D02*
X190500000Y-124330000D01*
X192580000Y-124330000D02*
X192630000Y-124330000D01*
X194500000Y-123800000D02*
X194500000Y-123700000D01*
X225940000Y-134900000D02*
X225940000Y-134540000D01*
X225940000Y-134900000D02*
X225850000Y-134900000D01*
X212000000Y-132400000D02*
X209400000Y-132400000D01*
X209400000Y-132400000D02*
X208600000Y-133200000D01*
X208600000Y-133200000D02*
X199800000Y-133200000D01*
X199800000Y-133200000D02*
X199800000Y-129400000D01*
X219700000Y-132400000D02*
X222600000Y-132400000D01*
X222600000Y-132400000D02*
X223400000Y-133200000D01*
X223400000Y-133200000D02*
X223400000Y-134900000D01*
X203200000Y-130000000D02*
X203800000Y-129400000D01*
X197300000Y-133600000D02*
X197800000Y-133100000D01*
X197800000Y-133100000D02*
X197800000Y-131400000D01*
X200700000Y-130000000D02*
X203200000Y-130000000D01*
X200600000Y-130100000D02*
X200700000Y-130000000D01*
X203800000Y-129400000D02*
X208400000Y-129400000D01*
X210400000Y-127400000D02*
X208400000Y-129400000D01*
X220860000Y-134860000D02*
X216700000Y-130700000D01*
X214900000Y-129000000D02*
X212700000Y-126800000D01*
X212700000Y-126800000D02*
X212500000Y-126800000D01*
X220860000Y-134900000D02*
X220860000Y-134860000D01*
X220860000Y-134900000D02*
X220825000Y-134900000D01*
X193380000Y-122100000D02*
X194960000Y-122100000D01*
X194960000Y-122100000D02*
X195920000Y-123060000D01*
X198960000Y-122160000D02*
X199000000Y-122120000D01*
X199000000Y-122120000D02*
X199000000Y-121700000D01*
X199000000Y-121700000D02*
X200100000Y-120600000D01*
X200100000Y-120600000D02*
X201700000Y-120600000D01*
X201700000Y-120600000D02*
X202600000Y-121500000D01*
X202600000Y-121500000D02*
X205200000Y-121500000D01*
X205200000Y-121500000D02*
X206540000Y-120160000D01*
X206540000Y-120160000D02*
X206540000Y-119750000D01*
X207800000Y-121600000D02*
X209300000Y-121600000D01*
X212200000Y-124500000D02*
X212300000Y-124500000D01*
X211800000Y-124100000D02*
X212200000Y-124500000D01*
X209300000Y-121600000D02*
X209500000Y-121800000D01*
X243720000Y-119660000D02*
X243720000Y-123030000D01*
X217600000Y-124500000D02*
X212300000Y-124500000D01*
X218600000Y-123500000D02*
X217600000Y-124500000D01*
X219600000Y-123500000D02*
X218600000Y-123500000D01*
X219700000Y-123400000D02*
X219600000Y-123500000D01*
X224100000Y-123600000D02*
X224200000Y-123600000D01*
X232700000Y-123600000D02*
X224100000Y-123600000D01*
X233200000Y-123100000D02*
X232700000Y-123600000D01*
X243690000Y-123310000D02*
X243500000Y-123500000D01*
X243690000Y-123000000D02*
X243690000Y-123310000D01*
X243720000Y-123030000D02*
X243690000Y-123000000D01*
X207800000Y-121600000D02*
X205900000Y-121600000D01*
X205900000Y-121600000D02*
X205300000Y-122200000D01*
X205300000Y-122200000D02*
X201100000Y-122200000D01*
X201100000Y-122200000D02*
X201000000Y-122100000D01*
G36*
X183064505Y-142905495D02*
X183429481Y-143149364D01*
X183860000Y-143235000D01*
X185621208Y-143235000D01*
X185995788Y-143485287D01*
X186565451Y-143598600D01*
X186934549Y-143598600D01*
X187504212Y-143485287D01*
X187987148Y-143162599D01*
X188309836Y-142679663D01*
X188385427Y-142299641D01*
X188902893Y-142817107D01*
X189136136Y-142972955D01*
X189262852Y-143162599D01*
X189745788Y-143485287D01*
X190315451Y-143598600D01*
X190684549Y-143598600D01*
X191254212Y-143485287D01*
X191737148Y-143162599D01*
X191772294Y-143110000D01*
X191795786Y-143110000D01*
X192392893Y-143707107D01*
X192717316Y-143923880D01*
X193100000Y-144000000D01*
X194500000Y-144000000D01*
X194813128Y-143937715D01*
X194830541Y-143979857D01*
X194945483Y-144095000D01*
X175995000Y-144095000D01*
X175995000Y-135835990D01*
X183064505Y-142905495D01*
X183064505Y-142905495D01*
G37*
X183064505Y-142905495D02*
X183429481Y-143149364D01*
X183860000Y-143235000D01*
X185621208Y-143235000D01*
X185995788Y-143485287D01*
X186565451Y-143598600D01*
X186934549Y-143598600D01*
X187504212Y-143485287D01*
X187987148Y-143162599D01*
X188309836Y-142679663D01*
X188385427Y-142299641D01*
X188902893Y-142817107D01*
X189136136Y-142972955D01*
X189262852Y-143162599D01*
X189745788Y-143485287D01*
X190315451Y-143598600D01*
X190684549Y-143598600D01*
X191254212Y-143485287D01*
X191737148Y-143162599D01*
X191772294Y-143110000D01*
X191795786Y-143110000D01*
X192392893Y-143707107D01*
X192717316Y-143923880D01*
X193100000Y-144000000D01*
X194500000Y-144000000D01*
X194813128Y-143937715D01*
X194830541Y-143979857D01*
X194945483Y-144095000D01*
X175995000Y-144095000D01*
X175995000Y-135835990D01*
X183064505Y-142905495D01*
G36*
X258950000Y-95685000D02*
X260245000Y-95685000D01*
X260245000Y-97460000D01*
X260245995Y-97465000D01*
X260245000Y-97470000D01*
X260245000Y-144095000D01*
X217314436Y-144095000D01*
X219222183Y-142187254D01*
X219456000Y-142233763D01*
X220025663Y-142120450D01*
X220508599Y-141797762D01*
X220646753Y-141591000D01*
X220805247Y-141591000D01*
X220943401Y-141797762D01*
X221426337Y-142120450D01*
X221996000Y-142233763D01*
X222565663Y-142120450D01*
X223048599Y-141797762D01*
X223186753Y-141591000D01*
X223345247Y-141591000D01*
X223483401Y-141797762D01*
X223966337Y-142120450D01*
X224536000Y-142233763D01*
X225105663Y-142120450D01*
X225588599Y-141797762D01*
X225911287Y-141314826D01*
X226024600Y-140745163D01*
X226024600Y-140686837D01*
X225911287Y-140117174D01*
X225590468Y-139637035D01*
X225753634Y-139569449D01*
X225929450Y-139393634D01*
X226024600Y-139163920D01*
X226024600Y-138457250D01*
X225868350Y-138301000D01*
X224661000Y-138301000D01*
X224661000Y-138321000D01*
X224411000Y-138321000D01*
X224411000Y-138301000D01*
X222121000Y-138301000D01*
X222121000Y-138321000D01*
X221871000Y-138321000D01*
X221871000Y-138301000D01*
X219581000Y-138301000D01*
X219581000Y-138321000D01*
X219331000Y-138321000D01*
X219331000Y-138301000D01*
X219311000Y-138301000D01*
X219311000Y-138051000D01*
X219331000Y-138051000D01*
X219331000Y-136849527D01*
X219581000Y-136849527D01*
X219581000Y-138051000D01*
X221871000Y-138051000D01*
X221871000Y-136849527D01*
X222121000Y-136849527D01*
X222121000Y-138051000D01*
X224411000Y-138051000D01*
X224411000Y-136843650D01*
X224661000Y-136843650D01*
X224661000Y-138051000D01*
X225868350Y-138051000D01*
X226024600Y-137894750D01*
X226024600Y-137188080D01*
X225929450Y-136958366D01*
X225753634Y-136782551D01*
X225523920Y-136687400D01*
X224817250Y-136687400D01*
X224661000Y-136843650D01*
X224411000Y-136843650D01*
X224254750Y-136687400D01*
X223548080Y-136687400D01*
X223318366Y-136782551D01*
X223142550Y-136958366D01*
X223056130Y-137167004D01*
X222766765Y-136902470D01*
X222351507Y-136730475D01*
X222121000Y-136849527D01*
X221871000Y-136849527D01*
X221640493Y-136730475D01*
X221225235Y-136902470D01*
X220796547Y-137294371D01*
X220726000Y-137445200D01*
X220655453Y-137294371D01*
X220226765Y-136902470D01*
X219811507Y-136730475D01*
X219581000Y-136849527D01*
X219331000Y-136849527D01*
X219100493Y-136730475D01*
X218685235Y-136902470D01*
X218256547Y-137294371D01*
X218172000Y-137475132D01*
X218172000Y-136680335D01*
X218320000Y-136709774D01*
X218865324Y-136601302D01*
X219327627Y-136292401D01*
X219590000Y-135899732D01*
X219852373Y-136292401D01*
X220314676Y-136601302D01*
X220860000Y-136709774D01*
X221405324Y-136601302D01*
X221867627Y-136292401D01*
X222130000Y-135899732D01*
X222392373Y-136292401D01*
X222854676Y-136601302D01*
X223400000Y-136709774D01*
X223945324Y-136601302D01*
X224407627Y-136292401D01*
X224670000Y-135899732D01*
X224932373Y-136292401D01*
X225394676Y-136601302D01*
X225940000Y-136709774D01*
X226485324Y-136601302D01*
X226947627Y-136292401D01*
X227210000Y-135899732D01*
X227472373Y-136292401D01*
X227934676Y-136601302D01*
X228480000Y-136709774D01*
X229025324Y-136601302D01*
X229487627Y-136292401D01*
X229750000Y-135899732D01*
X230012373Y-136292401D01*
X230145000Y-136381020D01*
X230145000Y-138949563D01*
X229979423Y-139115140D01*
X229616000Y-139042851D01*
X229046337Y-139156164D01*
X228563401Y-139478852D01*
X228240713Y-139961788D01*
X228127400Y-140531451D01*
X228127400Y-140900549D01*
X228240713Y-141470212D01*
X228563401Y-141953148D01*
X229046337Y-142275836D01*
X229616000Y-142389149D01*
X230185663Y-142275836D01*
X230668599Y-141953148D01*
X230886000Y-141627785D01*
X231103401Y-141953148D01*
X231586337Y-142275836D01*
X232156000Y-142389149D01*
X232725663Y-142275836D01*
X233208599Y-141953148D01*
X233426000Y-141627785D01*
X233643401Y-141953148D01*
X234126337Y-142275836D01*
X234696000Y-142389149D01*
X235265663Y-142275836D01*
X235748599Y-141953148D01*
X235966000Y-141627785D01*
X236183401Y-141953148D01*
X236666337Y-142275836D01*
X237236000Y-142389149D01*
X237805663Y-142275836D01*
X238288599Y-141953148D01*
X238506000Y-141627785D01*
X238723401Y-141953148D01*
X239206337Y-142275836D01*
X239776000Y-142389149D01*
X240345663Y-142275836D01*
X240828599Y-141953148D01*
X240850579Y-141920253D01*
X240858737Y-141963611D01*
X240995619Y-142176332D01*
X241204476Y-142319038D01*
X241452400Y-142369244D01*
X243179600Y-142369244D01*
X243411211Y-142325663D01*
X243623932Y-142188781D01*
X243766638Y-141979924D01*
X243816844Y-141732000D01*
X243816844Y-140452593D01*
X243950523Y-140318914D01*
X243900161Y-140440199D01*
X243899840Y-140808187D01*
X244040366Y-141148286D01*
X244300345Y-141408720D01*
X244640199Y-141549839D01*
X244939802Y-141550100D01*
X244957090Y-141637013D01*
X245119670Y-141880330D01*
X246119670Y-142880330D01*
X246362988Y-143042911D01*
X246650000Y-143100000D01*
X248480000Y-143100000D01*
X248767013Y-143042910D01*
X249010330Y-142880330D01*
X249299921Y-142590739D01*
X249299840Y-142683187D01*
X249440366Y-143023286D01*
X249700345Y-143283720D01*
X250040199Y-143424839D01*
X250408187Y-143425160D01*
X250748286Y-143284634D01*
X251008374Y-143025000D01*
X253584000Y-143025000D01*
X253871013Y-142967910D01*
X254114330Y-142805330D01*
X254611059Y-142308601D01*
X255016000Y-142389149D01*
X255585663Y-142275836D01*
X256068599Y-141953148D01*
X256090579Y-141920253D01*
X256098737Y-141963611D01*
X256235619Y-142176332D01*
X256444476Y-142319038D01*
X256692400Y-142369244D01*
X258419600Y-142369244D01*
X258651211Y-142325663D01*
X258863932Y-142188781D01*
X259006638Y-141979924D01*
X259056844Y-141732000D01*
X259056844Y-139700000D01*
X259013263Y-139468389D01*
X258876381Y-139255668D01*
X258667524Y-139112962D01*
X258419600Y-139062756D01*
X256692400Y-139062756D01*
X256460789Y-139106337D01*
X256248068Y-139243219D01*
X256105362Y-139452076D01*
X256092650Y-139514847D01*
X256068599Y-139478852D01*
X255585663Y-139156164D01*
X255016000Y-139042851D01*
X254446337Y-139156164D01*
X253963401Y-139478852D01*
X253746000Y-139804215D01*
X253528599Y-139478852D01*
X253045663Y-139156164D01*
X252476000Y-139042851D01*
X252181993Y-139101333D01*
X251300330Y-138219670D01*
X251057013Y-138057090D01*
X250770000Y-138000000D01*
X248925044Y-138000000D01*
X248925160Y-137866813D01*
X248784634Y-137526714D01*
X248750000Y-137492019D01*
X248750000Y-136575000D01*
X248730000Y-136575000D01*
X248730000Y-136325000D01*
X248750000Y-136325000D01*
X248750000Y-135356250D01*
X248593750Y-135200000D01*
X248075000Y-135200000D01*
X248075000Y-134284984D01*
X248120898Y-134330882D01*
X248234495Y-134217285D01*
X248290559Y-134445305D01*
X248769478Y-134612383D01*
X249275879Y-134583470D01*
X249558256Y-134466506D01*
X249590458Y-134628395D01*
X249616605Y-134759848D01*
X249806282Y-135043718D01*
X250160419Y-135397855D01*
X250128481Y-135444598D01*
X249979034Y-135295150D01*
X249749320Y-135200000D01*
X249156250Y-135200000D01*
X249000000Y-135356250D01*
X249000000Y-136325000D01*
X249020000Y-136325000D01*
X249020000Y-136575000D01*
X249000000Y-136575000D01*
X249000000Y-137543750D01*
X249156250Y-137700000D01*
X249749320Y-137700000D01*
X249979034Y-137604850D01*
X250127629Y-137456254D01*
X250168219Y-137519332D01*
X250377076Y-137662038D01*
X250625000Y-137712244D01*
X252125000Y-137712244D01*
X252356611Y-137668663D01*
X252569332Y-137531781D01*
X252712038Y-137322924D01*
X252762244Y-137075000D01*
X252762244Y-136020909D01*
X253700483Y-136960786D01*
X255105823Y-137544334D01*
X256627502Y-137545662D01*
X258033858Y-136964568D01*
X259110786Y-135889517D01*
X259694334Y-134484177D01*
X259695662Y-132962498D01*
X259114568Y-131556142D01*
X258039517Y-130479214D01*
X256634177Y-129895666D01*
X255112498Y-129894338D01*
X253706142Y-130475432D01*
X252629214Y-131550483D01*
X252045666Y-132955823D01*
X252044338Y-134477502D01*
X252357241Y-135234786D01*
X252216438Y-135206273D01*
X252183395Y-135040152D01*
X252139113Y-134973880D01*
X251993719Y-134756282D01*
X251300000Y-134062564D01*
X251300000Y-131650000D01*
X251236622Y-131331374D01*
X251233395Y-131315151D01*
X251043718Y-131031281D01*
X250718718Y-130706282D01*
X250434848Y-130516605D01*
X250198597Y-130469612D01*
X250193663Y-130443389D01*
X250056781Y-130230668D01*
X249847924Y-130087962D01*
X249825000Y-130083320D01*
X249825000Y-129587436D01*
X250868719Y-128543718D01*
X250995242Y-128354362D01*
X251118446Y-128231374D01*
X251274822Y-127854780D01*
X251275154Y-127475000D01*
X252189340Y-127475000D01*
X252824670Y-128110330D01*
X253067987Y-128272910D01*
X253355000Y-128330000D01*
X253655458Y-128330000D01*
X253827599Y-128587627D01*
X254289902Y-128896528D01*
X254835226Y-129005000D01*
X255604774Y-129005000D01*
X256150098Y-128896528D01*
X256612401Y-128587627D01*
X256759000Y-128368226D01*
X256759000Y-128987920D01*
X256854151Y-129217634D01*
X257029966Y-129393450D01*
X257259680Y-129488600D01*
X258118750Y-129488600D01*
X258275000Y-129332350D01*
X258275000Y-128125000D01*
X258525000Y-128125000D01*
X258525000Y-129332350D01*
X258681250Y-129488600D01*
X259540320Y-129488600D01*
X259770034Y-129393450D01*
X259945849Y-129217634D01*
X260041000Y-128987920D01*
X260041000Y-128281250D01*
X259884750Y-128125000D01*
X258525000Y-128125000D01*
X258275000Y-128125000D01*
X258255000Y-128125000D01*
X258255000Y-127875000D01*
X258275000Y-127875000D01*
X258275000Y-127855000D01*
X258525000Y-127855000D01*
X258525000Y-127875000D01*
X259884750Y-127875000D01*
X260041000Y-127718750D01*
X260041000Y-127012080D01*
X259945849Y-126782366D01*
X259770034Y-126606550D01*
X259601201Y-126536618D01*
X259637148Y-126512599D01*
X259959836Y-126029663D01*
X260073149Y-125460000D01*
X259959836Y-124890337D01*
X259637148Y-124407401D01*
X259311785Y-124190000D01*
X259637148Y-123972599D01*
X259959836Y-123489663D01*
X260073149Y-122920000D01*
X259959836Y-122350337D01*
X259637148Y-121867401D01*
X259311785Y-121650000D01*
X259637148Y-121432599D01*
X259959836Y-120949663D01*
X260073149Y-120380000D01*
X259959836Y-119810337D01*
X259637148Y-119327401D01*
X259311785Y-119110000D01*
X259637148Y-118892599D01*
X259959836Y-118409663D01*
X260073149Y-117840000D01*
X259959836Y-117270337D01*
X259637148Y-116787401D01*
X259311785Y-116570000D01*
X259637148Y-116352599D01*
X259959836Y-115869663D01*
X260073149Y-115300000D01*
X259959836Y-114730337D01*
X259637148Y-114247401D01*
X259311785Y-114030000D01*
X259637148Y-113812599D01*
X259959836Y-113329663D01*
X260073149Y-112760000D01*
X259959836Y-112190337D01*
X259637148Y-111707401D01*
X259311785Y-111490000D01*
X259637148Y-111272599D01*
X259959836Y-110789663D01*
X260073149Y-110220000D01*
X259959836Y-109650337D01*
X259637148Y-109167401D01*
X259311785Y-108950000D01*
X259637148Y-108732599D01*
X259959836Y-108249663D01*
X260073149Y-107680000D01*
X259959836Y-107110337D01*
X259637148Y-106627401D01*
X259311785Y-106410000D01*
X259637148Y-106192599D01*
X259959836Y-105709663D01*
X260073149Y-105140000D01*
X259959836Y-104570337D01*
X259637148Y-104087401D01*
X259154212Y-103764713D01*
X258584549Y-103651400D01*
X258215451Y-103651400D01*
X257645788Y-103764713D01*
X257518147Y-103850000D01*
X257503245Y-103850000D01*
X257577720Y-103775655D01*
X257718839Y-103435801D01*
X257718882Y-103386778D01*
X258046315Y-103059345D01*
X258340000Y-103117763D01*
X258909663Y-103004450D01*
X259392599Y-102681762D01*
X259715287Y-102198826D01*
X259828600Y-101629163D01*
X259828600Y-101570837D01*
X259715287Y-101001174D01*
X259392599Y-100518238D01*
X259110881Y-100330000D01*
X259392599Y-100141762D01*
X259715287Y-99658826D01*
X259828600Y-99089163D01*
X259828600Y-99030837D01*
X259715287Y-98461174D01*
X259392599Y-97978238D01*
X258909663Y-97655550D01*
X258340000Y-97542237D01*
X257770337Y-97655550D01*
X257352111Y-97935000D01*
X256787889Y-97935000D01*
X256369663Y-97655550D01*
X255800000Y-97542237D01*
X255230337Y-97655550D01*
X254812111Y-97935000D01*
X254247889Y-97935000D01*
X253829663Y-97655550D01*
X253260000Y-97542237D01*
X252690337Y-97655550D01*
X252272111Y-97935000D01*
X251707889Y-97935000D01*
X251289663Y-97655550D01*
X250720000Y-97542237D01*
X250150337Y-97655550D01*
X249732111Y-97935000D01*
X249167889Y-97935000D01*
X248749663Y-97655550D01*
X248180000Y-97542237D01*
X247610337Y-97655550D01*
X247192111Y-97935000D01*
X246627889Y-97935000D01*
X246209663Y-97655550D01*
X245640000Y-97542237D01*
X245070337Y-97655550D01*
X244652111Y-97935000D01*
X244087889Y-97935000D01*
X243669663Y-97655550D01*
X243100000Y-97542237D01*
X242530337Y-97655550D01*
X242112111Y-97935000D01*
X241547889Y-97935000D01*
X241129663Y-97655550D01*
X240560000Y-97542237D01*
X239990337Y-97655550D01*
X239572111Y-97935000D01*
X239007889Y-97935000D01*
X238589663Y-97655550D01*
X238020000Y-97542237D01*
X237450337Y-97655550D01*
X237032111Y-97935000D01*
X236467889Y-97935000D01*
X236049663Y-97655550D01*
X235480000Y-97542237D01*
X234910337Y-97655550D01*
X234492111Y-97935000D01*
X233927889Y-97935000D01*
X233509663Y-97655550D01*
X232940000Y-97542237D01*
X232370337Y-97655550D01*
X231952111Y-97935000D01*
X231387889Y-97935000D01*
X230969663Y-97655550D01*
X230400000Y-97542237D01*
X229830337Y-97655550D01*
X229412111Y-97935000D01*
X228847889Y-97935000D01*
X228429663Y-97655550D01*
X227860000Y-97542237D01*
X227290337Y-97655550D01*
X226872111Y-97935000D01*
X226307889Y-97935000D01*
X225889663Y-97655550D01*
X225320000Y-97542237D01*
X224750337Y-97655550D01*
X224332111Y-97935000D01*
X223767889Y-97935000D01*
X223349663Y-97655550D01*
X222780000Y-97542237D01*
X222210337Y-97655550D01*
X221792111Y-97935000D01*
X221227889Y-97935000D01*
X220809663Y-97655550D01*
X220240000Y-97542237D01*
X219670337Y-97655550D01*
X219252111Y-97935000D01*
X218687889Y-97935000D01*
X218269663Y-97655550D01*
X217700000Y-97542237D01*
X217130337Y-97655550D01*
X216712111Y-97935000D01*
X216147889Y-97935000D01*
X215729663Y-97655550D01*
X215160000Y-97542237D01*
X214590337Y-97655550D01*
X214172111Y-97935000D01*
X213607889Y-97935000D01*
X213189663Y-97655550D01*
X212620000Y-97542237D01*
X212050337Y-97655550D01*
X211632111Y-97935000D01*
X211067889Y-97935000D01*
X210649663Y-97655550D01*
X210080000Y-97542237D01*
X209510337Y-97655550D01*
X209092111Y-97935000D01*
X208527889Y-97935000D01*
X208109663Y-97655550D01*
X207540000Y-97542237D01*
X206970337Y-97655550D01*
X206552111Y-97935000D01*
X205987889Y-97935000D01*
X205569663Y-97655550D01*
X205000000Y-97542237D01*
X204430337Y-97655550D01*
X204012111Y-97935000D01*
X203447889Y-97935000D01*
X203029663Y-97655550D01*
X202460000Y-97542237D01*
X201890337Y-97655550D01*
X201472111Y-97935000D01*
X200907889Y-97935000D01*
X200489663Y-97655550D01*
X199920000Y-97542237D01*
X199350337Y-97655550D01*
X198932111Y-97935000D01*
X198367889Y-97935000D01*
X197949663Y-97655550D01*
X197380000Y-97542237D01*
X196810337Y-97655550D01*
X196392111Y-97935000D01*
X195827889Y-97935000D01*
X195409663Y-97655550D01*
X194840000Y-97542237D01*
X194270337Y-97655550D01*
X193852111Y-97935000D01*
X193287889Y-97935000D01*
X192869663Y-97655550D01*
X192300000Y-97542237D01*
X191730337Y-97655550D01*
X191312111Y-97935000D01*
X190747889Y-97935000D01*
X190329663Y-97655550D01*
X189760000Y-97542237D01*
X189190337Y-97655550D01*
X188772111Y-97935000D01*
X188207889Y-97935000D01*
X187789663Y-97655550D01*
X187220000Y-97542237D01*
X186650337Y-97655550D01*
X186232111Y-97935000D01*
X185667889Y-97935000D01*
X185249663Y-97655550D01*
X184680000Y-97542237D01*
X184110337Y-97655550D01*
X183692111Y-97935000D01*
X183127889Y-97935000D01*
X182709663Y-97655550D01*
X182140000Y-97542237D01*
X181570337Y-97655550D01*
X181152111Y-97935000D01*
X180587889Y-97935000D01*
X180169663Y-97655550D01*
X179600000Y-97542237D01*
X179030337Y-97655550D01*
X178612111Y-97935000D01*
X178590000Y-97935000D01*
X178159481Y-98020636D01*
X177794505Y-98264505D01*
X177305188Y-98753822D01*
X177154505Y-98854505D01*
X175995000Y-100014010D01*
X175995000Y-95685000D01*
X177710000Y-95685000D01*
X177715000Y-95684005D01*
X177720000Y-95685000D01*
X258940000Y-95685000D01*
X258945000Y-95684005D01*
X258950000Y-95685000D01*
X258950000Y-95685000D01*
G37*
X258950000Y-95685000D02*
X260245000Y-95685000D01*
X260245000Y-97460000D01*
X260245995Y-97465000D01*
X260245000Y-97470000D01*
X260245000Y-144095000D01*
X217314436Y-144095000D01*
X219222183Y-142187254D01*
X219456000Y-142233763D01*
X220025663Y-142120450D01*
X220508599Y-141797762D01*
X220646753Y-141591000D01*
X220805247Y-141591000D01*
X220943401Y-141797762D01*
X221426337Y-142120450D01*
X221996000Y-142233763D01*
X222565663Y-142120450D01*
X223048599Y-141797762D01*
X223186753Y-141591000D01*
X223345247Y-141591000D01*
X223483401Y-141797762D01*
X223966337Y-142120450D01*
X224536000Y-142233763D01*
X225105663Y-142120450D01*
X225588599Y-141797762D01*
X225911287Y-141314826D01*
X226024600Y-140745163D01*
X226024600Y-140686837D01*
X225911287Y-140117174D01*
X225590468Y-139637035D01*
X225753634Y-139569449D01*
X225929450Y-139393634D01*
X226024600Y-139163920D01*
X226024600Y-138457250D01*
X225868350Y-138301000D01*
X224661000Y-138301000D01*
X224661000Y-138321000D01*
X224411000Y-138321000D01*
X224411000Y-138301000D01*
X222121000Y-138301000D01*
X222121000Y-138321000D01*
X221871000Y-138321000D01*
X221871000Y-138301000D01*
X219581000Y-138301000D01*
X219581000Y-138321000D01*
X219331000Y-138321000D01*
X219331000Y-138301000D01*
X219311000Y-138301000D01*
X219311000Y-138051000D01*
X219331000Y-138051000D01*
X219331000Y-136849527D01*
X219581000Y-136849527D01*
X219581000Y-138051000D01*
X221871000Y-138051000D01*
X221871000Y-136849527D01*
X222121000Y-136849527D01*
X222121000Y-138051000D01*
X224411000Y-138051000D01*
X224411000Y-136843650D01*
X224661000Y-136843650D01*
X224661000Y-138051000D01*
X225868350Y-138051000D01*
X226024600Y-137894750D01*
X226024600Y-137188080D01*
X225929450Y-136958366D01*
X225753634Y-136782551D01*
X225523920Y-136687400D01*
X224817250Y-136687400D01*
X224661000Y-136843650D01*
X224411000Y-136843650D01*
X224254750Y-136687400D01*
X223548080Y-136687400D01*
X223318366Y-136782551D01*
X223142550Y-136958366D01*
X223056130Y-137167004D01*
X222766765Y-136902470D01*
X222351507Y-136730475D01*
X222121000Y-136849527D01*
X221871000Y-136849527D01*
X221640493Y-136730475D01*
X221225235Y-136902470D01*
X220796547Y-137294371D01*
X220726000Y-137445200D01*
X220655453Y-137294371D01*
X220226765Y-136902470D01*
X219811507Y-136730475D01*
X219581000Y-136849527D01*
X219331000Y-136849527D01*
X219100493Y-136730475D01*
X218685235Y-136902470D01*
X218256547Y-137294371D01*
X218172000Y-137475132D01*
X218172000Y-136680335D01*
X218320000Y-136709774D01*
X218865324Y-136601302D01*
X219327627Y-136292401D01*
X219590000Y-135899732D01*
X219852373Y-136292401D01*
X220314676Y-136601302D01*
X220860000Y-136709774D01*
X221405324Y-136601302D01*
X221867627Y-136292401D01*
X222130000Y-135899732D01*
X222392373Y-136292401D01*
X222854676Y-136601302D01*
X223400000Y-136709774D01*
X223945324Y-136601302D01*
X224407627Y-136292401D01*
X224670000Y-135899732D01*
X224932373Y-136292401D01*
X225394676Y-136601302D01*
X225940000Y-136709774D01*
X226485324Y-136601302D01*
X226947627Y-136292401D01*
X227210000Y-135899732D01*
X227472373Y-136292401D01*
X227934676Y-136601302D01*
X228480000Y-136709774D01*
X229025324Y-136601302D01*
X229487627Y-136292401D01*
X229750000Y-135899732D01*
X230012373Y-136292401D01*
X230145000Y-136381020D01*
X230145000Y-138949563D01*
X229979423Y-139115140D01*
X229616000Y-139042851D01*
X229046337Y-139156164D01*
X228563401Y-139478852D01*
X228240713Y-139961788D01*
X228127400Y-140531451D01*
X228127400Y-140900549D01*
X228240713Y-141470212D01*
X228563401Y-141953148D01*
X229046337Y-142275836D01*
X229616000Y-142389149D01*
X230185663Y-142275836D01*
X230668599Y-141953148D01*
X230886000Y-141627785D01*
X231103401Y-141953148D01*
X231586337Y-142275836D01*
X232156000Y-142389149D01*
X232725663Y-142275836D01*
X233208599Y-141953148D01*
X233426000Y-141627785D01*
X233643401Y-141953148D01*
X234126337Y-142275836D01*
X234696000Y-142389149D01*
X235265663Y-142275836D01*
X235748599Y-141953148D01*
X235966000Y-141627785D01*
X236183401Y-141953148D01*
X236666337Y-142275836D01*
X237236000Y-142389149D01*
X237805663Y-142275836D01*
X238288599Y-141953148D01*
X238506000Y-141627785D01*
X238723401Y-141953148D01*
X239206337Y-142275836D01*
X239776000Y-142389149D01*
X240345663Y-142275836D01*
X240828599Y-141953148D01*
X240850579Y-141920253D01*
X240858737Y-141963611D01*
X240995619Y-142176332D01*
X241204476Y-142319038D01*
X241452400Y-142369244D01*
X243179600Y-142369244D01*
X243411211Y-142325663D01*
X243623932Y-142188781D01*
X243766638Y-141979924D01*
X243816844Y-141732000D01*
X243816844Y-140452593D01*
X243950523Y-140318914D01*
X243900161Y-140440199D01*
X243899840Y-140808187D01*
X244040366Y-141148286D01*
X244300345Y-141408720D01*
X244640199Y-141549839D01*
X244939802Y-141550100D01*
X244957090Y-141637013D01*
X245119670Y-141880330D01*
X246119670Y-142880330D01*
X246362988Y-143042911D01*
X246650000Y-143100000D01*
X248480000Y-143100000D01*
X248767013Y-143042910D01*
X249010330Y-142880330D01*
X249299921Y-142590739D01*
X249299840Y-142683187D01*
X249440366Y-143023286D01*
X249700345Y-143283720D01*
X250040199Y-143424839D01*
X250408187Y-143425160D01*
X250748286Y-143284634D01*
X251008374Y-143025000D01*
X253584000Y-143025000D01*
X253871013Y-142967910D01*
X254114330Y-142805330D01*
X254611059Y-142308601D01*
X255016000Y-142389149D01*
X255585663Y-142275836D01*
X256068599Y-141953148D01*
X256090579Y-141920253D01*
X256098737Y-141963611D01*
X256235619Y-142176332D01*
X256444476Y-142319038D01*
X256692400Y-142369244D01*
X258419600Y-142369244D01*
X258651211Y-142325663D01*
X258863932Y-142188781D01*
X259006638Y-141979924D01*
X259056844Y-141732000D01*
X259056844Y-139700000D01*
X259013263Y-139468389D01*
X258876381Y-139255668D01*
X258667524Y-139112962D01*
X258419600Y-139062756D01*
X256692400Y-139062756D01*
X256460789Y-139106337D01*
X256248068Y-139243219D01*
X256105362Y-139452076D01*
X256092650Y-139514847D01*
X256068599Y-139478852D01*
X255585663Y-139156164D01*
X255016000Y-139042851D01*
X254446337Y-139156164D01*
X253963401Y-139478852D01*
X253746000Y-139804215D01*
X253528599Y-139478852D01*
X253045663Y-139156164D01*
X252476000Y-139042851D01*
X252181993Y-139101333D01*
X251300330Y-138219670D01*
X251057013Y-138057090D01*
X250770000Y-138000000D01*
X248925044Y-138000000D01*
X248925160Y-137866813D01*
X248784634Y-137526714D01*
X248750000Y-137492019D01*
X248750000Y-136575000D01*
X248730000Y-136575000D01*
X248730000Y-136325000D01*
X248750000Y-136325000D01*
X248750000Y-135356250D01*
X248593750Y-135200000D01*
X248075000Y-135200000D01*
X248075000Y-134284984D01*
X248120898Y-134330882D01*
X248234495Y-134217285D01*
X248290559Y-134445305D01*
X248769478Y-134612383D01*
X249275879Y-134583470D01*
X249558256Y-134466506D01*
X249590458Y-134628395D01*
X249616605Y-134759848D01*
X249806282Y-135043718D01*
X250160419Y-135397855D01*
X250128481Y-135444598D01*
X249979034Y-135295150D01*
X249749320Y-135200000D01*
X249156250Y-135200000D01*
X249000000Y-135356250D01*
X249000000Y-136325000D01*
X249020000Y-136325000D01*
X249020000Y-136575000D01*
X249000000Y-136575000D01*
X249000000Y-137543750D01*
X249156250Y-137700000D01*
X249749320Y-137700000D01*
X249979034Y-137604850D01*
X250127629Y-137456254D01*
X250168219Y-137519332D01*
X250377076Y-137662038D01*
X250625000Y-137712244D01*
X252125000Y-137712244D01*
X252356611Y-137668663D01*
X252569332Y-137531781D01*
X252712038Y-137322924D01*
X252762244Y-137075000D01*
X252762244Y-136020909D01*
X253700483Y-136960786D01*
X255105823Y-137544334D01*
X256627502Y-137545662D01*
X258033858Y-136964568D01*
X259110786Y-135889517D01*
X259694334Y-134484177D01*
X259695662Y-132962498D01*
X259114568Y-131556142D01*
X258039517Y-130479214D01*
X256634177Y-129895666D01*
X255112498Y-129894338D01*
X253706142Y-130475432D01*
X252629214Y-131550483D01*
X252045666Y-132955823D01*
X252044338Y-134477502D01*
X252357241Y-135234786D01*
X252216438Y-135206273D01*
X252183395Y-135040152D01*
X252139113Y-134973880D01*
X251993719Y-134756282D01*
X251300000Y-134062564D01*
X251300000Y-131650000D01*
X251236622Y-131331374D01*
X251233395Y-131315151D01*
X251043718Y-131031281D01*
X250718718Y-130706282D01*
X250434848Y-130516605D01*
X250198597Y-130469612D01*
X250193663Y-130443389D01*
X250056781Y-130230668D01*
X249847924Y-130087962D01*
X249825000Y-130083320D01*
X249825000Y-129587436D01*
X250868719Y-128543718D01*
X250995242Y-128354362D01*
X251118446Y-128231374D01*
X251274822Y-127854780D01*
X251275154Y-127475000D01*
X252189340Y-127475000D01*
X252824670Y-128110330D01*
X253067987Y-128272910D01*
X253355000Y-128330000D01*
X253655458Y-128330000D01*
X253827599Y-128587627D01*
X254289902Y-128896528D01*
X254835226Y-129005000D01*
X255604774Y-129005000D01*
X256150098Y-128896528D01*
X256612401Y-128587627D01*
X256759000Y-128368226D01*
X256759000Y-128987920D01*
X256854151Y-129217634D01*
X257029966Y-129393450D01*
X257259680Y-129488600D01*
X258118750Y-129488600D01*
X258275000Y-129332350D01*
X258275000Y-128125000D01*
X258525000Y-128125000D01*
X258525000Y-129332350D01*
X258681250Y-129488600D01*
X259540320Y-129488600D01*
X259770034Y-129393450D01*
X259945849Y-129217634D01*
X260041000Y-128987920D01*
X260041000Y-128281250D01*
X259884750Y-128125000D01*
X258525000Y-128125000D01*
X258275000Y-128125000D01*
X258255000Y-128125000D01*
X258255000Y-127875000D01*
X258275000Y-127875000D01*
X258275000Y-127855000D01*
X258525000Y-127855000D01*
X258525000Y-127875000D01*
X259884750Y-127875000D01*
X260041000Y-127718750D01*
X260041000Y-127012080D01*
X259945849Y-126782366D01*
X259770034Y-126606550D01*
X259601201Y-126536618D01*
X259637148Y-126512599D01*
X259959836Y-126029663D01*
X260073149Y-125460000D01*
X259959836Y-124890337D01*
X259637148Y-124407401D01*
X259311785Y-124190000D01*
X259637148Y-123972599D01*
X259959836Y-123489663D01*
X260073149Y-122920000D01*
X259959836Y-122350337D01*
X259637148Y-121867401D01*
X259311785Y-121650000D01*
X259637148Y-121432599D01*
X259959836Y-120949663D01*
X260073149Y-120380000D01*
X259959836Y-119810337D01*
X259637148Y-119327401D01*
X259311785Y-119110000D01*
X259637148Y-118892599D01*
X259959836Y-118409663D01*
X260073149Y-117840000D01*
X259959836Y-117270337D01*
X259637148Y-116787401D01*
X259311785Y-116570000D01*
X259637148Y-116352599D01*
X259959836Y-115869663D01*
X260073149Y-115300000D01*
X259959836Y-114730337D01*
X259637148Y-114247401D01*
X259311785Y-114030000D01*
X259637148Y-113812599D01*
X259959836Y-113329663D01*
X260073149Y-112760000D01*
X259959836Y-112190337D01*
X259637148Y-111707401D01*
X259311785Y-111490000D01*
X259637148Y-111272599D01*
X259959836Y-110789663D01*
X260073149Y-110220000D01*
X259959836Y-109650337D01*
X259637148Y-109167401D01*
X259311785Y-108950000D01*
X259637148Y-108732599D01*
X259959836Y-108249663D01*
X260073149Y-107680000D01*
X259959836Y-107110337D01*
X259637148Y-106627401D01*
X259311785Y-106410000D01*
X259637148Y-106192599D01*
X259959836Y-105709663D01*
X260073149Y-105140000D01*
X259959836Y-104570337D01*
X259637148Y-104087401D01*
X259154212Y-103764713D01*
X258584549Y-103651400D01*
X258215451Y-103651400D01*
X257645788Y-103764713D01*
X257518147Y-103850000D01*
X257503245Y-103850000D01*
X257577720Y-103775655D01*
X257718839Y-103435801D01*
X257718882Y-103386778D01*
X258046315Y-103059345D01*
X258340000Y-103117763D01*
X258909663Y-103004450D01*
X259392599Y-102681762D01*
X259715287Y-102198826D01*
X259828600Y-101629163D01*
X259828600Y-101570837D01*
X259715287Y-101001174D01*
X259392599Y-100518238D01*
X259110881Y-100330000D01*
X259392599Y-100141762D01*
X259715287Y-99658826D01*
X259828600Y-99089163D01*
X259828600Y-99030837D01*
X259715287Y-98461174D01*
X259392599Y-97978238D01*
X258909663Y-97655550D01*
X258340000Y-97542237D01*
X257770337Y-97655550D01*
X257352111Y-97935000D01*
X256787889Y-97935000D01*
X256369663Y-97655550D01*
X255800000Y-97542237D01*
X255230337Y-97655550D01*
X254812111Y-97935000D01*
X254247889Y-97935000D01*
X253829663Y-97655550D01*
X253260000Y-97542237D01*
X252690337Y-97655550D01*
X252272111Y-97935000D01*
X251707889Y-97935000D01*
X251289663Y-97655550D01*
X250720000Y-97542237D01*
X250150337Y-97655550D01*
X249732111Y-97935000D01*
X249167889Y-97935000D01*
X248749663Y-97655550D01*
X248180000Y-97542237D01*
X247610337Y-97655550D01*
X247192111Y-97935000D01*
X246627889Y-97935000D01*
X246209663Y-97655550D01*
X245640000Y-97542237D01*
X245070337Y-97655550D01*
X244652111Y-97935000D01*
X244087889Y-97935000D01*
X243669663Y-97655550D01*
X243100000Y-97542237D01*
X242530337Y-97655550D01*
X242112111Y-97935000D01*
X241547889Y-97935000D01*
X241129663Y-97655550D01*
X240560000Y-97542237D01*
X239990337Y-97655550D01*
X239572111Y-97935000D01*
X239007889Y-97935000D01*
X238589663Y-97655550D01*
X238020000Y-97542237D01*
X237450337Y-97655550D01*
X237032111Y-97935000D01*
X236467889Y-97935000D01*
X236049663Y-97655550D01*
X235480000Y-97542237D01*
X234910337Y-97655550D01*
X234492111Y-97935000D01*
X233927889Y-97935000D01*
X233509663Y-97655550D01*
X232940000Y-97542237D01*
X232370337Y-97655550D01*
X231952111Y-97935000D01*
X231387889Y-97935000D01*
X230969663Y-97655550D01*
X230400000Y-97542237D01*
X229830337Y-97655550D01*
X229412111Y-97935000D01*
X228847889Y-97935000D01*
X228429663Y-97655550D01*
X227860000Y-97542237D01*
X227290337Y-97655550D01*
X226872111Y-97935000D01*
X226307889Y-97935000D01*
X225889663Y-97655550D01*
X225320000Y-97542237D01*
X224750337Y-97655550D01*
X224332111Y-97935000D01*
X223767889Y-97935000D01*
X223349663Y-97655550D01*
X222780000Y-97542237D01*
X222210337Y-97655550D01*
X221792111Y-97935000D01*
X221227889Y-97935000D01*
X220809663Y-97655550D01*
X220240000Y-97542237D01*
X219670337Y-97655550D01*
X219252111Y-97935000D01*
X218687889Y-97935000D01*
X218269663Y-97655550D01*
X217700000Y-97542237D01*
X217130337Y-97655550D01*
X216712111Y-97935000D01*
X216147889Y-97935000D01*
X215729663Y-97655550D01*
X215160000Y-97542237D01*
X214590337Y-97655550D01*
X214172111Y-97935000D01*
X213607889Y-97935000D01*
X213189663Y-97655550D01*
X212620000Y-97542237D01*
X212050337Y-97655550D01*
X211632111Y-97935000D01*
X211067889Y-97935000D01*
X210649663Y-97655550D01*
X210080000Y-97542237D01*
X209510337Y-97655550D01*
X209092111Y-97935000D01*
X208527889Y-97935000D01*
X208109663Y-97655550D01*
X207540000Y-97542237D01*
X206970337Y-97655550D01*
X206552111Y-97935000D01*
X205987889Y-97935000D01*
X205569663Y-97655550D01*
X205000000Y-97542237D01*
X204430337Y-97655550D01*
X204012111Y-97935000D01*
X203447889Y-97935000D01*
X203029663Y-97655550D01*
X202460000Y-97542237D01*
X201890337Y-97655550D01*
X201472111Y-97935000D01*
X200907889Y-97935000D01*
X200489663Y-97655550D01*
X199920000Y-97542237D01*
X199350337Y-97655550D01*
X198932111Y-97935000D01*
X198367889Y-97935000D01*
X197949663Y-97655550D01*
X197380000Y-97542237D01*
X196810337Y-97655550D01*
X196392111Y-97935000D01*
X195827889Y-97935000D01*
X195409663Y-97655550D01*
X194840000Y-97542237D01*
X194270337Y-97655550D01*
X193852111Y-97935000D01*
X193287889Y-97935000D01*
X192869663Y-97655550D01*
X192300000Y-97542237D01*
X191730337Y-97655550D01*
X191312111Y-97935000D01*
X190747889Y-97935000D01*
X190329663Y-97655550D01*
X189760000Y-97542237D01*
X189190337Y-97655550D01*
X188772111Y-97935000D01*
X188207889Y-97935000D01*
X187789663Y-97655550D01*
X187220000Y-97542237D01*
X186650337Y-97655550D01*
X186232111Y-97935000D01*
X185667889Y-97935000D01*
X185249663Y-97655550D01*
X184680000Y-97542237D01*
X184110337Y-97655550D01*
X183692111Y-97935000D01*
X183127889Y-97935000D01*
X182709663Y-97655550D01*
X182140000Y-97542237D01*
X181570337Y-97655550D01*
X181152111Y-97935000D01*
X180587889Y-97935000D01*
X180169663Y-97655550D01*
X179600000Y-97542237D01*
X179030337Y-97655550D01*
X178612111Y-97935000D01*
X178590000Y-97935000D01*
X178159481Y-98020636D01*
X177794505Y-98264505D01*
X177305188Y-98753822D01*
X177154505Y-98854505D01*
X175995000Y-100014010D01*
X175995000Y-95685000D01*
X177710000Y-95685000D01*
X177715000Y-95684005D01*
X177720000Y-95685000D01*
X258940000Y-95685000D01*
X258945000Y-95684005D01*
X258950000Y-95685000D01*
G36*
X218004232Y-140501668D02*
X217967400Y-140686837D01*
X217967400Y-140745163D01*
X218004232Y-140930331D01*
X217291418Y-141643146D01*
X217300000Y-141600000D01*
X217300000Y-139797436D01*
X218004232Y-140501668D01*
X218004232Y-140501668D01*
G37*
X218004232Y-140501668D02*
X217967400Y-140686837D01*
X217967400Y-140745163D01*
X218004232Y-140930331D01*
X217291418Y-141643146D01*
X217300000Y-141600000D01*
X217300000Y-139797436D01*
X218004232Y-140501668D01*
G36*
X192581282Y-134018719D02*
X192865152Y-134208395D01*
X193200000Y-134275000D01*
X194105000Y-134275000D01*
X194105000Y-135215568D01*
X194000421Y-135164419D01*
X193835000Y-135289227D01*
X193835000Y-136375000D01*
X193855000Y-136375000D01*
X193855000Y-136625000D01*
X193835000Y-136625000D01*
X193835000Y-137710773D01*
X193911004Y-137768117D01*
X193775178Y-138095220D01*
X193774822Y-138502991D01*
X193930541Y-138879857D01*
X194218626Y-139168446D01*
X194581823Y-139319259D01*
X195142335Y-139879772D01*
X194980000Y-139847481D01*
X194568776Y-139929279D01*
X194341415Y-140081196D01*
X194000421Y-139914419D01*
X193835000Y-140039227D01*
X193835000Y-141125000D01*
X193855000Y-141125000D01*
X193855000Y-141375000D01*
X193835000Y-141375000D01*
X193835000Y-141395000D01*
X193585000Y-141395000D01*
X193585000Y-141375000D01*
X193565000Y-141375000D01*
X193565000Y-141125000D01*
X193585000Y-141125000D01*
X193585000Y-140039227D01*
X193419579Y-139914419D01*
X193038546Y-140100779D01*
X192765053Y-140422301D01*
X192635420Y-140824010D01*
X192635420Y-141214675D01*
X192592684Y-141186120D01*
X192210000Y-141110000D01*
X191772294Y-141110000D01*
X191737148Y-141057401D01*
X191411785Y-140840000D01*
X191737148Y-140622599D01*
X192059836Y-140139663D01*
X192173149Y-139570000D01*
X192059836Y-139000337D01*
X191876734Y-138726305D01*
X192018626Y-138868446D01*
X192395220Y-139024822D01*
X192802991Y-139025178D01*
X193179857Y-138869459D01*
X193468446Y-138581374D01*
X193624822Y-138204780D01*
X193625178Y-137797009D01*
X193585000Y-137699772D01*
X193585000Y-136625000D01*
X192635420Y-136625000D01*
X192635420Y-136797984D01*
X192248718Y-136411282D01*
X191964848Y-136221605D01*
X191890429Y-136206802D01*
X191801701Y-136074010D01*
X192635420Y-136074010D01*
X192635420Y-136375000D01*
X193585000Y-136375000D01*
X193585000Y-135289227D01*
X193419579Y-135164419D01*
X193038546Y-135350779D01*
X192765053Y-135672301D01*
X192635420Y-136074010D01*
X191801701Y-136074010D01*
X191737148Y-135977401D01*
X191411785Y-135760000D01*
X191737148Y-135542599D01*
X192059836Y-135059663D01*
X192173149Y-134490000D01*
X192059836Y-133920337D01*
X191737148Y-133437401D01*
X191411785Y-133220000D01*
X191634050Y-133071487D01*
X192581282Y-134018719D01*
X192581282Y-134018719D01*
G37*
X192581282Y-134018719D02*
X192865152Y-134208395D01*
X193200000Y-134275000D01*
X194105000Y-134275000D01*
X194105000Y-135215568D01*
X194000421Y-135164419D01*
X193835000Y-135289227D01*
X193835000Y-136375000D01*
X193855000Y-136375000D01*
X193855000Y-136625000D01*
X193835000Y-136625000D01*
X193835000Y-137710773D01*
X193911004Y-137768117D01*
X193775178Y-138095220D01*
X193774822Y-138502991D01*
X193930541Y-138879857D01*
X194218626Y-139168446D01*
X194581823Y-139319259D01*
X195142335Y-139879772D01*
X194980000Y-139847481D01*
X194568776Y-139929279D01*
X194341415Y-140081196D01*
X194000421Y-139914419D01*
X193835000Y-140039227D01*
X193835000Y-141125000D01*
X193855000Y-141125000D01*
X193855000Y-141375000D01*
X193835000Y-141375000D01*
X193835000Y-141395000D01*
X193585000Y-141395000D01*
X193585000Y-141375000D01*
X193565000Y-141375000D01*
X193565000Y-141125000D01*
X193585000Y-141125000D01*
X193585000Y-140039227D01*
X193419579Y-139914419D01*
X193038546Y-140100779D01*
X192765053Y-140422301D01*
X192635420Y-140824010D01*
X192635420Y-141214675D01*
X192592684Y-141186120D01*
X192210000Y-141110000D01*
X191772294Y-141110000D01*
X191737148Y-141057401D01*
X191411785Y-140840000D01*
X191737148Y-140622599D01*
X192059836Y-140139663D01*
X192173149Y-139570000D01*
X192059836Y-139000337D01*
X191876734Y-138726305D01*
X192018626Y-138868446D01*
X192395220Y-139024822D01*
X192802991Y-139025178D01*
X193179857Y-138869459D01*
X193468446Y-138581374D01*
X193624822Y-138204780D01*
X193625178Y-137797009D01*
X193585000Y-137699772D01*
X193585000Y-136625000D01*
X192635420Y-136625000D01*
X192635420Y-136797984D01*
X192248718Y-136411282D01*
X191964848Y-136221605D01*
X191890429Y-136206802D01*
X191801701Y-136074010D01*
X192635420Y-136074010D01*
X192635420Y-136375000D01*
X193585000Y-136375000D01*
X193585000Y-135289227D01*
X193419579Y-135164419D01*
X193038546Y-135350779D01*
X192765053Y-135672301D01*
X192635420Y-136074010D01*
X191801701Y-136074010D01*
X191737148Y-135977401D01*
X191411785Y-135760000D01*
X191737148Y-135542599D01*
X192059836Y-135059663D01*
X192173149Y-134490000D01*
X192059836Y-133920337D01*
X191737148Y-133437401D01*
X191411785Y-133220000D01*
X191634050Y-133071487D01*
X192581282Y-134018719D01*
G36*
X185512852Y-122842599D02*
X185831380Y-123055433D01*
X185408474Y-123432181D01*
X185155410Y-123955582D01*
X185152075Y-123974493D01*
X185271127Y-124205000D01*
X186625000Y-124205000D01*
X186625000Y-124185000D01*
X186875000Y-124185000D01*
X186875000Y-124205000D01*
X188228873Y-124205000D01*
X188347925Y-123974493D01*
X188344590Y-123955582D01*
X188091526Y-123432181D01*
X187668620Y-123055433D01*
X187987148Y-122842599D01*
X188103811Y-122668000D01*
X189146189Y-122668000D01*
X189262852Y-122842599D01*
X189588215Y-123060000D01*
X189262852Y-123277401D01*
X188940164Y-123760337D01*
X188826851Y-124330000D01*
X188940164Y-124899663D01*
X189262852Y-125382599D01*
X189588215Y-125600000D01*
X189262852Y-125817401D01*
X189144184Y-125995000D01*
X188105816Y-125995000D01*
X187987148Y-125817401D01*
X187668620Y-125604567D01*
X188091526Y-125227819D01*
X188344590Y-124704418D01*
X188347925Y-124685507D01*
X188228873Y-124455000D01*
X186875000Y-124455000D01*
X186875000Y-124475000D01*
X186625000Y-124475000D01*
X186625000Y-124455000D01*
X185271127Y-124455000D01*
X185152075Y-124685507D01*
X185155410Y-124704418D01*
X185408474Y-125227819D01*
X185831380Y-125604567D01*
X185512852Y-125817401D01*
X185190164Y-126300337D01*
X185076851Y-126870000D01*
X185190164Y-127439663D01*
X185512852Y-127922599D01*
X185831380Y-128135433D01*
X185408474Y-128512181D01*
X185155410Y-129035582D01*
X185152075Y-129054493D01*
X185271127Y-129285000D01*
X186625000Y-129285000D01*
X186625000Y-129265000D01*
X186875000Y-129265000D01*
X186875000Y-129285000D01*
X188228873Y-129285000D01*
X188347925Y-129054493D01*
X188344590Y-129035582D01*
X188091526Y-128512181D01*
X187668620Y-128135433D01*
X187987148Y-127922599D01*
X188105816Y-127745000D01*
X189144184Y-127745000D01*
X189262852Y-127922599D01*
X189588215Y-128140000D01*
X189262852Y-128357401D01*
X188940164Y-128840337D01*
X188826851Y-129410000D01*
X188940164Y-129979663D01*
X189262852Y-130462599D01*
X189588215Y-130680000D01*
X189262852Y-130897401D01*
X189144184Y-131075000D01*
X188105816Y-131075000D01*
X187987148Y-130897401D01*
X187668620Y-130684567D01*
X188091526Y-130307819D01*
X188344590Y-129784418D01*
X188347925Y-129765507D01*
X188228873Y-129535000D01*
X186875000Y-129535000D01*
X186875000Y-129555000D01*
X186625000Y-129555000D01*
X186625000Y-129535000D01*
X185271127Y-129535000D01*
X185152075Y-129765507D01*
X185155410Y-129784418D01*
X185408474Y-130307819D01*
X185831380Y-130684567D01*
X185512852Y-130897401D01*
X185190164Y-131380337D01*
X185076851Y-131950000D01*
X185190164Y-132519663D01*
X185512852Y-133002599D01*
X185831380Y-133215433D01*
X185408474Y-133592181D01*
X185155410Y-134115582D01*
X185152075Y-134134493D01*
X185271127Y-134365000D01*
X186625000Y-134365000D01*
X186625000Y-134345000D01*
X186875000Y-134345000D01*
X186875000Y-134365000D01*
X188228873Y-134365000D01*
X188347925Y-134134493D01*
X188344590Y-134115582D01*
X188091526Y-133592181D01*
X187668620Y-133215433D01*
X187987148Y-133002599D01*
X188105816Y-132825000D01*
X189144184Y-132825000D01*
X189262852Y-133002599D01*
X189588215Y-133220000D01*
X189262852Y-133437401D01*
X188940164Y-133920337D01*
X188826851Y-134490000D01*
X188940164Y-135059663D01*
X189262852Y-135542599D01*
X189588215Y-135760000D01*
X189262852Y-135977401D01*
X189064443Y-136274340D01*
X188812684Y-136106120D01*
X188430000Y-136030000D01*
X188022294Y-136030000D01*
X187987148Y-135977401D01*
X187668620Y-135764567D01*
X188091526Y-135387819D01*
X188344590Y-134864418D01*
X188347925Y-134845507D01*
X188228873Y-134615000D01*
X186875000Y-134615000D01*
X186875000Y-134635000D01*
X186625000Y-134635000D01*
X186625000Y-134615000D01*
X185271127Y-134615000D01*
X185152075Y-134845507D01*
X185155410Y-134864418D01*
X185408474Y-135387819D01*
X185831380Y-135764567D01*
X185512852Y-135977401D01*
X185190164Y-136460337D01*
X185076851Y-137030000D01*
X185190164Y-137599663D01*
X185512852Y-138082599D01*
X185838215Y-138300000D01*
X185512852Y-138517401D01*
X185190164Y-139000337D01*
X185076851Y-139570000D01*
X185190164Y-140139663D01*
X185512852Y-140622599D01*
X185838215Y-140840000D01*
X185621208Y-140985000D01*
X184325990Y-140985000D01*
X177775000Y-134434010D01*
X177775000Y-129413000D01*
X177775195Y-129190205D01*
X177775000Y-129189733D01*
X177775000Y-124011545D01*
X178135432Y-124883858D01*
X179210483Y-125960786D01*
X180615823Y-126544334D01*
X182137502Y-126545662D01*
X183543858Y-125964568D01*
X184620786Y-124889517D01*
X185204334Y-123484177D01*
X185205296Y-122382309D01*
X185512852Y-122842599D01*
X185512852Y-122842599D01*
G37*
X185512852Y-122842599D02*
X185831380Y-123055433D01*
X185408474Y-123432181D01*
X185155410Y-123955582D01*
X185152075Y-123974493D01*
X185271127Y-124205000D01*
X186625000Y-124205000D01*
X186625000Y-124185000D01*
X186875000Y-124185000D01*
X186875000Y-124205000D01*
X188228873Y-124205000D01*
X188347925Y-123974493D01*
X188344590Y-123955582D01*
X188091526Y-123432181D01*
X187668620Y-123055433D01*
X187987148Y-122842599D01*
X188103811Y-122668000D01*
X189146189Y-122668000D01*
X189262852Y-122842599D01*
X189588215Y-123060000D01*
X189262852Y-123277401D01*
X188940164Y-123760337D01*
X188826851Y-124330000D01*
X188940164Y-124899663D01*
X189262852Y-125382599D01*
X189588215Y-125600000D01*
X189262852Y-125817401D01*
X189144184Y-125995000D01*
X188105816Y-125995000D01*
X187987148Y-125817401D01*
X187668620Y-125604567D01*
X188091526Y-125227819D01*
X188344590Y-124704418D01*
X188347925Y-124685507D01*
X188228873Y-124455000D01*
X186875000Y-124455000D01*
X186875000Y-124475000D01*
X186625000Y-124475000D01*
X186625000Y-124455000D01*
X185271127Y-124455000D01*
X185152075Y-124685507D01*
X185155410Y-124704418D01*
X185408474Y-125227819D01*
X185831380Y-125604567D01*
X185512852Y-125817401D01*
X185190164Y-126300337D01*
X185076851Y-126870000D01*
X185190164Y-127439663D01*
X185512852Y-127922599D01*
X185831380Y-128135433D01*
X185408474Y-128512181D01*
X185155410Y-129035582D01*
X185152075Y-129054493D01*
X185271127Y-129285000D01*
X186625000Y-129285000D01*
X186625000Y-129265000D01*
X186875000Y-129265000D01*
X186875000Y-129285000D01*
X188228873Y-129285000D01*
X188347925Y-129054493D01*
X188344590Y-129035582D01*
X188091526Y-128512181D01*
X187668620Y-128135433D01*
X187987148Y-127922599D01*
X188105816Y-127745000D01*
X189144184Y-127745000D01*
X189262852Y-127922599D01*
X189588215Y-128140000D01*
X189262852Y-128357401D01*
X188940164Y-128840337D01*
X188826851Y-129410000D01*
X188940164Y-129979663D01*
X189262852Y-130462599D01*
X189588215Y-130680000D01*
X189262852Y-130897401D01*
X189144184Y-131075000D01*
X188105816Y-131075000D01*
X187987148Y-130897401D01*
X187668620Y-130684567D01*
X188091526Y-130307819D01*
X188344590Y-129784418D01*
X188347925Y-129765507D01*
X188228873Y-129535000D01*
X186875000Y-129535000D01*
X186875000Y-129555000D01*
X186625000Y-129555000D01*
X186625000Y-129535000D01*
X185271127Y-129535000D01*
X185152075Y-129765507D01*
X185155410Y-129784418D01*
X185408474Y-130307819D01*
X185831380Y-130684567D01*
X185512852Y-130897401D01*
X185190164Y-131380337D01*
X185076851Y-131950000D01*
X185190164Y-132519663D01*
X185512852Y-133002599D01*
X185831380Y-133215433D01*
X185408474Y-133592181D01*
X185155410Y-134115582D01*
X185152075Y-134134493D01*
X185271127Y-134365000D01*
X186625000Y-134365000D01*
X186625000Y-134345000D01*
X186875000Y-134345000D01*
X186875000Y-134365000D01*
X188228873Y-134365000D01*
X188347925Y-134134493D01*
X188344590Y-134115582D01*
X188091526Y-133592181D01*
X187668620Y-133215433D01*
X187987148Y-133002599D01*
X188105816Y-132825000D01*
X189144184Y-132825000D01*
X189262852Y-133002599D01*
X189588215Y-133220000D01*
X189262852Y-133437401D01*
X188940164Y-133920337D01*
X188826851Y-134490000D01*
X188940164Y-135059663D01*
X189262852Y-135542599D01*
X189588215Y-135760000D01*
X189262852Y-135977401D01*
X189064443Y-136274340D01*
X188812684Y-136106120D01*
X188430000Y-136030000D01*
X188022294Y-136030000D01*
X187987148Y-135977401D01*
X187668620Y-135764567D01*
X188091526Y-135387819D01*
X188344590Y-134864418D01*
X188347925Y-134845507D01*
X188228873Y-134615000D01*
X186875000Y-134615000D01*
X186875000Y-134635000D01*
X186625000Y-134635000D01*
X186625000Y-134615000D01*
X185271127Y-134615000D01*
X185152075Y-134845507D01*
X185155410Y-134864418D01*
X185408474Y-135387819D01*
X185831380Y-135764567D01*
X185512852Y-135977401D01*
X185190164Y-136460337D01*
X185076851Y-137030000D01*
X185190164Y-137599663D01*
X185512852Y-138082599D01*
X185838215Y-138300000D01*
X185512852Y-138517401D01*
X185190164Y-139000337D01*
X185076851Y-139570000D01*
X185190164Y-140139663D01*
X185512852Y-140622599D01*
X185838215Y-140840000D01*
X185621208Y-140985000D01*
X184325990Y-140985000D01*
X177775000Y-134434010D01*
X177775000Y-129413000D01*
X177775195Y-129190205D01*
X177775000Y-129189733D01*
X177775000Y-124011545D01*
X178135432Y-124883858D01*
X179210483Y-125960786D01*
X180615823Y-126544334D01*
X182137502Y-126545662D01*
X183543858Y-125964568D01*
X184620786Y-124889517D01*
X185204334Y-123484177D01*
X185205296Y-122382309D01*
X185512852Y-122842599D01*
G36*
X205324844Y-133963302D02*
X205113241Y-134472898D01*
X205112760Y-135024681D01*
X205323473Y-135534646D01*
X205713302Y-135925156D01*
X205862943Y-135987292D01*
X205831554Y-136018626D01*
X205806270Y-136079517D01*
X205585786Y-136300000D01*
X201414213Y-136300000D01*
X201250997Y-136136783D01*
X201774681Y-136137240D01*
X202284646Y-135926527D01*
X202675156Y-135536698D01*
X202886759Y-135027102D01*
X202887240Y-134475319D01*
X202676527Y-133965354D01*
X202661200Y-133950000D01*
X205338169Y-133950000D01*
X205324844Y-133963302D01*
X205324844Y-133963302D01*
G37*
X205324844Y-133963302D02*
X205113241Y-134472898D01*
X205112760Y-135024681D01*
X205323473Y-135534646D01*
X205713302Y-135925156D01*
X205862943Y-135987292D01*
X205831554Y-136018626D01*
X205806270Y-136079517D01*
X205585786Y-136300000D01*
X201414213Y-136300000D01*
X201250997Y-136136783D01*
X201774681Y-136137240D01*
X202284646Y-135926527D01*
X202675156Y-135536698D01*
X202886759Y-135027102D01*
X202887240Y-134475319D01*
X202676527Y-133965354D01*
X202661200Y-133950000D01*
X205338169Y-133950000D01*
X205324844Y-133963302D01*
G36*
X210574998Y-133287422D02*
X210354479Y-133167524D01*
X210270161Y-133185636D01*
X209780761Y-133453984D01*
X209431307Y-133889191D01*
X209275000Y-134425000D01*
X209275000Y-134775000D01*
X210575000Y-134775000D01*
X210575000Y-134755000D01*
X210825000Y-134755000D01*
X210825000Y-134775000D01*
X210845000Y-134775000D01*
X210845000Y-135025000D01*
X210825000Y-135025000D01*
X210825000Y-135045000D01*
X210575000Y-135045000D01*
X210575000Y-135025000D01*
X209275000Y-135025000D01*
X209275000Y-135375000D01*
X209369809Y-135700000D01*
X209092913Y-135700000D01*
X208832684Y-135526120D01*
X208450000Y-135450000D01*
X208067316Y-135526120D01*
X207742893Y-135742893D01*
X207517596Y-135968190D01*
X207380493Y-135830847D01*
X207675156Y-135536698D01*
X207886759Y-135027102D01*
X207887240Y-134475319D01*
X207676527Y-133965354D01*
X207661200Y-133950000D01*
X208600000Y-133950000D01*
X208887013Y-133892910D01*
X209130330Y-133730330D01*
X209710660Y-133150000D01*
X210574998Y-133150000D01*
X210574998Y-133287422D01*
X210574998Y-133287422D01*
G37*
X210574998Y-133287422D02*
X210354479Y-133167524D01*
X210270161Y-133185636D01*
X209780761Y-133453984D01*
X209431307Y-133889191D01*
X209275000Y-134425000D01*
X209275000Y-134775000D01*
X210575000Y-134775000D01*
X210575000Y-134755000D01*
X210825000Y-134755000D01*
X210825000Y-134775000D01*
X210845000Y-134775000D01*
X210845000Y-135025000D01*
X210825000Y-135025000D01*
X210825000Y-135045000D01*
X210575000Y-135045000D01*
X210575000Y-135025000D01*
X209275000Y-135025000D01*
X209275000Y-135375000D01*
X209369809Y-135700000D01*
X209092913Y-135700000D01*
X208832684Y-135526120D01*
X208450000Y-135450000D01*
X208067316Y-135526120D01*
X207742893Y-135742893D01*
X207517596Y-135968190D01*
X207380493Y-135830847D01*
X207675156Y-135536698D01*
X207886759Y-135027102D01*
X207887240Y-134475319D01*
X207676527Y-133965354D01*
X207661200Y-133950000D01*
X208600000Y-133950000D01*
X208887013Y-133892910D01*
X209130330Y-133730330D01*
X209710660Y-133150000D01*
X210574998Y-133150000D01*
X210574998Y-133287422D01*
G36*
X222494670Y-126830330D02*
X222737987Y-126992910D01*
X223025000Y-127050000D01*
X237085009Y-127050000D01*
X237084840Y-127243187D01*
X237225366Y-127583286D01*
X237485345Y-127843720D01*
X237825199Y-127984839D01*
X237874222Y-127984882D01*
X240539670Y-130650330D01*
X240782988Y-130812911D01*
X241070000Y-130870000D01*
X243329340Y-130870000D01*
X244330000Y-131870660D01*
X244330000Y-133241913D01*
X244265324Y-133198698D01*
X243720000Y-133090226D01*
X243174676Y-133198698D01*
X242712373Y-133507599D01*
X242450000Y-133900268D01*
X242187627Y-133507599D01*
X241725324Y-133198698D01*
X241180000Y-133090226D01*
X240634676Y-133198698D01*
X240172373Y-133507599D01*
X239910000Y-133900268D01*
X239647627Y-133507599D01*
X239185324Y-133198698D01*
X238640000Y-133090226D01*
X238094676Y-133198698D01*
X237632373Y-133507599D01*
X237370000Y-133900268D01*
X237107627Y-133507599D01*
X236645324Y-133198698D01*
X236100000Y-133090226D01*
X235554676Y-133198698D01*
X235092373Y-133507599D01*
X234830000Y-133900268D01*
X234567627Y-133507599D01*
X234105324Y-133198698D01*
X233560000Y-133090226D01*
X233014676Y-133198698D01*
X232552373Y-133507599D01*
X232290000Y-133900268D01*
X232027627Y-133507599D01*
X231565324Y-133198698D01*
X231020000Y-133090226D01*
X230474676Y-133198698D01*
X230012373Y-133507599D01*
X229750000Y-133900268D01*
X229487627Y-133507599D01*
X229025324Y-133198698D01*
X228480000Y-133090226D01*
X227934676Y-133198698D01*
X227829581Y-133268921D01*
X226030330Y-131469670D01*
X225787013Y-131307090D01*
X225500000Y-131250000D01*
X224410660Y-131250000D01*
X223730330Y-130569670D01*
X223487013Y-130407090D01*
X223200000Y-130350000D01*
X221010660Y-130350000D01*
X220125118Y-129464458D01*
X220125160Y-129416813D01*
X220070102Y-129283562D01*
X220117910Y-129212013D01*
X220175000Y-128925000D01*
X220175000Y-128410660D01*
X222125000Y-126460660D01*
X222494670Y-126830330D01*
X222494670Y-126830330D01*
G37*
X222494670Y-126830330D02*
X222737987Y-126992910D01*
X223025000Y-127050000D01*
X237085009Y-127050000D01*
X237084840Y-127243187D01*
X237225366Y-127583286D01*
X237485345Y-127843720D01*
X237825199Y-127984839D01*
X237874222Y-127984882D01*
X240539670Y-130650330D01*
X240782988Y-130812911D01*
X241070000Y-130870000D01*
X243329340Y-130870000D01*
X244330000Y-131870660D01*
X244330000Y-133241913D01*
X244265324Y-133198698D01*
X243720000Y-133090226D01*
X243174676Y-133198698D01*
X242712373Y-133507599D01*
X242450000Y-133900268D01*
X242187627Y-133507599D01*
X241725324Y-133198698D01*
X241180000Y-133090226D01*
X240634676Y-133198698D01*
X240172373Y-133507599D01*
X239910000Y-133900268D01*
X239647627Y-133507599D01*
X239185324Y-133198698D01*
X238640000Y-133090226D01*
X238094676Y-133198698D01*
X237632373Y-133507599D01*
X237370000Y-133900268D01*
X237107627Y-133507599D01*
X236645324Y-133198698D01*
X236100000Y-133090226D01*
X235554676Y-133198698D01*
X235092373Y-133507599D01*
X234830000Y-133900268D01*
X234567627Y-133507599D01*
X234105324Y-133198698D01*
X233560000Y-133090226D01*
X233014676Y-133198698D01*
X232552373Y-133507599D01*
X232290000Y-133900268D01*
X232027627Y-133507599D01*
X231565324Y-133198698D01*
X231020000Y-133090226D01*
X230474676Y-133198698D01*
X230012373Y-133507599D01*
X229750000Y-133900268D01*
X229487627Y-133507599D01*
X229025324Y-133198698D01*
X228480000Y-133090226D01*
X227934676Y-133198698D01*
X227829581Y-133268921D01*
X226030330Y-131469670D01*
X225787013Y-131307090D01*
X225500000Y-131250000D01*
X224410660Y-131250000D01*
X223730330Y-130569670D01*
X223487013Y-130407090D01*
X223200000Y-130350000D01*
X221010660Y-130350000D01*
X220125118Y-129464458D01*
X220125160Y-129416813D01*
X220070102Y-129283562D01*
X220117910Y-129212013D01*
X220175000Y-128925000D01*
X220175000Y-128410660D01*
X222125000Y-126460660D01*
X222494670Y-126830330D01*
G36*
X249140919Y-133310858D02*
X249126777Y-133325000D01*
X249140919Y-133339142D01*
X248964142Y-133515919D01*
X248950000Y-133501777D01*
X248935858Y-133515919D01*
X248759081Y-133339142D01*
X248773223Y-133325000D01*
X248759081Y-133310858D01*
X248935858Y-133134081D01*
X248950000Y-133148223D01*
X248964142Y-133134081D01*
X249140919Y-133310858D01*
X249140919Y-133310858D01*
G37*
X249140919Y-133310858D02*
X249126777Y-133325000D01*
X249140919Y-133339142D01*
X248964142Y-133515919D01*
X248950000Y-133501777D01*
X248935858Y-133515919D01*
X248759081Y-133339142D01*
X248773223Y-133325000D01*
X248759081Y-133310858D01*
X248935858Y-133134081D01*
X248950000Y-133148223D01*
X248964142Y-133134081D01*
X249140919Y-133310858D01*
G36*
X212709670Y-131504670D02*
X212590812Y-131682553D01*
X212524655Y-131616280D01*
X212184801Y-131475161D01*
X211816813Y-131474840D01*
X211476714Y-131615366D01*
X211442019Y-131650000D01*
X209400000Y-131650000D01*
X209112987Y-131707090D01*
X208899108Y-131850000D01*
X208869670Y-131869670D01*
X208289340Y-132450000D01*
X207611743Y-132450000D01*
X207675156Y-132386698D01*
X207886759Y-131877102D01*
X207887240Y-131325319D01*
X207732162Y-130950002D01*
X208679594Y-130950002D01*
X209014442Y-130883397D01*
X209298312Y-130693720D01*
X209323032Y-130669000D01*
X213545340Y-130669000D01*
X212709670Y-131504670D01*
X212709670Y-131504670D01*
G37*
X212709670Y-131504670D02*
X212590812Y-131682553D01*
X212524655Y-131616280D01*
X212184801Y-131475161D01*
X211816813Y-131474840D01*
X211476714Y-131615366D01*
X211442019Y-131650000D01*
X209400000Y-131650000D01*
X209112987Y-131707090D01*
X208899108Y-131850000D01*
X208869670Y-131869670D01*
X208289340Y-132450000D01*
X207611743Y-132450000D01*
X207675156Y-132386698D01*
X207886759Y-131877102D01*
X207887240Y-131325319D01*
X207732162Y-130950002D01*
X208679594Y-130950002D01*
X209014442Y-130883397D01*
X209298312Y-130693720D01*
X209323032Y-130669000D01*
X213545340Y-130669000D01*
X212709670Y-131504670D01*
G36*
X193835000Y-131625000D02*
X193855000Y-131625000D01*
X193855000Y-131875000D01*
X193835000Y-131875000D01*
X193835000Y-131895000D01*
X193585000Y-131895000D01*
X193585000Y-131875000D01*
X193565000Y-131875000D01*
X193565000Y-131625000D01*
X193585000Y-131625000D01*
X193585000Y-131605000D01*
X193835000Y-131605000D01*
X193835000Y-131625000D01*
X193835000Y-131625000D01*
G37*
X193835000Y-131625000D02*
X193855000Y-131625000D01*
X193855000Y-131875000D01*
X193835000Y-131875000D01*
X193835000Y-131895000D01*
X193585000Y-131895000D01*
X193585000Y-131875000D01*
X193565000Y-131875000D01*
X193565000Y-131625000D01*
X193585000Y-131625000D01*
X193585000Y-131605000D01*
X193835000Y-131605000D01*
X193835000Y-131625000D01*
G36*
X192115366Y-125123286D02*
X192375345Y-125383720D01*
X192715199Y-125524839D01*
X193083187Y-125525160D01*
X193423286Y-125384634D01*
X193560361Y-125247798D01*
X193987062Y-125674498D01*
X193835000Y-125789227D01*
X193835000Y-126875000D01*
X193855000Y-126875000D01*
X193855000Y-127125000D01*
X193835000Y-127125000D01*
X193835000Y-128210773D01*
X194000421Y-128335581D01*
X194341415Y-128168804D01*
X194568776Y-128320721D01*
X194980000Y-128402519D01*
X195391224Y-128320721D01*
X195615000Y-128171199D01*
X195838776Y-128320721D01*
X196235401Y-128399615D01*
X197825000Y-129989214D01*
X197825000Y-130475022D01*
X197616813Y-130474840D01*
X197276714Y-130615366D01*
X197097845Y-130793923D01*
X197009843Y-130662218D01*
X196661224Y-130429279D01*
X196250000Y-130347481D01*
X195838776Y-130429279D01*
X195704225Y-130519183D01*
X195598719Y-130361282D01*
X193507034Y-128269597D01*
X193585000Y-128210773D01*
X193585000Y-127125000D01*
X192635420Y-127125000D01*
X192635420Y-127397984D01*
X192162247Y-126924810D01*
X192173149Y-126870000D01*
X192114273Y-126574010D01*
X192635420Y-126574010D01*
X192635420Y-126875000D01*
X193585000Y-126875000D01*
X193585000Y-125789227D01*
X193419579Y-125664419D01*
X193038546Y-125850779D01*
X192765053Y-126172301D01*
X192635420Y-126574010D01*
X192114273Y-126574010D01*
X192059836Y-126300337D01*
X191737148Y-125817401D01*
X191411785Y-125600000D01*
X191737148Y-125382599D01*
X191939338Y-125080000D01*
X192097481Y-125080000D01*
X192115366Y-125123286D01*
X192115366Y-125123286D01*
G37*
X192115366Y-125123286D02*
X192375345Y-125383720D01*
X192715199Y-125524839D01*
X193083187Y-125525160D01*
X193423286Y-125384634D01*
X193560361Y-125247798D01*
X193987062Y-125674498D01*
X193835000Y-125789227D01*
X193835000Y-126875000D01*
X193855000Y-126875000D01*
X193855000Y-127125000D01*
X193835000Y-127125000D01*
X193835000Y-128210773D01*
X194000421Y-128335581D01*
X194341415Y-128168804D01*
X194568776Y-128320721D01*
X194980000Y-128402519D01*
X195391224Y-128320721D01*
X195615000Y-128171199D01*
X195838776Y-128320721D01*
X196235401Y-128399615D01*
X197825000Y-129989214D01*
X197825000Y-130475022D01*
X197616813Y-130474840D01*
X197276714Y-130615366D01*
X197097845Y-130793923D01*
X197009843Y-130662218D01*
X196661224Y-130429279D01*
X196250000Y-130347481D01*
X195838776Y-130429279D01*
X195704225Y-130519183D01*
X195598719Y-130361282D01*
X193507034Y-128269597D01*
X193585000Y-128210773D01*
X193585000Y-127125000D01*
X192635420Y-127125000D01*
X192635420Y-127397984D01*
X192162247Y-126924810D01*
X192173149Y-126870000D01*
X192114273Y-126574010D01*
X192635420Y-126574010D01*
X192635420Y-126875000D01*
X193585000Y-126875000D01*
X193585000Y-125789227D01*
X193419579Y-125664419D01*
X193038546Y-125850779D01*
X192765053Y-126172301D01*
X192635420Y-126574010D01*
X192114273Y-126574010D01*
X192059836Y-126300337D01*
X191737148Y-125817401D01*
X191411785Y-125600000D01*
X191737148Y-125382599D01*
X191939338Y-125080000D01*
X192097481Y-125080000D01*
X192115366Y-125123286D01*
G36*
X208675056Y-126535716D02*
X208674840Y-126783187D01*
X208815366Y-127123286D01*
X209075345Y-127383720D01*
X209273386Y-127465954D01*
X208089340Y-128650000D01*
X205274870Y-128650000D01*
X205275178Y-128297009D01*
X205240455Y-128212972D01*
X205444332Y-128081781D01*
X205496519Y-128005402D01*
X205645966Y-128154850D01*
X205875680Y-128250000D01*
X206468750Y-128250000D01*
X206625000Y-128093750D01*
X206625000Y-127125000D01*
X206875000Y-127125000D01*
X206875000Y-128093750D01*
X207031250Y-128250000D01*
X207624320Y-128250000D01*
X207854034Y-128154850D01*
X208029849Y-127979034D01*
X208125000Y-127749320D01*
X208125000Y-127281250D01*
X207968750Y-127125000D01*
X206875000Y-127125000D01*
X206625000Y-127125000D01*
X206605000Y-127125000D01*
X206605000Y-126875000D01*
X206625000Y-126875000D01*
X206625000Y-126855000D01*
X206875000Y-126855000D01*
X206875000Y-126875000D01*
X207968750Y-126875000D01*
X208125000Y-126718750D01*
X208125000Y-126250680D01*
X208041875Y-126050000D01*
X208189340Y-126050000D01*
X208675056Y-126535716D01*
X208675056Y-126535716D01*
G37*
X208675056Y-126535716D02*
X208674840Y-126783187D01*
X208815366Y-127123286D01*
X209075345Y-127383720D01*
X209273386Y-127465954D01*
X208089340Y-128650000D01*
X205274870Y-128650000D01*
X205275178Y-128297009D01*
X205240455Y-128212972D01*
X205444332Y-128081781D01*
X205496519Y-128005402D01*
X205645966Y-128154850D01*
X205875680Y-128250000D01*
X206468750Y-128250000D01*
X206625000Y-128093750D01*
X206625000Y-127125000D01*
X206875000Y-127125000D01*
X206875000Y-128093750D01*
X207031250Y-128250000D01*
X207624320Y-128250000D01*
X207854034Y-128154850D01*
X208029849Y-127979034D01*
X208125000Y-127749320D01*
X208125000Y-127281250D01*
X207968750Y-127125000D01*
X206875000Y-127125000D01*
X206625000Y-127125000D01*
X206605000Y-127125000D01*
X206605000Y-126875000D01*
X206625000Y-126875000D01*
X206625000Y-126855000D01*
X206875000Y-126855000D01*
X206875000Y-126875000D01*
X207968750Y-126875000D01*
X208125000Y-126718750D01*
X208125000Y-126250680D01*
X208041875Y-126050000D01*
X208189340Y-126050000D01*
X208675056Y-126535716D01*
G36*
X220150000Y-124660514D02*
X219160374Y-125650140D01*
X218816813Y-125649840D01*
X218476714Y-125790366D01*
X218216280Y-126050345D01*
X218075161Y-126390199D01*
X218074840Y-126758187D01*
X218215366Y-127098286D01*
X218303133Y-127186207D01*
X218039340Y-127450000D01*
X217483316Y-127450000D01*
X217449655Y-127416280D01*
X217109801Y-127275161D01*
X216741813Y-127274840D01*
X216401714Y-127415366D01*
X216141280Y-127675345D01*
X216000161Y-128015199D01*
X215999935Y-128274220D01*
X215819670Y-128394670D01*
X215700128Y-128514212D01*
X215684634Y-128476714D01*
X215424655Y-128216280D01*
X215084801Y-128075161D01*
X215035778Y-128075118D01*
X214593401Y-127632741D01*
X214815199Y-127724839D01*
X215183187Y-127725160D01*
X215523286Y-127584634D01*
X215783720Y-127324655D01*
X215924839Y-126984801D01*
X215925102Y-126682821D01*
X216183720Y-126424655D01*
X216324839Y-126084801D01*
X216325160Y-125716813D01*
X216184634Y-125376714D01*
X216058141Y-125250000D01*
X217600000Y-125250000D01*
X217887013Y-125192910D01*
X218130330Y-125030330D01*
X218910660Y-124250000D01*
X219334966Y-124250000D01*
X219515199Y-124324839D01*
X219883187Y-124325160D01*
X220150000Y-124214915D01*
X220150000Y-124660514D01*
X220150000Y-124660514D01*
G37*
X220150000Y-124660514D02*
X219160374Y-125650140D01*
X218816813Y-125649840D01*
X218476714Y-125790366D01*
X218216280Y-126050345D01*
X218075161Y-126390199D01*
X218074840Y-126758187D01*
X218215366Y-127098286D01*
X218303133Y-127186207D01*
X218039340Y-127450000D01*
X217483316Y-127450000D01*
X217449655Y-127416280D01*
X217109801Y-127275161D01*
X216741813Y-127274840D01*
X216401714Y-127415366D01*
X216141280Y-127675345D01*
X216000161Y-128015199D01*
X215999935Y-128274220D01*
X215819670Y-128394670D01*
X215700128Y-128514212D01*
X215684634Y-128476714D01*
X215424655Y-128216280D01*
X215084801Y-128075161D01*
X215035778Y-128075118D01*
X214593401Y-127632741D01*
X214815199Y-127724839D01*
X215183187Y-127725160D01*
X215523286Y-127584634D01*
X215783720Y-127324655D01*
X215924839Y-126984801D01*
X215925102Y-126682821D01*
X216183720Y-126424655D01*
X216324839Y-126084801D01*
X216325160Y-125716813D01*
X216184634Y-125376714D01*
X216058141Y-125250000D01*
X217600000Y-125250000D01*
X217887013Y-125192910D01*
X218130330Y-125030330D01*
X218910660Y-124250000D01*
X219334966Y-124250000D01*
X219515199Y-124324839D01*
X219883187Y-124325160D01*
X220150000Y-124214915D01*
X220150000Y-124660514D01*
G36*
X230012373Y-121052401D02*
X230474676Y-121361302D01*
X231020000Y-121469774D01*
X231565324Y-121361302D01*
X231622463Y-121323123D01*
X232645683Y-122346343D01*
X232416280Y-122575345D01*
X232302234Y-122850000D01*
X224758316Y-122850000D01*
X224724655Y-122816280D01*
X224384801Y-122675161D01*
X224016813Y-122674840D01*
X223676714Y-122815366D01*
X223416280Y-123075345D01*
X223275161Y-123415199D01*
X223274840Y-123783187D01*
X223415366Y-124123286D01*
X223675345Y-124383720D01*
X224015199Y-124524839D01*
X224383187Y-124525160D01*
X224723286Y-124384634D01*
X224757981Y-124350000D01*
X232700000Y-124350000D01*
X232987013Y-124292910D01*
X233230330Y-124130330D01*
X233335542Y-124025118D01*
X233383187Y-124025160D01*
X233723286Y-123884634D01*
X233953831Y-123654491D01*
X234789670Y-124490330D01*
X235032987Y-124652910D01*
X235320000Y-124710000D01*
X237211684Y-124710000D01*
X237245345Y-124743720D01*
X237585199Y-124884839D01*
X237953187Y-124885160D01*
X238293286Y-124744634D01*
X238379993Y-124658079D01*
X238545345Y-124823720D01*
X238885199Y-124964839D01*
X239253187Y-124965160D01*
X239593286Y-124824634D01*
X239723082Y-124695065D01*
X239915199Y-124774839D01*
X240283187Y-124775160D01*
X240623286Y-124634634D01*
X240760028Y-124498131D01*
X240915345Y-124653720D01*
X241255199Y-124794839D01*
X241623187Y-124795160D01*
X241963286Y-124654634D01*
X242014888Y-124603122D01*
X242095345Y-124683720D01*
X242435199Y-124824839D01*
X242803187Y-124825160D01*
X243143286Y-124684634D01*
X243403459Y-124424916D01*
X243683187Y-124425160D01*
X244023286Y-124284634D01*
X244283720Y-124024655D01*
X244424839Y-123684801D01*
X244425101Y-123384905D01*
X244440000Y-123310000D01*
X244440000Y-123180821D01*
X244470000Y-123030000D01*
X244470000Y-122845521D01*
X245867524Y-122845521D01*
X245885636Y-122929839D01*
X246153984Y-123419239D01*
X246589191Y-123768693D01*
X246593671Y-123770000D01*
X246589191Y-123771307D01*
X246153984Y-124120761D01*
X245885636Y-124610161D01*
X245867524Y-124694479D01*
X245987423Y-124915000D01*
X247475000Y-124915000D01*
X247475000Y-122625000D01*
X245987423Y-122625000D01*
X245867524Y-122845521D01*
X244470000Y-122845521D01*
X244470000Y-121224542D01*
X244727627Y-121052401D01*
X244963593Y-120699253D01*
X245994670Y-121730330D01*
X246051245Y-121768132D01*
X245885636Y-122070161D01*
X245867524Y-122154479D01*
X245987423Y-122375000D01*
X247475000Y-122375000D01*
X247475000Y-122355000D01*
X247725000Y-122355000D01*
X247725000Y-122375000D01*
X247745000Y-122375000D01*
X247745000Y-122625000D01*
X247725000Y-122625000D01*
X247725000Y-124915000D01*
X249212577Y-124915000D01*
X249332476Y-124694479D01*
X249314364Y-124610161D01*
X249046016Y-124120761D01*
X248610809Y-123771307D01*
X248606329Y-123770000D01*
X248610809Y-123768693D01*
X249046016Y-123419239D01*
X249314364Y-122929839D01*
X249332476Y-122845521D01*
X249212578Y-122625002D01*
X249375000Y-122625002D01*
X249375000Y-122535660D01*
X253644670Y-126805330D01*
X253663524Y-126817928D01*
X253659544Y-126823884D01*
X253030330Y-126194670D01*
X252787013Y-126032090D01*
X252500000Y-125975000D01*
X250191564Y-125975000D01*
X250109634Y-125776714D01*
X249849655Y-125516280D01*
X249509801Y-125375161D01*
X249326756Y-125375001D01*
X249212577Y-125165000D01*
X247725000Y-125165000D01*
X247725000Y-127455000D01*
X247745000Y-127455000D01*
X247745000Y-127705000D01*
X247725000Y-127705000D01*
X247725000Y-127725000D01*
X247475000Y-127725000D01*
X247475000Y-127705000D01*
X247455000Y-127705000D01*
X247455000Y-127455000D01*
X247475000Y-127455000D01*
X247475000Y-125165000D01*
X245987423Y-125165000D01*
X245873328Y-125374846D01*
X245866813Y-125374840D01*
X245526714Y-125515366D01*
X245492019Y-125550000D01*
X223335660Y-125550000D01*
X222875000Y-125089340D01*
X222875000Y-121365345D01*
X223400000Y-121469774D01*
X223945324Y-121361302D01*
X224407627Y-121052401D01*
X224670000Y-120659732D01*
X224932373Y-121052401D01*
X225394676Y-121361302D01*
X225940000Y-121469774D01*
X226485324Y-121361302D01*
X226947627Y-121052401D01*
X227210000Y-120659732D01*
X227472373Y-121052401D01*
X227934676Y-121361302D01*
X228480000Y-121469774D01*
X229025324Y-121361302D01*
X229487627Y-121052401D01*
X229750000Y-120659732D01*
X230012373Y-121052401D01*
X230012373Y-121052401D01*
G37*
X230012373Y-121052401D02*
X230474676Y-121361302D01*
X231020000Y-121469774D01*
X231565324Y-121361302D01*
X231622463Y-121323123D01*
X232645683Y-122346343D01*
X232416280Y-122575345D01*
X232302234Y-122850000D01*
X224758316Y-122850000D01*
X224724655Y-122816280D01*
X224384801Y-122675161D01*
X224016813Y-122674840D01*
X223676714Y-122815366D01*
X223416280Y-123075345D01*
X223275161Y-123415199D01*
X223274840Y-123783187D01*
X223415366Y-124123286D01*
X223675345Y-124383720D01*
X224015199Y-124524839D01*
X224383187Y-124525160D01*
X224723286Y-124384634D01*
X224757981Y-124350000D01*
X232700000Y-124350000D01*
X232987013Y-124292910D01*
X233230330Y-124130330D01*
X233335542Y-124025118D01*
X233383187Y-124025160D01*
X233723286Y-123884634D01*
X233953831Y-123654491D01*
X234789670Y-124490330D01*
X235032987Y-124652910D01*
X235320000Y-124710000D01*
X237211684Y-124710000D01*
X237245345Y-124743720D01*
X237585199Y-124884839D01*
X237953187Y-124885160D01*
X238293286Y-124744634D01*
X238379993Y-124658079D01*
X238545345Y-124823720D01*
X238885199Y-124964839D01*
X239253187Y-124965160D01*
X239593286Y-124824634D01*
X239723082Y-124695065D01*
X239915199Y-124774839D01*
X240283187Y-124775160D01*
X240623286Y-124634634D01*
X240760028Y-124498131D01*
X240915345Y-124653720D01*
X241255199Y-124794839D01*
X241623187Y-124795160D01*
X241963286Y-124654634D01*
X242014888Y-124603122D01*
X242095345Y-124683720D01*
X242435199Y-124824839D01*
X242803187Y-124825160D01*
X243143286Y-124684634D01*
X243403459Y-124424916D01*
X243683187Y-124425160D01*
X244023286Y-124284634D01*
X244283720Y-124024655D01*
X244424839Y-123684801D01*
X244425101Y-123384905D01*
X244440000Y-123310000D01*
X244440000Y-123180821D01*
X244470000Y-123030000D01*
X244470000Y-122845521D01*
X245867524Y-122845521D01*
X245885636Y-122929839D01*
X246153984Y-123419239D01*
X246589191Y-123768693D01*
X246593671Y-123770000D01*
X246589191Y-123771307D01*
X246153984Y-124120761D01*
X245885636Y-124610161D01*
X245867524Y-124694479D01*
X245987423Y-124915000D01*
X247475000Y-124915000D01*
X247475000Y-122625000D01*
X245987423Y-122625000D01*
X245867524Y-122845521D01*
X244470000Y-122845521D01*
X244470000Y-121224542D01*
X244727627Y-121052401D01*
X244963593Y-120699253D01*
X245994670Y-121730330D01*
X246051245Y-121768132D01*
X245885636Y-122070161D01*
X245867524Y-122154479D01*
X245987423Y-122375000D01*
X247475000Y-122375000D01*
X247475000Y-122355000D01*
X247725000Y-122355000D01*
X247725000Y-122375000D01*
X247745000Y-122375000D01*
X247745000Y-122625000D01*
X247725000Y-122625000D01*
X247725000Y-124915000D01*
X249212577Y-124915000D01*
X249332476Y-124694479D01*
X249314364Y-124610161D01*
X249046016Y-124120761D01*
X248610809Y-123771307D01*
X248606329Y-123770000D01*
X248610809Y-123768693D01*
X249046016Y-123419239D01*
X249314364Y-122929839D01*
X249332476Y-122845521D01*
X249212578Y-122625002D01*
X249375000Y-122625002D01*
X249375000Y-122535660D01*
X253644670Y-126805330D01*
X253663524Y-126817928D01*
X253659544Y-126823884D01*
X253030330Y-126194670D01*
X252787013Y-126032090D01*
X252500000Y-125975000D01*
X250191564Y-125975000D01*
X250109634Y-125776714D01*
X249849655Y-125516280D01*
X249509801Y-125375161D01*
X249326756Y-125375001D01*
X249212577Y-125165000D01*
X247725000Y-125165000D01*
X247725000Y-127455000D01*
X247745000Y-127455000D01*
X247745000Y-127705000D01*
X247725000Y-127705000D01*
X247725000Y-127725000D01*
X247475000Y-127725000D01*
X247475000Y-127705000D01*
X247455000Y-127705000D01*
X247455000Y-127455000D01*
X247475000Y-127455000D01*
X247475000Y-125165000D01*
X245987423Y-125165000D01*
X245873328Y-125374846D01*
X245866813Y-125374840D01*
X245526714Y-125515366D01*
X245492019Y-125550000D01*
X223335660Y-125550000D01*
X222875000Y-125089340D01*
X222875000Y-121365345D01*
X223400000Y-121469774D01*
X223945324Y-121361302D01*
X224407627Y-121052401D01*
X224670000Y-120659732D01*
X224932373Y-121052401D01*
X225394676Y-121361302D01*
X225940000Y-121469774D01*
X226485324Y-121361302D01*
X226947627Y-121052401D01*
X227210000Y-120659732D01*
X227472373Y-121052401D01*
X227934676Y-121361302D01*
X228480000Y-121469774D01*
X229025324Y-121361302D01*
X229487627Y-121052401D01*
X229750000Y-120659732D01*
X230012373Y-121052401D01*
G36*
X217119670Y-122205330D02*
X217362987Y-122367910D01*
X217650000Y-122425000D01*
X218964340Y-122425000D01*
X219165700Y-122626360D01*
X219041844Y-122750000D01*
X218600000Y-122750000D01*
X218312988Y-122807089D01*
X218069670Y-122969670D01*
X217289340Y-123750000D01*
X215987436Y-123750000D01*
X216718719Y-123018718D01*
X216908395Y-122734848D01*
X216910386Y-122724839D01*
X216975000Y-122400000D01*
X216975000Y-122060660D01*
X217119670Y-122205330D01*
X217119670Y-122205330D01*
G37*
X217119670Y-122205330D02*
X217362987Y-122367910D01*
X217650000Y-122425000D01*
X218964340Y-122425000D01*
X219165700Y-122626360D01*
X219041844Y-122750000D01*
X218600000Y-122750000D01*
X218312988Y-122807089D01*
X218069670Y-122969670D01*
X217289340Y-123750000D01*
X215987436Y-123750000D01*
X216718719Y-123018718D01*
X216908395Y-122734848D01*
X216910386Y-122724839D01*
X216975000Y-122400000D01*
X216975000Y-122060660D01*
X217119670Y-122205330D01*
G36*
X197224840Y-112258187D02*
X197365366Y-112598286D01*
X197625345Y-112858720D01*
X197965199Y-112999839D01*
X198333187Y-113000160D01*
X198673286Y-112859634D01*
X198707981Y-112825000D01*
X199614340Y-112825000D01*
X201039340Y-114250000D01*
X200397553Y-114250000D01*
X200284634Y-113976714D01*
X200024655Y-113716280D01*
X199684801Y-113575161D01*
X199316813Y-113574840D01*
X198976714Y-113715366D01*
X198716280Y-113975345D01*
X198575161Y-114315199D01*
X198574894Y-114621307D01*
X198509839Y-114585636D01*
X198425521Y-114567524D01*
X198205000Y-114687423D01*
X198205000Y-116175000D01*
X198225000Y-116175000D01*
X198225000Y-116425000D01*
X198205000Y-116425000D01*
X198205000Y-116445000D01*
X197955000Y-116445000D01*
X197955000Y-116425000D01*
X195665000Y-116425000D01*
X195665000Y-117912577D01*
X195885521Y-118032476D01*
X195969839Y-118014364D01*
X196459239Y-117746016D01*
X196808693Y-117310809D01*
X196810000Y-117306329D01*
X196811307Y-117310809D01*
X197160761Y-117746016D01*
X197648894Y-118013669D01*
X197481282Y-118181282D01*
X197291605Y-118465152D01*
X197225000Y-118800000D01*
X197225000Y-122264340D01*
X194970330Y-120009670D01*
X194774151Y-119878587D01*
X195004208Y-119324549D01*
X195004772Y-118678287D01*
X194757979Y-118081002D01*
X194301401Y-117623627D01*
X194088498Y-117535222D01*
X194268693Y-117310809D01*
X194270000Y-117306329D01*
X194271307Y-117310809D01*
X194620761Y-117746016D01*
X195110161Y-118014364D01*
X195194479Y-118032476D01*
X195415000Y-117912577D01*
X195415000Y-116425000D01*
X193125000Y-116425000D01*
X193125000Y-116445000D01*
X192875000Y-116445000D01*
X192875000Y-116425000D01*
X192855000Y-116425000D01*
X192855000Y-116175000D01*
X192875000Y-116175000D01*
X192875000Y-114687423D01*
X193125000Y-114687423D01*
X193125000Y-116175000D01*
X195415000Y-116175000D01*
X195415000Y-114687423D01*
X195665000Y-114687423D01*
X195665000Y-116175000D01*
X197955000Y-116175000D01*
X197955000Y-114687423D01*
X197734479Y-114567524D01*
X197650161Y-114585636D01*
X197160761Y-114853984D01*
X196811307Y-115289191D01*
X196810000Y-115293671D01*
X196808693Y-115289191D01*
X196459239Y-114853984D01*
X195969839Y-114585636D01*
X195885521Y-114567524D01*
X195665000Y-114687423D01*
X195415000Y-114687423D01*
X195194479Y-114567524D01*
X195110161Y-114585636D01*
X194620761Y-114853984D01*
X194271307Y-115289191D01*
X194270000Y-115293671D01*
X194268693Y-115289191D01*
X193919239Y-114853984D01*
X193429839Y-114585636D01*
X193345521Y-114567524D01*
X193125000Y-114687423D01*
X192875000Y-114687423D01*
X192654479Y-114567524D01*
X192570161Y-114585636D01*
X192080761Y-114853984D01*
X191731307Y-115289191D01*
X191728660Y-115298263D01*
X191467627Y-114907599D01*
X191210000Y-114735458D01*
X191210000Y-114160000D01*
X191152910Y-113872987D01*
X190990330Y-113629670D01*
X190860660Y-113500000D01*
X195939340Y-113500000D01*
X196324882Y-113885542D01*
X196324840Y-113933187D01*
X196465366Y-114273286D01*
X196725345Y-114533720D01*
X197065199Y-114674839D01*
X197433187Y-114675160D01*
X197773286Y-114534634D01*
X198033720Y-114274655D01*
X198174839Y-113934801D01*
X198175160Y-113566813D01*
X198034634Y-113226714D01*
X197774655Y-112966280D01*
X197434801Y-112825161D01*
X197385778Y-112825118D01*
X196780330Y-112219670D01*
X196638647Y-112125000D01*
X197224956Y-112125000D01*
X197224840Y-112258187D01*
X197224840Y-112258187D01*
G37*
X197224840Y-112258187D02*
X197365366Y-112598286D01*
X197625345Y-112858720D01*
X197965199Y-112999839D01*
X198333187Y-113000160D01*
X198673286Y-112859634D01*
X198707981Y-112825000D01*
X199614340Y-112825000D01*
X201039340Y-114250000D01*
X200397553Y-114250000D01*
X200284634Y-113976714D01*
X200024655Y-113716280D01*
X199684801Y-113575161D01*
X199316813Y-113574840D01*
X198976714Y-113715366D01*
X198716280Y-113975345D01*
X198575161Y-114315199D01*
X198574894Y-114621307D01*
X198509839Y-114585636D01*
X198425521Y-114567524D01*
X198205000Y-114687423D01*
X198205000Y-116175000D01*
X198225000Y-116175000D01*
X198225000Y-116425000D01*
X198205000Y-116425000D01*
X198205000Y-116445000D01*
X197955000Y-116445000D01*
X197955000Y-116425000D01*
X195665000Y-116425000D01*
X195665000Y-117912577D01*
X195885521Y-118032476D01*
X195969839Y-118014364D01*
X196459239Y-117746016D01*
X196808693Y-117310809D01*
X196810000Y-117306329D01*
X196811307Y-117310809D01*
X197160761Y-117746016D01*
X197648894Y-118013669D01*
X197481282Y-118181282D01*
X197291605Y-118465152D01*
X197225000Y-118800000D01*
X197225000Y-122264340D01*
X194970330Y-120009670D01*
X194774151Y-119878587D01*
X195004208Y-119324549D01*
X195004772Y-118678287D01*
X194757979Y-118081002D01*
X194301401Y-117623627D01*
X194088498Y-117535222D01*
X194268693Y-117310809D01*
X194270000Y-117306329D01*
X194271307Y-117310809D01*
X194620761Y-117746016D01*
X195110161Y-118014364D01*
X195194479Y-118032476D01*
X195415000Y-117912577D01*
X195415000Y-116425000D01*
X193125000Y-116425000D01*
X193125000Y-116445000D01*
X192875000Y-116445000D01*
X192875000Y-116425000D01*
X192855000Y-116425000D01*
X192855000Y-116175000D01*
X192875000Y-116175000D01*
X192875000Y-114687423D01*
X193125000Y-114687423D01*
X193125000Y-116175000D01*
X195415000Y-116175000D01*
X195415000Y-114687423D01*
X195665000Y-114687423D01*
X195665000Y-116175000D01*
X197955000Y-116175000D01*
X197955000Y-114687423D01*
X197734479Y-114567524D01*
X197650161Y-114585636D01*
X197160761Y-114853984D01*
X196811307Y-115289191D01*
X196810000Y-115293671D01*
X196808693Y-115289191D01*
X196459239Y-114853984D01*
X195969839Y-114585636D01*
X195885521Y-114567524D01*
X195665000Y-114687423D01*
X195415000Y-114687423D01*
X195194479Y-114567524D01*
X195110161Y-114585636D01*
X194620761Y-114853984D01*
X194271307Y-115289191D01*
X194270000Y-115293671D01*
X194268693Y-115289191D01*
X193919239Y-114853984D01*
X193429839Y-114585636D01*
X193345521Y-114567524D01*
X193125000Y-114687423D01*
X192875000Y-114687423D01*
X192654479Y-114567524D01*
X192570161Y-114585636D01*
X192080761Y-114853984D01*
X191731307Y-115289191D01*
X191728660Y-115298263D01*
X191467627Y-114907599D01*
X191210000Y-114735458D01*
X191210000Y-114160000D01*
X191152910Y-113872987D01*
X190990330Y-113629670D01*
X190860660Y-113500000D01*
X195939340Y-113500000D01*
X196324882Y-113885542D01*
X196324840Y-113933187D01*
X196465366Y-114273286D01*
X196725345Y-114533720D01*
X197065199Y-114674839D01*
X197433187Y-114675160D01*
X197773286Y-114534634D01*
X198033720Y-114274655D01*
X198174839Y-113934801D01*
X198175160Y-113566813D01*
X198034634Y-113226714D01*
X197774655Y-112966280D01*
X197434801Y-112825161D01*
X197385778Y-112825118D01*
X196780330Y-112219670D01*
X196638647Y-112125000D01*
X197224956Y-112125000D01*
X197224840Y-112258187D01*
G36*
X179550000Y-113010660D02*
X179550000Y-114735458D01*
X179292373Y-114907599D01*
X178983472Y-115369902D01*
X178875000Y-115915226D01*
X178875000Y-116684774D01*
X178983472Y-117230098D01*
X179292373Y-117692401D01*
X179754676Y-118001302D01*
X180300000Y-118109774D01*
X180845324Y-118001302D01*
X181307627Y-117692401D01*
X181570000Y-117299732D01*
X181832373Y-117692401D01*
X182294676Y-118001302D01*
X182840000Y-118109774D01*
X183385324Y-118001302D01*
X183847627Y-117692401D01*
X184110000Y-117299732D01*
X184372373Y-117692401D01*
X184834676Y-118001302D01*
X185187914Y-118071566D01*
X185109000Y-118262080D01*
X185109000Y-118968750D01*
X185265250Y-119125000D01*
X186625000Y-119125000D01*
X186625000Y-117917650D01*
X186468750Y-117761400D01*
X186284363Y-117761400D01*
X186387627Y-117692401D01*
X186650000Y-117299732D01*
X186912373Y-117692401D01*
X187024996Y-117767654D01*
X186875000Y-117917650D01*
X186875000Y-119125000D01*
X188234750Y-119125000D01*
X188391000Y-118968750D01*
X188391000Y-118262080D01*
X188296862Y-118034811D01*
X188465324Y-118001302D01*
X188927627Y-117692401D01*
X189190000Y-117299732D01*
X189452373Y-117692401D01*
X189537313Y-117749156D01*
X189484000Y-117749156D01*
X189252389Y-117792737D01*
X189039668Y-117929619D01*
X188896962Y-118138476D01*
X188846756Y-118386400D01*
X188846756Y-120113600D01*
X188890337Y-120345211D01*
X189027219Y-120557932D01*
X189236076Y-120700638D01*
X189298847Y-120713350D01*
X189262852Y-120737401D01*
X189142179Y-120918000D01*
X188107821Y-120918000D01*
X187987148Y-120737401D01*
X187951201Y-120713382D01*
X188120034Y-120643450D01*
X188295849Y-120467634D01*
X188391000Y-120237920D01*
X188391000Y-119531250D01*
X188234750Y-119375000D01*
X186875000Y-119375000D01*
X186875000Y-119395000D01*
X186625000Y-119395000D01*
X186625000Y-119375000D01*
X185265250Y-119375000D01*
X185109000Y-119531250D01*
X185109000Y-120237920D01*
X185204151Y-120467634D01*
X185379966Y-120643450D01*
X185548799Y-120713382D01*
X185512852Y-120737401D01*
X185190164Y-121220337D01*
X185095548Y-121696002D01*
X184624568Y-120556142D01*
X183549517Y-119479214D01*
X182144177Y-118895666D01*
X180622498Y-118894338D01*
X179216142Y-119475432D01*
X178139214Y-120550483D01*
X177775000Y-121427608D01*
X177775000Y-116078000D01*
X177775195Y-115855205D01*
X177775000Y-115854733D01*
X177775000Y-111235660D01*
X179550000Y-113010660D01*
X179550000Y-113010660D01*
G37*
X179550000Y-113010660D02*
X179550000Y-114735458D01*
X179292373Y-114907599D01*
X178983472Y-115369902D01*
X178875000Y-115915226D01*
X178875000Y-116684774D01*
X178983472Y-117230098D01*
X179292373Y-117692401D01*
X179754676Y-118001302D01*
X180300000Y-118109774D01*
X180845324Y-118001302D01*
X181307627Y-117692401D01*
X181570000Y-117299732D01*
X181832373Y-117692401D01*
X182294676Y-118001302D01*
X182840000Y-118109774D01*
X183385324Y-118001302D01*
X183847627Y-117692401D01*
X184110000Y-117299732D01*
X184372373Y-117692401D01*
X184834676Y-118001302D01*
X185187914Y-118071566D01*
X185109000Y-118262080D01*
X185109000Y-118968750D01*
X185265250Y-119125000D01*
X186625000Y-119125000D01*
X186625000Y-117917650D01*
X186468750Y-117761400D01*
X186284363Y-117761400D01*
X186387627Y-117692401D01*
X186650000Y-117299732D01*
X186912373Y-117692401D01*
X187024996Y-117767654D01*
X186875000Y-117917650D01*
X186875000Y-119125000D01*
X188234750Y-119125000D01*
X188391000Y-118968750D01*
X188391000Y-118262080D01*
X188296862Y-118034811D01*
X188465324Y-118001302D01*
X188927627Y-117692401D01*
X189190000Y-117299732D01*
X189452373Y-117692401D01*
X189537313Y-117749156D01*
X189484000Y-117749156D01*
X189252389Y-117792737D01*
X189039668Y-117929619D01*
X188896962Y-118138476D01*
X188846756Y-118386400D01*
X188846756Y-120113600D01*
X188890337Y-120345211D01*
X189027219Y-120557932D01*
X189236076Y-120700638D01*
X189298847Y-120713350D01*
X189262852Y-120737401D01*
X189142179Y-120918000D01*
X188107821Y-120918000D01*
X187987148Y-120737401D01*
X187951201Y-120713382D01*
X188120034Y-120643450D01*
X188295849Y-120467634D01*
X188391000Y-120237920D01*
X188391000Y-119531250D01*
X188234750Y-119375000D01*
X186875000Y-119375000D01*
X186875000Y-119395000D01*
X186625000Y-119395000D01*
X186625000Y-119375000D01*
X185265250Y-119375000D01*
X185109000Y-119531250D01*
X185109000Y-120237920D01*
X185204151Y-120467634D01*
X185379966Y-120643450D01*
X185548799Y-120713382D01*
X185512852Y-120737401D01*
X185190164Y-121220337D01*
X185095548Y-121696002D01*
X184624568Y-120556142D01*
X183549517Y-119479214D01*
X182144177Y-118895666D01*
X180622498Y-118894338D01*
X179216142Y-119475432D01*
X178139214Y-120550483D01*
X177775000Y-121427608D01*
X177775000Y-116078000D01*
X177775195Y-115855205D01*
X177775000Y-115854733D01*
X177775000Y-111235660D01*
X179550000Y-113010660D01*
G36*
X204125000Y-119625000D02*
X204145000Y-119625000D01*
X204145000Y-119875000D01*
X204125000Y-119875000D01*
X204125000Y-119895000D01*
X203875000Y-119895000D01*
X203875000Y-119875000D01*
X203855000Y-119875000D01*
X203855000Y-119625000D01*
X203875000Y-119625000D01*
X203875000Y-119605000D01*
X204125000Y-119605000D01*
X204125000Y-119625000D01*
X204125000Y-119625000D01*
G37*
X204125000Y-119625000D02*
X204145000Y-119625000D01*
X204145000Y-119875000D01*
X204125000Y-119875000D01*
X204125000Y-119895000D01*
X203875000Y-119895000D01*
X203875000Y-119875000D01*
X203855000Y-119875000D01*
X203855000Y-119625000D01*
X203875000Y-119625000D01*
X203875000Y-119605000D01*
X204125000Y-119605000D01*
X204125000Y-119625000D01*
G36*
X244209399Y-114695059D02*
X244009839Y-114585636D01*
X243925521Y-114567524D01*
X243705000Y-114687423D01*
X243705000Y-116175000D01*
X245005000Y-116175000D01*
X245005000Y-115825000D01*
X244877661Y-115388490D01*
X244965199Y-115424839D01*
X245125000Y-115424978D01*
X245125000Y-117639340D01*
X244980330Y-117494670D01*
X244798575Y-117373225D01*
X244848693Y-117310809D01*
X245005000Y-116775000D01*
X245005000Y-116425000D01*
X243705000Y-116425000D01*
X243705000Y-116445000D01*
X243455000Y-116445000D01*
X243455000Y-116425000D01*
X241165000Y-116425000D01*
X241165000Y-116445000D01*
X240915000Y-116445000D01*
X240915000Y-116425000D01*
X238625000Y-116425000D01*
X238625000Y-116445000D01*
X238375000Y-116445000D01*
X238375000Y-116425000D01*
X238355000Y-116425000D01*
X238355000Y-116175000D01*
X238375000Y-116175000D01*
X238375000Y-114687423D01*
X238625000Y-114687423D01*
X238625000Y-116175000D01*
X240915000Y-116175000D01*
X240915000Y-114687423D01*
X241165000Y-114687423D01*
X241165000Y-116175000D01*
X243455000Y-116175000D01*
X243455000Y-114687423D01*
X243234479Y-114567524D01*
X243150161Y-114585636D01*
X242660761Y-114853984D01*
X242311307Y-115289191D01*
X242310000Y-115293671D01*
X242308693Y-115289191D01*
X241959239Y-114853984D01*
X241469839Y-114585636D01*
X241385521Y-114567524D01*
X241165000Y-114687423D01*
X240915000Y-114687423D01*
X240694479Y-114567524D01*
X240610161Y-114585636D01*
X240120761Y-114853984D01*
X239771307Y-115289191D01*
X239770000Y-115293671D01*
X239768693Y-115289191D01*
X239419239Y-114853984D01*
X238929839Y-114585636D01*
X238845521Y-114567524D01*
X238625000Y-114687423D01*
X238375000Y-114687423D01*
X238213993Y-114599882D01*
X238363477Y-114500000D01*
X244014340Y-114500000D01*
X244209399Y-114695059D01*
X244209399Y-114695059D01*
G37*
X244209399Y-114695059D02*
X244009839Y-114585636D01*
X243925521Y-114567524D01*
X243705000Y-114687423D01*
X243705000Y-116175000D01*
X245005000Y-116175000D01*
X245005000Y-115825000D01*
X244877661Y-115388490D01*
X244965199Y-115424839D01*
X245125000Y-115424978D01*
X245125000Y-117639340D01*
X244980330Y-117494670D01*
X244798575Y-117373225D01*
X244848693Y-117310809D01*
X245005000Y-116775000D01*
X245005000Y-116425000D01*
X243705000Y-116425000D01*
X243705000Y-116445000D01*
X243455000Y-116445000D01*
X243455000Y-116425000D01*
X241165000Y-116425000D01*
X241165000Y-116445000D01*
X240915000Y-116445000D01*
X240915000Y-116425000D01*
X238625000Y-116425000D01*
X238625000Y-116445000D01*
X238375000Y-116445000D01*
X238375000Y-116425000D01*
X238355000Y-116425000D01*
X238355000Y-116175000D01*
X238375000Y-116175000D01*
X238375000Y-114687423D01*
X238625000Y-114687423D01*
X238625000Y-116175000D01*
X240915000Y-116175000D01*
X240915000Y-114687423D01*
X241165000Y-114687423D01*
X241165000Y-116175000D01*
X243455000Y-116175000D01*
X243455000Y-114687423D01*
X243234479Y-114567524D01*
X243150161Y-114585636D01*
X242660761Y-114853984D01*
X242311307Y-115289191D01*
X242310000Y-115293671D01*
X242308693Y-115289191D01*
X241959239Y-114853984D01*
X241469839Y-114585636D01*
X241385521Y-114567524D01*
X241165000Y-114687423D01*
X240915000Y-114687423D01*
X240694479Y-114567524D01*
X240610161Y-114585636D01*
X240120761Y-114853984D01*
X239771307Y-115289191D01*
X239770000Y-115293671D01*
X239768693Y-115289191D01*
X239419239Y-114853984D01*
X238929839Y-114585636D01*
X238845521Y-114567524D01*
X238625000Y-114687423D01*
X238375000Y-114687423D01*
X238213993Y-114599882D01*
X238363477Y-114500000D01*
X244014340Y-114500000D01*
X244209399Y-114695059D01*
G36*
X250330541Y-107579857D02*
X250450000Y-107699525D01*
X250450000Y-111760300D01*
X250381554Y-111828626D01*
X250225178Y-112205220D01*
X250224822Y-112612991D01*
X250380541Y-112989857D01*
X250668626Y-113278446D01*
X251045220Y-113434822D01*
X251400000Y-113435132D01*
X251400000Y-115539340D01*
X250269340Y-116670000D01*
X249164542Y-116670000D01*
X248992401Y-116412373D01*
X248599732Y-116150000D01*
X248992401Y-115887627D01*
X249301302Y-115425324D01*
X249409774Y-114880000D01*
X249301302Y-114334676D01*
X248992401Y-113872373D01*
X248599732Y-113610000D01*
X248992401Y-113347627D01*
X249301302Y-112885324D01*
X249409774Y-112340000D01*
X249301302Y-111794676D01*
X249146965Y-111563695D01*
X249880330Y-110830330D01*
X249911830Y-110783187D01*
X250042910Y-110587013D01*
X250100000Y-110300000D01*
X250100000Y-107310660D01*
X250184426Y-107226234D01*
X250330541Y-107579857D01*
X250330541Y-107579857D01*
G37*
X250330541Y-107579857D02*
X250450000Y-107699525D01*
X250450000Y-111760300D01*
X250381554Y-111828626D01*
X250225178Y-112205220D01*
X250224822Y-112612991D01*
X250380541Y-112989857D01*
X250668626Y-113278446D01*
X251045220Y-113434822D01*
X251400000Y-113435132D01*
X251400000Y-115539340D01*
X250269340Y-116670000D01*
X249164542Y-116670000D01*
X248992401Y-116412373D01*
X248599732Y-116150000D01*
X248992401Y-115887627D01*
X249301302Y-115425324D01*
X249409774Y-114880000D01*
X249301302Y-114334676D01*
X248992401Y-113872373D01*
X248599732Y-113610000D01*
X248992401Y-113347627D01*
X249301302Y-112885324D01*
X249409774Y-112340000D01*
X249301302Y-111794676D01*
X249146965Y-111563695D01*
X249880330Y-110830330D01*
X249911830Y-110783187D01*
X250042910Y-110587013D01*
X250100000Y-110300000D01*
X250100000Y-107310660D01*
X250184426Y-107226234D01*
X250330541Y-107579857D01*
G36*
X220650345Y-113283720D02*
X220990199Y-113424839D01*
X221358187Y-113425160D01*
X221698286Y-113284634D01*
X221732981Y-113250000D01*
X224325000Y-113250000D01*
X224325000Y-114339340D01*
X222239340Y-116425000D01*
X221005000Y-116425000D01*
X221005000Y-116445000D01*
X220755000Y-116445000D01*
X220755000Y-116425000D01*
X218465000Y-116425000D01*
X218465000Y-116445000D01*
X218215000Y-116445000D01*
X218215000Y-116425000D01*
X215925000Y-116425000D01*
X215925000Y-116445000D01*
X215675000Y-116445000D01*
X215675000Y-116425000D01*
X215655000Y-116425000D01*
X215655000Y-116175000D01*
X215675000Y-116175000D01*
X215675000Y-116155000D01*
X215925000Y-116155000D01*
X215925000Y-116175000D01*
X218215000Y-116175000D01*
X218215000Y-114687423D01*
X218050111Y-114597772D01*
X218050160Y-114541813D01*
X217909634Y-114201714D01*
X217850000Y-114141976D01*
X217850000Y-113885660D01*
X218585983Y-114621643D01*
X218465000Y-114687423D01*
X218465000Y-116175000D01*
X220755000Y-116175000D01*
X220755000Y-114687423D01*
X221005000Y-114687423D01*
X221005000Y-116175000D01*
X222305000Y-116175000D01*
X222305000Y-115825000D01*
X222148693Y-115289191D01*
X221799239Y-114853984D01*
X221309839Y-114585636D01*
X221225521Y-114567524D01*
X221005000Y-114687423D01*
X220755000Y-114687423D01*
X220534479Y-114567524D01*
X220525005Y-114569559D01*
X220525160Y-114391813D01*
X220384634Y-114051714D01*
X220124655Y-113791280D01*
X219784801Y-113650161D01*
X219735778Y-113650118D01*
X219696942Y-113611282D01*
X219783720Y-113524655D01*
X219897766Y-113250000D01*
X220616684Y-113250000D01*
X220650345Y-113283720D01*
X220650345Y-113283720D01*
G37*
X220650345Y-113283720D02*
X220990199Y-113424839D01*
X221358187Y-113425160D01*
X221698286Y-113284634D01*
X221732981Y-113250000D01*
X224325000Y-113250000D01*
X224325000Y-114339340D01*
X222239340Y-116425000D01*
X221005000Y-116425000D01*
X221005000Y-116445000D01*
X220755000Y-116445000D01*
X220755000Y-116425000D01*
X218465000Y-116425000D01*
X218465000Y-116445000D01*
X218215000Y-116445000D01*
X218215000Y-116425000D01*
X215925000Y-116425000D01*
X215925000Y-116445000D01*
X215675000Y-116445000D01*
X215675000Y-116425000D01*
X215655000Y-116425000D01*
X215655000Y-116175000D01*
X215675000Y-116175000D01*
X215675000Y-116155000D01*
X215925000Y-116155000D01*
X215925000Y-116175000D01*
X218215000Y-116175000D01*
X218215000Y-114687423D01*
X218050111Y-114597772D01*
X218050160Y-114541813D01*
X217909634Y-114201714D01*
X217850000Y-114141976D01*
X217850000Y-113885660D01*
X218585983Y-114621643D01*
X218465000Y-114687423D01*
X218465000Y-116175000D01*
X220755000Y-116175000D01*
X220755000Y-114687423D01*
X221005000Y-114687423D01*
X221005000Y-116175000D01*
X222305000Y-116175000D01*
X222305000Y-115825000D01*
X222148693Y-115289191D01*
X221799239Y-114853984D01*
X221309839Y-114585636D01*
X221225521Y-114567524D01*
X221005000Y-114687423D01*
X220755000Y-114687423D01*
X220534479Y-114567524D01*
X220525005Y-114569559D01*
X220525160Y-114391813D01*
X220384634Y-114051714D01*
X220124655Y-113791280D01*
X219784801Y-113650161D01*
X219735778Y-113650118D01*
X219696942Y-113611282D01*
X219783720Y-113524655D01*
X219897766Y-113250000D01*
X220616684Y-113250000D01*
X220650345Y-113283720D01*
G36*
X181669670Y-110830330D02*
X181912987Y-110992910D01*
X182200000Y-111050000D01*
X186289340Y-111050000D01*
X189710000Y-114470660D01*
X189710000Y-114735458D01*
X189452373Y-114907599D01*
X189190000Y-115300268D01*
X188927627Y-114907599D01*
X188670000Y-114735458D01*
X188670000Y-114320000D01*
X188612910Y-114032987D01*
X188450330Y-113789670D01*
X186730330Y-112069670D01*
X186487013Y-111907090D01*
X186200000Y-111850000D01*
X182110660Y-111850000D01*
X180675702Y-110415042D01*
X180845324Y-110381302D01*
X181070311Y-110230971D01*
X181669670Y-110830330D01*
X181669670Y-110830330D01*
G37*
X181669670Y-110830330D02*
X181912987Y-110992910D01*
X182200000Y-111050000D01*
X186289340Y-111050000D01*
X189710000Y-114470660D01*
X189710000Y-114735458D01*
X189452373Y-114907599D01*
X189190000Y-115300268D01*
X188927627Y-114907599D01*
X188670000Y-114735458D01*
X188670000Y-114320000D01*
X188612910Y-114032987D01*
X188450330Y-113789670D01*
X186730330Y-112069670D01*
X186487013Y-111907090D01*
X186200000Y-111850000D01*
X182110660Y-111850000D01*
X180675702Y-110415042D01*
X180845324Y-110381302D01*
X181070311Y-110230971D01*
X181669670Y-110830330D01*
G36*
X204890000Y-111475660D02*
X204890000Y-114735458D01*
X204632373Y-114907599D01*
X204370000Y-115300268D01*
X204107627Y-114907599D01*
X203850000Y-114735458D01*
X203850000Y-114100000D01*
X203792910Y-113812987D01*
X203630330Y-113569670D01*
X203373900Y-113313240D01*
X203479857Y-113269459D01*
X203768446Y-112981374D01*
X203924822Y-112604780D01*
X203924956Y-112451591D01*
X203975000Y-112200000D01*
X203975000Y-110560660D01*
X204890000Y-111475660D01*
X204890000Y-111475660D01*
G37*
X204890000Y-111475660D02*
X204890000Y-114735458D01*
X204632373Y-114907599D01*
X204370000Y-115300268D01*
X204107627Y-114907599D01*
X203850000Y-114735458D01*
X203850000Y-114100000D01*
X203792910Y-113812987D01*
X203630330Y-113569670D01*
X203373900Y-113313240D01*
X203479857Y-113269459D01*
X203768446Y-112981374D01*
X203924822Y-112604780D01*
X203924956Y-112451591D01*
X203975000Y-112200000D01*
X203975000Y-110560660D01*
X204890000Y-111475660D01*
G36*
X227332373Y-110072401D02*
X227410457Y-110124575D01*
X227300161Y-110390199D01*
X227299840Y-110758187D01*
X227440366Y-111098286D01*
X227700345Y-111358720D01*
X228040199Y-111499839D01*
X228374869Y-111500131D01*
X228374840Y-111533187D01*
X228515366Y-111873286D01*
X228775345Y-112133720D01*
X229115199Y-112274839D01*
X229483187Y-112275160D01*
X229823286Y-112134634D01*
X229857981Y-112100000D01*
X233841815Y-112100000D01*
X233890535Y-112148805D01*
X232889670Y-113149670D01*
X232727090Y-113392987D01*
X232670000Y-113680000D01*
X232670000Y-114735458D01*
X232412373Y-114907599D01*
X232150000Y-115300268D01*
X231887627Y-114907599D01*
X231425324Y-114598698D01*
X230880000Y-114490226D01*
X230334676Y-114598698D01*
X229872373Y-114907599D01*
X229610000Y-115300268D01*
X229347627Y-114907599D01*
X229090000Y-114735458D01*
X229090000Y-113540000D01*
X229032910Y-113252987D01*
X228870330Y-113009670D01*
X226259111Y-110398451D01*
X226345324Y-110381302D01*
X226807627Y-110072401D01*
X227070000Y-109679732D01*
X227332373Y-110072401D01*
X227332373Y-110072401D01*
G37*
X227332373Y-110072401D02*
X227410457Y-110124575D01*
X227300161Y-110390199D01*
X227299840Y-110758187D01*
X227440366Y-111098286D01*
X227700345Y-111358720D01*
X228040199Y-111499839D01*
X228374869Y-111500131D01*
X228374840Y-111533187D01*
X228515366Y-111873286D01*
X228775345Y-112133720D01*
X229115199Y-112274839D01*
X229483187Y-112275160D01*
X229823286Y-112134634D01*
X229857981Y-112100000D01*
X233841815Y-112100000D01*
X233890535Y-112148805D01*
X232889670Y-113149670D01*
X232727090Y-113392987D01*
X232670000Y-113680000D01*
X232670000Y-114735458D01*
X232412373Y-114907599D01*
X232150000Y-115300268D01*
X231887627Y-114907599D01*
X231425324Y-114598698D01*
X230880000Y-114490226D01*
X230334676Y-114598698D01*
X229872373Y-114907599D01*
X229610000Y-115300268D01*
X229347627Y-114907599D01*
X229090000Y-114735458D01*
X229090000Y-113540000D01*
X229032910Y-113252987D01*
X228870330Y-113009670D01*
X226259111Y-110398451D01*
X226345324Y-110381302D01*
X226807627Y-110072401D01*
X227070000Y-109679732D01*
X227332373Y-110072401D01*
G36*
X212828024Y-112161316D02*
X211486238Y-113503102D01*
X211349655Y-113366280D01*
X211009801Y-113225161D01*
X210641813Y-113224840D01*
X210301714Y-113365366D01*
X210041280Y-113625345D01*
X209968757Y-113800000D01*
X206925000Y-113800000D01*
X206798992Y-113825064D01*
X206541813Y-113824840D01*
X206390000Y-113887568D01*
X206390000Y-112128995D01*
X206440199Y-112149839D01*
X206808187Y-112150160D01*
X207148286Y-112009634D01*
X207182981Y-111975000D01*
X212642033Y-111975000D01*
X212828024Y-112161316D01*
X212828024Y-112161316D01*
G37*
X212828024Y-112161316D02*
X211486238Y-113503102D01*
X211349655Y-113366280D01*
X211009801Y-113225161D01*
X210641813Y-113224840D01*
X210301714Y-113365366D01*
X210041280Y-113625345D01*
X209968757Y-113800000D01*
X206925000Y-113800000D01*
X206798992Y-113825064D01*
X206541813Y-113824840D01*
X206390000Y-113887568D01*
X206390000Y-112128995D01*
X206440199Y-112149839D01*
X206808187Y-112150160D01*
X207148286Y-112009634D01*
X207182981Y-111975000D01*
X212642033Y-111975000D01*
X212828024Y-112161316D01*
G36*
X237954676Y-110381302D02*
X238061741Y-110402599D01*
X235429670Y-113034670D01*
X235267090Y-113277987D01*
X235210000Y-113565000D01*
X235210000Y-113574965D01*
X235066813Y-113574840D01*
X235004780Y-113600471D01*
X234984634Y-113551714D01*
X234796954Y-113363706D01*
X237730330Y-110430330D01*
X237822225Y-110292801D01*
X237954676Y-110381302D01*
X237954676Y-110381302D01*
G37*
X237954676Y-110381302D02*
X238061741Y-110402599D01*
X235429670Y-113034670D01*
X235267090Y-113277987D01*
X235210000Y-113565000D01*
X235210000Y-113574965D01*
X235066813Y-113574840D01*
X235004780Y-113600471D01*
X234984634Y-113551714D01*
X234796954Y-113363706D01*
X237730330Y-110430330D01*
X237822225Y-110292801D01*
X237954676Y-110381302D01*
G36*
X191992373Y-110072401D02*
X192454676Y-110381302D01*
X193000000Y-110489774D01*
X193545324Y-110381302D01*
X193602463Y-110343123D01*
X194439670Y-111180330D01*
X194682987Y-111342910D01*
X194874994Y-111381102D01*
X194874840Y-111558187D01*
X195015366Y-111898286D01*
X195116902Y-112000000D01*
X190808316Y-112000000D01*
X190774655Y-111966280D01*
X190434801Y-111825161D01*
X190066813Y-111824840D01*
X189726714Y-111965366D01*
X189526195Y-112165535D01*
X187833160Y-110472500D01*
X187920000Y-110489774D01*
X188465324Y-110381302D01*
X188927627Y-110072401D01*
X189190000Y-109679732D01*
X189452373Y-110072401D01*
X189914676Y-110381302D01*
X190460000Y-110489774D01*
X191005324Y-110381302D01*
X191467627Y-110072401D01*
X191730000Y-109679732D01*
X191992373Y-110072401D01*
X191992373Y-110072401D01*
G37*
X191992373Y-110072401D02*
X192454676Y-110381302D01*
X193000000Y-110489774D01*
X193545324Y-110381302D01*
X193602463Y-110343123D01*
X194439670Y-111180330D01*
X194682987Y-111342910D01*
X194874994Y-111381102D01*
X194874840Y-111558187D01*
X195015366Y-111898286D01*
X195116902Y-112000000D01*
X190808316Y-112000000D01*
X190774655Y-111966280D01*
X190434801Y-111825161D01*
X190066813Y-111824840D01*
X189726714Y-111965366D01*
X189526195Y-112165535D01*
X187833160Y-110472500D01*
X187920000Y-110489774D01*
X188465324Y-110381302D01*
X188927627Y-110072401D01*
X189190000Y-109679732D01*
X189452373Y-110072401D01*
X189914676Y-110381302D01*
X190460000Y-110489774D01*
X191005324Y-110381302D01*
X191467627Y-110072401D01*
X191730000Y-109679732D01*
X191992373Y-110072401D01*
G36*
X201407401Y-102681762D02*
X201890337Y-103004450D01*
X202460000Y-103117763D01*
X202841265Y-103041925D01*
X203258340Y-103459000D01*
X202781250Y-103459000D01*
X202625000Y-103615250D01*
X202625000Y-104975000D01*
X203832350Y-104975000D01*
X203988600Y-104818750D01*
X203988600Y-104189260D01*
X204901400Y-105102060D01*
X204901400Y-105264549D01*
X204942611Y-105471729D01*
X203894670Y-106519670D01*
X203732090Y-106762987D01*
X203684037Y-107004565D01*
X203645324Y-106978698D01*
X203100000Y-106870226D01*
X202554676Y-106978698D01*
X202092373Y-107287599D01*
X201783472Y-107749902D01*
X201675000Y-108295226D01*
X201675000Y-109064774D01*
X201783472Y-109610098D01*
X202092373Y-110072401D01*
X202225000Y-110161020D01*
X202225000Y-110264340D01*
X200710000Y-108749340D01*
X200710000Y-106539338D01*
X201012599Y-106337148D01*
X201036618Y-106301201D01*
X201106550Y-106470034D01*
X201282366Y-106645849D01*
X201512080Y-106741000D01*
X202218750Y-106741000D01*
X202375000Y-106584750D01*
X202375000Y-105225000D01*
X202625000Y-105225000D01*
X202625000Y-106584750D01*
X202781250Y-106741000D01*
X203487920Y-106741000D01*
X203717634Y-106645849D01*
X203893450Y-106470034D01*
X203988600Y-106240320D01*
X203988600Y-105381250D01*
X203832350Y-105225000D01*
X202625000Y-105225000D01*
X202375000Y-105225000D01*
X202355000Y-105225000D01*
X202355000Y-104975000D01*
X202375000Y-104975000D01*
X202375000Y-103615250D01*
X202218750Y-103459000D01*
X201512080Y-103459000D01*
X201282366Y-103554151D01*
X201106550Y-103729966D01*
X201036618Y-103898799D01*
X201012599Y-103862852D01*
X200710000Y-103660662D01*
X200710000Y-102857225D01*
X200972599Y-102681762D01*
X201190000Y-102356399D01*
X201407401Y-102681762D01*
X201407401Y-102681762D01*
G37*
X201407401Y-102681762D02*
X201890337Y-103004450D01*
X202460000Y-103117763D01*
X202841265Y-103041925D01*
X203258340Y-103459000D01*
X202781250Y-103459000D01*
X202625000Y-103615250D01*
X202625000Y-104975000D01*
X203832350Y-104975000D01*
X203988600Y-104818750D01*
X203988600Y-104189260D01*
X204901400Y-105102060D01*
X204901400Y-105264549D01*
X204942611Y-105471729D01*
X203894670Y-106519670D01*
X203732090Y-106762987D01*
X203684037Y-107004565D01*
X203645324Y-106978698D01*
X203100000Y-106870226D01*
X202554676Y-106978698D01*
X202092373Y-107287599D01*
X201783472Y-107749902D01*
X201675000Y-108295226D01*
X201675000Y-109064774D01*
X201783472Y-109610098D01*
X202092373Y-110072401D01*
X202225000Y-110161020D01*
X202225000Y-110264340D01*
X200710000Y-108749340D01*
X200710000Y-106539338D01*
X201012599Y-106337148D01*
X201036618Y-106301201D01*
X201106550Y-106470034D01*
X201282366Y-106645849D01*
X201512080Y-106741000D01*
X202218750Y-106741000D01*
X202375000Y-106584750D01*
X202375000Y-105225000D01*
X202625000Y-105225000D01*
X202625000Y-106584750D01*
X202781250Y-106741000D01*
X203487920Y-106741000D01*
X203717634Y-106645849D01*
X203893450Y-106470034D01*
X203988600Y-106240320D01*
X203988600Y-105381250D01*
X203832350Y-105225000D01*
X202625000Y-105225000D01*
X202375000Y-105225000D01*
X202355000Y-105225000D01*
X202355000Y-104975000D01*
X202375000Y-104975000D01*
X202375000Y-103615250D01*
X202218750Y-103459000D01*
X201512080Y-103459000D01*
X201282366Y-103554151D01*
X201106550Y-103729966D01*
X201036618Y-103898799D01*
X201012599Y-103862852D01*
X200710000Y-103660662D01*
X200710000Y-102857225D01*
X200972599Y-102681762D01*
X201190000Y-102356399D01*
X201407401Y-102681762D01*
G36*
X247375000Y-104250000D02*
X247906042Y-104250000D01*
X247775161Y-104565199D01*
X247774840Y-104933187D01*
X247879019Y-105185321D01*
X247188600Y-105875740D01*
X247188600Y-105361250D01*
X247032350Y-105205000D01*
X245825000Y-105205000D01*
X245825000Y-106564750D01*
X245981250Y-106721000D01*
X246343340Y-106721000D01*
X245344670Y-107719670D01*
X245182090Y-107962987D01*
X245125000Y-108250000D01*
X245125000Y-110149978D01*
X244966813Y-110149840D01*
X244724407Y-110250000D01*
X244321831Y-110250000D01*
X244587627Y-110072401D01*
X244896528Y-109610098D01*
X245005000Y-109064774D01*
X245005000Y-108295226D01*
X244896528Y-107749902D01*
X244587627Y-107287599D01*
X244309140Y-107101520D01*
X244696227Y-106714433D01*
X244712080Y-106721000D01*
X245418750Y-106721000D01*
X245575000Y-106564750D01*
X245575000Y-105205000D01*
X245555000Y-105205000D01*
X245555000Y-104955000D01*
X245575000Y-104955000D01*
X245575000Y-104935000D01*
X245825000Y-104935000D01*
X245825000Y-104955000D01*
X247032350Y-104955000D01*
X247188600Y-104798750D01*
X247188600Y-104212923D01*
X247375000Y-104250000D01*
X247375000Y-104250000D01*
G37*
X247375000Y-104250000D02*
X247906042Y-104250000D01*
X247775161Y-104565199D01*
X247774840Y-104933187D01*
X247879019Y-105185321D01*
X247188600Y-105875740D01*
X247188600Y-105361250D01*
X247032350Y-105205000D01*
X245825000Y-105205000D01*
X245825000Y-106564750D01*
X245981250Y-106721000D01*
X246343340Y-106721000D01*
X245344670Y-107719670D01*
X245182090Y-107962987D01*
X245125000Y-108250000D01*
X245125000Y-110149978D01*
X244966813Y-110149840D01*
X244724407Y-110250000D01*
X244321831Y-110250000D01*
X244587627Y-110072401D01*
X244896528Y-109610098D01*
X245005000Y-109064774D01*
X245005000Y-108295226D01*
X244896528Y-107749902D01*
X244587627Y-107287599D01*
X244309140Y-107101520D01*
X244696227Y-106714433D01*
X244712080Y-106721000D01*
X245418750Y-106721000D01*
X245575000Y-106564750D01*
X245575000Y-105205000D01*
X245555000Y-105205000D01*
X245555000Y-104955000D01*
X245575000Y-104955000D01*
X245575000Y-104935000D01*
X245825000Y-104935000D01*
X245825000Y-104955000D01*
X247032350Y-104955000D01*
X247188600Y-104798750D01*
X247188600Y-104212923D01*
X247375000Y-104250000D01*
G36*
X231289340Y-105150000D02*
X231200000Y-105150000D01*
X230912987Y-105207090D01*
X230736523Y-105325000D01*
X230716038Y-105338688D01*
X230582350Y-105205000D01*
X229375000Y-105205000D01*
X229375000Y-105225000D01*
X229125000Y-105225000D01*
X229125000Y-105205000D01*
X229105000Y-105205000D01*
X229105000Y-104955000D01*
X229125000Y-104955000D01*
X229125000Y-104935000D01*
X229375000Y-104935000D01*
X229375000Y-104955000D01*
X230582350Y-104955000D01*
X230738600Y-104798750D01*
X230738600Y-104599260D01*
X231289340Y-105150000D01*
X231289340Y-105150000D01*
G37*
X231289340Y-105150000D02*
X231200000Y-105150000D01*
X230912987Y-105207090D01*
X230736523Y-105325000D01*
X230716038Y-105338688D01*
X230582350Y-105205000D01*
X229375000Y-105205000D01*
X229375000Y-105225000D01*
X229125000Y-105225000D01*
X229125000Y-105205000D01*
X229105000Y-105205000D01*
X229105000Y-104955000D01*
X229125000Y-104955000D01*
X229125000Y-104935000D01*
X229375000Y-104935000D01*
X229375000Y-104955000D01*
X230582350Y-104955000D01*
X230738600Y-104798750D01*
X230738600Y-104599260D01*
X231289340Y-105150000D01*
M02*
