M48
;DRILL file {KiCad 4.0.4-stable} date 11/22/16 16:33:18
;FORMAT={-:-/ absolute / metric / decimal}
FMAT,2
METRIC,TZ
T1C0.300
T2C0.350
T3C0.400
T4C0.600
T5C0.762
T6C0.800
T7C1.000
T8C1.001
T9C1.016
%
G90
G05
M71
T1
X205.55Y-123.925
T2
X222.8Y-140.275
T3
X185.775Y-133.825
X185.8Y-128.425
X185.925Y-141.15
X186.05Y-130.65
X186.375Y-137.7
X190.475Y-137.55
X191.Y-134.8
X191.425Y-130.025
X191.65Y-140.925
X193.125Y-133.2
X193.525Y-137.675
X193.75Y-125.35
X193.85Y-127.45
X193.875Y-130.65
X195.725Y-135.975
X198.275Y-135.075
X200.675Y-127.7
X201.725Y-130.65
X202.6Y-135.7
X203.5Y-135.1
X203.6Y-127.075
X204.1Y-137.2
X204.8Y-136.4
X206.45Y-135.225
X206.5Y-141.675
X206.875Y-138.475
X209.925Y-135.275
X210.075Y-141.65
X216.65Y-122.675
X216.89Y-133.465
X217.6Y-125.925
X218.665Y-130.265
X220.125Y-136.6
X222.29Y-132.34
X222.8Y-136.075
X222.875Y-127.175
X223.175Y-122.825
T4
X207.3Y-122.7
X207.3Y-123.97
X207.3Y-125.24
T5
X185.96Y-126.
X188.5Y-126.
X191.04Y-126.
X196.66Y-126.
X199.2Y-126.
X201.74Y-126.
T6
X209.13Y-137.26
X209.13Y-139.8
X216.75Y-137.26
X216.75Y-139.8
T7
X188.25Y-135.3
X188.25Y-140.3
X220.7Y-123.6
X220.7Y-128.6
T8
X196.2Y-132.9
X196.2Y-140.52
X198.9Y-132.88
X198.9Y-140.5
X201.6Y-132.88
X201.6Y-140.5
X204.3Y-132.88
X204.3Y-140.5
X207.16Y-132.8
X209.7Y-132.8
X219.55Y-133.18
X219.55Y-140.8
T9
X206.6Y-128.85
X209.14Y-128.85
T0
M30
