G04 #@! TF.FileFunction,Copper,L2,Bot,Signal*
%FSLAX46Y46*%
G04 Gerber Fmt 4.6, Leading zero omitted, Abs format (unit mm)*
G04 Created by KiCad (PCBNEW 4.0.4-stable) date 11/28/16 12:37:25*
%MOMM*%
%LPD*%
G01*
G04 APERTURE LIST*
%ADD10C,0.100000*%
%ADD11C,0.600000*%
%ADD12O,2.300000X1.600000*%
%ADD13C,1.998980*%
%ADD14O,1.501140X0.899160*%
%ADD15O,1.500000X2.000000*%
%ADD16C,1.524000*%
%ADD17R,1.524000X1.524000*%
%ADD18R,2.000000X2.000000*%
%ADD19C,2.000000*%
%ADD20R,2.032000X2.032000*%
%ADD21O,2.032000X2.032000*%
%ADD22C,1.000000*%
%ADD23C,0.500000*%
%ADD24C,0.250000*%
G04 APERTURE END LIST*
D10*
D11*
X216890000Y-133465000D03*
X220125000Y-136600000D03*
X218665000Y-130265000D03*
X185775000Y-133825000D03*
X209925000Y-135275000D03*
X206875000Y-138475000D03*
X206450000Y-135225000D03*
X210075000Y-141650000D03*
X190475000Y-137550000D03*
X195725000Y-135975000D03*
X193125000Y-133200000D03*
X201725000Y-130650000D03*
X203600000Y-127075000D03*
X185800000Y-128425000D03*
X193850000Y-127450000D03*
X191425000Y-130025000D03*
X205550000Y-123925000D03*
X191000000Y-134800000D03*
X200675000Y-127700000D03*
D12*
X216750000Y-139800000D03*
X216750000Y-137260000D03*
X209130000Y-137260000D03*
X209130000Y-139800000D03*
D11*
X186375000Y-137700000D03*
X222800000Y-140275000D03*
X217600000Y-125925000D03*
X222800000Y-136075000D03*
X223175000Y-122825000D03*
X222875000Y-127175000D03*
X222290000Y-132340000D03*
X206500000Y-141675000D03*
X191650000Y-140925000D03*
X186050000Y-130650000D03*
X185925000Y-141150000D03*
X193525000Y-137675000D03*
X198275000Y-135075000D03*
X193750000Y-125350000D03*
X193875000Y-130650000D03*
D13*
X196200000Y-132900000D03*
X196200000Y-140520000D03*
X219550000Y-140800000D03*
X219550000Y-133180000D03*
X201600000Y-140500000D03*
X201600000Y-132880000D03*
X204300000Y-140500000D03*
X204300000Y-132880000D03*
D14*
X207300000Y-123970000D03*
X207300000Y-125240000D03*
X207300000Y-122700000D03*
D11*
X216650000Y-122675000D03*
D15*
X188250000Y-135300000D03*
X188250000Y-140300000D03*
X220700000Y-123600000D03*
X220700000Y-128600000D03*
D16*
X188500000Y-126000000D03*
X191040000Y-126000000D03*
D17*
X185960000Y-126000000D03*
D16*
X199200000Y-126000000D03*
X201740000Y-126000000D03*
D17*
X196660000Y-126000000D03*
D18*
X209700000Y-132800000D03*
D19*
X207160000Y-132800000D03*
D20*
X206600000Y-128850000D03*
D21*
X209140000Y-128850000D03*
D13*
X198900000Y-140500000D03*
X198900000Y-132880000D03*
D11*
X202600000Y-135700000D03*
X204100000Y-137200000D03*
X203500000Y-135100000D03*
X204800000Y-136400000D03*
D22*
X206575000Y-126825000D02*
X206575000Y-128825000D01*
X206575000Y-128825000D02*
X206600000Y-128850000D01*
X209100000Y-126825000D02*
X209100000Y-128810000D01*
X209100000Y-128810000D02*
X209140000Y-128850000D01*
X206575000Y-126825000D02*
X209100000Y-126825000D01*
X209150000Y-128840000D02*
X209140000Y-128850000D01*
D23*
X204100000Y-137200000D02*
X202600000Y-135700000D01*
D22*
X191800000Y-136800000D02*
X191750000Y-136800000D01*
X191750000Y-136800000D02*
X188250000Y-140300000D01*
X204300000Y-140500000D02*
X201600000Y-140500000D01*
X201600000Y-140500000D02*
X201600000Y-139200000D01*
X199200000Y-136800000D02*
X191800000Y-136800000D01*
X201600000Y-139200000D02*
X199200000Y-136800000D01*
X207300000Y-125240000D02*
X205260000Y-125240000D01*
X192200000Y-136400000D02*
X191800000Y-136800000D01*
X192200000Y-133000000D02*
X192200000Y-136400000D01*
X194700000Y-130500000D02*
X192200000Y-133000000D01*
X200000000Y-130500000D02*
X194700000Y-130500000D01*
X205260000Y-125240000D02*
X200000000Y-130500000D01*
D23*
X204700000Y-130700000D02*
X204350000Y-131050000D01*
X204350000Y-131050000D02*
X204350000Y-132830000D01*
X204350000Y-132830000D02*
X204300000Y-132880000D01*
X207300000Y-123970000D02*
X209420000Y-123970000D01*
X209420000Y-123970000D02*
X210900000Y-125450000D01*
X210900000Y-125450000D02*
X210900000Y-129750000D01*
X210900000Y-129750000D02*
X209950000Y-130700000D01*
X209950000Y-130700000D02*
X204700000Y-130700000D01*
X204800000Y-136400000D02*
X203500000Y-135100000D01*
D22*
X196660000Y-126000000D02*
X196660000Y-125960000D01*
X196660000Y-125960000D02*
X193400000Y-122700000D01*
X185960000Y-126000000D02*
X185960000Y-124640000D01*
X187900000Y-122700000D02*
X193400000Y-122700000D01*
X193400000Y-122700000D02*
X207300000Y-122700000D01*
X185960000Y-124640000D02*
X187900000Y-122700000D01*
D24*
G36*
X195260756Y-126151746D02*
X195260756Y-126762000D01*
X195304337Y-126993611D01*
X195441219Y-127206332D01*
X195650076Y-127349038D01*
X195898000Y-127399244D01*
X197422000Y-127399244D01*
X197653611Y-127355663D01*
X197866332Y-127218781D01*
X198009038Y-127009924D01*
X198049399Y-126810617D01*
X198413302Y-127175156D01*
X198922898Y-127386759D01*
X199474681Y-127387240D01*
X199984646Y-127176527D01*
X200375156Y-126786698D01*
X200469972Y-126558356D01*
X200563473Y-126784646D01*
X200953302Y-127175156D01*
X201462898Y-127386759D01*
X202014681Y-127387240D01*
X202524646Y-127176527D01*
X202915156Y-126786698D01*
X203126759Y-126277102D01*
X203127240Y-125725319D01*
X202916527Y-125215354D01*
X202526698Y-124824844D01*
X202017102Y-124613241D01*
X201465319Y-124612760D01*
X200955354Y-124823473D01*
X200564844Y-125213302D01*
X200470028Y-125441644D01*
X200376527Y-125215354D01*
X199986698Y-124824844D01*
X199477102Y-124613241D01*
X198925319Y-124612760D01*
X198415354Y-124823473D01*
X198049892Y-125188298D01*
X198015663Y-125006389D01*
X197878781Y-124793668D01*
X197669924Y-124650962D01*
X197422000Y-124600756D01*
X196891746Y-124600756D01*
X196115990Y-123825000D01*
X205926323Y-123825000D01*
X205897481Y-123970000D01*
X205979279Y-124381224D01*
X206131196Y-124608585D01*
X205964419Y-124949579D01*
X206089227Y-125115000D01*
X207175000Y-125115000D01*
X207175000Y-125095000D01*
X207425000Y-125095000D01*
X207425000Y-125115000D01*
X208510773Y-125115000D01*
X208635581Y-124949579D01*
X208584432Y-124845000D01*
X209057564Y-124845000D01*
X210025000Y-125812436D01*
X210025000Y-126223323D01*
X209895495Y-126029505D01*
X209530519Y-125785636D01*
X209100000Y-125700000D01*
X208552641Y-125700000D01*
X208635581Y-125530421D01*
X208510773Y-125365000D01*
X207425000Y-125365000D01*
X207425000Y-125385000D01*
X207175000Y-125385000D01*
X207175000Y-125365000D01*
X206089227Y-125365000D01*
X205964419Y-125530421D01*
X206102848Y-125813454D01*
X205779505Y-126029505D01*
X205535636Y-126394481D01*
X205450000Y-126825000D01*
X205450000Y-127221970D01*
X205352389Y-127240337D01*
X205139668Y-127377219D01*
X204996962Y-127586076D01*
X204946756Y-127834000D01*
X204946756Y-129825000D01*
X204700000Y-129825000D01*
X204365152Y-129891605D01*
X204081282Y-130081281D01*
X203731282Y-130431282D01*
X203541605Y-130715152D01*
X203475000Y-131050000D01*
X203475000Y-131463182D01*
X203381002Y-131502021D01*
X202949649Y-131932622D01*
X202521401Y-131503627D01*
X201924549Y-131255792D01*
X201278287Y-131255228D01*
X200681002Y-131502021D01*
X200249649Y-131932622D01*
X199821401Y-131503627D01*
X199224549Y-131255792D01*
X198578287Y-131255228D01*
X197981002Y-131502021D01*
X197539649Y-131942605D01*
X197121401Y-131523627D01*
X196524549Y-131275792D01*
X195878287Y-131275228D01*
X195281002Y-131522021D01*
X194823627Y-131978599D01*
X194575792Y-132575451D01*
X194575228Y-133221713D01*
X194822021Y-133818998D01*
X195278599Y-134276373D01*
X195875451Y-134524208D01*
X196521713Y-134524772D01*
X197118998Y-134277979D01*
X197560351Y-133837395D01*
X197978599Y-134256373D01*
X198575451Y-134504208D01*
X199221713Y-134504772D01*
X199818998Y-134257979D01*
X200250351Y-133827378D01*
X200678599Y-134256373D01*
X201275451Y-134504208D01*
X201921713Y-134504772D01*
X202518998Y-134257979D01*
X202950351Y-133827378D01*
X203302933Y-134180575D01*
X202976714Y-134315366D01*
X202716280Y-134575345D01*
X202633364Y-134775029D01*
X202416813Y-134774840D01*
X202076714Y-134915366D01*
X201816280Y-135175345D01*
X201675161Y-135515199D01*
X201674840Y-135883187D01*
X201815366Y-136223286D01*
X202075345Y-136483720D01*
X202196657Y-136534093D01*
X203265736Y-137603173D01*
X203315366Y-137723286D01*
X203575345Y-137983720D01*
X203915199Y-138124839D01*
X204283187Y-138125160D01*
X204623286Y-137984634D01*
X204883720Y-137724655D01*
X205024839Y-137384801D01*
X205024906Y-137307922D01*
X205323286Y-137184634D01*
X205583720Y-136924655D01*
X205724839Y-136584801D01*
X205725160Y-136216813D01*
X205584634Y-135876714D01*
X205324655Y-135616280D01*
X205203345Y-135565908D01*
X204334264Y-134696828D01*
X204284634Y-134576714D01*
X204212461Y-134504415D01*
X204621713Y-134504772D01*
X205218998Y-134257979D01*
X205676373Y-133801401D01*
X205746117Y-133633439D01*
X205781588Y-133719286D01*
X206238309Y-134176805D01*
X206835349Y-134424718D01*
X207481814Y-134425282D01*
X208079286Y-134178412D01*
X208153274Y-134104553D01*
X208243219Y-134244332D01*
X208452076Y-134387038D01*
X208700000Y-134437244D01*
X210700000Y-134437244D01*
X210875000Y-134404315D01*
X210875000Y-136934360D01*
X210831302Y-136714676D01*
X210522401Y-136252373D01*
X210060098Y-135943472D01*
X209514774Y-135835000D01*
X208745226Y-135835000D01*
X208199902Y-135943472D01*
X207737599Y-136252373D01*
X207428698Y-136714676D01*
X207320226Y-137260000D01*
X207428698Y-137805324D01*
X207737599Y-138267627D01*
X208130268Y-138530000D01*
X207737599Y-138792373D01*
X207428698Y-139254676D01*
X207320226Y-139800000D01*
X207428698Y-140345324D01*
X207737599Y-140807627D01*
X208199902Y-141116528D01*
X208745226Y-141225000D01*
X209514774Y-141225000D01*
X210060098Y-141116528D01*
X210522401Y-140807627D01*
X210831302Y-140345324D01*
X210875000Y-140125640D01*
X210875000Y-142250000D01*
X184800000Y-142250000D01*
X184800000Y-140425000D01*
X186875000Y-140425000D01*
X186875000Y-140675000D01*
X187027501Y-141191675D01*
X187366117Y-141610661D01*
X187839296Y-141868170D01*
X187912332Y-141882893D01*
X188125000Y-141762323D01*
X188125000Y-140425000D01*
X188375000Y-140425000D01*
X188375000Y-141762323D01*
X188587668Y-141882893D01*
X188660704Y-141868170D01*
X189133883Y-141610661D01*
X189472499Y-141191675D01*
X189575793Y-140841713D01*
X194575228Y-140841713D01*
X194822021Y-141438998D01*
X195278599Y-141896373D01*
X195875451Y-142144208D01*
X196521713Y-142144772D01*
X197118998Y-141897979D01*
X197560351Y-141457395D01*
X197978599Y-141876373D01*
X198575451Y-142124208D01*
X199221713Y-142124772D01*
X199818998Y-141877979D01*
X200051976Y-141645406D01*
X200631370Y-141645406D01*
X200730346Y-141909639D01*
X201335990Y-142135139D01*
X201981828Y-142111704D01*
X202469654Y-141909639D01*
X202568630Y-141645406D01*
X203331370Y-141645406D01*
X203430346Y-141909639D01*
X204035990Y-142135139D01*
X204681828Y-142111704D01*
X205169654Y-141909639D01*
X205268630Y-141645406D01*
X204300000Y-140676777D01*
X203331370Y-141645406D01*
X202568630Y-141645406D01*
X201600000Y-140676777D01*
X200631370Y-141645406D01*
X200051976Y-141645406D01*
X200276373Y-141421401D01*
X200283391Y-141404501D01*
X200454594Y-141468630D01*
X201423223Y-140500000D01*
X201776777Y-140500000D01*
X202745406Y-141468630D01*
X202950000Y-141391993D01*
X203154594Y-141468630D01*
X204123223Y-140500000D01*
X204476777Y-140500000D01*
X205445406Y-141468630D01*
X205709639Y-141369654D01*
X205935139Y-140764010D01*
X205911704Y-140118172D01*
X205709639Y-139630346D01*
X205445406Y-139531370D01*
X204476777Y-140500000D01*
X204123223Y-140500000D01*
X203154594Y-139531370D01*
X202950000Y-139608007D01*
X202745406Y-139531370D01*
X201776777Y-140500000D01*
X201423223Y-140500000D01*
X200454594Y-139531370D01*
X200283892Y-139595311D01*
X200277979Y-139581002D01*
X200051966Y-139354594D01*
X200631370Y-139354594D01*
X201600000Y-140323223D01*
X202568630Y-139354594D01*
X203331370Y-139354594D01*
X204300000Y-140323223D01*
X205268630Y-139354594D01*
X205169654Y-139090361D01*
X204564010Y-138864861D01*
X203918172Y-138888296D01*
X203430346Y-139090361D01*
X203331370Y-139354594D01*
X202568630Y-139354594D01*
X202469654Y-139090361D01*
X201864010Y-138864861D01*
X201218172Y-138888296D01*
X200730346Y-139090361D01*
X200631370Y-139354594D01*
X200051966Y-139354594D01*
X199821401Y-139123627D01*
X199224549Y-138875792D01*
X198578287Y-138875228D01*
X197981002Y-139122021D01*
X197539649Y-139562605D01*
X197121401Y-139143627D01*
X196524549Y-138895792D01*
X195878287Y-138895228D01*
X195281002Y-139142021D01*
X194823627Y-139598599D01*
X194575792Y-140195451D01*
X194575228Y-140841713D01*
X189575793Y-140841713D01*
X189625000Y-140675000D01*
X189625000Y-140425000D01*
X188375000Y-140425000D01*
X188125000Y-140425000D01*
X186875000Y-140425000D01*
X184800000Y-140425000D01*
X184800000Y-139925000D01*
X186875000Y-139925000D01*
X186875000Y-140175000D01*
X188125000Y-140175000D01*
X188125000Y-138837677D01*
X188375000Y-138837677D01*
X188375000Y-140175000D01*
X189625000Y-140175000D01*
X189625000Y-139925000D01*
X189472499Y-139408325D01*
X189133883Y-138989339D01*
X188660704Y-138731830D01*
X188587668Y-138717107D01*
X188375000Y-138837677D01*
X188125000Y-138837677D01*
X187912332Y-138717107D01*
X187839296Y-138731830D01*
X187366117Y-138989339D01*
X187027501Y-139408325D01*
X186875000Y-139925000D01*
X184800000Y-139925000D01*
X184800000Y-135018164D01*
X186875000Y-135018164D01*
X186875000Y-135581836D01*
X186979666Y-136108026D01*
X187277728Y-136554108D01*
X187723810Y-136852170D01*
X188250000Y-136956836D01*
X188776190Y-136852170D01*
X189222272Y-136554108D01*
X189520334Y-136108026D01*
X189625000Y-135581836D01*
X189625000Y-135018164D01*
X189520334Y-134491974D01*
X189222272Y-134045892D01*
X188776190Y-133747830D01*
X188250000Y-133643164D01*
X187723810Y-133747830D01*
X187277728Y-134045892D01*
X186979666Y-134491974D01*
X186875000Y-135018164D01*
X184800000Y-135018164D01*
X184800000Y-127246495D01*
X184950076Y-127349038D01*
X185198000Y-127399244D01*
X186722000Y-127399244D01*
X186953611Y-127355663D01*
X187166332Y-127218781D01*
X187309038Y-127009924D01*
X187349399Y-126810617D01*
X187713302Y-127175156D01*
X188222898Y-127386759D01*
X188774681Y-127387240D01*
X189284646Y-127176527D01*
X189675156Y-126786698D01*
X189769972Y-126558356D01*
X189863473Y-126784646D01*
X190253302Y-127175156D01*
X190762898Y-127386759D01*
X191314681Y-127387240D01*
X191824646Y-127176527D01*
X192215156Y-126786698D01*
X192426759Y-126277102D01*
X192427240Y-125725319D01*
X192216527Y-125215354D01*
X191826698Y-124824844D01*
X191317102Y-124613241D01*
X190765319Y-124612760D01*
X190255354Y-124823473D01*
X189864844Y-125213302D01*
X189770028Y-125441644D01*
X189676527Y-125215354D01*
X189286698Y-124824844D01*
X188777102Y-124613241D01*
X188225319Y-124612760D01*
X187715354Y-124823473D01*
X187349892Y-125188298D01*
X187315663Y-125006389D01*
X187264348Y-124926642D01*
X188365990Y-123825000D01*
X192934010Y-123825000D01*
X195260756Y-126151746D01*
X195260756Y-126151746D01*
G37*
X195260756Y-126151746D02*
X195260756Y-126762000D01*
X195304337Y-126993611D01*
X195441219Y-127206332D01*
X195650076Y-127349038D01*
X195898000Y-127399244D01*
X197422000Y-127399244D01*
X197653611Y-127355663D01*
X197866332Y-127218781D01*
X198009038Y-127009924D01*
X198049399Y-126810617D01*
X198413302Y-127175156D01*
X198922898Y-127386759D01*
X199474681Y-127387240D01*
X199984646Y-127176527D01*
X200375156Y-126786698D01*
X200469972Y-126558356D01*
X200563473Y-126784646D01*
X200953302Y-127175156D01*
X201462898Y-127386759D01*
X202014681Y-127387240D01*
X202524646Y-127176527D01*
X202915156Y-126786698D01*
X203126759Y-126277102D01*
X203127240Y-125725319D01*
X202916527Y-125215354D01*
X202526698Y-124824844D01*
X202017102Y-124613241D01*
X201465319Y-124612760D01*
X200955354Y-124823473D01*
X200564844Y-125213302D01*
X200470028Y-125441644D01*
X200376527Y-125215354D01*
X199986698Y-124824844D01*
X199477102Y-124613241D01*
X198925319Y-124612760D01*
X198415354Y-124823473D01*
X198049892Y-125188298D01*
X198015663Y-125006389D01*
X197878781Y-124793668D01*
X197669924Y-124650962D01*
X197422000Y-124600756D01*
X196891746Y-124600756D01*
X196115990Y-123825000D01*
X205926323Y-123825000D01*
X205897481Y-123970000D01*
X205979279Y-124381224D01*
X206131196Y-124608585D01*
X205964419Y-124949579D01*
X206089227Y-125115000D01*
X207175000Y-125115000D01*
X207175000Y-125095000D01*
X207425000Y-125095000D01*
X207425000Y-125115000D01*
X208510773Y-125115000D01*
X208635581Y-124949579D01*
X208584432Y-124845000D01*
X209057564Y-124845000D01*
X210025000Y-125812436D01*
X210025000Y-126223323D01*
X209895495Y-126029505D01*
X209530519Y-125785636D01*
X209100000Y-125700000D01*
X208552641Y-125700000D01*
X208635581Y-125530421D01*
X208510773Y-125365000D01*
X207425000Y-125365000D01*
X207425000Y-125385000D01*
X207175000Y-125385000D01*
X207175000Y-125365000D01*
X206089227Y-125365000D01*
X205964419Y-125530421D01*
X206102848Y-125813454D01*
X205779505Y-126029505D01*
X205535636Y-126394481D01*
X205450000Y-126825000D01*
X205450000Y-127221970D01*
X205352389Y-127240337D01*
X205139668Y-127377219D01*
X204996962Y-127586076D01*
X204946756Y-127834000D01*
X204946756Y-129825000D01*
X204700000Y-129825000D01*
X204365152Y-129891605D01*
X204081282Y-130081281D01*
X203731282Y-130431282D01*
X203541605Y-130715152D01*
X203475000Y-131050000D01*
X203475000Y-131463182D01*
X203381002Y-131502021D01*
X202949649Y-131932622D01*
X202521401Y-131503627D01*
X201924549Y-131255792D01*
X201278287Y-131255228D01*
X200681002Y-131502021D01*
X200249649Y-131932622D01*
X199821401Y-131503627D01*
X199224549Y-131255792D01*
X198578287Y-131255228D01*
X197981002Y-131502021D01*
X197539649Y-131942605D01*
X197121401Y-131523627D01*
X196524549Y-131275792D01*
X195878287Y-131275228D01*
X195281002Y-131522021D01*
X194823627Y-131978599D01*
X194575792Y-132575451D01*
X194575228Y-133221713D01*
X194822021Y-133818998D01*
X195278599Y-134276373D01*
X195875451Y-134524208D01*
X196521713Y-134524772D01*
X197118998Y-134277979D01*
X197560351Y-133837395D01*
X197978599Y-134256373D01*
X198575451Y-134504208D01*
X199221713Y-134504772D01*
X199818998Y-134257979D01*
X200250351Y-133827378D01*
X200678599Y-134256373D01*
X201275451Y-134504208D01*
X201921713Y-134504772D01*
X202518998Y-134257979D01*
X202950351Y-133827378D01*
X203302933Y-134180575D01*
X202976714Y-134315366D01*
X202716280Y-134575345D01*
X202633364Y-134775029D01*
X202416813Y-134774840D01*
X202076714Y-134915366D01*
X201816280Y-135175345D01*
X201675161Y-135515199D01*
X201674840Y-135883187D01*
X201815366Y-136223286D01*
X202075345Y-136483720D01*
X202196657Y-136534093D01*
X203265736Y-137603173D01*
X203315366Y-137723286D01*
X203575345Y-137983720D01*
X203915199Y-138124839D01*
X204283187Y-138125160D01*
X204623286Y-137984634D01*
X204883720Y-137724655D01*
X205024839Y-137384801D01*
X205024906Y-137307922D01*
X205323286Y-137184634D01*
X205583720Y-136924655D01*
X205724839Y-136584801D01*
X205725160Y-136216813D01*
X205584634Y-135876714D01*
X205324655Y-135616280D01*
X205203345Y-135565908D01*
X204334264Y-134696828D01*
X204284634Y-134576714D01*
X204212461Y-134504415D01*
X204621713Y-134504772D01*
X205218998Y-134257979D01*
X205676373Y-133801401D01*
X205746117Y-133633439D01*
X205781588Y-133719286D01*
X206238309Y-134176805D01*
X206835349Y-134424718D01*
X207481814Y-134425282D01*
X208079286Y-134178412D01*
X208153274Y-134104553D01*
X208243219Y-134244332D01*
X208452076Y-134387038D01*
X208700000Y-134437244D01*
X210700000Y-134437244D01*
X210875000Y-134404315D01*
X210875000Y-136934360D01*
X210831302Y-136714676D01*
X210522401Y-136252373D01*
X210060098Y-135943472D01*
X209514774Y-135835000D01*
X208745226Y-135835000D01*
X208199902Y-135943472D01*
X207737599Y-136252373D01*
X207428698Y-136714676D01*
X207320226Y-137260000D01*
X207428698Y-137805324D01*
X207737599Y-138267627D01*
X208130268Y-138530000D01*
X207737599Y-138792373D01*
X207428698Y-139254676D01*
X207320226Y-139800000D01*
X207428698Y-140345324D01*
X207737599Y-140807627D01*
X208199902Y-141116528D01*
X208745226Y-141225000D01*
X209514774Y-141225000D01*
X210060098Y-141116528D01*
X210522401Y-140807627D01*
X210831302Y-140345324D01*
X210875000Y-140125640D01*
X210875000Y-142250000D01*
X184800000Y-142250000D01*
X184800000Y-140425000D01*
X186875000Y-140425000D01*
X186875000Y-140675000D01*
X187027501Y-141191675D01*
X187366117Y-141610661D01*
X187839296Y-141868170D01*
X187912332Y-141882893D01*
X188125000Y-141762323D01*
X188125000Y-140425000D01*
X188375000Y-140425000D01*
X188375000Y-141762323D01*
X188587668Y-141882893D01*
X188660704Y-141868170D01*
X189133883Y-141610661D01*
X189472499Y-141191675D01*
X189575793Y-140841713D01*
X194575228Y-140841713D01*
X194822021Y-141438998D01*
X195278599Y-141896373D01*
X195875451Y-142144208D01*
X196521713Y-142144772D01*
X197118998Y-141897979D01*
X197560351Y-141457395D01*
X197978599Y-141876373D01*
X198575451Y-142124208D01*
X199221713Y-142124772D01*
X199818998Y-141877979D01*
X200051976Y-141645406D01*
X200631370Y-141645406D01*
X200730346Y-141909639D01*
X201335990Y-142135139D01*
X201981828Y-142111704D01*
X202469654Y-141909639D01*
X202568630Y-141645406D01*
X203331370Y-141645406D01*
X203430346Y-141909639D01*
X204035990Y-142135139D01*
X204681828Y-142111704D01*
X205169654Y-141909639D01*
X205268630Y-141645406D01*
X204300000Y-140676777D01*
X203331370Y-141645406D01*
X202568630Y-141645406D01*
X201600000Y-140676777D01*
X200631370Y-141645406D01*
X200051976Y-141645406D01*
X200276373Y-141421401D01*
X200283391Y-141404501D01*
X200454594Y-141468630D01*
X201423223Y-140500000D01*
X201776777Y-140500000D01*
X202745406Y-141468630D01*
X202950000Y-141391993D01*
X203154594Y-141468630D01*
X204123223Y-140500000D01*
X204476777Y-140500000D01*
X205445406Y-141468630D01*
X205709639Y-141369654D01*
X205935139Y-140764010D01*
X205911704Y-140118172D01*
X205709639Y-139630346D01*
X205445406Y-139531370D01*
X204476777Y-140500000D01*
X204123223Y-140500000D01*
X203154594Y-139531370D01*
X202950000Y-139608007D01*
X202745406Y-139531370D01*
X201776777Y-140500000D01*
X201423223Y-140500000D01*
X200454594Y-139531370D01*
X200283892Y-139595311D01*
X200277979Y-139581002D01*
X200051966Y-139354594D01*
X200631370Y-139354594D01*
X201600000Y-140323223D01*
X202568630Y-139354594D01*
X203331370Y-139354594D01*
X204300000Y-140323223D01*
X205268630Y-139354594D01*
X205169654Y-139090361D01*
X204564010Y-138864861D01*
X203918172Y-138888296D01*
X203430346Y-139090361D01*
X203331370Y-139354594D01*
X202568630Y-139354594D01*
X202469654Y-139090361D01*
X201864010Y-138864861D01*
X201218172Y-138888296D01*
X200730346Y-139090361D01*
X200631370Y-139354594D01*
X200051966Y-139354594D01*
X199821401Y-139123627D01*
X199224549Y-138875792D01*
X198578287Y-138875228D01*
X197981002Y-139122021D01*
X197539649Y-139562605D01*
X197121401Y-139143627D01*
X196524549Y-138895792D01*
X195878287Y-138895228D01*
X195281002Y-139142021D01*
X194823627Y-139598599D01*
X194575792Y-140195451D01*
X194575228Y-140841713D01*
X189575793Y-140841713D01*
X189625000Y-140675000D01*
X189625000Y-140425000D01*
X188375000Y-140425000D01*
X188125000Y-140425000D01*
X186875000Y-140425000D01*
X184800000Y-140425000D01*
X184800000Y-139925000D01*
X186875000Y-139925000D01*
X186875000Y-140175000D01*
X188125000Y-140175000D01*
X188125000Y-138837677D01*
X188375000Y-138837677D01*
X188375000Y-140175000D01*
X189625000Y-140175000D01*
X189625000Y-139925000D01*
X189472499Y-139408325D01*
X189133883Y-138989339D01*
X188660704Y-138731830D01*
X188587668Y-138717107D01*
X188375000Y-138837677D01*
X188125000Y-138837677D01*
X187912332Y-138717107D01*
X187839296Y-138731830D01*
X187366117Y-138989339D01*
X187027501Y-139408325D01*
X186875000Y-139925000D01*
X184800000Y-139925000D01*
X184800000Y-135018164D01*
X186875000Y-135018164D01*
X186875000Y-135581836D01*
X186979666Y-136108026D01*
X187277728Y-136554108D01*
X187723810Y-136852170D01*
X188250000Y-136956836D01*
X188776190Y-136852170D01*
X189222272Y-136554108D01*
X189520334Y-136108026D01*
X189625000Y-135581836D01*
X189625000Y-135018164D01*
X189520334Y-134491974D01*
X189222272Y-134045892D01*
X188776190Y-133747830D01*
X188250000Y-133643164D01*
X187723810Y-133747830D01*
X187277728Y-134045892D01*
X186979666Y-134491974D01*
X186875000Y-135018164D01*
X184800000Y-135018164D01*
X184800000Y-127246495D01*
X184950076Y-127349038D01*
X185198000Y-127399244D01*
X186722000Y-127399244D01*
X186953611Y-127355663D01*
X187166332Y-127218781D01*
X187309038Y-127009924D01*
X187349399Y-126810617D01*
X187713302Y-127175156D01*
X188222898Y-127386759D01*
X188774681Y-127387240D01*
X189284646Y-127176527D01*
X189675156Y-126786698D01*
X189769972Y-126558356D01*
X189863473Y-126784646D01*
X190253302Y-127175156D01*
X190762898Y-127386759D01*
X191314681Y-127387240D01*
X191824646Y-127176527D01*
X192215156Y-126786698D01*
X192426759Y-126277102D01*
X192427240Y-125725319D01*
X192216527Y-125215354D01*
X191826698Y-124824844D01*
X191317102Y-124613241D01*
X190765319Y-124612760D01*
X190255354Y-124823473D01*
X189864844Y-125213302D01*
X189770028Y-125441644D01*
X189676527Y-125215354D01*
X189286698Y-124824844D01*
X188777102Y-124613241D01*
X188225319Y-124612760D01*
X187715354Y-124823473D01*
X187349892Y-125188298D01*
X187315663Y-125006389D01*
X187264348Y-124926642D01*
X188365990Y-123825000D01*
X192934010Y-123825000D01*
X195260756Y-126151746D01*
G36*
X224150000Y-142250000D02*
X220294694Y-142250000D01*
X220468998Y-142177979D01*
X220926373Y-141721401D01*
X221174208Y-141124549D01*
X221174772Y-140478287D01*
X220927979Y-139881002D01*
X220471401Y-139423627D01*
X219874549Y-139175792D01*
X219228287Y-139175228D01*
X218631002Y-139422021D01*
X218508845Y-139543965D01*
X218451302Y-139254676D01*
X218142401Y-138792373D01*
X217751737Y-138531340D01*
X217760809Y-138528693D01*
X218196016Y-138179239D01*
X218464364Y-137689839D01*
X218482476Y-137605521D01*
X218362577Y-137385000D01*
X216875000Y-137385000D01*
X216875000Y-137405000D01*
X216625000Y-137405000D01*
X216625000Y-137385000D01*
X216605000Y-137385000D01*
X216605000Y-137135000D01*
X216625000Y-137135000D01*
X216625000Y-135835000D01*
X216875000Y-135835000D01*
X216875000Y-137135000D01*
X218362577Y-137135000D01*
X218482476Y-136914479D01*
X218464364Y-136830161D01*
X218196016Y-136340761D01*
X217760809Y-135991307D01*
X217225000Y-135835000D01*
X216875000Y-135835000D01*
X216625000Y-135835000D01*
X216275000Y-135835000D01*
X215739191Y-135991307D01*
X215400000Y-136263664D01*
X215400000Y-133501713D01*
X217925228Y-133501713D01*
X218172021Y-134098998D01*
X218628599Y-134556373D01*
X219225451Y-134804208D01*
X219871713Y-134804772D01*
X220468998Y-134557979D01*
X220926373Y-134101401D01*
X221174208Y-133504549D01*
X221174772Y-132858287D01*
X220927979Y-132261002D01*
X220471401Y-131803627D01*
X219874549Y-131555792D01*
X219228287Y-131555228D01*
X218631002Y-131802021D01*
X218173627Y-132258599D01*
X217925792Y-132855451D01*
X217925228Y-133501713D01*
X215400000Y-133501713D01*
X215400000Y-128318164D01*
X219325000Y-128318164D01*
X219325000Y-128881836D01*
X219429666Y-129408026D01*
X219727728Y-129854108D01*
X220173810Y-130152170D01*
X220700000Y-130256836D01*
X221226190Y-130152170D01*
X221672272Y-129854108D01*
X221970334Y-129408026D01*
X222075000Y-128881836D01*
X222075000Y-128318164D01*
X221970334Y-127791974D01*
X221672272Y-127345892D01*
X221226190Y-127047830D01*
X220700000Y-126943164D01*
X220173810Y-127047830D01*
X219727728Y-127345892D01*
X219429666Y-127791974D01*
X219325000Y-128318164D01*
X215400000Y-128318164D01*
X215400000Y-123725000D01*
X219325000Y-123725000D01*
X219325000Y-123975000D01*
X219477501Y-124491675D01*
X219816117Y-124910661D01*
X220289296Y-125168170D01*
X220362332Y-125182893D01*
X220575000Y-125062323D01*
X220575000Y-123725000D01*
X220825000Y-123725000D01*
X220825000Y-125062323D01*
X221037668Y-125182893D01*
X221110704Y-125168170D01*
X221583883Y-124910661D01*
X221922499Y-124491675D01*
X222075000Y-123975000D01*
X222075000Y-123725000D01*
X220825000Y-123725000D01*
X220575000Y-123725000D01*
X219325000Y-123725000D01*
X215400000Y-123725000D01*
X215400000Y-123225000D01*
X219325000Y-123225000D01*
X219325000Y-123475000D01*
X220575000Y-123475000D01*
X220575000Y-122137677D01*
X220825000Y-122137677D01*
X220825000Y-123475000D01*
X222075000Y-123475000D01*
X222075000Y-123225000D01*
X221922499Y-122708325D01*
X221583883Y-122289339D01*
X221110704Y-122031830D01*
X221037668Y-122017107D01*
X220825000Y-122137677D01*
X220575000Y-122137677D01*
X220362332Y-122017107D01*
X220289296Y-122031830D01*
X219816117Y-122289339D01*
X219477501Y-122708325D01*
X219325000Y-123225000D01*
X215400000Y-123225000D01*
X215400000Y-121650000D01*
X224150000Y-121650000D01*
X224150000Y-142250000D01*
X224150000Y-142250000D01*
G37*
X224150000Y-142250000D02*
X220294694Y-142250000D01*
X220468998Y-142177979D01*
X220926373Y-141721401D01*
X221174208Y-141124549D01*
X221174772Y-140478287D01*
X220927979Y-139881002D01*
X220471401Y-139423627D01*
X219874549Y-139175792D01*
X219228287Y-139175228D01*
X218631002Y-139422021D01*
X218508845Y-139543965D01*
X218451302Y-139254676D01*
X218142401Y-138792373D01*
X217751737Y-138531340D01*
X217760809Y-138528693D01*
X218196016Y-138179239D01*
X218464364Y-137689839D01*
X218482476Y-137605521D01*
X218362577Y-137385000D01*
X216875000Y-137385000D01*
X216875000Y-137405000D01*
X216625000Y-137405000D01*
X216625000Y-137385000D01*
X216605000Y-137385000D01*
X216605000Y-137135000D01*
X216625000Y-137135000D01*
X216625000Y-135835000D01*
X216875000Y-135835000D01*
X216875000Y-137135000D01*
X218362577Y-137135000D01*
X218482476Y-136914479D01*
X218464364Y-136830161D01*
X218196016Y-136340761D01*
X217760809Y-135991307D01*
X217225000Y-135835000D01*
X216875000Y-135835000D01*
X216625000Y-135835000D01*
X216275000Y-135835000D01*
X215739191Y-135991307D01*
X215400000Y-136263664D01*
X215400000Y-133501713D01*
X217925228Y-133501713D01*
X218172021Y-134098998D01*
X218628599Y-134556373D01*
X219225451Y-134804208D01*
X219871713Y-134804772D01*
X220468998Y-134557979D01*
X220926373Y-134101401D01*
X221174208Y-133504549D01*
X221174772Y-132858287D01*
X220927979Y-132261002D01*
X220471401Y-131803627D01*
X219874549Y-131555792D01*
X219228287Y-131555228D01*
X218631002Y-131802021D01*
X218173627Y-132258599D01*
X217925792Y-132855451D01*
X217925228Y-133501713D01*
X215400000Y-133501713D01*
X215400000Y-128318164D01*
X219325000Y-128318164D01*
X219325000Y-128881836D01*
X219429666Y-129408026D01*
X219727728Y-129854108D01*
X220173810Y-130152170D01*
X220700000Y-130256836D01*
X221226190Y-130152170D01*
X221672272Y-129854108D01*
X221970334Y-129408026D01*
X222075000Y-128881836D01*
X222075000Y-128318164D01*
X221970334Y-127791974D01*
X221672272Y-127345892D01*
X221226190Y-127047830D01*
X220700000Y-126943164D01*
X220173810Y-127047830D01*
X219727728Y-127345892D01*
X219429666Y-127791974D01*
X219325000Y-128318164D01*
X215400000Y-128318164D01*
X215400000Y-123725000D01*
X219325000Y-123725000D01*
X219325000Y-123975000D01*
X219477501Y-124491675D01*
X219816117Y-124910661D01*
X220289296Y-125168170D01*
X220362332Y-125182893D01*
X220575000Y-125062323D01*
X220575000Y-123725000D01*
X220825000Y-123725000D01*
X220825000Y-125062323D01*
X221037668Y-125182893D01*
X221110704Y-125168170D01*
X221583883Y-124910661D01*
X221922499Y-124491675D01*
X222075000Y-123975000D01*
X222075000Y-123725000D01*
X220825000Y-123725000D01*
X220575000Y-123725000D01*
X219325000Y-123725000D01*
X215400000Y-123725000D01*
X215400000Y-123225000D01*
X219325000Y-123225000D01*
X219325000Y-123475000D01*
X220575000Y-123475000D01*
X220575000Y-122137677D01*
X220825000Y-122137677D01*
X220825000Y-123475000D01*
X222075000Y-123475000D01*
X222075000Y-123225000D01*
X221922499Y-122708325D01*
X221583883Y-122289339D01*
X221110704Y-122031830D01*
X221037668Y-122017107D01*
X220825000Y-122137677D01*
X220575000Y-122137677D01*
X220362332Y-122017107D01*
X220289296Y-122031830D01*
X219816117Y-122289339D01*
X219477501Y-122708325D01*
X219325000Y-123225000D01*
X215400000Y-123225000D01*
X215400000Y-121650000D01*
X224150000Y-121650000D01*
X224150000Y-142250000D01*
M02*
